<svg xmlns="http://www.w3.org/2000/svg" width="24" height="24" viewBox="0 0 24 24"><path d="M9.1 7.2a.9.9 0 1 1 1.8 0 .9.9 0 0 1-1.8 0m9.083 7.2H8.63l.325 1.6H20v1.6h-1.738A2.403 2.403 0 0 1 16 20.8a2.403 2.403 0 0 1-2.262-3.2h-2.675a2.403 2.403 0 0 1-2.262 3.2 2.403 2.403 0 0 1-2.4-2.4c0-.806.4-1.52 1.011-1.956L5.047 4.8H3.201V3.2h2.173c.568 0 1.063.404 1.176.96l1.755 8.64h9.562L18.992 8h-6.491V6.4h6.995c.37 0 .711.166.94.455.23.289.312.66.228 1.019l-1.312 5.6a1.196 1.196 0 0 1-1.169.926M8.8 17.6a.801.801 0 0 0 0 1.6.801.801 0 0 0 0-1.6m7.2 0a.801.801 0 0 0 0 1.6.801.801 0 0 0 0-1.6"/></svg>