<svg xmlns="http://www.w3.org/2000/svg" width="24" height="24" viewBox="0 0 24 24"><path d="M12 14.4A2.403 2.403 0 0 1 9.6 12c0-1.323 1.077-2.4 2.4-2.4s2.4 1.077 2.4 2.4-1.077 2.4-2.4 2.4m0-3.2a.801.801 0 0 0 0 1.6.801.801 0 0 0 0-1.6m0 9.6a2.403 2.403 0 0 1-2.4-2.4c0-1.323 1.077-2.4 2.4-2.4s2.4 1.077 2.4 2.4-1.077 2.4-2.4 2.4m0-3.2a.801.801 0 0 0 0 1.6.801.801 0 0 0 0-1.6M12 8a2.403 2.403 0 0 1-2.4-2.4c0-1.323 1.077-2.4 2.4-2.4s2.4 1.077 2.4 2.4S13.323 8 12 8m0-3.2a.801.801 0 0 0 0 1.6.801.801 0 0 0 0-1.6"/></svg>