<svg xmlns="http://www.w3.org/2000/svg" width="24" height="24" viewBox="0 0 24 24"><path d="M12 2.4c-5.293 0-9.6 4.307-9.6 9.6s4.307 9.6 9.6 9.6 9.6-4.307 9.6-9.6-4.307-9.6-9.6-9.6M12 20c-4.411 0-8-3.59-8-8s3.589-8 8-8 8 3.589 8 8-3.589 8-8 8m2.856-7.32c.13.26.196.576.196.94q0 .428-.143.82-.145.396-.453.706a2.5 2.5 0 0 1-.78.51 3.4 3.4 0 0 1-.877.23v.914h-1.6v-.944a5 5 0 0 1-.473-.114 4 4 0 0 1-.692-.283 3.2 3.2 0 0 1-.575-.398 4.3 4.3 0 0 1-.49-.507l-.057-.07 1.051-1.062.07.09c.22.283.475.526.756.72.277.193.566.314.859.36.289.046.568.049.854.009.281-.04.529-.137.662-.264.14-.133.208-.317.208-.564 0-.224-.067-.395-.205-.525q-.22-.206-.681-.351l-.878-.228a9 9 0 0 1-.885-.27 3 3 0 0 1-.779-.408 2 2 0 0 1-.555-.637c-.141-.256-.212-.573-.212-.943 0-.324.058-.625.171-.893q.172-.405.485-.698.312-.29.759-.466.283-.111.607-.168V7.2h1.6v1.003q.297.052.538.129.337.108.605.262.267.153.485.349.214.192.417.415l.066.072-1.1 1.055-.069-.074a5.5 5.5 0 0 0-.572-.532 1.9 1.9 0 0 0-.679-.338c-.284-.078-.617-.068-.847-.046-.251.024-.469.122-.598.267a.74.74 0 0 0-.189.512c0 .216.062.376.19.488.153.135.393.257.612.312s.477.123.738.19l.146.039c.312.082.671.179.973.29q.461.173.799.433.345.265.541.654z"/></svg>