<svg xmlns="http://www.w3.org/2000/svg" width="24" height="24" viewBox="0 0 24 24"><path d="M12 2.4c-5.293 0-9.6 4.307-9.6 9.6s4.307 9.6 9.6 9.6 9.6-4.307 9.6-9.6-4.307-9.6-9.6-9.6M12 20c-4.411 0-8-3.59-8-8s3.589-8 8-8 8 3.589 8 8-3.589 8-8 8m1.575-6.308 1.141 1.14c-.521.722-1.32 1.168-2.433 1.168-1.954 0-2.94-1.374-3.155-3.2H8.083v-1.6h1.046c.217-1.826 1.21-3.2 3.154-3.2 1.109 0 1.908.447 2.431 1.169l-1.14 1.14c-.257-.556-.68-.91-1.291-.91-.894 0-1.386.757-1.543 1.8h1.143v1.6h-1.144c.156 1.045.645 1.8 1.544 1.8.613 0 1.036-.352 1.292-.907"/></svg>