<svg xmlns="http://www.w3.org/2000/svg" width="24" height="24" viewBox="0 0 24 24"><path d="M9.3 4.8a.9.9 0 1 1 0 1.8.9.9 0 0 1 0-1.8m-1.728 8.428A3.97 3.97 0 0 1 6.4 10.4c0-1.068.416-2.073 1.172-2.828l-1.13-1.13a5.56 5.56 0 0 0-1.64 3.96c0 1.495.582 2.901 1.64 3.96l1.13-1.132zm13.662 9.138-5.206-5.206a8.76 8.76 0 0 1-5.628 2.041c-4.852 0-8.8-3.948-8.8-8.8s3.948-8.8 8.8-8.8 8.8 3.947 8.8 8.8a8.76 8.76 0 0 1-2.04 5.627l5.205 5.206zM17.6 10.4c0-3.97-3.23-7.2-7.2-7.2s-7.2 3.23-7.2 7.2 3.23 7.2 7.2 7.2 7.2-3.23 7.2-7.2"/></svg>