<svg xmlns="http://www.w3.org/2000/svg" width="24" height="24" viewBox="0 0 24 24"><path d="M21.491 10.86 3.445 4.94l-.02-.008c-.272-.091-.42-.132-.578-.132C2.16 4.8 1.6 5.338 1.6 6q0 .37.222.724L5.431 12l-3.592 5.248-.018.028A1.36 1.36 0 0 0 1.6 18c0 .662.56 1.2 1.248 1.2.157 0 .305-.041.578-.132L21.49 13.14c.535-.176.91-.645.91-1.14 0-.581-.457-.992-.91-1.14zM6.906 12.678a1.19 1.19 0 0 0 0-1.355L3.761 6.727l13.635 4.474H12.2v1.6h5.196L3.761 17.275zM10.6 12a.9.9 0 1 1-1.8 0 .9.9 0 0 1 1.8 0"/></svg>