<svg xmlns="http://www.w3.org/2000/svg" width="24" height="24" viewBox="0 0 24 24"><path d="m21.395 12.578-4.18 7.6a1.2 1.2 0 0 1-1.051.622h-6.163v-1.6h5.927l3.96-7.2-3.96-7.2H8.074L4.114 12l2.752 5.004-1.178 1.178-3.082-5.603a1.2 1.2 0 0 1 0-1.157l4.18-7.6A1.2 1.2 0 0 1 7.837 3.2h8.327a1.2 1.2 0 0 1 1.052.622l4.18 7.6c.199.362.199.795 0 1.157zM16 12c0 2.206-1.794 4-4 4s-4-1.794-4-4 1.794-4 4-4 4 1.794 4 4m-1.6 0c0-1.323-1.077-2.4-2.4-2.4A2.403 2.403 0 0 0 9.6 12c0 1.323 1.077 2.4 2.4 2.4s2.4-1.077 2.4-2.4m-6.9 7a.9.9 0 1 0 0 1.8.9.9 0 0 0 0-1.8"/></svg>