<svg xmlns="http://www.w3.org/2000/svg" width="24" height="24" viewBox="0 0 24 24"><path d="M17.6 14.4a3.2 3.2 0 0 0-2.62 1.368l-5.477-2.987a3.2 3.2 0 0 0 0-1.562l5.476-2.987A3.198 3.198 0 0 0 20.8 6.4c0-1.764-1.436-3.2-3.2-3.2a3.204 3.204 0 0 0-3.184 3.517l-5.68 3.099A3.2 3.2 0 0 0 6.4 8.8 3.204 3.204 0 0 0 3.2 12c0 1.764 1.436 3.2 3.2 3.2.92 0 1.751-.391 2.335-1.015l5.681 3.099q-.015.156-.016.317c0 1.764 1.436 3.2 3.2 3.2s3.2-1.436 3.2-3.2-1.436-3.2-3.2-3.2zm0-9.6c.882 0 1.6.718 1.6 1.6S18.482 8 17.6 8 16 7.282 16 6.4s.718-1.6 1.6-1.6M4.8 12c0-.882.718-1.6 1.6-1.6S8 11.118 8 12s-.718 1.6-1.6 1.6-1.6-.718-1.6-1.6m12.8 7.2c-.882 0-1.6-.718-1.6-1.6s.718-1.6 1.6-1.6 1.6.718 1.6 1.6-.718 1.6-1.6 1.6"/></svg>