<svg xmlns="http://www.w3.org/2000/svg" width="24" height="24" viewBox="0 0 24 24"><path d="m19.271 6.402-.587-4.306L4.276 4.122l.38 2.282A3.203 3.203 0 0 0 1.6 9.6v8c0 1.765 1.435 3.2 3.2 3.2h14.4c1.765 0 3.2-1.435 3.2-3.2v-8a3.203 3.203 0 0 0-3.129-3.198M18.4 16.2a2.6 2.6 0 0 1-2.6-2.6c0-1.434 1.166-2.6 2.6-2.6h2.4v5.2zM17.316 3.904l.34 2.496H6.278l-.154-.922zM19.2 19.2H4.8c-.882 0-1.6-.718-1.6-1.6v-8c0-.882.718-1.6 1.6-1.6h14.4c.814 0 1.487.612 1.586 1.4H18.4a4.205 4.205 0 0 0-4.2 4.2c0 2.316 1.884 4.2 4.2 4.2h2.386a1.6 1.6 0 0 1-1.586 1.4m0-5.6a.9.9 0 1 1-1.8 0 .9.9 0 0 1 1.8 0"/></svg>