<?xml version="1.0" encoding="UTF-8"?>
<svg id="logotipo" xmlns="http://www.w3.org/2000/svg" version="1.1" viewBox="0 0 841.9 595.3">
  <defs>
    <style>
      .cls-1 {
        fill: #001391;
        stroke-width: 0px;
      }
    </style>
  </defs>
  <path class="cls-1" d="M476.3,250l-19.1,36.4c-.4.8-1.6.8-2,0l-19.1-36.4c-.2-.4-.6-.6-1-.6h-9.3c-.6,0-1,.7-.7,1.2l30.1,56.4c.4.8,1.5.8,2,0l30.1-56.4c.3-.6-.1-1.2-.7-1.2h-9.3c-.4,0-.8.2-1,.6"/>
  <path class="cls-1" d="M487.1,298.6l19.1-36.4c.4-.8,1.6-.8,2,0l19.1,36.4c.2.4.6.6,1,.6h9.3c.6,0,1-.7.7-1.2l-30.1-56.4c-.4-.8-1.5-.8-2,0l-30.1,56.4c-.3.6.1,1.2.7,1.2h9.3c.4,0,.8-.2,1-.6"/>
  <path class="cls-1" d="M344,299.2h-17.2c-.6,0-1.1-.5-1.1-1.1v-15.5c0-.6.5-1.1,1.1-1.1h17.2c8.2,0,11.9,2.3,11.9,8.8s-3.6,8.8-11.9,8.8M326.8,257.8h17c6.3,0,9.5,2.7,9.5,7.6s-3.2,7.6-9.5,7.6h-17c-.6,0-1.1-.5-1.1-1.1v-13c0-.6.5-1.1,1.1-1.1M356.4,276.3c4-2,6.5-6.3,6.5-11.6,0-9.1-7.1-15.2-17-15.2h-28.7c-.6,0-1.1.5-1.1,1.1v56c0,.6.5,1.1,1.1,1.1h27.4c13.7,0,21-5.9,21-17.5s-9.1-13.9-9.1-13.9"/>
  <path class="cls-1" d="M402.8,299.2h-17.2c-.6,0-1.1-.5-1.1-1.1v-15.5c0-.6.5-1.1,1.1-1.1h17.2c8.2,0,11.9,2.3,11.9,8.8s-3.6,8.8-11.9,8.8M385.6,257.8h17c6.3,0,9.5,2.7,9.5,7.6s-3.2,7.6-9.5,7.6h-17c-.6,0-1.1-.5-1.1-1.1v-13c0-.6.5-1.1,1.1-1.1M415.2,276.3c4-2,6.5-6.3,6.5-11.6,0-9.1-7.1-15.2-17-15.2h-28.7c-.6,0-1.1.5-1.1,1.1v56c0,.6.5,1.1,1.1,1.1h27.4c13.7,0,21-5.9,21-17.5s-9.1-13.9-9.1-13.9"/>
</svg>