<svg width="24" height="24" viewBox="0 0 24 24" xmlns="http://www.w3.org/2000/svg">
<path d="M14.4001 12.0001H16.0001V20.4001C16.0001 21.5031 15.1031 22.4001 14.0001 22.4001H3.6001C2.4971 22.4001 1.6001 21.5031 1.6001 20.4001V3.6001C1.6001 2.4971 2.4971 1.6001 3.6001 1.6001H14.0001C15.1031 1.6001 16.0001 2.4971 16.0001 3.6001V7.2001H14.4001V3.6001C14.4001 3.3791 14.2211 3.2001 14.0001 3.2001H3.6001C3.3791 3.2001 3.2001 3.3791 3.2001 3.6001V20.4001C3.2001 20.6211 3.3791 20.8001 3.6001 20.8001H14.0001C14.2211 20.8001 14.4001 20.6211 14.4001 20.4001V12.0001ZM9.7001 18.3001C9.7001 17.8031 9.2971 17.4001 8.8001 17.4001C8.3031 17.4001 7.9001 17.8031 7.9001 18.3001C7.9001 18.7971 8.3031 19.2001 8.8001 19.2001C9.2971 19.2001 9.7001 18.7971 9.7001 18.3001ZM19.2661 6.4341L18.1351 7.5651L19.3691 8.7991H11.0321L12.2661 7.5651L11.1351 6.4341L7.9691 9.6001L11.1351 12.7661L12.2661 11.6351L11.0321 10.4011H19.3691L18.1351 11.6351L19.2661 12.7661L22.4321 9.6001L19.2661 6.4341Z"/>
</svg>
