<svg width="24" height="24" viewBox="0 0 24 24" xmlns="http://www.w3.org/2000/svg">
<path d="M11.3029 20.6031L12.5359 21.8361C11.7649 22.1971 10.9059 22.4001 9.99994 22.4001C6.69194 22.4001 3.99994 19.7081 3.99994 16.4001C3.99994 13.6821 5.81694 11.3821 8.29994 10.6471V12.3421C6.71594 13.0081 5.59994 14.5761 5.59994 16.4001C5.59994 18.8261 7.57394 20.8001 9.99994 20.8001C10.4529 20.8001 10.8909 20.7311 11.3029 20.6031ZM13.9999 18.8001C13.5029 18.8001 13.0999 19.2031 13.0999 19.7001C13.0999 20.1971 13.5029 20.6001 13.9999 20.6001C14.4969 20.6001 14.8999 20.1971 14.8999 19.7001C14.8999 19.2031 14.4969 18.8001 13.9999 18.8001ZM19.9999 19.2001V20.8001H17.9019C17.3689 20.8001 16.8949 20.4421 16.7479 19.9301L15.3969 15.2001H10.8799C10.5229 15.2001 10.1869 15.0431 9.95894 14.7691C9.72994 14.4951 9.63594 14.1371 9.69994 13.7851L10.6069 8.80007H6.73294L4.96694 10.5661L3.83594 9.43507L5.71894 7.55207C5.94594 7.32507 6.24694 7.20107 6.56694 7.20107H10.8969L11.0919 6.12807C10.3249 5.72707 9.80094 4.92407 9.80094 4.00107C9.80094 2.67807 10.8779 1.60107 12.2009 1.60107C13.5239 1.60107 14.6009 2.67807 14.6009 4.00107C14.6009 5.16107 13.7729 6.13207 12.6769 6.35307L11.3589 13.6011H15.6989C16.2319 13.6011 16.7059 13.9591 16.8529 14.4711L18.2039 19.2011H20.0009L19.9999 19.2001ZM11.3999 4.00007C11.3999 4.44107 11.7589 4.80007 12.1999 4.80007C12.6409 4.80007 12.9999 4.44107 12.9999 4.00007C12.9999 3.55907 12.6409 3.20007 12.1999 3.20007C11.7589 3.20007 11.3999 3.55907 11.3999 4.00007Z"/>
</svg>
