<svg width="24" height="24" viewBox="0 0 24 24" xmlns="http://www.w3.org/2000/svg">
<path d="M9.60015 7.99993C9.60015 9.32293 10.6771 10.3999 12.0001 10.3999C13.3231 10.3999 14.4001 9.32293 14.4001 7.99993C14.4001 6.67693 13.3231 5.59993 12.0001 5.59993C10.6771 5.59993 9.60015 6.67693 9.60015 7.99993ZM12.8001 7.99993C12.8001 8.44093 12.4411 8.79993 12.0001 8.79993C11.5591 8.79993 11.2001 8.44093 11.2001 7.99993C11.2001 7.55893 11.5591 7.19993 12.0001 7.19993C12.4411 7.19993 12.8001 7.55893 12.8001 7.99993ZM21.5481 12.9999C21.3711 14.7029 20.7471 16.2739 19.7961 17.5959L18.6471 16.4469C19.3251 15.4369 19.7771 14.2639 19.9361 12.9999H21.5491H21.5481ZM5.04815 8.04793L3.88115 6.88093C5.58415 4.18993 8.58615 2.39893 11.9991 2.39893C15.4121 2.39893 18.4151 4.18993 20.1171 6.88093L18.9501 8.04793C17.5721 5.63293 14.9731 3.99993 11.9981 3.99993C9.02315 3.99993 6.42515 5.63293 5.04615 8.04793H5.04815ZM14.8671 19.4669L16.0861 20.6859C14.8461 21.2719 13.4611 21.5999 12.0001 21.5999C10.5391 21.5999 9.15515 21.2719 7.91415 20.6859L9.13315 19.4669C10.0241 19.8099 10.9901 19.9999 12.0001 19.9999C13.0101 19.9999 13.9761 19.8099 14.8671 19.4669ZM5.35315 16.4469L4.20415 17.5959C3.25315 16.2749 2.62915 14.7029 2.45215 12.9999H4.06515C4.22315 14.2629 4.67515 15.4359 5.35415 16.4469H5.35315ZM13.4521 13.5209L18.7661 18.8349L17.6351 19.9659L12.0011 14.3319L6.36715 19.9659L5.23615 18.8349L10.5331 13.5379C7.47615 13.2639 4.46815 12.0989 2.58815 10.4139L3.72215 9.27993C5.61315 10.9349 8.80715 11.9999 11.9021 11.9999C15.4981 11.9999 18.6051 10.6069 20.1811 9.17893L21.3131 10.3109C19.4661 12.0249 16.5151 13.2129 13.4541 13.5199L13.4521 13.5209Z"/>
</svg>
