<svg width="24" height="24" viewBox="0 0 24 24" xmlns="http://www.w3.org/2000/svg">
<path d="M7.5001 7.19995C7.5001 6.70295 7.9031 6.29995 8.4001 6.29995C8.8971 6.29995 9.3001 6.70295 9.3001 7.19995C9.3001 7.69695 8.8971 8.09995 8.4001 8.09995C7.9031 8.09995 7.5001 7.69695 7.5001 7.19995ZM22.4001 17.6C22.4001 20.688 19.8881 23.2 16.8001 23.2C13.7121 23.2 11.2001 20.688 11.2001 17.6H9.4621C9.5511 17.85 9.6001 18.12 9.6001 18.4C9.6001 19.7229 8.5231 20.8 7.2001 20.8C5.8771 20.8 4.8001 19.7229 4.8001 18.4C4.8001 17.594 5.2001 16.88 5.8111 16.444L3.4461 4.79995H1.6001V3.19995H3.7731C4.3411 3.19995 4.8361 3.60395 4.9491 4.16095L6.7041 12.8H13.9191C14.6671 12.349 15.5291 12.069 16.4501 12.012L17.3901 7.99995H10.8991V6.39995H17.8941C18.2631 6.39995 18.6051 6.56595 18.8341 6.85495C19.0631 7.14395 19.1461 7.51495 19.0621 7.87395L18.0611 12.145C20.5431 12.719 22.3981 14.946 22.3981 17.6H22.4001ZM7.2001 17.6C6.7591 17.6 6.4001 17.959 6.4001 18.4C6.4001 18.841 6.7591 19.2 7.2001 19.2C7.6411 19.2 8.0001 18.841 8.0001 18.4C8.0001 17.959 7.6411 17.6 7.2001 17.6ZM11.4341 16C11.6071 15.422 11.8701 14.883 12.2081 14.4H7.0291L7.3541 16H11.4341ZM20.8001 17.6C20.8001 15.394 19.0061 13.6 16.8001 13.6C14.5941 13.6 12.8001 15.394 12.8001 17.6C12.8001 19.806 14.5941 21.6 16.8001 21.6C19.0061 21.6 20.8001 19.806 20.8001 17.6ZM17.6001 15.2H16.0001V16.8H14.4001V18.4H16.0001V20H17.6001V18.4H19.2001V16.8H17.6001V15.2Z"/>
</svg>
