<svg width="24" height="24" viewBox="0 0 24 24" xmlns="http://www.w3.org/2000/svg">
<path d="M12 2.41797C6.71597 2.41797 2.41797 6.71697 2.41797 12C2.41797 17.283 6.71697 21.582 12 21.582C17.283 21.582 21.582 17.283 21.582 12C21.582 6.71697 17.284 2.41797 12 2.41797ZM12 20.018C7.57897 20.018 3.98197 16.421 3.98197 12C3.98197 7.57897 7.57897 3.98197 12 3.98197C16.421 3.98197 20.018 7.57897 20.018 12C20.018 16.421 16.421 20.018 12 20.018ZM12.8 11.2H16.8V12.8H12.8V16.8H11.2V12.8H7.19997V11.2H11.2V7.19997H12.8V11.2Z"/>
</svg>
