<svg width="24" height="24" viewBox="0 0 24 24" xmlns="http://www.w3.org/2000/svg">
<path d="M18.658 1.6001H6.94098C5.75997 1.6001 4.79897 2.5611 4.79897 3.7421V4.8001H3.19897V6.4001H4.79897V8.0001H3.19897V9.6001H4.79897V11.2001H3.19897V12.8001H4.79897V14.4001H3.19897V16.0001H4.79897V17.6001H3.19897V19.2001H4.79897V20.2581C4.79897 21.4391 5.75997 22.4001 6.94098 22.4001H7.99897V20.8001H6.94098C6.64198 20.8001 6.39897 20.5571 6.39897 20.2581V19.2001H7.99897V17.6001H6.39897V16.0001H7.99897V14.4001H6.39897V12.8001H7.99897V11.2001H6.39897V9.6001H7.99897V8.0001H6.39897V6.4001H7.99897V4.8001H6.39897V3.7421C6.39897 3.4431 6.64198 3.2001 6.94098 3.2001H18.658C18.957 3.2001 19.2 3.4431 19.2 3.7421V12.8001H15.2C13.877 12.8001 12.8 13.8771 12.8 15.2001C12.8 16.5231 13.877 17.6001 15.2 17.6001H19.2V20.2581C19.2 20.5571 18.957 20.8001 18.658 20.8001H13V22.4001H18.658C19.839 22.4001 20.8 21.4391 20.8 20.2581V3.7421C20.8 2.5611 19.839 1.6001 18.658 1.6001ZM19.2 16.0001H15.2C14.759 16.0001 14.4 15.6411 14.4 15.2001C14.4 14.7591 14.759 14.4001 15.2 14.4001H19.2V16.0001ZM11.4 21.6001C11.4 22.0971 10.997 22.5001 10.5 22.5001C10.003 22.5001 9.59998 22.0971 9.59998 21.6001C9.59998 21.1031 10.003 20.7001 10.5 20.7001C10.997 20.7001 11.4 21.1031 11.4 21.6001Z"/>
</svg>
