<svg width="24" height="24" viewBox="0 0 24 24" xmlns="http://www.w3.org/2000/svg">
<path d="M6.13577 16.9499L2.18577 12.0129C1.92177 11.6829 1.85077 11.2499 1.99577 10.8529C2.14077 10.4559 2.47377 10.1699 2.88777 10.0869L4.09477 9.84591C4.38277 9.78791 4.68077 9.83791 4.93477 9.98591L6.87777 11.1199L9.23277 10.2529L6.25377 6.84791C5.97277 6.52691 5.88377 6.07591 6.02077 5.67191C6.15777 5.26791 6.50277 4.96491 6.92177 4.88091L8.08677 4.64791C8.39077 4.58691 8.70277 4.64491 8.96477 4.81091L14.4958 8.31391L16.7408 7.49091C17.8438 7.08591 19.0368 7.13891 20.1008 7.63991C21.1638 8.14091 21.9648 9.02691 22.3558 10.1349L22.6188 10.8789L6.13777 16.9509L6.13577 16.9499ZM3.84577 11.5269L6.66477 15.0499L20.4768 9.96091C20.2068 9.58791 19.8458 9.28791 19.4178 9.08591C18.7448 8.76891 17.9888 8.73591 17.2908 8.99191L14.3058 10.0869L8.24377 6.24691L7.91377 6.31291L11.9698 10.9479L6.72477 12.8809L4.26177 11.4439L3.84877 11.5269H3.84577ZM20.7998 19.1999H6.49977V20.7999H20.7998V19.1999ZM3.99977 19.0999C3.50277 19.0999 3.09977 19.5029 3.09977 19.9999C3.09977 20.4969 3.50277 20.8999 3.99977 20.8999C4.49677 20.8999 4.89977 20.4969 4.89977 19.9999C4.89977 19.5029 4.49677 19.0999 3.99977 19.0999Z"/>
</svg>
