<svg width="24" height="24" viewBox="0 0 24 24" xmlns="http://www.w3.org/2000/svg">
<path d="M19.2001 16.8H18.0001V15.2H19.2001C20.0821 15.2 20.8001 14.482 20.8001 13.6V8.00005C20.8001 7.11805 20.0821 6.40005 19.2001 6.40005H4.8001C3.9181 6.40005 3.2001 7.11805 3.2001 8.00005V13.6C3.2001 14.482 3.9181 15.2 4.8001 15.2H6.0001V16.8H4.8001C3.0361 16.8 1.6001 15.364 1.6001 13.6V8.00005C1.6001 6.23605 3.0361 4.80005 4.8001 4.80005H19.2001C20.9651 4.80005 22.4001 6.23605 22.4001 8.00005V13.6C22.4001 15.364 20.9651 16.8 19.2001 16.8ZM9.5161 19.558C9.7321 19.126 10.0001 18.589 10.0001 17.6C10.0001 16.611 9.7311 16.074 9.5161 15.642C9.3331 15.276 9.2001 15.011 9.2001 14.4C9.2001 13.789 9.3321 13.524 9.5161 13.158C9.7321 12.726 10.0001 12.189 10.0001 11.2H8.4001C8.4001 11.811 8.2681 12.076 8.0841 12.442C7.8681 12.874 7.6001 13.411 7.6001 14.4C7.6001 15.389 7.8691 15.926 8.0841 16.358C8.2671 16.724 8.4001 16.989 8.4001 17.6C8.4001 18.211 8.2681 18.476 8.0841 18.842C7.8681 19.274 7.6001 19.811 7.6001 20.8H9.2001C9.2001 20.189 9.3321 19.924 9.5161 19.558ZM12.7161 19.558C12.9321 19.126 13.2001 18.589 13.2001 17.6C13.2001 16.611 12.9311 16.074 12.7161 15.642C12.5331 15.276 12.4001 15.011 12.4001 14.4C12.4001 13.789 12.5321 13.524 12.7161 13.158C12.9321 12.726 13.2001 12.189 13.2001 11.2H11.6001C11.6001 11.811 11.4681 12.076 11.2841 12.442C11.0681 12.874 10.8001 13.411 10.8001 14.4C10.8001 15.389 11.0691 15.926 11.2841 16.358C11.4671 16.724 11.6001 16.989 11.6001 17.6C11.6001 18.211 11.4681 18.476 11.2841 18.842C11.0681 19.274 10.8001 19.811 10.8001 20.8H12.4001C12.4001 20.189 12.5321 19.924 12.7161 19.558ZM15.9161 19.558C16.1321 19.126 16.4001 18.589 16.4001 17.6C16.4001 16.611 16.1311 16.074 15.9161 15.642C15.7331 15.276 15.6001 15.011 15.6001 14.4C15.6001 13.789 15.7321 13.524 15.9161 13.158C16.1321 12.726 16.4001 12.189 16.4001 11.2H14.8001C14.8001 11.811 14.6681 12.076 14.4841 12.442C14.2681 12.874 14.0001 13.411 14.0001 14.4C14.0001 15.389 14.2691 15.926 14.4841 16.358C14.6671 16.724 14.8001 16.989 14.8001 17.6C14.8001 18.211 14.6681 18.476 14.4841 18.842C14.2681 19.274 14.0001 19.811 14.0001 20.8H15.6001C15.6001 20.189 15.7321 19.924 15.9161 19.558Z"/>
</svg>
