<svg width="24" height="24" viewBox="0 0 24 24" xmlns="http://www.w3.org/2000/svg">
<path d="M15.6411 9.7341C15.9721 10.4141 16.3621 10.9891 16.8621 11.4901C17.3621 11.9911 17.9421 12.3831 18.6261 12.7151C17.2021 13.4031 16.3291 14.2781 15.6411 15.7031C14.9531 14.2771 14.0801 13.4031 12.6571 12.7151C13.3401 12.3831 13.9171 11.9931 14.4201 11.4901C14.9231 10.9871 15.3101 10.4141 15.6421 9.7341M15.6411 5.9531C15.4071 5.9531 15.2021 6.1091 15.1401 6.3341C14.0351 10.3371 13.2661 11.1061 9.2621 12.2121C9.0371 12.2741 8.8811 12.4791 8.8811 12.7131C8.8811 12.9471 9.0371 13.1521 9.2621 13.2141C13.2661 14.3191 14.0341 15.0881 15.1401 19.0921C15.2021 19.3171 15.4071 19.4731 15.6411 19.4731C15.8751 19.4731 16.0801 19.3171 16.1421 19.0921C17.2481 15.0881 18.0161 14.3201 22.0201 13.2141C22.2451 13.1521 22.4011 12.9471 22.4011 12.7131C22.4011 12.4791 22.2451 12.2741 22.0201 12.2121C18.0161 11.1061 17.2471 10.3371 16.1421 6.3341C16.0801 6.1091 15.8751 5.9531 15.6411 5.9531ZM7.9371 4.9671C8.0781 5.1731 8.2361 5.3631 8.4141 5.5421C8.5931 5.7211 8.7841 5.8781 8.9901 6.0201C8.7841 6.1611 8.5931 6.3191 8.4141 6.4981C8.2351 6.6771 8.0781 6.8671 7.9371 7.0731C7.7961 6.8671 7.6391 6.6771 7.4601 6.4981C7.2811 6.3191 7.0901 6.1611 6.8841 6.0201C7.0901 5.8791 7.2801 5.7211 7.4591 5.5431C7.6381 5.3641 7.7951 5.1731 7.9371 4.9681M7.9371 1.6001C7.7031 1.6001 7.4981 1.7561 7.4361 1.9811C6.7631 4.4171 6.3331 4.8461 3.8981 5.5191C3.6731 5.5811 3.5171 5.7861 3.5171 6.0201C3.5171 6.2541 3.6731 6.4591 3.8981 6.5211C6.3341 7.1941 6.7641 7.6241 7.4361 10.0591C7.4981 10.2841 7.7041 10.4401 7.9371 10.4401C8.1701 10.4401 8.3771 10.2841 8.4381 10.0591C9.1101 7.6241 9.5401 7.1941 11.9751 6.5211C12.2001 6.4591 12.3561 6.2541 12.3561 6.0201C12.3561 5.7861 12.2001 5.5811 11.9751 5.5191C9.5391 4.8461 9.1091 4.4161 8.4371 1.9811C8.3761 1.7561 8.1701 1.6001 7.9361 1.6001H7.9371ZM6.2801 16.4491C6.6191 16.9761 7.0261 17.3821 7.5521 17.7211C7.0251 18.0601 6.6181 18.4671 6.2801 18.9931C5.9411 18.4671 5.5341 18.0601 5.0081 17.7211C5.5351 17.3821 5.9421 16.9751 6.2811 16.4491M6.2801 13.0411C6.0461 13.0411 5.8411 13.1971 5.7791 13.4221C5.0651 16.0081 4.5681 16.5051 1.9811 17.2191C1.7561 17.2811 1.6001 17.4861 1.6001 17.7201C1.6001 17.9541 1.7561 18.1591 1.9811 18.2211C4.5681 18.9361 5.0651 19.4321 5.7791 22.0181C5.8411 22.2431 6.0461 22.3991 6.2801 22.3991C6.5141 22.3991 6.7191 22.2431 6.7811 22.0181C7.4951 19.4311 7.9921 18.9351 10.5791 18.2211C10.8041 18.1591 10.9601 17.9541 10.9601 17.7201C10.9601 17.4861 10.8031 17.2811 10.5791 17.2191C7.9921 16.5051 7.4951 16.0081 6.7811 13.4221C6.7191 13.1971 6.5141 13.0411 6.2801 13.0411Z"/>
</svg>
