<svg width="24" height="24" viewBox="0 0 24 24" xmlns="http://www.w3.org/2000/svg">
<path d="M12.9 2.2999C12.9 2.7969 12.497 3.1999 12 3.1999C11.503 3.1999 11.1 2.7969 11.1 2.2999C11.1 1.8029 11.503 1.3999 12 1.3999C12.497 1.3999 12.9 1.8029 12.9 2.2999ZM20 20.7999H12.8V22.3999H11.2V20.7999H4V16.9659C4 16.6449 4.125 16.3439 4.352 16.1169L5.6 14.8689V11.3999C5.6 7.8219 8.531 4.7999 12 4.7999C15.469 4.7999 18.4 7.8229 18.4 11.3999V14.8689L19.649 16.1169C19.876 16.3439 20 16.6449 20 16.9659V20.7999ZM18.4 17.1319L17.151 15.8839C16.924 15.6569 16.8 15.3559 16.8 15.0349V11.4009C16.8 8.6909 14.602 6.4009 12 6.4009C9.398 6.4009 7.2 8.6909 7.2 11.4009V15.0349C7.2 15.3559 7.075 15.6569 6.848 15.8839L5.6 17.1319V19.2009H18.4V17.1319Z"/>
</svg>
