<svg width="24" height="24" viewBox="0 0 24 24" xmlns="http://www.w3.org/2000/svg">
<path d="M18.1261 10.0011L20.6911 5.60312L19.3091 4.79712L16.7651 9.15812C15.3371 8.41912 13.7161 8.00012 12.0001 8.00012C10.2841 8.00012 8.6631 8.41812 7.2351 9.15812L4.6911 4.79712L3.3091 5.60312L5.8741 10.0011C3.2851 11.8941 1.6001 14.9541 1.6001 18.4001V19.2001H22.4001V18.4001C22.4001 14.9541 20.7151 11.8941 18.1261 10.0011ZM3.2361 17.6001C3.6411 13.1211 7.4171 9.60012 12.0001 9.60012C16.5831 9.60012 20.3591 13.1211 20.7641 17.6001H3.2361ZM9.0001 14.5001C9.0001 14.9971 8.5971 15.4001 8.1001 15.4001C7.6031 15.4001 7.2001 14.9971 7.2001 14.5001C7.2001 14.0031 7.6031 13.6001 8.1001 13.6001C8.5971 13.6001 9.0001 14.0031 9.0001 14.5001ZM17.0001 14.5001C17.0001 14.9971 16.5971 15.4001 16.1001 15.4001C15.6031 15.4001 15.2001 14.9971 15.2001 14.5001C15.2001 14.0031 15.6031 13.6001 16.1001 13.6001C16.5971 13.6001 17.0001 14.0031 17.0001 14.5001Z"/>
</svg>
