<svg width="24" height="24" viewBox="0 0 24 24" xmlns="http://www.w3.org/2000/svg">
<path d="M18.7398 9.19995C18.6368 9.27895 16.8258 10.295 16.8258 12.553C16.8258 15.165 19.1308 16.089 19.1998 16.112C19.1888 16.168 18.8338 17.378 17.9848 18.61C17.2278 19.694 16.4368 20.777 15.2338 20.777C14.0308 20.777 13.7218 20.082 12.3328 20.082C10.9438 20.082 10.4988 20.8 9.3988 20.8C8.2988 20.8 7.5308 19.797 6.6478 18.565C5.6258 17.118 4.7998 14.87 4.7998 12.737C4.7998 9.31495 7.0358 7.49995 9.2358 7.49995C10.4048 7.49995 11.3798 8.26395 12.1138 8.26395C12.8478 8.26395 13.9018 7.45395 15.2318 7.45395C15.7358 7.45395 17.5468 7.49995 18.7398 9.19995ZM14.6008 6.00595C15.1508 5.35595 15.5398 4.45495 15.5398 3.55395C15.5398 3.42895 15.5288 3.30195 15.5058 3.19995C14.6108 3.23295 13.5458 3.79295 12.9038 4.53395C12.3998 5.10395 11.9288 6.00595 11.9288 6.91895C11.9288 7.05595 11.9518 7.19395 11.9628 7.23795C12.0198 7.24895 12.1118 7.26095 12.2038 7.26095C13.0068 7.26095 14.0168 6.72595 14.6008 6.00595Z"/>
</svg>
