<svg width="24" height="24" viewBox="0 0 24 24" xmlns="http://www.w3.org/2000/svg">
<path d="M18.1001 7.29995C18.1001 7.79695 17.6971 8.19995 17.2001 8.19995C16.7031 8.19995 16.3001 7.79695 16.3001 7.29995C16.3001 6.80295 16.7031 6.39995 17.2001 6.39995C17.6971 6.39995 18.1001 6.80295 18.1001 7.29995ZM23.2001 17.6C23.2001 20.688 20.6881 23.2 17.6001 23.2C14.5121 23.2 12.0001 20.688 12.0001 17.6H1.6001V3.19995H22.4001V14.719C22.9071 15.561 23.2001 16.547 23.2001 17.6ZM12.2341 16C12.9241 13.69 15.0681 12 17.6001 12C18.7891 12 19.8921 12.374 20.8001 13.008V4.79995H4.8001L12.0011 10.201L14.6201 8.24895L15.7631 9.39195L12.7181 11.662C12.5071 11.82 12.2541 11.899 12.0001 11.899C11.7461 11.899 11.4921 11.82 11.2791 11.66L3.2001 5.59995V16H12.2341ZM21.6001 17.6C21.6001 15.394 19.8061 13.6 17.6001 13.6C15.3941 13.6 13.6001 15.394 13.6001 17.6C13.6001 19.806 15.3941 21.6 17.6001 21.6C19.8061 21.6 21.6001 19.806 21.6001 17.6ZM20.1661 16.966L19.0351 15.835L17.6011 17.269L16.1671 15.835L15.0361 16.966L17.6021 19.532L20.1681 16.966H20.1661Z"/>
</svg>
