<svg width="24" height="24" viewBox="0 0 24 24" xmlns="http://www.w3.org/2000/svg">
<path d="M9.50001 11.5C9.50001 11.003 9.90301 10.6 10.4 10.6C10.897 10.6 11.3 11.003 11.3 11.5C11.3 11.997 10.897 12.4 10.4 12.4C9.90301 12.4 9.50001 11.997 9.50001 11.5ZM9.60001 17.6H11.2V14H9.60001V17.6ZM20.8 11.2H17.6V18.8C17.6 19.903 16.703 20.8 15.6 20.8H8.40001C7.29701 20.8 6.40001 19.903 6.40001 18.8V11.2H3.20001V3.19995H20.8V11.2ZM8.40001 19.2H12.8V7.99995H8.00001V18.8C8.00001 19.021 8.17901 19.2 8.40001 19.2ZM16 7.99995H14.4V19.2H15.6C15.821 19.2 16 19.021 16 18.8V7.99995ZM19.2 4.79995H4.80001V9.59995H6.40001V6.39995H17.6V9.59995H19.2V4.79995Z"/>
</svg>
