<svg width="24" height="24" viewBox="0 0 24 24" xmlns="http://www.w3.org/2000/svg">
<path d="M12 22.3C8.91205 22.3 6.40005 19.788 6.40005 16.7V8H8.00005V16.7C8.00005 18.906 9.79405 20.7 12 20.7C14.206 20.7 16 18.906 16 16.7V5.5C16 4.177 14.923 3.1 13.6 3.1C12.277 3.1 11.2 4.177 11.2 5.5V15.9C11.2 16.341 11.559 16.7 12 16.7C12.441 16.7 12.8 16.341 12.8 15.9V7.9H14.4V15.9C14.4 17.223 13.323 18.3 12 18.3C10.677 18.3 9.60005 17.223 9.60005 15.9V5.5C9.60005 3.294 11.394 1.5 13.6 1.5C15.806 1.5 17.6 3.294 17.6 5.5V16.7C17.6 19.788 15.088 22.3 12 22.3ZM7.20005 4.6C6.70305 4.6 6.30005 5.003 6.30005 5.5C6.30005 5.997 6.70305 6.4 7.20005 6.4C7.69705 6.4 8.10005 5.997 8.10005 5.5C8.10005 5.003 7.69705 4.6 7.20005 4.6Z"/>
</svg>
