<svg width="24" height="24" viewBox="0 0 24 24" xmlns="http://www.w3.org/2000/svg">
<path d="M13.4531 5.01005C13.1101 4.78805 12.6831 4.75505 12.3101 4.92205L5.4291 8.00005H3.6001C2.4971 8.00005 1.6001 8.89705 1.6001 10V14C1.6001 15.103 2.4971 16 3.6001 16H5.4291L12.3101 19.078C12.4671 19.148 12.6341 19.183 12.8011 19.183C13.0291 19.183 13.2551 19.118 13.4531 18.989C13.7961 18.767 14.0001 18.39 14.0001 17.982V6.01705C14.0001 5.60905 13.7951 5.23205 13.4531 5.01005ZM3.2001 14V10C3.2001 9.77905 3.3791 9.60005 3.6001 9.60005H4.8001V14.4H3.6001C3.3791 14.4 3.2001 14.221 3.2001 14ZM12.4001 17.366L6.4001 14.682V9.31905L12.4001 6.63505V17.366ZM15.6821 8.31805L16.8251 7.17505C18.2681 8.29205 19.2001 10.039 19.2001 12C19.2001 13.961 18.2681 15.709 16.8251 16.825L15.6821 15.682C16.8411 14.8671 17.6001 13.521 17.6001 12C17.6001 10.479 16.8411 9.13305 15.6821 8.31805ZM17.9641 6.03605L19.1001 4.90005C21.1171 6.60705 22.4001 9.15605 22.4001 12C22.4001 14.844 21.1171 17.392 19.1001 19.1L17.9641 17.964C19.6941 16.551 20.8001 14.403 20.8001 12C20.8001 9.59705 19.6941 7.44905 17.9641 6.03605Z"/>
</svg>
