<svg width="24" height="24" viewBox="0 0 24 24" xmlns="http://www.w3.org/2000/svg">
<path d="M15.68 11.0599L11.282 7.7609C10.917 7.4849 10.444 7.4369 10.047 7.6339C9.64799 7.8319 9.39999 8.2409 9.39999 8.6999V15.2999C9.39999 15.7599 9.64799 16.1679 10.047 16.3659C10.209 16.4459 10.384 16.4859 10.558 16.4859C10.812 16.4859 11.066 16.4019 11.28 16.2399L15.684 12.9369C15.985 12.7079 16.158 12.3669 16.158 11.9999C16.158 11.6329 15.985 11.2919 15.68 11.0599ZM11 14.4499V9.5499L14.267 11.9999L11 14.4499ZM21.7 11.9999C21.7 12.4969 21.297 12.8999 20.8 12.8999C20.303 12.8999 19.9 12.4969 19.9 11.9999C19.9 11.5029 20.303 11.0999 20.8 11.0999C21.297 11.0999 21.7 11.5029 21.7 11.9999ZM19.527 14.6999H21.21C21.093 15.0999 20.953 15.4899 20.786 15.8669L20.8 15.8379C19.285 19.3079 15.822 21.6009 12 21.6009C6.70699 21.6009 2.39999 17.2939 2.39999 12.0009C2.39999 6.7079 6.70699 2.3999 12 2.3999C14.802 2.3999 17.402 3.6039 19.2 5.6459V3.9999H20.8V8.7999H16V7.1999H18.402C16.905 5.1999 14.553 3.9999 12 3.9999C7.58899 3.9999 3.99999 7.5889 3.99999 11.9999C3.99999 16.4109 7.58899 19.9999 12 19.9999C15.353 19.9999 18.375 17.8839 19.521 14.7349C19.521 14.7349 19.524 14.7219 19.527 14.6999Z"/>
</svg>
