<svg width="24" height="24" viewBox="0 0 24 24" xmlns="http://www.w3.org/2000/svg">
<path d="M21.2 10.0001H18.711L14.255 5.9151C14.033 5.7121 13.745 5.6001 13.444 5.6001H6.577C6.24 5.6001 5.916 5.7431 5.689 5.9931L1.912 10.1481C1.711 10.3691 1.6 10.6561 1.6 10.9551V13.0001H3.2V11.1091L6.754 7.2001H13.289L17.745 11.2851C17.967 11.4881 18.255 11.6001 18.556 11.6001H20.8V14.6001H19.083C18.738 13.4451 17.666 12.6001 16.4 12.6001C15.134 12.6001 14.062 13.4451 13.717 14.6001H10.283C9.938 13.4451 8.866 12.6001 7.6 12.6001C6.056 12.6001 4.8 13.8561 4.8 15.4001C4.8 16.9441 6.056 18.2001 7.6 18.2001C8.866 18.2001 9.938 17.3551 10.283 16.2001H13.717C14.062 17.3551 15.134 18.2001 16.4 18.2001C17.666 18.2001 18.738 17.3551 19.083 16.2001H21.2C21.862 16.2001 22.4 15.6621 22.4 15.0001V11.2001C22.4 10.5381 21.862 10.0001 21.2 10.0001ZM7.6 16.6001C6.938 16.6001 6.4 16.0621 6.4 15.4001C6.4 14.7381 6.938 14.2001 7.6 14.2001C8.262 14.2001 8.8 14.7381 8.8 15.4001C8.8 16.0621 8.262 16.6001 7.6 16.6001ZM16.4 16.6001C15.738 16.6001 15.2 16.0621 15.2 15.4001C15.2 14.7381 15.738 14.2001 16.4 14.2001C17.062 14.2001 17.6 14.7381 17.6 15.4001C17.6 16.0621 17.062 16.6001 16.4 16.6001Z"/>
<path d="M2.4 16.3001C2.89706 16.3001 3.3 15.8972 3.3 15.4001C3.3 14.903 2.89706 14.5001 2.4 14.5001C1.90294 14.5001 1.5 14.903 1.5 15.4001C1.5 15.8972 1.90294 16.3001 2.4 16.3001Z"/>
</svg>
