<svg width="24" height="24" viewBox="0 0 24 24" xmlns="http://www.w3.org/2000/svg">
<path d="M21.2 12.6001H18.711L14.255 8.5151C14.033 8.3121 13.745 8.2001 13.444 8.2001H6.577C6.24 8.2001 5.916 8.3431 5.689 8.5931L1.912 12.7481C1.711 12.9691 1.6 13.2561 1.6 13.5551V15.4001H3.2V13.7091L6.754 9.8001H13.289L17.745 13.8851C17.967 14.0881 18.255 14.2001 18.556 14.2001H20.8V17.2001H18.983C18.638 16.0451 17.566 15.2001 16.3 15.2001C15.034 15.2001 13.962 16.0451 13.617 17.2001H10.383C10.038 16.0451 8.966 15.2001 7.7 15.2001C6.156 15.2001 4.9 16.4561 4.9 18.0001C4.9 19.5441 6.156 20.8001 7.7 20.8001C8.966 20.8001 10.038 19.9551 10.383 18.8001H13.617C13.962 19.9551 15.034 20.8001 16.3 20.8001C17.566 20.8001 18.638 19.9551 18.983 18.8001H21.2C21.862 18.8001 22.4 18.2621 22.4 17.6001V13.8001C22.4 13.1381 21.862 12.6001 21.2 12.6001ZM7.7 19.2001C7.038 19.2001 6.5 18.6621 6.5 18.0001C6.5 17.3381 7.038 16.8001 7.7 16.8001C8.362 16.8001 8.9 17.3381 8.9 18.0001C8.9 18.6621 8.362 19.2001 7.7 19.2001ZM16.3 19.2001C15.638 19.2001 15.1 18.6621 15.1 18.0001C15.1 17.3381 15.638 16.8001 16.3 16.8001C16.962 16.8001 17.5 17.3381 17.5 18.0001C17.5 18.6621 16.962 19.2001 16.3 19.2001ZM3.3 17.9001C3.3 18.3971 2.897 18.8001 2.4 18.8001C1.903 18.8001 1.5 18.3971 1.5 17.9001C1.5 17.4031 1.903 17.0001 2.4 17.0001C2.897 17.0001 3.3 17.4031 3.3 17.9001ZM3.2 8.9531L1.6 10.7171V5.1311C1.6 4.7041 1.766 4.3021 2.069 4.0001L4 2.0691C4.302 1.7671 4.704 1.6001 5.131 1.6001H20V4.8001H18.4V3.2001H5.131L3.2 5.1311V8.9531Z"/>
</svg>
