<svg width="24" height="24" viewBox="0 0 24 24" xmlns="http://www.w3.org/2000/svg">
<path d="M10.4999 18.3001C10.4999 18.7971 10.0969 19.2001 9.5999 19.2001C9.1029 19.2001 8.6999 18.7971 8.6999 18.3001C8.6999 17.8031 9.1029 17.4001 9.5999 17.4001C10.0969 17.4001 10.4999 17.8031 10.4999 18.3001ZM23.1999 17.6001C23.1999 20.6881 20.6879 23.2001 17.5999 23.2001C16.5469 23.2001 15.5609 22.9071 14.7189 22.4001H4.3999C3.2969 22.4001 2.3999 21.5031 2.3999 20.4001V3.6001C2.3999 2.4971 3.2969 1.6001 4.3999 1.6001H14.7999C15.9029 1.6001 16.7999 2.4971 16.7999 3.6001V12.0581C17.0609 12.0201 17.3279 12.0001 17.5999 12.0001C20.6879 12.0001 23.1999 14.5121 23.1999 17.6001ZM4.3999 20.8001H13.0079C12.3729 19.8921 11.9999 18.7891 11.9999 17.6001C11.9999 15.3711 13.3099 13.4421 15.1999 12.5411V3.6001C15.1999 3.3791 15.0209 3.2001 14.7999 3.2001H4.3999C4.1789 3.2001 3.9999 3.3791 3.9999 3.6001V20.4001C3.9999 20.6211 4.1789 20.8001 4.3999 20.8001ZM21.5999 17.6001C21.5999 15.3941 19.8059 13.6001 17.5999 13.6001C15.3939 13.6001 13.5999 15.3941 13.5999 17.6001C13.5999 19.8061 15.3939 21.6001 17.5999 21.6001C19.8059 21.6001 21.5999 19.8061 21.5999 17.6001ZM17.1999 17.7691L16.1659 16.7351L15.0349 17.8661L17.2009 20.0321L20.1669 17.0661L19.0359 15.9351L17.2019 17.7691H17.1999Z"/>
</svg>
