<svg width="24" height="24" viewBox="0 0 24 24" xmlns="http://www.w3.org/2000/svg">
<path d="M18.3999 7.1999V10.3999H11.9999V2.3999H11.1999C6.3479 2.3999 2.3999 6.3479 2.3999 11.1999C2.3999 13.5579 3.3329 15.7019 4.8479 17.2829C4.5649 17.7199 4.3999 18.2409 4.3999 18.7999C4.3999 20.3439 5.6559 21.5999 7.1999 21.5999C8.3589 21.5999 9.3559 20.8919 9.7809 19.8849C10.2429 19.9599 10.7169 19.9999 11.1999 19.9999C11.6829 19.9999 12.1569 19.9609 12.6189 19.8849C13.0439 20.8909 14.0409 21.5999 15.1999 21.5999C16.7439 21.5999 17.9999 20.3439 17.9999 18.7999C17.9999 18.2409 17.8349 17.7209 17.5519 17.2829C19.0669 15.7009 19.9999 13.5579 19.9999 11.1999L19.9929 10.3999H19.9999V8.7999H21.5999V7.1999H18.3999ZM10.3999 4.0439V10.3999H4.0439C4.4139 7.0679 7.0679 4.4139 10.3999 4.0439ZM7.1999 19.9999C6.5379 19.9999 5.9999 19.4619 5.9999 18.7999C5.9999 18.1379 6.5379 17.5999 7.1999 17.5999C7.8619 17.5999 8.3999 18.1379 8.3999 18.7999C8.3999 19.4619 7.8619 19.9999 7.1999 19.9999ZM15.1999 19.9999C14.5379 19.9999 13.9999 19.4619 13.9999 18.7999C13.9999 18.1379 14.5379 17.5999 15.1999 17.5999C15.8619 17.5999 16.3999 18.1379 16.3999 18.7999C16.3999 19.4619 15.8619 19.9999 15.1999 19.9999ZM16.3319 16.2399C15.9859 16.0859 15.6029 15.9999 15.1999 15.9999C13.8309 15.9999 12.6879 16.9889 12.4479 18.2889C12.0429 18.3609 11.6259 18.3999 11.1999 18.3999C10.7739 18.3999 10.3579 18.3609 9.9519 18.2889C9.7109 16.9879 8.5689 15.9999 7.1999 15.9999C6.7969 15.9999 6.4139 16.0859 6.0679 16.2399C4.9669 15.1199 4.2269 13.6439 4.0439 11.9999H18.3559C18.1729 13.6429 17.4329 15.1189 16.3319 16.2399Z"/>
</svg>
