<svg width="24" height="24" viewBox="0 0 24 24" xmlns="http://www.w3.org/2000/svg">
<path d="M14.3999 14.3999H15.9999C15.9999 16.6059 14.2059 18.3999 11.9999 18.3999C9.7939 18.3999 7.9999 16.6059 7.9999 14.3999H9.5999C9.5999 15.7229 10.6769 16.7999 11.9999 16.7999C13.3229 16.7999 14.3999 15.7229 14.3999 14.3999ZM21.5999 11.9999C21.5999 17.2929 17.2929 21.5999 11.9999 21.5999C6.7069 21.5999 2.3999 17.2929 2.3999 11.9999C2.3999 6.7069 6.6449 2.4629 11.8859 2.4009C11.9049 2.4009 11.9239 2.3999 11.9429 2.3999C11.9619 2.3999 11.9809 2.3999 11.9999 2.3999C17.2929 2.3999 21.5999 6.7069 21.5999 11.9999ZM19.9999 11.9999C19.9999 7.5889 16.4109 3.9999 11.9999 3.9999C11.9619 3.9999 11.9239 4.0019 11.8849 4.0029C11.0289 4.0339 10.3419 4.7369 10.3419 5.5999C10.3419 6.4629 11.0599 7.1999 11.9419 7.1999C12.3729 7.1999 12.8039 7.0289 13.0959 6.7429L14.2159 7.8859C13.6229 8.4669 12.7939 8.7999 11.9419 8.7999C10.1769 8.7999 8.7419 7.3649 8.7419 5.5999C8.7419 5.2609 8.7949 4.9339 8.8939 4.6279C6.0209 5.8429 3.9999 8.6899 3.9999 11.9999C3.9999 16.4109 7.5889 19.9999 11.9999 19.9999C16.4109 19.9999 19.9999 16.4109 19.9999 11.9999ZM15.1999 10.2999C14.7029 10.2999 14.2999 10.7029 14.2999 11.1999C14.2999 11.6969 14.7029 12.0999 15.1999 12.0999C15.6969 12.0999 16.0999 11.6969 16.0999 11.1999C16.0999 10.7029 15.6969 10.2999 15.1999 10.2999ZM8.7999 12.0999C9.2969 12.0999 9.6999 11.6969 9.6999 11.1999C9.6999 10.7029 9.2969 10.2999 8.7999 10.2999C8.3029 10.2999 7.8999 10.7029 7.8999 11.1999C7.8999 11.6969 8.3029 12.0999 8.7999 12.0999Z"/>
</svg>
