<svg width="24" height="24" viewBox="0 0 24 24" xmlns="http://www.w3.org/2000/svg">
<path d="M19.5662 4.43406C18.2962 3.16406 16.2962 2.82406 13.9362 3.47906C11.7352 4.09006 9.44021 5.50806 7.47521 7.47406C3.23321 11.7161 1.89721 17.0281 4.43521 19.5651C5.28321 20.4131 6.45521 20.8461 7.84221 20.8461C8.53421 20.8461 9.28021 20.7381 10.0652 20.5201C12.2662 19.9091 14.5612 18.4911 16.5262 16.5251C20.7682 12.2831 22.1042 6.97106 19.5662 4.43406ZM15.3942 15.3941C13.6202 17.1681 11.5752 18.4411 9.63621 18.9791C7.85621 19.4731 6.41021 19.2791 5.56521 18.4341C4.39521 17.2641 4.53421 15.0181 5.68621 12.6401C6.36921 12.8551 7.01621 13.1231 7.50121 13.4011L8.29621 12.0121C7.78921 11.7221 7.16121 11.4481 6.48821 11.2191C6.84321 10.6691 7.24721 10.1211 7.70021 9.58806C9.33221 9.98506 10.8152 10.8151 11.9992 12.0001L12.5652 12.5661L13.6962 11.4351L13.1302 10.8691C11.9492 9.68806 10.5162 8.80606 8.93921 8.28106C9.51421 7.73606 10.1152 7.24406 10.7282 6.81206C12.2812 7.22706 13.6912 8.03606 14.8272 9.17206L15.3932 9.73806L16.5242 8.60706L15.9582 8.04106C14.9682 7.05106 13.8012 6.27206 12.5212 5.73606C13.1372 5.43106 13.7552 5.19006 14.3622 5.02206C15.0082 4.84306 15.6092 4.75406 16.1542 4.75406C17.1112 4.75406 17.8942 5.02806 18.4322 5.56606C20.2722 7.40606 18.8802 11.9071 15.3922 15.3941H15.3942ZM10.3742 13.6261C10.7252 13.9771 10.7252 14.5471 10.3742 14.8991C10.0232 15.2511 9.45321 15.2501 9.10121 14.8991C8.75021 14.5481 8.75021 13.9781 9.10121 13.6261C9.45221 13.2741 10.0222 13.2741 10.3742 13.6261Z"/>
</svg>
