<svg width="24" height="24" viewBox="0 0 24 24" xmlns="http://www.w3.org/2000/svg">
<path d="M16.8 14.4999V16.0999H18.864C17.465 18.4339 14.913 19.9999 12 19.9999C8.462 19.9999 5.455 17.6899 4.402 14.4999H2.731C3.834 18.5849 7.571 21.5999 12 21.5999C15.336 21.5999 18.279 19.8889 20 17.2989V19.2999H21.6V14.4999H16.8ZM4.1 11.9999C4.1 11.5029 3.697 11.0999 3.2 11.0999C2.703 11.0999 2.3 11.5029 2.3 11.9999C2.3 12.4969 2.703 12.8999 3.2 12.8999C3.697 12.8999 4.1 12.4969 4.1 11.9999ZM7.2 9.4999V7.8999H5.136C6.535 5.5659 9.087 3.9999 12 3.9999C15.863 3.9999 19.096 6.7529 19.839 10.3999H21.466C20.702 5.8659 16.748 2.3999 12 2.3999C8.664 2.3999 5.721 4.1109 4 6.7009V4.6999H2.4V9.4999H7.2ZM12.829 13.4629C12.829 14.3499 12.192 15.3849 10.396 15.3849C9.148 15.3849 8.247 14.7889 7.712 14.2889L7.645 14.2269L8.461 13.1809L8.541 13.2639C8.961 13.6999 9.719 14.1409 10.356 14.1409C10.587 14.1409 11.341 14.0989 11.341 13.5529C11.341 13.1699 10.956 12.9929 10.199 12.7829L10.108 12.7569C9.042 12.4589 7.939 12.1509 7.939 10.8559C7.939 9.7079 8.827 8.9659 10.202 8.9659C11.309 8.9659 12.168 9.5229 12.581 9.8549L12.651 9.9109L11.932 11.0229L11.845 10.9479C11.441 10.5969 10.786 10.2439 10.234 10.2439C9.729 10.2439 9.427 10.4309 9.427 10.7429C9.427 11.1289 9.768 11.2859 10.584 11.5129C11.584 11.7819 12.828 12.1169 12.828 13.4639L12.829 13.4629ZM18.232 9.0789L14.633 15.2729H13.065L16.664 9.0789H18.232Z"/>
</svg>
