<svg width="24" height="24" viewBox="0 0 24 24" xmlns="http://www.w3.org/2000/svg">
<path d="M10.908 11.1999H11.8V12.7999H10.907C11.049 13.7489 11.469 14.4299 12.229 14.4299C12.866 14.4299 13.264 13.9509 13.46 13.2369L14.754 13.7369C14.367 14.8469 13.543 15.5989 12.2 15.5989C10.507 15.5989 9.63899 14.4019 9.43099 12.7999H8.39999V11.1999H9.43199C9.64199 9.5979 10.516 8.4009 12.2 8.4009C13.536 8.4009 14.362 9.1539 14.752 10.2639L13.458 10.7639C13.261 10.0509 12.862 9.5739 12.229 9.5739C11.474 9.5739 11.052 10.2529 10.908 11.1999ZM17.2 13.9999V15.5999H19.141C17.821 18.2069 15.117 19.9999 12 19.9999C8.46199 19.9999 5.45499 17.6899 4.40199 14.4999H2.73099C3.83399 18.5849 7.57099 21.5999 12 21.5999C15.613 21.5999 18.762 19.5929 20.4 16.6359V18.7999H22V13.9999H17.2ZM7.19999 7.8999H5.13799C6.53599 5.5669 9.08699 3.9999 12 3.9999C16.411 3.9999 20 7.5889 20 11.9999H21.6C21.6 6.7069 17.293 2.3999 12 2.3999C8.66299 2.3999 5.71999 4.1129 3.99999 6.7059V4.6999H2.39999V9.4999H7.19999V7.8999ZM4.09999 11.9999C4.09999 11.5029 3.69699 11.0999 3.19999 11.0999C2.70299 11.0999 2.29999 11.5029 2.29999 11.9999C2.29999 12.4969 2.70299 12.8999 3.19999 12.8999C3.69699 12.8999 4.09999 12.4969 4.09999 11.9999Z"/>
</svg>
