<svg width="24" height="24" viewBox="0 0 24 24" xmlns="http://www.w3.org/2000/svg">
<path d="M22 13.9999V18.7999H20.4V16.6369C18.762 19.5929 15.612 21.5999 12 21.5999C7.57099 21.5999 3.83399 18.5849 2.73099 14.4999H4.40199C5.45399 17.6899 8.46199 19.9999 12 19.9999C15.117 19.9999 17.821 18.2069 19.141 15.5999H17.2V13.9999H22ZM12.8 15.9999V15.2369C13.024 15.1979 13.226 15.1399 13.404 15.0629C13.668 14.9489 13.888 14.8039 14.059 14.6329C14.231 14.4609 14.359 14.2609 14.44 14.0389C14.519 13.8199 14.56 13.5879 14.56 13.3499C14.56 13.0429 14.504 12.7769 14.395 12.5589C14.286 12.3419 14.133 12.1569 13.94 12.0079C13.751 11.8629 13.526 11.7409 13.269 11.6459C13.017 11.5519 12.717 11.4709 12.457 11.4029L12.33 11.3699C12.114 11.3129 11.9 11.2569 11.72 11.2119C11.54 11.1669 11.343 11.0659 11.217 10.9549C11.114 10.8639 11.064 10.7349 11.064 10.5609C11.064 10.3979 11.114 10.2619 11.218 10.1459C11.323 10.0279 11.501 9.9489 11.706 9.9289C11.896 9.9109 12.172 9.9019 12.406 9.9669C12.62 10.0259 12.808 10.1189 12.966 10.2449C13.074 10.3309 13.183 10.4299 13.312 10.5579L13.383 10.6279L14.308 9.7029L14.238 9.6319C14.162 9.5549 14.098 9.4939 14.037 9.4389C13.916 9.3299 13.779 9.2319 13.63 9.1459C13.481 9.0599 13.31 8.9859 13.123 8.9259C13.025 8.8949 12.918 8.8669 12.803 8.8429V7.9979H11.203V8.8299C11.07 8.8599 10.943 8.8979 10.824 8.9449C10.575 9.0429 10.36 9.1749 10.186 9.3369C10.011 9.4999 9.87399 9.6979 9.77799 9.9239C9.68199 10.1489 9.63399 10.4019 9.63399 10.6749C9.63399 10.9859 9.69399 11.2539 9.81299 11.4689C9.93099 11.6829 10.088 11.8629 10.28 12.0049C10.469 12.1439 10.689 12.2599 10.934 12.3479C11.173 12.4339 11.422 12.5099 11.673 12.5719L12.404 12.7619C12.656 12.8409 12.845 12.9379 12.965 13.0509C13.076 13.1559 13.131 13.2949 13.131 13.4759C13.131 13.6769 13.076 13.8269 12.963 13.9339C12.854 14.0369 12.652 14.1179 12.421 14.1489C12.185 14.1809 11.954 14.1789 11.714 14.1409C11.472 14.1029 11.234 14.0029 11.005 13.8439C10.873 13.7529 10.747 13.6459 10.62 13.5179L10.549 13.4469L9.65099 14.3449L9.72199 14.4159C9.76999 14.4629 9.82099 14.5139 9.87599 14.5619C10.022 14.6899 10.184 14.8019 10.358 14.8959C10.531 14.9899 10.726 15.0689 10.938 15.1339C11.022 15.1589 11.111 15.1819 11.204 15.2029V15.9999H12.804H12.8ZM7.19999 7.8999H5.13699C6.53499 5.5659 9.08699 3.9999 12 3.9999C16.411 3.9999 20 7.5889 20 11.9999H21.6C21.6 6.7069 17.293 2.3999 12 2.3999C8.66299 2.3999 5.71999 4.1119 3.99999 6.7029V4.6999H2.39999V9.4999H7.19999V7.8999ZM4.09999 11.9999C4.09999 11.5029 3.69699 11.0999 3.19999 11.0999C2.70299 11.0999 2.29999 11.5029 2.29999 11.9999C2.29999 12.4969 2.70299 12.8999 3.19999 12.8999C3.69699 12.8999 4.09999 12.4969 4.09999 11.9999Z"/>
</svg>
