<svg width="24" height="24" viewBox="0 0 24 24" xmlns="http://www.w3.org/2000/svg">
<path d="M5.6002 10.4001C5.1032 10.4001 4.7002 9.9971 4.7002 9.5001C4.7002 9.0031 5.1032 8.6001 5.6002 8.6001C6.0972 8.6001 6.5002 9.0031 6.5002 9.5001C6.5002 9.9971 6.0972 10.4001 5.6002 10.4001ZM20.8002 12.0001V22.4001H3.2002V12.0001H6.9902C9.8162 10.3921 11.0632 7.7971 11.1892 3.2001H6.4002V7.0001H4.8002V1.6001H19.2002V12.0001H20.8002ZM8.0002 13.6001V20.8001H9.6002V13.6001H8.0002ZM11.2002 20.8001H13.0002V13.6001H11.2002V20.8001ZM14.6002 20.8001H16.2002V13.6001H14.6002V20.8001ZM17.6002 3.2001H12.8112C12.9372 7.7971 14.1832 10.3921 17.0102 12.0001H17.6002V3.2001ZM9.6752 12.0001H14.3322C13.2032 10.9261 12.4712 9.6651 12.0022 8.3171C11.9422 8.4901 11.8802 8.6611 11.8132 8.8271C11.3112 10.0701 10.6042 11.1211 9.6762 12.0011L9.6752 12.0001ZM4.8002 20.8001H6.4002V13.6001H4.8002V20.8001ZM19.2002 13.6001H17.8002V20.8001H19.2002V13.6001Z"/>
</svg>
