<svg width="24" height="24" viewBox="0 0 24 24" xmlns="http://www.w3.org/2000/svg">
<path d="M12.0005 6.29876C12.4974 6.29896 12.8999 6.70222 12.8999 7.19915C12.8999 7.69607 12.4974 8.09935 12.0005 8.09954C11.5035 8.09954 11.1001 7.69619 11.1001 7.19915C11.1001 6.7021 11.5034 6.29876 12.0005 6.29876Z"/>
<path fill-rule="evenodd" clip-rule="evenodd" d="M11.2192 2.62689C11.6691 2.23966 12.3317 2.24281 12.7798 2.62689L12.7808 2.62591L20.5103 9.06146C21.3954 9.75812 20.9064 11.2001 19.7632 11.2001H19.1001V19.2001H20.8003V20.7997H3.20069V19.2001H4.90089V11.2001H4.23683C3.09102 11.1997 2.60305 9.75105 3.49757 9.05658L11.2192 2.62689ZM6.5005 19.2001H9.10011V11.2001H6.5005V19.2001ZM10.6997 19.2001H13.3003V11.2001H10.6997V19.2001ZM14.8999 19.2001H17.5005V11.2001H14.8999V19.2001ZM5.34522 9.59954H18.6548L11.9995 4.05658L5.34522 9.59954Z"/>
</svg>
