<svg width="24" height="24" viewBox="0 0 24 24" xmlns="http://www.w3.org/2000/svg">
<path d="M5.8001 18.4C5.8001 18.897 5.3971 19.3 4.9001 19.3C4.4031 19.3 4.0001 18.897 4.0001 18.4C4.0001 17.903 4.4031 17.5 4.9001 17.5C5.3971 17.5 5.8001 17.903 5.8001 18.4ZM22.4001 14.4V16C22.4001 17.765 20.9651 19.2 19.2001 19.2H7.4001V17.6H19.2001C20.0821 17.6 20.8001 16.882 20.8001 16H1.6001V14.4H5.4461C5.0361 13.693 4.8001 12.874 4.8001 12V3.19995H16.8001V5.59995H20.8001V10.4C20.8001 11.723 19.7231 12.8 18.4001 12.8H16.7321C16.6351 13.374 16.4361 13.914 16.1541 14.4H22.4001ZM16.8001 11.2H18.4001C18.8411 11.2 19.2001 10.841 19.2001 10.4V7.19995H16.8001V11.2ZM15.2001 4.79995H6.4001V12C6.4001 12.955 6.8211 13.813 7.4871 14.4H14.1131C14.7791 13.813 15.2001 12.955 15.2001 12V4.79995Z"/>
</svg>
