<svg width="24" height="24" viewBox="0 0 24 24" xmlns="http://www.w3.org/2000/svg">
<path d="M3.2001 7.19995H1.6001V3.19995H5.6001V4.79995H3.2001V7.19995ZM22.4001 3.19995H18.4001V4.79995H20.8001V7.19995H22.4001V3.19995ZM22.4001 16.8H20.8001V19.2H18.4001V20.8H22.4001V16.8ZM5.6001 19.2H3.2001V16.8H1.6001V20.8H5.6001V19.2ZM6.4001 6.39995H4.8001V17.6H6.4001V6.39995ZM9.6001 6.39995H8.0001V14.4H9.6001V6.39995ZM12.8001 6.39995H11.2001V17.6H12.8001V6.39995ZM16.0001 6.39995H14.4001V17.6H16.0001V6.39995ZM19.2001 6.39995H17.6001V17.6H19.2001V6.39995ZM8.8001 17.7C9.2971 17.7 9.7001 17.297 9.7001 16.8C9.7001 16.303 9.2971 15.9 8.8001 15.9C8.3031 15.9 7.9001 16.303 7.9001 16.8C7.9001 17.297 8.3031 17.7 8.8001 17.7Z"/>
</svg>
