<svg width="24" height="24" viewBox="0 0 24 24" xmlns="http://www.w3.org/2000/svg">
<path d="M22.4001 12.8001H6.4001V3.6001C6.4001 3.3791 6.5791 3.2001 6.8001 3.2001H9.2001C9.4211 3.2001 9.6001 3.3791 9.6001 3.6001V4.8001H8.0001V6.4001H12.8001V4.8001H11.2001V3.6001C11.2001 2.4971 10.3031 1.6001 9.2001 1.6001H6.8001C5.6971 1.6001 4.8001 2.4971 4.8001 3.6001V12.8001H1.6001V14.4001H3.2001V16.0001C3.2001 17.4601 3.7621 18.7901 4.6801 19.7881L3.2341 21.2341L4.3651 22.3651L5.9261 20.8041C6.7671 21.3091 7.7491 21.6001 8.7991 21.6001H15.1991C16.2491 21.6001 17.2321 21.3091 18.0721 20.8041L19.6331 22.3651L20.7641 21.2341L19.3181 19.7881C20.2361 18.7901 20.7981 17.4591 20.7981 16.0001V14.4001H22.3981V12.8001H22.4001ZM8.8001 20.0001C6.5941 20.0001 4.8001 18.2061 4.8001 16.0001V14.4001H19.2001V16.0001C19.2001 18.2061 17.4061 20.0001 15.2001 20.0001H8.8001ZM10.4001 8.0001C10.8971 8.0001 11.3001 8.4031 11.3001 8.9001C11.3001 9.3971 10.8971 9.8001 10.4001 9.8001C9.9031 9.8001 9.5001 9.3971 9.5001 8.9001C9.5001 8.4031 9.9031 8.0001 10.4001 8.0001Z"/>
</svg>
