<svg width="24" height="24" viewBox="0 0 24 24" xmlns="http://www.w3.org/2000/svg">
<path d="M7.2001 13.6C5.4361 13.6 4.0001 12.164 4.0001 10.4C4.0001 8.63595 5.4361 7.19995 7.2001 7.19995C8.9641 7.19995 10.4001 8.63595 10.4001 10.4C10.4001 12.164 8.9641 13.6 7.2001 13.6ZM7.2001 8.79995C6.3181 8.79995 5.6001 9.51795 5.6001 10.4C5.6001 11.282 6.3181 12 7.2001 12C8.0821 12 8.8001 11.282 8.8001 10.4C8.8001 9.51795 8.0821 8.79995 7.2001 8.79995ZM6.2001 20.7999H3.2001C3.2001 18.594 4.9941 16.8 7.2001 16.8C9.4061 16.8 11.2001 18.594 11.2001 20.7999V21.6H12.8001V20.7999C12.8001 17.712 10.2881 15.2 7.2001 15.2C4.1121 15.2 1.6001 17.712 1.6001 20.7999V22.4H6.2001V20.7999ZM13.2011 13.435C13.0461 13.435 12.8901 13.405 12.7411 13.3429C12.2911 13.1569 12.0001 12.721 12.0001 12.234V3.19995H22.4001V9.99995H17.1311L14.0481 13.083C13.8181 13.313 13.5121 13.435 13.2011 13.435ZM13.6001 4.79995V11.269L16.1171 8.75195C16.3441 8.52495 16.6451 8.40095 16.9661 8.40095H20.8001V4.80095L13.6001 4.79995ZM8.7001 20.6999C8.2031 20.6999 7.8001 21.103 7.8001 21.6C7.8001 22.097 8.2031 22.5 8.7001 22.5C9.1971 22.5 9.6001 22.097 9.6001 21.6C9.6001 21.103 9.1971 20.6999 8.7001 20.6999Z"/>
</svg>
