<svg width="24" height="24" viewBox="0 0 24 24" xmlns="http://www.w3.org/2000/svg">
<path d="M9.19978 20C9.19978 20.497 8.79678 20.9 8.29978 20.9C7.80278 20.9 7.39978 20.497 7.39978 20C7.39978 19.503 7.80278 19.1 8.29978 19.1C8.79678 19.1 9.19978 19.503 9.19978 20ZM21.9998 15.477C21.9998 16.673 21.6268 17.746 20.9218 18.579L17.9818 22.04C17.7868 22.269 17.5028 22.4 17.2008 22.4C16.8988 22.4 16.6138 22.269 16.4198 22.039L13.4798 18.579C12.7738 17.745 12.4008 16.673 12.4008 15.476C12.4008 12.897 14.5538 10.799 17.2008 10.799C17.7618 10.799 18.2998 10.894 18.8008 11.067V9.983L11.6008 4.223L4.40078 9.983V19.199H5.80078V20.799H2.80078V9.791C2.80078 9.424 2.96478 9.083 3.25078 8.854L10.8498 2.775C11.2918 2.422 11.9078 2.422 12.3488 2.775L19.9488 8.855C20.2348 9.084 20.3988 9.426 20.3988 9.792V11.994C21.3798 12.851 21.9988 14.094 21.9988 15.476L21.9998 15.477ZM20.3998 15.477C20.3998 13.78 18.9648 12.4 17.1998 12.4C15.4348 12.4 13.9998 13.78 13.9998 15.477C13.9998 16.29 14.2418 17.005 14.6988 17.545L17.1998 20.488L19.7008 17.544C20.1578 17.005 20.3998 16.29 20.3998 15.477Z"/>
</svg>
