<svg width="24" height="24" viewBox="0 0 24 24" xmlns="http://www.w3.org/2000/svg">
<path d="M20.8001 12.04V4H3.2001V12.04C2.2881 12.226 1.6001 13.034 1.6001 14V20.8H3.2001V19.2H20.8001V20.8H22.4001V14C22.4001 13.034 21.7121 12.226 20.8001 12.04ZM11.2001 12H4.8001V10C4.8001 9.779 4.9791 9.6 5.2001 9.6H10.8001C11.0211 9.6 11.2001 9.779 11.2001 10V12ZM12.8001 10C12.8001 9.779 12.9791 9.6 13.2001 9.6H18.8001C19.0211 9.6 19.2001 9.779 19.2001 10V12H12.8001V10ZM19.2001 5.6V8.04C19.0711 8.014 18.9371 8 18.8001 8H13.2001C12.7501 8 12.3351 8.152 12.0001 8.404C11.6651 8.152 11.2501 8 10.8001 8H5.2001C5.0631 8 4.9291 8.014 4.8001 8.04V5.6H19.2001ZM3.2001 14C3.2001 13.779 3.3791 13.6 3.6001 13.6H20.4001C20.6211 13.6 20.8001 13.779 20.8001 14V17.6H3.2001V14Z"/>
</svg>
