<svg width="24" height="24" viewBox="0 0 24 24" xmlns="http://www.w3.org/2000/svg">
<path d="M20.8 11.8C20.8 10.535 20.149 9.38995 19.1 8.74095C19.1 8.72695 19.1 8.71395 19.1 8.69995C19.1 7.15695 18.126 5.81295 16.714 5.30995C16.41 4.08795 15.316 3.19995 14 3.19995C13.217 3.19995 12.509 3.52295 12 4.04295C11.491 3.52295 10.783 3.19995 10 3.19995C8.68501 3.19995 7.59101 4.08795 7.28601 5.30995C5.87401 5.81295 4.90001 7.15695 4.90001 8.69995C4.90001 8.71395 4.90001 8.72695 4.90001 8.74095C3.85101 9.38995 3.20001 10.535 3.20001 11.8C3.20001 13.211 4.01001 14.444 5.21101 15.033C4.94201 15.577 4.80001 16.179 4.80001 16.8C4.80001 19.006 6.59401 20.8 8.80001 20.8C10.107 20.8 11.27 20.17 12 19.197C12.73 20.17 13.893 20.8 15.2 20.8C17.406 20.8 19.2 19.006 19.2 16.8C19.2 16.179 19.058 15.576 18.789 15.033C19.99 14.444 20.8 13.211 20.8 11.8ZM11.2 7.99995C11.2 8.88195 10.482 9.59995 9.60001 9.59995V11.2C10.183 11.2 10.729 11.043 11.2 10.769V16.8C11.2 18.125 10.125 19.2 8.80001 19.2C7.47501 19.2 6.40001 18.123 6.40001 16.8C6.40001 16.744 6.40301 16.689 6.40601 16.634C6.40601 16.62 6.40801 16.606 6.40901 16.592C6.41401 16.538 6.41901 16.485 6.42801 16.433C6.42901 16.426 6.43101 16.419 6.43201 16.412C6.43901 16.366 6.44801 16.321 6.45801 16.276C6.46201 16.26 6.46501 16.243 6.46901 16.227C6.48101 16.179 6.49401 16.132 6.50801 16.085C6.51301 16.07 6.51801 16.056 6.52301 16.041C6.53401 16.007 6.54701 15.973 6.55901 15.94C6.56601 15.921 6.57401 15.901 6.58201 15.882C6.59901 15.841 6.61701 15.8 6.63701 15.759C6.64601 15.739 6.65701 15.72 6.66701 15.701C6.68001 15.676 6.69301 15.651 6.70701 15.626C6.71901 15.605 6.73101 15.584 6.74301 15.563C6.76501 15.527 6.78701 15.492 6.81101 15.457C6.82501 15.436 6.84001 15.416 6.85401 15.396C6.86901 15.376 6.88301 15.356 6.89901 15.336C6.91401 15.316 6.93001 15.296 6.94601 15.276C6.97201 15.244 6.99901 15.213 7.02701 15.182C7.04401 15.164 7.06101 15.146 7.07801 15.129C7.09601 15.11 7.11501 15.092 7.13401 15.073C7.15101 15.057 7.16801 15.04 7.18501 15.024C7.21701 14.995 7.24901 14.967 7.28301 14.94C7.29901 14.926 7.31601 14.914 7.33301 14.9C7.35801 14.88 7.38401 14.861 7.41001 14.842C7.42501 14.831 7.44001 14.82 7.45501 14.81C7.49401 14.784 7.53401 14.759 7.57401 14.734C7.58801 14.726 7.60201 14.718 7.61601 14.71C7.65201 14.689 7.68901 14.67 7.72601 14.651C7.73501 14.646 7.74401 14.642 7.75301 14.637C7.80001 14.614 7.84701 14.593 7.89601 14.574C8.17501 14.46 8.48101 14.396 8.80001 14.396V12.796C7.83101 12.796 6.94201 13.142 6.24901 13.717C5.41301 13.478 4.80001 12.709 4.80001 11.796C4.80001 10.785 5.55101 9.95195 6.52401 9.81695C6.52701 9.81695 6.52801 9.81395 6.53101 9.81395C6.62701 9.79995 6.69901 9.71495 6.69901 9.61595C6.69901 9.58395 6.69101 9.55495 6.67901 9.52695C6.67801 9.52495 6.67901 9.52195 6.67801 9.51995C6.56401 9.26895 6.49901 8.98995 6.49901 8.69595C6.49901 7.59095 7.39401 6.69595 8.49901 6.69595C8.55701 6.69595 8.61401 6.69895 8.67101 6.70395H8.67401C8.68101 6.70395 8.68801 6.70395 8.69401 6.70395C8.80401 6.70395 8.89401 6.61395 8.89401 6.50395C8.89401 6.47595 8.88701 6.45095 8.87801 6.42595V6.42395C8.82701 6.29095 8.79901 6.14695 8.79901 5.99595C8.79901 5.33295 9.33601 4.79595 9.99901 4.79595C10.662 4.79595 11.199 5.33295 11.199 5.99595V7.99595L11.2 7.99995ZM17.751 13.721C17.058 13.146 16.169 12.8 15.2 12.8V14.4C15.52 14.4 15.825 14.463 16.104 14.578C16.152 14.598 16.2 14.619 16.247 14.641C16.256 14.645 16.265 14.65 16.274 14.655C16.311 14.674 16.348 14.694 16.384 14.714C16.398 14.722 16.412 14.73 16.426 14.738C16.466 14.762 16.506 14.787 16.545 14.814C16.56 14.824 16.575 14.835 16.59 14.846C16.616 14.865 16.642 14.884 16.667 14.904C16.684 14.917 16.701 14.93 16.717 14.944C16.75 14.971 16.783 14.999 16.815 15.028C16.832 15.044 16.849 15.06 16.866 15.077C16.885 15.095 16.903 15.114 16.922 15.133C16.939 15.151 16.956 15.168 16.973 15.186C17.001 15.217 17.028 15.248 17.054 15.28C17.07 15.3 17.086 15.32 17.101 15.34C17.116 15.36 17.131 15.38 17.146 15.4C17.161 15.42 17.175 15.44 17.189 15.461C17.212 15.496 17.235 15.531 17.257 15.567C17.269 15.588 17.281 15.609 17.293 15.63C17.307 15.655 17.32 15.68 17.333 15.705C17.343 15.724 17.353 15.743 17.363 15.763C17.382 15.803 17.4 15.844 17.418 15.886C17.426 15.905 17.433 15.924 17.441 15.944C17.454 15.977 17.466 16.011 17.477 16.045C17.482 16.06 17.487 16.074 17.492 16.089C17.507 16.136 17.519 16.183 17.531 16.231C17.535 16.247 17.539 16.263 17.542 16.28C17.552 16.325 17.561 16.37 17.568 16.416C17.569 16.423 17.571 16.43 17.572 16.437C17.58 16.49 17.586 16.543 17.591 16.596C17.592 16.61 17.593 16.624 17.594 16.638C17.598 16.693 17.6 16.748 17.6 16.804C17.6 18.127 16.523 19.204 15.2 19.204C13.877 19.204 12.8 18.129 12.8 16.804V10.773C13.271 11.046 13.817 11.204 14.4 11.204V9.60395C13.518 9.60395 12.8 8.88595 12.8 8.00395V6.00395C12.8 5.34095 13.337 4.80395 14 4.80395C14.663 4.80395 15.2 5.34095 15.2 6.00395C15.2 6.15495 15.172 6.29895 15.121 6.43195V6.43395C15.113 6.45895 15.105 6.48395 15.105 6.51195C15.105 6.62195 15.195 6.71195 15.305 6.71195C15.312 6.71195 15.319 6.71195 15.325 6.71195H15.328C15.385 6.70695 15.442 6.70395 15.5 6.70395C16.605 6.70395 17.5 7.59895 17.5 8.70395C17.5 8.99795 17.435 9.27695 17.321 9.52795C17.321 9.52795 17.321 9.53295 17.32 9.53495C17.308 9.56195 17.3 9.59195 17.3 9.62395C17.3 9.72395 17.372 9.80895 17.468 9.82195C17.471 9.82195 17.473 9.82395 17.475 9.82495C18.449 9.95995 19.199 10.793 19.199 11.804C19.199 12.717 18.586 13.486 17.75 13.725L17.751 13.721Z"/>
</svg>
