<svg width="24" height="24" viewBox="0 0 24 24" xmlns="http://www.w3.org/2000/svg">
<path d="M12.0001 22.4001C6.2651 22.4001 1.6001 17.7351 1.6001 12.0001C1.6001 6.2651 6.2651 1.6001 12.0001 1.6001C17.7351 1.6001 22.4001 6.2651 22.4001 12.0001C22.4001 17.7351 17.7351 22.4001 12.0001 22.4001ZM12.0001 3.2001C7.1481 3.2001 3.2001 7.1481 3.2001 12.0001C3.2001 16.8521 7.1481 20.8001 12.0001 20.8001C16.8521 20.8001 20.8001 16.8521 20.8001 12.0001C20.8001 7.1481 16.8521 3.2001 12.0001 3.2001ZM11.9821 12.3551C11.7681 12.0391 11.4421 11.8201 11.0101 11.6931C11.2971 11.5631 11.5451 11.3601 11.7281 11.1031C11.8911 10.8641 11.9721 10.5691 11.9721 10.2081C11.9721 9.8721 11.9161 9.5921 11.8091 9.3681C11.7091 9.1481 11.5501 8.9601 11.3511 8.8231C11.1351 8.6801 10.8931 8.5801 10.6381 8.5281C10.3371 8.4641 10.0301 8.4331 9.7221 8.4361L6.4011 8.4391V15.5641H9.8121C10.1231 15.5641 10.4331 15.5231 10.7331 15.4421C11.0201 15.3671 11.2911 15.2421 11.5331 15.0711C11.7691 14.9061 11.9611 14.6861 12.0931 14.4301C12.2381 14.1411 12.3101 13.8211 12.3021 13.4991C12.3051 13.0511 12.1991 12.6701 11.9831 12.3571L11.9821 12.3551ZM7.9481 9.6501H9.3991C9.5341 9.6491 9.6691 9.6611 9.8021 9.6861C9.9221 9.7071 10.0381 9.7511 10.1431 9.8131C10.2431 9.8741 10.3261 9.9601 10.3821 10.0631C10.4441 10.1901 10.4731 10.3301 10.4691 10.4701C10.4691 10.7651 10.3821 10.9841 10.2041 11.1161C10.0261 11.2481 9.7971 11.3151 9.5221 11.3151H7.9481V9.6501ZM10.6571 13.8591C10.6011 13.9751 10.5151 14.0731 10.4081 14.1441C10.2951 14.2141 10.1711 14.2631 10.0411 14.2921C9.8991 14.3231 9.7541 14.3391 9.6081 14.3381H7.9471V12.3831H9.6331C9.9691 12.3831 10.2391 12.4591 10.4421 12.6171C10.6461 12.7751 10.7471 13.0351 10.7471 13.4011C10.7521 13.5591 10.7211 13.7151 10.6551 13.8591H10.6571ZM17.4921 12.0371C17.4081 11.6851 17.2561 11.3531 17.0441 11.0601C16.8351 10.7751 16.5631 10.5411 16.2491 10.3781C15.9281 10.2101 15.5461 10.1231 15.1131 10.1231C14.7491 10.1191 14.3891 10.1901 14.0541 10.3311C13.7431 10.4651 13.4621 10.6611 13.2291 10.9061C12.9941 11.1561 12.8131 11.4501 12.6941 11.7721C12.5661 12.1171 12.5021 12.4831 12.5061 12.8511C12.5011 13.2251 12.5631 13.5971 12.6891 13.9501C12.8021 14.2691 12.9781 14.5621 13.2081 14.8101C13.4371 15.0531 13.7171 15.2431 14.0281 15.3651C14.3741 15.4981 14.7421 15.5631 15.1131 15.5591C15.6931 15.5591 16.1871 15.4271 16.5951 15.1621C17.0021 14.8971 17.3031 14.4551 17.5021 13.8331H16.2701C16.2241 13.9911 16.0971 14.1441 15.8931 14.2861C15.6791 14.4321 15.4241 14.5071 15.1641 14.4991C14.7721 14.4991 14.4661 14.3971 14.2571 14.1891C14.0481 13.9811 13.9311 13.6501 13.9061 13.1811H17.5881C17.6181 12.7971 17.5851 12.4101 17.4911 12.0361L17.4921 12.0371ZM13.9071 12.3041C13.9191 12.1891 13.9411 12.0741 13.9731 11.9631C14.0121 11.8321 14.0761 11.7091 14.1611 11.6021C14.2591 11.4831 14.3801 11.3861 14.5171 11.3171C14.6921 11.2351 14.8841 11.1941 15.0771 11.2001C15.4181 11.2001 15.6731 11.2921 15.8411 11.4801C16.0091 11.6681 16.1261 11.9381 16.1871 12.3041H13.9061H13.9071ZM13.5291 8.7951H16.5841V9.5941H13.5291V8.7951Z"/>
</svg>
