<svg width="24" height="24" viewBox="0 0 24 24" xmlns="http://www.w3.org/2000/svg">
<path d="M11.9712 12.558C11.6352 12.062 11.1232 11.718 10.4432 11.518C10.8952 11.314 11.2842 10.994 11.5712 10.59C11.8272 10.215 11.9552 9.75101 11.9552 9.18301C11.9552 8.65501 11.8672 8.21501 11.6992 7.86301C11.5412 7.51801 11.2922 7.22201 10.9792 7.00701C10.6392 6.78201 10.2592 6.62401 9.85919 6.54401C9.38619 6.44401 8.9032 6.39501 8.4192 6.40001L3.2002 6.40401V17.6H8.56019C9.04919 17.6 9.53619 17.536 10.0082 17.408C10.4592 17.291 10.8842 17.093 11.2652 16.825C11.6362 16.566 11.9382 16.22 12.1452 15.817C12.3732 15.363 12.4852 14.861 12.4732 14.353C12.4782 13.649 12.3112 13.051 11.9712 12.558ZM5.6332 8.30701H7.9142C8.12619 8.30501 8.33819 8.32401 8.54719 8.36301C8.7362 8.39701 8.9182 8.46401 9.0832 8.56301C9.2412 8.65801 9.37119 8.79301 9.45919 8.95501C9.55619 9.15401 9.60319 9.37401 9.59519 9.59501C9.59519 10.059 9.4592 10.402 9.17919 10.611C8.89919 10.819 8.5392 10.923 8.10719 10.923H5.6332V8.30701ZM9.89019 14.921C9.8022 15.103 9.6672 15.258 9.4982 15.369C9.3202 15.478 9.12619 15.557 8.92219 15.601C8.69919 15.65 8.47119 15.674 8.24219 15.673H5.6322V12.602H8.2822C8.81019 12.602 9.23419 12.722 9.55419 12.97C9.8742 13.218 10.0342 13.626 10.0342 14.202C10.0422 14.45 9.9932 14.696 9.89019 14.921ZM20.6312 12.058C20.4992 11.505 20.2602 10.983 19.9272 10.522C19.5992 10.073 19.1712 9.70701 18.6782 9.45001C18.1742 9.18701 17.5732 9.05001 16.8932 9.05001C16.3222 9.04401 15.7552 9.15601 15.2282 9.37701C14.7392 9.58801 14.2982 9.89501 13.9312 10.281C13.5622 10.673 13.2772 11.136 13.0912 11.641C12.8892 12.183 12.7892 12.758 12.7952 13.337C12.7882 13.925 12.8852 14.51 13.0832 15.064C13.2602 15.566 13.5382 16.026 13.8992 16.416C14.2592 16.798 14.6992 17.096 15.1882 17.287C15.7322 17.496 16.3102 17.599 16.8932 17.591C17.8052 17.591 18.5812 17.383 19.2222 16.968C19.8622 16.552 20.3352 15.856 20.6472 14.88H18.7102C18.6382 15.128 18.4382 15.368 18.1182 15.592C17.7812 15.822 17.3812 15.939 16.9732 15.927C16.3572 15.927 15.8762 15.767 15.5482 15.44C15.2202 15.113 15.0362 14.593 14.9962 13.856H20.7822C20.8292 13.252 20.7782 12.644 20.6302 12.056L20.6312 12.058ZM14.9972 12.478C15.0162 12.297 15.0512 12.117 15.1012 11.942C15.1622 11.736 15.2632 11.543 15.3972 11.375C15.5512 11.189 15.7412 11.036 15.9572 10.927C16.2322 10.797 16.5332 10.734 16.8372 10.743C17.3732 10.743 17.7732 10.887 18.0372 11.183C18.3012 11.479 18.4852 11.903 18.5812 12.479H14.9972V12.478ZM14.4022 6.96401H19.2022V8.22001H14.4022V6.96401Z"/>
</svg>
