<svg width="24" height="24" viewBox="0 0 24 24" xmlns="http://www.w3.org/2000/svg">
<path d="M5.1001 7.80005C5.1001 7.30305 5.5031 6.90005 6.0001 6.90005C6.4971 6.90005 6.9001 7.30305 6.9001 7.80005C6.9001 8.29705 6.4971 8.70005 6.0001 8.70005C5.5031 8.70005 5.1001 8.29705 5.1001 7.80005ZM22.4001 14.8C22.4001 17.226 20.4261 19.2 18.0001 19.2C15.5741 19.2 13.6001 17.226 13.6001 14.8C13.6001 12.928 14.7761 11.326 16.4271 10.692L16.0801 8.81505L10.0141 13.002C10.2611 13.551 10.4001 14.16 10.4001 14.8C10.4001 17.226 8.4261 19.2 6.0001 19.2C3.5741 19.2 1.6001 17.226 1.6001 14.8C1.6001 12.374 3.5741 10.4 6.0001 10.4C7.2111 10.4 8.3081 10.892 9.1051 11.685L13.5761 8.60005H8.5011V7.00005H15.7461L15.3391 4.80005H18.5121C19.4271 4.80005 20.2491 5.30805 20.6591 6.12705L21.0171 6.84305L19.5861 7.55905L19.2281 6.84305C19.0921 6.57005 18.8171 6.40105 18.5121 6.40105H17.2621L18.0011 10.401C20.4271 10.401 22.4001 12.374 22.4001 14.8ZM8.6621 13.935L6.4541 15.459L5.5451 14.142L7.7521 12.619C7.2721 12.233 6.6621 12 6.0001 12C4.4561 12 3.2001 13.256 3.2001 14.8C3.2001 16.344 4.4561 17.6 6.0001 17.6C7.5441 17.6 8.8001 16.344 8.8001 14.8C8.8001 14.498 8.7511 14.207 8.6621 13.935ZM20.8001 14.8C20.8001 13.357 19.7031 12.166 18.2991 12.016L18.7871 14.654L17.2141 14.945L16.7271 12.308C15.8221 12.773 15.2011 13.715 15.2011 14.8C15.2011 16.344 16.4571 17.6 18.0011 17.6C19.5451 17.6 20.8001 16.344 20.8001 14.8Z"/>
</svg>
