<svg width="24" height="24" viewBox="0 0 24 24" xmlns="http://www.w3.org/2000/svg">
<path d="M19.4929 2.1411C19.1889 1.7971 18.7519 1.6001 18.2939 1.6001H5.70586C5.24686 1.6001 4.80986 1.7971 4.50686 2.1411C4.20286 2.4851 4.06186 2.9431 4.11886 3.3981L6.31886 20.9981C6.41886 21.7971 7.10086 22.4001 7.90686 22.4001H16.0949C16.8999 22.4001 17.5829 21.7971 17.6829 20.9981L19.8829 3.3981C19.9399 2.9431 19.7979 2.4851 19.4949 2.1411H19.4929ZM18.2939 3.2001L17.7879 7.2461C15.6949 5.8751 13.0589 6.1911 11.4019 8.0581C10.1409 9.4791 8.23886 9.7701 6.87986 8.7491L6.34986 8.3521L5.70586 3.2001H18.2939ZM16.0939 20.8001H7.90586L6.61386 10.4621C7.27386 10.7991 7.98586 10.9651 8.70186 10.9651C10.1029 10.9651 11.5209 10.3341 12.5979 9.1201C13.7599 7.8101 15.6479 7.6411 17.0959 8.7121L17.5539 9.1131L16.0929 20.8001H16.0939Z"/>
</svg>
