<svg width="24" height="24" viewBox="0 0 24 24" xmlns="http://www.w3.org/2000/svg">
<path d="M4.79995 8.79995H3.19995V3.19995H8.79995V4.79995H4.79995V8.79995ZM20.8 3.19995H15.2V4.79995H19.2V8.79995H20.8V3.19995ZM8.79995 19.2H4.79995V15.2H3.19995V20.8H8.79995V19.2ZM20.8 15.2H19.2V19.2H15.2V20.8H20.8V15.2ZM14.4 11.2V14.4C14.4 15.723 13.323 16.8 12 16.8C10.677 16.8 9.59995 15.723 9.59995 14.4V11.2C9.59995 9.87695 10.677 8.79995 12 8.79995C13.323 8.79995 14.4 9.87695 14.4 11.2ZM12.8 11.2C12.8 10.759 12.441 10.4 12 10.4C11.559 10.4 11.2 10.759 11.2 11.2V14.4C11.2 14.841 11.559 15.2 12 15.2C12.441 15.2 12.8 14.841 12.8 14.4V11.2ZM7.19995 15.1C6.70295 15.1 6.29995 15.503 6.29995 16C6.29995 16.497 6.70295 16.9 7.19995 16.9C7.69695 16.9 8.09995 16.497 8.09995 16C8.09995 15.503 7.69695 15.1 7.19995 15.1ZM15.193 8.79395C15.6989 9.46395 16 10.297 16 11.2V16.8H17.6V11.2C17.6 9.85595 17.124 8.62195 16.332 7.65595L15.193 8.79395ZM15.151 6.57395C14.253 5.95995 13.168 5.59995 12 5.59995C8.91195 5.59995 6.39995 8.11195 6.39995 11.2V13.5H7.99995V11.2C7.99995 8.99395 9.79395 7.19995 12 7.19995C12.725 7.19995 13.405 7.39495 13.992 7.73295L15.152 6.57295L15.151 6.57395Z"/>
</svg>
