<svg width="24" height="24" viewBox="0 0 24 24" xmlns="http://www.w3.org/2000/svg">
<path d="M11.9925 2.41455C6.70222 2.41455 2.3985 6.71827 2.3985 12.0086C2.3985 17.2988 6.70222 21.6026 11.9925 21.6026C17.2828 21.6026 21.5865 17.2988 21.5865 12.0086C21.5865 6.71827 17.2818 2.41455 11.9925 2.41455ZM11.9925 20.0029C7.58394 20.0029 3.99817 16.4161 3.99817 12.0086C3.99817 7.60099 7.58394 4.01322 11.9925 4.01322C16.4011 4.01322 19.9868 7.59999 19.9868 12.0076C19.9868 16.4151 16.4001 20.0029 11.9925 20.0029ZM15.5473 9.87267C15.4305 8.65046 14.377 8.24105 13.045 8.12323V6.4287H12.0145V8.07829C11.7419 8.07829 11.4653 8.08328 11.1897 8.08828V6.4277H10.1602L10.1582 8.12223C9.93451 8.12622 9.71583 8.13021 9.50214 8.13021V8.12522L8.07921 8.12323V9.22462C8.07921 9.22462 8.8401 9.21064 8.82812 9.22462C9.24551 9.22462 9.38131 9.46727 9.42126 9.67696V11.6071C9.44822 11.6071 9.48616 11.6081 9.5291 11.6141C9.49515 11.6141 9.4582 11.6141 9.42026 11.6141L9.41826 14.3182C9.40029 14.45 9.3224 14.6597 9.03083 14.6597C9.04381 14.6717 8.28092 14.6597 8.28092 14.6597L8.07522 15.8909H9.41726C9.6669 15.8919 9.91254 15.8969 10.1542 15.8989V17.6124H11.1837V15.9169C11.4683 15.9228 11.7419 15.9258 12.0085 15.9258L12.0065 17.6134H13.038L13.04 15.9029C14.7744 15.805 15.9877 15.3687 16.1405 13.741C16.2633 12.4299 15.6472 11.8448 14.6626 11.6071C15.2607 11.3036 15.6342 10.7664 15.5473 9.87267ZM14.1014 13.5363C14.1014 14.8175 11.9086 14.6697 11.2086 14.6697L11.2106 12.399C11.9096 12.399 14.1034 12.2003 14.1014 13.5363ZM13.6241 10.332C13.6231 11.4973 11.7938 11.3595 11.2116 11.3595L11.2136 9.30051C11.7958 9.30051 13.6251 9.11578 13.6241 10.332Z"/>
</svg>
