<svg width="24" height="24" viewBox="0 0 24 24" xmlns="http://www.w3.org/2000/svg">
<path d="M16.2006 6.20792C15.5666 5.74392 14.6806 5.88392 14.2166 6.52492L7.54762 15.8399C7.08262 16.4809 7.23061 17.3799 7.86461 17.8519C8.49861 18.3159 9.38461 18.1759 9.84861 17.5349L16.5246 8.21992C16.9746 7.57092 16.8356 6.67192 16.2006 6.20792Z"/>
<path d="M7.99761 5.47792C8.46261 4.83692 8.32261 3.93792 7.68061 3.47392C7.03861 3.00992 6.13861 3.14992 5.67361 3.79092C5.20861 4.43192 5.34861 5.33092 5.99061 5.79492C6.63261 6.25892 7.52461 6.11892 7.99761 5.47792Z"/>
<path d="M8.58761 9.48692C9.22161 9.95092 10.1076 9.81092 10.5716 9.16992L12.2386 6.84092C12.6956 6.19992 12.5556 5.30092 11.9286 4.82892C11.2946 4.36492 10.4086 4.50492 9.94461 5.14592L8.27761 7.47492C7.81261 8.12392 7.95261 9.02292 8.58761 9.48692Z"/>
<path d="M15.4776 14.5649C14.8436 14.1009 13.9576 14.2409 13.4936 14.8819L11.8266 17.2109C11.3696 17.8519 11.5096 18.7509 12.1366 19.2229C12.7706 19.6869 13.6566 19.5469 14.1206 18.9059L15.7876 16.5769C16.2526 15.9359 16.1126 15.0289 15.4776 14.5649Z"/>
<path d="M18.0086 18.2049C17.3666 17.7409 16.4666 17.8809 16.0016 18.5219C15.5366 19.1629 15.6766 20.0619 16.3186 20.5259C16.9606 20.9899 17.8606 20.8499 18.3256 20.2089C18.7906 19.5679 18.6506 18.6759 18.0086 18.2049Z"/>
</svg>
