<svg width="24" height="24" viewBox="0 0 24 24" xmlns="http://www.w3.org/2000/svg">
<path d="M14.0001 22.4001H3.6001C2.4971 22.4001 1.6001 21.5031 1.6001 20.4001V3.6001C1.6001 2.4971 2.4971 1.6001 3.6001 1.6001H14.0001C15.1031 1.6001 16.0001 2.4971 16.0001 3.6001V4.8001H14.4001V3.6001C14.4001 3.3791 14.2211 3.2001 14.0001 3.2001H3.6001C3.3791 3.2001 3.2001 3.3791 3.2001 3.6001V20.4001C3.2001 20.6211 3.3791 20.8001 3.6001 20.8001H14.0001C14.2211 20.8001 14.4001 20.6211 14.4001 20.4001V17.6001H16.0001V20.4001C16.0001 21.5031 15.1031 22.4001 14.0001 22.4001ZM8.8001 17.4001C8.3031 17.4001 7.9001 17.8031 7.9001 18.3001C7.9001 18.7971 8.3031 19.2001 8.8001 19.2001C9.2971 19.2001 9.7001 18.7971 9.7001 18.3001C9.7001 17.8031 9.2971 17.4001 8.8001 17.4001ZM12.1971 15.3361L10.9991 16.5341L9.8681 15.4031L10.7921 14.4791C9.8291 13.7311 9.0291 12.7331 8.4751 11.5371L8.3191 11.2001L8.4751 10.8631C9.7521 8.1101 12.3291 6.4001 15.2011 6.4001C16.2601 6.4001 17.2781 6.6331 18.2071 7.0651L19.4371 5.8351L20.5681 6.9661L16.7471 10.7881C16.7471 10.7881 16.7471 10.7881 16.7471 10.7891L13.4291 14.1061C13.4291 14.1061 13.4291 14.1061 13.4301 14.1061L12.2001 15.3361H12.1971ZM11.9361 13.3341L13.6561 11.6141C13.6211 11.4821 13.6001 11.3431 13.6001 11.2001C13.6001 10.3161 14.3161 9.6001 15.2001 9.6001C15.3441 9.6001 15.4821 9.6211 15.6141 9.6561L16.9751 8.2951C16.4101 8.1031 15.8131 8.0001 15.1991 8.0001C13.0751 8.0001 11.1491 9.2171 10.0921 11.2001C10.5571 12.0731 11.1901 12.7971 11.9351 13.3341H11.9361ZM21.9261 10.8631C21.6121 10.1871 21.2201 9.5731 20.7641 9.0331L19.6251 10.1721C19.8791 10.4861 20.1091 10.8291 20.3071 11.2001C19.2841 13.1211 17.4451 14.3221 15.4011 14.3961L13.9161 15.8811C14.3351 15.9581 14.7641 16.0001 15.2001 16.0001C18.0721 16.0001 20.6491 14.2901 21.9261 11.5371L22.0821 11.2001L21.9261 10.8631Z"/>
</svg>
