<svg width="24" height="24" viewBox="0 0 24 24" xmlns="http://www.w3.org/2000/svg">
<path d="M11.9999 2.3999C6.7069 2.3999 2.3999 6.7069 2.3999 11.9999C2.3999 17.2929 6.7069 21.5999 11.9999 21.5999C17.2929 21.5999 21.5999 17.2929 21.5999 11.9999C21.5999 6.7069 17.2929 2.3999 11.9999 2.3999ZM3.9999 11.9999C3.9999 7.5889 7.5889 3.9999 11.9999 3.9999C13.9179 3.9999 15.6799 4.6789 17.0599 5.8089L5.8089 17.0599C4.6789 15.6799 3.9999 13.9179 3.9999 11.9999ZM11.9999 19.9999C10.0819 19.9999 8.3199 19.3209 6.9399 18.1909L18.1909 6.9399C19.3209 8.3199 19.9999 10.0819 19.9999 11.9999C19.9999 16.4109 16.4109 19.9999 11.9999 19.9999Z"/>
</svg>
