<svg width="24" height="24" viewBox="0 0 24 24" xmlns="http://www.w3.org/2000/svg">
<path d="M11.2001 19.2H1.6001V11.306C1.6001 11.097 1.6551 10.892 1.7581 10.711L4.7901 5.40505C5.0031 5.03205 5.4021 4.80005 5.8321 4.80005H10.0111C10.4371 4.80005 10.8351 5.02905 11.0491 5.39805C11.2631 5.76705 11.2641 6.22605 11.0531 6.59605L8.8791 10.401H11.2001V19.2ZM3.2001 17.6H9.6001V12H6.1211L9.3211 6.40005H6.0641L3.2001 11.412V17.6ZM22.4001 19.2H12.8001V11.306C12.8001 11.098 12.8551 10.892 12.9581 10.711L15.9901 5.40505C16.2031 5.03205 16.6021 4.80005 17.0321 4.80005H21.2111C21.6371 4.80005 22.0351 5.02905 22.2491 5.39805C22.4631 5.76705 22.4641 6.22605 22.2531 6.59605L20.0791 10.401H22.4001V19.2ZM14.4001 17.6H20.8001V12H17.3211L20.5211 6.40005H17.2641L14.4001 11.412V17.6Z"/>
</svg>
