<svg width="24" height="24" viewBox="0 0 24 24" xmlns="http://www.w3.org/2000/svg">
<path d="M5.78783 6.69395C5.78783 7.19195 5.38483 7.59495 4.88683 7.59495C4.38883 7.59495 3.98583 7.19195 3.98583 6.69395C3.98583 6.19595 4.38883 5.79295 4.88683 5.79295C5.38483 5.79295 5.78783 6.19595 5.78783 6.69395ZM13.4478 22.172L19.4558 18.067C19.7778 17.846 19.9718 17.473 19.9748 17.069C19.9778 16.661 19.7878 16.281 19.4658 16.052L13.7338 11.992L19.4658 7.94795C19.7878 7.71895 19.9778 7.33895 19.9738 6.93095C19.9708 6.52695 19.7768 6.15395 19.4538 5.93295L13.4478 1.82895C13.0748 1.57295 12.6018 1.54195 12.2128 1.74595C11.8308 1.94695 11.5928 2.34695 11.5928 2.78895V10.475L7.45083 7.54095L6.52483 8.84795L10.9578 11.988L3.92383 16.951L4.84683 18.26L11.5928 13.501V21.21C11.5928 21.652 11.8298 22.052 12.2128 22.253C12.3828 22.343 12.5698 22.387 12.7568 22.387C12.9968 22.387 13.2378 22.314 13.4468 22.171L13.4478 22.172ZM18.1038 17.05L13.1958 20.404V13.574L18.1038 17.05ZM18.1028 6.94895L13.1958 10.411V3.59595L18.1028 6.94895Z"/>
</svg>
