<svg width="24" height="24" viewBox="0 0 24 24" xmlns="http://www.w3.org/2000/svg">
<path d="M4.0998 20.7999C4.0998 21.2969 3.6968 21.6999 3.1998 21.6999C2.7028 21.6999 2.2998 21.2969 2.2998 20.7999C2.2998 20.3029 2.7028 19.8999 3.1998 19.8999C3.6968 19.8999 4.0998 20.3029 4.0998 20.7999ZM11.9998 2.3999C6.7068 2.3999 2.3998 6.7069 2.3998 11.9999V18.2999H3.9998V11.9999C3.9998 7.5889 7.5888 3.9999 11.9998 3.9999C16.4108 3.9999 19.9998 7.5889 19.9998 11.9999C19.9998 16.4109 16.4108 19.9999 11.9998 19.9999H5.6998V21.5999H11.9998C17.2928 21.5999 21.5998 17.2929 21.5998 11.9999C21.5998 6.7069 17.2928 2.3999 11.9998 2.3999Z"/>
</svg>
