<svg width="24" height="24" viewBox="0 0 24 24" xmlns="http://www.w3.org/2000/svg">
<path d="M16.8 3.2001H16V1.6001H14.4V3.2001H9.6V1.6001H8V3.2001H7.2C5.435 3.2001 4 4.6351 4 6.4001V17.6001C4 19.3651 5.435 20.8001 7.2 20.8001H8V22.4001H9.6V20.8001H14.4V22.4001H16V20.8001H16.8C18.565 20.8001 20 19.3651 20 17.6001V6.4001C20 4.6351 18.565 3.2001 16.8 3.2001ZM7.2 4.8001H16.8C17.682 4.8001 18.4 5.5181 18.4 6.4001H5.6C5.6 5.5181 6.318 4.8001 7.2 4.8001ZM12.8 19.0621V16.8001H11.2V19.0621C10.278 18.7351 9.614 17.8601 9.601 16.8301C9.609 15.8121 10.477 13.9071 12 11.5511C13.523 13.9081 14.391 15.8121 14.399 16.8301C14.386 17.8601 13.722 18.7351 12.8 19.0621ZM18.4 17.6001C18.4 18.4821 17.682 19.2001 16.8 19.2001H15.198C15.693 18.5421 15.989 17.7281 15.999 16.8461C15.999 16.8381 16 16.8291 16 16.8211C16 16.8141 16 16.8071 16 16.8001C15.979 15.3431 14.97 13.1081 12.999 10.1561C12.776 9.8221 12.403 9.6231 12.001 9.6231C11.599 9.6231 11.226 9.8221 11.003 10.1561C9.031 13.1091 8.022 15.3431 8.001 16.8001C8.001 16.8071 8.001 16.8141 8.001 16.8211C8.001 16.8291 8.001 16.8381 8.001 16.8461C8.011 17.7281 8.308 18.5431 8.803 19.2001H7.201C6.319 19.2001 5.601 18.4821 5.601 17.6001V8.0001H18.401L18.4 17.6001Z"/>
</svg>
