<svg width="24" height="24" viewBox="0 0 24 24" xmlns="http://www.w3.org/2000/svg">
<path d="M6.6 14.4C6.6 14.897 6.197 15.3 5.7 15.3C5.203 15.3 4.8 14.897 4.8 14.4C4.8 13.903 5.203 13.5 5.7 13.5C6.197 13.5 6.6 13.903 6.6 14.4ZM23.2 14.4C23.2 17.488 20.688 20 17.6 20C16.547 20 15.561 19.707 14.719 19.2H1.6V4.80005H22.4V11.519C22.907 12.361 23.2 13.347 23.2 14.4ZM3.2 17.6H13.008C12.518 16.9 12.185 16.083 12.058 15.2H8.2V13.6H12.058C12.447 10.89 14.784 8.80005 17.6 8.80005C18.789 8.80005 19.892 9.17405 20.8 9.80805V6.40005H3.2V17.6ZM21.6 14.4C21.6 12.194 19.806 10.4 17.6 10.4C15.394 10.4 13.6 12.194 13.6 14.4C13.6 16.606 15.394 18.4 17.6 18.4C19.806 18.4 21.6 16.606 21.6 14.4ZM19.747 12.841L18.4 13.29V11.998H16.8V13.29L15.453 12.841L14.947 14.359L16.33 14.82L15.545 15.941L16.856 16.859L17.601 15.795L18.346 16.859L19.657 15.941L18.872 14.82L20.255 14.359L19.749 12.841H19.747Z"/>
</svg>
