<svg width="24" height="24" viewBox="0 0 24 24" xmlns="http://www.w3.org/2000/svg">
<path d="M20 17.6001V1.6001H7.2C5.435 1.6001 4 3.0351 4 4.8001V19.2001C4 20.9651 5.435 22.4001 7.2 22.4001H20V20.8001H18.4V17.6001H20ZM7.2 3.2001H18.4V16.0001H7.2C6.617 16.0001 6.071 16.1571 5.6 16.4311V4.8001C5.6 3.9181 6.318 3.2001 7.2 3.2001ZM16.8 20.8001H7.2C6.318 20.8001 5.6 20.0821 5.6 19.2001C5.6 18.3181 6.318 17.6001 7.2 17.6001H16.8V20.8001ZM7.2 7.2001C7.2 6.7031 7.603 6.3001 8.1 6.3001C8.597 6.3001 9 6.7031 9 7.2001C9 7.6971 8.597 8.1001 8.1 8.1001C7.603 8.1001 7.2 7.6971 7.2 7.2001ZM16.8 8.0001H10.6V6.4001H16.8V8.0001Z"/>
</svg>
