<svg width="24" height="24" viewBox="0 0 24 24" xmlns="http://www.w3.org/2000/svg">
<path d="M8.0001 18.4C8.0001 18.897 7.5971 19.3 7.1001 19.3C6.6031 19.3 6.2001 18.897 6.2001 18.4C6.2001 17.903 6.6031 17.5 7.1001 17.5C7.5971 17.5 8.0001 17.903 8.0001 18.4ZM22.4001 8.00005V19.2H9.6001V14.4H11.2001V17.6H20.8001V9.60005H3.2001V17.6H4.6001V19.2H1.6001V8.00005H4.0001V4.80005H20.0001V8.00005H22.4001ZM18.4001 8.00005V6.40005H5.6001V8.00005H18.4001ZM19.2001 11.2H12.8001V12.8H19.2001V11.2ZM19.2001 14.4H12.8001V16H19.2001V14.4Z"/>
</svg>
