<svg width="24" height="24" viewBox="0 0 24 24" xmlns="http://www.w3.org/2000/svg">
<path d="M9.80375 21.5866C9.80375 22.0828 9.40134 22.4852 8.90506 22.4852C8.40879 22.4852 8.00638 22.0828 8.00638 21.5866C8.00638 21.0903 8.40879 20.6879 8.90506 20.6879C9.40134 20.6879 9.80375 21.0903 9.80375 21.5866ZM9.60405 8.00636H8.00638V6.40869H9.60405V8.00636ZM12.7994 8.00636H11.2017V6.40869H12.7994V8.00636ZM15.9947 8.00636H14.3971V6.40869H15.9947V8.00636ZM9.60405 11.2017H8.00638V9.60403H9.60405V11.2017ZM12.7994 11.2017H11.2017V9.60403H12.7994V11.2017ZM15.9947 11.2017H14.3971V9.60403H15.9947V11.2017ZM9.60405 14.397H8.00638V12.7994H9.60405V14.397ZM12.7994 14.397H11.2017V12.7994H12.7994V14.397ZM15.9947 14.397H14.3971V12.7994H15.9947V14.397ZM9.60405 17.5924H8.00638V15.9947H9.60405V17.5924ZM12.7994 17.5924H11.2017V15.9947H12.7994V17.5924ZM15.9947 17.5924H14.3971V15.9947H15.9947V17.5924ZM19.1901 2.86685C19.1901 2.52336 19.0423 2.19583 18.7847 1.96817C18.527 1.7405 18.1835 1.63465 17.843 1.67759L5.8605 3.1754C5.26238 3.2503 4.81104 3.76155 4.81104 4.36467V22.3854H6.40871V4.71716L17.5924 3.3192V20.7877H12.7994V19.19H11.2017V22.3854H19.1901V2.86685Z"/>
</svg>
