<svg width="24" height="24" viewBox="0 0 24 24" xmlns="http://www.w3.org/2000/svg">
<path d="M20.8002 20.8H3.2002V3.19995H20.8002V20.8ZM4.8002 19.2H19.2002V4.79995H4.8002V19.2ZM9.7612 12.81L8.8082 9.58695H7.3002V14.5H8.4062V11.982C8.40919 11.994 8.4132 12.005 8.4162 12.017L9.1932 14.5H10.2342L10.9452 12.264C10.9692 12.181 10.9932 12.099 11.0162 12.018V14.5H12.1922V9.58695H10.6492L9.7612 12.81ZM16.5352 13.492H14.4832C14.4942 13.471 14.5082 13.449 14.5242 13.426C14.5762 13.353 14.6492 13.275 14.7402 13.192C14.8342 13.107 14.9492 13.015 15.0812 12.919C15.2152 12.822 15.3672 12.719 15.5302 12.612C15.7552 12.466 15.9392 12.323 16.0772 12.188C16.2172 12.051 16.3272 11.913 16.4032 11.779C16.4802 11.643 16.5322 11.506 16.5572 11.37C16.5812 11.239 16.5942 11.104 16.5942 10.968C16.5942 10.749 16.5562 10.546 16.4822 10.366C16.4072 10.184 16.2972 10.027 16.1552 9.89795C16.0142 9.76995 15.8382 9.66995 15.6332 9.60195C15.4312 9.53495 15.1982 9.50095 14.9422 9.50095C14.5242 9.50095 14.1632 9.59595 13.8672 9.78395C13.5752 9.96895 13.3262 10.221 13.1272 10.533L13.0802 10.607L13.9062 11.308L13.9672 11.208C14.0942 11 14.2452 10.839 14.4162 10.729C14.5842 10.621 14.7502 10.566 14.9122 10.566C15.0742 10.566 15.2012 10.608 15.2872 10.694C15.3732 10.78 15.4152 10.894 15.4152 11.041C15.4152 11.145 15.3992 11.237 15.3672 11.313C15.3352 11.39 15.2832 11.465 15.2142 11.535C15.1402 11.61 15.0412 11.69 14.9212 11.773C14.7962 11.859 14.6432 11.961 14.4662 12.077C14.1612 12.279 13.9122 12.477 13.7252 12.665C13.5372 12.855 13.3922 13.044 13.2922 13.225C13.1912 13.408 13.1242 13.592 13.0932 13.772C13.0632 13.947 13.0482 14.124 13.0482 14.299V14.502H16.7212L16.5362 13.494L16.5352 13.492Z"/>
</svg>
