<svg width="24" height="24" viewBox="0 0 24 24" xmlns="http://www.w3.org/2000/svg">
<path d="M15.1998 22.4001H8.7998V20.8001H15.1998V22.4001ZM8.2998 14.2001C7.8028 14.2001 7.3998 14.6031 7.3998 15.1001C7.3998 15.5971 7.8028 16.0001 8.2998 16.0001C8.7968 16.0001 9.1998 15.5971 9.1998 15.1001C9.1998 14.6031 8.7968 14.2001 8.2998 14.2001ZM11.9998 1.6001C10.1588 1.6001 8.3188 2.3851 6.9508 3.7541C5.5838 5.1221 4.7998 6.9611 4.7998 8.8001C4.7998 10.4881 5.2318 11.8481 6.1608 13.0811C6.2508 13.2011 6.3378 13.3231 6.4218 13.4471L7.5698 12.2991C7.5268 12.2391 7.4838 12.1781 7.4388 12.1191C6.7198 11.1651 6.3998 10.1411 6.3998 8.8001C6.3998 5.8171 9.0168 3.2001 11.9998 3.2001C14.9828 3.2001 17.5998 5.7121 17.5998 8.8001C17.5998 10.0781 17.2498 11.1961 16.5588 12.1221C15.3368 13.7601 14.5958 15.6791 14.4338 17.6001H7.9578C7.9848 17.8671 7.9998 18.1341 7.9998 18.4001V19.2001H15.9998V18.4001C15.9998 16.5591 16.6538 14.6691 17.8408 13.0781C18.7298 11.8871 19.1998 10.4071 19.1998 8.8001C19.1998 4.8301 15.9698 1.6001 11.9998 1.6001Z"/>
</svg>
