<svg width="24" height="24" viewBox="0 0 24 24" xmlns="http://www.w3.org/2000/svg">
<path d="M3.3 19.5001C3.3 19.9971 2.897 20.4001 2.4 20.4001C1.903 20.4001 1.5 19.9971 1.5 19.5001C1.5 19.0031 1.903 18.6001 2.4 18.6001C2.897 18.6001 3.3 19.0031 3.3 19.5001ZM20.665 14.2001H21.2C21.862 14.2001 22.4 14.7381 22.4 15.4001V19.2001C22.4 19.8621 21.862 20.4001 21.2 20.4001H18.983C18.638 21.5551 17.566 22.4001 16.3 22.4001C15.034 22.4001 13.962 21.5551 13.617 20.4001H10.383C10.038 21.5551 8.966 22.4001 7.7 22.4001C6.156 22.4001 4.9 21.1441 4.9 19.6001C4.9 18.0561 6.156 16.8001 7.7 16.8001C8.966 16.8001 10.038 17.6451 10.383 18.8001H13.617C13.962 17.6451 15.034 16.8001 16.3 16.8001C17.566 16.8001 18.638 17.6451 18.983 18.8001H20.8V15.8001H18.566C18.245 15.8001 17.944 15.6751 17.717 15.4491L13.469 11.2001H6.732L3.201 14.7311V17.0001H1.601V14.5661C1.601 14.2451 1.726 13.9441 1.952 13.7171L5.718 9.95106C5.945 9.72406 6.246 9.60006 6.567 9.60006H11.628C11.788 7.85806 12.639 6.93206 13.399 6.10706C14.249 5.18306 14.92 4.45406 14.802 2.55006C14.778 2.15806 14.979 1.80606 15.315 1.65506C15.638 1.50906 16.011 1.58006 16.266 1.83506C18.431 4.00006 19.34 6.34406 18.948 8.62806C19.672 8.06406 20.396 7.38706 20.814 6.68906C21.03 6.32906 21.413 6.16306 21.789 6.26706C22.154 6.36806 22.4 6.70306 22.4 7.10006V10.2001C22.4 11.6651 21.784 13.1561 20.665 14.2001ZM8.9 19.6001C8.9 18.9381 8.362 18.4001 7.7 18.4001C7.038 18.4001 6.5 18.9381 6.5 19.6001C6.5 20.2621 7.038 20.8001 7.7 20.8001C8.362 20.8001 8.9 20.2621 8.9 19.6001ZM17.5 19.6001C17.5 18.9381 16.962 18.4001 16.3 18.4001C15.638 18.4001 15.1 18.9381 15.1 19.6001C15.1 20.2621 15.638 20.8001 16.3 20.8001C16.962 20.8001 17.5 20.2621 17.5 19.6001ZM14.483 9.95106L18.313 13.7811C19.892 13.2251 20.8 11.6931 20.8 10.2001V9.15006C19.811 10.0661 18.675 10.8021 18.019 11.1951L16.796 9.97206C17.961 7.81306 17.349 5.84906 16.277 4.31406C15.978 5.66706 15.245 6.46306 14.576 7.19006C13.918 7.90606 13.379 8.49406 13.238 9.60006H13.635C13.956 9.60006 14.256 9.72506 14.483 9.95106Z"/>
</svg>
