<svg width="24" height="24" viewBox="0 0 24 24" xmlns="http://www.w3.org/2000/svg">
<path d="M17.6 5.6001H4.8C3.036 5.6001 1.6 7.0361 1.6 8.8001V13.6001H3.2V12.0001H17.6C18.864 12.0001 20.045 12.5961 20.8 13.6011V15.2001H19.862C19.532 14.2691 18.643 13.6001 17.6 13.6001C16.557 13.6001 15.668 14.2691 15.338 15.2001H9.463C9.133 14.2691 8.244 13.6001 7.201 13.6001C5.878 13.6001 4.801 14.6771 4.801 16.0001C4.801 17.3231 5.878 18.4001 7.201 18.4001C8.244 18.4001 9.133 17.7311 9.463 16.8001H15.338C15.668 17.7311 16.557 18.4001 17.6 18.4001C18.643 18.4001 19.532 17.7311 19.862 16.8001H22.4V10.4001C22.4 7.7531 20.247 5.6001 17.6 5.6001ZM7.2 16.8001C6.759 16.8001 6.4 16.4411 6.4 16.0001C6.4 15.5591 6.759 15.2001 7.2 15.2001C7.641 15.2001 8 15.5591 8 16.0001C8 16.4411 7.641 16.8001 7.2 16.8001ZM17.6 16.8001C17.159 16.8001 16.8 16.4411 16.8 16.0001C16.8 15.5591 17.159 15.2001 17.6 15.2001C18.041 15.2001 18.4 15.5591 18.4 16.0001C18.4 16.4411 18.041 16.8001 17.6 16.8001ZM14.4 7.2001V10.4001H12V7.2001H14.4ZM10.4 7.2001V10.4001H8V7.2001H10.4ZM3.2 8.8001C3.2 7.9181 3.918 7.2001 4.8 7.2001H6.4V10.4001H3.2V8.8001ZM17.6 10.4001H16V7.2001H17.6C19.364 7.2001 20.8 8.6361 20.8 10.4001V11.4041C19.874 10.7591 18.762 10.4001 17.6 10.4001ZM3.3 15.9001C3.3 16.3971 2.897 16.8001 2.4 16.8001C1.903 16.8001 1.5 16.3971 1.5 15.9001C1.5 15.4031 1.903 15.0001 2.4 15.0001C2.897 15.0001 3.3 15.4031 3.3 15.9001Z"/>
</svg>
