<svg width="24" height="24" viewBox="0 0 24 24" xmlns="http://www.w3.org/2000/svg">
<path d="M17.2 1.6001H6.8C5.697 1.6001 4.8 2.4971 4.8 3.6001V20.4001C4.8 21.5031 5.697 22.4001 6.8 22.4001H17.2C18.303 22.4001 19.2 21.5031 19.2 20.4001V3.6001C19.2 2.4971 18.303 1.6001 17.2 1.6001ZM17.6 20.4001C17.6 20.6211 17.421 20.8001 17.2 20.8001H6.8C6.579 20.8001 6.4 20.6211 6.4 20.4001V3.6001C6.4 3.3791 6.579 3.2001 6.8 3.2001H17.2C17.421 3.2001 17.6 3.3791 17.6 3.6001V20.4001ZM12.9 18.3001C12.9 18.7971 12.497 19.2001 12 19.2001C11.503 19.2001 11.1 18.7971 11.1 18.3001C11.1 17.8031 11.503 17.4001 12 17.4001C12.497 17.4001 12.9 17.8031 12.9 18.3001ZM8 8.8001H9.6V15.2001H8V8.8001ZM12.8 15.2001H11.2V11.2001H12.8V15.2001ZM14.4 6.4001H16V15.2001H14.4V6.4001Z"/>
</svg>
