<svg width="24" height="24" viewBox="0 0 24 24" xmlns="http://www.w3.org/2000/svg">
<path d="M13.5999 6.5001C14.097 6.5001 14.4999 6.09715 14.4999 5.6001C14.4999 5.10304 14.097 4.7001 13.5999 4.7001C13.1028 4.7001 12.6999 5.10304 12.6999 5.6001C12.6999 6.09715 13.1028 6.5001 13.5999 6.5001Z"/>
<path d="M12.9999 1.6001H6.3999V15.2001H12.7999V20.0001C12.7999 21.3231 13.8769 22.4001 15.1999 22.4001C16.5229 22.4001 17.5999 21.3231 17.5999 20.0001V6.2001C17.5999 3.6641 15.5359 1.6001 12.9999 1.6001ZM15.9999 20.0001C15.9999 20.4411 15.6409 20.8001 15.1999 20.8001C14.7589 20.8001 14.3999 20.4411 14.3999 20.0001V15.2001H15.9999V20.0001ZM7.9999 13.6001V3.2001H12.9999C14.6539 3.2001 15.9999 4.5461 15.9999 6.2001V13.6001H7.9999Z"/>
</svg>
