<svg width="24" height="24" viewBox="0 0 24 24" xmlns="http://www.w3.org/2000/svg">
<path d="M5 20C5 20.552 4.552 21 4 21C3.448 21 3 20.552 3 20C3 19.448 3.448 19 4 19C4.552 19 5 19.448 5 20ZM23.2 16.8C23.2 19.888 20.688 22.4 17.6 22.4C16.078 22.4 14.697 21.789 13.686 20.8H6.5V19.2H12.541C12.194 18.472 12 17.658 12 16.8C12 13.712 14.512 11.2 17.6 11.2C18.156 11.2 18.693 11.283 19.2 11.434V4.93095L11.5 12.631L9.1 10.231L5.249 14.083C4.905 14.427 4.391 14.53 3.941 14.343C3.491 14.156 3.2 13.721 3.2 13.234V3.19995H20.8V12.208C22.249 13.221 23.2 14.901 23.2 16.8ZM17.069 4.79995H4.8V12.269L9.1 7.96895L11.5 10.369L17.069 4.79995ZM21.6 16.8C21.6 14.594 19.806 12.8 17.6 12.8C15.394 12.8 13.6 14.594 13.6 16.8C13.6 19.006 15.394 20.8 17.6 20.8C19.806 20.8 21.6 19.006 21.6 16.8ZM18.034 14.234L15.468 16.8L18.034 19.366L19.165 18.235L17.731 16.801L19.165 15.367L18.034 14.236V14.234Z"/>
</svg>
