<svg width="24" height="24" viewBox="0 0 24 24" xmlns="http://www.w3.org/2000/svg">
<path d="M8.00005 17.6001H12.8V19.2001H8.00005V17.6001ZM11.2 16.0001H12.8V14.4001H11.2V16.0001ZM11.2 12.8001H12.8V11.2001H11.2V12.8001ZM9.60005 14.4001H8.00005V16.0001H9.60005V14.4001ZM9.60005 11.2001H8.00005V12.8001H9.60005V11.2001ZM19.2 3.6001V20.4001C19.2 21.5031 18.303 22.4001 17.2 22.4001H6.80005C5.69705 22.4001 4.80005 21.5031 4.80005 20.4001V3.6001C4.80005 2.4971 5.69705 1.6001 6.80005 1.6001H17.2C18.303 1.6001 19.2 2.4971 19.2 3.6001ZM17.6 3.6001C17.6 3.3791 17.421 3.2001 17.2 3.2001H6.80005C6.57905 3.2001 6.40005 3.3791 6.40005 3.6001V20.4001C6.40005 20.6211 6.57905 20.8001 6.80005 20.8001H17.2C17.421 20.8001 17.6 20.6211 17.6 20.4001V3.6001ZM8.00005 4.8001H16V9.6001H8.00005V4.8001ZM9.60005 8.0001H14.4V6.4001H9.60005V8.0001ZM14.4 12.8001H16V11.2001H14.4V12.8001ZM14.4 19.2001H16V17.6001H14.4V19.2001ZM14.4 16.0001H16V14.4001H14.4V16.0001Z"/>
</svg>
