<svg width="24" height="24" viewBox="0 0 24 24" xmlns="http://www.w3.org/2000/svg">
<path d="M17.6 3.9999V2.3999H16V3.9999H7.99995V2.3999H6.39995V3.9999H3.19995V21.5999H20.8V3.9999H17.6ZM19.2 19.9999H4.79995V8.7999H19.2V19.9999ZM19.2 7.1999H4.79995V5.5999H19.2V7.1999ZM7.99995 11.9999H6.39995V10.3999H7.99995V11.9999ZM7.99995 15.1999H6.39995V13.5999H7.99995V15.1999ZM7.99995 18.3999H6.39995V16.7999H7.99995V18.3999ZM11.2 11.9999H9.59995V10.3999H11.2V11.9999ZM14.4 11.9999H12.8V10.3999H14.4V11.9999ZM17.6 11.9999H16V10.3999H17.6V11.9999ZM11.2 15.1999H9.59995V13.5999H11.2V15.1999ZM11.2 18.3999H9.59995V16.7999H11.2V18.3999ZM14.4 18.3999H12.8V16.7999H14.4V18.3999ZM17.6 18.3999H16V16.7999H17.6V18.3999ZM12.821 13.5999H14.4V15.1999H12.821V13.5999ZM16.021 13.5999H17.6V15.1999H16.021V13.5999Z"/>
</svg>
