<svg width="24" height="24" viewBox="0 0 24 24" xmlns="http://www.w3.org/2000/svg">
<path d="M20.4001 19.2H3.6001C2.4971 19.2 1.6001 18.303 1.6001 17.2V8.39995C1.6001 7.29695 2.4971 6.39995 3.6001 6.39995H6.3061L7.3531 4.30595C7.6941 3.62395 8.3791 3.19995 9.1421 3.19995H14.8591C15.6211 3.19995 16.3071 3.62395 16.6481 4.30595L17.6951 6.39995H20.4011C21.5041 6.39995 22.4011 7.29695 22.4011 8.39995V17.2C22.4011 18.303 21.5031 19.2 20.4001 19.2ZM3.6001 7.99995C3.3791 7.99995 3.2001 8.17895 3.2001 8.39995V17.2C3.2001 17.421 3.3791 17.6 3.6001 17.6H20.4001C20.6211 17.6 20.8001 17.421 20.8001 17.2V8.39995C20.8001 8.17895 20.6211 7.99995 20.4001 7.99995H16.7061L15.2171 5.02095C15.1491 4.88495 15.0121 4.79995 14.8591 4.79995H9.1421C8.9901 4.79995 8.8521 4.88495 8.7841 5.02095L7.2951 7.99995H3.6001ZM12.0001 16C9.6841 16 7.8001 14.116 7.8001 11.8C7.8001 9.48395 9.6841 7.59995 12.0001 7.59995C14.3161 7.59995 16.2001 9.48395 16.2001 11.8C16.2001 14.116 14.3161 16 12.0001 16ZM12.0001 9.19995C10.5661 9.19995 9.4001 10.366 9.4001 11.8C9.4001 13.234 10.5661 14.4 12.0001 14.4C13.4341 14.4 14.6001 13.234 14.6001 11.8C14.6001 10.366 13.4341 9.19995 12.0001 9.19995ZM5.7001 9.59995C5.2031 9.59995 4.8001 10.003 4.8001 10.5C4.8001 10.997 5.2031 11.4 5.7001 11.4C6.1971 11.4 6.6001 10.997 6.6001 10.5C6.6001 10.003 6.1971 9.59995 5.7001 9.59995Z"/>
</svg>
