<svg width="24" height="24" viewBox="0 0 24 24" xmlns="http://www.w3.org/2000/svg">
<path d="M20.3998 20.8H10.7998V19.2H18.7998V9.984L11.5998 4.224L4.3998 9.984V19.2H5.7998V20.8H2.7998V9.792C2.7998 9.425 2.9638 9.084 3.2498 8.855L10.8498 2.775C11.2908 2.422 11.9078 2.422 12.3488 2.775L19.9488 8.855C20.2348 9.084 20.3988 9.425 20.3988 9.792L20.3998 20.8ZM8.2998 19.1C7.8028 19.1 7.3998 19.503 7.3998 20C7.3998 20.497 7.8028 20.9 8.2998 20.9C8.7968 20.9 9.1998 20.497 9.1998 20C9.1998 19.503 8.7968 19.1 8.2998 19.1ZM13.0488 16.64C13.3868 16.533 13.6808 16.382 13.9308 16.187C14.1808 15.992 14.3928 15.757 14.5678 15.483C14.7428 15.208 14.8868 14.907 14.9998 14.578L13.5658 14.069C13.5028 14.266 13.4208 14.448 13.3208 14.616C13.2208 14.784 13.1018 14.928 12.9638 15.048C12.8258 15.168 12.6668 15.262 12.4868 15.33C12.3068 15.398 12.1068 15.432 11.8868 15.432C11.5868 15.432 11.3228 15.37 11.0948 15.246C10.8668 15.122 10.6768 14.947 10.5248 14.72C10.3728 14.493 10.2588 14.215 10.1828 13.886C10.1058 13.557 10.0678 13.191 10.0678 12.787C10.0678 12.383 10.1028 12.032 10.1728 11.711C10.2428 11.391 10.3488 11.119 10.4898 10.897C10.6318 10.675 10.8108 10.504 11.0268 10.383C11.2428 10.263 11.4968 10.202 11.7858 10.202C11.9958 10.202 12.1858 10.234 12.3578 10.299C12.5298 10.363 12.6808 10.449 12.8128 10.556C12.9448 10.663 13.0588 10.787 13.1578 10.927C13.2558 11.068 13.3368 11.213 13.3998 11.362L14.8038 10.64C14.5238 10.04 14.1418 9.583 13.6568 9.269C13.1718 8.955 12.5488 8.799 11.7858 8.799C11.3228 8.799 10.8848 8.882 10.4718 9.048C10.0588 9.214 9.6988 9.462 9.3928 9.791C9.0868 10.12 8.84381 10.535 8.66581 11.037C8.48781 11.539 8.3988 12.122 8.3988 12.787C8.3988 13.452 8.48781 14.057 8.66581 14.562C8.84381 15.067 9.08781 15.484 9.39781 15.813C9.70781 16.142 10.0768 16.389 10.5048 16.553C10.9328 16.717 11.3928 16.8 11.8858 16.8C12.3218 16.8 12.7098 16.747 13.0478 16.64H13.0488Z"/>
</svg>
