<svg width="24" height="24" viewBox="0 0 24 24" xmlns="http://www.w3.org/2000/svg">
<path d="M18.2661 6.75608L16.6661 4.35608C16.6491 4.33108 16.6311 4.30708 16.6111 4.28408C16.6051 4.27708 16.599 4.27108 16.593 4.26508C16.579 4.24908 16.5641 4.23408 16.5481 4.21908C16.5411 4.21208 16.533 4.20508 16.526 4.19908C16.509 4.18508 16.4921 4.17108 16.4751 4.15808C16.4691 4.15308 16.4631 4.14808 16.4561 4.14408C16.4311 4.12708 16.406 4.11108 16.379 4.09608C16.379 4.09608 16.377 4.09608 16.376 4.09508C16.351 4.08108 16.3241 4.07008 16.2971 4.05908C16.2901 4.05608 16.283 4.05408 16.276 4.05108C16.254 4.04308 16.2331 4.03608 16.2101 4.03008C16.2021 4.02808 16.1931 4.02508 16.1851 4.02308C16.1631 4.01808 16.141 4.01408 16.118 4.01008C16.11 4.00908 16.102 4.00708 16.093 4.00608C16.063 4.00208 16.032 4.00008 16.001 4.00008H14.5321L11.9661 1.43408L10.8351 2.56508L12.2691 3.99908H8.00005C7.96905 3.99908 7.93805 4.00108 7.90805 4.00508C7.90005 4.00508 7.89205 4.00808 7.88305 4.00908C7.86005 4.01208 7.83805 4.01608 7.81605 4.02208C7.80705 4.02408 7.79905 4.02608 7.79105 4.02908C7.76905 4.03508 7.74705 4.04208 7.72505 4.05008C7.71805 4.05308 7.71105 4.05508 7.70405 4.05808C7.67705 4.06908 7.65105 4.08108 7.62505 4.09408C7.62505 4.09408 7.62305 4.09408 7.62205 4.09508C7.59505 4.10908 7.57005 4.12508 7.54505 4.14308C7.53905 4.14708 7.53305 4.15208 7.52605 4.15708C7.50805 4.17008 7.49105 4.18408 7.47505 4.19808C7.46705 4.20508 7.46005 4.21108 7.45305 4.21808C7.43705 4.23308 7.42205 4.24808 7.40805 4.26408C7.40205 4.27008 7.39605 4.27708 7.39105 4.28308C7.37105 4.30608 7.35305 4.33008 7.33605 4.35508L5.73605 6.75508C5.64805 6.88608 5.60205 7.04108 5.60205 7.19908V19.1991C5.60205 19.3571 5.64905 19.5111 5.73605 19.6431L7.33605 22.0431C7.35305 22.0681 7.37105 22.0921 7.39105 22.1151C7.39705 22.1221 7.40305 22.1281 7.40805 22.1341C7.42205 22.1501 7.43705 22.1651 7.45305 22.1801C7.46005 22.1871 7.46805 22.1941 7.47505 22.2001C7.49205 22.2141 7.50905 22.2281 7.52605 22.2411C7.53205 22.2461 7.53805 22.2511 7.54505 22.2551C7.57005 22.2721 7.59505 22.2881 7.62205 22.3031C7.62205 22.3031 7.62405 22.3031 7.62505 22.3041C7.65005 22.3181 7.67705 22.3291 7.70405 22.3401C7.71105 22.3431 7.71805 22.3451 7.72505 22.3481C7.74705 22.3561 7.76805 22.3631 7.79105 22.3691C7.79905 22.3711 7.80805 22.3741 7.81605 22.3761C7.83805 22.3811 7.86005 22.3851 7.88305 22.3891C7.89105 22.3901 7.89905 22.3921 7.90805 22.3931C7.93805 22.3971 7.96905 22.3991 8.00005 22.3991H16.0001C16.0311 22.3991 16.0621 22.3971 16.0921 22.3931C16.1001 22.3931 16.1081 22.3901 16.1171 22.3891C16.1401 22.3861 16.1621 22.3821 16.1841 22.3761C16.1931 22.3741 16.2011 22.3721 16.2091 22.3691C16.2311 22.3631 16.2531 22.3561 16.2751 22.3481C16.2821 22.3451 16.2891 22.3431 16.2961 22.3401C16.3231 22.3291 16.3491 22.3171 16.3751 22.3041C16.3751 22.3041 16.3771 22.3041 16.3781 22.3031C16.4051 22.2891 16.4301 22.2731 16.4551 22.2551C16.4611 22.2511 16.4671 22.2461 16.4741 22.2411C16.4921 22.2281 16.5091 22.2141 16.5251 22.2001C16.5331 22.1931 16.5401 22.1871 16.5471 22.1801C16.5631 22.1651 16.5771 22.1501 16.5921 22.1341C16.5981 22.1281 16.6041 22.1211 16.6101 22.1151C16.6301 22.0921 16.648 22.0681 16.665 22.0431L18.265 19.6431C18.353 19.5121 18.3991 19.3571 18.3991 19.1991V7.19908C18.3991 7.04108 18.352 6.88708 18.265 6.75508L18.2661 6.75608ZM8.42805 5.60008H15.5721L16.6391 7.20008H7.36205L8.42905 5.60008H8.42805ZM16.8001 17.6001L16.6391 19.2001L15.5721 20.8001H8.42805L7.36105 19.2001H11.6961V17.6001H7.20005V8.80008H16.8001V17.6001ZM14.1961 17.5001C14.6931 17.5001 15.0961 17.9031 15.0961 18.4001C15.0961 18.8971 14.6931 19.3001 14.1961 19.3001C13.6991 19.3001 13.2961 18.8971 13.2961 18.4001C13.2961 17.9031 13.6991 17.5001 14.1961 17.5001Z"/>
</svg>
