<svg width="24" height="24" viewBox="0 0 24 24" xmlns="http://www.w3.org/2000/svg">
<path d="M21.2 12.6001H18.731L14.482 8.3511C14.255 8.1241 13.954 8.0001 13.633 8.0001H6.564C6.243 8.0001 5.942 8.1251 5.715 8.3511L1.949 12.1171C1.722 12.3441 1.598 12.6451 1.598 12.9661V15.4001H3.198V13.1311L6.729 9.6001H13.466L17.715 13.8491C17.942 14.0761 18.243 14.2001 18.564 14.2001H20.798V17.2001H18.981C18.636 16.0451 17.564 15.2001 16.298 15.2001C15.032 15.2001 13.96 16.0451 13.615 17.2001H10.381C10.036 16.0451 8.964 15.2001 7.698 15.2001C6.154 15.2001 4.898 16.4561 4.898 18.0001C4.898 19.5441 6.154 20.8001 7.698 20.8001C8.964 20.8001 10.036 19.9551 10.381 18.8001H13.615C13.96 19.9551 15.032 20.8001 16.298 20.8001C17.564 20.8001 18.636 19.9551 18.981 18.8001H21.198C21.86 18.8001 22.398 18.2621 22.398 17.6001V13.8001C22.398 13.1381 21.86 12.6001 21.198 12.6001H21.2ZM7.7 19.2001C7.038 19.2001 6.5 18.6621 6.5 18.0001C6.5 17.3381 7.038 16.8001 7.7 16.8001C8.362 16.8001 8.9 17.3381 8.9 18.0001C8.9 18.6621 8.362 19.2001 7.7 19.2001ZM16.3 19.2001C15.638 19.2001 15.1 18.6621 15.1 18.0001C15.1 17.3381 15.638 16.8001 16.3 16.8001C16.962 16.8001 17.5 17.3381 17.5 18.0001C17.5 18.6621 16.962 19.2001 16.3 19.2001ZM3.3 17.9001C3.3 18.3971 2.897 18.8001 2.4 18.8001C1.903 18.8001 1.5 18.3971 1.5 17.9001C1.5 17.4031 1.903 17.0001 2.4 17.0001C2.897 17.0001 3.3 17.4031 3.3 17.9001ZM12.6 6.4001H11V2.9001C11 2.1951 11.55 1.6001 12.2 1.6001C12.442 1.6001 12.807 1.6751 13.166 2.0341L15.1 3.9681L17.134 1.9341C17.41 1.6581 17.702 1.6001 17.899 1.6001C18.181 1.6001 18.45 1.7061 18.656 1.8991C18.878 2.1081 19 2.3921 19 2.7001V5.8001H21.2C21.895 5.8001 22.4 6.3051 22.4 7.0001C22.4 7.4191 22.127 7.8041 21.966 7.9661L19.166 10.7661L18.035 9.6351L20.269 7.4011H17.4V3.9321L15.1 6.2321L12.6 3.7321V6.4011V6.4001Z"/>
</svg>
