<svg width="24" height="24" viewBox="0 0 24 24" xmlns="http://www.w3.org/2000/svg">
<path d="M22.3489 14.826L20.8449 5.80305C20.7479 5.22205 20.2499 4.80005 19.6609 4.80005H15.3659C15.0459 4.80005 14.7439 4.92505 14.5169 5.15105L14.0689 5.60005H9.93189L9.48289 5.15105C9.25589 4.92405 8.95489 4.80005 8.63489 4.80005H4.33989C3.75089 4.80005 3.25289 5.22205 3.15589 5.80305L1.65189 14.826C1.57689 15.278 1.75889 15.725 2.12789 15.993C5.01189 18.091 8.42589 19.2 12.0009 19.2C15.5759 19.2 18.9899 18.091 21.8739 15.993C22.2429 15.725 22.4239 15.278 22.3489 14.826ZM4.67789 6.40005H8.46889L8.91789 6.84905C9.14489 7.07605 9.44589 7.20005 9.76589 7.20005H14.2349C14.5549 7.20005 14.8569 7.07505 15.0839 6.84905L15.5319 6.40005H19.3229L20.5229 13.6H19.3229C18.9479 11.666 17.2429 10.2 15.1999 10.2C13.1569 10.2 11.4519 11.666 11.0769 13.6H3.47789L4.67789 6.40005ZM17.6739 13.6H12.7269C13.0649 12.557 14.0459 11.8 15.2009 11.8C16.3559 11.8 17.3349 12.557 17.6739 13.6ZM3.80189 15.2H20.1989C17.7529 16.773 14.9369 17.6 12.0009 17.6C9.06489 17.6 6.24689 16.772 3.80189 15.2Z"/>
</svg>
