<svg width="24" height="24" viewBox="0 0 24 24" xmlns="http://www.w3.org/2000/svg">
<path d="M21.2 14.2001H20.8V8.7991C21.797 8.0491 22.4 6.8621 22.4 5.6001C22.4 3.3941 20.606 1.6001 18.4 1.6001C16.194 1.6001 14.4 3.3941 14.4 5.6001C14.4 6.8621 15.003 8.0491 16 8.7991V11.7051L14.056 9.9171C13.834 9.7131 13.545 9.6001 13.243 9.6001H6.576C6.239 9.6001 5.915 9.7431 5.688 9.9931L1.911 14.1481C1.71 14.3691 1.599 14.6561 1.599 14.9551V16.8001H3.199V15.1091L6.753 11.2001H13.087L17.744 15.4851C17.966 15.6881 18.254 15.8001 18.555 15.8001H20.799V18.8001H18.982C18.637 17.6451 17.565 16.8001 16.299 16.8001C15.033 16.8001 13.961 17.6451 13.616 18.8001H10.382C10.037 17.6451 8.965 16.8001 7.699 16.8001C6.155 16.8001 4.899 18.0561 4.899 19.6001C4.899 21.1441 6.155 22.4001 7.699 22.4001C8.965 22.4001 10.037 21.5551 10.382 20.4001H13.616C13.961 21.5551 15.033 22.4001 16.299 22.4001C17.565 22.4001 18.637 21.5551 18.982 20.4001H21.199C21.861 20.4001 22.399 19.8621 22.399 19.2001V15.4001C22.399 14.7381 21.862 14.2001 21.2 14.2001ZM7.7 20.8001C7.038 20.8001 6.5 20.2621 6.5 19.6001C6.5 18.9381 7.038 18.4001 7.7 18.4001C8.362 18.4001 8.9 18.9381 8.9 19.6001C8.9 20.2621 8.362 20.8001 7.7 20.8001ZM16.3 20.8001C15.638 20.8001 15.1 20.2621 15.1 19.6001C15.1 18.9381 15.638 18.4001 16.3 18.4001C16.962 18.4001 17.5 18.9381 17.5 19.6001C17.5 20.2621 16.962 20.8001 16.3 20.8001ZM17.6 13.1771V7.9091L17.201 7.6781C16.46 7.2491 16 6.4531 16 5.6001C16 4.5571 16.669 3.6681 17.6 3.3381V5.6001H19.2V3.3381C20.131 3.6681 20.8 4.5571 20.8 5.6001C20.8 6.4531 20.34 7.2501 19.599 7.6781L19.2 7.9091V14.2001H18.712L17.6 13.1771ZM3.3 19.5001C3.3 19.9971 2.897 20.4001 2.4 20.4001C1.903 20.4001 1.5 19.9971 1.5 19.5001C1.5 19.0031 1.903 18.6001 2.4 18.6001C2.897 18.6001 3.3 19.0031 3.3 19.5001Z"/>
</svg>
