<svg width="24" height="24" viewBox="0 0 24 24" xmlns="http://www.w3.org/2000/svg">
<path d="M2.4 18.5001C2.89706 18.5001 3.3 18.0972 3.3 17.6001C3.3 17.103 2.89706 16.7001 2.4 16.7001C1.90294 16.7001 1.5 17.103 1.5 17.6001C1.5 18.0972 1.90294 18.5001 2.4 18.5001Z"/>
<path d="M7 6.4001H5.8V7.8001H4.4V9.0001H5.8V10.4001H7V9.0001H8.4V7.8001H7V6.4001Z"/>
<path d="M21.2 12.0001H18.711L14.255 7.9161C14.033 7.7121 13.745 7.6001 13.444 7.6001H11.132C10.75 5.3331 8.774 3.6001 6.4 3.6001C3.753 3.6001 1.6 5.7531 1.6 8.4001C1.6 9.5171 1.985 10.5451 2.627 11.3611L1.912 12.1471C1.711 12.3681 1.6 12.6551 1.6 12.9541V15.1991H3.2V13.1081L3.81 12.4371C4.558 12.9181 5.446 13.1991 6.4 13.1991C8.774 13.1991 10.75 11.4661 11.132 9.1991H13.289L17.745 13.2831C17.967 13.4871 18.255 13.5991 18.556 13.5991H20.8V16.7991H19.083C18.738 15.6441 17.666 14.7991 16.4 14.7991C15.134 14.7991 14.062 15.6441 13.717 16.7991H10.283C9.938 15.6441 8.866 14.7991 7.6 14.7991C6.056 14.7991 4.8 16.0551 4.8 17.5991C4.8 19.1431 6.056 20.3991 7.6 20.3991C8.866 20.3991 9.938 19.5541 10.283 18.3991H13.717C14.062 19.5541 15.134 20.3991 16.4 20.3991C17.666 20.3991 18.738 19.5541 19.083 18.3991H21.2C21.862 18.3991 22.4 17.8611 22.4 17.1991V13.1991C22.4 12.5371 21.862 11.9991 21.2 11.9991V12.0001ZM6.4 11.6001C4.636 11.6001 3.2 10.1651 3.2 8.4001C3.2 6.6351 4.636 5.2001 6.4 5.2001C8.164 5.2001 9.6 6.6351 9.6 8.4001C9.6 10.1651 8.164 11.6001 6.4 11.6001ZM7.6 18.8001C6.938 18.8001 6.4 18.2621 6.4 17.6001C6.4 16.9381 6.938 16.4001 7.6 16.4001C8.262 16.4001 8.8 16.9381 8.8 17.6001C8.8 18.2621 8.262 18.8001 7.6 18.8001ZM16.4 18.8001C15.738 18.8001 15.2 18.2621 15.2 17.6001C15.2 16.9381 15.738 16.4001 16.4 16.4001C17.062 16.4001 17.6 16.9381 17.6 17.6001C17.6 18.2621 17.062 18.8001 16.4 18.8001Z"/>
</svg>
