<svg width="24" height="24" viewBox="0 0 24 24" xmlns="http://www.w3.org/2000/svg">
<path d="M22.4004 14.4C22.4004 17.047 20.2474 19.2 17.6004 19.2H8.10045V17.6H17.6004C19.3674 17.6 20.8004 16.167 20.8004 14.4C20.8004 14.348 20.7994 14.296 20.7964 14.245C20.7964 14.228 20.7944 14.211 20.7934 14.194C20.7914 14.16 20.7884 14.125 20.7854 14.091C20.7834 14.071 20.7814 14.051 20.7784 14.031C20.7744 14 20.7714 13.969 20.7664 13.938C20.7634 13.918 20.7604 13.898 20.7574 13.878C20.7524 13.847 20.7474 13.817 20.7414 13.786C20.7374 13.767 20.7334 13.748 20.7294 13.729C20.7224 13.697 20.7154 13.665 20.7074 13.633C20.7034 13.617 20.6994 13.6 20.6954 13.584C20.6854 13.546 20.6744 13.509 20.6634 13.472C20.6604 13.462 20.6574 13.452 20.6544 13.442C20.3614 12.505 19.6484 11.744 18.7144 11.4C18.6754 11.386 18.6364 11.373 18.5974 11.36C18.5924 11.358 18.5864 11.356 18.5814 11.355C18.5374 11.341 18.4934 11.328 18.4484 11.316H18.4464C18.3284 11.284 18.2084 11.257 18.0854 11.239L17.3464 11.107L17.5254 10.294C17.5254 10.294 17.5264 10.288 17.5274 10.285C17.5354 10.249 17.5414 10.213 17.5484 10.177C17.5534 10.149 17.5584 10.12 17.5634 10.092C17.5684 10.058 17.5734 10.024 17.5774 9.98996C17.5814 9.95396 17.5854 9.91795 17.5884 9.88196C17.5904 9.85496 17.5934 9.82695 17.5954 9.79995C17.5994 9.73395 17.6024 9.66895 17.6024 9.60295C17.6024 7.83595 16.1694 6.40295 14.4024 6.40295C14.3504 6.40295 14.2994 6.40395 14.2484 6.40696C14.2344 6.40696 14.2194 6.40895 14.2054 6.40995C14.1674 6.41195 14.1304 6.41496 14.0934 6.41896C14.0794 6.41996 14.0644 6.42195 14.0504 6.42395C14.0114 6.42795 13.9724 6.43295 13.9334 6.43895C13.9234 6.44095 13.9134 6.44196 13.9024 6.44396C12.8064 6.61496 11.8824 7.33796 11.4554 8.35796C11.4524 8.36396 11.4504 8.36996 11.4484 8.37596C11.4334 8.41096 11.4194 8.44696 11.4064 8.48296C11.3934 8.51696 11.3824 8.55096 11.3704 8.58495C11.3674 8.59295 11.3644 8.60095 11.3624 8.60895C11.3494 8.64995 11.3364 8.69196 11.3244 8.73296V8.73595C11.3104 8.78695 11.2964 8.83895 11.2844 8.89195L11.1114 9.63095L10.3464 9.46995C10.3394 9.46796 10.3314 9.46696 10.3244 9.46596C10.3014 9.46096 10.2784 9.45795 10.2554 9.45295C10.2184 9.44595 10.1824 9.43996 10.1454 9.43496C10.1204 9.43095 10.0954 9.42795 10.0694 9.42495C10.0314 9.42095 9.99244 9.41695 9.95444 9.41396C9.93244 9.41196 9.91045 9.40995 9.88844 9.40895C9.82745 9.40495 9.76645 9.40296 9.70444 9.40296C9.65444 9.40296 9.60444 9.40396 9.55545 9.40696C9.54145 9.40696 9.52744 9.40896 9.51344 9.40996C9.47745 9.41195 9.44145 9.41496 9.40545 9.41795C9.39145 9.41895 9.37645 9.42096 9.36245 9.42296C9.32545 9.42696 9.28845 9.43196 9.25145 9.43696C9.24045 9.43896 9.23045 9.43996 9.21945 9.44196C9.17345 9.44896 9.12745 9.45695 9.08245 9.46695H9.08045C8.08145 9.66995 7.24645 10.351 6.85045 11.295C6.84645 11.305 6.84245 11.315 6.83845 11.324C6.82645 11.355 6.81345 11.385 6.80244 11.416C6.79044 11.447 6.77945 11.479 6.76945 11.511C6.76645 11.52 6.76344 11.529 6.76045 11.538C6.74745 11.577 6.73645 11.615 6.72545 11.655C6.72545 11.655 6.72445 11.659 6.72345 11.662C6.71045 11.708 6.69845 11.755 6.68745 11.802L6.54045 12.425L5.85644 12.405C5.83944 12.405 5.82345 12.404 5.80645 12.404C4.37045 12.404 3.20645 13.568 3.20645 15.004C3.20645 15.722 3.49745 16.372 3.96845 16.842L2.83845 17.972C2.07845 17.212 1.60645 16.162 1.60645 15.004C1.60645 12.855 3.22845 11.078 5.31244 10.833C5.99544 9.02296 7.72444 7.80396 9.70644 7.80396C9.78844 7.80396 9.87045 7.80595 9.95245 7.80995C10.6714 6.00895 12.4124 4.80396 14.4064 4.80396C17.0534 4.80396 19.2064 6.95696 19.2064 9.60396C19.2064 9.69396 19.2034 9.78496 19.1984 9.87496C21.0954 10.538 22.4064 12.336 22.4064 14.404L22.4004 14.4ZM5.60045 17.5C5.10345 17.5 4.70045 17.903 4.70045 18.4C4.70045 18.897 5.10345 19.3 5.60045 19.3C6.09745 19.3 6.50045 18.897 6.50045 18.4C6.50045 17.903 6.09745 17.5 5.60045 17.5ZM10.9154 14.455C10.8284 14.721 10.6324 15.037 10.1994 15.037C9.51944 15.037 9.41744 14.298 9.41744 13.858C9.41744 13.334 9.54445 12.71 10.1464 12.71C10.5624 12.71 10.7564 13.017 10.8354 13.2L10.8984 13.346L11.8884 12.847L11.8254 12.715C11.5024 12.034 10.9534 11.703 10.1464 11.703C9.00245 11.703 8.26445 12.549 8.26445 13.858C8.26445 15.167 9.00545 16.023 10.1994 16.023C11.0694 16.023 11.6524 15.614 11.9324 14.807L11.9814 14.666L10.9634 14.31L10.9154 14.455ZM16.0824 13.864C16.0824 15.356 15.0924 16.024 14.1114 16.024C13.1304 16.024 12.1344 15.356 12.1344 13.864C12.1344 12.372 13.1274 11.704 14.1114 11.704C15.0954 11.704 16.0824 12.372 16.0824 13.864ZM14.9344 13.864C14.9344 13.142 14.6264 12.711 14.1114 12.711C13.5964 12.711 13.2884 13.142 13.2884 13.864C13.2884 14.586 13.6044 15.038 14.1114 15.038C14.6184 15.038 14.9344 14.588 14.9344 13.864ZM17.4334 15.174C17.4864 15.129 17.5504 15.08 17.6254 15.03C17.7024 14.978 17.7884 14.923 17.8814 14.866C18.0134 14.786 18.1214 14.707 18.2024 14.632C18.2864 14.555 18.3524 14.477 18.3984 14.401C18.4454 14.323 18.4774 14.244 18.4924 14.165C18.5074 14.091 18.5144 14.015 18.5144 13.938C18.5144 13.813 18.4914 13.697 18.4454 13.593C18.3994 13.488 18.3324 13.398 18.2454 13.324C18.1604 13.251 18.0544 13.195 17.9304 13.156C17.8104 13.118 17.6724 13.099 17.5214 13.099C17.2744 13.099 17.0594 13.152 16.8834 13.257C16.7104 13.36 16.5624 13.501 16.4444 13.674L16.3924 13.751L16.9354 14.185L16.9954 14.093C17.0644 13.987 17.1464 13.904 17.2394 13.848C17.4174 13.74 17.6084 13.746 17.6914 13.824C17.7314 13.862 17.7504 13.91 17.7504 13.977C17.7504 14.026 17.7424 14.069 17.7274 14.104C17.7114 14.14 17.6854 14.175 17.6494 14.209C17.6084 14.248 17.5544 14.289 17.4874 14.333C17.4154 14.38 17.3284 14.434 17.2274 14.496C17.0494 14.606 16.9044 14.715 16.7954 14.819C16.6844 14.925 16.5984 15.03 16.5384 15.131C16.4774 15.235 16.4374 15.339 16.4184 15.442C16.4004 15.539 16.3914 15.638 16.3914 15.735V15.89L18.4064 15.901L18.2824 15.265L17.3474 15.256C17.3714 15.23 17.3994 15.203 17.4324 15.175L17.4334 15.174Z"/>
</svg>
