<svg width="24" height="24" viewBox="0 0 24 24" xmlns="http://www.w3.org/2000/svg">
<path d="M22.4 11.519V6.80005C22.4 5.69705 21.503 4.80005 20.4 4.80005H3.59998C2.49698 4.80005 1.59998 5.69705 1.59998 6.80005V17.2C1.59998 18.303 2.49698 19.2 3.59998 19.2H7.89998V17.6H3.59998C3.37898 17.6 3.19998 17.421 3.19998 17.2V10.4H13.686C12.647 11.417 12 12.834 12 14.4C12 17.488 14.512 20 17.6 20C20.688 20 23.2 17.488 23.2 14.4C23.2 13.347 22.907 12.361 22.4 11.519ZM3.19998 8.80005V6.80005C3.19998 6.57905 3.37898 6.40005 3.59998 6.40005H20.4C20.621 6.40005 20.8 6.57905 20.8 6.80005V9.80805C19.892 9.17305 18.789 8.80005 17.6 8.80005H3.19998ZM17.6 18.4C15.394 18.4 13.6 16.606 13.6 14.4C13.6 12.194 15.394 10.4 17.6 10.4C19.806 10.4 21.6 12.194 21.6 14.4C21.6 16.606 19.806 18.4 17.6 18.4ZM11.3 18.4C11.3 18.897 10.897 19.3 10.4 19.3C9.90298 19.3 9.49998 18.897 9.49998 18.4C9.49998 17.903 9.90298 17.5 10.4 17.5C10.897 17.5 11.3 17.903 11.3 18.4ZM19.034 12.534L20.165 13.665L17.199 16.631L15.033 14.465L16.164 13.334L17.198 14.368L19.032 12.534H19.034Z"/>
</svg>
