<svg width="24" height="24" viewBox="0 0 24 24" xmlns="http://www.w3.org/2000/svg">
<path d="M12.9 14.4C12.9 14.897 12.497 15.3 12 15.3C11.503 15.3 11.1 14.897 11.1 14.4C11.1 13.903 11.503 13.5 12 13.5C12.497 13.5 12.9 13.903 12.9 14.4ZM19.2 13.6H14.5V15.2H19.2V13.6ZM22.4 6.80005V17.2C22.4 18.303 21.503 19.2 20.4 19.2H3.59998C2.49698 19.2 1.59998 18.303 1.59998 17.2V6.80005C1.59998 5.69705 2.49698 4.80005 3.59998 4.80005H20.4C21.503 4.80005 22.4 5.69705 22.4 6.80005ZM3.19998 6.80005V8.80005H20.8V6.80005C20.8 6.57905 20.621 6.40005 20.4 6.40005H3.59998C3.37898 6.40005 3.19998 6.57905 3.19998 6.80005ZM20.8 17.2V10.4H3.19998V17.2C3.19998 17.421 3.37898 17.6 3.59998 17.6H20.4C20.621 17.6 20.8 17.421 20.8 17.2Z"/>
</svg>
