<svg width="24" height="24" viewBox="0 0 24 24" xmlns="http://www.w3.org/2000/svg">
<path d="M9.10005 7.19995C9.10005 6.70295 9.50305 6.29995 10.0001 6.29995C10.4971 6.29995 10.9001 6.70295 10.9001 7.19995C10.9001 7.69695 10.4971 8.09995 10.0001 8.09995C9.50305 8.09995 9.10005 7.69695 9.10005 7.19995ZM18.1831 14.4H8.62905L8.95405 16H20.0001V17.6H18.262C18.351 17.85 18.4001 18.12 18.4001 18.4C18.4001 19.7229 17.3231 20.8 16.0001 20.8C14.6771 20.8 13.6001 19.7229 13.6001 18.4C13.6001 18.12 13.6491 17.85 13.7381 17.6H11.063C11.152 17.85 11.201 18.12 11.201 18.4C11.201 19.7229 10.1241 20.8 8.80105 20.8C7.47805 20.8 6.40105 19.7229 6.40105 18.4C6.40105 17.594 6.80105 16.88 7.41205 16.444L5.04705 4.79995H3.20105V3.19995H5.37405C5.94205 3.19995 6.43705 3.60395 6.55005 4.16095L8.30505 12.8H17.8671L18.9921 7.99995H12.501V6.39995H19.4961C19.8651 6.39995 20.2071 6.56595 20.4361 6.85495C20.6651 7.14395 20.7481 7.51495 20.6641 7.87395L19.3521 13.474C19.2241 14.019 18.7431 14.4 18.1831 14.4ZM8.80005 17.6C8.35905 17.6 8.00005 17.959 8.00005 18.4C8.00005 18.841 8.35905 19.2 8.80005 19.2C9.24105 19.2 9.60005 18.841 9.60005 18.4C9.60005 17.959 9.24105 17.6 8.80005 17.6ZM16.0001 17.6C15.5591 17.6 15.2001 17.959 15.2001 18.4C15.2001 18.841 15.5591 19.2 16.0001 19.2C16.4411 19.2 16.8001 18.841 16.8001 18.4C16.8001 17.959 16.4411 17.6 16.0001 17.6Z"/>
</svg>
