<svg width="24" height="24" viewBox="0 0 24 24" xmlns="http://www.w3.org/2000/svg">
<path d="M1.6 5.6001V18.4001H22.4V5.6001H1.6ZM3.2 7.2001H5.6C5.6 8.5231 4.523 9.6001 3.2 9.6001V7.2001ZM20.8 12.8001C18.594 12.8001 16.8 14.5941 16.8 16.8001H18.4C18.4 15.4771 19.477 14.4001 20.8 14.4001V16.8001H3.2V14.4001C4.523 14.4001 5.6 15.4771 5.6 16.8001H7.2C7.2 14.5941 5.406 12.8001 3.2 12.8001V11.2001C5.406 11.2001 7.2 9.4061 7.2 7.2001H16.8C16.8 9.4061 18.594 11.2001 20.8 11.2001V12.8001ZM20.8 9.6001C19.477 9.6001 18.4 8.5231 18.4 7.2001H20.8V9.6001Z"/>
<path d="M12 12.9001C12.4971 12.9001 12.9 12.4972 12.9 12.0001C12.9 11.503 12.4971 11.1001 12 11.1001C11.5029 11.1001 11.1 11.503 11.1 12.0001C11.1 12.4972 11.5029 12.9001 12 12.9001Z"/>
</svg>
