<svg width="24" height="24" viewBox="0 0 24 24" xmlns="http://www.w3.org/2000/svg">
<path d="M1.59998 3.19995V19.634C1.59998 20.121 1.89098 20.556 2.34098 20.743C2.48998 20.805 2.64698 20.835 2.80098 20.835C3.11298 20.835 3.41798 20.713 3.64798 20.483L6.73098 17.4H22.4V3.19995H1.59998ZM20.8 15.8H6.56598C6.24598 15.8 5.94397 15.925 5.71698 16.151L3.19998 18.668V4.79995H20.8V15.8ZM14.754 11.937C14.367 13.047 13.543 13.799 12.2 13.799C10.507 13.799 9.63898 12.602 9.43097 11H8.39998V9.39995H9.43197C9.64197 7.79795 10.516 6.60095 12.2 6.60095C13.536 6.60095 14.362 7.35395 14.752 8.46395L13.458 8.96395C13.261 8.25095 12.862 7.77395 12.229 7.77395C11.474 7.77395 11.052 8.45295 10.908 9.39995H11.8V11H10.906C11.048 11.949 11.468 12.63 12.228 12.63C12.865 12.63 13.263 12.151 13.459 11.437L14.754 11.937Z"/>
</svg>
