<svg width="24" height="24" viewBox="0 0 24 24" xmlns="http://www.w3.org/2000/svg">
<path d="M14.4001 10.3999H16.0001V8.7999H14.4001V10.3999ZM12.8001 8.7999H11.2001V10.3999H12.8001V8.7999ZM8.00012 10.3999H9.60012V8.7999H8.00012V10.3999ZM14.4001 13.5999H16.0001V11.9999H14.4001V13.5999ZM12.8001 11.9999H11.2001V13.5999H12.8001V11.9999ZM8.00012 13.5999H9.60012V11.9999H8.00012V13.5999ZM20.7361 15.1999L19.9361 5.5999H18.4001V2.3999H11.2001V5.5999H4.06412L3.68112 10.1999H5.28712L5.53712 7.1999H18.4651L19.1321 15.1999H1.59912V20.7999H22.3991V15.1999H20.7361ZM12.8001 5.5999V3.9999H16.8001V5.5999H12.8001ZM20.8001 19.1999H3.20012V16.7999H20.8001V19.1999ZM5.10012 12.7999C5.10012 13.2969 4.69712 13.6999 4.20012 13.6999C3.70312 13.6999 3.30012 13.2969 3.30012 12.7999C3.30012 12.3029 3.70312 11.8999 4.20012 11.8999C4.69712 11.8999 5.10012 12.3029 5.10012 12.7999Z"/>
</svg>
