<svg width="24" height="24" viewBox="0 0 24 24" xmlns="http://www.w3.org/2000/svg">
<path d="M11.0999 16.7999C11.0999 16.3029 11.5029 15.8999 11.9999 15.8999C12.4969 15.8999 12.8999 16.3029 12.8999 16.7999C12.8999 17.2969 12.4969 17.6999 11.9999 17.6999C11.5029 17.6999 11.0999 17.2969 11.0999 16.7999ZM21.5999 11.9999C21.5999 6.7069 17.2929 2.3999 11.9999 2.3999C6.7069 2.3999 2.3999 6.7069 2.3999 11.9999C2.3999 17.2929 6.7069 21.5999 11.9999 21.5999C17.2929 21.5999 21.5999 17.2929 21.5999 11.9999ZM19.9999 11.9999C19.9999 16.4109 16.4109 19.9999 11.9999 19.9999C7.5889 19.9999 3.9999 16.4109 3.9999 11.9999C3.9999 7.5889 7.5889 3.9999 11.9999 3.9999C16.4109 3.9999 19.9999 7.5889 19.9999 11.9999ZM12.7999 6.3999H11.1999V14.2999H12.7999V6.3999Z"/>
</svg>
