<svg width="24" height="24" viewBox="0 0 24 24" xmlns="http://www.w3.org/2000/svg">
<path d="M16 4.80005C14.689 4.80005 13.46 5.15405 12.4 5.76905C11.34 5.15405 10.111 4.80005 8.79998 4.80005C4.82998 4.80005 1.59998 8.03005 1.59998 12C1.59998 15.97 4.82998 19.2 8.79998 19.2C10.111 19.2 11.34 18.847 12.4 18.231C13.46 18.846 14.689 19.2 16 19.2C19.97 19.2 23.2 15.97 23.2 12C23.2 8.03005 19.97 4.80005 16 4.80005ZM8.79998 17.6C5.71198 17.6 3.19998 15.088 3.19998 12C3.19998 8.91205 5.71198 6.40005 8.79998 6.40005C9.57398 6.40005 10.311 6.55905 10.982 6.84405C9.63798 8.15305 8.79998 9.98005 8.79998 12C8.79998 14.02 9.63698 15.847 10.982 17.156C10.311 17.441 9.57398 17.6 8.79998 17.6ZM16 17.6C12.912 17.6 10.4 15.088 10.4 12C10.4 8.91205 12.912 6.40005 16 6.40005C19.088 6.40005 21.6 8.91205 21.6 12C21.6 15.088 19.088 17.6 16 17.6ZM14.956 10.825C14.956 10.825 14.93 10.979 14.904 11.2H15.8V12.8H14.904C14.93 13.02 14.955 13.172 14.956 13.175C15.037 13.53 15.176 13.815 15.37 14.016C15.556 14.209 15.818 14.303 16.171 14.303C16.444 14.303 16.659 14.215 16.83 14.033C17.011 13.84 17.166 13.531 17.291 13.113L17.331 12.98L18.934 13.494L18.894 13.62C18.686 14.277 18.352 14.798 17.901 15.168C17.445 15.543 16.86 15.733 16.162 15.733C15.805 15.733 15.461 15.683 15.14 15.585C14.816 15.486 14.521 15.331 14.262 15.126C14.004 14.921 13.779 14.657 13.594 14.34C13.457 14.106 13.23 13.546 13.124 12.799H12.2V11.199H13.124C13.23 10.452 13.458 9.89205 13.594 9.65805C13.779 9.34105 14.004 9.07705 14.262 8.87205C14.52 8.66705 14.816 8.51305 15.14 8.41305C15.461 8.31505 15.804 8.26505 16.162 8.26505C16.86 8.26505 17.445 8.45505 17.901 8.83005C18.352 9.20105 18.686 9.72105 18.894 10.378L18.934 10.504L17.331 11.018L17.291 10.885C17.166 10.467 17.011 10.158 16.83 9.96505C16.66 9.78305 16.444 9.69505 16.171 9.69505C15.818 9.69505 15.556 9.78905 15.37 9.98205C15.177 10.183 15.037 10.468 14.956 10.823V10.825Z"/>
</svg>
