<svg width="24" height="24" viewBox="0 0 24 24" xmlns="http://www.w3.org/2000/svg">
<path d="M21.6001 11.2C21.6001 16.493 17.2931 20.8 12.0001 20.8C10.2971 20.8 8.6391 20.347 7.1871 19.504L8.3661 18.325C9.4831 18.895 10.7261 19.2 12.0001 19.2C16.4111 19.2 20.0001 15.611 20.0001 11.2C20.0001 9.05995 19.1411 7.09995 17.6001 5.63995V7.99995H16.0001V3.19995H20.8001V4.79995H19.0141C20.6601 6.52795 21.6001 8.79995 21.6001 11.2ZM5.5001 16.8C5.0031 16.8 4.6001 17.203 4.6001 17.7C4.6001 18.197 5.0031 18.6 5.5001 18.6C5.9971 18.6 6.4001 18.197 6.4001 17.7C6.4001 17.203 5.9971 16.8 5.5001 16.8ZM10.5001 9.59995C10.5001 8.22095 9.3791 7.09995 8.0001 7.09995C6.6211 7.09995 5.5001 8.22095 5.5001 9.59995C5.5001 10.979 6.6211 12.1 8.0001 12.1C9.3791 12.1 10.5001 10.979 10.5001 9.59995ZM8.9001 9.59995C8.9001 10.096 8.4961 10.5 8.0001 10.5C7.5041 10.5 7.1001 10.096 7.1001 9.59995C7.1001 9.10395 7.5041 8.69995 8.0001 8.69995C8.4961 8.69995 8.9001 9.10395 8.9001 9.59995ZM14.4001 5.59995H12.0281L10.4281 3.19995H5.5721L3.9721 5.59995H1.6001V15.2H14.4001V5.59995ZM3.2001 7.19995H4.8281L6.4281 4.79995H9.5721L11.1721 7.19995H12.8001V13.6H3.2001V7.19995Z"/>
</svg>
