<svg width="24" height="24" viewBox="0 0 24 24" xmlns="http://www.w3.org/2000/svg">
<path d="M12.8 21.6H11.2V14.5H12.8V21.6ZM12 11.1C11.503 11.1 11.1 11.503 11.1 12C11.1 12.497 11.503 12.9 12 12.9C12.497 12.9 12.9 12.497 12.9 12C12.9 11.503 12.497 11.1 12 11.1ZM16.525 7.47504C14.03 4.98004 9.96904 4.98004 7.47403 7.47504C4.97903 9.97004 4.97903 14.031 7.47403 16.526L8.60504 15.395C6.73404 13.523 6.73404 10.478 8.60504 8.60704C10.477 6.73504 13.522 6.73604 15.393 8.60704C17.264 10.479 17.264 13.524 15.393 15.395L16.524 16.526C19.019 14.031 19.02 9.97004 16.525 7.47504ZM18.788 5.21204C15.045 1.46904 8.95504 1.46904 5.21204 5.21204C1.46904 8.95504 1.46904 15.045 5.21204 18.788L6.34304 17.657C3.22404 14.538 3.22404 9.46204 6.34304 6.34304C9.46204 3.22404 14.538 3.22404 17.657 6.34304C20.776 9.46204 20.776 14.538 17.657 17.657L18.788 18.788C22.531 15.045 22.531 8.95504 18.788 5.21204Z"/>
</svg>
