<svg width="24" height="24" viewBox="0 0 24 24" xmlns="http://www.w3.org/2000/svg">
<path d="M22.4 11.519V6.80005C22.4 5.69705 21.503 4.80005 20.4 4.80005H3.60001C2.49701 4.80005 1.60001 5.69705 1.60001 6.80005V17.2C1.60001 18.303 2.49701 19.2 3.60001 19.2H8.01001V17.6H3.60001C3.37901 17.6 3.20001 17.421 3.20001 17.2V10.4H13.686C12.647 11.417 12 12.834 12 14.4C12 17.488 14.512 20 17.6 20C20.688 20 23.2 17.488 23.2 14.4C23.2 13.347 22.907 12.361 22.4 11.519ZM3.20001 8.80005V6.80005C3.20001 6.57905 3.37901 6.40005 3.60001 6.40005H20.4C20.621 6.40005 20.8 6.57905 20.8 6.80005V9.80805C19.892 9.17305 18.789 8.80005 17.6 8.80005H3.20001ZM17.6 18.4C15.394 18.4 13.6 16.606 13.6 14.4C13.6 12.194 15.394 10.4 17.6 10.4C19.806 10.4 21.6 12.194 21.6 14.4C21.6 16.606 19.806 18.4 17.6 18.4ZM17.6 12.469L20.166 15.035L19.035 16.166L17.601 14.732L16.167 16.166L15.036 15.035L17.602 12.469H17.6ZM11.4 18.4C11.4 18.897 10.997 19.3 10.5 19.3C10.003 19.3 9.60001 18.897 9.60001 18.4C9.60001 17.903 10.003 17.5 10.5 17.5C10.997 17.5 11.4 17.903 11.4 18.4Z"/>
</svg>
