<svg width="24" height="24" viewBox="0 0 24 24" xmlns="http://www.w3.org/2000/svg">
<path d="M17.2 22.4001H6.79999C5.69699 22.4001 4.79999 21.5031 4.79999 20.4001V3.6001C4.79999 2.4971 5.69699 1.6001 6.79999 1.6001H17.2C18.303 1.6001 19.2 2.4971 19.2 3.6001V20.4001C19.2 21.5031 18.303 22.4001 17.2 22.4001ZM6.79999 3.2001C6.57899 3.2001 6.39999 3.3791 6.39999 3.6001V20.4001C6.39999 20.6211 6.57899 20.8001 6.79999 20.8001H17.2C17.421 20.8001 17.6 20.6211 17.6 20.4001V3.6001C17.6 3.3791 17.421 3.2001 17.2 3.2001H6.79999Z"/>
<path d="M12 19.2001C12.497 19.2001 12.9 18.7972 12.9 18.3001C12.9 17.803 12.497 17.4001 12 17.4001C11.5029 17.4001 11.1 17.803 11.1 18.3001C11.1 18.7972 11.5029 19.2001 12 19.2001Z"/>
<path d="M12.759 15.4531L11.241 14.9471L12.49 11.2001H9.28999L11.241 5.3471L12.759 5.8531L11.51 9.6001H14.71L12.759 15.4531Z"/>
</svg>
