<svg width="24" height="24" viewBox="0 0 24 24" xmlns="http://www.w3.org/2000/svg">
<path d="M2.8011 20.235C2.6461 20.235 2.4901 20.205 2.3411 20.143C1.8911 19.957 1.6001 19.521 1.6001 19.034V4H22.4001V16.8H6.7311L3.6481 19.883C3.4181 20.113 3.1121 20.235 2.8011 20.235ZM3.2001 5.6V18.069L5.7171 15.552C5.9441 15.325 6.2451 15.201 6.5661 15.201H20.8001V5.6H3.2001ZM18.3001 11.8C17.8031 11.8 17.4001 12.203 17.4001 12.7C17.4001 13.197 17.8031 13.6 18.3001 13.6C18.7971 13.6 19.2001 13.197 19.2001 12.7C19.2001 12.203 18.7971 11.8 18.3001 11.8Z"/>
</svg>
