<svg width="24" height="24" viewBox="0 0 24 24" xmlns="http://www.w3.org/2000/svg">
<path d="M7.60001 12.7001C8.09701 12.7001 8.50001 13.1031 8.50001 13.6001C8.50001 14.0971 8.09701 14.5001 7.60001 14.5001C7.10301 14.5001 6.70001 14.0971 6.70001 13.6001C6.70001 13.1031 7.10301 12.7001 7.60001 12.7001ZM20.8 16.0001H3.20001V8.00009H10.4L12 6.40009H1.60001V17.6001H22.4V8.20009L20.8 9.80009V16.0001ZM18.9 2.06909L22.431 5.60009L15.231 12.8001H19.2V14.4001H10.1V10.8691L18.9 2.06909ZM17.769 8.00009L16.5 6.73109L11.7 11.5311V12.8001H12.969L17.769 8.00009ZM17.631 5.60009L18.9 6.86909L20.169 5.60009L18.9 4.33109L17.631 5.60009Z"/>
</svg>
