<svg width="24" height="24" viewBox="0 0 24 24" xmlns="http://www.w3.org/2000/svg">
<path d="M16.8 9.60005C18.123 9.60005 19.2 8.52305 19.2 7.20005C19.2 5.87705 18.123 4.80005 16.8 4.80005C15.477 4.80005 14.4 5.87705 14.4 7.20005C14.4 8.52305 15.477 9.60005 16.8 9.60005ZM16.8 6.40005C17.241 6.40005 17.6 6.75905 17.6 7.20005C17.6 7.64105 17.241 8.00005 16.8 8.00005C16.359 8.00005 16 7.64105 16 7.20005C16 6.75905 16.359 6.40005 16.8 6.40005Z"/>
<path d="M22.166 13.034L20.041 10.909C19.672 10.54 19.111 10.451 18.646 10.689C18.181 10.927 17.924 11.433 18.008 11.949L18.661 16H14.94L15.593 11.949C15.676 11.433 15.42 10.927 14.955 10.69C14.49 10.452 13.93 10.541 13.56 10.91L12 12.47L10.44 10.91C10.071 10.541 9.50998 10.452 9.04498 10.69C8.57998 10.928 8.32298 11.434 8.40698 11.95L9.05998 16.001H5.33898L5.99198 11.95C6.07498 11.434 5.81898 10.928 5.35398 10.691C4.88898 10.453 4.32898 10.542 3.95898 10.911L1.83398 13.036L2.96498 14.167L4.21598 12.916L3.45998 17.601H4.79898V19.201H6.39898V17.601H7.99898V19.201H9.59898V17.601H10.938L10.182 12.916L11.998 14.732L13.814 12.916L13.058 17.601H14.397V19.201H15.997V17.601H17.597V19.201H19.197V17.601H20.536L19.78 12.916L21.031 14.167L22.162 13.036L22.166 13.034Z"/>
<path d="M7.19998 9.60005C8.52298 9.60005 9.59998 8.52305 9.59998 7.20005C9.59998 5.87705 8.52298 4.80005 7.19998 4.80005C5.87698 4.80005 4.79998 5.87705 4.79998 7.20005C4.79998 8.52305 5.87698 9.60005 7.19998 9.60005ZM7.19998 6.40005C7.64098 6.40005 7.99998 6.75905 7.99998 7.20005C7.99998 7.64105 7.64098 8.00005 7.19998 8.00005C6.75898 8.00005 6.39998 7.64105 6.39998 7.20005C6.39998 6.75905 6.75898 6.40005 7.19998 6.40005Z"/>
</svg>
