<svg width="24" height="24" viewBox="0 0 24 24" xmlns="http://www.w3.org/2000/svg">
<path d="M19.2 4.80005H4.79998C3.03498 4.80005 1.59998 6.23505 1.59998 8.00005V16C1.59998 17.765 3.03498 19.2 4.79998 19.2H19.2C20.965 19.2 22.4 17.765 22.4 16V8.00005C22.4 6.23505 20.965 4.80005 19.2 4.80005ZM19.2 6.40005C20.082 6.40005 20.8 7.11805 20.8 8.00005V9.60005H16.558C16.412 8.88605 15.886 8.30805 15.2 8.09205V6.40005H19.2ZM16.6 11.2H20.8V12.8H16.6V11.2ZM4.79998 6.40005H8.79998V8.09205C8.11398 8.30805 7.58798 8.88605 7.44198 9.60005H3.19998V8.00005C3.19998 7.11805 3.91798 6.40005 4.79998 6.40005ZM7.39998 12.8H3.19998V11.2H7.39998V12.8ZM4.79998 17.6C3.91798 17.6 3.19998 16.882 3.19998 16V14.4H7.44198C7.58798 15.114 8.11398 15.692 8.79998 15.908V17.6H4.79998ZM10.4 17.6V14.4H9.39998C9.18298 14.4 8.99998 14.217 8.99998 14V10C8.99998 9.78305 9.18298 9.60005 9.39998 9.60005H10.4V6.40005H13.6V9.60005H14.6C14.817 9.60005 15 9.78305 15 10V14C15 14.217 14.817 14.4 14.6 14.4H13.6V17.6H10.4ZM19.2 17.6H15.2V15.908C15.886 15.692 16.412 15.114 16.558 14.4H20.8V16C20.8 16.882 20.082 17.6 19.2 17.6Z"/>
</svg>
