<svg width="24" height="24" viewBox="0 0 24 24" xmlns="http://www.w3.org/2000/svg">
<path d="M19.4419 8.0311C19.2129 7.7571 18.8779 7.6001 18.5209 7.6001H18.4979C18.5639 7.3441 18.5999 7.0761 18.5999 6.8001C18.5999 5.0371 17.1669 3.6021 15.4039 3.6001C14.7359 2.4081 13.4609 1.6001 11.9999 1.6001C10.5389 1.6001 9.26394 2.4081 8.59594 3.6001C6.83294 3.6021 5.39994 5.0371 5.39994 6.8001C5.39994 7.0761 5.43594 7.3441 5.50194 7.6001H5.47894C5.12194 7.6001 4.78594 7.7571 4.55794 8.0311C4.32894 8.3051 4.23494 8.6631 4.29894 9.0151L6.15094 19.2001H7.77693L5.95894 9.2001H8.85294L9.75293 22.4001H16.2659C16.8459 22.4001 17.3429 21.9861 17.4469 21.4151L19.7019 9.0151C19.7659 8.6641 19.6699 8.3051 19.4419 8.0311ZM7.21494 7.6001C7.07894 7.3651 6.99994 7.0921 6.99994 6.8001C6.99994 6.7501 7.00294 6.7001 7.00794 6.6511C7.00994 6.6341 7.01193 6.6181 7.01394 6.6021C7.01794 6.5701 7.02294 6.5381 7.02894 6.5061C7.03294 6.4871 7.03694 6.4681 7.04094 6.4491C7.04694 6.4211 7.05493 6.3931 7.06293 6.3651C7.06893 6.3451 7.07394 6.3251 7.07994 6.3061C7.08894 6.2791 7.09893 6.2531 7.10893 6.2271C7.12393 6.1891 7.13994 6.1521 7.15694 6.1151C7.16594 6.0961 7.17493 6.0771 7.18393 6.0581C7.19693 6.0321 7.21193 6.0081 7.22693 5.9831C7.23493 5.9691 7.24393 5.9551 7.25193 5.9411C7.26793 5.9151 7.28494 5.8911 7.30294 5.8661C7.31094 5.8551 7.31893 5.8451 7.32693 5.8341C7.34693 5.8081 7.36694 5.7821 7.38894 5.7571C7.39194 5.7541 7.39494 5.7511 7.39794 5.7471C7.47494 5.6601 7.55994 5.5811 7.65394 5.5121C7.65894 5.5091 7.66294 5.5051 7.66794 5.5021C7.69694 5.4811 7.72694 5.4611 7.75694 5.4431C7.76394 5.4381 7.77194 5.4341 7.77894 5.4301C7.80994 5.4121 7.84094 5.3941 7.87294 5.3771C7.87694 5.3751 7.88094 5.3731 7.88594 5.3711C8.10094 5.2631 8.34394 5.2011 8.60094 5.2011C9.02994 5.2011 9.41893 5.3711 9.70594 5.6461C9.70294 5.5981 9.70094 5.5501 9.70094 5.5011C9.70094 4.4571 10.3969 3.5761 11.3489 3.2951C11.3559 3.2931 11.3619 3.2911 11.3689 3.2891C11.4009 3.2801 11.4329 3.2711 11.4649 3.2641C11.4749 3.2621 11.4859 3.2591 11.4959 3.2571C11.5249 3.2511 11.5549 3.2451 11.5839 3.2391C11.5969 3.2371 11.6089 3.2341 11.6219 3.2321C11.6499 3.2271 11.6789 3.2231 11.7069 3.2201C11.7209 3.2181 11.7339 3.2161 11.7479 3.2151C11.7769 3.2121 11.8069 3.2091 11.8369 3.2071C11.8489 3.2071 11.8619 3.2051 11.8739 3.2041C11.9159 3.2021 11.9579 3.2001 12.0009 3.2001C12.0439 3.2001 12.0859 3.2011 12.1279 3.2041C12.1409 3.2041 12.1529 3.2061 12.1649 3.2071C12.1949 3.2091 12.2239 3.2111 12.2539 3.2151C12.2679 3.2161 12.2809 3.2181 12.2949 3.2201C12.3239 3.2241 12.3519 3.2281 12.3799 3.2321C12.3929 3.2341 12.4049 3.2361 12.4179 3.2391C12.4479 3.2441 12.4769 3.2501 12.5059 3.2571C12.5159 3.2591 12.5269 3.2621 12.5369 3.2641C12.5689 3.2721 12.6019 3.2801 12.6339 3.2891C12.6409 3.2911 12.6469 3.2931 12.6539 3.2951C13.6069 3.5761 14.3019 4.4571 14.3019 5.5011C14.3019 5.5501 14.2999 5.5981 14.2969 5.6461C14.5839 5.3711 14.9729 5.2011 15.4019 5.2011C15.6589 5.2011 15.9019 5.2631 16.1169 5.3711C16.1209 5.3731 16.1249 5.3751 16.1299 5.3771C16.1619 5.3931 16.1929 5.4111 16.2239 5.4301C16.2309 5.4341 16.2389 5.4391 16.2459 5.4431C16.2759 5.4621 16.3059 5.4821 16.3349 5.5021C16.3399 5.5051 16.3439 5.5091 16.3489 5.5121C16.4429 5.5811 16.5289 5.6601 16.6049 5.7471C16.6079 5.7501 16.6109 5.7531 16.6139 5.7571C16.6349 5.7821 16.6559 5.8081 16.6759 5.8341C16.6839 5.8451 16.6919 5.8551 16.6999 5.8661C16.7179 5.8911 16.7349 5.9161 16.7509 5.9411C16.7599 5.9551 16.7679 5.9691 16.7759 5.9831C16.7909 6.0081 16.8059 6.0321 16.8189 6.0581C16.8289 6.0771 16.8369 6.0961 16.8459 6.1151C16.8629 6.1521 16.8799 6.1891 16.8939 6.2271C16.9039 6.2531 16.9139 6.2791 16.9229 6.3061C16.9289 6.3251 16.9349 6.3451 16.9399 6.3651C16.9479 6.3931 16.9549 6.4201 16.9619 6.4491C16.9659 6.4681 16.9699 6.4871 16.9739 6.5061C16.9799 6.5381 16.9849 6.5701 16.9889 6.6021C16.9909 6.6181 16.9939 6.6351 16.9949 6.6511C16.9999 6.7001 17.0029 6.7501 17.0029 6.8001C17.0029 7.0921 16.9239 7.3651 16.7879 7.6001H7.21494ZM10.4559 9.2001H13.5399L12.7109 20.8001H11.2459L10.4559 9.2001ZM15.9319 20.8001H14.3159L15.1449 9.2001H18.0419L15.9319 20.8001Z"/>
<path d="M7.19994 22.6001C7.69699 22.6001 8.09994 22.1972 8.09994 21.7001C8.09994 21.203 7.69699 20.8001 7.19994 20.8001C6.70288 20.8001 6.29994 21.203 6.29994 21.7001C6.29994 22.1972 6.70288 22.6001 7.19994 22.6001Z"/>
</svg>
