<svg width="24" height="24" viewBox="0 0 24 24" xmlns="http://www.w3.org/2000/svg">
<path d="M3.20005 12.8999C3.26205 12.8999 3.32205 12.8939 3.38105 12.8819C3.61505 12.8339 3.81705 12.6949 3.94605 12.5029C3.96205 12.4789 3.97705 12.4549 3.99105 12.4289C4.01905 12.3779 4.04105 12.3239 4.05905 12.2679C4.08505 12.1829 4.09905 12.0939 4.09905 11.9999C4.09905 11.9059 4.08505 11.8169 4.05905 11.7319C4.04205 11.6759 4.01905 11.6219 3.99105 11.5709C3.97705 11.5459 3.96205 11.5209 3.94605 11.4969C3.81605 11.3049 3.61505 11.1659 3.38105 11.1179C3.32305 11.1059 3.26205 11.0999 3.20005 11.0999C3.13805 11.0999 3.07805 11.1059 3.01905 11.1179C2.78505 11.1659 2.58305 11.3049 2.45405 11.4969C2.35705 11.6399 2.30005 11.8139 2.30005 11.9999C2.30005 12.1859 2.35705 12.3589 2.45405 12.5029C2.58405 12.6949 2.78505 12.8339 3.01905 12.8819C3.07705 12.8939 3.13805 12.8999 3.20005 12.8999Z"/>
<path d="M14.504 2.7309C14.504 2.7309 14.496 2.7289 14.492 2.7279C14.362 2.6929 14.23 2.6599 14.098 2.6309C14.098 2.6309 14.094 2.6309 14.092 2.6299C13.823 2.5699 13.55 2.5209 13.274 2.4839C13.139 2.4659 13.003 2.4509 12.867 2.4389C12.859 2.4389 12.851 2.4379 12.843 2.4369C12.707 2.4249 12.571 2.4159 12.434 2.4099C12.43 2.4099 12.427 2.4099 12.423 2.4099C12.283 2.4039 12.142 2.3999 12 2.3999C11.87 2.3999 11.74 2.4039 11.611 2.4089C11.591 2.4089 11.571 2.4109 11.551 2.4119C11.437 2.4169 11.324 2.4239 11.211 2.4339C11.195 2.4349 11.178 2.4359 11.162 2.4379C11.032 2.4489 10.903 2.4629 10.775 2.4789H10.771C10.65 2.4949 10.53 2.5129 10.411 2.5329C10.386 2.5369 10.361 2.5409 10.337 2.5459C10.229 2.5649 10.121 2.5859 10.014 2.6079C10 2.6109 9.98605 2.6139 9.97205 2.6169C9.85105 2.6429 9.73205 2.6709 9.61305 2.7019C9.59205 2.7069 9.57205 2.7129 9.55205 2.7189C9.45505 2.7449 9.35905 2.7719 9.26405 2.7999C9.23405 2.8089 9.20505 2.8179 9.17505 2.8269C9.07005 2.8589 8.96605 2.8929 8.86305 2.9289C8.85405 2.9319 8.84405 2.9349 8.83405 2.9389C8.72305 2.9779 8.61305 3.0189 8.50305 3.0619C8.47305 3.0739 8.44405 3.0859 8.41405 3.0979C8.33105 3.1309 8.24905 3.1659 8.16705 3.2019C8.13705 3.2149 8.10705 3.2279 8.07705 3.2419C7.97105 3.2899 7.86605 3.3379 7.76205 3.3899C7.75205 3.3949 7.74205 3.3999 7.73205 3.4049C7.65905 3.4409 7.58605 3.4779 7.51405 3.5159V3.5179C5.19005 4.7519 3.43005 6.9109 2.73105 9.5019H4.40205C5.06005 7.5099 6.48005 5.8599 8.31505 4.9029C8.32005 4.8999 8.32605 4.8979 8.33105 4.8949C8.41505 4.8509 8.50005 4.8089 8.58605 4.7689C8.60005 4.7629 8.61305 4.7559 8.62705 4.7499C8.70505 4.7139 8.78305 4.6779 8.86205 4.6449C8.88105 4.6369 8.90105 4.6289 8.92005 4.6209C8.99405 4.5899 9.06905 4.5599 9.14405 4.5309C9.16705 4.5219 9.19005 4.5139 9.21305 4.5049C9.28605 4.4779 9.35905 4.4519 9.43205 4.4269C9.45705 4.4179 9.48305 4.4099 9.50805 4.4019C9.58005 4.3779 9.65305 4.3559 9.72605 4.3339C9.75305 4.3259 9.77905 4.3179 9.80605 4.3109C9.87905 4.2899 9.95205 4.2699 10.026 4.2519C10.053 4.2449 10.08 4.2379 10.107 4.2309C10.182 4.2129 10.257 4.1959 10.332 4.1799C10.359 4.1739 10.385 4.1679 10.412 4.1629C10.49 4.1469 10.568 4.1329 10.647 4.1199C10.672 4.1159 10.696 4.1109 10.721 4.1069C10.804 4.0939 10.888 4.0819 10.972 4.0709C10.992 4.0679 11.012 4.0649 11.032 4.0629C11.126 4.0519 11.22 4.0419 11.315 4.0339C11.326 4.0339 11.336 4.0319 11.347 4.0309C11.562 4.0139 11.779 4.0049 11.999 4.0049C12.04 4.0049 12.081 4.0069 12.122 4.0079C12.204 4.0089 12.287 4.0109 12.369 4.0139C12.428 4.0169 12.486 4.0209 12.545 4.0249C12.612 4.0289 12.679 4.0339 12.745 4.0399C12.806 4.0459 12.866 4.0519 12.926 4.0589C12.99 4.0659 13.053 4.0739 13.117 4.0829C13.177 4.0909 13.237 4.0999 13.297 4.1099C13.36 4.1199 13.423 4.1319 13.485 4.1439C13.544 4.1549 13.602 4.1659 13.661 4.1779C13.727 4.1919 13.792 4.2079 13.858 4.2229C13.912 4.2359 13.966 4.2479 14.019 4.2609C14.129 4.2899 14.239 4.3209 14.347 4.3539C14.403 4.3709 14.457 4.3899 14.513 4.4089C14.573 4.4289 14.632 4.4479 14.691 4.4689C14.748 4.4899 14.805 4.5109 14.862 4.5329C14.917 4.5539 14.973 4.5759 15.028 4.5979C15.085 4.6209 15.142 4.6459 15.198 4.6699C15.252 4.6929 15.305 4.7179 15.358 4.7419C15.414 4.7679 15.47 4.7939 15.525 4.8209C15.578 4.8469 15.629 4.8739 15.681 4.9009C15.735 4.9289 15.789 4.9569 15.843 4.9859C15.901 5.0179 15.958 5.0519 16.015 5.0849C16.105 5.1369 16.194 5.1909 16.281 5.2469C16.33 5.2779 16.379 5.3089 16.427 5.3409C16.479 5.3759 16.531 5.4119 16.582 5.4479C16.627 5.4799 16.673 5.5119 16.717 5.5439C16.768 5.5819 16.819 5.6199 16.869 5.6589C16.912 5.6919 16.955 5.7259 16.998 5.7599C17.048 5.7999 17.097 5.8399 17.146 5.8809C17.188 5.9159 17.228 5.9519 17.269 5.9879C17.317 6.0299 17.365 6.0719 17.412 6.1149C17.451 6.1509 17.49 6.1889 17.528 6.2259C17.615 6.3089 17.7 6.3949 17.783 6.4819C17.819 6.5199 17.855 6.5559 17.89 6.5949C17.934 6.6429 17.976 6.6919 18.019 6.7409C18.054 6.7809 18.089 6.8209 18.123 6.8609C18.165 6.9109 18.205 6.9609 18.246 7.0119C18.279 7.0539 18.312 7.0949 18.345 7.1379C18.385 7.1889 18.423 7.2409 18.462 7.2939C18.493 7.3369 18.524 7.3799 18.555 7.4239C18.592 7.4769 18.63 7.5299 18.666 7.5849C18.695 7.6289 18.724 7.6739 18.752 7.7189C18.787 7.7739 18.823 7.8289 18.857 7.8849C18.876 7.9169 18.894 7.9499 18.913 7.9819C18.982 8.0989 19.047 8.2189 19.11 8.3399C19.135 8.3879 19.16 8.4359 19.184 8.4849C19.213 8.5429 19.24 8.6019 19.267 8.6609C19.29 8.7109 19.313 8.7599 19.335 8.8109C19.361 8.8699 19.386 8.9299 19.41 8.9899C19.431 9.0409 19.451 9.0929 19.471 9.1439C19.494 9.2039 19.517 9.2649 19.539 9.3259C19.558 9.3789 19.575 9.4319 19.593 9.4859C19.613 9.5469 19.634 9.6079 19.653 9.6699C19.67 9.7269 19.686 9.7849 19.702 9.8429C19.717 9.8969 19.733 9.9499 19.747 10.0039C19.912 10.6439 20.001 11.3149 20.001 12.0049C20.001 16.4159 16.412 20.0049 12.001 20.0049C11.832 20.0049 11.666 19.9979 11.5 19.9879C8.18205 19.7809 5.40505 17.5419 4.40305 14.5039H2.73205C3.43205 17.0949 5.19205 19.2549 7.51505 20.4879V20.4899C8.85505 21.2009 10.381 21.6049 12 21.6049C17.294 21.6049 21.6 17.2979 21.6 12.0049C21.6 7.5769 18.587 3.8409 14.504 2.7359V2.7309Z"/>
</svg>
