<svg width="24" height="24" viewBox="0 0 24 24" xmlns="http://www.w3.org/2000/svg">
<path d="M20.7999 17.5C20.7999 17.997 20.3969 18.4 19.8999 18.4C19.4029 18.4 18.9999 17.997 18.9999 17.5C18.9999 17.003 19.4029 16.6 19.8999 16.6C20.3969 16.6 20.7999 17.003 20.7999 17.5ZM19.6199 14.738C19.3909 15.031 19.0459 15.2 18.6739 15.2H15.1999C12.9939 15.2 11.1999 16.994 11.1999 19.2V20.8H12.7999V22.4H2.3999V20.8H3.9999V6.84303C3.9999 5.74503 4.7429 4.78903 5.8059 4.51803L14.0019 2.42603L14.3979 3.97603L11.1999 4.79303V10.401H17.4489C18.3679 10.401 19.1659 11.024 19.3889 11.916L19.8369 13.71C19.9269 14.071 19.8479 14.446 19.6189 14.739L19.6199 14.738ZM5.5999 6.84303V8.00003H9.5999V5.20003L6.2019 6.06803C5.8479 6.15903 5.5999 6.47703 5.5999 6.84303ZM18.1619 13.6L17.8379 12.303C17.7929 12.125 17.6339 12 17.4499 12H9.6009V9.60003H5.6009V20.8H9.6009V19.2C9.6009 16.112 12.1129 13.6 15.2009 13.6H18.1629H18.1619Z"/>
</svg>
