<svg width="24" height="24" viewBox="0 0 24 24" xmlns="http://www.w3.org/2000/svg">
<path d="M7.19995 5.6001C7.19995 3.3901 8.98995 1.6001 11.2 1.6001C13.41 1.6001 15.2 3.3901 15.2 5.6001C15.2 7.8101 13.41 9.6001 11.2 9.6001C8.98995 9.6001 7.19995 7.8101 7.19995 5.6001ZM8.79995 5.6001C8.79995 6.9201 9.87995 8.0001 11.2 8.0001C12.52 8.0001 13.6 6.9201 13.6 5.6001C13.6 4.2801 12.52 3.2001 11.2 3.2001C9.87995 3.2001 8.79995 4.2801 8.79995 5.6001ZM21.6 17.6001C21.6 20.6901 19.09 23.2001 16 23.2001C12.91 23.2001 10.4 20.6901 10.4 17.6001C10.4 15.7001 11.35 14.0201 12.81 13.0001C12.3 12.8701 11.76 12.8001 11.2 12.8001C7.66995 12.8001 4.79995 15.6701 4.79995 19.2001V20.8001H6.79995V22.4001H3.19995V19.2001C3.19995 14.7901 6.78995 11.2001 11.2 11.2001C12.53 11.2001 13.79 11.5301 14.9 12.1101C15.26 12.0401 15.63 12.0001 16 12.0001C19.09 12.0001 21.6 14.5101 21.6 17.6001ZM20 17.6001C20 15.7501 18.74 14.1901 17.04 13.7401C16.71 13.6501 16.36 13.6001 16 13.6001C15.54 13.6001 15.09 13.6801 14.67 13.8301C13.12 14.3801 12 15.8601 12 17.6001C12 19.8101 13.79 21.6001 16 21.6001C18.21 21.6001 20 19.8101 20 17.6001ZM9.29995 20.7001C8.79995 20.7001 8.39995 21.1001 8.39995 21.6001C8.39995 22.1001 8.79995 22.5001 9.29995 22.5001C9.79995 22.5001 10.2 22.1001 10.2 21.6001C10.2 21.1001 9.79995 20.7001 9.29995 20.7001ZM17.43 15.9401L15.6 17.7701L14.57 16.7401L13.44 17.8701L15.61 20.0401L18.58 17.0701L17.45 15.9401H17.43Z"/>
</svg>
