<svg width="24" height="24" viewBox="0 0 24 24" xmlns="http://www.w3.org/2000/svg">
<path d="M12.9004 21.7001C12.9004 22.1971 12.4974 22.6001 12.0004 22.6001C11.5034 22.6001 11.1004 22.1971 11.1004 21.7001C11.1004 21.2031 11.5034 20.8001 12.0004 20.8001C12.4974 20.8001 12.9004 21.2031 12.9004 21.7001ZM17.6004 9.6001C17.6004 6.0141 15.4604 2.8191 12.2764 1.6491L12.0004 1.5481L11.7244 1.6491C8.53939 2.8191 6.40039 6.0141 6.40039 9.6001C6.40039 11.8141 7.21639 13.8791 8.59039 15.4101L9.72239 14.2781C8.64139 13.0421 8.00039 11.3821 8.00039 9.6001C8.00039 6.7881 9.59639 4.2791 12.0004 3.2601C14.4044 4.2791 16.0004 6.7881 16.0004 9.6001C16.0004 12.0871 14.7524 14.3361 12.8004 15.5281V9.2001H11.2004V19.2001H12.8004V17.3351C15.6934 16.0221 17.6004 12.9861 17.6004 9.6001Z"/>
</svg>
