<svg width="24" height="24" viewBox="0 0 24 24" xmlns="http://www.w3.org/2000/svg">
<path d="M11.9999 21.5999C6.7069 21.5999 2.3999 17.2929 2.3999 11.9999C2.3999 6.7069 6.7069 2.3999 11.9999 2.3999C17.2929 2.3999 21.5999 6.7069 21.5999 11.9999C21.5999 17.2929 17.2929 21.5999 11.9999 21.5999ZM11.9999 3.9999C7.5889 3.9999 3.9999 7.5889 3.9999 11.9999C3.9999 16.4109 7.5889 19.9999 11.9999 19.9999C16.4109 19.9999 19.9999 16.4109 19.9999 11.9999C19.9999 7.5889 16.4109 3.9999 11.9999 3.9999ZM15.6999 14.7999C15.2029 14.7999 14.7999 15.2029 14.7999 15.6999C14.7999 16.1969 15.2029 16.5999 15.6999 16.5999C16.1969 16.5999 16.5999 16.1969 16.5999 15.6999C16.5999 15.2029 16.1969 14.7999 15.6999 14.7999ZM14.5009 13.3689L12.7999 11.6679V6.3989H11.1999V12.3299L13.3689 14.4989L14.4999 13.3679L14.5009 13.3689Z"/>
</svg>
