<svg width="24" height="24" viewBox="0 0 24 24" xmlns="http://www.w3.org/2000/svg">
<path d="M22.4 14.4C22.4 17.047 20.247 19.2 17.6 19.2H8.10005V17.6H17.6C19.367 17.6 20.8 16.167 20.8 14.4C20.8 14.348 20.799 14.296 20.796 14.245C20.796 14.228 20.794 14.211 20.793 14.194C20.791 14.16 20.788 14.125 20.785 14.091C20.783 14.071 20.781 14.051 20.778 14.031C20.774 14 20.771 13.969 20.7661 13.938C20.7631 13.918 20.76 13.898 20.757 13.878C20.7521 13.847 20.747 13.817 20.741 13.786C20.737 13.767 20.734 13.748 20.729 13.729C20.722 13.697 20.715 13.665 20.7071 13.633C20.7031 13.617 20.699 13.6 20.695 13.584C20.685 13.546 20.674 13.509 20.663 13.472C20.66 13.462 20.657 13.452 20.654 13.442C20.361 12.505 19.648 11.744 18.714 11.4C18.676 11.386 18.637 11.373 18.598 11.36C18.592 11.358 18.587 11.356 18.581 11.354C18.537 11.34 18.493 11.327 18.449 11.315H18.4461C18.3281 11.283 18.208 11.256 18.0851 11.238L17.345 11.106L17.524 10.293C17.524 10.293 17.525 10.287 17.526 10.283C17.534 10.248 17.5401 10.212 17.5461 10.176C17.5511 10.147 17.556 10.118 17.561 10.089C17.566 10.056 17.571 10.022 17.575 9.98795C17.579 9.95195 17.583 9.91596 17.586 9.87896C17.588 9.85196 17.591 9.82495 17.593 9.79696C17.597 9.73096 17.6 9.66596 17.6 9.59996C17.6 7.83295 16.167 6.39996 14.4 6.39996C14.348 6.39996 14.297 6.40096 14.246 6.40396C14.232 6.40396 14.217 6.40595 14.203 6.40696C14.165 6.40895 14.128 6.41196 14.0911 6.41596C14.0771 6.41696 14.062 6.41895 14.048 6.42095C14.009 6.42495 13.97 6.42996 13.931 6.43596C13.921 6.43796 13.911 6.43896 13.9 6.44096C12.804 6.61196 11.8811 7.33496 11.453 8.35496C11.45 8.36296 11.4471 8.37096 11.4431 8.37896C11.4291 8.41296 11.416 8.44595 11.403 8.48095C11.39 8.51495 11.378 8.54995 11.367 8.58495C11.364 8.59295 11.3621 8.59996 11.359 8.60796C11.345 8.64896 11.3331 8.69096 11.3211 8.73296V8.73495C11.3061 8.78795 11.2921 8.84196 11.2801 8.89596L11.1081 9.62996L10.3431 9.46896C10.3361 9.46696 10.3281 9.46596 10.3211 9.46496C10.2981 9.45996 10.2751 9.45695 10.2521 9.45195C10.2151 9.44495 10.179 9.43895 10.142 9.43395C10.1171 9.42995 10.0921 9.42695 10.0661 9.42395C10.0281 9.41995 9.98905 9.41595 9.95105 9.41295C9.92905 9.41095 9.90705 9.40896 9.88505 9.40796C9.82405 9.40395 9.76305 9.40195 9.70105 9.40195C9.65105 9.40195 9.60105 9.40296 9.55205 9.40595C9.53805 9.40595 9.52405 9.40795 9.51005 9.40895C9.47405 9.41095 9.43805 9.41396 9.40205 9.41695C9.38805 9.41795 9.37305 9.41996 9.35905 9.42196C9.32205 9.42596 9.28405 9.43095 9.24805 9.43596C9.23705 9.43795 9.22705 9.43896 9.21605 9.44096C9.17005 9.44796 9.12405 9.45596 9.07905 9.46596H9.07705C8.07805 9.66896 7.24305 10.35 6.84705 11.294C6.84405 11.302 6.84005 11.311 6.83705 11.319C6.82405 11.351 6.81105 11.383 6.79905 11.416C6.78705 11.447 6.77705 11.478 6.76605 11.51C6.76305 11.52 6.75905 11.529 6.75605 11.539C6.74405 11.577 6.73205 11.616 6.72105 11.655C6.72105 11.658 6.71905 11.66 6.71905 11.663C6.70605 11.708 6.69505 11.753 6.68405 11.799L6.53605 12.425L5.85205 12.405C5.83505 12.405 5.81905 12.404 5.80205 12.404C4.36605 12.404 3.20205 13.568 3.20205 15.004C3.20205 15.722 3.49305 16.372 3.96405 16.842L2.83405 17.972C2.07305 17.212 1.60205 16.162 1.60205 15.004C1.60205 12.855 3.22405 11.078 5.30805 10.833C5.99105 9.02296 7.72005 7.80396 9.70205 7.80396C9.78405 7.80396 9.86605 7.80595 9.94805 7.80995C10.6671 6.00895 12.4081 4.80396 14.4021 4.80396C17.049 4.80396 19.202 6.95696 19.202 9.60396C19.202 9.69396 19.199 9.78496 19.194 9.87496C21.091 10.538 22.4021 12.336 22.4021 14.404L22.4 14.4ZM5.60005 17.5C5.10305 17.5 4.70005 17.903 4.70005 18.4C4.70005 18.897 5.10305 19.3 5.60005 19.3C6.09705 19.3 6.50005 18.897 6.50005 18.4C6.50005 17.903 6.09705 17.5 5.60005 17.5Z"/>
</svg>
