<svg width="24" height="24" viewBox="0 0 24 24" xmlns="http://www.w3.org/2000/svg">
<path d="M16.8 11.2V8.80003H4V17.6C4 20.247 6.153 22.4 8.8 22.4H12C14.374 22.4 16.35 20.667 16.732 18.4H18C19.103 18.4 20 17.503 20 16.4V11.2H16.8ZM12 20.8H8.8C7.035 20.8 5.6 19.365 5.6 17.6V10.4H15.2V17.6C15.2 19.365 13.765 20.8 12 20.8ZM18.4 16.4C18.4 16.621 18.221 16.8 18 16.8H16.8V12.8H18.4V16.4Z"/>
<path d="M7.234 6.03403L8.365 7.16503L8.965 6.56503C9.33 6.20003 9.531 5.71503 9.531 5.19903C9.531 4.68303 9.33 4.19803 8.965 3.83303C8.881 3.74903 8.868 3.65003 8.868 3.59903C8.868 3.54803 8.881 3.44903 8.965 3.36503L9.565 2.76503L8.434 1.63403L7.834 2.23403C7.469 2.59903 7.268 3.08403 7.268 3.60003C7.268 4.11603 7.469 4.60103 7.834 4.96603C7.918 5.05003 7.931 5.14903 7.931 5.20003C7.931 5.25103 7.918 5.35003 7.834 5.43403L7.234 6.03403Z"/>
<path d="M11.234 6.03403L12.365 7.16503L12.965 6.56503C13.33 6.20003 13.531 5.71503 13.531 5.19903C13.531 4.68303 13.33 4.19803 12.965 3.83303C12.881 3.74903 12.868 3.65003 12.868 3.59903C12.868 3.54803 12.881 3.44903 12.965 3.36503L13.565 2.76503L12.434 1.63403L11.834 2.23403C11.469 2.59903 11.268 3.08403 11.268 3.60003C11.268 4.11603 11.469 4.60103 11.834 4.96603C11.918 5.05003 11.931 5.14903 11.931 5.20003C11.931 5.25103 11.918 5.35003 11.834 5.43403L11.234 6.03403Z"/>
</svg>
