<svg width="24" height="24" viewBox="0 0 24 24" xmlns="http://www.w3.org/2000/svg">
<path d="M9.36622 1.43506L8.23522 2.56606L9.66922 4.00006L2.53121 11.1371C1.28321 12.3851 1.28321 14.4151 2.53121 15.6621L6.73722 19.8681C7.34122 20.4721 8.14522 20.8051 9.00022 20.8051C9.85522 20.8051 10.6582 20.4721 11.2632 19.8681L19.5322 11.5991L9.36622 1.43506ZM15.6692 10.0001H5.93121L10.8002 5.13106L15.6692 10.0001ZM10.1312 18.7371C9.82922 19.0391 9.42722 19.2061 9.00022 19.2061C8.57322 19.2061 8.17122 19.0401 7.86922 18.7371L3.66321 14.5311C3.03921 13.9071 3.03921 12.8921 3.66321 12.2681L4.33221 11.5991H17.2692L10.1312 18.7371ZM21.5852 19.3181C21.4512 17.6701 20.1862 16.3241 19.9332 16.0701L18.8002 14.9341L17.6672 16.0701C17.4132 16.3241 16.1492 17.6701 16.0152 19.3181C16.0052 19.4151 16.0002 19.5071 16.0002 19.6001C16.0002 21.1441 17.2562 22.4001 18.8002 22.4001C20.3442 22.4001 21.6002 21.1441 21.6002 19.6001C21.6002 19.5071 21.5952 19.4151 21.5852 19.3181ZM18.8002 20.8001C18.1372 20.8001 17.6002 20.2631 17.6002 19.6001C17.6002 19.5541 17.6032 19.5091 17.6082 19.4651C17.6922 18.3121 18.8002 17.2001 18.8002 17.2001C18.8002 17.2001 19.9082 18.3121 19.9922 19.4651C19.9972 19.5091 20.0002 19.5541 20.0002 19.6001C20.0002 20.2631 19.4632 20.8001 18.8002 20.8001Z"/>
</svg>
