<svg width="24" height="24" viewBox="0 0 24 24" xmlns="http://www.w3.org/2000/svg">
<path d="M16.8 7.2001H7.2V5.6001H16.8V7.2001ZM7.2 10.4001H12V8.8001H7.2V10.4001ZM9.7 20.7001C9.203 20.7001 8.8 21.1031 8.8 21.6001C8.8 22.0971 9.203 22.5001 9.7 22.5001C10.197 22.5001 10.6 22.0971 10.6 21.6001C10.6 21.1031 10.197 20.7001 9.7 20.7001ZM22.4 17.6001C22.4 20.6881 19.888 23.2001 16.8 23.2001C13.712 23.2001 11.2 20.6881 11.2 17.6001C11.2 14.5121 13.712 12.0001 16.8 12.0001C17.356 12.0001 17.893 12.0831 18.4 12.2341V3.2001H5.6V20.8001H7.2V22.4001H4V1.6001H20V13.0081C21.449 14.0211 22.4 15.7011 22.4 17.6001ZM20.8 17.6001C20.8 15.3941 19.006 13.6001 16.8 13.6001C14.594 13.6001 12.8 15.3941 12.8 17.6001C12.8 19.8061 14.594 21.6001 16.8 21.6001C19.006 21.6001 20.8 19.8061 20.8 17.6001ZM18.947 16.0411L17.6 16.4901V15.1981H16V16.4901L14.653 16.0411L14.147 17.5591L15.53 18.0201L14.745 19.1411L16.056 20.0591L16.801 18.9951L17.546 20.0591L18.857 19.1411L18.072 18.0201L19.455 17.5591L18.949 16.0411H18.947Z"/>
</svg>
