<svg width="24" height="24" viewBox="0 0 24 24" xmlns="http://www.w3.org/2000/svg">
<path d="M13.8791 6.79395C13.5531 6.56995 13.1371 6.52195 12.7681 6.66395L7.24007 8.79995H3.60107C2.49807 8.79995 1.60107 9.69695 1.60107 10.7999V13.1999C1.60107 14.3029 2.49807 15.1999 3.60107 15.1999H4.00107C4.00807 17.4069 5.80507 19.1999 8.01307 19.1999V17.5999C6.68707 17.5999 5.60807 16.5239 5.60107 15.1999H7.24007L12.7681 17.3359C12.9081 17.3899 13.0551 17.4169 13.2011 17.4169C13.4401 17.4169 13.6771 17.346 13.8801 17.207C14.2071 16.983 14.4011 16.6129 14.4011 16.2169V7.78395C14.4011 7.38795 14.2061 7.01795 13.8801 6.79395H13.8791ZM3.20007 13.1999V10.7999C3.20007 10.5789 3.37907 10.3999 3.60007 10.3999H6.40007V13.5999H3.60007C3.37907 13.5999 3.20007 13.4209 3.20007 13.1999ZM12.8001 15.6329L8.00007 13.7779V10.2209L12.8001 8.36595V15.6329Z"/>
<path d="M16.8251 7.17495L15.6821 8.31795C16.8411 9.13295 17.6001 10.4789 17.6001 11.9999C17.6001 13.5209 16.8411 14.867 15.6821 15.6819L16.8251 16.8249C18.2681 15.7079 19.2001 13.9609 19.2001 11.9999C19.2001 10.0389 18.2681 8.29095 16.8251 7.17495Z"/>
<path d="M19.6761 5.42395C19.4911 5.23895 19.2991 5.06495 19.1021 4.89795L17.9671 6.03295C18.1671 6.19595 18.3601 6.37095 18.5441 6.55595C19.9981 8.00995 20.7991 9.94395 20.7991 12.0009C20.7991 14.4029 19.6921 16.5519 17.9631 17.9649L19.0991 19.1009C21.1161 17.3939 22.3991 14.8449 22.3991 12.0009C22.3991 9.51695 21.4321 7.18095 19.6751 5.42495L19.6761 5.42395Z"/>
</svg>
