<svg width="24" height="24" viewBox="0 0 24 24" xmlns="http://www.w3.org/2000/svg">
<path d="M8.57595 13.7691C8.93395 13.7691 9.28695 13.6291 9.54895 13.3671L12.467 10.4491C12.848 10.0681 12.971 9.49612 12.78 8.99112L10.995 4.27312C10.856 3.90512 10.565 3.61412 10.196 3.47412L5.47795 1.68912C4.97395 1.49812 4.40195 1.62112 4.02095 2.00212L1.10295 4.92012C0.721951 5.30112 0.598951 5.87312 0.789951 6.37712L1.62295 8.57912H1.60095V15.7981H3.20095V11.8121C3.25695 11.8421 3.31395 11.8711 3.37395 11.8931L8.09195 13.6781C8.24995 13.7381 8.41395 13.7671 8.57695 13.7671L8.57595 13.7691ZM2.33695 5.94912L5.04795 3.23812L8.71295 4.62512L5.93095 7.40712L7.06195 8.53812L9.84395 5.75612L11.231 9.42112L8.51995 12.1321L4.03395 10.4351L2.33695 5.94912ZM22.4 12.5211C22.4 12.2831 22.33 12.0531 22.198 11.8551L19.184 7.33412C18.961 6.99912 18.588 6.80012 18.186 6.80012H14.4V12.4001H16V8.40012H17.972L20.8 12.6421V17.6001H18.883C18.538 16.4451 17.466 15.6001 16.2 15.6001C14.934 15.6001 13.862 16.4451 13.517 17.6001H10.483C10.138 16.4451 9.06595 15.6001 7.79995 15.6001C6.25595 15.6001 4.99995 16.8561 4.99995 18.4001C4.99995 19.9441 6.25595 21.2001 7.79995 21.2001C9.06595 21.2001 10.138 20.3551 10.483 19.2001H13.517C13.862 20.3551 14.934 21.2001 16.2 21.2001C17.466 21.2001 18.538 20.3551 18.883 19.2001H22.4V12.5211ZM7.79995 19.6001C7.13795 19.6001 6.59995 19.0621 6.59995 18.4001C6.59995 17.7381 7.13795 17.2001 7.79995 17.2001C8.46195 17.2001 8.99995 17.7381 8.99995 18.4001C8.99995 19.0621 8.46195 19.6001 7.79995 19.6001ZM16.2 19.6001C15.538 19.6001 15 19.0621 15 18.4001C15 17.7381 15.538 17.2001 16.2 17.2001C16.862 17.2001 17.4 17.7381 17.4 18.4001C17.4 19.0621 16.862 19.6001 16.2 19.6001ZM3.29995 18.3001C3.29995 18.7971 2.89695 19.2001 2.39995 19.2001C1.90295 19.2001 1.49995 18.7971 1.49995 18.3001C1.49995 17.8031 1.90295 17.4001 2.39995 17.4001C2.89695 17.4001 3.29995 17.8031 3.29995 18.3001Z"/>
</svg>
