<svg width="24" height="24" viewBox="0 0 24 24" xmlns="http://www.w3.org/2000/svg">
<path d="M20.962 20.8001L20.5411 19.1151C20.3181 18.2231 19.5201 17.6001 18.601 17.6001H18.3241L14.4521 2.5021C14.3161 1.9711 13.838 1.6001 13.29 1.6001H10.7111C10.1631 1.6001 9.68505 1.9711 9.54905 2.5021L5.67805 17.6001H5.40105C4.48205 17.6001 3.68405 18.2231 3.46105 19.1151L3.04005 20.8001H1.60205V22.4001H22.3391V20.8001H20.962ZM11.0001 16.0001V14.4001H8.14905L8.55905 12.8001H11.4001V11.2001H8.96905L9.37905 9.6001H11.5991V8.0001H9.78905L10.1991 6.4001H11.7991V4.8001H10.6101L11.0201 3.2001H12.9781L16.6701 17.6001H7.32705L7.73705 16.0001H11.0001ZM5.01205 19.5031C5.05705 19.3251 5.21605 19.2001 5.40005 19.2001H18.6C18.784 19.2001 18.9431 19.3251 18.9881 19.5031L19.312 20.8001H4.68805L5.01205 19.5031ZM14.4001 15.2001C14.4001 15.6971 13.9971 16.1001 13.5001 16.1001C13.0031 16.1001 12.6001 15.6971 12.6001 15.2001C12.6001 14.7031 13.0031 14.3001 13.5001 14.3001C13.9971 14.3001 14.4001 14.7031 14.4001 15.2001Z"/>
</svg>
