<svg width="24" height="24" viewBox="0 0 24 24" xmlns="http://www.w3.org/2000/svg">
<path d="M12.0001 14.4C10.6771 14.4 9.6001 13.323 9.6001 12C9.6001 10.677 10.6771 9.59995 12.0001 9.59995C13.3231 9.59995 14.4001 10.677 14.4001 12C14.4001 13.323 13.3231 14.4 12.0001 14.4ZM12.0001 11.2C11.5591 11.2 11.2001 11.559 11.2001 12C11.2001 12.441 11.5591 12.8 12.0001 12.8C12.4411 12.8 12.8001 12.441 12.8001 12C12.8001 11.559 12.4411 11.2 12.0001 11.2Z"/>
<path d="M12.0001 20.8C10.6771 20.8 9.6001 19.7229 9.6001 18.4C9.6001 17.077 10.6771 16 12.0001 16C13.3231 16 14.4001 17.077 14.4001 18.4C14.4001 19.7229 13.3231 20.8 12.0001 20.8ZM12.0001 17.6C11.5591 17.6 11.2001 17.959 11.2001 18.4C11.2001 18.841 11.5591 19.2 12.0001 19.2C12.4411 19.2 12.8001 18.841 12.8001 18.4C12.8001 17.959 12.4411 17.6 12.0001 17.6Z"/>
<path d="M12.0001 7.99995C10.6771 7.99995 9.6001 6.92295 9.6001 5.59995C9.6001 4.27695 10.6771 3.19995 12.0001 3.19995C13.3231 3.19995 14.4001 4.27695 14.4001 5.59995C14.4001 6.92295 13.3231 7.99995 12.0001 7.99995ZM12.0001 4.79995C11.5591 4.79995 11.2001 5.15895 11.2001 5.59995C11.2001 6.04095 11.5591 6.39995 12.0001 6.39995C12.4411 6.39995 12.8001 6.04095 12.8001 5.59995C12.8001 5.15895 12.4411 4.79995 12.0001 4.79995Z"/>
</svg>
