<svg width="24" height="24" viewBox="0 0 24 24" xmlns="http://www.w3.org/2000/svg">
<path d="M20.8001 19.2V12.4C20.8001 10.856 19.5441 9.59995 18.0001 9.59995H17.6001V7.99995C17.6001 7.11795 16.8821 6.39995 16.0001 6.39995H14.2621C14.3511 6.14995 14.4001 5.87995 14.4001 5.59995C14.4001 4.27695 13.3231 3.19995 12.0001 3.19995C10.6771 3.19995 9.6001 4.27695 9.6001 5.59995C9.6001 5.87995 9.6491 6.14995 9.7381 6.39995H8.0001C7.1181 6.39995 6.4001 7.11795 6.4001 7.99995V9.59995H6.0001C4.4561 9.59995 3.2001 10.856 3.2001 12.4V19.2H1.6001V20.8H22.4001V19.2H20.8001ZM11.2001 5.59995C11.2001 5.15895 11.5591 4.79995 12.0001 4.79995C12.4411 4.79995 12.8001 5.15895 12.8001 5.59995C12.8001 6.04095 12.4411 6.39995 12.0001 6.39995C11.5591 6.39995 11.2001 6.04095 11.2001 5.59995ZM8.0001 7.99995H16.0001V9.59995H8.0001V7.99995ZM18.0001 11.2C18.6621 11.2 19.2001 11.738 19.2001 12.4V13.75C18.6531 13.969 18.3061 14.383 18.0521 14.688C17.7291 15.075 17.6021 15.2 17.3331 15.2C17.0641 15.2 16.9371 15.075 16.6141 14.688C16.2531 14.255 15.7071 13.6 14.6661 13.6C13.6251 13.6 13.0791 14.255 12.7181 14.688C12.3951 15.075 12.2691 15.2 11.9991 15.2C11.7291 15.2 11.6031 15.075 11.2801 14.688C10.9191 14.255 10.3741 13.6 9.3321 13.6C8.2901 13.6 7.7451 14.255 7.3841 14.688C7.0611 15.075 6.9351 15.2 6.6651 15.2C6.3951 15.2 6.2691 15.075 5.9461 14.688C5.6921 14.383 5.3451 13.968 4.7981 13.75V12.4C4.7981 11.738 5.3361 11.2 5.9981 11.2H18.0001ZM4.8001 19.2V15.809C5.1611 16.236 5.7001 16.8 6.6661 16.8C7.7071 16.8 8.2531 16.145 8.6141 15.712C8.9371 15.325 9.0631 15.2 9.3331 15.2C9.6031 15.2 9.7291 15.325 10.0521 15.712C10.4131 16.145 10.9581 16.8 12.0001 16.8C13.0421 16.8 13.5871 16.145 13.9481 15.712C14.2711 15.325 14.3971 15.2 14.6671 15.2C14.9371 15.2 15.0631 15.325 15.3861 15.712C15.7471 16.145 16.2931 16.8 17.3341 16.8C18.3011 16.8 18.8401 16.236 19.2011 15.809V19.2H4.8001Z"/>
</svg>
