<svg width="24" height="24" viewBox="0 0 24 24" xmlns="http://www.w3.org/2000/svg">
<path d="M22.4 16.8001C22.4 13.7121 19.8881 11.2001 16.8 11.2001C16.7611 11.2001 16.722 11.2021 16.683 11.2031L14.4521 2.5021C14.3161 1.9711 13.838 1.6001 13.29 1.6001H10.7111C10.163 1.6001 9.68505 1.9711 9.54905 2.5021L5.67805 17.6001H5.40105C4.48205 17.6001 3.68405 18.2231 3.46105 19.1151L3.04005 20.8001H1.60205V22.4001H22.339V20.8001H20.716C21.755 19.7831 22.4021 18.3661 22.4021 16.8001H22.4ZM20.8 16.8001C20.8 19.0061 19.0061 20.8001 16.8 20.8001C14.594 20.8001 12.8 19.0061 12.8 16.8001C12.8 14.5941 14.594 12.8001 16.8 12.8001C19.0061 12.8001 20.8 14.5941 20.8 16.8001ZM10.4001 16.0001V14.4001H8.14905L8.55905 12.8001H10.8V11.2001H8.96905L9.37905 9.6001H11.2991V8.0001H9.78905L10.199 6.4001H11.7991V4.8001H10.609L11.019 3.2001H12.977L15.0961 11.4651C12.8381 12.1871 11.1981 14.3051 11.1981 16.8001C11.1981 17.0721 11.219 17.3391 11.256 17.6001H7.32605L7.73605 16.0001H10.4001ZM4.68805 20.8001L5.01205 19.5031C5.05705 19.3251 5.21605 19.2001 5.40005 19.2001H11.741C12.0271 19.8001 12.416 20.3401 12.886 20.8001H4.68805ZM18.9 18.6001H17.5V15.0001H18.9V18.6001ZM14.7 15.0001H16.1V18.6001H14.7V15.0001Z"/>
</svg>
