<svg width="24" height="24" viewBox="0 0 24 24" xmlns="http://www.w3.org/2000/svg">
<path d="M22.2391 17.123L21.6001 15.078V13.6C21.6001 11.022 20.5921 8.60295 18.7631 6.78695C17.7311 5.76295 16.5091 5.00295 15.1771 4.53695C15.0511 3.77995 14.3931 3.19995 13.6011 3.19995H10.4011C9.60312 3.19995 8.94212 3.78695 8.82212 4.55195C5.08912 5.88595 2.40112 9.49595 2.40112 13.711V15.078L1.76212 17.123C1.60912 17.614 1.69512 18.133 2.00012 18.548C2.30512 18.963 2.77512 19.2 3.28912 19.2H20.7131C21.2281 19.2 21.6971 18.962 22.0021 18.548C22.3071 18.133 22.3931 17.614 22.2391 17.123ZM3.28812 17.6L3.78812 16H15.0001V14.4H4.00012V13.71C4.00012 11.894 4.59612 10.213 5.60012 8.85695V11.999H7.20012V7.23195C7.69312 6.85495 8.22912 6.53495 8.80012 6.27995V9.59795H10.4001V4.79795H13.6001V9.59795H15.2001V6.26295C15.7651 6.50895 16.3021 6.82195 16.8011 7.19795V11.998H18.4011V8.79595C19.4391 10.173 20.0011 11.841 20.0011 13.598V15.32L20.7131 17.598H3.28812V17.6Z"/>
<path d="M17.5001 16.1C17.9972 16.1 18.4001 15.697 18.4001 15.2C18.4001 14.7029 17.9972 14.3 17.5001 14.3C17.0031 14.3 16.6001 14.7029 16.6001 15.2C16.6001 15.697 17.0031 16.1 17.5001 16.1Z"/>
</svg>
