<svg width="24" height="24" viewBox="0 0 24 24" xmlns="http://www.w3.org/2000/svg">
<path d="M11.9999 2.3999C6.7069 2.3999 2.3999 6.7069 2.3999 11.9999C2.3999 17.2929 6.7069 21.5999 11.9999 21.5999C17.2929 21.5999 21.5999 17.2929 21.5999 11.9999C21.5999 6.7069 17.2929 2.3999 11.9999 2.3999ZM11.9999 19.9999C7.5889 19.9999 3.9999 16.4109 3.9999 11.9999C3.9999 7.5889 7.5889 3.9999 11.9999 3.9999C16.4109 3.9999 19.9999 7.5889 19.9999 11.9999C19.9999 16.4109 16.4109 19.9999 11.9999 19.9999ZM14.5659 7.7659L10.3319 11.9999L14.5659 16.2339L13.4349 17.3649L8.0689 11.9989L13.4349 6.6329L14.5659 7.7639V7.7659Z"/>
</svg>
