<svg width="24" height="24" viewBox="0 0 24 24" xmlns="http://www.w3.org/2000/svg">
<path d="M20.4 4.7998H8.39998C7.29698 4.7998 6.39998 5.6968 6.39998 6.7998V7.9998H3.59998C2.49698 7.9998 1.59998 8.8968 1.59998 9.9998V17.1998C1.59998 18.3028 2.49698 19.1998 3.59998 19.1998H15.6C16.703 19.1998 17.6 18.3028 17.6 17.1998V15.9998H20.4C21.503 15.9998 22.4 15.1028 22.4 13.9998V6.7998C22.4 5.6968 21.503 4.7998 20.4 4.7998ZM8.39998 6.3998H20.4C20.621 6.3998 20.8 6.5788 20.8 6.7998V7.9998H7.99998V6.7998C7.99998 6.5788 8.17898 6.3998 8.39998 6.3998ZM3.59998 9.5998H6.39998V11.1998H3.19998V9.9998C3.19998 9.7788 3.37898 9.5998 3.59998 9.5998ZM16 17.1998C16 17.4208 15.821 17.5998 15.6 17.5998H3.59998C3.37898 17.5998 3.19998 17.4208 3.19998 17.1998V12.7998H6.39998V13.9998C6.39998 15.1028 7.29698 15.9998 8.39998 15.9998H16V17.1998ZM20.4 14.3998H8.39998C8.17898 14.3998 7.99998 14.2208 7.99998 13.9998V9.5998H20.8V13.9998C20.8 14.2208 20.621 14.3998 20.4 14.3998Z"/>
</svg>
