<svg width="24" height="24" viewBox="0 0 24 24" xmlns="http://www.w3.org/2000/svg">
<path fill-rule="evenodd" clip-rule="evenodd" d="M15.6004 10.5759H8.40039V9.3729H15.6004V10.5759ZM13.2004 16.2879C13.1914 15.6329 12.6474 15.1079 11.9844 15.1169C11.3214 15.1259 10.7914 15.6639 10.8004 16.3199C10.8094 16.9689 11.3434 17.4909 12.0004 17.4909C12.6674 17.4859 13.2044 16.9479 13.2004 16.2879ZM12.0004 19.8969C16.2324 19.8969 19.7424 16.7599 20.3204 12.6789H19.1014C18.5324 16.0929 15.5684 18.6929 12.0004 18.6929C10.6374 18.7309 9.50039 17.6679 9.46239 16.3199C9.42439 14.9709 10.4984 13.8479 11.8614 13.8099C13.2244 13.7719 14.3614 14.8349 14.3994 16.1829C14.4074 16.4749 14.3634 16.7659 14.2674 17.0429C14.7434 16.8469 15.1904 16.5909 15.6004 16.2809C15.6004 14.2959 13.9874 12.6809 12.0004 12.6809C10.0134 12.6809 8.40039 14.2959 8.40039 16.2889C8.40039 18.2819 10.0124 19.8969 12.0004 19.8969ZM3.69539 12.6789C4.06139 15.2769 5.63139 17.5569 7.94039 18.8459C7.45639 18.0789 7.19939 17.1919 7.20039 16.2879V12.6789H3.69539ZM18.0004 11.4759H21.6004C21.6004 16.7909 17.3024 21.0999 12.0004 21.0999C6.69839 21.0999 2.40039 16.7909 2.40039 11.4759H8.40039V13.1129C9.30239 12.0749 10.6164 11.4769 12.0004 11.4759C14.2904 11.4759 16.2024 13.0839 16.6814 15.2349C17.5384 14.1659 18.0034 12.8409 18.0004 11.4759ZM15.0004 4.8589C16.3344 4.8679 17.4084 5.9449 17.4004 7.2649V8.4689H16.2004V7.2649C16.2044 6.6049 15.6674 6.0669 15.0004 6.0619C14.8964 6.0639 14.7924 6.0789 14.6914 6.1069C14.8914 6.4609 14.9974 6.8589 15.0004 7.2649V8.4689H13.8004V7.2649C13.8044 6.6049 13.2674 6.0669 12.6004 6.0619V8.4679H11.4004V6.0649C10.7334 6.0689 10.1964 6.6079 10.2004 7.2679V8.4679H9.00039V7.2639C9.00239 6.8589 9.10839 6.4609 9.30939 6.1069C9.20839 6.0789 9.10539 6.0649 9.00039 6.0639C8.33339 6.0679 7.79639 6.6069 7.80039 7.2669V8.4669H6.60039V7.2629C6.59139 5.9429 7.66639 4.8659 9.00039 4.8569C9.42539 4.8569 9.84239 4.9709 10.2064 5.1869C10.7394 4.8619 11.3844 4.7719 11.9874 4.9389C12.1874 4.8859 12.3934 4.8599 12.6004 4.8599C13.0234 4.8619 13.4384 4.9769 13.8004 5.1929C14.1634 4.9769 14.5774 4.8609 15.0004 4.8589ZM12.2624 3.4669H12.8284V3.9919H12.2624V4.5619H11.7394V3.9919H11.1734V3.4669H11.7394V2.8999H12.2624V3.4669Z"/>
</svg>
