<svg width="24" height="24" viewBox="0 0 24 24" xmlns="http://www.w3.org/2000/svg">
<path d="M6.49988 21.7001C6.49988 22.1971 6.09688 22.6001 5.59988 22.6001C5.10288 22.6001 4.69988 22.1971 4.69988 21.7001C4.69988 21.2031 5.10288 20.8001 5.59988 20.8001C6.09688 20.8001 6.49988 21.2031 6.49988 21.7001ZM9.99988 4.4001C9.99988 2.8561 8.74388 1.6001 7.19988 1.6001C5.65588 1.6001 4.39988 2.8561 4.39988 4.4001C4.39988 5.9441 5.65588 7.2001 7.19988 7.2001C8.74388 7.2001 9.99988 5.9441 9.99988 4.4001ZM8.39988 4.4001C8.39988 5.0621 7.86188 5.6001 7.19988 5.6001C6.53788 5.6001 5.99988 5.0621 5.99988 4.4001C5.99988 3.7381 6.53788 3.2001 7.19988 3.2001C7.86188 3.2001 8.39988 3.7381 8.39988 4.4001ZM9.59988 16.9301L11.7589 10.4531C11.8839 10.0781 11.8129 9.6521 11.5699 9.3151C11.3339 8.9881 10.9809 8.8001 10.5999 8.8001H3.79988C3.41888 8.8001 3.06588 8.9881 2.82988 9.3151C2.58588 9.6531 2.51588 10.0781 2.64088 10.4531L4.79988 16.9301V19.2001H6.39988V16.6701L4.30988 10.4001H10.0899L7.99988 16.6701V22.4001H9.59988V16.9301ZM15.1999 20.8001C14.7029 20.8001 14.2999 21.2031 14.2999 21.7001C14.2999 22.1971 14.7029 22.6001 15.1999 22.6001C15.6969 22.6001 16.0999 22.1971 16.0999 21.7001C16.0999 21.2031 15.6969 20.8001 15.1999 20.8001ZM19.5999 4.4001C19.5999 2.8561 18.3439 1.6001 16.7999 1.6001C15.2559 1.6001 13.9999 2.8561 13.9999 4.4001C13.9999 5.9441 15.2559 7.2001 16.7999 7.2001C18.3439 7.2001 19.5999 5.9441 19.5999 4.4001ZM17.9999 4.4001C17.9999 5.0621 17.4619 5.6001 16.7999 5.6001C16.1379 5.6001 15.5999 5.0621 15.5999 4.4001C15.5999 3.7381 16.1379 3.2001 16.7999 3.2001C17.4619 3.2001 17.9999 3.7381 17.9999 4.4001ZM19.1999 17.6001H20.1999C20.5979 17.6001 20.9709 17.4111 21.1999 17.0941C21.4209 16.7871 21.4789 16.4061 21.3599 16.0501L19.2589 9.6461C19.0929 9.1471 18.6159 8.7991 18.0999 8.7991H15.4999C14.9839 8.7991 14.5069 9.1471 14.3399 9.6501L12.2409 16.0461C12.1209 16.4051 12.1789 16.7871 12.3999 17.0931C12.6279 17.4101 13.0019 17.5991 13.3999 17.5991H14.3999V19.1991H15.9999V15.9991H13.9399L15.7769 10.3991H17.8209L19.6589 15.9991H17.5989V22.3991H19.1989V17.5991L19.1999 17.6001ZM19.8409 16.5531C19.8409 16.5531 19.8409 16.5511 19.8399 16.5491V16.5531H19.8409Z"/>
</svg>
