<svg width="24" height="24" viewBox="0 0 24 24" xmlns="http://www.w3.org/2000/svg">
<path d="M22.6001 5.5001C22.6001 5.9971 22.1971 6.4001 21.7001 6.4001C21.2031 6.4001 20.8001 5.9971 20.8001 5.5001C20.8001 5.0031 21.2031 4.6001 21.7001 4.6001C22.1971 4.6001 22.6001 5.0031 22.6001 5.5001ZM12.0001 4.8001H19.2001V6.4001H17.5831V11.7981C18.0831 12.2381 18.4001 12.8821 18.4001 13.6001C18.4001 14.9231 17.3231 16.0001 16.0001 16.0001C14.6771 16.0001 13.6001 14.9231 13.6001 13.6001H15.2001C15.2001 14.0411 15.5591 14.4001 16.0001 14.4001C16.4411 14.4001 16.8001 14.0411 16.8001 13.6001C16.8001 13.1591 16.4411 12.8001 16.0001 12.8001H15.9831V6.4001H12.0001V8.4001C12.0001 9.0621 11.4621 9.6001 10.8001 9.6001H10.6001V20.8001H12.0001V22.4001H4.0001V20.8001H5.6001V9.6001H5.2001C4.5381 9.6001 4.0001 9.0621 4.0001 8.4001V6.4001H1.6001V4.8001H4.0001V2.8001C4.0001 2.1381 4.5381 1.6001 5.2001 1.6001H10.8001C11.4621 1.6001 12.0001 2.1381 12.0001 2.8001V4.8001ZM5.6001 8.0001H10.4001V3.2001H5.6001V8.0001ZM7.2001 17.6001H9.0001V16.2001H7.2001V17.6001ZM9.0001 12.8001H7.2001V14.6001H9.0001V12.8001ZM9.0001 20.8001V19.2001H7.2001V20.8001H9.0001ZM9.0001 9.6001H7.2001V11.2001H9.0001V9.6001Z"/>
</svg>
