<svg width="24" height="24" viewBox="0 0 24 24" xmlns="http://www.w3.org/2000/svg">
<path d="M6.4002 17.3999H8.0002V22.3999H6.4002V17.3999ZM3.2002 22.3999H4.8002V17.3999H3.2002V22.3999ZM12.8002 22.3999H14.4002V17.3999H12.8002V22.3999ZM9.6002 22.3999H11.2002V17.3999H9.6002V22.3999ZM19.2002 17.3999V22.3999H20.8002V17.3999H19.2002ZM16.0002 22.3999H17.6002V17.3999H16.0002V22.3999ZM14.4002 15.9999V13.8309L11.5512 10.9819C11.3242 10.7549 11.2002 10.4539 11.2002 10.1329V7.9879L9.6002 9.5379V10.3989H8.0002V9.3679C8.0002 9.0449 8.1332 8.7309 8.3652 8.5059L10.8462 6.1019C10.1042 5.6929 9.6002 4.9039 9.6002 3.9979C9.6002 2.6749 10.6772 1.5979 12.0002 1.5979C13.3232 1.5979 14.4002 2.6749 14.4002 3.9979C14.4002 5.0409 13.7312 5.9299 12.8002 6.2599V9.9659L15.6492 12.8149C15.8762 13.0419 16.0002 13.3429 16.0002 13.6639V15.9979H14.4002V15.9999ZM11.2002 3.9999C11.2002 4.4409 11.5592 4.7999 12.0002 4.7999C12.4412 4.7999 12.8002 4.4409 12.8002 3.9999C12.8002 3.5589 12.4412 3.1999 12.0002 3.1999C11.5592 3.1999 11.2002 3.5589 11.2002 3.9999ZM7.4342 14.8339L8.5652 15.9649L11.3652 13.1649L10.2342 12.0339L7.4342 14.8339ZM14.4002 9.4559L15.0282 10.0629C15.2532 10.2799 15.5492 10.3999 15.8622 10.3999H16.8002V8.7999H16.0232L14.4002 7.2309V9.4559Z"/>
</svg>
