<svg width="24" height="24" viewBox="0 0 24 24" xmlns="http://www.w3.org/2000/svg">
<path d="M12.331 1.6001H4V22.4001H7V20.8001H5.6V3.2001H11.2V10.4001H18.4V20.8001H12V22.4001H20V9.2691L12.331 1.6001ZM12.8 4.3311L17.269 8.8001H12.8V4.3311ZM10.4 21.6001C10.4 21.7781 10.3472 21.9521 10.2483 22.1001C10.1494 22.2481 10.0089 22.3635 9.84442 22.4316C9.67996 22.4997 9.499 22.5175 9.32442 22.4828C9.14984 22.4481 8.98947 22.3624 8.8636 22.2365C8.73774 22.1106 8.65202 21.9503 8.61729 21.7757C8.58257 21.6011 8.60039 21.4201 8.66851 21.2557C8.73663 21.0912 8.85198 20.9507 8.99999 20.8518C9.14799 20.7529 9.322 20.7001 9.5 20.7001C9.73869 20.7001 9.96761 20.7949 10.1364 20.9637C10.3052 21.1325 10.4 21.3614 10.4 21.6001ZM9.535 16.0061L10.327 16.2831L10.294 16.3771C10.068 17.0291 9.594 17.3601 8.894 17.3601C7.928 17.3601 7.328 16.6871 7.328 15.6051C7.328 14.5231 7.928 13.8581 8.851 13.8581C9.513 13.8581 9.945 14.1181 10.21 14.6761L10.252 14.7641L9.481 15.1521L9.439 15.0521C9.39494 14.9311 9.31507 14.8264 9.21003 14.7519C9.10499 14.6774 8.97976 14.6367 8.851 14.6351C8.337 14.6351 8.229 15.1611 8.229 15.6011C8.229 15.9721 8.315 16.5931 8.894 16.5931C9.264 16.5931 9.43 16.3241 9.504 16.0931L9.536 15.9931L9.535 16.0061ZM13.362 16.3001C13.362 16.7921 13.011 17.3671 12.024 17.3671C11.4802 17.3631 10.9586 17.1505 10.567 16.7731L10.5 16.7111L10.993 16.0791L11.073 16.1621C11.289 16.3861 11.673 16.6131 12.003 16.6131C12.146 16.6131 12.479 16.5871 12.479 16.3481C12.479 16.1931 12.34 16.1051 11.907 15.9841L11.858 15.9701C11.302 15.8151 10.672 15.6391 10.672 14.9161C10.672 14.2881 11.172 13.8661 11.92 13.8661C12.3924 13.8778 12.8473 14.0475 13.212 14.3481L13.282 14.4041L12.848 15.0751L12.761 14.9991C12.561 14.8241 12.216 14.6371 11.936 14.6371C11.846 14.6371 11.554 14.6531 11.554 14.8551C11.554 15.0141 11.679 15.0921 12.134 15.2191C12.651 15.3581 13.36 15.5491 13.36 16.3001H13.362ZM16.689 13.9181L15.524 17.3131H14.719L13.578 13.9891L14.456 13.8551L15.137 15.9831L15.82 13.9181H16.689Z"/>
</svg>
