<svg width="24" height="24" viewBox="0 0 24 24" xmlns="http://www.w3.org/2000/svg">
<path d="M11.9999 7.99995C13.3229 7.99995 14.3999 6.92295 14.3999 5.59995C14.3999 4.27695 13.3229 3.19995 11.9999 3.19995C10.6769 3.19995 9.59992 4.27695 9.59992 5.59995C9.59992 6.92295 10.6769 7.99995 11.9999 7.99995ZM11.9999 4.79995C12.4409 4.79995 12.7999 5.15895 12.7999 5.59995C12.7999 6.04095 12.4409 6.39995 11.9999 6.39995C11.5589 6.39995 11.1999 6.04095 11.1999 5.59995C11.1999 5.15895 11.5589 4.79995 11.9999 4.79995ZM9.69992 20C9.69992 20.497 9.29692 20.9 8.79992 20.9C8.30292 20.9 7.89992 20.497 7.89992 20C7.89992 19.503 8.30292 19.1 8.79992 19.1C9.29692 19.1 9.69992 19.503 9.69992 20ZM15.9999 10.651V20.8H14.3999V11.007C13.6219 11.134 12.8189 11.2 11.9999 11.2C11.1809 11.2 10.3779 11.134 9.59992 11.007V17.4H7.99992V10.651C6.13692 10.119 4.48092 9.21495 3.19092 8.00895L4.32492 6.87495C6.18692 8.57895 9.00692 9.59995 11.9989 9.59995C14.9909 9.59995 17.8119 8.57795 19.6739 6.87395L20.8079 8.00795C19.5179 9.21395 17.8619 10.118 15.9989 10.65L15.9999 10.651Z"/>
</svg>
