<svg width="24" height="24" viewBox="0 0 24 24" xmlns="http://www.w3.org/2000/svg">
<path d="M16 4.80005C14.689 4.80005 13.46 5.15405 12.4 5.76805C11.34 5.15305 10.111 4.80005 8.80001 4.80005C4.83001 4.80005 1.60001 8.03005 1.60001 12C1.60001 15.97 4.83001 19.2 8.80001 19.2C10.111 19.2 11.34 18.847 12.4 18.232C13.46 18.847 14.689 19.2 16 19.2C19.97 19.2 23.2 15.97 23.2 12C23.2 8.03005 19.97 4.80005 16 4.80005ZM8.80001 17.6C5.71201 17.6 3.20001 15.088 3.20001 12C3.20001 8.91205 5.71201 6.40005 8.80001 6.40005C9.57401 6.40005 10.311 6.55905 10.982 6.84405C9.63801 8.15305 8.80001 9.98005 8.80001 12C8.80001 14.02 9.63701 15.847 10.982 17.156C10.311 17.441 9.57401 17.6 8.80001 17.6ZM16 17.6C12.912 17.6 10.4 15.088 10.4 12C10.4 8.91205 12.912 6.40005 16 6.40005C19.088 6.40005 21.6 8.91205 21.6 12C21.6 15.088 19.088 17.6 16 17.6ZM18.395 12.56C18.505 12.778 18.56 13.044 18.56 13.351C18.56 13.589 18.52 13.821 18.44 14.04C18.359 14.261 18.231 14.461 18.059 14.634C17.888 14.805 17.668 14.949 17.404 15.064C17.227 15.141 17.024 15.199 16.8 15.238V16.001H15.2V15.204C15.107 15.183 15.018 15.161 14.934 15.135C14.722 15.071 14.527 14.991 14.354 14.897C14.18 14.803 14.018 14.691 13.872 14.563C13.727 14.437 13.589 14.294 13.462 14.139L13.405 14.069L14.305 13.16L14.375 13.25C14.557 13.485 14.768 13.686 15.001 13.847C15.23 14.006 15.468 14.105 15.71 14.144C15.949 14.182 16.18 14.184 16.417 14.152C16.648 14.12 16.851 14.04 16.959 13.937C17.072 13.83 17.127 13.68 17.127 13.479C17.127 13.298 17.073 13.159 16.961 13.054C16.841 12.942 16.653 12.845 16.4 12.765L15.669 12.575C15.419 12.513 15.17 12.437 14.931 12.351C14.686 12.263 14.466 12.147 14.277 12.008C14.084 11.866 13.927 11.685 13.81 11.472C13.691 11.256 13.631 10.989 13.631 10.678C13.631 10.405 13.679 10.153 13.775 9.92805C13.871 9.70205 14.008 9.50405 14.183 9.34105C14.357 9.17905 14.571 9.04705 14.821 8.94905C14.94 8.90205 15.067 8.86405 15.2 8.83405V8.00205H16.8V8.84705C16.915 8.87105 17.022 8.89905 17.12 8.93005C17.307 8.99005 17.478 9.06405 17.627 9.15005C17.776 9.23605 17.913 9.33405 18.034 9.44305C18.153 9.54905 18.27 9.66605 18.383 9.79005L18.449 9.86205L17.509 10.764L17.44 10.69C17.29 10.529 17.13 10.381 16.965 10.248C16.807 10.122 16.619 10.028 16.405 9.97005C16.171 9.90605 15.895 9.91405 15.705 9.93205C15.5 9.95205 15.322 10.031 15.217 10.149C15.114 10.265 15.063 10.401 15.063 10.564C15.063 10.739 15.113 10.868 15.216 10.958C15.342 11.069 15.539 11.169 15.719 11.215C15.9 11.26 16.115 11.317 16.332 11.374L16.456 11.406C16.717 11.474 17.016 11.555 17.268 11.649C17.524 11.744 17.75 11.866 17.939 12.011C18.132 12.159 18.285 12.344 18.394 12.562L18.395 12.56Z"/>
</svg>
