<svg width="24" height="24" viewBox="0 0 24 24" xmlns="http://www.w3.org/2000/svg">
<path d="M12.8999 11.4001C12.8999 11.8971 12.4969 12.3001 11.9999 12.3001C11.5029 12.3001 11.0999 11.8971 11.0999 11.4001C11.0999 10.9031 11.5029 10.5001 11.9999 10.5001C12.4969 10.5001 12.8999 10.9031 12.8999 11.4001ZM15.5999 10.2001C15.1029 10.2001 14.6999 10.6031 14.6999 11.1001C14.6999 11.5971 15.1029 12.0001 15.5999 12.0001C16.0969 12.0001 16.4999 11.5971 16.4999 11.1001C16.4999 10.6031 16.0969 10.2001 15.5999 10.2001ZM8.3999 10.2001C7.9029 10.2001 7.4999 10.6031 7.4999 11.1001C7.4999 11.5971 7.9029 12.0001 8.3999 12.0001C8.8969 12.0001 9.2999 11.5971 9.2999 11.1001C9.2999 10.6031 8.8969 10.2001 8.3999 10.2001ZM11.9999 17.1011C11.5029 17.1011 11.0999 17.5041 11.0999 18.0011C11.0999 18.4981 11.5029 18.9011 11.9999 18.9011C12.4969 18.9011 12.8999 18.4981 12.8999 18.0011C12.8999 17.5041 12.4969 17.1011 11.9999 17.1011ZM15.5999 16.8001C15.1029 16.8001 14.6999 17.2031 14.6999 17.7001C14.6999 18.1971 15.1029 18.6001 15.5999 18.6001C16.0969 18.6001 16.4999 18.1971 16.4999 17.7001C16.4999 17.2031 16.0969 16.8001 15.5999 16.8001ZM8.3999 16.8001C7.9029 16.8001 7.4999 17.2031 7.4999 17.7001C7.4999 18.1971 7.9029 18.6001 8.3999 18.6001C8.8969 18.6001 9.2999 18.1971 9.2999 17.7001C9.2999 17.2031 8.8969 16.8001 8.3999 16.8001ZM21.5999 5.2001V18.8001C21.5999 19.5961 21.0559 20.7181 18.4649 21.5421C16.7269 22.0951 14.4309 22.4001 11.9999 22.4001C9.5689 22.4001 7.2729 22.0951 5.5349 21.5421C2.9439 20.7181 2.3999 19.5961 2.3999 18.8001V5.2001C2.3999 4.4041 2.9439 3.2821 5.5349 2.4581C7.2729 1.9051 9.5689 1.6001 11.9999 1.6001C14.4309 1.6001 16.7269 1.9051 18.4649 2.4581C21.0559 3.2821 21.5999 4.4041 21.5999 5.2001ZM3.9999 5.2001C3.9999 5.3881 4.4939 5.9321 6.0199 6.4181C7.6059 6.9231 9.7299 7.2001 11.9999 7.2001C14.2699 7.2001 16.3939 6.9221 17.9799 6.4181C19.5059 5.9321 19.9999 5.3881 19.9999 5.2001C19.9999 5.0121 19.5059 4.4681 17.9799 3.9821C16.3939 3.4771 14.2699 3.2001 11.9999 3.2001C9.7299 3.2001 7.6059 3.4781 6.0199 3.9821C4.4939 4.4681 3.9999 5.0121 3.9999 5.2001ZM19.9999 18.8001V14.1041C19.5929 14.3281 19.0889 14.5441 18.4649 14.7421C16.7269 15.2951 14.4309 15.6001 11.9999 15.6001C9.5689 15.6001 7.2729 15.2951 5.5349 14.7421C4.9109 14.5441 4.4069 14.3281 3.9999 14.1041V18.8001C3.9999 18.9881 4.4939 19.5321 6.0199 20.0181C7.6059 20.5231 9.7299 20.8001 11.9999 20.8001C14.2699 20.8001 16.3939 20.5221 17.9799 20.0181C19.5059 19.5321 19.9999 18.9881 19.9999 18.8001ZM19.9999 12.0001V7.3041C19.5929 7.5281 19.0889 7.7441 18.4649 7.9421C16.7269 8.4951 14.4309 8.8001 11.9999 8.8001C9.5689 8.8001 7.2729 8.4951 5.5349 7.9421C4.9109 7.7441 4.4069 7.5281 3.9999 7.3041V12.0001C3.9999 12.1881 4.4939 12.7321 6.0199 13.2181C7.6059 13.7231 9.7299 14.0001 11.9999 14.0001C14.2699 14.0001 16.3939 13.7221 17.9799 13.2181C19.5059 12.7321 19.9999 12.1881 19.9999 12.0001Z"/>
</svg>
