<svg width="24" height="24" viewBox="0 0 24 24" xmlns="http://www.w3.org/2000/svg">
<path d="M7.4001 20.0002C7.4001 20.4972 6.9971 20.9002 6.5001 20.9002C6.0031 20.9002 5.6001 20.4972 5.6001 20.0002C5.6001 19.5032 6.0031 19.1002 6.5001 19.1002C6.9971 19.1002 7.4001 19.5032 7.4001 20.0002ZM22.4001 12.8002V14.4002H1.6001V12.8002H4.8461C5.0001 11.4132 5.5491 10.1452 6.3791 9.10922L4.2351 6.96522L5.3661 5.83422L7.5101 7.97822C8.5461 7.14922 9.8141 6.60022 11.2011 6.44522V3.19922H12.8011V6.44522C14.1881 6.59922 15.4561 7.14822 16.4921 7.97822L18.6361 5.83422L19.7671 6.96522L17.6231 9.10922C18.4521 10.1452 19.0011 11.4132 19.1561 12.8002H22.4021H22.4001ZM17.5421 12.8002C17.1521 10.0902 14.8161 8.00022 12.0001 8.00022C9.1841 8.00022 6.8481 10.0902 6.4581 12.8002H17.5421ZM4.0001 17.6002H20.0001V16.0002H4.0001V17.6002ZM9.0001 20.8002H18.4001V19.2002H9.0001V20.8002Z"/>
</svg>
