<svg width="24" height="24" viewBox="0 0 24 24" xmlns="http://www.w3.org/2000/svg">
<path d="M8.76592 4.80005C8.44492 4.80005 8.14392 4.92505 7.91692 5.15105L1.91692 11.151C1.44892 11.619 1.44892 12.38 1.91692 12.848L7.91692 18.848C8.14392 19.075 8.44492 19.2 8.76592 19.2H22.3999V4.80005H8.76592ZM20.7999 17.6H8.93092L3.33092 12L8.93092 6.40005H20.7999V17.6ZM10.1339 14.634L12.7679 12L10.1339 9.36605L11.2649 8.23505L13.8989 10.869L16.5329 8.23505L17.6639 9.36605L15.0299 12L17.6639 14.634L16.5329 15.765L13.8989 13.131L11.2649 15.765L10.1339 14.634Z"/>
</svg>
