<svg width="24" height="24" viewBox="0 0 24 24" xmlns="http://www.w3.org/2000/svg">
<path d="M22.4 12.1212C22.4 11.8832 22.33 11.6532 22.198 11.4552L19.184 6.9342C18.961 6.5992 18.588 6.4002 18.186 6.4002H16V4.4002C16 3.7382 15.462 3.2002 14.8 3.2002H5.6C3.394 3.2002 1.6 4.9942 1.6 7.2002V15.4002H3.2V7.2002C3.2 5.8772 4.277 4.8002 5.6 4.8002H14.4V12.0002H16V8.0002H17.972L20.8 12.2422V17.2002H18.883C18.538 16.0452 17.466 15.2002 16.2 15.2002C14.934 15.2002 13.862 16.0452 13.517 17.2002H10.483C10.138 16.0452 9.066 15.2002 7.8 15.2002C6.256 15.2002 5 16.4562 5 18.0002C5 19.5442 6.256 20.8002 7.8 20.8002C9.066 20.8002 10.138 19.9552 10.483 18.8002H13.517C13.862 19.9552 14.934 20.8002 16.2 20.8002C17.466 20.8002 18.538 19.9552 18.883 18.8002H22.4V12.1212ZM7.8 19.2002C7.138 19.2002 6.6 18.6622 6.6 18.0002C6.6 17.3382 7.138 16.8002 7.8 16.8002C8.462 16.8002 9 17.3382 9 18.0002C9 18.6622 8.462 19.2002 7.8 19.2002ZM16.2 19.2002C15.538 19.2002 15 18.6622 15 18.0002C15 17.3382 15.538 16.8002 16.2 16.8002C16.862 16.8002 17.4 17.3382 17.4 18.0002C17.4 18.6622 16.862 19.2002 16.2 19.2002Z"/>
<path d="M2.4 18.8002C2.89706 18.8002 3.3 18.3973 3.3 17.9002C3.3 17.4031 2.89706 17.0002 2.4 17.0002C1.90294 17.0002 1.5 17.4031 1.5 17.9002C1.5 18.3973 1.90294 18.8002 2.4 18.8002Z"/>
</svg>
