<svg width="24" height="24" viewBox="0 0 24 24" xmlns="http://www.w3.org/2000/svg">
<path d="M3.2 3.19995V20.8H20.8V3.19995H3.2ZM8 9.59995V8.39995C8 8.17895 8.179 7.99995 8.4 7.99995H15.6C15.821 7.99995 16 8.17895 16 8.39995V15.6C16 15.821 15.821 16 15.6 16H8.4C8.179 16 8 15.821 8 15.6V14.4H9.6V12.8H8V11.2H9.6V9.59995H8ZM6.4 12.8H4.8V11.2H6.4V12.8ZM19.2 19.2H4.8V14.4H6.4V15.6C6.4 16.703 7.297 17.6 8.4 17.6H15.6C16.703 17.6 17.6 16.703 17.6 15.6V8.39995C17.6 7.29695 16.703 6.39995 15.6 6.39995H8.4C7.297 6.39995 6.4 7.29695 6.4 8.39995V9.59995H4.8V4.79995H19.2V19.2ZM11.1 12C11.1 11.503 11.503 11.1 12 11.1C12.497 11.1 12.9 11.503 12.9 12C12.9 12.497 12.497 12.9 12 12.9C11.503 12.9 11.1 12.497 11.1 12Z"/>
</svg>
