<svg width="24" height="24" viewBox="0 0 24 24" xmlns="http://www.w3.org/2000/svg">
<path d="M18.4001 16H5.6001C4.2771 16 3.2001 14.923 3.2001 13.6V5.59995C3.2001 4.27695 4.2771 3.19995 5.6001 3.19995H18.4001C19.7231 3.19995 20.8001 4.27695 20.8001 5.59995V13.6C20.8001 14.923 19.7231 16 18.4001 16ZM5.6001 4.79995C5.1591 4.79995 4.8001 5.15895 4.8001 5.59995V13.6C4.8001 14.041 5.1591 14.4 5.6001 14.4H18.4001C18.8411 14.4 19.2001 14.041 19.2001 13.6V5.59995C19.2001 5.15895 18.8411 4.79995 18.4001 4.79995H5.6001ZM22.4001 17.6H1.6001V19.2H22.4001V17.6Z"/>
</svg>
