<svg width="24" height="24" viewBox="0 0 24 24" xmlns="http://www.w3.org/2000/svg">
<path d="M19.2002 3.19995H4.8002C3.9182 3.19995 3.2002 3.91795 3.2002 4.79995V12C3.2002 16.852 7.1482 20.8 12.0002 20.8C16.8522 20.8 20.8002 16.852 20.8002 12V4.79995C20.8002 3.91795 20.0822 3.19995 19.2002 3.19995ZM4.8002 12V11.2H5.6002C7.8062 11.2 9.6002 12.994 9.6002 15.2V18.787C6.8072 17.796 4.8002 15.129 4.8002 12ZM11.2002 19.154V15.2C11.2002 12.112 8.6882 9.59995 5.6002 9.59995H4.8002V4.79995H19.2002V6.49995H9.8002V8.09995H19.2002V9.59995H18.4002C15.3122 9.59995 12.8002 12.112 12.8002 15.2V19.154C12.5372 19.183 12.2712 19.2 12.0002 19.2C11.7292 19.2 11.4632 19.184 11.2002 19.154ZM14.4002 18.787V15.2C14.4002 12.994 16.1942 11.2 18.4002 11.2H19.2002V12C19.2002 15.129 17.1932 17.796 14.4002 18.787ZM8.2002 7.29995C8.2002 7.79695 7.7972 8.19995 7.3002 8.19995C6.8032 8.19995 6.4002 7.79695 6.4002 7.29995C6.4002 6.80295 6.8032 6.39995 7.3002 6.39995C7.7972 6.39995 8.2002 6.80295 8.2002 7.29995Z"/>
</svg>
