<svg width="24" height="24" viewBox="0 0 24 24" xmlns="http://www.w3.org/2000/svg">
<path fill-rule="evenodd" clip-rule="evenodd" d="M13.4096 1.09963C13.8068 1.09779 14.1884 1.25429 14.47 1.53452C14.7515 1.81476 14.9098 2.19562 14.9098 2.59285V8.2372C14.9119 8.73493 15.2225 9.17916 15.6892 9.35213L22.13 11.7612C22.5994 11.929 22.9095 12.3776 22.9005 12.8761V17.6942C22.8994 17.9114 22.8407 18.1244 22.7302 18.3114L20.2495 22.4227C20.0295 22.7819 19.6384 23.0007 19.2172 23.0001H14.629C13.0108 23.0044 11.4997 22.2125 10.5813 20.8925L6.07692 13.9711C5.89656 13.6661 5.85117 13.2998 5.95162 12.9599C6.05206 12.6201 6.2893 12.3373 6.60652 12.1793C6.78606 12.0932 6.98279 12.049 7.1819 12.0499C7.44962 12.0492 7.70949 12.1332 7.9251 12.2881L10.7586 14.5615C10.941 14.7643 11.2293 14.834 11.4842 14.737C11.7391 14.64 11.9081 14.3962 11.9094 14.1234V2.59285C11.9094 2.19562 12.0677 1.81476 12.3492 1.53452C12.6308 1.25429 13.0124 1.09779 13.4096 1.09963ZM10.2579 1.09964C10.0678 1.49945 9.95665 1.93146 9.92981 2.37199L9.92344 2.59285V3.14634C9.12821 3.33524 8.56652 4.04518 8.56561 4.86254C8.56029 6.88267 6.97221 8.52952 4.97711 8.63048L4.78281 8.63539C3.85078 8.63382 3.0845 9.349 3.00644 10.2617L2.99991 10.4073V12.0698H1V10.4073C1.00532 8.3872 2.5934 6.74034 4.5885 6.63939L4.78281 6.63448C5.71262 6.63293 6.47551 5.91846 6.55323 5.00787L6.55973 4.86254C6.56579 2.81197 8.20776 1.14127 10.2579 1.09964Z"/>
</svg>
