<svg width="24" height="24" viewBox="0 0 24 24" xmlns="http://www.w3.org/2000/svg">
<path d="M20.613 5.6001H19.2V3.6001C19.2 2.4971 18.303 1.6001 17.2 1.6001H6.79999C5.69699 1.6001 4.79999 2.4971 4.79999 3.6001V20.4001C4.79999 21.5031 5.69699 22.4001 6.79999 22.4001H17.2C18.303 22.4001 19.2 21.5031 19.2 20.4001V16.8001H17.6V20.4001C17.6 20.6211 17.421 20.8001 17.2 20.8001H6.79999C6.57899 20.8001 6.39999 20.6211 6.39999 20.4001V3.6001C6.39999 3.3791 6.57899 3.2001 6.79999 3.2001H17.2C17.421 3.2001 17.6 3.3791 17.6 3.6001V5.6001H10.587C9.60099 5.6001 8.79999 6.4191 8.79999 7.4251V13.3741C8.79999 14.3811 9.60199 15.1991 10.587 15.1991H20.612C21.598 15.1991 22.399 14.3801 22.399 13.3741V7.4251C22.399 6.4181 21.597 5.6001 20.612 5.6001H20.613ZM20.612 7.2341C20.715 7.2341 20.799 7.3201 20.799 7.4251V8.8001H10.399V7.4251C10.399 7.3191 10.483 7.2341 10.586 7.2341H20.612ZM20.613 13.5661H10.588C10.485 13.5661 10.401 13.4801 10.401 13.3751V10.4001H20.801V13.3751C20.801 13.4811 20.716 13.5661 20.613 13.5661ZM12.9 18.3001C12.9 18.7971 12.497 19.2001 12 19.2001C11.503 19.2001 11.1 18.7971 11.1 18.3001C11.1 17.8031 11.503 17.4001 12 17.4001C12.497 17.4001 12.9 17.8031 12.9 18.3001Z"/>
</svg>
