<svg width="24" height="24" viewBox="0 0 24 24" xmlns="http://www.w3.org/2000/svg">
<path d="M11.9998 19.3001C12.4969 19.3001 12.8998 18.8972 12.8998 18.4001C12.8998 17.903 12.4969 17.5001 11.9998 17.5001C11.5027 17.5001 11.0998 17.903 11.0998 18.4001C11.0998 18.8972 11.5027 19.3001 11.9998 19.3001Z"/>
<path d="M17.1998 22.4001H6.7998C5.6968 22.4001 4.7998 21.5031 4.7998 20.4001V3.6001C4.7998 2.4971 5.6968 1.6001 6.7998 1.6001H17.1998C18.3028 1.6001 19.1998 2.4971 19.1998 3.6001V20.4001C19.1998 21.5031 18.3028 22.4001 17.1998 22.4001ZM6.7998 3.2001C6.5788 3.2001 6.3998 3.3791 6.3998 3.6001V20.4001C6.3998 20.6211 6.5788 20.8001 6.7998 20.8001H17.1998C17.4208 20.8001 17.5998 20.6211 17.5998 20.4001V3.6001C17.5998 3.3791 17.4208 3.2001 17.1998 3.2001H6.7998Z"/>
<path d="M15.9998 4.8001H7.9998V6.4001H15.9998V4.8001Z"/>
<path d="M11.1998 8.0001H7.9998V9.6001H11.1998V8.0001Z"/>
<path d="M13.5998 14.4001H7.9998V16.0001H13.5998V14.4001Z"/>
<path d="M15.9998 8.0001H12.7998V9.6001H15.9998V8.0001Z"/>
<path d="M15.9998 11.2001H7.9998V12.8001H15.9998V11.2001Z"/>
</svg>
