<svg width="24" height="24" viewBox="0 0 24 24" xmlns="http://www.w3.org/2000/svg">
<path d="M20.0001 22.4001H4.0001V20.8001H20.0001V22.4001ZM22.4001 7.6001V17.2001C22.4001 18.3031 21.5031 19.2001 20.4001 19.2001H3.6001C2.4971 19.2001 1.6001 18.3031 1.6001 17.2001V7.6001C1.6001 6.4971 2.4971 5.6001 3.6001 5.6001H10.8691L6.8691 1.6001H9.1321L12.0011 4.4691L14.8701 1.6001H17.1331L13.1331 5.6001H20.4021C21.5051 5.6001 22.4021 6.4971 22.4021 7.6001H22.4001ZM20.8001 7.6001C20.8001 7.3791 20.6211 7.2001 20.4001 7.2001H3.6001C3.3791 7.2001 3.2001 7.3791 3.2001 7.6001V17.2001C3.2001 17.4211 3.3791 17.6001 3.6001 17.6001H20.4001C20.6211 17.6001 20.8001 17.4211 20.8001 17.2001V7.6001ZM4.8001 10.0001V11.0411H6.2321V14.7821H7.4941V11.0411H9.0321L8.8361 10.0001H4.8001ZM11.9681 13.0801L10.9071 10.0001H9.6491L11.3731 14.8001H12.5181L14.2491 10.0001H13.0351L11.9671 13.0801H11.9681ZM19.2001 12.3671C19.2001 12.8061 19.1301 13.1851 18.9921 13.4931C18.8531 13.8041 18.6601 14.0571 18.4181 14.2471C18.1781 14.4361 17.8901 14.5741 17.5621 14.6581C17.2401 14.7401 16.8901 14.7821 16.5231 14.7821H14.9451V10.0001H16.5231C16.8941 10.0001 17.2461 10.0411 17.5691 10.1231C17.8981 10.2061 18.1861 10.3421 18.4251 10.5291C18.6651 10.7171 18.8571 10.9661 18.9941 11.2691C19.1301 11.5711 19.2001 11.9401 19.2001 12.3671ZM17.6271 11.3621C17.4251 11.1491 17.0731 11.0401 16.5801 11.0401H16.2001V13.7681H16.5931C17.0811 13.7681 17.4301 13.6591 17.6301 13.4451C17.8331 13.2281 17.9361 12.8691 17.9361 12.3781C17.9361 11.9201 17.8311 11.5781 17.6271 11.3621Z"/>
</svg>
