<svg width="24" height="24" viewBox="0 0 24 24" xmlns="http://www.w3.org/2000/svg">
<path d="M10.4 17.4001C10.897 17.4001 11.3 17.8031 11.3 18.3001C11.3 18.7971 10.897 19.2001 10.4 19.2001C9.90301 19.2001 9.50001 18.7971 9.50001 18.3001C9.50001 17.8031 9.90301 17.4001 10.4 17.4001ZM16 16.0001L17.6 14.4001V20.4001C17.6 21.5031 16.703 22.4001 15.6 22.4001H5.20001C4.09701 22.4001 3.20001 21.5031 3.20001 20.4001V3.6001C3.20001 2.4971 4.09701 1.6001 5.20001 1.6001H15.6C16.703 1.6001 17.6 2.4971 17.6 3.6001V5.0691L18.8 3.8691L22.331 7.4001L13.931 15.8001H10.4V12.2691L16 6.6691V3.6001C16 3.3791 15.821 3.2001 15.6 3.2001H5.20001C4.97901 3.2001 4.80001 3.3791 4.80001 3.6001V20.4001C4.80001 20.6211 4.97901 20.8001 5.20001 20.8001H15.6C15.821 20.8001 16 20.6211 16 20.4001V16.0001ZM17.668 9.8001L16.399 8.5311L11.999 12.9311V14.2001H13.268L17.668 9.8001ZM18.8 6.1311L17.531 7.4001L18.8 8.6691L20.069 7.4001L18.8 6.1311Z"/>
</svg>
