<svg width="24" height="24" viewBox="0 0 24 24" xmlns="http://www.w3.org/2000/svg">
<path d="M12.0771 21.5999C6.78405 21.5999 2.47705 17.2929 2.47705 11.9999C2.47705 6.7069 6.78405 2.3999 12.0771 2.3999C17.3701 2.3999 21.6771 6.7069 21.6771 11.9999C21.6771 17.2929 17.3701 21.5999 12.0771 21.5999ZM12.0771 3.9999C7.66605 3.9999 4.07705 7.5889 4.07705 11.9999C4.07705 16.4109 7.66605 19.9999 12.0771 19.9999C16.4881 19.9999 20.0771 16.4109 20.0771 11.9999C20.0771 7.5889 16.4881 3.9999 12.0771 3.9999Z"/>
<path d="M10.0631 13.1369C10.2631 13.1369 10.4251 12.9749 10.4251 12.7749V10.6359C10.4251 10.4359 10.2631 10.2739 10.0631 10.2739C9.86305 10.2739 9.70105 10.4359 9.70105 10.6359V12.7749C9.70105 12.9749 9.86305 13.1369 10.0631 13.1369Z"/>
<path d="M7.78505 9.29985H6.48705C6.26105 9.29985 6.07805 9.48285 6.07805 9.70885V12.7109C6.07805 12.9369 6.26105 13.1199 6.48705 13.1199H7.78505C8.84105 13.1199 9.35605 12.2649 9.35605 11.2099C9.35605 10.1549 8.84105 9.29985 7.78505 9.29985ZM7.65905 12.4879H6.86905V9.93185H7.65905C8.36605 9.93185 8.59805 10.5039 8.59805 11.2099C8.59805 11.9159 8.36605 12.4879 7.65905 12.4879Z"/>
<path d="M11.2271 13.1369C11.4271 13.1369 11.5891 12.9749 11.5891 12.7749V11.4549C11.5891 11.1859 11.7571 10.8159 12.0771 10.8159C12.3461 10.8159 12.5651 11.0339 12.5651 11.3029V12.7739C12.5651 12.9739 12.7271 13.1359 12.9271 13.1359C13.1271 13.1359 13.2891 12.9739 13.2891 12.7739V11.3569C13.2891 11.2759 13.3141 11.1529 13.3331 11.1049C13.4081 10.9439 13.5721 10.8309 13.7621 10.8309C14.0231 10.8309 14.2351 11.0419 14.2351 11.3029V12.7739C14.2351 12.9739 14.3971 13.1359 14.5971 13.1359C14.7971 13.1359 14.9591 12.9739 14.9591 12.7739V11.2199C14.9591 11.2199 14.9591 11.2149 14.9591 11.2119C14.9511 10.7019 14.5351 10.2919 14.0231 10.2919C13.6791 10.2919 13.3791 10.4779 13.2161 10.7539C13.0511 10.4679 12.7421 10.2739 12.3881 10.2739C12.0541 10.2739 11.7611 10.4449 11.5901 10.7049V10.6359C11.5901 10.4359 11.4281 10.2739 11.2281 10.2739C11.0281 10.2739 10.8661 10.4359 10.8661 10.6359V12.7749C10.8661 12.9749 11.0281 13.1369 11.2281 13.1369H11.2271Z"/>
<path d="M16.6441 10.2439C15.8521 10.2439 15.2111 10.8979 15.2111 11.7059C15.2111 12.4089 15.6971 12.9949 16.3451 13.1349C15.7731 14.4189 14.4941 15.2609 13.0651 15.2609C12.0351 15.2609 11.0531 14.8119 10.3751 14.0479C10.4061 13.9949 10.4251 13.9329 10.4251 13.8669C10.4251 13.6669 10.2631 13.5049 10.0631 13.5049C9.86305 13.5049 9.70105 13.6669 9.70105 13.8669C9.70105 14.0669 9.86305 14.2289 10.0631 14.2289C10.1091 14.2289 10.1531 14.2189 10.1941 14.2039C10.9171 15.0199 11.9651 15.4999 13.0641 15.4999C14.6121 15.4999 15.9961 14.5719 16.5911 13.1649C16.6081 13.1649 16.6251 13.1679 16.6431 13.1679C17.4351 13.1679 18.0761 12.5139 18.0761 11.7059C18.0761 10.8979 17.4351 10.2439 16.6441 10.2439ZM16.6441 12.6169C16.2431 12.6169 15.9191 12.2089 15.9191 11.7059C15.9191 11.2029 16.2441 10.7949 16.6441 10.7949C17.0441 10.7949 17.3691 11.2029 17.3691 11.7059C17.3691 12.2089 17.0441 12.6169 16.6441 12.6169Z"/>
</svg>
