<svg width="24" height="24" viewBox="0 0 24 24" xmlns="http://www.w3.org/2000/svg">
<path d="M9.0472 13.0949C9.3402 13.0949 9.5782 12.8549 9.5782 12.5579V9.38488C9.5782 9.08888 9.3402 8.84788 9.0472 8.84788C8.7542 8.84788 8.5162 9.08788 8.5162 9.38488V12.5579C8.5162 12.8539 8.7542 13.0949 9.0472 13.0949Z"/>
<path d="M5.7042 7.40088H3.8002C3.4692 7.40088 3.2002 7.67188 3.2002 8.00688V12.4619C3.2002 12.7969 3.4692 13.0679 3.8002 13.0679H5.7042C7.25319 13.0679 8.00819 11.7989 8.00819 10.2339C8.00819 8.66888 7.25219 7.40088 5.7042 7.40088ZM5.5202 12.1319H4.3612V8.33888H5.5202C6.55719 8.33888 6.8972 9.18788 6.8972 10.2359C6.8972 11.2839 6.55719 12.1319 5.5202 12.1319Z"/>
<path d="M10.7542 13.0949C11.0472 13.0949 11.2852 12.8549 11.2852 12.5579V10.5999C11.2852 10.2009 11.5322 9.65188 12.0012 9.65188C12.3962 9.65188 12.7172 9.97588 12.7172 10.3749V12.5579C12.7172 12.8539 12.9552 13.0949 13.2482 13.0949C13.5412 13.0949 13.7792 12.8549 13.7792 12.5579V10.4549C13.7792 10.3349 13.8162 10.1529 13.8442 10.0809C13.9542 9.84088 14.1942 9.67488 14.4722 9.67488C14.8552 9.67488 15.1652 9.98888 15.1652 10.3759V12.5589C15.1652 12.8549 15.4032 13.0959 15.6962 13.0959C15.9892 13.0959 16.2272 12.8559 16.2272 12.5589V10.2529C16.2272 10.2529 16.2262 10.2449 16.2262 10.2409C16.2142 9.48488 15.6042 8.87588 14.8532 8.87588C14.3482 8.87588 13.9092 9.15188 13.6702 9.56088C13.4282 9.13588 12.9762 8.84888 12.4562 8.84888C11.9662 8.84888 11.5362 9.10288 11.2852 9.48788V9.38588C11.2852 9.08988 11.0472 8.84888 10.7542 8.84888C10.4612 8.84888 10.2232 9.08888 10.2232 9.38588V12.5589C10.2232 12.8549 10.4612 13.0949 10.7542 13.0949Z"/>
<path d="M18.6982 8.80188C17.5372 8.80188 16.5962 9.77288 16.5962 10.9709C16.5962 12.0139 17.3092 12.8839 18.2592 13.0919C17.4202 14.9969 15.5442 16.2469 13.4492 16.2469C11.9392 16.2469 10.4982 15.5809 9.5042 14.4469C9.5502 14.3679 9.5782 14.2769 9.5782 14.1789C9.5782 13.8829 9.3402 13.6419 9.0472 13.6419C8.7542 13.6419 8.5162 13.8819 8.5162 14.1789C8.5162 14.4759 8.7542 14.7159 9.0472 14.7159C9.1152 14.7159 9.1802 14.7019 9.2402 14.6779C10.3002 15.8889 11.8382 16.6009 13.4502 16.6009C15.7212 16.6009 17.7512 15.2239 18.6232 13.1359C18.6482 13.1359 18.6732 13.1399 18.6992 13.1399C19.8602 13.1399 20.8012 12.1689 20.8012 10.9709C20.8012 9.77288 19.8592 8.80188 18.6982 8.80188ZM18.6982 12.3229C18.1112 12.3229 17.6342 11.7179 17.6342 10.9709C17.6342 10.2239 18.1102 9.61888 18.6982 9.61888C19.2862 9.61888 19.7622 10.2239 19.7622 10.9709C19.7622 11.7179 19.2862 12.3229 18.6982 12.3229Z"/>
</svg>
