<svg width="24" height="24" viewBox="0 0 24 24" xmlns="http://www.w3.org/2000/svg">
<path d="M18.658 1.6001H6.94098C5.75997 1.6001 4.79897 2.5611 4.79897 3.7421V4.8001H3.19897V6.4001H4.79897V8.0001H3.19897V9.6001H4.79897V11.2001H3.19897V12.8001H4.79897V14.4001H3.19897V16.0001H4.79897V17.6001H3.19897V19.2001H4.79897V20.2581C4.79897 21.4391 5.75997 22.4001 6.94098 22.4001H18.658C19.839 22.4001 20.8 21.4391 20.8 20.2581V3.7421C20.8 2.5611 19.839 1.6001 18.658 1.6001ZM19.2 20.2581C19.2 20.5571 18.957 20.8001 18.658 20.8001H6.94098C6.64198 20.8001 6.39897 20.5571 6.39897 20.2581V19.2001H7.99897V17.6001H6.39897V16.0001H7.99897V14.4001H6.39897V12.8001H7.99897V11.2001H6.39897V9.6001H7.99897V8.0001H6.39897V6.4001H7.99897V4.8001H6.39897V3.7421C6.39897 3.4431 6.64198 3.2001 6.94098 3.2001H18.658C18.957 3.2001 19.2 3.4431 19.2 3.7421V20.2581ZM15.594 10.9351C15.85 10.5531 16 10.0941 16 9.6001C16 8.2771 14.923 7.2001 13.6 7.2001C12.277 7.2001 11.2 8.2771 11.2 9.6001C11.2 10.0941 11.35 10.5531 11.606 10.9351C10.408 11.6271 9.59998 12.9211 9.59998 14.4001V16.0001H17.6V14.4001C17.6 12.9201 16.792 11.6261 15.594 10.9351ZM12.8 9.6001C12.8 9.1591 13.159 8.8001 13.6 8.8001C14.041 8.8001 14.4 9.1591 14.4 9.6001C14.4 10.0411 14.041 10.4001 13.6 10.4001C13.159 10.4001 12.8 10.0411 12.8 9.6001ZM11.2 14.4001C11.2 13.0771 12.277 12.0001 13.6 12.0001C14.923 12.0001 16 13.0771 16 14.4001H11.2Z"/>
</svg>
