<svg width="24" height="24" viewBox="0 0 24 24" xmlns="http://www.w3.org/2000/svg">
<path d="M19.2 15.2001H14.5V13.6001H19.2V15.2001ZM21.566 3.56606L3.56601 21.5661L2.43501 20.4351L3.66901 19.2011H3.60001C2.49701 19.2011 1.60001 18.3041 1.60001 17.2011V6.80106C1.60001 5.69806 2.49701 4.80106 3.60001 4.80106H18.069L20.435 2.43506L21.566 3.56606ZM3.20001 6.80006V8.80006H14.069L16.469 6.40006H3.60001C3.37901 6.40006 3.20001 6.57906 3.20001 6.80006ZM5.26901 17.6001L12.469 10.4001H3.20001V17.2001C3.20001 17.4211 3.37901 17.6001 3.60001 17.6001H5.26901ZM21.905 5.48706L20.761 6.63106C20.785 6.68306 20.8 6.74006 20.8 6.80106V8.80106H18.591L16.991 10.4011H20.8V17.2011C20.8 17.4221 20.621 17.6011 20.4 17.6011H9.79101L8.19101 19.2011H20.4C21.503 19.2011 22.4 18.3041 22.4 17.2011V6.80106C22.4 6.29806 22.212 5.83906 21.905 5.48806V5.48706Z"/>
</svg>
