<svg width="24" height="24" viewBox="0 0 24 24" xmlns="http://www.w3.org/2000/svg">
<path d="M14.0001 14.8999C14.4972 14.8999 14.9001 14.497 14.9001 13.9999C14.9001 13.5028 14.4972 13.0999 14.0001 13.0999C13.503 13.0999 13.1001 13.5028 13.1001 13.9999C13.1001 14.497 13.503 14.8999 14.0001 14.8999Z"/>
<path d="M10.0001 10.8999C10.4972 10.8999 10.9001 10.497 10.9001 9.9999C10.9001 9.50285 10.4972 9.0999 10.0001 9.0999C9.50304 9.0999 9.1001 9.50285 9.1001 9.9999C9.1001 10.497 9.50304 10.8999 10.0001 10.8999Z"/>
<path d="M13.8339 9.0353L9.03405 13.8351L10.1654 14.9665L14.9653 10.1667L13.8339 9.0353Z"/>
<path d="M21.6001 10.3999H22.4001V6.3999H1.6001V10.3999H2.4001C3.2821 10.3999 4.0001 11.1179 4.0001 11.9999C4.0001 12.8819 3.2821 13.5999 2.4001 13.5999H1.6001V17.5999H22.4001V13.5999H21.6001C20.7181 13.5999 20.0001 12.8819 20.0001 11.9999C20.0001 11.1179 20.7181 10.3999 21.6001 10.3999ZM20.8001 15.0989V15.9999H3.2001V15.0989C4.5791 14.7429 5.6001 13.4889 5.6001 11.9999C5.6001 10.5109 4.5791 9.2569 3.2001 8.9009V7.9999H20.8001V8.9009C19.4211 9.2569 18.4001 10.5109 18.4001 11.9999C18.4001 13.4889 19.4211 14.7429 20.8001 15.0989Z"/>
</svg>
