<svg width="24" height="24" viewBox="0 0 24 24" xmlns="http://www.w3.org/2000/svg">
<path d="M20.6341 2.23389L19.1581 3.70989C18.4291 3.37089 17.6281 3.19089 16.7991 3.19089C15.2991 3.19089 13.8901 3.77489 12.8331 4.83489C12.5141 5.15489 12.2341 5.50289 11.9991 5.86889C11.7641 5.50189 11.4841 5.15389 11.1651 4.83489C10.1071 3.77489 8.69912 3.19089 7.19912 3.19089C5.69912 3.19089 4.29012 3.77489 3.23312 4.83489C2.17912 5.89089 1.59912 7.29889 1.59912 8.79989C1.59912 10.3009 2.21012 11.7399 3.23312 12.7659L6.66712 16.1999L3.99012 18.8769L5.12112 20.0079L21.7661 3.36589L20.6341 2.23389ZM4.36612 11.6349C3.63612 10.9029 3.20012 9.84289 3.20012 8.79989C3.20012 7.75689 3.61412 6.71889 4.36612 5.96489C5.12112 5.20789 6.12812 4.79089 7.20012 4.79089C8.27212 4.79089 9.27812 5.20789 10.0341 5.96489C10.6301 6.56289 11.0361 7.28089 11.1861 7.99989H12.8141C12.9641 7.28089 13.3701 6.56289 13.9661 5.96489C14.7211 5.20789 15.7281 4.79089 16.8001 4.79089C17.1841 4.79089 17.5601 4.84589 17.9191 4.94989L7.80012 15.0689L4.36612 11.6349ZM22.4001 8.79989C22.4001 10.2579 21.7891 11.7399 20.7661 12.7649L12.0001 21.5309L8.93012 18.4609L10.0611 17.3299L12.0001 19.2689L19.6341 11.6349C20.3641 10.9029 20.8001 9.84389 20.8001 8.80089C20.8001 8.16789 20.6551 7.55789 20.3831 7.00989L21.5581 5.83489C22.1061 6.71489 22.4001 7.73289 22.4001 8.79989Z"/>
</svg>
