<svg width="24" height="24" viewBox="0 0 24 24" xmlns="http://www.w3.org/2000/svg">
<path d="M12 21.5999C6.70702 21.5999 2.40002 17.2929 2.40002 11.9999C2.40002 6.7069 6.70702 2.3999 12 2.3999C17.293 2.3999 21.6 6.7069 21.6 11.9999C21.6 17.2929 17.293 21.5999 12 21.5999ZM12 3.9999C7.58902 3.9999 4.00002 7.5889 4.00002 11.9999C4.00002 16.4109 7.58902 19.9999 12 19.9999C16.411 19.9999 20 16.4109 20 11.9999C20 7.5889 16.411 3.9999 12 3.9999Z"/>
<path d="M12 9.6999C12.4971 9.6999 12.9 9.29696 12.9 8.7999C12.9 8.30285 12.4971 7.8999 12 7.8999C11.503 7.8999 11.1 8.30285 11.1 8.7999C11.1 9.29696 11.503 9.6999 12 9.6999Z"/>
<path d="M12 16.0999C12.4971 16.0999 12.9 15.697 12.9 15.1999C12.9 14.7028 12.4971 14.2999 12 14.2999C11.503 14.2999 11.1 14.7028 11.1 15.1999C11.1 15.697 11.503 16.0999 12 16.0999Z"/>
<path d="M16.8 11.1999H7.20002V12.7999H16.8V11.1999Z"/>
</svg>
