<svg width="24" height="24" viewBox="0 0 24 24" xmlns="http://www.w3.org/2000/svg">
<path d="M22.366 8.36603L21.366 9.36603C20.432 10.3 19.159 10.777 17.822 10.777C17.37 10.777 16.91 10.722 16.454 10.612C16.923 12.409 16.553 14.18 15.366 15.366C14.533 16.199 13.413 16.632 12.2 16.655V15.055C12.701 15.041 13.171 14.927 13.581 14.712L12.234 13.365L13.365 12.234L14.711 13.58C15.273 12.498 15.139 10.997 14.301 9.60103L14.295 9.59003L14.104 9.25903C12.76 7.01403 12.978 4.29103 14.635 2.63403L15.635 1.63403L16.766 2.76503L15.932 3.59903L18.166 5.83303L17.035 6.96403L15.026 4.95503C14.655 6.01503 14.798 7.30403 15.48 8.44003L15.486 8.45103L15.526 8.52103H15.527C17.133 9.47703 19.11 9.35703 20.234 8.23303L21.234 7.23303L22.365 8.36403L22.366 8.36603ZM7.547 13.391C6.238 13.075 4.902 13.214 3.79 13.791L5.014 15.015C6.074 14.671 7.362 14.817 8.472 15.477H8.473L8.513 15.548L8.519 15.559C9.201 16.695 9.344 17.984 8.973 19.044L6.964 17.035L5.833 18.166L8.067 20.4L7.233 21.234L8.364 22.365L9.364 21.365C11.021 19.708 11.239 16.985 9.895 14.74L9.704 14.409L9.698 14.398C8.86 13.001 8.726 11.501 9.288 10.419L10.634 11.765L11.765 10.634L10.418 9.28703C10.828 9.07303 11.298 8.95803 11.799 8.94403V7.34403C10.586 7.36703 9.467 7.80003 8.633 8.63303C7.446 9.82003 7.076 11.592 7.546 13.389L7.547 13.391ZM2.4 15.1C1.903 15.1 1.5 15.503 1.5 16C1.5 16.497 1.903 16.9 2.4 16.9C2.897 16.9 3.3 16.497 3.3 16C3.3 15.503 2.897 15.1 2.4 15.1Z"/>
</svg>
