<svg width="24" height="24" viewBox="0 0 24 24" xmlns="http://www.w3.org/2000/svg">
<path d="M12 2.3999C6.707 2.3999 2.4 6.7069 2.4 11.9999C2.4 17.2929 6.707 21.5999 12 21.5999C17.293 21.5999 21.6 17.2929 21.6 11.9999C21.6 6.7069 17.293 2.3999 12 2.3999ZM12 19.9999C7.589 19.9999 4 16.4109 4 11.9999C4 7.5889 7.589 3.9999 12 3.9999C16.411 3.9999 20 7.5889 20 11.9999C20 16.4109 16.411 19.9999 12 19.9999ZM14.856 12.6809C14.986 12.9399 15.052 13.2559 15.052 13.6209C15.052 13.9039 15.004 14.1799 14.909 14.4409C14.813 14.7039 14.661 14.9409 14.456 15.1459C14.253 15.3489 13.99 15.5209 13.676 15.6569C13.425 15.7659 13.129 15.8409 12.799 15.8869V16.7999H11.199V15.8559C11.031 15.8239 10.872 15.7859 10.726 15.7419C10.473 15.6659 10.241 15.5699 10.034 15.4589C9.827 15.3469 9.633 15.2129 9.459 15.0609C9.286 14.9099 9.122 14.7399 8.969 14.5539L8.912 14.4839L9.963 13.4219L10.033 13.5119C10.253 13.7949 10.508 14.0379 10.789 14.2329C11.066 14.4249 11.355 14.5459 11.648 14.5919C11.937 14.6379 12.216 14.6409 12.502 14.6009C12.783 14.5619 13.031 14.4639 13.164 14.3369C13.304 14.2039 13.372 14.0199 13.372 13.7729C13.372 13.5489 13.305 13.3779 13.167 13.2479C13.021 13.1109 12.792 12.9929 12.486 12.8969L11.608 12.6689C11.308 12.5939 11.01 12.5039 10.723 12.3999C10.43 12.2949 10.168 12.1569 9.944 11.9909C9.715 11.8219 9.529 11.6079 9.389 11.3539C9.248 11.0979 9.177 10.7809 9.177 10.4109C9.177 10.0869 9.235 9.7859 9.348 9.5179C9.462 9.2489 9.625 9.0149 9.833 8.8199C10.04 8.6269 10.295 8.4699 10.592 8.3539C10.78 8.2799 10.983 8.2249 11.199 8.1859V7.1999H12.799V8.2029C12.996 8.2379 13.177 8.2809 13.337 8.3319C13.561 8.4039 13.764 8.4919 13.942 8.5939C14.119 8.6959 14.283 8.8129 14.427 8.9429C14.569 9.0699 14.709 9.2099 14.844 9.3579L14.91 9.4299L13.81 10.4849L13.741 10.4109C13.56 10.2169 13.367 10.0379 13.169 9.8789C12.977 9.7259 12.749 9.6119 12.49 9.5409C12.206 9.4629 11.873 9.4729 11.643 9.4949C11.392 9.5189 11.174 9.6169 11.045 9.7619C10.918 9.9049 10.856 10.0729 10.856 10.2739C10.856 10.4899 10.918 10.6499 11.046 10.7619C11.199 10.8969 11.439 11.0189 11.658 11.0739C11.876 11.1289 12.135 11.1969 12.396 11.2649L12.542 11.3029C12.854 11.3849 13.213 11.4819 13.515 11.5939C13.821 11.7079 14.09 11.8529 14.314 12.0259C14.543 12.2019 14.725 12.4219 14.855 12.6799L14.856 12.6809Z"/>
</svg>
