<svg width="24" height="24" viewBox="0 0 24 24" xmlns="http://www.w3.org/2000/svg">
<path d="M5.70001 8.29988C5.70001 7.80288 6.10301 7.39988 6.60001 7.39988C7.09701 7.39988 7.50001 7.80288 7.50001 8.29988C7.50001 8.79688 7.09701 9.19988 6.60001 9.19988C6.10301 9.19988 5.70001 8.79688 5.70001 8.29988ZM12.416 15.7509C12.181 15.7829 11.951 15.7809 11.712 15.7429C11.472 15.7049 11.234 15.6049 11.006 15.4469C10.774 15.2859 10.564 15.0849 10.382 14.8499L10.312 14.7599L9.41501 15.6699L9.47201 15.7389C9.59901 15.8939 9.73601 16.0369 9.88001 16.1629C10.025 16.2909 10.187 16.4029 10.36 16.4969C10.532 16.5909 10.727 16.6699 10.937 16.7349C11.021 16.7599 11.11 16.7829 11.202 16.8039V17.6009H12.796V16.8379C13.019 16.7989 13.221 16.7409 13.398 16.6639C13.661 16.5499 13.88 16.4049 14.051 16.2339C14.223 16.0619 14.35 15.8619 14.431 15.6409C14.51 15.4219 14.55 15.1909 14.55 14.9519C14.55 14.6449 14.495 14.3789 14.385 14.1609C14.276 13.9439 14.123 13.7589 13.932 13.6099C13.744 13.4649 13.519 13.3429 13.264 13.2479C13.013 13.1539 12.714 13.0729 12.455 13.0049L12.334 12.9729C12.117 12.9159 11.901 12.8589 11.721 12.8129C11.542 12.7679 11.345 12.6669 11.22 12.5569C11.117 12.4659 11.068 12.3369 11.068 12.1619C11.068 11.9989 11.118 11.8629 11.221 11.7459C11.325 11.6279 11.502 11.5489 11.706 11.5289C11.895 11.5109 12.17 11.5019 12.403 11.5669C12.616 11.6249 12.803 11.7189 12.96 11.8449C13.125 11.9769 13.284 12.1259 13.433 12.2859L13.502 12.3599L14.439 11.4579L14.374 11.3859C14.262 11.2619 14.145 11.1449 14.027 11.0389C13.906 10.9309 13.77 10.8319 13.621 10.7459C13.473 10.6599 13.302 10.5859 13.116 10.5259C13.019 10.4949 12.911 10.4669 12.797 10.4429V9.59788H11.203V10.4299C11.071 10.4599 10.944 10.4979 10.825 10.5449C10.577 10.6429 10.363 10.7749 10.19 10.9369C10.016 11.0999 9.87901 11.2979 9.78401 11.5239C9.68901 11.7489 9.64001 12.0019 9.64001 12.2739C9.64001 12.5849 9.70001 12.8519 9.81801 13.0679C9.93501 13.2819 10.092 13.4619 10.283 13.6039C10.471 13.7429 10.69 13.8589 10.934 13.9469C11.173 14.0329 11.42 14.1089 11.67 14.1709L12.398 14.3609C12.649 14.4399 12.837 14.5369 12.957 14.6489C13.068 14.7539 13.122 14.8929 13.122 15.0739C13.122 15.2749 13.067 15.4249 12.955 15.5319C12.847 15.6349 12.645 15.7159 12.415 15.7469L12.416 15.7509ZM20.8 13.5999C20.8 18.0109 16.852 21.5999 12 21.5999C7.14801 21.5999 3.20001 18.0109 3.20001 13.5999C3.20001 12.1639 3.61801 10.8159 4.35001 9.64988L5.51701 10.8169C5.05801 11.6589 4.80001 12.6029 4.80001 13.5999C4.80001 17.1289 8.03001 19.9999 12 19.9999C15.97 19.9999 19.2 17.1289 19.2 13.5999C19.2 10.8209 17.196 8.45188 14.407 7.56988C13.711 7.98788 12.904 8.19988 12 8.19988C10.872 8.19988 9.89501 7.87088 9.09501 7.22088L8.89601 7.05988L8.02901 3.91888C7.91701 3.52988 7.98001 3.13688 8.20301 2.83988C8.41201 2.56088 8.73801 2.40088 9.09901 2.40088H14.899C15.26 2.40088 15.586 2.56088 15.795 2.83988C16.018 3.13788 16.081 3.53088 15.969 3.91888L15.339 6.20088C18.539 7.39888 20.799 10.2639 20.799 13.6009L20.8 13.5999ZM12 6.59988C12.658 6.59988 13.229 6.43888 13.702 6.12188L14.287 3.99988H9.71201L10.297 6.12188C10.769 6.43888 11.341 6.59988 11.999 6.59988H12Z"/>
</svg>
