<svg width="24" height="24" viewBox="0 0 24 24" xmlns="http://www.w3.org/2000/svg">
<path d="M21.3781 12.3239C21.1981 12.1449 21.0041 11.9889 20.7981 11.8569C20.7211 6.6289 16.4461 2.3999 11.2001 2.3999C5.9541 2.3999 1.6001 6.7069 1.6001 11.9999C1.6001 17.2929 5.9071 21.5999 11.2001 21.5999C12.4361 21.5999 13.6171 21.3649 14.7031 20.9379L16.2001 22.4299L21.3781 17.2689C22.0181 16.6299 22.4001 15.7049 22.4001 14.7969C22.4001 13.8889 22.0371 12.9829 21.3781 12.3249V12.3239ZM19.1681 11.3119C18.1831 11.2369 17.1731 11.5739 16.4221 12.3239C16.3441 12.4019 16.2701 12.4819 16.2001 12.5649C16.1301 12.4819 16.0561 12.4009 15.9781 12.3239C14.8971 11.2439 13.2791 11.0189 11.9741 11.6489L10.7991 10.4739L13.1631 8.1099C13.7671 7.5059 14.1001 6.7019 14.1001 5.8469V4.5469C16.8771 5.6309 18.9041 8.2229 19.1681 11.3119ZM3.9821 8.5519C4.1651 8.5889 4.3031 8.7499 4.3031 8.9439V9.8749C4.3031 10.4129 4.5251 10.9369 4.9111 11.3109L6.5391 12.8889L3.9651 15.4129C3.4741 14.3769 3.1991 13.2199 3.1991 11.9999C3.1991 10.7799 3.4811 9.5969 3.9821 8.5519ZM11.2001 19.9999C8.5971 19.9999 6.2801 18.7489 4.8181 16.8179L8.0361 13.6629L8.0711 13.6169C8.4391 13.1339 8.3881 12.4509 7.9511 12.0279L6.0251 10.1619C5.9481 10.0869 5.9031 9.9819 5.9031 9.8749V8.9439C5.9031 8.1739 5.4651 7.5059 4.8261 7.1709C6.2881 5.2459 8.6011 3.9989 11.1991 3.9989C11.6421 3.9989 12.0761 4.0369 12.4991 4.1059V5.8449C12.4991 6.2719 12.3331 6.6739 12.0301 6.9759L9.3831 9.6229C8.9151 10.0909 8.9151 10.8519 9.3831 11.3199L10.7241 12.6609C10.2541 13.2689 9.9991 14.0109 9.9991 14.7949C9.9991 15.7039 10.3811 16.6279 11.0221 17.2679L13.4391 19.6769C12.7281 19.8849 11.9771 19.9989 11.1991 19.9989L11.2001 19.9999ZM20.2481 16.1359L16.2001 20.1709L12.1531 16.1369C11.8121 15.7959 11.6001 15.2829 11.6001 14.7969C11.6001 14.3109 11.7961 13.8129 12.1531 13.4569C12.5241 13.0859 13.0121 12.9009 13.5001 12.9009C13.9881 12.9009 14.4761 13.0869 14.8471 13.4569C15.1511 13.7609 15.3521 14.1239 15.4111 14.4799H16.9891C17.0481 14.1239 17.2481 13.7609 17.5531 13.4569C18.2961 12.7149 19.5041 12.7149 20.2471 13.4569C20.6041 13.8129 20.8001 14.2889 20.8001 14.7969C20.8001 15.3049 20.5881 15.7959 20.2481 16.1359Z"/>
</svg>
