<svg width="24" height="24" viewBox="0 0 24 24" xmlns="http://www.w3.org/2000/svg">
<path d="M2.8321 17.968C2.0721 17.208 1.6001 16.158 1.6001 15C1.6001 12.851 3.2221 11.074 5.3061 10.829C5.9771 9.04895 7.6601 7.84195 9.6001 7.80195V9.40195C8.3691 9.44095 7.3001 10.192 6.8391 11.305C6.8331 11.32 6.8271 11.335 6.8211 11.35C6.8111 11.374 6.8021 11.398 6.7931 11.423C6.7821 11.452 6.7721 11.481 6.7631 11.51C6.7591 11.52 6.7561 11.531 6.7531 11.541C6.7411 11.578 6.7301 11.616 6.7191 11.654C6.7191 11.654 6.7191 11.657 6.7181 11.659C6.7041 11.707 6.6921 11.755 6.6811 11.804L6.5351 12.422L5.8511 12.402C5.8341 12.402 5.8181 12.401 5.8011 12.401C4.3651 12.401 3.2011 13.565 3.2011 15.001C3.2011 15.719 3.4921 16.369 3.9631 16.839L2.8331 17.969L2.8321 17.968ZM19.1921 9.87095C19.1971 9.78095 19.2001 9.68995 19.2001 9.59995C19.2001 6.95295 17.0471 4.79995 14.4001 4.79995V6.39995C16.1671 6.39995 17.6001 7.83295 17.6001 9.59995C17.6001 9.66595 17.5971 9.73095 17.5931 9.79695C17.5911 9.82495 17.5891 9.85195 17.5861 9.87895C17.5831 9.91495 17.5791 9.95095 17.5751 9.98695C17.5711 10.021 17.5661 10.055 17.5611 10.089C17.5571 10.117 17.5511 10.146 17.5461 10.174C17.5391 10.21 17.5331 10.247 17.5251 10.282C17.5251 10.285 17.5241 10.288 17.5231 10.291L17.3441 11.104L18.0841 11.236C18.2071 11.255 18.3271 11.281 18.4451 11.313H18.4481C18.4921 11.325 18.5361 11.338 18.5801 11.352C18.5861 11.354 18.5911 11.356 18.5971 11.358C18.6361 11.371 18.6751 11.384 18.7131 11.398C19.6471 11.743 20.3601 12.503 20.6531 13.44C20.6561 13.45 20.6591 13.46 20.6621 13.47C20.6731 13.507 20.6841 13.544 20.6941 13.582C20.6981 13.598 20.7021 13.614 20.7061 13.631C20.7141 13.663 20.7211 13.695 20.7281 13.727C20.7321 13.746 20.7361 13.765 20.7401 13.784C20.7461 13.814 20.7511 13.845 20.7561 13.876C20.7591 13.896 20.7631 13.916 20.7651 13.936C20.7691 13.967 20.7731 13.998 20.7771 14.029C20.7791 14.049 20.7821 14.069 20.7841 14.089C20.7871 14.123 20.7901 14.157 20.7921 14.192C20.7931 14.209 20.7951 14.226 20.7951 14.243C20.7971 14.295 20.7991 14.346 20.7991 14.398C20.7991 16.165 19.3661 17.598 17.5991 17.598H8.0991V19.198H17.5991C20.2461 19.198 22.3991 17.045 22.3991 14.398C22.3991 12.33 21.0891 10.532 19.1911 9.86895L19.1921 9.87095ZM5.6001 17.5C5.1031 17.5 4.7001 17.903 4.7001 18.4C4.7001 18.897 5.1031 19.3 5.6001 19.3C6.0971 19.3 6.5001 18.897 6.5001 18.4C6.5001 17.903 6.0971 17.5 5.6001 17.5ZM14.4341 11.234L12.8001 12.868V3.19995H11.2001V12.869L9.5661 11.235L8.4351 12.366L12.0011 15.932L15.5671 12.366L14.4361 11.235L14.4341 11.234Z"/>
</svg>
