<svg width="24" height="24" viewBox="0 0 24 24" xmlns="http://www.w3.org/2000/svg">
<path d="M12.0001 22.4001C6.2651 22.4001 1.6001 17.7351 1.6001 12.0001C1.6001 6.2651 6.2651 1.6001 12.0001 1.6001C17.7351 1.6001 22.4001 6.2651 22.4001 12.0001C22.4001 17.7351 17.7351 22.4001 12.0001 22.4001ZM12.0001 3.2001C7.1481 3.2001 3.2001 7.1481 3.2001 12.0001C3.2001 16.8521 7.1481 20.8001 12.0001 20.8001C16.8521 20.8001 20.8001 16.8521 20.8001 12.0001C20.8001 7.1481 16.8521 3.2001 12.0001 3.2001ZM5.2001 12.0001C5.1921 10.8011 5.5071 9.6221 6.1111 8.5861C6.7041 7.5581 7.5581 6.7041 8.5861 6.1111C9.6221 5.5071 10.8011 5.1921 12.0001 5.2001C13.1991 5.1921 14.3781 5.5071 15.4141 6.1111C16.4421 6.7041 17.2961 7.5581 17.8891 8.5861C18.4931 9.6221 18.8081 10.8011 18.8001 12.0001C18.8081 13.1991 18.4931 14.3781 17.8891 15.4141C17.2961 16.4421 16.4421 17.2961 15.4141 17.8891C14.3781 18.4931 13.1991 18.8081 12.0001 18.8001C10.8011 18.8081 9.6221 18.4931 8.5861 17.8891C7.5581 17.2961 6.7041 16.4421 6.1111 15.4141C5.5071 14.3781 5.1921 13.1991 5.2001 12.0001ZM6.3291 12.0001C6.3291 13.4141 6.8051 14.6611 7.7571 15.7401C8.1921 14.8901 8.8791 14.0741 9.8241 13.3061C10.7691 12.5381 11.6871 12.0481 12.5851 11.8511C12.4491 11.5311 12.3201 11.2461 12.1911 10.9941C10.6341 11.4931 8.9471 11.7421 7.1321 11.7421C6.7781 11.7421 6.5131 11.7351 6.3431 11.7281C6.3431 11.7731 6.3411 11.8191 6.3361 11.8641C6.3311 11.9091 6.3291 11.9551 6.3291 12.0001ZM6.5061 10.5991C6.7031 10.6191 7.0021 10.6261 7.3901 10.6261C8.8491 10.6341 10.3021 10.4281 11.7011 10.0141C11.0141 8.7901 10.2531 7.7701 9.4301 6.9541C8.7121 7.3161 8.0831 7.8311 7.5871 8.4641C7.0841 9.0941 6.7161 9.8211 6.5061 10.5991ZM8.5321 16.4741C10.0801 17.6971 12.1611 18.0081 13.9991 17.2901C13.8191 15.7541 13.4631 14.2431 12.9381 12.7881C12.1021 12.9721 11.2651 13.4271 10.4151 14.1621C9.5651 14.8961 8.9391 15.6651 8.5311 16.4741H8.5321ZM10.6131 6.5191C11.4091 7.3421 12.1501 8.3751 12.8301 9.6061C14.0611 9.0891 14.9901 8.4321 15.6181 7.6341C14.6081 6.7791 13.3241 6.3161 12.0001 6.3281C11.5311 6.3281 11.0641 6.3921 10.6131 6.5181V6.5191ZM13.3191 10.5721C13.4551 10.8641 13.6111 11.2321 13.7811 11.6741C14.4541 11.6131 15.1821 11.5791 15.9711 11.5791C16.5351 11.5791 17.0931 11.5931 17.6441 11.6201C17.5781 10.4051 17.1091 9.2471 16.3111 8.3291C15.7191 9.2061 14.7271 9.9541 13.3191 10.5731V10.5721ZM14.1221 12.6261C14.5841 13.9661 14.8991 15.3521 15.0601 16.7601C15.7691 16.3031 16.3691 15.6951 16.8141 14.9781C17.2641 14.2671 17.5431 13.4621 17.6301 12.6251C16.9701 12.5771 16.3651 12.5571 15.8211 12.5571C15.3251 12.5571 14.7531 12.5771 14.1211 12.6251L14.1221 12.6261Z"/>
</svg>
