<svg width="24" height="24" viewBox="0 0 24 24" xmlns="http://www.w3.org/2000/svg">
<path d="M2.40014 12.0001C2.38914 10.3071 2.83314 8.64312 3.68614 7.18112C4.52314 5.72912 5.72914 4.52412 7.18014 3.68712C8.64214 2.83412 10.3061 2.38912 11.9991 2.40112C13.6921 2.39012 15.3561 2.83412 16.8181 3.68712C18.2701 4.52412 19.4751 5.73011 20.3121 7.18112C21.1651 8.64312 21.6101 10.3071 21.5981 12.0001C21.6091 13.6931 21.1651 15.3571 20.3121 16.8191C19.4751 18.2711 18.2691 19.4761 16.8181 20.3131C15.3561 21.1661 13.6921 21.6111 11.9991 21.5991C10.3061 21.6101 8.64214 21.1661 7.18014 20.3131C5.72814 19.4761 4.52314 18.2701 3.68614 16.8191C2.83314 15.3571 2.38814 13.6931 2.40014 12.0001ZM3.99414 12.0001C3.99414 13.9971 4.66614 15.7571 6.01014 17.2801C6.62414 16.0801 7.59414 14.9281 8.92814 13.8431C10.2621 12.7581 11.5581 12.0671 12.8261 11.7891C12.6341 11.3381 12.4521 10.9351 12.2691 10.5791C10.0711 11.2831 7.69014 11.6351 5.12714 11.6351C4.62814 11.6351 4.25314 11.6251 4.01314 11.6161C4.01314 11.6801 4.01114 11.7441 4.00314 11.8081C3.99614 11.8721 3.99314 11.9361 3.99414 12.0001ZM4.24314 10.0221C4.52114 10.0511 4.94414 10.0601 5.49114 10.0601C7.55114 10.0711 9.60214 9.78012 11.5771 9.19612C10.6071 7.46811 9.53214 6.02812 8.37114 4.87612C7.35814 5.38712 6.46914 6.11412 5.76914 7.00712C5.05914 7.89612 4.53914 8.92212 4.24314 10.0211V10.0221ZM7.10414 18.3171C9.29014 20.0441 12.2271 20.4821 14.8221 19.4691C14.5681 17.3001 14.0651 15.1681 13.3241 13.1141C12.1431 13.3731 10.9621 14.0161 9.76214 15.0531C8.56214 16.0901 7.67914 17.1751 7.10314 18.3171H7.10414ZM10.0421 4.26312C11.1651 5.42512 12.2121 6.88412 13.1721 8.62112C14.9101 7.89112 16.2221 6.96312 17.1081 5.83712C15.6821 4.63012 13.8691 3.97612 12.0011 3.99412C11.3391 3.99412 10.6801 4.08412 10.0431 4.26312H10.0421ZM13.8621 9.98412C14.0541 10.3971 14.2751 10.9151 14.5151 11.5391C15.4651 11.4531 16.4931 11.4051 17.6061 11.4051C18.4031 11.4051 19.1901 11.4241 19.9681 11.4631C19.8751 9.74811 19.2121 8.11312 18.0861 6.81712C17.2511 8.05512 15.8491 9.11111 13.8621 9.98512V9.98412ZM14.9951 12.8831C15.6481 14.7751 16.0921 16.7321 16.3201 18.7201C17.3221 18.0751 18.1681 17.2161 18.7971 16.2051C19.4321 15.2021 19.8271 14.0651 19.9491 12.8831C19.0181 12.8161 18.1631 12.7871 17.3951 12.7871C16.6941 12.7871 15.8881 12.8161 14.9951 12.8831Z"/>
</svg>
