<svg width="24" height="24" viewBox="0 0 24 24" xmlns="http://www.w3.org/2000/svg">
<path d="M4.8 10.8691V14.4001H8.331L17.131 5.60009L13.6 2.06909L4.8 10.8691ZM7.669 12.8001H6.4V11.5311L11.2 6.73109L12.469 8.00009L7.669 12.8001ZM13.6 4.33109L14.869 5.60009L13.6 6.86909L12.331 5.60009L13.6 4.33109ZM22.4 6.40009H18.9L17.3 8.00009H20.8V12.1861C19.783 11.1471 18.366 10.5001 16.8 10.5001C13.746 10.5001 11.256 12.9581 11.203 16.0001H3.2V8.00009H5.1L6.7 6.40009H1.6V17.6001H11.406C12.064 19.9621 14.232 21.7001 16.8 21.7001C19.888 21.7001 22.4 19.1881 22.4 16.1001V6.40009ZM16.8 20.1001C14.594 20.1001 12.8 18.3061 12.8 16.1001C12.8 13.8941 14.594 12.1001 16.8 12.1001C19.006 12.1001 20.8 13.8941 20.8 16.1001C20.8 18.3061 19.006 20.1001 16.8 20.1001ZM18.123 14.2701C17.927 14.0881 17.708 13.9621 17.466 13.8931C17.224 13.8241 16.99 13.7901 16.763 13.7901C16.536 13.7901 16.292 13.8301 16.031 13.9101C15.77 13.9901 15.53 14.1191 15.31 14.2991C15.09 14.4791 14.907 14.7161 14.761 15.0121C14.615 15.3081 14.542 15.6691 14.542 16.0961C14.542 16.5231 14.605 16.8801 14.732 17.1761C14.859 17.4721 15.027 17.7101 15.237 17.8891C15.446 18.0691 15.687 18.1981 15.96 18.2781C16.233 18.3581 16.512 18.3981 16.799 18.3981C17.183 18.3981 17.535 18.3421 17.857 18.2301C18.178 18.1181 18.468 17.9521 18.724 17.7341L18.226 16.9681C18.077 17.1001 17.884 17.2171 17.644 17.3171C17.405 17.4171 17.156 17.4671 16.896 17.4671C16.62 17.4671 16.389 17.3891 16.201 17.2341C16.013 17.0791 15.902 16.8191 15.867 16.4541H18.797V16.2551C18.797 15.7551 18.733 15.3451 18.607 15.0251C18.48 14.7051 18.319 14.4541 18.123 14.2711V14.2701ZM15.884 15.6661C15.935 15.3451 16.042 15.1101 16.204 14.9631C16.366 14.8161 16.55 14.7421 16.755 14.7421C17.004 14.7421 17.199 14.8181 17.341 14.9711C17.483 15.1241 17.57 15.3551 17.602 15.6661H15.884Z"/>
</svg>
