<svg width="24" height="24" viewBox="0 0 24 24" xmlns="http://www.w3.org/2000/svg">
<path d="M20.9999 20C20.9999 20.497 20.5969 20.9 20.0999 20.9C19.6029 20.9 19.1999 20.497 19.1999 20C19.1999 19.503 19.6029 19.1 20.0999 19.1C20.5969 19.1 20.9999 19.503 20.9999 20ZM20.2829 8.04897L7.53193 20.8H3.20093V16.469L15.9519 3.71697C16.1789 3.48997 16.4799 3.36597 16.8009 3.36597C17.1219 3.36597 17.4229 3.49097 17.6499 3.71797L20.2839 6.35197C20.7519 6.81997 20.7509 7.58097 20.2829 8.04897ZM15.6689 10.4L13.5999 8.33097L4.79993 17.131V19.2H6.86893L15.6689 10.4ZM18.8689 7.19997L16.7999 5.13097L14.7309 7.19997L16.7999 9.26897L18.8689 7.19997ZM11.3999 19.2L9.79993 20.8H17.5999V19.2H11.3999Z"/>
</svg>
