<svg width="24" height="24" viewBox="0 0 24 24" xmlns="http://www.w3.org/2000/svg">
<path d="M13.6 6.40005H7.2V8.00005H13.6V6.40005Z"/>
<path d="M15.2 20.5161L13.836 19.629L13.797 19.6051C13.432 19.3961 12.98 19.3951 12.613 19.5991L10.4 20.798L8.187 19.5991C7.821 19.3941 7.368 19.3961 7.003 19.6051L5.6 20.5151V3.65705L7.005 4.46005C7.372 4.67005 7.828 4.67005 8.196 4.46005L10.401 3.20005L12.606 4.46005C12.973 4.67005 13.429 4.67005 13.797 4.46005L15.202 3.65705V8.08505L13.788 9.60005H7.202V11.2001H12.294L10.801 12.8001H7.202V14.4001H9.602V17.6H13.15L13.385 17.3481L21.92 8.38705L18.388 4.85505L16.802 6.52005V2.80005H16.79C16.739 2.43905 16.524 2.11605 16.205 1.93005C15.836 1.71605 15.378 1.71505 15.007 1.92605L13.202 2.95705L10.997 1.69705C10.63 1.48705 10.173 1.48705 9.806 1.69705L7.601 2.95705L5.796 1.92605C5.426 1.71405 4.967 1.71605 4.598 1.93005C4.278 2.11605 4.064 2.43905 4.013 2.80005H4.001V21.2001C4.001 21.6431 4.242 22.0581 4.629 22.2831C4.998 22.4971 5.435 22.5021 5.797 22.2941L7.619 21.1111L9.813 22.3001C9.994 22.4011 10.197 22.4521 10.4 22.4521C10.603 22.4521 10.805 22.4011 10.987 22.3001L13.181 21.1111L14.964 22.2701L15.003 22.2941C15.366 22.5011 15.802 22.4971 16.172 22.2831C16.56 22.0581 16.8 21.6431 16.8 21.2001V15.7001L15.2 17.3001V20.5161ZM11.2 14.72L16.072 9.60405L17.287 10.8191L12.452 16.0001H11.2V14.72ZM18.414 7.14505L19.682 8.41305L18.444 9.71305L17.176 8.44505L18.414 7.14505Z"/>
</svg>
