<svg width="24" height="24" viewBox="0 0 24 24" xmlns="http://www.w3.org/2000/svg">
<path d="M12 9.6001C14.206 9.6001 16 7.8061 16 5.6001C16 3.3941 14.206 1.6001 12 1.6001C9.794 1.6001 8 3.3941 8 5.6001C8 7.8061 9.794 9.6001 12 9.6001ZM12 3.2001C13.323 3.2001 14.4 4.2771 14.4 5.6001C14.4 6.9231 13.323 8.0001 12 8.0001C10.677 8.0001 9.6 6.9231 9.6 5.6001C9.6 4.2771 10.677 3.2001 12 3.2001ZM22.331 13.2001L18.8 9.6691L16.4 12.0691L16.12 12.3481C14.916 11.6211 13.506 11.2001 12 11.2001C7.589 11.2001 4 14.7891 4 19.2001V22.4001H7.9V20.8001H5.6V19.2001C5.6 15.6711 8.471 12.8001 12 12.8001C13.062 12.8001 14.064 13.0621 14.946 13.5221L9.6 18.8681V22.3991H13.131L22.331 13.2001ZM18.8 11.9311L20.069 13.2001L18.8 14.4691L17.531 13.2001L18.8 11.9311ZM12.469 20.8001H11.2V19.5311L16.4 14.3311L17.669 15.6001L12.469 20.8001ZM17.016 20.8001H20.8V22.4001H15.416L17.016 20.8001Z"/>
</svg>
