<svg width="24" height="24" viewBox="0 0 24 24" xmlns="http://www.w3.org/2000/svg">
<path d="M21.6001 16.2C22.0972 16.2 22.5001 15.7971 22.5001 15.3C22.5001 14.803 22.0972 14.4 21.6001 14.4C21.103 14.4 20.7001 14.803 20.7001 15.3C20.7001 15.7971 21.103 16.2 21.6001 16.2Z"/>
<path d="M21.6371 8.47904L12.4341 4.88204C12.1541 4.77304 11.8461 4.77304 11.5671 4.88204L2.3631 8.47904C1.9001 8.66004 1.6001 9.10004 1.6001 9.60004C1.6001 10.1 1.8991 10.54 2.3631 10.721L5.6001 11.986V15.407L5.7001 15.588C6.9551 17.85 9.3101 19.2 12.0001 19.2C14.6901 19.2 17.0451 17.85 18.3001 15.588L18.4001 15.407V11.986L20.8001 11.048V12.8H22.4001V9.60004C22.4001 9.10004 22.1011 8.66004 21.6371 8.47904ZM16.8001 14.985C15.8081 16.626 14.0291 17.6 12.0001 17.6C9.9711 17.6 8.1921 16.627 7.2001 14.985V12.611L11.5661 14.318C11.7061 14.373 11.8531 14.4 12.0001 14.4C12.1471 14.4 12.2941 14.373 12.4331 14.318L16.8001 12.611V14.985ZM12.0001 12.77L3.8901 9.60004L12.0001 6.43004L20.1101 9.60004L12.0001 12.77Z"/>
</svg>
