<svg width="24" height="24" viewBox="0 0 24 24" xmlns="http://www.w3.org/2000/svg">
<path d="M9.434 5.36596L8.2 4.13196L6.966 5.36596L5.835 4.23496L8.201 1.86896L10.567 4.23496L9.436 5.36596H9.434ZM18.366 2.96596L17.235 1.83496L16.001 3.06896L14.767 1.83496L13.636 2.96596L16.002 5.33196L18.368 2.96596H18.366ZM20 9.19996V20.4C20 21.503 19.103 22.4 18 22.4H6C4.897 22.4 4 21.503 4 20.4V9.19996C4 8.09696 4.897 7.19996 6 7.19996H18C19.103 7.19996 20 8.09696 20 9.19996ZM6 20.8H11.2V8.79996H6C5.779 8.79996 5.6 8.97896 5.6 9.19996V20.4C5.6 20.621 5.779 20.8 6 20.8ZM18.4 9.19996C18.4 8.97896 18.221 8.79996 18 8.79996H12.8V20.8H18C18.221 20.8 18.4 20.621 18.4 20.4V9.19996Z"/>
</svg>
