<svg width="24" height="24" viewBox="0 0 24 24" xmlns="http://www.w3.org/2000/svg">
<path d="M1.6001 4.80005V19.2H22.4001V4.80005H1.6001ZM20.8001 17.6H3.2001V7.20005L11.3001 13.275C11.5111 13.433 11.7661 13.513 12.0211 13.513C12.2421 13.513 12.4631 13.453 12.6561 13.332L16.4231 10.977L15.5751 9.62005L12.0401 11.829L4.7991 6.39805H20.7991V17.598L20.8001 17.6Z"/>
<path d="M18.4001 9.70005C18.8972 9.70005 19.3001 9.2971 19.3001 8.80005C19.3001 8.30299 18.8972 7.90005 18.4001 7.90005C17.903 7.90005 17.5001 8.30299 17.5001 8.80005C17.5001 9.2971 17.903 9.70005 18.4001 9.70005Z"/>
</svg>
