<svg width="24" height="24" viewBox="0 0 24 24" xmlns="http://www.w3.org/2000/svg">
<path d="M18.1001 12.1C18.1001 12.597 17.6971 13 17.2001 13C16.7031 13 16.3001 12.597 16.3001 12.1C16.3001 11.603 16.7031 11.2 17.2001 11.2C17.6971 11.2 18.1001 11.603 18.1001 12.1ZM22.4001 7.99995V22.4H1.6001V8.00095L11.2841 0.836951C11.7041 0.521951 12.2961 0.521951 12.7201 0.839951L22.3971 7.99995H22.4001ZM4.2901 7.99995H19.7071L12.0001 2.29795L4.2901 7.99995ZM20.8001 9.59995H4.8001L12.0011 15.001L14.6201 13.049L15.7631 14.192L12.7181 16.462C12.5071 16.62 12.2541 16.699 12.0001 16.699C11.7461 16.699 11.4921 16.62 11.2791 16.46L3.1991 10.4V20.8H20.7991L20.8001 9.59995Z"/>
</svg>
