<svg width="24" height="24" viewBox="0 0 24 24" xmlns="http://www.w3.org/2000/svg">
<path d="M9.19698 11.671C9.19698 12.376 8.69198 13.2 7.26798 13.2C6.28198 13.2 5.57098 12.729 5.14898 12.335L5.08198 12.273L5.74898 11.418L5.82898 11.501C6.15497 11.839 6.74398 12.182 7.23698 12.182C7.41298 12.182 7.98798 12.15 7.98798 11.742C7.98798 11.486 7.77397 11.344 7.10897 11.159L7.03698 11.139C6.23298 10.914 5.32098 10.66 5.32098 9.62695C5.32098 8.71395 6.02598 8.12295 7.11698 8.12295C7.99198 8.12295 8.66998 8.56295 8.99598 8.82495L9.06598 8.88095L8.47797 9.78995L8.39098 9.71495C8.07698 9.44295 7.56897 9.16795 7.14197 9.16795C6.75898 9.16795 6.53097 9.30595 6.53097 9.53795C6.53097 9.82595 6.79398 9.94595 7.42298 10.121C8.21398 10.334 9.19798 10.599 9.19798 11.672L9.19698 11.671ZM14.297 10.661C14.297 12.415 13.137 13.2 11.987 13.2C10.837 13.2 9.67097 12.415 9.67097 10.661C9.67097 8.90695 10.834 8.12195 11.987 8.12195C13.14 8.12195 14.297 8.90695 14.297 10.661ZM13.068 10.661C13.068 9.74695 12.654 9.17995 11.987 9.17995C11.32 9.17995 10.906 9.73395 10.906 10.661C10.906 11.588 11.32 12.168 11.987 12.168C12.654 12.168 13.068 11.591 13.068 10.661ZM17.024 10.12C16.395 9.94495 16.132 9.82495 16.132 9.53695C16.132 9.30495 16.361 9.16695 16.743 9.16695C17.17 9.16695 17.678 9.44195 17.992 9.71395L18.079 9.78895L18.667 8.87995L18.597 8.82395C18.271 8.56195 17.593 8.12195 16.718 8.12195C15.627 8.12195 14.922 8.71195 14.922 9.62595C14.922 10.658 15.834 10.913 16.638 11.138L16.71 11.158C17.376 11.343 17.589 11.485 17.589 11.741C17.589 12.149 17.014 12.181 16.838 12.181C16.345 12.181 15.757 11.839 15.43 11.5L15.35 11.417L14.683 12.272L14.75 12.334C15.173 12.729 15.884 13.199 16.87 13.199C18.294 13.199 18.799 12.375 18.799 11.67C18.799 10.597 17.815 10.332 17.023 10.119L17.024 10.12ZM3.64898 21.483L6.73198 18.4H22.401V3.19995H1.59998V20.634C1.59998 21.121 1.89098 21.556 2.34098 21.743C2.48998 21.805 2.64698 21.835 2.80098 21.835C3.11298 21.835 3.41798 21.713 3.64798 21.483H3.64898ZM20.8 4.79995V16.8H6.56598C6.24498 16.8 5.94397 16.925 5.71698 17.151L3.19998 19.668V4.79995H20.8Z"/>
</svg>
