<svg width="24" height="24" viewBox="0 0 24 24" xmlns="http://www.w3.org/2000/svg">
<path d="M22.4001 16H15.2001V13.328C14.4701 13.058 13.3151 12.8 12.0001 12.8C10.6851 12.8 9.5391 13.059 8.8001 13.33V16H1.6001V11.142C1.6001 10.745 1.7961 10.374 2.1251 10.149C4.1521 8.763 7.6591 8 12.0001 8C16.3411 8 19.8171 8.781 21.8631 10.144C22.1991 10.368 22.4001 10.742 22.4001 11.145V16ZM16.8001 14.4H20.8001V11.363C18.9951 10.256 15.7321 9.6 12.0001 9.6C8.2681 9.6 4.9761 10.238 3.2001 11.357V14.4H7.2001V13.058C7.2001 12.576 7.4881 12.142 7.9331 11.952C9.0421 11.481 10.5621 11.199 12.0001 11.199C13.4381 11.199 14.9761 11.481 16.0721 11.952C16.5141 12.142 16.8001 12.576 16.8001 13.056V14.4Z"/>
</svg>
