<svg width="24" height="24" viewBox="0 0 24 24" xmlns="http://www.w3.org/2000/svg">
<path d="M21.6001 10.4001H22.4001V5.6001H1.6001V10.4001H2.4001C3.2821 10.4001 4.0001 11.1181 4.0001 12.0001C4.0001 12.8821 3.2821 13.6001 2.4001 13.6001H1.6001V18.4001H22.4001V13.6001H21.6001C20.7181 13.6001 20.0001 12.8821 20.0001 12.0001C20.0001 11.1181 20.7181 10.4001 21.6001 10.4001ZM20.8001 15.0991V16.8001H9.6001V14.6001H8.0001V16.8001H3.2001V15.0991C4.5791 14.7431 5.6001 13.4891 5.6001 12.0001C5.6001 10.5111 4.5791 9.2571 3.2001 8.9011V7.2001H8.0001V9.4001H9.6001V7.2001H20.8001V8.9011C19.4211 9.2571 18.4001 10.5111 18.4001 12.0001C18.4001 13.4891 19.4211 14.7431 20.8001 15.0991ZM9.7001 12.0001C9.7001 12.4971 9.2971 12.9001 8.8001 12.9001C8.3031 12.9001 7.9001 12.4971 7.9001 12.0001C7.9001 11.5031 8.3031 11.1001 8.8001 11.1001C9.2971 11.1001 9.7001 11.5031 9.7001 12.0001Z"/>
</svg>
