<svg width="24" height="24" viewBox="0 0 24 24" xmlns="http://www.w3.org/2000/svg">
<path d="M12 2.3999C6.70699 2.3999 2.39999 6.7069 2.39999 11.9999C2.39999 17.2929 6.70699 21.5999 12 21.5999C17.293 21.5999 21.6 17.2929 21.6 11.9999C21.6 6.7069 17.293 2.3999 12 2.3999ZM12 19.9999C7.58899 19.9999 3.99999 16.4109 3.99999 11.9999C3.99999 7.5889 7.58899 3.9999 12 3.9999C16.411 3.9999 20 7.5889 20 11.9999C20 16.4109 16.411 19.9999 12 19.9999ZM13.575 13.6919L14.716 14.8329C14.195 15.5539 13.396 15.9999 12.283 15.9999C10.329 15.9999 9.34299 14.6259 9.12799 12.7999H8.08299V11.1999H9.12899C9.34599 9.3739 10.339 7.9999 12.283 7.9999C13.392 7.9999 14.191 8.4469 14.714 9.1689L13.574 10.3089C13.317 9.7529 12.894 9.3999 12.283 9.3999C11.389 9.3999 10.897 10.1559 10.74 11.1999H11.883V12.7999H10.739C10.895 13.8439 11.384 14.5999 12.283 14.5999C12.896 14.5999 13.319 14.2469 13.575 13.6919Z"/>
</svg>
