<svg width="24" height="24" viewBox="0 0 24 24" xmlns="http://www.w3.org/2000/svg">
<path d="M12.331 1.6001H4V22.4001H7V20.8001H5.6V3.2001H11.2V10.4001H18.4V20.8001H12V22.4001H20V9.2691L12.331 1.6001ZM12.8 4.3311L17.269 8.8001H12.8V4.3311ZM10.4 21.6001C10.4 21.7781 10.3472 21.9521 10.2483 22.1001C10.1494 22.2481 10.0089 22.3635 9.84442 22.4316C9.67996 22.4997 9.499 22.5175 9.32442 22.4828C9.14984 22.4481 8.98947 22.3624 8.8636 22.2365C8.73774 22.1106 8.65202 21.9503 8.61729 21.7757C8.58257 21.6011 8.60039 21.4201 8.66851 21.2557C8.73663 21.0912 8.85198 20.9507 8.99999 20.8518C9.14799 20.7529 9.322 20.7001 9.5 20.7001C9.73869 20.7001 9.96761 20.7949 10.1364 20.9637C10.3052 21.1325 10.4 21.3614 10.4 21.6001ZM9.418 15.5221L10.468 17.2221L9.538 17.3571L8.889 16.2751L8.289 17.2971H7.314L8.393 15.5161L7.446 13.9891L8.4 13.8581L8.939 14.7771L9.424 13.9181H10.386L9.418 15.5221ZM13.161 16.5321L13.3 17.3001H10.927V13.9181H11.827V16.5321H13.161ZM16.4 16.2931C16.4 16.7851 16.049 17.3601 15.062 17.3601C14.5164 17.3574 13.9929 17.1447 13.6 16.7661L13.533 16.7041L14.026 16.0721L14.106 16.1551C14.322 16.3791 14.706 16.6061 15.036 16.6061C15.179 16.6061 15.512 16.5801 15.512 16.3411C15.512 16.1861 15.373 16.0981 14.94 15.9771L14.891 15.9631C14.335 15.8081 13.706 15.6321 13.706 14.9091C13.706 14.2811 14.206 13.8591 14.954 13.8591C15.4264 13.8708 15.8813 14.0405 16.246 14.3411L16.316 14.3981L15.882 15.0691L15.795 14.9941C15.595 14.8191 15.25 14.6311 14.97 14.6311C14.88 14.6311 14.588 14.6471 14.588 14.8491C14.588 15.0081 14.713 15.0861 15.168 15.2131C15.685 15.3521 16.394 15.5431 16.394 16.2941L16.4 16.2931Z"/>
</svg>
