<svg width="24" height="24" viewBox="0 0 24 24" xmlns="http://www.w3.org/2000/svg">
<path d="M12 9.6001C14.206 9.6001 16 7.8061 16 5.6001C16 3.3941 14.206 1.6001 12 1.6001C9.794 1.6001 8 3.3941 8 5.6001C8 7.8061 9.794 9.6001 12 9.6001ZM12 3.2001C13.323 3.2001 14.4 4.2771 14.4 5.6001C14.4 6.9231 13.323 8.0001 12 8.0001C10.677 8.0001 9.6 6.9231 9.6 5.6001C9.6 4.2771 10.677 3.2001 12 3.2001Z"/>
<path d="M12 11.2001C7.589 11.2001 4 14.7891 4 19.2001V22.4001H8V20.8001H5.6V19.2001C5.6 16.7191 7.02 14.5651 9.089 13.5031L10.971 16.6401C11.19 17.0051 11.575 17.2231 12 17.2231C12.425 17.2231 12.81 17.0051 13.029 16.6401L14.911 13.5031C16.98 14.5651 18.4 16.7191 18.4 19.2001V21.6001H20V19.2001C20 14.7891 16.411 11.2001 12 11.2001ZM12 15.2451L10.623 12.9511C11.067 12.8531 11.527 12.8001 12 12.8001C12.473 12.8001 12.933 12.8531 13.377 12.9511L12 15.2451Z"/>
<path d="M10.4 22.5001C10.8971 22.5001 11.3 22.0972 11.3 21.6001C11.3 21.103 10.8971 20.7001 10.4 20.7001C9.90294 20.7001 9.5 21.103 9.5 21.6001C9.5 22.0972 9.90294 22.5001 10.4 22.5001Z"/>
</svg>
