<svg width="24" height="24" viewBox="0 0 24 24" xmlns="http://www.w3.org/2000/svg">
<path d="M19.8109 6.42893L20.5929 5.04093C20.8609 4.56593 20.7809 3.98893 20.3959 3.60293C20.0109 3.21793 19.4329 3.13893 18.9579 3.40593L17.5709 4.18793C15.9989 3.06293 14.0759 2.39893 11.9999 2.39893C6.7069 2.39893 2.3999 6.70593 2.3999 11.9989C2.3999 14.0869 3.0709 16.0199 4.2069 17.5969L3.4929 18.8719C3.2279 19.3459 3.3079 19.9219 3.6919 20.3069C3.9249 20.5399 4.2289 20.6609 4.5369 20.6609C4.7369 20.6609 4.9399 20.6099 5.1259 20.5059L6.4019 19.7919C7.9789 20.9279 9.9119 21.5999 11.9989 21.5999C17.2919 21.5999 21.5989 17.2929 21.5989 11.9999C21.5989 9.92393 20.9359 8.00093 19.8109 6.42893ZM3.9999 11.9999C3.9999 7.58893 7.5889 3.99993 11.9999 3.99993C13.4559 3.99993 14.8209 4.39293 15.9979 5.07593L9.3059 8.84793C9.1139 8.95593 8.9559 9.11493 8.8479 9.30693L5.0909 16.0209C4.3999 14.8389 3.9999 13.4659 3.9999 11.9999ZM10.1879 10.1869L18.4949 5.50493L13.8129 13.8119L5.5809 18.4189L10.1879 10.1869ZM11.9999 19.9999C10.5339 19.9999 9.1599 19.6019 7.9779 18.9109L14.6929 15.1529C14.8849 15.0449 15.0439 14.8869 15.1519 14.6949L18.9239 8.00193C19.6069 9.17893 19.9999 10.5439 19.9999 11.9999C19.9999 16.4109 16.4109 19.9999 11.9999 19.9999ZM12.8999 11.9999C12.8999 12.4969 12.4969 12.8999 11.9999 12.8999C11.5029 12.8999 11.0999 12.4969 11.0999 11.9999C11.0999 11.5029 11.5029 11.0999 11.9999 11.0999C12.4969 11.0999 12.8999 11.5029 12.8999 11.9999Z"/>
</svg>
