<svg width="24" height="24" viewBox="0 0 24 24" xmlns="http://www.w3.org/2000/svg">
<path d="M18.7389 1.9661C18.4459 1.7371 18.0699 1.6571 17.7089 1.7481L14.3999 2.5751V4.0001H12.7999C12.7999 2.6771 11.7229 1.6001 10.3999 1.6001C9.0769 1.6001 7.9999 2.6771 7.9999 4.0001V4.3671C6.5079 4.8371 5.1669 5.7471 4.1749 6.9741C3.0349 8.3851 2.4049 10.1611 2.3999 11.9781C2.3999 11.9781 2.3999 11.9861 2.3999 11.9911C2.3999 11.9941 2.3999 11.9971 2.3999 12.0001C2.4069 14.5221 3.5939 16.8731 5.5999 18.3781V20.8001C5.5999 21.6821 6.3179 22.4001 7.1999 22.4001H13.5999C14.4819 22.4001 15.1999 21.6821 15.1999 20.8001V12.0001C15.1999 10.2271 14.2329 8.6771 12.7999 7.8461V5.6001H14.3999V7.0251L17.7089 7.8521C17.8069 7.8761 17.9049 7.8881 18.0029 7.8881C18.2669 7.8881 18.5249 7.8001 18.7389 7.6331C19.0319 7.4041 19.1999 7.0591 19.1999 6.6871V2.9121C19.1999 2.5401 19.0319 2.1951 18.7389 1.9661ZM5.5999 12.0001V16.2121C4.5829 15.0591 4.0029 13.5671 3.9999 11.9911C4.0019 10.5141 4.4929 9.1271 5.4199 7.9801C6.1059 7.1311 6.9999 6.4731 7.9999 6.0671V7.8461C6.5669 8.6771 5.5999 10.2271 5.5999 12.0001ZM13.6009 20.8001H7.1999V12.0001C7.1999 10.2361 8.6349 8.8001 10.3999 8.8001C12.1649 8.8001 13.5999 10.2361 13.5999 12.0001L13.6009 20.8001ZM10.3999 7.2001C10.1269 7.2001 9.8599 7.2241 9.5999 7.2681V4.0001C9.5999 3.5591 9.9589 3.2001 10.3999 3.2001C10.8409 3.2001 11.1999 3.5591 11.1999 4.0001V7.2681C10.9399 7.2241 10.6729 7.2001 10.3999 7.2001ZM17.5999 6.1751L15.9999 5.7751V3.8241L17.5999 3.4241V6.1751ZM20.6999 4.0001C20.6999 3.5031 21.1029 3.1001 21.5999 3.1001C22.0969 3.1001 22.4999 3.5031 22.4999 4.0001C22.4999 4.4971 22.0969 4.9001 21.5999 4.9001C21.1029 4.9001 20.6999 4.4971 20.6999 4.0001Z"/>
</svg>
