<svg width="24" height="24" viewBox="0 0 24 24" xmlns="http://www.w3.org/2000/svg">
<path d="M3 3H9V1H1V9H3V3Z"/>
<path d="M8 10.125C8.62132 10.125 9.125 9.62132 9.125 9C9.125 8.37868 8.62132 7.875 8 7.875C7.37868 7.875 6.875 8.37868 6.875 9C6.875 9.62132 7.37868 10.125 8 10.125Z"/>
<path d="M12 17C14.7575 17 17 14.7575 17 12H15C15 13.6538 13.6538 15 12 15C10.3463 15 9 13.6538 9 12H7C7 14.7575 9.2425 17 12 17Z"/>
<path d="M17.125 9C17.125 9.62132 16.6213 10.125 16 10.125C15.3787 10.125 14.875 9.62132 14.875 9C14.875 8.37868 15.3787 7.875 16 7.875C16.6213 7.875 17.125 8.37868 17.125 9Z"/>
<path d="M15 3V1H23V9H21V3H15Z"/>
<path d="M3 15H1V23H9V21H3V15Z"/>
<path d="M15 21H21V15H23V23H15V21Z"/>
</svg>
