<svg width="24" height="24" viewBox="0 0 24 24" xmlns="http://www.w3.org/2000/svg">
<path d="M11.9999 2.39993C6.6979 2.39993 2.3999 6.69793 2.3999 11.9999C2.3999 16.5019 5.4989 20.2799 9.6809 21.3169V14.9329H7.7009V11.9989H9.6809V10.7349C9.6809 7.46693 11.1599 5.95293 14.3679 5.95293C14.9759 5.95293 16.0259 6.07193 16.4549 6.19193V8.85093C16.2279 8.82693 15.8349 8.81493 15.3459 8.81493C13.7719 8.81493 13.1639 9.41092 13.1639 10.9619V11.9989H16.2999L15.7609 14.9329H13.1639V21.5289C17.9169 20.9549 21.6009 16.9079 21.6009 11.9989C21.6009 6.69693 17.3029 2.39893 12.0009 2.39893L11.9999 2.39993Z"/>
</svg>
