<svg width="24" height="24" viewBox="0 0 24 24" xmlns="http://www.w3.org/2000/svg">
<path d="M11.9999 7.1999C9.3489 7.1999 7.1999 9.3569 7.1999 12.0179C7.1999 14.2769 8.7499 16.1729 10.8399 16.6939V13.4899H9.8499V12.0179H10.8399V11.3839C10.8399 9.7439 11.5789 8.9839 13.1829 8.9839C13.4869 8.9839 14.0119 9.0439 14.2259 9.1039V10.4389C14.1129 10.4269 13.9159 10.4209 13.6709 10.4209C12.8839 10.4209 12.5799 10.7199 12.5799 11.4979V12.0189H14.1479L13.8789 13.4909H12.5809V16.8009C14.9579 16.5129 16.7989 14.4819 16.7989 12.0189C16.7989 9.3579 14.6499 7.2009 11.9989 7.2009L11.9999 7.1999Z"/>
<path d="M11.9999 21.5999C6.7069 21.5999 2.3999 17.2929 2.3999 11.9999C2.3999 6.7069 6.7069 2.3999 11.9999 2.3999C17.2929 2.3999 21.5999 6.7069 21.5999 11.9999C21.5999 17.2929 17.2929 21.5999 11.9999 21.5999ZM11.9999 3.9999C7.5889 3.9999 3.9999 7.5889 3.9999 11.9999C3.9999 16.4109 7.5889 19.9999 11.9999 19.9999C16.4109 19.9999 19.9999 16.4109 19.9999 11.9999C19.9999 7.5889 16.4109 3.9999 11.9999 3.9999Z"/>
</svg>
