<svg width="24" height="24" viewBox="0 0 24 24" xmlns="http://www.w3.org/2000/svg">
<path d="M19.5039 3.7281C17.1439 2.3361 14.5489 1.6001 11.9999 1.6001C9.45093 1.6001 6.85593 2.3361 4.49493 3.7281C3.97893 4.0331 3.76493 4.6781 3.99593 5.2281L10.8929 21.6321C11.0809 22.0781 11.5149 22.3671 11.9989 22.3671C12.4829 22.3671 12.9179 22.0791 13.1049 21.6321L20.0039 5.2291C20.2359 4.6781 20.0209 4.0331 19.5049 3.7281H19.5039ZM11.9999 3.2001C14.1569 3.2001 16.3599 3.7991 18.3919 4.9341L17.7989 6.3451C15.9889 5.3201 14.0429 4.8001 12.0009 4.8001C9.95893 4.8001 8.01193 5.3211 6.20293 6.3451L5.60993 4.9341C7.64193 3.7981 9.84493 3.2001 12.0019 3.2001H11.9999ZM11.9999 20.1361L6.82693 7.8321C8.44093 6.8821 10.1789 6.4001 11.9999 6.4001C13.8209 6.4001 15.5599 6.8821 17.1729 7.8321L11.9999 20.1361Z"/>
<path d="M13.9999 10.5001C14.497 10.5001 14.8999 10.0972 14.8999 9.6001C14.8999 9.10304 14.497 8.7001 13.9999 8.7001C13.5029 8.7001 13.0999 9.10304 13.0999 9.6001C13.0999 10.0972 13.5029 10.5001 13.9999 10.5001Z"/>
<path d="M9.99993 10.5001C10.497 10.5001 10.8999 10.0972 10.8999 9.6001C10.8999 9.10304 10.497 8.7001 9.99993 8.7001C9.50287 8.7001 9.09993 9.10304 9.09993 9.6001C9.09993 10.0972 9.50287 10.5001 9.99993 10.5001Z"/>
<path d="M11.9999 15.3001C12.497 15.3001 12.8999 14.8972 12.8999 14.4001C12.8999 13.903 12.497 13.5001 11.9999 13.5001C11.5029 13.5001 11.0999 13.903 11.0999 14.4001C11.0999 14.8972 11.5029 15.3001 11.9999 15.3001Z"/>
</svg>
