<svg width="24" height="24" viewBox="0 0 24 24" xmlns="http://www.w3.org/2000/svg">
<path d="M6.95798 20.1631C6.70398 20.1631 6.45098 20.0821 6.23698 19.9221C5.82398 19.6121 5.65598 19.0741 5.81898 18.5831L7.45898 13.6621L3.06298 10.3271C2.65198 10.0151 2.48598 9.47706 2.65098 8.98806C2.81498 8.49906 3.27198 8.17106 3.78798 8.17106H9.22198L10.86 3.25606C11.024 2.76506 11.481 2.43506 11.998 2.43506C12.515 2.43506 12.973 2.76506 13.136 3.25506L14.774 8.17006H20.208C20.724 8.17006 21.181 8.49806 21.345 8.98706C21.51 9.47606 21.345 10.0141 20.933 10.3261L16.537 13.6611L18.177 18.5821C18.34 19.0721 18.173 19.6101 17.759 19.9211C17.346 20.2311 16.782 20.2431 16.357 19.9491L11.996 16.9421L7.63498 19.9501C7.42898 20.0921 7.19098 20.1621 6.95398 20.1621H6.95798V20.1631Z"/>
</svg>
