<svg width="24" height="24" viewBox="0 0 24 24" xmlns="http://www.w3.org/2000/svg">
<path d="M21.345 8.98706C21.181 8.49806 20.724 8.17006 20.208 8.17006H14.774L13.136 3.25506C12.973 2.76506 12.515 2.43506 11.998 2.43506C11.481 2.43506 11.024 2.76506 10.86 3.25606L9.22198 8.17106H3.78798C3.27198 8.17106 2.81498 8.49906 2.65098 8.98806C2.48598 9.47706 2.65198 10.0151 3.06298 10.3271L7.45898 13.6621L5.81898 18.5831C5.65598 19.0741 5.82398 19.6121 6.23698 19.9221C6.45098 20.0821 6.70398 20.1631 6.95798 20.1631H6.95398C7.19098 20.1631 7.42898 20.0921 7.63498 19.9501L11.996 16.9421L16.357 19.9491C16.782 20.2431 17.346 20.2311 17.759 19.9211C18.173 19.6101 18.34 19.0721 18.177 18.5821L16.537 13.6611L20.933 10.3261C21.344 10.0141 21.51 9.47606 21.345 8.98706ZM14.659 13.0801L16.284 17.9541L12 14.9991V4.90106L13.623 9.77106H19.021L14.659 13.0801Z"/>
</svg>
