<svg width="24" height="24" viewBox="0 0 24 24" xmlns="http://www.w3.org/2000/svg">
<path d="M12.7999 10.5002C13.297 10.5002 13.6999 10.0973 13.6999 9.60019C13.6999 9.10314 13.297 8.7002 12.7999 8.7002C12.3028 8.7002 11.8999 9.10314 11.8999 9.60019C11.8999 10.0973 12.3028 10.5002 12.7999 10.5002Z"/>
<path d="M16.7999 8.0002V3.2002H2.3999V15.0342C2.3999 15.5212 2.6909 15.9562 3.1409 16.1432C3.2899 16.2052 3.4469 16.2352 3.6009 16.2352C3.9129 16.2352 4.2179 16.1132 4.4479 15.8832L6.7309 13.6002H7.1999V18.4002H17.2689L19.5519 20.6832C19.7819 20.9132 20.0879 21.0352 20.3989 21.0352C20.5539 21.0352 20.7099 21.0052 20.8589 20.9432C21.3089 20.7572 21.5999 20.3212 21.5999 19.8342V8.0002H16.7999ZM6.5659 12.0002C6.2449 12.0002 5.9439 12.1252 5.7169 12.3512L3.9999 14.0682V4.8002H15.1999V12.0002H6.5659ZM19.9999 18.8692L18.2829 17.1522C18.0559 16.9252 17.7549 16.8012 17.4339 16.8012H8.7999V13.6012H16.7999V9.6012H19.9999V18.8692Z"/>
</svg>
