<svg width="24" height="24" viewBox="0 0 24 24" xmlns="http://www.w3.org/2000/svg">
<path d="M5.1998 8.3001C4.7028 8.3001 4.2998 8.7031 4.2998 9.2001C4.2998 9.6971 4.7028 10.1001 5.1998 10.1001C5.6968 10.1001 6.0998 9.6971 6.0998 9.2001C6.0998 8.7031 5.6968 8.3001 5.1998 8.3001ZM19.5998 9.2001C19.5998 5.0091 16.1908 1.6001 11.9998 1.6001C8.6848 1.6001 5.8608 3.7341 4.8238 6.7001H6.5468C7.4968 4.6371 9.5828 3.2001 11.9988 3.2001C15.3068 3.2001 17.9988 5.8921 17.9988 9.2001C17.9988 12.5081 15.3068 15.2001 11.9988 15.2001C9.5828 15.2001 7.4968 13.7631 6.5468 11.7001H4.8238C5.7758 14.4241 8.2358 16.4451 11.1998 16.7571V18.4001H8.7998V20.0001H11.1998V22.4001H12.7998V20.0001H15.1998V18.4001H12.7998V16.7581C16.6158 16.3571 19.5998 13.1211 19.5998 9.2001Z"/>
</svg>
