<svg width="24" height="24" viewBox="0 0 24 24" xmlns="http://www.w3.org/2000/svg">
<path d="M11.9999 8.1001C11.9999 8.5971 11.5969 9.0001 11.0999 9.0001C10.6029 9.0001 10.1999 8.5971 10.1999 8.1001C10.1999 7.6031 10.6029 7.2001 11.0999 7.2001C11.5969 7.2001 11.9999 7.6031 11.9999 8.1001ZM22.3999 7.2001H13.5999V8.8001H22.3999V7.2001ZM20.7999 11.2001H10.3499V12.8001H20.7999V11.2001ZM19.1999 15.2001H10.3499V16.8001H19.1999V15.2001ZM7.43391 14.6341L5.56091 16.5081V5.6001H4.03891V16.5081L2.16591 14.6341L1.03491 15.7651L4.80091 19.5311L8.56691 15.7651L7.43591 14.6341H7.43391Z"/>
</svg>
