<svg width="24" height="24" viewBox="0 0 24 24" xmlns="http://www.w3.org/2000/svg">
<path d="M20.7656 4.83492C19.7076 3.77492 18.2996 3.19092 16.7996 3.19092C15.2996 3.19092 13.8906 3.77492 12.8336 4.83492C12.5146 5.15492 12.2346 5.50292 11.9996 5.86892C11.7646 5.50192 11.4846 5.15392 11.1656 4.83492C10.1076 3.77492 8.69961 3.19092 7.19961 3.19092C5.69961 3.19092 4.29061 3.77492 3.23361 4.83492C2.17961 5.89092 1.59961 7.29892 1.59961 8.79992C1.59961 10.3009 2.21061 11.7399 3.23361 12.7659L11.9996 21.5319L20.7656 12.7659C21.7886 11.7399 22.3996 10.2579 22.3996 8.79992C22.3996 7.34192 21.8196 5.89092 20.7656 4.83492ZM11.9996 19.2679L6.93061 14.1989L7.99961 13.1299L10.3996 15.5299L13.5996 12.3299V13.5989H15.1996V9.59892H11.1996V11.1989H12.4686L10.3996 13.2679L7.99961 10.8679L5.79961 13.0679L4.36561 11.6339C3.63561 10.9019 3.19961 9.84192 3.19961 8.79892C3.19961 7.75592 3.61361 6.71792 4.36561 5.96392C5.12061 5.20692 6.12761 4.78992 7.19961 4.78992C8.27161 4.78992 9.27761 5.20692 10.0336 5.96392C10.6326 6.56392 11.0386 7.28592 11.1876 8.00792H12.8126C12.9616 7.28592 13.3676 6.56392 13.9666 5.96392C14.7216 5.20692 15.7286 4.78992 16.8006 4.78992C17.8726 4.78992 18.8786 5.20692 19.6346 5.96392C20.3866 6.71792 20.8006 7.72492 20.8006 8.79892C20.8006 9.87292 20.3646 10.9009 19.6346 11.6329L11.9996 19.2679Z"/>
</svg>
