<svg width="24" height="24" viewBox="0 0 24 24" xmlns="http://www.w3.org/2000/svg">
<path d="M12 4.8001C9.79395 4.8001 7.99995 6.5941 7.99995 8.8001V15.2001C7.99995 17.4061 9.79395 19.2001 12 19.2001C14.206 19.2001 16 17.4061 16 15.2001V8.8001C16 6.5941 14.206 4.8001 12 4.8001ZM14.4 15.2001C14.4 16.5231 13.323 17.6001 12 17.6001C10.677 17.6001 9.59995 16.5231 9.59995 15.2001V8.8001C9.59995 7.4771 10.677 6.4001 12 6.4001C13.323 6.4001 14.4 7.4771 14.4 8.8001V15.2001ZM12.8 15.2001H11.2V8.8001H12.8V15.2001ZM6.49995 13.7001C6.49995 14.1971 6.09695 14.6001 5.59995 14.6001C5.10295 14.6001 4.69995 14.1971 4.69995 13.7001C4.69995 13.2031 5.10295 12.8001 5.59995 12.8001C6.09695 12.8001 6.49995 13.2031 6.49995 13.7001ZM19.2 15.1671C19.2 19.1371 15.97 22.3671 12 22.3671C8.38095 22.3671 5.37795 19.6821 4.87495 16.2001H6.49695C6.98295 18.7961 9.26495 20.7671 12 20.7671C15.088 20.7671 17.6 18.2551 17.6 15.1671V8.8001C17.6 8.0961 17.468 7.4231 17.23 6.8011L18.442 5.5891C18.926 6.5561 19.2 7.6461 19.2 8.7991V15.1671ZM4.79995 11.2001V8.8001C4.79995 4.8301 8.02995 1.6001 12 1.6001C14.231 1.6001 16.228 2.6201 17.55 4.2191L16.412 5.3571C15.386 4.0451 13.791 3.2001 12 3.2001C8.91195 3.2001 6.39995 5.7121 6.39995 8.8001V11.2001H4.79995Z"/>
</svg>
