<svg width="24" height="24" viewBox="0 0 24 24" xmlns="http://www.w3.org/2000/svg">
<path d="M5.7552 18.6311C3.5292 17.1411 2.2002 14.6541 2.2002 11.9791H3.8002C3.8002 14.1191 4.86419 16.1091 6.6452 17.3021L5.7552 18.6321V18.6311Z"/>
<path d="M19.3922 14.0791C19.0242 13.9771 18.6362 14.1431 18.4272 14.4931C18.1192 15.0081 17.5912 15.5281 17.0272 15.9891C17.1442 15.0041 16.9952 14.0021 16.5752 13.0141C15.9962 11.6521 15.0622 10.6801 14.6892 10.3051C14.2952 9.2651 13.5512 8.3971 12.6002 7.8451V5.5991H14.2002V7.0241L17.5092 7.8511C17.6072 7.8751 17.7052 7.8871 17.8032 7.8871C18.0672 7.8871 18.3252 7.7991 18.5392 7.6321C18.8322 7.4031 19.0012 7.0581 19.0012 6.6861V2.9121C19.0012 2.5401 18.8332 2.1951 18.5392 1.9661C18.2452 1.7371 17.8702 1.6581 17.5102 1.7481L14.2012 2.5751V4.0001H12.6012C12.6012 2.6771 11.5242 1.6001 10.2012 1.6001C8.8782 1.6001 7.8012 2.6771 7.8012 4.0001V4.3671C6.3092 4.8371 4.9682 5.7471 3.9762 6.9741C2.8312 8.3901 2.2012 10.1751 2.2012 12.0001H3.8012C3.8012 10.5191 4.2922 9.1291 5.2212 7.9801C5.9072 7.1311 6.8012 6.4731 7.8012 6.0671V7.8461C6.3682 8.6771 5.4012 10.2271 5.4012 12.0001V20.8001C5.4012 21.6821 6.1192 22.4001 7.0012 22.4001H15.0012V22.3951C15.0672 22.3981 15.1342 22.4001 15.2012 22.4001C18.2062 22.4001 20.0012 19.9591 20.0012 17.6001V14.9041C20.0012 14.5111 19.7562 14.1801 19.3922 14.0791ZM15.8002 3.8251L17.4002 3.4251V6.1761L15.8002 5.7761V3.8251ZM9.4002 4.0001C9.4002 3.5591 9.7592 3.2001 10.2002 3.2001C10.6412 3.2001 11.0002 3.5591 11.0002 4.0001V7.2681C10.7402 7.2241 10.4732 7.2001 10.2002 7.2001C9.9272 7.2001 9.6602 7.2241 9.4002 7.2681V4.0001ZM7.0002 12.0001C7.0002 10.2351 8.4352 8.8001 10.2002 8.8001C11.5592 8.8001 12.7222 9.6521 13.1852 10.8491C13.1832 10.8841 13.1822 10.9181 13.1842 10.9531C13.2842 12.5641 12.7132 13.1841 11.9912 13.9691C11.2822 14.7401 10.4002 15.6981 10.4002 17.5991C10.4002 18.8271 10.8642 19.9491 11.6262 20.7991H7.0002V11.9991V12.0001ZM18.4002 17.6001C18.4002 19.1731 17.2032 20.8001 15.2002 20.8001C13.4352 20.8001 12.0002 19.3651 12.0002 17.6001C12.0002 16.3231 12.5162 15.7631 13.1692 15.0531C13.6972 14.4791 14.3122 13.8101 14.6122 12.7301C15.4382 13.9991 15.8652 15.5841 14.9512 17.3141L16.1722 18.5351C16.7122 18.2101 17.5942 17.6361 18.4002 16.9211V17.6001ZM20.6002 4.8001C20.6002 4.3031 21.0032 3.9001 21.5002 3.9001C21.9972 3.9001 22.4002 4.3031 22.4002 4.8001C22.4002 5.2971 21.9972 5.7001 21.5002 5.7001C21.0032 5.7001 20.6002 5.2971 20.6002 4.8001Z"/>
</svg>
