<svg width="24" height="24" viewBox="0 0 24 24" xmlns="http://www.w3.org/2000/svg">
<path d="M15.4911 9.0911C17.0981 9.0911 18.4001 10.3931 18.4001 12.0001C18.4001 13.6071 17.0981 14.9091 15.4911 14.9091C13.8841 14.9091 12.5821 13.6071 12.5821 12.0001C12.5831 10.3941 13.8851 9.0921 15.4911 9.0911ZM5.6001 12.0001C5.6001 13.6071 6.9021 14.9091 8.5091 14.9091C10.1161 14.9091 11.4181 13.6071 11.4181 12.0001C11.4181 10.3931 10.1161 9.0911 8.5091 9.0911C6.9031 9.0921 5.6011 10.3941 5.6001 12.0001ZM12.0001 22.4001C6.2651 22.4001 1.6001 17.7351 1.6001 12.0001C1.6001 6.2651 6.2651 1.6001 12.0001 1.6001C17.7351 1.6001 22.4001 6.2651 22.4001 12.0001C22.4001 17.7351 17.7351 22.4001 12.0001 22.4001ZM12.0001 3.2001C7.1481 3.2001 3.2001 7.1481 3.2001 12.0001C3.2001 16.8521 7.1481 20.8001 12.0001 20.8001C16.8521 20.8001 20.8001 16.8521 20.8001 12.0001C20.8001 7.1481 16.8521 3.2001 12.0001 3.2001Z"/>
</svg>
