<svg width="24" height="24" viewBox="0 0 24 24" xmlns="http://www.w3.org/2000/svg">
<path d="M12.9002 21.7001C12.9002 22.1971 12.4972 22.6001 12.0002 22.6001C11.5032 22.6001 11.1002 22.1971 11.1002 21.7001C11.1002 21.2031 11.5032 20.8001 12.0002 20.8001C12.4972 20.8001 12.9002 21.2031 12.9002 21.7001ZM12.8002 16.7421V19.2001H11.2002V16.7421C8.49021 16.3541 6.39821 14.0181 6.39521 11.2031L6.38721 4.78711H7.18821C7.70421 4.78711 8.20821 4.84311 8.69321 4.94711C9.26421 4.09811 10.3012 2.98111 11.1452 2.12411C11.3722 1.89311 11.6762 1.76611 12.0002 1.76611C12.3242 1.76611 12.6272 1.89311 12.8552 2.12411C13.6982 2.98011 14.7342 4.09511 15.3052 4.94411C15.7912 4.84211 16.2912 4.78711 16.8002 4.78711H17.6002V11.1971C17.6002 14.0141 15.5102 16.3521 12.8002 16.7421ZM10.2772 5.48511C10.9042 5.78311 11.4822 6.16811 11.9932 6.62611C12.5132 6.15811 13.0952 5.77411 13.7182 5.47911C13.3262 4.97011 12.7282 4.29411 12.0002 3.54011C11.2692 4.29711 10.6692 4.97611 10.2772 5.48611V5.48511ZM12.8002 12.0001C12.8002 9.17711 10.7052 6.83511 7.98921 6.44411L7.99521 11.2011C7.99721 13.4061 9.79321 15.1991 11.9982 15.1991C12.2732 15.1991 12.5412 15.1711 12.8012 15.1181V11.9991L12.8002 12.0001ZM16.0002 6.44411C14.9032 6.60111 13.8842 7.07711 13.0612 7.81811C13.9042 8.99811 14.4002 10.4421 14.4002 12.0001V14.3971C15.3712 13.6661 16.0002 12.5041 16.0002 11.1981V6.44411Z"/>
</svg>
