<svg width="24" height="24" viewBox="0 0 24 24" xmlns="http://www.w3.org/2000/svg">
<path d="M20.4001 3.19995H14.7971C14.2631 3.19995 13.7611 3.40795 13.3831 3.78595L11.6861 5.48295C11.6111 5.55895 11.5101 5.59995 11.4031 5.59995H3.6001C2.4971 5.59995 1.6001 6.49695 1.6001 7.59995V18.8C1.6001 19.903 2.4971 20.8 3.6001 20.8H20.4001C21.5031 20.8 22.4001 19.903 22.4001 18.8V5.19995C22.4001 4.09695 21.5031 3.19995 20.4001 3.19995ZM20.8001 18.8C20.8001 19.021 20.6211 19.2 20.4001 19.2H3.6001C3.3791 19.2 3.2001 19.021 3.2001 18.8V10.8H15.8001V9.19995H3.2001V7.59995C3.2001 7.37895 3.3791 7.19995 3.6001 7.19995H11.4031C11.9371 7.19995 12.4391 6.99195 12.8171 6.61395L14.5141 4.91695C14.5891 4.84095 14.6901 4.79995 14.7971 4.79995H20.4001C20.6211 4.79995 20.8001 4.97895 20.8001 5.19995V18.8ZM19.2001 9.99995C19.2001 10.497 18.7971 10.9 18.3001 10.9C17.8031 10.9 17.4001 10.497 17.4001 9.99995C17.4001 9.50295 17.8031 9.09995 18.3001 9.09995C18.7971 9.09995 19.2001 9.50295 19.2001 9.99995Z"/>
</svg>
