<svg width="24" height="24" viewBox="0 0 24 24" xmlns="http://www.w3.org/2000/svg">
<path d="M9.73915 2.66997C4.59515 3.91697 1.42316 9.11597 2.67016 14.261C3.91716 19.406 9.11616 22.577 14.2612 21.33C19.4062 20.083 22.5772 14.884 21.3302 9.73897C20.0832 4.59397 14.8842 1.42297 9.73915 2.66997ZM18.4282 7.23797C18.8132 7.75597 19.1382 8.32597 19.3922 8.93997L16.7002 11.747L15.5342 11.61L14.0582 9.29997L14.6812 7.87997L18.4282 7.23797ZM12.4282 13.766L10.3192 12.918L10.5262 10.711L12.7212 10.179L13.9152 12.046L12.4292 13.765L12.4282 13.766ZM17.1022 5.84197L14.5142 6.28497L13.1352 4.08297C14.6022 4.29497 15.9752 4.91097 17.1022 5.84197ZM9.05016 4.56497C9.39316 4.42897 9.74816 4.31397 10.1162 4.22497C10.4842 4.13597 10.8532 4.07597 11.2202 4.03897L13.2182 7.22997L12.6382 8.55197L9.85416 9.22697L8.73316 8.31697L9.04915 4.56497H9.05016ZM7.36716 5.48097L7.14916 8.06997L4.64516 8.85997C5.22116 7.51597 6.15915 6.33997 7.36716 5.47997V5.48097ZM4.10516 10.709L7.73115 9.56397L8.93515 10.541L8.67916 13.27L7.70516 13.926L4.02716 12.663C3.97216 12.001 4.00016 11.345 4.10516 10.709ZM6.79216 18.066C5.70916 17.138 4.86416 15.915 4.39816 14.482L6.91116 15.345L6.79316 18.066H6.79216ZM8.34816 19.111L8.51315 15.311L9.81115 14.437L11.9792 15.309L12.4442 17.227L10.2022 19.791C9.55515 19.641 8.93316 19.412 8.34816 19.111ZM13.8842 19.775C13.3032 19.916 12.7222 19.987 12.1482 19.997L13.5502 18.394L15.5302 19.178C15.0152 19.431 14.4652 19.634 13.8852 19.775H13.8842ZM17.1662 18.105L13.9992 16.851L13.5342 14.933L15.0622 13.165L16.6162 13.348L18.5022 16.651C18.1202 17.186 17.6722 17.676 17.1652 18.105H17.1662ZM19.4072 15.009L18.0562 12.644L19.8952 10.726C20.1362 12.214 19.9452 13.689 19.4072 15.009Z"/>
</svg>
