<svg width="24" height="24" viewBox="0 0 24 24" xmlns="http://www.w3.org/2000/svg">
<path d="M3.3 14.3C3.3 14.797 2.897 15.2 2.4 15.2C1.903 15.2 1.5 14.797 1.5 14.3C1.5 13.803 1.903 13.4 2.4 13.4C2.897 13.4 3.3 13.803 3.3 14.3ZM22.6 19.601C22.599 20.262 22.06 20.8 21.4 20.8H13C12.338 20.8 11.8 20.262 11.8 19.6C11.8 19.383 11.853 19.181 11.957 19L14.174 15.2H9.463C9.133 16.131 8.244 16.8 7.201 16.8C5.878 16.8 4.801 15.723 4.801 14.4C4.801 13.077 5.878 12 7.201 12C8.244 12 9.133 12.669 9.463 13.6H15.108L16.159 11.798C16.373 11.429 16.772 11.2 17.201 11.2C17.63 11.2 18.03 11.43 18.244 11.8L19.294 13.6H20.801V12.001C20.046 10.995 18.865 10.4 17.601 10.4H3.2V12H1.6V7.2C1.6 5.436 3.036 4 4.8 4H17.6C20.247 4 22.4 6.153 22.4 8.8V15.2H20.226L22.441 18.997C22.547 19.181 22.6 19.384 22.6 19.601ZM6.4 5.6H4.8C3.918 5.6 3.2 6.318 3.2 7.2V8.8H6.4V5.6ZM10.4 5.6H8V8.8H10.4V5.6ZM14.4 5.6H12V8.8H14.4V5.6ZM20.8 9.804V8.8C20.8 7.036 19.364 5.6 17.6 5.6H16V8.8H17.6C18.762 8.8 19.874 9.159 20.8 9.804ZM8 14.4C8 13.959 7.641 13.6 7.2 13.6C6.759 13.6 6.4 13.959 6.4 14.4C6.4 14.841 6.759 15.2 7.2 15.2C7.641 15.2 8 14.841 8 14.4ZM20.707 19.2L17.2 13.188L13.693 19.2H20.707Z"/>
</svg>
