<svg width="24" height="24" viewBox="0 0 24 24" xmlns="http://www.w3.org/2000/svg">
<path d="M19.4312 18.4671L19.4482 18.4561C20.2862 17.9201 20.8002 17.5101 20.8002 15.8931C20.8002 13.3551 18.7462 9.39509 17.0462 7.80809C16.6842 7.47009 16.1162 7.47009 15.7542 7.80809C15.4392 8.10209 15.1122 8.47709 14.7892 8.91009C13.6532 6.12409 11.9022 3.36809 10.3462 1.91509C9.9562 1.55109 9.2452 1.55109 8.8542 1.91509C6.2932 4.30509 3.2002 10.2291 3.2002 14.0001C3.2002 16.3461 3.9442 16.9911 5.1692 17.7741C6.1072 18.3731 7.42319 18.7201 8.8002 18.8171V20.8001H4.0002V22.4001H20.0002V20.8001H17.2052V19.1581C18.0522 19.0691 18.8492 18.8391 19.4312 18.4671ZM16.4002 9.44809C17.8102 11.0971 19.2002 14.2181 19.2002 15.8931C19.2002 16.3201 19.1602 16.6001 19.0822 16.7271C19.0202 16.8281 18.8612 16.9321 18.5872 17.1081L18.5702 17.1191C18.2352 17.3331 17.7452 17.4751 17.2052 17.5451V14.4011H15.6052V17.5471C15.0622 17.4781 14.5682 17.3361 14.2312 17.1201L14.2142 17.1091C13.9392 16.9331 13.7812 16.8291 13.7192 16.7281C13.6402 16.6011 13.6012 16.3201 13.6012 15.8941C13.6012 14.2191 14.9912 11.0981 16.4012 9.44909L16.4002 9.44809ZM6.0312 16.4261C5.1352 15.8531 4.8002 15.6391 4.8002 14.0001C4.8002 11.1091 7.1672 5.95709 9.6002 3.42609C11.2322 5.12409 12.8342 8.00209 13.7122 10.5851C12.7472 12.3171 12.0002 14.3631 12.0002 15.8931C12.0002 16.2981 12.0322 16.6271 12.0942 16.9021C11.5802 17.0591 11.0002 17.1611 10.4002 17.2091V10.8001H8.8002V13.5161L7.5762 12.2451L6.4232 13.3551L8.7992 15.8231V17.2101C7.7242 17.1241 6.7132 16.8631 6.0302 16.4271L6.0312 16.4261ZM10.4002 20.8001V18.8171C11.3492 18.7501 12.2672 18.5641 13.0542 18.2581C13.1482 18.3241 13.2482 18.3891 13.3522 18.4551L13.3692 18.4661C13.9542 18.8401 14.7542 19.0701 15.6042 19.1581V20.7991H10.3992L10.4002 20.8001ZM8.7002 8.30009C8.7002 7.80309 9.1032 7.40009 9.6002 7.40009C10.0972 7.40009 10.5002 7.80309 10.5002 8.30009C10.5002 8.79709 10.0972 9.20009 9.6002 9.20009C9.1032 9.20009 8.7002 8.79709 8.7002 8.30009Z"/>
</svg>
