<svg width="24" height="24" viewBox="0 0 24 24" xmlns="http://www.w3.org/2000/svg">
<path d="M20.722 13.6081C20.774 13.0851 20.8 12.5471 20.8 11.9941C20.8 10.4911 20.609 9.09107 20.233 7.83407C19.849 6.55107 19.278 5.43807 18.537 4.52607C17.785 3.60007 16.844 2.87307 15.742 2.36407C14.645 1.85807 13.393 1.60107 12.02 1.60107C10.647 1.60107 9.395 1.85807 8.298 2.36407C7.196 2.87307 6.254 3.60007 5.498 4.52507C4.753 5.43607 4.176 6.54807 3.783 7.83007C3.397 9.08907 3.201 10.4901 3.201 11.9951C3.201 13.5001 3.397 14.9021 3.783 16.1601C4.176 17.4421 4.752 18.5551 5.497 19.4701C6.253 20.4001 7.196 21.1291 8.298 21.6381C9.395 22.1441 10.647 22.4011 12.02 22.4011C12.603 22.4011 13.163 22.3531 13.699 22.2611C14.588 22.8541 15.654 23.2011 16.8 23.2011C19.888 23.2011 22.4 20.6891 22.4 17.6011C22.4 16.0391 21.757 14.6241 20.722 13.6081ZM8.968 20.1841C8.089 19.7781 7.338 19.1981 6.737 18.4591C6.123 17.7051 5.644 16.7741 5.312 15.6901C4.973 14.5841 4.801 13.3401 4.801 11.9941C4.801 10.6481 4.973 9.40507 5.312 8.29807C5.644 7.21607 6.123 6.28607 6.736 5.53707C7.337 4.80207 8.088 4.22307 8.968 3.81607C9.853 3.40707 10.88 3.20007 12.019 3.20007C13.158 3.20007 14.185 3.40707 15.07 3.81607C15.949 4.22207 16.697 4.80007 17.294 5.53507C17.902 6.28407 18.375 7.21207 18.699 8.29307C19.031 9.40107 19.199 10.6461 19.199 11.9941C19.199 12.1771 19.195 12.3581 19.188 12.5371C18.463 12.1931 17.653 12.0001 16.799 12.0001C16.732 12.0001 16.665 12.0031 16.599 12.0051C16.599 11.9891 16.599 11.9731 16.599 11.9571C16.599 9.68107 16.233 7.98707 15.48 6.77807C14.674 5.48407 13.47 4.80007 11.999 4.80007C10.528 4.80007 9.264 5.48807 8.48 6.78807C7.753 7.99407 7.399 9.68507 7.399 11.9571C7.399 14.2291 7.761 15.9341 8.505 17.1681C9.2 18.3201 10.201 19.0011 11.422 19.1611C11.594 19.7521 11.861 20.3031 12.205 20.7961C12.143 20.7971 12.081 20.7991 12.018 20.7991C10.878 20.7991 9.852 20.5921 8.967 20.1831L8.968 20.1841ZM11.203 17.4811C10.664 17.3061 10.233 16.9331 9.876 16.3421C9.295 15.3781 9 13.9021 9 11.9571C9 10.0121 9.286 8.55107 9.851 7.61407C10.351 6.78507 11.034 6.39907 12 6.39907C12.966 6.39907 13.603 6.78807 14.123 7.62307C14.705 8.55707 15 10.0151 15 11.9561C15 12.0721 14.999 12.1861 14.996 12.2981C12.826 13.0381 11.253 15.0751 11.203 17.4811ZM16.8 21.6001C14.594 21.6001 12.8 19.8061 12.8 17.6001C12.8 15.3941 14.594 13.6001 16.8 13.6001C19.006 13.6001 20.8 15.3941 20.8 17.6001C20.8 19.8061 19.006 21.6001 16.8 21.6001ZM18.687 17.9291C18.774 18.0971 18.817 18.2991 18.817 18.5311C18.817 18.7101 18.786 18.8851 18.724 19.0501C18.66 19.2211 18.559 19.3741 18.423 19.5071C18.289 19.6381 18.117 19.7481 17.912 19.8351C17.763 19.8981 17.562 19.9441 17.399 19.9731V20.6011H16.199V19.9301C16.144 19.9181 16.089 19.9051 16.041 19.8901C15.88 19.8431 15.732 19.7831 15.599 19.7131C15.465 19.6431 15.341 19.5581 15.229 19.4631C15.121 19.3701 15.017 19.2661 14.921 19.1521L14.816 19.0281L15.643 18.2131L15.788 18.3941C15.911 18.5491 16.054 18.6811 16.21 18.7871C16.358 18.8871 16.51 18.9491 16.662 18.9731C16.82 18.9971 16.972 18.9991 17.128 18.9781C17.264 18.9601 17.385 18.9151 17.443 18.8611C17.5 18.8081 17.528 18.7291 17.528 18.6201C17.528 18.5241 17.501 18.4531 17.446 18.4021C17.375 18.3371 17.258 18.2791 17.099 18.2301L16.576 18.0971C16.393 18.0521 16.21 17.9981 16.033 17.9361C15.844 17.8701 15.675 17.7831 15.529 17.6781C15.376 17.5681 15.252 17.4291 15.159 17.2641C15.065 17.0971 15.017 16.8921 15.017 16.6561C15.017 16.4511 15.055 16.2601 15.129 16.0891C15.204 15.9161 15.312 15.7651 15.45 15.6391C15.587 15.5141 15.755 15.4131 15.95 15.3391C16.024 15.3111 16.114 15.2851 16.2 15.2641V14.6001H17.4V15.2511C17.519 15.2751 17.607 15.2951 17.696 15.3231C17.84 15.3681 17.971 15.4241 18.087 15.4881C18.202 15.5521 18.307 15.6271 18.401 15.7081C18.49 15.7861 18.577 15.8701 18.66 15.9601L18.78 16.0891L17.926 16.8881L17.782 16.7381C17.678 16.6291 17.568 16.5291 17.454 16.4411C17.353 16.3631 17.238 16.3071 17.101 16.2701C16.986 16.2391 16.826 16.2311 16.65 16.2481C16.539 16.2581 16.44 16.2991 16.388 16.3581C16.333 16.4181 16.307 16.4901 16.307 16.5771C16.307 16.7101 16.36 16.7561 16.377 16.7711C16.439 16.8241 16.557 16.8921 16.682 16.9221C16.814 16.9541 16.972 16.9951 17.13 17.0351L17.212 17.0561C17.402 17.1051 17.621 17.1621 17.809 17.2301C18.006 17.3011 18.179 17.3931 18.326 17.5021C18.479 17.6171 18.601 17.7611 18.687 17.9291Z"/>
</svg>
