<svg width="24" height="24" viewBox="0 0 24 24" xmlns="http://www.w3.org/2000/svg">
<path d="M20.722 13.6081C20.774 13.0851 20.8 12.5471 20.8 11.9941C20.8 10.4911 20.609 9.09107 20.233 7.83407C19.849 6.55107 19.278 5.43807 18.537 4.52607C17.785 3.60007 16.844 2.87307 15.742 2.36407C14.645 1.85807 13.393 1.60107 12.02 1.60107C10.647 1.60107 9.395 1.85807 8.298 2.36407C7.196 2.87307 6.254 3.60007 5.498 4.52507C4.753 5.43607 4.176 6.54807 3.783 7.83007C3.397 9.08907 3.201 10.4901 3.201 11.9951C3.201 13.5001 3.397 14.9021 3.783 16.1601C4.176 17.4421 4.752 18.5551 5.497 19.4701C6.253 20.4001 7.196 21.1291 8.299 21.6381C9.396 22.1441 10.648 22.4011 12.021 22.4011C12.604 22.4011 13.164 22.3531 13.7 22.2611C14.589 22.8541 15.655 23.2011 16.801 23.2011C19.889 23.2011 22.401 20.6891 22.401 17.6011C22.401 16.0391 21.758 14.6251 20.723 13.6091L20.722 13.6081ZM8.968 20.1841C8.089 19.7781 7.338 19.1981 6.737 18.4581C6.123 17.7041 5.644 16.7731 5.312 15.6891C4.973 14.5831 4.801 13.3391 4.801 11.9931C4.801 10.6471 4.973 9.40407 5.312 8.29707C5.644 7.21507 6.123 6.28507 6.736 5.53607C7.337 4.80107 8.088 4.22207 8.968 3.81507C9.853 3.40607 10.88 3.19907 12.019 3.19907C13.158 3.19907 14.185 3.40607 15.07 3.81507C15.949 4.22107 16.697 4.79907 17.294 5.53407C17.902 6.28307 18.375 7.21107 18.699 8.29207C19.031 9.40007 19.199 10.6451 19.199 11.9931C19.199 12.1761 19.195 12.3571 19.188 12.5361C18.463 12.1921 17.653 11.9991 16.799 11.9991C16.732 11.9991 16.665 12.0021 16.598 12.0041C16.598 11.9881 16.598 11.9721 16.598 11.9561C16.598 9.68007 16.232 7.98607 15.479 6.77707C14.673 5.48307 13.469 4.79907 11.998 4.79907C10.527 4.79907 9.263 5.48707 8.479 6.78707C7.752 7.99307 7.398 9.68407 7.398 11.9561C7.398 14.2281 7.76 15.9331 8.504 17.1681C9.199 18.3201 10.2 19.0011 11.421 19.1611C11.593 19.7521 11.86 20.3031 12.204 20.7961C12.142 20.7971 12.08 20.7991 12.017 20.7991C10.877 20.7991 9.851 20.5921 8.965 20.1831L8.968 20.1841ZM11.203 17.4821C10.664 17.3071 10.233 16.9341 9.876 16.3421C9.294 15.3771 9 13.9021 9 11.9571C9 10.0121 9.286 8.55107 9.851 7.61407C10.351 6.78507 11.034 6.39907 12 6.39907C12.966 6.39907 13.603 6.78807 14.123 7.62307C14.705 8.55707 15 10.0151 15 11.9561C15 12.0721 14.999 12.1861 14.997 12.2981C12.827 13.0381 11.253 15.0751 11.203 17.4811V17.4821ZM16.8 21.6001C14.594 21.6001 12.8 19.8061 12.8 17.6001C12.8 15.3941 14.594 13.6001 16.8 13.6001C19.006 13.6001 20.8 15.3941 20.8 17.6001C20.8 19.8061 19.006 21.6001 16.8 21.6001ZM16.017 16.7191C16.017 16.7191 15.997 16.8351 15.978 17.0001H16.802V18.2001H15.978C15.997 18.3651 16.017 18.4811 16.017 18.4811C16.077 18.7471 16.182 18.9611 16.327 19.1121C16.467 19.2571 16.663 19.3281 16.928 19.3281C17.132 19.3281 17.294 19.2621 17.422 19.1251C17.557 18.9811 17.674 18.7481 17.768 18.4351L17.798 18.3361L19 18.7221L18.97 18.8161C18.814 19.3091 18.564 19.6991 18.226 19.9771C17.884 20.2581 17.445 20.4001 16.922 20.4001C16.654 20.4001 16.396 20.3631 16.156 20.2891C15.913 20.2151 15.691 20.0991 15.498 19.9451C15.304 19.7911 15.136 19.5931 14.997 19.3561C14.895 19.1801 14.724 18.7601 14.644 18.2001H14.001V17.0001H14.644C14.724 16.4401 14.894 16.0201 14.997 15.8441C15.136 15.6061 15.304 15.4081 15.498 15.2551C15.692 15.1011 15.913 14.9861 16.156 14.9111C16.397 14.8371 16.654 14.8001 16.922 14.8001C17.445 14.8001 17.884 14.9421 18.226 15.2231C18.564 15.5011 18.815 15.8921 18.97 16.3841L19 16.4781L17.798 16.8641L17.768 16.7651C17.674 16.4521 17.558 16.2201 17.422 16.0751C17.294 15.9391 17.132 15.8721 16.928 15.8721C16.663 15.8721 16.467 15.9431 16.327 16.0881C16.182 16.2391 16.077 16.4531 16.017 16.7191Z"/>
</svg>
