<svg width="24" height="24" viewBox="0 0 24 24" xmlns="http://www.w3.org/2000/svg">
<path d="M3.20005 12.5C3.69711 12.5 4.10005 12.0971 4.10005 11.6C4.10005 11.1029 3.69711 10.7 3.20005 10.7C2.70299 10.7 2.30005 11.1029 2.30005 11.6C2.30005 12.0971 2.70299 12.5 3.20005 12.5Z"/>
<path d="M16.8 14.2H15.2V16.731L17.034 18.566L18.166 17.434L16.8 16.069V14.2Z"/>
<path d="M21.6 11.6C21.6 6.307 17.293 2 12 2C9.53905 2 7.24905 2.919 5.60005 4.491V2.8H4.00005V7.6H8.80005V6H6.36005C7.72705 4.494 9.77605 3.6 12 3.6C16.411 3.6 20 7.189 20 11.6C20 11.883 19.9841 12.163 19.9551 12.439C18.9411 11.427 17.543 10.8 16 10.8C12.912 10.8 10.4 13.312 10.4 16.4C10.4 17.579 10.767 18.674 11.392 19.577C8.16005 19.339 5.37905 17.218 4.35905 14.148L2.84005 14.652C4.14005 18.569 7.82105 21.2 11.999 21.2C12.347 21.2 12.69 21.18 13.028 21.144C13.89 21.686 14.9081 22 15.9991 22C19.0871 22 21.599 19.488 21.599 16.4C21.599 15.67 21.457 14.973 21.202 14.333C21.46 13.467 21.6 12.55 21.6 11.6ZM16 20.4C13.794 20.4 12 18.606 12 16.4C12 14.194 13.794 12.4 16 12.4C18.206 12.4 20 14.194 20 16.4C20 18.606 18.206 20.4 16 20.4Z"/>
</svg>
