<svg width="24" height="24" viewBox="0 0 24 24" xmlns="http://www.w3.org/2000/svg">
<path d="M4.99989 5.89994C4.99989 5.40294 5.40289 4.99994 5.89989 4.99994C6.39689 4.99994 6.79989 5.40294 6.79989 5.89994C6.79989 6.39694 6.39689 6.79994 5.89989 6.79994C5.40289 6.79994 4.99989 6.39694 4.99989 5.89994ZM22.1659 9.36594L21.0349 8.23494L18.0689 11.2009H13.9319L19.3659 5.76694L18.2349 4.63594L12.8009 10.0699V5.93294L15.7669 2.96694L14.6359 1.83594L12.0019 4.46994L9.36789 1.83594L8.23689 2.96694L11.2029 5.93294V10.0699L8.36889 7.23594L7.23789 8.36694L10.0719 11.2009H5.93489L2.96889 8.23494L1.83789 9.36594L4.47189 11.9999L1.83789 14.6339L2.96889 15.7649L5.93489 12.7989H10.0719L4.63789 18.2329L5.76889 19.3639L11.2029 13.9299V18.0669L8.23689 21.0329L9.36789 22.1639L12.0019 19.5299L14.6359 22.1639L15.7669 21.0329L12.8009 18.0669V13.9299L18.2349 19.3639L19.3659 18.2329L13.9319 12.7989H18.0689L21.0349 15.7649L22.1659 14.6339L19.5319 11.9999L22.1659 9.36594Z"/>
</svg>
