<svg width="24" height="24" viewBox="0 0 24 24" xmlns="http://www.w3.org/2000/svg">
<path d="M9.4999 10.5001C9.4999 10.0031 9.9029 9.60009 10.3999 9.60009C10.8969 9.60009 11.2999 10.0031 11.2999 10.5001C11.2999 10.9971 10.8969 11.4001 10.3999 11.4001C9.9029 11.4001 9.4999 10.9971 9.4999 10.5001ZM21.5999 7.60009V18.8001C21.5999 19.4621 21.0619 20.0001 20.3999 20.0001H3.5999C2.9379 20.0001 2.3999 19.4621 2.3999 18.8001V7.60009C2.3999 6.93809 2.9379 6.40009 3.5999 6.40009H7.1689L11.9999 1.56909L16.8309 6.40009H20.3999C21.0619 6.40009 21.5999 6.93809 21.5999 7.60009ZM9.4309 6.40009H14.5679L11.9989 3.83109L9.4309 6.40009ZM3.9999 8.00009V15.0691L7.2999 11.7691L10.6999 15.1691L16.2999 9.56909L19.9999 13.2691V8.00009H3.9999ZM3.9999 18.4001H7.4689L9.5689 16.3001L7.2999 14.0311L3.9999 17.3311V18.4001ZM19.9999 18.4001V15.5311L16.2999 11.8311L9.7309 18.4001H19.9999Z"/>
</svg>
