<svg width="24" height="24" viewBox="0 0 24 24" xmlns="http://www.w3.org/2000/svg">
<path d="M20.966 13.4339C20.494 12.9619 19.867 12.7029 19.2 12.7029C18.533 12.7029 17.906 12.9629 17.434 13.4339L15.337 15.5309C15.035 15.8329 14.633 15.9999 14.206 15.9999H13.463C13.327 15.6169 13.097 15.2789 12.801 15.0129V12.5239C14.736 11.5679 16.001 9.4979 16.001 7.1989C16.001 4.6989 14.505 2.4679 12.277 1.6479L12.001 1.5459L11.725 1.6479C9.49796 2.4679 8.00096 4.6989 8.00096 7.1989C8.00096 9.4979 9.26596 11.5669 11.201 12.5239V14.3989H5.79496C4.93996 14.3989 4.13696 14.7319 3.53196 15.3359L1.83496 17.0329L2.96596 18.1639L4.66296 16.4669C4.96496 16.1649 5.36696 15.9979 5.79396 15.9979H11.2C11.641 15.9979 12 16.3569 12 16.7979C12 17.2389 11.641 17.5979 11.2 17.5979H7.99996V19.1979H11.2C12.243 19.1979 13.132 18.5289 13.462 17.5979H14.205C15.06 17.5979 15.863 17.2649 16.468 16.6609L18.565 14.5639C18.734 14.3949 18.96 14.3009 19.199 14.3009C19.438 14.3009 19.664 14.3939 19.833 14.5639C20.002 14.7339 20.096 14.9589 20.096 15.1979C20.096 15.4369 20.003 15.6629 19.833 15.8319L15.805 19.8599C15.201 20.4639 14.397 20.7969 13.542 20.7969H5.59996V22.3969H13.543C14.825 22.3969 16.031 21.8979 16.937 20.9909L20.965 16.9629C21.939 15.9889 21.939 14.4049 20.965 13.4319L20.966 13.4339ZM9.59996 7.1999C9.59996 5.4749 10.553 3.9319 12 3.2649C13.447 3.9319 14.4 5.4749 14.4 7.1999C14.4 8.5819 13.787 9.8459 12.8 10.6369V7.1999H11.2V10.6369C10.213 9.8459 9.59996 8.5819 9.59996 7.1999Z"/>
</svg>
