<svg width="24" height="24" viewBox="0 0 24 24" xmlns="http://www.w3.org/2000/svg">
<path d="M12 21.5999C6.70702 21.5999 2.40002 17.2929 2.40002 11.9999C2.40002 6.7069 6.70702 2.3999 12 2.3999C17.293 2.3999 21.6 6.7069 21.6 11.9999C21.6 17.2929 17.293 21.5999 12 21.5999ZM12 3.9999C7.58902 3.9999 4.00002 7.5889 4.00002 11.9999C4.00002 16.4109 7.58902 19.9999 12 19.9999C16.411 19.9999 20 16.4109 20 11.9999C20 7.5889 16.411 3.9999 12 3.9999ZM14.166 16.2339L9.93202 11.9999L14.166 7.7659L13.035 6.6349L7.66902 12.0009L13.035 17.3669L14.166 16.2359V16.2339Z"/>
</svg>
