<svg width="24" height="24" viewBox="0 0 24 24" xmlns="http://www.w3.org/2000/svg">
<path d="M12.331 1.6001H4V22.4001H7V20.8001H5.6V3.2001H11.2V10.4001H18.4V20.8001H12V22.4001H20V9.2691L12.331 1.6001ZM12.8 4.3311L17.269 8.8001H12.8V4.3311ZM10.4 21.6001C10.4 22.0971 9.997 22.5001 9.5 22.5001C9.003 22.5001 8.6 22.0971 8.6 21.6001C8.6 21.1031 9.003 20.7001 9.5 20.7001C9.997 20.7001 10.4 21.1031 10.4 21.6001ZM9.791 15.4471H11.332V17.3001H10.548V17.1011C10.356 17.2661 10.078 17.3621 9.766 17.3621C8.808 17.3621 8.236 16.6801 8.236 15.5381C8.236 14.3961 8.859 13.7401 9.824 13.7401C10.46 13.7401 10.975 14.0481 11.237 14.5851L11.282 14.6781L10.482 15.0371L10.441 14.9461C10.358 14.7621 10.189 14.5421 9.859 14.5421C9.6 14.5421 9.166 14.6701 9.166 15.5251C9.166 16.4761 9.654 16.5791 9.864 16.5791C10.133 16.5791 10.328 16.4381 10.413 16.1861H9.938L9.791 15.4471ZM12.874 17.3001H11.952V13.8031H12.874V17.3001ZM14.447 14.6091V15.2111H15.499L15.643 15.9861H14.446V17.3001H13.52V13.8031H15.899V14.6091H14.447Z"/>
</svg>
