<svg width="24" height="24" viewBox="0 0 24 24" xmlns="http://www.w3.org/2000/svg">
<path d="M15.1159 10.0421C14.5309 8.8711 14.4009 6.4381 14.3999 5.6001V2.4001C14.3999 1.9581 14.0419 1.6001 13.5999 1.6001H10.3999C9.9579 1.6001 9.5999 1.9581 9.5999 2.4001V5.6001C9.5999 6.4391 9.4699 8.8721 8.8839 10.0421C8.0099 11.7911 7.9999 13.5271 7.9999 13.6001V19.2001H9.5999V13.6021C9.5999 13.5881 9.6159 12.1571 10.3159 10.7581C10.9359 9.5171 11.1219 7.5111 11.1769 6.4001H12.8239C12.8789 7.5111 13.0649 9.5171 13.6849 10.7581C14.3849 12.1571 14.3999 13.5881 14.4009 13.6001V20.8001H11.2009V22.4001H16.0009V13.6001C16.0009 13.5271 15.9909 11.7911 15.1169 10.0421H15.1159ZM12.7999 4.8001H11.1999V3.2001H12.7999V4.8001ZM8.7999 20.6001C9.2969 20.6001 9.6999 21.0031 9.6999 21.5001C9.6999 21.9971 9.2969 22.4001 8.7999 22.4001C8.3029 22.4001 7.8999 21.9971 7.8999 21.5001C7.8999 21.0031 8.3029 20.6001 8.7999 20.6001Z"/>
</svg>
