<svg width="24" height="24" viewBox="0 0 24 24" xmlns="http://www.w3.org/2000/svg">
<path d="M11.9999 2.3999C6.6979 2.3999 2.3999 6.6979 2.3999 11.9999C2.3999 17.3019 6.6979 21.5999 11.9999 21.5999C17.3019 21.5999 21.5999 17.3019 21.5999 11.9999C21.5999 6.6979 17.3019 2.3999 11.9999 2.3999ZM15.9999 15.9999C15.9999 16.8839 15.2839 17.5999 14.3999 17.5999H9.5999C8.7159 17.5999 7.9999 16.8839 7.9999 15.9999H14.3999V9.4299C14.3999 9.3979 14.4259 9.3719 14.4579 9.3719H15.9409C15.9729 9.3719 15.9989 9.3979 15.9989 9.4299L15.9999 15.9999ZM9.5999 7.9999V14.5699C9.5999 14.6019 9.5739 14.6279 9.5419 14.6279H8.0589C8.0269 14.6279 8.0009 14.6019 8.0009 14.5699V7.9999C8.0009 7.1159 8.7169 6.3999 9.6009 6.3999H14.4009C15.2849 6.3999 16.0009 7.1159 16.0009 7.9999H9.5999Z"/>
</svg>
