<svg width="24" height="24" viewBox="0 0 24 24" xmlns="http://www.w3.org/2000/svg">
<path d="M11.9999 2.3999C6.7069 2.3999 2.3999 6.7069 2.3999 11.9999C2.3999 17.2929 6.7069 21.5999 11.9999 21.5999C17.2929 21.5999 21.5999 17.2929 21.5999 11.9999C21.5999 6.7069 17.2929 2.3999 11.9999 2.3999ZM19.9599 11.1999H17.5739C17.4089 8.6799 16.4729 6.3159 15.0439 4.6029C17.7139 5.7059 19.6619 8.2129 19.9599 11.1999ZM11.1999 4.6299V11.1999H8.0319C8.2389 8.5189 9.4639 6.0119 11.1999 4.6299ZM11.1999 12.7999V19.3699C9.4639 17.9879 8.2389 15.4809 8.0319 12.7999H11.1999ZM12.7999 19.3699V12.7999H15.9679C15.7609 15.4809 14.5359 17.9879 12.7999 19.3699ZM12.7999 11.1999V4.6299C14.5359 6.0119 15.7609 8.5189 15.9679 11.1999H12.7999ZM8.9559 4.6029C7.5269 6.3159 6.5909 8.6799 6.4259 11.1999H4.0399C4.3379 8.2129 6.2859 5.7059 8.9559 4.6029ZM4.0399 12.7999H6.4259C6.5909 15.3199 7.5269 17.6839 8.9559 19.3969C6.2859 18.2939 4.3379 15.7869 4.0399 12.7999ZM15.0439 19.3969C16.4729 17.6839 17.4089 15.3199 17.5739 12.7999H19.9599C19.6619 15.7869 17.7139 18.2939 15.0439 19.3969Z"/>
</svg>
