<svg width="24" height="24" viewBox="0 0 24 24" xmlns="http://www.w3.org/2000/svg">
<path fill-rule="evenodd" clip-rule="evenodd" d="M13.8341 11.0441C14.1401 12.4911 13.7321 13.9931 12.7401 15.0851C11.0391 16.9551 8.1551 17.0931 6.2921 15.3871C4.4291 13.6801 4.2911 10.7851 5.9911 8.9161C7.6921 7.0461 10.5761 6.9081 12.4391 8.6141L11.0931 9.9411C10.8591 9.7421 10.5941 9.5851 10.3061 9.4771C8.9121 8.9461 7.3611 9.6581 6.8331 11.0511C6.3041 12.4441 7.0071 14.0061 8.4011 14.5371C9.7951 15.0621 11.3461 14.3621 11.8741 12.9631H9.2961V11.0451H13.8331L13.8341 11.0441ZM17.6081 11.1891V9.5911H16.4481V11.1891H14.8561V12.3531H16.4481V13.9511H17.6081V12.3531H19.2001V11.1891H17.6081ZM12.0001 22.4001C6.2651 22.4001 1.6001 17.7351 1.6001 12.0001C1.6001 6.2651 6.2651 1.6001 12.0001 1.6001C17.7351 1.6001 22.4001 6.2651 22.4001 12.0001C22.4001 17.7351 17.7351 22.4001 12.0001 22.4001ZM12.0001 3.2001C7.1481 3.2001 3.2001 7.1481 3.2001 12.0001C3.2001 16.8521 7.1481 20.8001 12.0001 20.8001C16.8521 20.8001 20.8001 16.8521 20.8001 12.0001C20.8001 7.1481 16.8521 3.2001 12.0001 3.2001Z"/>
</svg>
