<svg width="24" height="24" viewBox="0 0 24 24" xmlns="http://www.w3.org/2000/svg">
<path fill-rule="evenodd" clip-rule="evenodd" d="M8.69589 13.1761H11.8469C11.2009 14.8861 9.30589 15.7411 7.60189 15.1001C5.89789 14.4511 5.03889 12.5421 5.68489 10.8391C6.33089 9.1361 8.22589 8.26611 9.92989 8.91511C10.2829 9.04811 10.6059 9.23911 10.8919 9.48311L12.5369 7.8611C10.2599 5.7751 6.73489 5.94411 4.65589 8.23011C2.57689 10.5151 2.74589 14.0531 5.02289 16.1391C7.29989 18.2251 10.8249 18.0561 12.9039 15.7701C14.1159 14.4361 14.6149 12.6001 14.2409 10.8311H8.69589V13.1761Z"/>
<path fill-rule="evenodd" clip-rule="evenodd" d="M18.8539 11.0091V9.05511H17.4359V11.0091H15.4899V12.4311H17.4359V14.3851H18.8539V12.4311H20.7999V11.0091H18.8539Z"/>
</svg>
