<svg width="24" height="24" viewBox="0 0 24 24" xmlns="http://www.w3.org/2000/svg">
<path d="M19.1002 7.19995C19.1002 6.70295 19.5032 6.29995 20.0002 6.29995C20.4972 6.29995 20.9002 6.70295 20.9002 7.19995C20.9002 7.69695 20.4972 8.09995 20.0002 8.09995C19.5032 8.09995 19.1002 7.69695 19.1002 7.19995ZM3.2002 9.59995H8.0002V21.6H3.2002V9.59995ZM4.8002 20H6.4002V11.2H4.8002V20ZM9.6002 3.19995H14.4002V21.6H9.6002V3.19995ZM11.2002 20H12.8002V4.79995H11.2002V20ZM19.2002 20H17.6002V6.39995H16.0002V21.6H20.8002V9.69995H19.2002V20Z"/>
</svg>
