<svg width="24" height="24" viewBox="0 0 24 24" xmlns="http://www.w3.org/2000/svg">
<path d="M21.56 16.2301C21.447 16.1241 21.277 15.9651 21.244 15.9021C21.215 15.8241 21.222 15.5741 21.227 15.4091C21.24 14.9321 21.259 14.2801 20.789 13.8111C20.556 13.5781 20.279 13.4661 20 13.4131V1.6001H4V22.4001H7.2V20.8001H5.6V3.2001H18.4V13.0721C18.39 13.0611 18.379 13.0501 18.37 13.0401C18.038 12.6861 17.584 12.2001 16.9 12.2001C16.216 12.2001 15.762 12.6851 15.43 13.0401C15.325 13.1531 15.165 13.3231 15.102 13.3561C15.023 13.3851 14.774 13.3781 14.609 13.3731C14.132 13.3601 13.48 13.3421 13.011 13.8111C12.542 14.2801 12.56 14.9331 12.573 15.4091C12.578 15.5741 12.585 15.8241 12.559 15.8961C12.523 15.9651 12.353 16.1251 12.24 16.2301C11.886 16.5611 11.4 17.0151 11.4 17.7001C11.4 18.3851 11.885 18.8381 12.24 19.1701C12.353 19.2761 12.523 19.4351 12.556 19.4981C12.585 19.5761 12.578 19.8261 12.573 19.9911C12.56 20.4681 12.541 21.1201 13.011 21.5891C13.48 22.0581 14.133 22.0401 14.609 22.0271C14.774 22.0221 15.023 22.0151 15.096 22.0411C15.165 22.0771 15.325 22.2471 15.43 22.3601C15.762 22.7141 16.216 23.2001 16.9 23.2001C17.584 23.2001 18.038 22.7151 18.37 22.3601C18.475 22.2471 18.635 22.0771 18.698 22.0441C18.777 22.0151 19.026 22.0221 19.191 22.0271C19.668 22.0401 20.32 22.0581 20.789 21.5891C21.258 21.1201 21.24 20.4671 21.227 19.9911C21.222 19.8261 21.215 19.5761 21.241 19.5041C21.277 19.4351 21.447 19.2751 21.56 19.1701C21.914 18.8391 22.4 18.3851 22.4 17.7001C22.4 17.0151 21.915 16.5621 21.56 16.2301ZM20.467 18.0011C20.211 18.2411 19.92 18.5131 19.765 18.8861C19.606 19.2701 19.617 19.6771 19.627 20.0351C19.63 20.1541 19.635 20.3161 19.627 20.4261C19.517 20.4341 19.354 20.4301 19.236 20.4261C18.877 20.4161 18.471 20.4051 18.087 20.5641C17.713 20.7191 17.442 21.0101 17.202 21.2661C17.118 21.3561 16.99 21.4921 16.901 21.5651C16.812 21.4921 16.684 21.3551 16.6 21.2661C16.36 21.0101 16.088 20.7191 15.715 20.5641C15.427 20.4441 15.126 20.4211 14.842 20.4211C14.748 20.4211 14.655 20.4241 14.566 20.4261C14.447 20.4291 14.285 20.4341 14.175 20.4261C14.167 20.3161 14.171 20.1531 14.175 20.0351C14.185 19.6761 14.196 19.2701 14.037 18.8861C13.882 18.5121 13.591 18.2411 13.335 18.0011C13.245 17.9171 13.109 17.7891 13.036 17.7001C13.109 17.6111 13.246 17.4831 13.335 17.3991C13.591 17.1591 13.882 16.8871 14.037 16.5141C14.196 16.1301 14.185 15.7231 14.175 15.3651C14.172 15.2461 14.167 15.0841 14.175 14.9741C14.285 14.9661 14.448 14.9701 14.566 14.9741C14.925 14.9841 15.331 14.9951 15.715 14.8361C16.089 14.6811 16.36 14.3901 16.6 14.1341C16.684 14.0441 16.812 13.9081 16.901 13.8351C16.99 13.9081 17.118 14.0451 17.202 14.1341C17.442 14.3901 17.714 14.6811 18.087 14.8361C18.471 14.9951 18.877 14.9841 19.236 14.9741C19.354 14.9711 19.517 14.9661 19.627 14.9741C19.635 15.0841 19.631 15.2471 19.627 15.3651C19.617 15.7241 19.606 16.1301 19.765 16.5141C19.92 16.8881 20.211 17.1591 20.467 17.3991C20.557 17.4831 20.693 17.6111 20.766 17.7001C20.693 17.7891 20.556 17.9171 20.467 18.0011ZM16.8 7.2001H7.2V5.6001H16.8V7.2001ZM7.2 8.8001H12V10.4001H7.2V8.8001ZM10.6 21.6001C10.6 22.0971 10.197 22.5001 9.7 22.5001C9.203 22.5001 8.8 22.0971 8.8 21.6001C8.8 21.1031 9.203 20.7001 9.7 20.7001C10.197 20.7001 10.6 21.1031 10.6 21.6001Z"/>
</svg>
