<svg width="24" height="24" viewBox="0 0 24 24" xmlns="http://www.w3.org/2000/svg">
<path d="M19.2001 8.0001C18.8881 8.0001 18.5891 8.0611 18.3151 8.1701C18.0371 7.1511 17.1051 6.4001 16.0001 6.4001C15.5721 6.4001 15.1711 6.5131 14.8221 6.7101C14.3951 6.0431 13.6481 5.6001 12.8001 5.6001C12.5201 5.6001 12.2501 5.6491 12.0001 5.7381V4.0001C12.0001 3.3611 11.7501 2.7581 11.2961 2.3041C10.8421 1.8501 10.2401 1.6001 9.60008 1.6001C8.27708 1.6001 7.20008 2.6771 7.20008 4.0001V10.4101C6.76608 9.6141 6.17208 9.2571 5.73108 9.0971C5.10808 8.8711 4.42208 8.9021 3.84908 9.1811C2.51008 9.8341 1.90608 11.3021 2.47008 12.5271L5.24908 18.9531C5.56708 19.6901 6.05108 20.3621 6.64908 20.8981L8.32308 22.4001H10.7191L7.71808 19.7071C7.29108 19.3241 6.94608 18.8441 6.71808 18.3181L3.93508 11.8831L3.92608 11.8621C3.73008 11.4411 4.01008 10.8831 4.55208 10.6191C4.69308 10.5501 4.93408 10.5091 5.18608 10.6011C5.46708 10.7031 5.70408 10.9541 5.86708 11.3201L6.88708 13.6651C7.08108 14.1011 7.54208 14.3361 8.00808 14.2371C8.47508 14.1381 8.80008 13.7361 8.80008 13.2591V4.0001C8.80008 3.5591 9.15908 3.2001 9.60008 3.2001C9.81208 3.2001 10.0121 3.2841 10.1641 3.4361C10.3161 3.5881 10.4001 3.7881 10.4001 4.0001V12.0001H12.0001V8.0001C12.0001 7.5591 12.3591 7.2001 12.8001 7.2001C13.2411 7.2001 13.6001 7.5591 13.6001 8.0001V12.8001H15.2001V8.8001C15.2001 8.3591 15.5591 8.0001 16.0001 8.0001C16.4411 8.0001 16.8001 8.3591 16.8001 8.8001V13.6001H18.4001V10.4001C18.4001 9.9591 18.7591 9.6001 19.2001 9.6001C19.6411 9.6001 20.0001 9.9591 20.0001 10.4001V13.6791C20.0001 15.1231 19.7431 16.5411 19.2361 17.8921L17.5461 22.4001H19.2551L20.7351 18.4541C21.3101 16.9221 21.6011 15.3151 21.6011 13.6791V10.4001C21.6011 9.0771 20.5231 8.0001 19.2001 8.0001Z"/>
</svg>
