<svg width="24" height="24" viewBox="0 0 24 24" xmlns="http://www.w3.org/2000/svg">
<path d="M4.63397 8.86589L1.06897 5.29989L4.63397 1.73389L5.76497 2.86489L3.33097 5.29889L5.76497 7.73289L4.63397 8.86389V8.86589ZM20.4 7.19989C20.12 7.19989 19.85 7.24889 19.6 7.33789V6.39989C19.6 5.07689 18.523 3.99989 17.2 3.99989C16.888 3.99989 16.589 4.06089 16.315 4.16989C16.037 3.15089 15.105 2.39989 14 2.39989C12.895 2.39989 11.962 3.15089 11.685 4.16989C11.411 4.06089 11.113 3.99989 10.8 3.99989C9.47697 3.99989 8.39997 5.07689 8.39997 6.39989V9.73789C8.14997 9.64889 7.87997 9.59989 7.59997 9.59989C6.28097 9.59989 5.20797 10.6689 5.19997 11.9869V15.6119C5.19997 17.1079 5.78297 18.5139 6.83997 19.5719L9.66797 22.3999H11.931L7.97097 18.4399C7.21497 17.6839 6.79897 16.6799 6.79897 15.6119V11.9999C6.79897 11.5589 7.15797 11.1999 7.59897 11.1999C8.03997 11.1999 8.39897 11.5589 8.39897 11.9999V15.5999H9.99897C10.817 15.5999 11.611 15.9429 12.233 16.5659L13.364 15.4349C12.439 14.5099 11.244 14.0009 9.99797 14.0009V6.40089C9.99797 5.95989 10.357 5.60089 10.798 5.60089C11.239 5.60089 11.598 5.95989 11.598 6.40089V11.2009H13.198V4.79989C13.198 4.35889 13.557 3.99989 13.998 3.99989C14.439 3.99989 14.798 4.35889 14.798 4.79989V11.1999H16.398V6.39989C16.398 5.95889 16.757 5.59989 17.198 5.59989C17.639 5.59989 17.998 5.95889 17.998 6.39989V13.5999H19.598V9.59989C19.598 9.15889 19.957 8.79989 20.398 8.79989C20.839 8.79989 21.198 9.15889 21.198 9.59989V13.6789C21.198 15.1229 20.941 16.5409 20.434 17.8919L18.744 22.3999H20.453L21.933 18.4539C22.508 16.9219 22.799 15.3149 22.799 13.6789V9.59989C22.799 8.27689 21.723 7.19989 20.4 7.19989Z"/>
</svg>
