<svg width="24" height="24" viewBox="0 0 24 24" xmlns="http://www.w3.org/2000/svg">
<path d="M11.9999 21.5999C6.7069 21.5999 2.3999 17.2929 2.3999 11.9999C2.3999 6.7069 6.7069 2.3999 11.9999 2.3999C17.2929 2.3999 21.5999 6.7069 21.5999 11.9999C21.5999 17.2929 17.2929 21.5999 11.9999 21.5999ZM11.9999 3.9999C7.5889 3.9999 3.9999 7.5889 3.9999 11.9999C3.9999 16.4109 7.5889 19.9999 11.9999 19.9999C16.4109 19.9999 19.9999 16.4109 19.9999 11.9999C19.9999 7.5889 16.4109 3.9999 11.9999 3.9999ZM17.5999 11.9999H15.9999C15.9999 14.2059 14.2059 15.9999 11.9999 15.9999C9.7939 15.9999 7.9999 14.2059 7.9999 11.9999H6.3999C6.3999 15.0879 8.9119 17.5999 11.9999 17.5999C15.0879 17.5999 17.5999 15.0879 17.5999 11.9999ZM8.7999 8.6999C8.3029 8.6999 7.8999 9.1029 7.8999 9.5999C7.8999 10.0969 8.3029 10.4999 8.7999 10.4999C9.2969 10.4999 9.6999 10.0969 9.6999 9.5999C9.6999 9.1029 9.2969 8.6999 8.7999 8.6999ZM15.1999 8.6999C14.7029 8.6999 14.2999 9.1029 14.2999 9.5999C14.2999 10.0969 14.7029 10.4999 15.1999 10.4999C15.6969 10.4999 16.0999 10.0969 16.0999 9.5999C16.0999 9.1029 15.6969 8.6999 15.1999 8.6999Z"/>
</svg>
