<svg width="24" height="24" viewBox="0 0 24 24" xmlns="http://www.w3.org/2000/svg">
<path d="M10.5982 4.8001C10.5982 4.8001 12.3392 7.0401 11.4902 15.4911H11.4892C11.4892 15.4911 11.4942 15.5481 11.4342 15.5641C11.4342 15.5641 11.4032 15.5781 11.3642 15.5391C10.8122 14.7441 8.2462 10.9591 7.7242 8.6551C7.7242 8.6551 7.6162 8.2951 7.5962 7.8131V7.5011C7.6062 7.2721 7.6412 7.0291 7.7172 6.7911C7.7172 6.7911 8.0862 5.3801 9.6492 4.9781C9.6492 4.9781 10.3422 4.8211 10.5992 4.7981L10.5982 4.8001ZM10.1852 16.6331C7.5932 14.8921 2.5692 12.2201 2.5692 12.2201C2.1132 13.6261 2.7282 14.7611 2.7282 14.7611C3.3682 16.1081 4.5912 16.5161 4.5912 16.5161C5.1552 16.7471 5.7202 16.7631 5.7202 16.7631C5.8082 16.7791 9.2302 16.7651 10.1472 16.7601C10.1862 16.7601 10.2072 16.7211 10.2072 16.7211C10.2102 16.7171 10.2122 16.7121 10.2132 16.7081V16.6731C10.2052 16.6491 10.1852 16.6331 10.1852 16.6331ZM10.1172 17.2481C10.1022 17.1951 10.0412 17.1951 10.0412 17.1951V17.1921L4.1402 17.3981C4.7802 18.5341 5.8582 19.4161 6.9812 19.1451C7.7562 18.9521 9.5112 17.7341 10.0912 17.3221L10.0892 17.3201C10.1342 17.2801 10.1182 17.2471 10.1182 17.2471L10.1172 17.2481ZM10.6822 15.9611C8.4262 11.0561 5.3402 7.3371 5.3402 7.3371C5.3402 7.3371 3.8512 8.7431 3.7772 10.2351V10.4611C3.7782 10.4781 3.7792 10.4951 3.7802 10.5131C3.8442 11.7151 4.7532 12.4271 4.7532 12.4271C6.2172 13.8471 9.7622 15.6401 10.5862 16.0471C10.5982 16.0511 10.6402 16.0651 10.6652 16.0341C10.6652 16.0341 10.6782 16.0241 10.6842 16.0061V15.9691C10.6842 15.9691 10.6822 15.9651 10.6812 15.9621L10.6822 15.9611ZM13.9492 17.1991C13.9492 17.1991 13.8972 17.2051 13.8832 17.2441C13.8832 17.2441 13.8702 17.2971 13.9052 17.3231C14.4702 17.7271 16.1832 18.9191 17.0082 19.1501C17.0082 19.1501 17.1332 19.1921 17.3422 19.2001H17.4682C18.0212 19.1811 18.9842 18.8981 19.8592 17.4011L13.9502 17.1961V17.1981L13.9492 17.1991ZM16.2852 6.7931C16.2852 6.7931 15.8992 5.3601 14.3342 4.9811C14.3342 4.9811 13.8832 4.8671 13.4042 4.8001C13.4042 4.8001 11.6552 7.0411 12.5062 15.4981H12.5072C12.5142 15.5521 12.5522 15.5631 12.5522 15.5631C12.6092 15.5851 12.6382 15.5301 12.6382 15.5301C13.2042 14.7151 15.7552 10.9511 16.2752 8.6561C16.2752 8.6561 16.5572 7.5451 16.2852 6.7931ZM21.4302 12.2071C21.4302 12.2071 16.4132 14.8871 13.8202 16.6281C13.8202 16.6281 13.7732 16.6591 13.7892 16.7141C13.7892 16.7141 13.8142 16.7581 13.8492 16.7581C14.7782 16.7601 18.2942 16.7641 18.3822 16.7471C18.3822 16.7471 18.8372 16.7291 19.3982 16.5141C19.3982 16.5141 20.6492 16.1181 21.2982 14.7051C21.2982 14.7051 21.5952 14.1141 21.5992 13.2841V13.2491C21.5972 12.9291 21.5522 12.5741 21.4292 12.2061L21.4302 12.2071ZM19.2462 12.4261C19.2462 12.4261 20.1692 11.6881 20.2172 10.5041C20.3242 8.8591 18.6602 7.3371 18.6602 7.3371C18.6602 7.3371 15.5832 11.0441 13.3282 15.9401C13.3282 15.9401 13.3012 15.9961 13.3442 16.0331C13.3442 16.0331 13.3572 16.0431 13.3752 16.0461H13.4062C13.4122 16.0441 13.4182 16.0421 13.4242 16.0381C14.2702 15.6211 17.7882 13.8391 19.2452 12.4251L19.2462 12.4261Z"/>
</svg>
