<svg width="24" height="24" viewBox="0 0 24 24" xmlns="http://www.w3.org/2000/svg">
<path d="M4.8 8.79995C4.8 9.29695 4.397 9.69995 3.9 9.69995C3.403 9.69995 3 9.29695 3 8.79995C3 8.30295 3.403 7.89995 3.9 7.89995C4.397 7.89995 4.8 8.30295 4.8 8.79995ZM16.917 9.59995L15.917 14.4H20.8V16H15.584L14.584 20.8H12.95L13.95 16H8.384L7.384 20.8H5.75L6.75 16H3.201V14.4H7.084L8.084 9.59995H6.401V7.99995H8.417L9.417 3.19995H11.051L10.051 7.99995H15.617L16.617 3.19995H18.251L17.251 7.99995H20.8V9.59995H16.917ZM15.283 9.59995H9.717L8.717 14.4H14.283L15.283 9.59995Z"/>
</svg>
