<svg width="24" height="24" viewBox="0 0 24 24" xmlns="http://www.w3.org/2000/svg">
<path d="M13.6084 10.399L13.6017 4.80167L10.3978 4.7999L10.3969 10.3981L4.80173 10.3986L4.79952 13.6021L10.3969 13.603V17.5995L8.80483 17.6039L8.79864 15.1986H3.19952L3.19775 8.80256L8.80129 8.80211L8.80085 3.20079L15.1978 3.19946L15.1991 8.80211L20.7991 8.80167L20.8004 15.1977L15.1986 15.199L15.1991 20.7981L12.0031 20.8008L12.0008 19.2048L13.6026 19.1937V13.6026L19.1973 13.603L19.1978 10.3981L13.6084 10.399Z"/>
<path d="M9.59996 20.8998C10.0962 20.8998 10.4985 20.4975 10.4985 20.0012C10.4985 19.505 10.0962 19.1027 9.59996 19.1027C9.1037 19.1027 8.7014 19.505 8.7014 20.0012C8.7014 20.4975 9.1037 20.8998 9.59996 20.8998Z"/>
</svg>
