<svg width="24" height="24" viewBox="0 0 24 24" xmlns="http://www.w3.org/2000/svg">
<path d="M19.1291 7.56895C17.9511 6.53195 16.5551 5.75695 15.0811 5.29395L15.0971 5.06295C15.1631 4.22795 14.6441 3.54895 13.8341 3.41095L13.6701 3.38295C13.2291 3.30595 12.6241 3.19995 12.0001 3.19995C11.3761 3.19995 10.7711 3.30595 10.3301 3.38295L10.1661 3.41095C9.3561 3.54895 8.8371 4.22795 8.9021 5.05695L8.9181 5.27695C7.4491 5.73895 6.0491 6.52495 4.8601 7.58195C2.7581 9.45195 1.6001 11.873 1.6001 14.399V14.73L5.2691 18.399H6.4001V20.799H8.0001V18.399H16.0001V20.799H17.6001V18.399H18.7311L22.4001 14.73V14.399C22.4001 11.851 21.2381 9.42495 19.1291 7.56795V7.56895ZM18.0691 16.8H5.9311L3.2081 14.077C3.2621 12.975 3.5921 11.897 4.1701 10.901L6.2351 12.966L7.3661 11.835L5.1191 9.58795C5.3651 9.30795 5.6331 9.03695 5.9231 8.77895C6.8451 7.95895 7.9131 7.32895 9.0351 6.92495L9.5691 14.401H11.1731L10.5001 4.97795L10.6051 4.95995C11.0101 4.88895 11.5141 4.80095 12.0001 4.80095C12.4861 4.80095 12.9901 4.88895 13.3951 4.95995L13.5001 4.97795L12.8271 14.401H14.4001V14.829L14.9631 6.94195C16.0921 7.34595 17.1571 7.96595 18.0721 8.77095C18.3661 9.02995 18.6371 9.30195 18.8861 9.58395L16.6351 11.835L17.7661 12.966L19.8361 10.896C20.4111 11.89 20.7391 12.969 20.7931 14.077L18.0691 16.8Z"/>
</svg>
