<svg width="24" height="24" viewBox="0 0 24 24" xmlns="http://www.w3.org/2000/svg">
<path d="M11.9999 17.6999C12.497 17.6999 12.8999 17.297 12.8999 16.7999C12.8999 16.3028 12.497 15.8999 11.9999 15.8999C11.5028 15.8999 11.0999 16.3028 11.0999 16.7999C11.0999 17.297 11.5028 17.6999 11.9999 17.6999Z"/>
<path d="M11.9999 21.5999C6.7069 21.5999 2.3999 17.2929 2.3999 11.9999C2.3999 6.7069 6.7069 2.3999 11.9999 2.3999C17.2929 2.3999 21.5999 6.7069 21.5999 11.9999C21.5999 17.2929 17.2929 21.5999 11.9999 21.5999ZM11.9999 3.9999C7.5889 3.9999 3.9999 7.5889 3.9999 11.9999C3.9999 16.4109 7.5889 19.9999 11.9999 19.9999C16.4109 19.9999 19.9999 16.4109 19.9999 11.9999C19.9999 7.5889 16.4109 3.9999 11.9999 3.9999Z"/>
<path d="M12.7999 14.3999H11.1999V13.6669C11.1999 12.4809 11.9599 11.4169 13.0919 11.0189C13.8859 10.7389 14.3999 10.1819 14.3999 9.5999C14.3999 8.7329 13.3009 7.9999 11.9999 7.9999C11.1009 7.9999 10.2499 8.3489 9.8329 8.8889L8.5669 7.9109C9.2869 6.9789 10.6029 6.3999 11.9999 6.3999C14.2059 6.3999 15.9999 7.8359 15.9999 9.5999C15.9999 10.8709 15.0669 12.0199 13.6239 12.5279C13.1309 12.7009 12.7999 13.1589 12.7999 13.6669V14.3999Z"/>
</svg>
