<svg width="24" height="24" viewBox="0 0 24 24" xmlns="http://www.w3.org/2000/svg">
<path d="M3.39998 13.2C3.39998 13.697 2.99698 14.1 2.49998 14.1C2.00298 14.1 1.59998 13.697 1.59998 13.2C1.59998 12.703 2.00298 12.3 2.49998 12.3C2.99698 12.3 3.39998 12.703 3.39998 13.2ZM20.666 4.46596L4.46598 20.666L3.33498 19.535L8.37698 14.493C8.13598 13.979 7.99998 13.406 7.99998 12.801C7.99998 10.595 9.79398 8.80096 12 8.80096C12.605 8.80096 13.178 8.93696 13.692 9.17796L15.694 7.17596C14.563 6.67796 13.314 6.40096 12 6.40096C8.72698 6.40096 5.84798 8.11896 4.21698 10.701H2.37698C4.16598 7.20196 7.80798 4.80096 12 4.80096C13.761 4.80096 15.424 5.22496 16.893 5.97596L19.534 3.33496L20.666 4.46596ZM9.63898 13.23L12.43 10.439C12.291 10.414 12.147 10.4 12 10.4C10.677 10.4 9.59998 11.477 9.59998 12.8C9.59998 12.947 9.61398 13.09 9.63898 13.23ZM19.527 7.86496L18.397 8.99496C19.666 10.225 20.584 11.815 20.981 13.6H22.614C22.195 11.373 21.089 9.38496 19.527 7.86496ZM14.391 13C14.294 14.164 13.364 15.094 12.2 15.191L10.781 16.61C11.165 16.733 11.575 16.8 11.999 16.8C14.205 16.8 15.999 15.006 15.999 12.8C15.999 12.375 15.932 11.966 15.809 11.582L14.39 13.001L14.391 13Z"/>
</svg>
