<svg width="24" height="24" viewBox="0 0 24 24" xmlns="http://www.w3.org/2000/svg">
<path d="M11.9999 2.3999C6.7069 2.3999 2.3999 6.7069 2.3999 11.9999C2.3999 17.2929 6.7069 21.5999 11.9999 21.5999C17.2929 21.5999 21.5999 17.2929 21.5999 11.9999C21.5999 6.7069 17.2929 2.3999 11.9999 2.3999ZM19.9999 11.9999C19.9999 12.2699 19.9859 12.5369 19.9599 12.7999H12.7999V11.1999H19.9599C19.9859 11.4629 19.9999 11.7299 19.9999 11.9999ZM12.7999 14.3999H19.6319C19.4549 14.9629 19.2149 15.4979 18.9239 15.9999H12.7999V14.3999ZM12.7999 9.5999V7.9999H18.9239C19.2149 8.5019 19.4549 9.0369 19.6319 9.5999H12.7999ZM17.7059 6.3999H12.7999V4.0399C14.7129 4.2309 16.4289 5.0989 17.7059 6.3999ZM3.9999 11.9999C3.9999 7.8589 7.1629 4.4429 11.1999 4.0399V19.9599C7.1629 19.5569 3.9999 16.1409 3.9999 11.9999ZM12.7999 19.9599V17.5999H17.7059C16.4289 18.9009 14.7129 19.7689 12.7999 19.9599Z"/>
</svg>
