<svg width="24" height="24" viewBox="0 0 24 24" xmlns="http://www.w3.org/2000/svg">
<path d="M21.6 11.9999C21.6 17.2929 17.293 21.5999 12 21.5999C7.57105 21.5999 3.83405 18.5849 2.73105 14.4999H4.40205C5.45405 17.6899 8.46205 19.9999 12 19.9999C16.411 19.9999 20 16.4109 20 11.9999C20 7.5889 16.411 3.9999 12 3.9999C9.08705 3.9999 6.53505 5.5659 5.13705 7.8999H7.20005V9.4999H2.40005V4.6999H4.00005V6.7049C5.72005 4.1129 8.66305 2.3999 12 2.3999C17.293 2.3999 21.6 6.7069 21.6 11.9999ZM4.10005 11.9999C4.10005 11.5029 3.69705 11.0999 3.20005 11.0999C2.70305 11.0999 2.30005 11.5029 2.30005 11.9999C2.30005 12.4969 2.70305 12.8999 3.20005 12.8999C3.69705 12.8999 4.10005 12.4969 4.10005 11.9999ZM11.2 7.1999V13.1309L14.034 15.9649L15.165 14.8339L12.799 12.4679V7.1989H11.199L11.2 7.1999Z"/>
</svg>
