<svg width="24" height="24" viewBox="0 0 24 24" xmlns="http://www.w3.org/2000/svg">
<path d="M21.448 13.6809C21.547 13.1319 21.6 12.5699 21.6 11.9999C21.6 6.7069 17.293 2.3999 12 2.3999C6.70699 2.3999 2.39999 6.7069 2.39999 11.9999C2.39999 14.8019 3.60399 17.4019 5.64599 19.1999H3.99999V20.7999H8.79999V15.9999H7.19999V18.4019C5.19999 16.9049 3.99999 14.5529 3.99999 11.9999C3.99999 7.5889 7.58899 3.9999 12 3.9999C16.411 3.9999 20 7.5889 20 11.9999C20 12.0689 19.998 12.1369 19.996 12.2059C19.089 11.5729 17.987 11.1999 16.8 11.1999C13.712 11.1999 11.2 13.7119 11.2 16.7999C11.2 19.8879 13.712 22.3999 16.8 22.3999C19.888 22.3999 22.4 19.8879 22.4 16.7999C22.4 15.6459 22.049 14.5729 21.448 13.6809ZM16.8 20.7999C14.594 20.7999 12.8 19.0059 12.8 16.7999C12.8 14.5939 14.594 12.7999 16.8 12.7999C19.006 12.7999 20.8 14.5939 20.8 16.7999C20.8 19.0059 19.006 20.7999 16.8 20.7999ZM16.366 14.2339L18.932 16.7999L16.366 19.3659L15.235 18.2349L16.669 16.8009L15.235 15.3669L16.366 14.2359V14.2339Z"/>
</svg>
