<svg width="24" height="24" viewBox="0 0 24 24" xmlns="http://www.w3.org/2000/svg">
<path d="M21.5999 17.6541L17.6539 19.1341C16.3469 19.6241 14.9869 19.9071 13.5999 19.9801V22.4001H11.9999V20.0001H7.9999V22.4001H6.3999V20.0001C5.0769 20.0001 3.9999 18.9231 3.9999 17.6001C3.9999 17.1721 4.1129 16.7711 4.3099 16.4221C3.6429 15.9951 3.1999 15.2481 3.1999 14.4001C3.1999 13.9721 3.3129 13.5701 3.5099 13.2221C2.8429 12.7951 2.3999 12.0491 2.3999 11.2001C2.3999 10.3511 2.8429 9.6051 3.5099 9.1781C3.3079 8.8221 3.1999 8.4191 3.1999 8.0001C3.1999 6.6771 4.2769 5.6001 5.5999 5.6001H6.3999V1.6001H7.9999V5.6001H11.9999V1.6001H13.5999V3.3851L17.6249 4.4581C18.6789 4.7391 19.6209 5.3171 20.3499 6.1291L21.5999 7.5221V9.9181L19.1589 7.1981C18.6389 6.6181 17.9659 6.2051 17.2129 6.0051L13.5999 5.0421V7.2011H5.5999C5.1589 7.2011 4.7999 7.5601 4.7999 8.0011C4.7999 8.2131 4.8839 8.4131 5.0359 8.5651C5.1879 8.7171 5.3879 8.8011 5.5999 8.8011H8.7999V10.4011H4.7999C4.3589 10.4011 3.9999 10.7601 3.9999 11.2011C3.9999 11.6421 4.3589 12.0011 4.7999 12.0011H8.7999V13.6011H5.5999C5.1589 13.6011 4.7999 13.9601 4.7999 14.4011C4.7999 14.8421 5.1589 15.2011 5.5999 15.2011H9.5999V16.8011H6.3999C5.9589 16.8011 5.5999 17.1601 5.5999 17.6011C5.5999 18.0421 5.9589 18.4011 6.3999 18.4011H12.8789C14.3229 18.4011 15.7399 18.1441 17.0919 17.6371L21.5999 15.9471V17.6561V17.6541Z"/>
</svg>
