<svg width="24" height="24" viewBox="0 0 24 24" xmlns="http://www.w3.org/2000/svg">
<path d="M3.4001 18.3999C3.4001 18.8969 2.9971 19.2999 2.5001 19.2999C2.0031 19.2999 1.6001 18.8969 1.6001 18.3999C1.6001 17.9029 2.0031 17.4999 2.5001 17.4999C2.9971 17.4999 3.4001 17.9029 3.4001 18.3999ZM22.3661 13.9659L17.6001 18.7319C17.2981 19.0339 16.8961 19.2009 16.4691 19.2009H15.8001L16.4671 20.8009H14.7341L14.0671 19.2009H8.5071L7.8361 20.8009H6.1011L6.7721 19.2009H5.0011V17.6009H13.4011L11.1881 12.2899L4.5691 15.0479L4.2621 14.3069C3.8211 13.2419 3.5991 12.1969 3.6011 11.1989C3.6091 7.90893 5.5301 4.98993 8.4951 3.76193C8.5191 3.75193 8.5441 3.74193 8.5701 3.73293C9.4501 3.38093 10.4351 3.20093 11.5011 3.20093C14.7631 3.20093 17.6841 5.16093 18.9401 8.19493L19.2461 8.93293L12.6651 11.6749L15.1341 17.6019H16.4691L21.2351 12.8359L22.3661 13.9659ZM9.8361 11.1179L12.7541 9.90193C12.1161 8.50593 11.3671 7.27493 10.6091 6.38493C9.7021 5.32093 9.1731 5.21593 9.1061 5.23893C9.0301 5.28593 8.7441 5.78593 8.8781 7.21593C8.9851 8.36393 9.3221 9.72593 9.8361 11.1189V11.1179ZM11.5001 4.79993C11.4411 4.79993 11.3831 4.80193 11.3241 4.80393C11.4761 4.95493 11.6331 5.12293 11.7951 5.31093C12.6661 6.32393 13.5181 7.71693 14.2321 9.28693L17.1111 8.08693C15.9711 6.06693 13.8461 4.79993 11.5001 4.79993ZM5.4691 12.9379L8.3581 11.7339C7.7611 10.1319 7.3801 8.55593 7.2731 7.22593C7.2511 6.94793 7.2421 6.69193 7.2441 6.45493C5.9791 7.65493 5.2051 9.37693 5.2011 11.2009C5.2001 11.7559 5.2901 12.3369 5.4701 12.9369L5.4691 12.9379Z"/>
</svg>
