<svg width="24" height="24" viewBox="0 0 24 24" xmlns="http://www.w3.org/2000/svg">
<path d="M20.8 21.0898H11.2V14.6898H12.8V19.4898H19.2V10.2738L12 4.5138L4.79995 10.2738V19.4898H6.39995V21.0898H3.19995V10.0818C3.19995 9.7148 3.36395 9.3738 3.64995 9.1448L11.25 3.0648C11.691 2.7118 12.308 2.7118 12.749 3.0648L20.349 9.1448C20.635 9.3738 20.799 9.7158 20.799 10.0818L20.8 21.0898Z"/>
<path d="M8.7999 21.1898C9.29696 21.1898 9.6999 20.7868 9.6999 20.2898C9.6999 19.7927 9.29696 19.3898 8.7999 19.3898C8.30285 19.3898 7.8999 19.7927 7.8999 20.2898C7.8999 20.7868 8.30285 21.1898 8.7999 21.1898Z"/>
</svg>
