<svg width="24" height="24" viewBox="0 0 24 24" xmlns="http://www.w3.org/2000/svg">
<path d="M16.8 11.2V8.80003H4V17.6C4 20.247 6.153 22.4 8.8 22.4H12C14.374 22.4 16.35 20.667 16.732 18.4H18C19.103 18.4 20 17.503 20 16.4V11.2H16.8ZM12 20.8H8.8C7.036 20.8 5.6 19.365 5.6 17.6V10.4H15.2V17.6C15.2 19.365 13.764 20.8 12 20.8ZM18.4 16.4C18.4 16.621 18.221 16.8 18 16.8H16.8V12.8H18.4V16.4ZM7.834 5.43403C7.963 5.30503 7.963 5.09503 7.834 4.96503C7.081 4.21203 7.081 2.98703 7.834 2.23403L8.434 1.63403L9.565 2.76503L8.965 3.36503C8.836 3.49403 8.836 3.70403 8.965 3.83403C9.718 4.58703 9.718 5.81203 8.965 6.56503L8.365 7.16503L7.234 6.03403L7.834 5.43403ZM11.834 5.43403C11.963 5.30503 11.963 5.09503 11.834 4.96503C11.081 4.21203 11.081 2.98703 11.834 2.23403L12.434 1.63403L13.565 2.76503L12.965 3.36503C12.836 3.49403 12.836 3.70403 12.965 3.83403C13.718 4.58703 13.718 5.81203 12.965 6.56503L12.365 7.16503L11.234 6.03403L11.834 5.43403Z"/>
</svg>
