<svg width="24" height="24" viewBox="0 0 24 24" xmlns="http://www.w3.org/2000/svg">
<path d="M11.2 11.6001H12.8V16.0001H18.4V1.6001H12.8V6.0001H11.2V1.6001H5.60002V16.0001H11.2V11.6001ZM9.60002 14.4001H7.20002V3.2001H9.60002V7.6001H14.4V3.2001H16.8V14.4001H14.4V10.0001H9.60002V14.4001ZM7.45302 19.9591L6.07002 20.4201L6.85502 21.5411L5.54402 22.4591L4.79902 21.3951L4.05402 22.4591L2.74302 21.5411L3.52802 20.4201L2.14502 19.9591L2.65102 18.4411L3.99802 18.8901V17.6001H5.59802V18.8901L6.94502 18.4411L7.45102 19.9591H7.45302ZM14.653 19.9591L13.27 20.4201L14.055 21.5411L12.744 22.4591L11.999 21.3951L11.254 22.4591L9.94302 21.5411L10.728 20.4201L9.34502 19.9591L9.85102 18.4411L11.198 18.8901V17.6001H12.798V18.8901L14.145 18.4411L14.651 19.9591H14.653ZM20.47 20.4201L21.255 21.5411L19.944 22.4591L19.199 21.3951L18.454 22.4591L17.143 21.5411L17.928 20.4201L16.545 19.9591L17.051 18.4411L18.398 18.8901V17.6001H19.998V18.8901L21.345 18.4411L21.851 19.9591L20.468 20.4201H20.47Z"/>
</svg>
