<svg width="24" height="24" viewBox="0 0 24 24" xmlns="http://www.w3.org/2000/svg">
<path d="M12.331 1.6001H4V22.4001H7V20.8001H5.6V3.2001H11.2V10.4001H18.4V20.8001H12V22.4001H20V9.2691L12.331 1.6001ZM12.8 4.3311L17.269 8.8001H12.8V4.3311ZM10.4 21.6001C10.4 22.0971 9.997 22.5001 9.5 22.5001C9.003 22.5001 8.6 22.0971 8.6 21.6001C8.6 21.1031 9.003 20.7001 9.5 20.7001C9.997 20.7001 10.4 21.1031 10.4 21.6001ZM9.232 15.8921H8.135V17.3001H7.209V13.8031H8.135V15.0821H9.232V13.8031H10.158V17.3001H9.232V15.8921ZM13.513 14.9591C13.513 13.8031 12.425 13.8031 12.067 13.8031H10.768V17.3001H11.69V16.1281H12.058C13.023 16.1281 13.512 15.7351 13.512 14.9591H13.513ZM11.691 14.5951H12.086C12.542 14.5951 12.605 14.7781 12.605 14.9761C12.605 15.1741 12.542 15.3661 12.086 15.3661H11.691V14.5951ZM16.889 15.5341C16.889 14.4021 16.244 13.8031 15.025 13.8031H13.914V17.3001H15.025C16.245 17.3001 16.889 16.6891 16.889 15.5341ZM15.074 16.5121H14.835V14.6091H15.065C15.711 14.6091 15.963 14.8711 15.963 15.5431C15.963 16.2501 15.722 16.5121 15.074 16.5121Z"/>
</svg>
