<svg width="24" height="24" viewBox="0 0 24 24" xmlns="http://www.w3.org/2000/svg">
<path fill-rule="evenodd" clip-rule="evenodd" d="M15.8482 3.19995H8.15219C4.5262 3.19995 3.2002 4.52595 3.2002 8.15195V15.848C3.2002 19.474 4.5262 20.8 8.15219 20.8H15.8462C19.4722 20.8 20.8002 19.474 20.8002 15.848V8.15195C20.8002 4.52595 19.4742 3.19995 15.8482 3.19995ZM7.15219 14.302H6.6862V13.368H5.6322V14.302H5.1652V12H5.6322V12.928H6.6862V12H7.15219V14.302ZM9.7822 13.299C9.7822 13.959 9.4202 14.339 8.7862 14.339C8.1522 14.339 7.8002 13.968 7.8002 13.321V12H8.2672V13.3C8.2672 13.685 8.4532 13.89 8.7932 13.89C9.1332 13.89 9.3162 13.69 9.3162 13.316V12H9.7822V13.299ZM9.0702 6.14195H9.4842C9.4842 7.53195 10.6102 8.65795 12.0002 8.65795C13.3902 8.65795 14.5162 7.53195 14.5162 6.14195H14.9302C14.9302 7.75995 13.6182 9.07195 12.0002 9.07195C10.3822 9.07195 9.0702 7.75995 9.0702 6.14195ZM11.9652 14.302L11.7582 13.822H10.7052L10.4952 14.302H10.0152L11.0322 12H11.4442L12.4542 14.299L11.9652 14.302ZM14.9052 14.302H14.5152L13.9932 12.792L13.4692 14.302H13.0832L12.2812 12H12.7782L13.2862 13.582L13.8082 12H14.1902L14.7122 13.582L15.2222 12H15.7062L14.9052 14.302ZM16.0802 14.302V12H17.7742V12.419H16.5422V12.89H17.3912V13.308H16.5422V13.878H17.8222L17.8192 14.302H16.0802ZM18.8362 14.302H18.3752V12H18.8362V14.302ZM11.2302 12.584L11.5842 13.407H10.8782L11.2302 12.584Z"/>
</svg>
