<svg width="24" height="24" viewBox="0 0 24 24" xmlns="http://www.w3.org/2000/svg">
<path d="M17.5999 4.8001C17.5999 3.0351 16.1649 1.6001 14.3999 1.6001H9.5999C7.8349 1.6001 6.3999 3.0351 6.3999 4.8001V16.8001H9.5999V20.0001C9.5999 21.3231 10.6769 22.4001 11.9999 22.4001C13.3229 22.4001 14.3999 21.3231 14.3999 20.0001V16.8001H17.5999V4.8001ZM12.7999 20.0001C12.7999 20.4411 12.4409 20.8001 11.9999 20.8001C11.5589 20.8001 11.1999 20.4411 11.1999 20.0001V16.8001H12.7999V20.0001ZM15.9999 15.2001H7.9999V4.8001C7.9999 3.9181 8.7179 3.2001 9.5999 3.2001H14.3999C15.2819 3.2001 15.9999 3.9181 15.9999 4.8001V15.2001Z"/>
<path d="M11.1999 4.8001H9.5999V13.6001H11.1999V4.8001Z"/>
<path d="M14.3999 4.8001H12.7999V10.4001H14.3999V4.8001Z"/>
<path d="M13.5999 13.7001C14.097 13.7001 14.4999 13.2972 14.4999 12.8001C14.4999 12.303 14.097 11.9001 13.5999 11.9001C13.1028 11.9001 12.6999 12.303 12.6999 12.8001C12.6999 13.2972 13.1028 13.7001 13.5999 13.7001Z"/>
</svg>
