<svg width="24" height="24" viewBox="0 0 24 24" xmlns="http://www.w3.org/2000/svg">
<path d="M20.4001 4H3.6001C2.4971 4 1.6001 4.897 1.6001 6V18C1.6001 19.103 2.4971 20 3.6001 20H20.4001C21.5031 20 22.4001 19.103 22.4001 18V6C22.4001 4.897 21.5031 4 20.4001 4ZM20.8001 18C20.8001 18.221 20.6211 18.4 20.4001 18.4H3.6001C3.3791 18.4 3.2001 18.221 3.2001 18V6C3.2001 5.779 3.3791 5.6 3.6001 5.6H20.4001C20.6211 5.6 20.8001 5.779 20.8001 6V18ZM14.4001 8H19.2001V9.6H14.4001V8ZM16.0001 11.2H19.2001V12.8H16.0001V11.2ZM10.7941 11.734C11.0501 11.352 11.2001 10.893 11.2001 10.4C11.2001 9.077 10.1231 8 8.8001 8C7.4771 8 6.4001 9.077 6.4001 10.4C6.4001 10.894 6.5501 11.353 6.8061 11.734C5.6081 12.426 4.8001 13.72 4.8001 15.2V16.8H12.8001V15.2C12.8001 13.72 11.9921 12.426 10.7941 11.734ZM8.0001 10.4C8.0001 9.959 8.3591 9.6 8.8001 9.6C9.2411 9.6 9.6001 9.959 9.6001 10.4C9.6001 10.841 9.2411 11.2 8.8001 11.2C8.3591 11.2 8.0001 10.841 8.0001 10.4ZM6.4001 15.2C6.4001 13.877 7.4771 12.8 8.8001 12.8C10.1231 12.8 11.2001 13.877 11.2001 15.2H6.4001Z"/>
</svg>
