<svg width="24" height="24" viewBox="0 0 24 24" xmlns="http://www.w3.org/2000/svg">
<path d="M8.8001 19.1001C9.29715 19.1001 9.7001 18.6972 9.7001 18.2001C9.7001 17.703 9.29715 17.3001 8.8001 17.3001C8.30304 17.3001 7.9001 17.703 7.9001 18.2001C7.9001 18.6972 8.30304 19.1001 8.8001 19.1001Z"/>
<path d="M16.8001 11.2001C16.5281 11.2001 16.2611 11.2211 16.0001 11.2581V3.6001C16.0001 2.4971 15.1031 1.6001 14.0001 1.6001H3.6001C2.4971 1.6001 1.6001 2.4971 1.6001 3.6001V20.4001C1.6001 21.5031 2.4971 22.4001 3.6001 22.4001H14.0001C14.3771 22.4001 14.7291 22.2941 15.0301 22.1121C15.5871 22.2981 16.1821 22.4001 16.8001 22.4001C19.8881 22.4001 22.4001 19.8881 22.4001 16.8001C22.4001 13.7121 19.8881 11.2001 16.8001 11.2001ZM3.6001 20.8001C3.3791 20.8001 3.2001 20.6211 3.2001 20.4001V3.6001C3.2001 3.3791 3.3791 3.2001 3.6001 3.2001H14.0001C14.2211 3.2001 14.4001 3.3791 14.4001 3.6001V11.7411C12.5101 12.6411 11.2001 14.5701 11.2001 16.8001C11.2001 18.3661 11.8471 19.7831 12.8861 20.8001H3.6001ZM16.8001 20.8001C14.5941 20.8001 12.8001 19.0061 12.8001 16.8001C12.8001 14.5941 14.5941 12.8001 16.8001 12.8001C19.0061 12.8001 20.8001 14.5941 20.8001 16.8001C20.8001 19.0061 19.0061 20.8001 16.8001 20.8001Z"/>
<path d="M16.4001 16.9691L15.3661 15.9341L14.2341 17.0661L16.4001 19.2311L19.3661 16.2661L18.2341 15.1341L16.4001 16.9691Z"/>
</svg>
