<svg width="24" height="24" viewBox="0 0 24 24" xmlns="http://www.w3.org/2000/svg">
<path d="M20.4001 17.6001V6.9001H18.8001V17.6001H16.8001V18.8001H7.2001V17.6001H5.2001V7.2001H7.2001V5.2001H17.1001V3.6001H7.2001V1.6001H1.6001V7.2001H3.6001V17.6001H1.6001V23.2001H7.2001V20.4001H16.8001V23.2001H22.4001V17.6001H20.4001ZM3.2001 3.2001H5.6001V5.6001H3.2001V3.2001ZM5.6001 21.6001H3.2001V19.2001H5.6001V21.6001ZM20.8001 21.6001H18.4001V19.2001H20.8001V21.6001ZM11.1461 7.2001L7.8461 16.0001H9.5551L10.3051 14.0001H13.6961L14.4461 16.0001H16.1551L12.8551 7.2001H11.1461ZM13.0961 12.4001H10.9051L12.0011 9.4781L13.0961 12.4001ZM18.7001 4.4001C18.7001 3.9031 19.1031 3.5001 19.6001 3.5001C20.0971 3.5001 20.5001 3.9031 20.5001 4.4001C20.5001 4.8971 20.0971 5.3001 19.6001 5.3001C19.1031 5.3001 18.7001 4.8971 18.7001 4.4001Z"/>
</svg>
