<svg width="24" height="24" viewBox="0 0 24 24" xmlns="http://www.w3.org/2000/svg">
<path d="M9.5 8.90003C9.5 8.40303 9.903 8.00003 10.4 8.00003C10.897 8.00003 11.3 8.40303 11.3 8.90003C11.3 9.39703 10.897 9.80003 10.4 9.80003C9.903 9.80003 9.5 9.39703 9.5 8.90003ZM21.314 3.81403L3.764 21.364L2.634 20.234L3.668 19.2H3.599C2.496 19.2 1.599 18.303 1.599 17.2V6.80003C1.599 5.69703 2.496 4.80003 3.599 4.80003H18.068L20.234 2.63403L21.365 3.76503L21.315 3.81503L21.314 3.81403ZM8.469 14.4L7.3 13.231L3.218 17.313C3.267 17.478 3.419 17.6 3.6 17.6H5.269L8.469 14.4ZM16.469 6.40003H3.6C3.379 6.40003 3.2 6.57903 3.2 6.80003V15.069L7.3 10.969L9.6 13.269L16.469 6.40003ZM21.905 5.48703L20.761 6.63103C20.785 6.68303 20.8 6.74003 20.8 6.80103V13.27L17.461 9.93103L16.33 11.062L20.8 15.532V17.201C20.8 17.422 20.621 17.601 20.4 17.601H9.791L8.191 19.201H20.4C21.503 19.201 22.4 18.304 22.4 17.201V6.80103C22.4 6.29803 22.212 5.83903 21.905 5.48803V5.48703Z"/>
</svg>
