<svg width="24" height="24" viewBox="0 0 24 24" xmlns="http://www.w3.org/2000/svg">
<path d="M9.5001 8.90005C9.5001 8.40305 9.9031 8.00005 10.4001 8.00005C10.8971 8.00005 11.3001 8.40305 11.3001 8.90005C11.3001 9.39705 10.8971 9.80005 10.4001 9.80005C9.9031 9.80005 9.5001 9.39705 9.5001 8.90005ZM22.4001 6.80005V17.2C22.4001 18.303 21.5031 19.2 20.4001 19.2H3.6001C2.4971 19.2 1.6001 18.303 1.6001 17.2V6.80005C1.6001 5.69705 2.4971 4.80005 3.6001 4.80005H20.4001C21.5031 4.80005 22.4001 5.69705 22.4001 6.80005ZM3.2001 6.80005V15.069L7.3001 10.969L10.7001 14.369L16.3001 8.76905L20.8001 13.269V6.80005C20.8001 6.57905 20.6211 6.40005 20.4001 6.40005H3.6001C3.3791 6.40005 3.2001 6.57905 3.2001 6.80005ZM3.6001 17.6H7.4691L9.5691 15.5L7.3001 13.231L3.2181 17.313C3.2671 17.478 3.4191 17.6 3.6001 17.6ZM20.8001 17.2V15.531L16.3001 11.031L9.7311 17.6H20.4001C20.6211 17.6 20.8001 17.421 20.8001 17.2Z"/>
</svg>
