<svg width="24" height="24" viewBox="0 0 24 24" xmlns="http://www.w3.org/2000/svg">
<path d="M11.9999 11.9751L16.8339 7.19606C17.4389 6.59706 17.7999 5.73006 17.7999 4.87706C17.7999 4.02406 17.4569 3.17506 16.8339 2.55806C15.5469 1.28306 13.4529 1.28306 12.1659 2.55806C12.1079 2.61506 12.0529 2.67406 11.9999 2.73406C11.9469 2.67406 11.8919 2.61506 11.8339 2.55806C10.5469 1.28306 8.45294 1.28306 7.16594 2.55806C6.54294 3.17506 6.19994 3.99906 6.19994 4.87706C6.19994 5.75506 6.56094 6.59706 7.16694 7.19706L11.9999 11.9761V11.9751ZM8.29194 3.69406C8.62494 3.36406 9.06194 3.19906 9.49994 3.19906C9.93794 3.19906 10.3749 3.36406 10.7079 3.69406C10.9799 3.96406 11.1589 4.28406 11.2109 4.59706H12.7889C12.8409 4.28406 13.0199 3.96406 13.2919 3.69406C13.9579 3.03406 15.0419 3.03406 15.7069 3.69406C16.0239 4.00906 16.1989 4.42906 16.1989 4.87706C16.1989 5.32506 16.0099 5.75906 15.7069 6.05906L11.9989 9.72606L8.29094 6.06006C7.98694 5.75906 7.79894 5.30606 7.79894 4.87706C7.79894 4.44806 7.97494 4.00906 8.29194 3.69406ZM20.9659 16.9661L16.9379 20.9941C16.0309 21.9011 14.8259 22.4001 13.5439 22.4001H5.59994V20.8001H13.5429C14.3979 20.8001 15.2009 20.4671 15.8059 19.8631L19.8339 15.8351C20.0029 15.6661 20.0969 15.4401 20.0969 15.2011C20.0969 14.9621 20.0039 14.7361 19.8339 14.5671C19.6639 14.3981 19.4389 14.3041 19.1999 14.3041C18.9609 14.3041 18.7349 14.3971 18.5659 14.5671L16.4689 16.6641C15.8649 17.2681 15.0609 17.6011 14.2059 17.6011H13.4629C13.1329 18.5321 12.2439 19.2011 11.2009 19.2011H8.00094V17.6011H11.2009C11.6419 17.6011 12.0009 17.2421 12.0009 16.8011C12.0009 16.3601 11.6419 16.0011 11.2009 16.0011H5.79494C5.36794 16.0011 4.96594 16.1671 4.66394 16.4701L2.96694 18.1671L1.83594 17.0361L3.53294 15.3391C4.13694 14.7351 4.94094 14.4021 5.79594 14.4021H11.2019C12.2449 14.4021 13.1339 15.0711 13.4639 16.0021H14.2069C14.6339 16.0021 15.0359 15.8361 15.3379 15.5331L17.4349 13.4361C17.9069 12.9641 18.5339 12.7051 19.2009 12.7051C19.8679 12.7051 20.4949 12.9651 20.9669 13.4361C21.9409 14.4101 21.9409 15.9941 20.9669 16.9671L20.9659 16.9661Z"/>
</svg>
