<svg width="24" height="24" viewBox="0 0 24 24" xmlns="http://www.w3.org/2000/svg">
<path d="M16.5608 21.6711C16.4868 21.6711 16.4128 21.6641 16.3388 21.6511C13.7888 21.1771 10.5898 19.1231 7.33376 15.8661C4.16576 12.6981 2.05976 9.42006 1.55376 6.87306C1.47476 6.47706 1.59776 6.07106 1.88176 5.78706L5.49976 2.16906L10.8308 7.50006L8.83576 9.49506C9.17876 10.2521 9.85876 11.3281 10.8648 12.3341C11.8598 13.3291 12.9418 14.0121 13.7058 14.3611L15.6988 12.3681L21.0298 17.6991L17.4098 21.3191C17.1828 21.5461 16.8758 21.6701 16.5598 21.6701L16.5608 21.6711ZM3.16776 6.76406C3.68376 8.95806 5.64776 11.9161 8.46576 14.7351C11.3628 17.6321 14.2508 19.5521 16.4318 20.0371L18.7688 17.7001L15.6998 14.6311L14.6468 15.6841C14.3078 16.0231 13.8018 16.1291 13.3588 15.9521C12.1748 15.4801 10.8198 14.5511 9.73476 13.4651C8.63676 12.3671 7.70576 11.0101 7.24476 9.83606C7.07176 9.39406 7.17776 8.89106 7.51476 8.55306L8.56876 7.49906L5.49976 4.43006L3.16776 6.76206V6.76406ZM20.7998 4.00006H15.1308L16.5648 2.56606L15.4338 1.43506L12.0678 4.80106L15.4338 8.16706L16.5648 7.03606L15.1308 5.60206H20.7998V4.00006Z"/>
</svg>
