<svg width="24" height="24" viewBox="0 0 24 24" xmlns="http://www.w3.org/2000/svg">
<path d="M11.9999 8.0999C12.497 8.0999 12.8999 7.69696 12.8999 7.1999C12.8999 6.70285 12.497 6.2999 11.9999 6.2999C11.5028 6.2999 11.0999 6.70285 11.0999 7.1999C11.0999 7.69696 11.5028 8.0999 11.9999 8.0999Z"/>
<path d="M11.9999 21.5999C6.7069 21.5999 2.3999 17.2929 2.3999 11.9999C2.3999 6.7069 6.7069 2.3999 11.9999 2.3999C17.2929 2.3999 21.5999 6.7069 21.5999 11.9999C21.5999 17.2929 17.2929 21.5999 11.9999 21.5999ZM11.9999 3.9999C7.5889 3.9999 3.9999 7.5889 3.9999 11.9999C3.9999 16.4109 7.5889 19.9999 11.9999 19.9999C16.4109 19.9999 19.9999 16.4109 19.9999 11.9999C19.9999 7.5889 16.4109 3.9999 11.9999 3.9999Z"/>
<path d="M12.7999 9.5999H11.1999V17.5999H12.7999V9.5999Z"/>
</svg>
