<svg width="24" height="24" viewBox="0 0 24 24" xmlns="http://www.w3.org/2000/svg">
<path d="M16.6861 6.23795C16.1031 6.23895 15.6311 6.71295 15.6321 7.29595C15.6331 7.87895 16.1071 8.35095 16.6901 8.34995C17.2731 8.34895 17.7451 7.87495 17.7441 7.29195C17.7431 6.70895 17.2691 6.23695 16.6861 6.23795Z"/>
<path d="M20.7991 11.983C20.7941 9.59295 20.7841 9.29395 20.7391 8.35595C20.6951 7.41895 20.5451 6.77995 20.3261 6.22095C20.1001 5.64195 19.7981 5.15295 19.3081 4.66395C18.8181 4.17595 18.3271 3.87595 17.7471 3.65195C17.1871 3.43495 16.5471 3.28795 15.6111 3.24695C14.6721 3.20495 14.3731 3.19595 11.9831 3.20095C9.59408 3.20595 9.29408 3.21595 8.35508 3.26095C7.41908 3.30495 6.77908 3.45495 6.22008 3.67395C5.64108 3.89995 5.15108 4.20195 4.66308 4.69195C4.17508 5.18195 3.87508 5.67295 3.65108 6.25195C3.43408 6.81195 3.28708 7.45195 3.24608 8.38895C3.20508 9.32795 3.19608 9.62695 3.20008 12.017C3.20508 14.406 3.21508 14.706 3.26008 15.645C3.30508 16.581 3.45408 17.22 3.67308 17.779C3.89908 18.358 4.20108 18.848 4.69108 19.336C5.18108 19.824 5.67208 20.124 6.25208 20.348C6.81208 20.564 7.45208 20.712 8.38808 20.753C9.32708 20.794 9.62608 20.803 12.0151 20.799C14.4051 20.794 14.7051 20.784 15.6431 20.739C16.5791 20.694 17.2181 20.544 17.7781 20.326C18.3571 20.1 18.8471 19.798 19.3351 19.308C19.8231 18.818 20.1231 18.327 20.3471 17.747C20.5641 17.187 20.7111 16.547 20.7521 15.611C20.7931 14.672 20.8031 14.372 20.7981 11.982L20.7991 11.983ZM19.1691 15.542C19.1321 16.4 18.9891 16.866 18.8701 17.177C18.7111 17.588 18.5211 17.881 18.2131 18.19C17.9061 18.498 17.6131 18.69 17.2021 18.85C16.8921 18.971 16.4271 19.115 15.5691 19.156C14.6411 19.2 14.3631 19.21 12.0131 19.214C9.66408 19.219 9.38608 19.21 8.45808 19.17C7.60008 19.133 7.13408 18.99 6.82408 18.871C6.41308 18.712 6.11908 18.521 5.81108 18.215C5.50308 17.907 5.31108 17.615 5.15108 17.205C5.03008 16.895 4.88508 16.429 4.84508 15.571C4.80108 14.644 4.79108 14.365 4.78708 12.015C4.78208 9.66595 4.79108 9.38795 4.83108 8.45895C4.86808 7.60195 5.01108 7.13495 5.13008 6.82495C5.28908 6.41295 5.47908 6.11995 5.78608 5.81195C6.09408 5.50295 6.38608 5.31195 6.79708 5.15195C7.10708 5.03095 7.57308 4.88695 8.43008 4.84595C9.35808 4.80195 9.63608 4.79295 11.9851 4.78795C14.3351 4.78295 14.6131 4.79195 15.5411 4.83195C16.3981 4.86895 16.8651 5.01095 17.1751 5.13095C17.5861 5.28995 17.8801 5.47995 18.1881 5.78695C18.4961 6.09395 18.6881 6.38695 18.8481 6.79795C18.9691 7.10695 19.1131 7.57295 19.1541 8.43095C19.1981 9.35895 19.2081 9.63695 19.2121 11.987C19.2171 14.337 19.2081 14.615 19.1671 15.543L19.1691 15.542Z"/>
<path d="M11.9911 7.48095C9.49608 7.48595 7.47708 9.51295 7.48208 12.008C7.48708 14.504 9.51408 16.522 12.0091 16.518C14.5041 16.513 16.5241 14.487 16.5191 11.991C16.5141 9.49595 14.4871 7.47595 11.9911 7.48095ZM12.0051 14.933C10.3861 14.936 9.06908 13.625 9.06608 12.005C9.06308 10.385 10.3741 9.06895 11.9941 9.06695C13.6141 9.06395 14.9301 10.374 14.9331 11.994C14.9361 13.614 13.6251 14.93 12.0051 14.933Z"/>
</svg>
