<svg width="24" height="24" viewBox="0 0 24 24" xmlns="http://www.w3.org/2000/svg">
<path d="M11.9941 9.1241C10.4061 9.1271 9.1211 10.4171 9.1241 12.0051C9.1271 13.5931 10.4171 14.8781 12.0051 14.8751C13.5931 14.8721 14.8781 13.5821 14.8751 11.9941C14.8721 10.4061 13.5821 9.1211 11.9941 9.1241ZM12.0031 13.8661C10.9721 13.8681 10.1351 13.0341 10.1331 12.0031C10.1311 10.9721 10.9651 10.1351 11.9961 10.1331C13.0271 10.1311 13.8641 10.9651 13.8661 11.9961C13.8681 13.0271 13.0341 13.8641 12.0031 13.8661ZM15.6551 9.0041C15.6551 9.3751 15.3551 9.6761 14.9841 9.6771C14.6131 9.6771 14.3121 9.3771 14.3111 9.0071C14.3111 8.6361 14.6111 8.3351 14.9821 8.3341C15.3531 8.3341 15.6551 8.6341 15.6551 9.0051V9.0041ZM17.5991 11.9891C17.5961 10.4681 17.5891 10.2781 17.5611 9.6811C17.5331 9.0851 17.4371 8.6781 17.2981 8.3221C17.1541 7.9541 16.9621 7.6421 16.6501 7.3311C16.3381 7.0211 16.0251 6.8291 15.6571 6.6871C15.3011 6.5491 14.8941 6.4551 14.2971 6.4291C13.7001 6.4031 13.5091 6.3971 11.9881 6.4001C10.4681 6.4031 10.2771 6.4091 9.6801 6.4381C9.0841 6.4661 8.6771 6.5621 8.3221 6.7011C7.9541 6.8451 7.6421 7.0371 7.3311 7.3491C7.0201 7.6611 6.8291 7.9741 6.6871 8.3421C6.5491 8.6991 6.4561 9.1061 6.4291 9.7021C6.4031 10.2991 6.3971 10.4901 6.4001 12.0101C6.4031 13.5301 6.4101 13.7211 6.4381 14.3191C6.4661 14.9151 6.5621 15.3211 6.7011 15.6771C6.8451 16.0451 7.0371 16.3571 7.3491 16.6681C7.6611 16.9791 7.9741 17.1691 8.3421 17.3121C8.6981 17.4501 9.1051 17.5441 9.7021 17.5701C10.2991 17.5961 10.4901 17.6021 12.0101 17.5991C13.5311 17.5961 13.7221 17.5891 14.3191 17.5611C14.9151 17.5331 15.3211 17.4371 15.6771 17.2981C16.0451 17.1541 16.3571 16.9621 16.6681 16.6501C16.9781 16.3381 17.1691 16.0251 17.3121 15.6571C17.4501 15.3011 17.5441 14.8931 17.5701 14.2981C17.5961 13.7001 17.6021 13.5091 17.5991 11.9891ZM16.5621 14.2541C16.5381 14.8001 16.4481 15.0971 16.3711 15.2941C16.2701 15.5551 16.1491 15.7421 15.9531 15.9391C15.7571 16.1351 15.5711 16.2571 15.3101 16.3591C15.1131 16.4361 14.8161 16.5281 14.2711 16.5541C13.6801 16.5821 13.5041 16.5881 12.0081 16.5911C10.5131 16.5941 10.3361 16.5881 9.7451 16.5631C9.1991 16.5391 8.9031 16.4491 8.7051 16.3721C8.4431 16.2711 8.2571 16.1491 8.0601 15.9541C7.8641 15.7581 7.7421 15.5721 7.6401 15.3111C7.5631 15.1131 7.4711 14.8171 7.4451 14.2711C7.4171 13.6811 7.4111 13.5041 7.4081 12.0081C7.4051 10.5131 7.4111 10.3361 7.4361 9.7451C7.4591 9.1991 7.5511 8.9031 7.6271 8.7051C7.7281 8.4431 7.8491 8.2571 8.0451 8.0601C8.2411 7.8631 8.4271 7.7421 8.6881 7.6401C8.8851 7.5631 9.1821 7.4711 9.7271 7.4451C10.3181 7.4171 10.4941 7.4111 11.9891 7.4081C13.4841 7.4051 13.6611 7.4101 14.2521 7.4361C14.7981 7.4601 15.0941 7.5501 15.2921 7.6271C15.5541 7.7281 15.7411 7.8491 15.9371 8.0451C16.1331 8.2411 16.2551 8.4271 16.3571 8.6881C16.4341 8.8851 16.5261 9.1811 16.5511 9.7271C16.5791 10.3181 16.5851 10.4951 16.5881 11.9901C16.5911 13.4851 16.5851 13.6621 16.5601 14.2531L16.5621 14.2541ZM12.0001 22.4001C6.2651 22.4001 1.6001 17.7351 1.6001 12.0001C1.6001 6.2651 6.2651 1.6001 12.0001 1.6001C17.7351 1.6001 22.4001 6.2651 22.4001 12.0001C22.4001 17.7351 17.7351 22.4001 12.0001 22.4001ZM12.0001 3.2001C7.1481 3.2001 3.2001 7.1481 3.2001 12.0001C3.2001 16.8521 7.1481 20.8001 12.0001 20.8001C16.8521 20.8001 20.8001 16.8521 20.8001 12.0001C20.8001 7.1481 16.8521 3.2001 12.0001 3.2001Z"/>
</svg>
