<svg width="24" height="24" viewBox="0 0 24 24" xmlns="http://www.w3.org/2000/svg">
<path d="M11.1 2.5001C11.1 2.0031 11.503 1.6001 12 1.6001C12.497 1.6001 12.9 2.0031 12.9 2.5001C12.9 2.9971 12.497 3.4001 12 3.4001C11.503 3.4001 11.1 2.9971 11.1 2.5001ZM20.8 15.2001H12.8V20.0001C12.8 21.3231 11.723 22.4001 10.4 22.4001C9.077 22.4001 8 21.3231 8 20.0001V18.4001H9.6V20.0001C9.6 20.4411 9.959 20.8001 10.4 20.8001C10.841 20.8001 11.2 20.4411 11.2 20.0001V15.2001H3.2V13.8001C3.2 8.9481 7.148 5.0001 12 5.0001C16.852 5.0001 20.8 8.9481 20.8 13.8001V15.2001ZM19.197 13.6001C19.091 9.7221 15.903 6.6001 12 6.6001C8.097 6.6001 4.909 9.7221 4.803 13.6001H19.197Z"/>
</svg>
