<svg width="24" height="24" viewBox="0 0 24 24" xmlns="http://www.w3.org/2000/svg">
<path d="M19.6865 16.7754L17.124 19.3379L15.9951 18.208L17.4268 16.7754L15.9951 15.3438L17.124 14.2139L19.6865 16.7754Z"/>
<path fill-rule="evenodd" clip-rule="evenodd" d="M12.1533 2.41406C17.5225 2.41408 21.8916 6.78318 21.8916 12.1533C21.8916 12.4946 21.8738 12.8318 21.8389 13.1641L21.9902 13.3496C22.7265 14.2961 23.166 15.4844 23.166 16.7744C23.166 19.8579 20.6577 22.3662 17.5742 22.3662C16.5158 22.3662 15.5264 22.0708 14.6816 21.5586C13.8748 21.7763 13.027 21.8926 12.1533 21.8926C6.78415 21.8926 2.41406 17.5235 2.41406 12.1533C2.41408 6.78316 6.78416 2.41406 12.1533 2.41406ZM17.5742 12.7812C15.3716 12.7813 13.5802 14.5728 13.5801 16.7754C13.5801 18.9781 15.3715 20.7694 17.5742 20.7695C19.777 20.7695 21.5684 18.9782 21.5684 16.7754C21.5682 14.5727 19.7769 12.7812 17.5742 12.7812ZM13.5996 5.69824C13.1742 6.61277 12.2687 7.18164 11.2393 7.18164H10.834C10.1042 7.18158 9.41566 6.9097 8.94141 6.43652L7.80762 5.30371C7.19661 5.6921 6.64052 6.15925 6.1543 6.69238L7.00781 8.57031C7.25246 9.12051 7.2832 9.63503 7.2832 10.0225V11.3418C7.28328 12.1445 7.64362 12.9733 8.27051 13.6152L8.66895 14.0137C9.16223 14.5199 9.5016 15.1574 9.60645 15.7715L9.6084 15.7852L10.2559 20.043H10.2578C10.8669 20.1898 11.5022 20.2695 12.1553 20.2695C12.4968 20.2695 12.8345 20.248 13.165 20.2061C12.4261 19.2584 11.9844 18.0675 11.9844 16.7754C11.9844 16.1384 12.0924 15.5271 12.2891 14.957L11.7842 14.4521C11.6574 14.3243 11.2412 13.8627 11.2412 13.2686V10.5293C11.2414 9.85847 11.7871 9.3125 12.459 9.3125H13.9805C14.1691 9.3125 14.2844 9.27102 14.3174 9.24805L15.5361 7.92676C15.9226 7.54132 16.1104 7.09748 16.1104 6.57324V5.07031C15.5214 4.73994 14.8875 4.4804 14.2197 4.30469L13.5996 5.69824ZM5.06152 8.21191C4.41048 9.3792 4.03711 10.7244 4.03711 12.1533C4.03711 15.3217 5.8615 18.0702 8.51562 19.4062L8.00293 16.0371C7.952 15.7465 7.76832 15.4179 7.5127 15.1553L7.11426 14.7568C6.1867 13.8063 5.66023 12.5639 5.66016 11.3418V10.0225C5.66016 9.67696 5.62221 9.44802 5.52734 9.23633L5.06152 8.21191ZM17.7334 6.57227C17.7334 7.53087 17.3833 8.36754 16.6953 9.06152L15.4668 10.3926C15.1173 10.7421 14.5896 10.9355 13.9795 10.9355H12.8633V13.2158C12.8772 13.2397 12.9018 13.2758 12.9297 13.3037L13.0801 13.4531C14.0996 12.0773 15.7341 11.1836 17.5742 11.1836C18.5488 11.1836 19.4658 11.4346 20.2646 11.875C20.1898 9.67022 19.2312 7.68753 17.7334 6.2666V6.57227ZM12.1533 4.03711C11.165 4.03711 10.2174 4.21563 9.34082 4.54004L10.0889 5.28906C10.2576 5.45777 10.5365 5.55854 10.834 5.55859H11.2393C11.6397 5.55859 11.9623 5.36106 12.124 5.01855L12.5566 4.04688C12.4229 4.04089 12.2881 4.03711 12.1533 4.03711Z"/>
</svg>
