<svg width="24" height="24" viewBox="0 0 24 24" xmlns="http://www.w3.org/2000/svg">
<path d="M12 2.3999C6.70702 2.3999 2.40002 6.7069 2.40002 11.9999C2.40002 17.2929 6.70702 21.5999 12 21.5999C17.293 21.5999 21.6 17.2929 21.6 11.9999C21.6 6.7069 17.293 2.3999 12 2.3999ZM20 11.9999C20 12.5489 19.944 13.0849 19.838 13.6039L18.948 13.1799C18.023 12.7319 16.958 12.9109 16.234 13.6339L15.834 14.0339C15.731 14.1369 15.57 14.1999 15.5 14.1999H14C13.831 14.1999 13.801 14.1699 13.766 14.1339L12.766 13.1339C12.738 13.1059 12.714 13.0709 12.7 13.0469V10.7989H13.8C14.401 10.7989 14.921 10.6089 15.266 10.2649L16.478 8.9529C17.156 8.2689 17.5 7.4439 17.5 6.4989V6.1979C19.038 7.6569 20 9.7169 20 11.9989V11.9999ZM12.398 4.0099L11.972 4.9679C11.813 5.3059 11.495 5.4999 11.1 5.4999H10.7C10.407 5.4999 10.132 5.4009 9.96602 5.2339L9.22802 4.4959C10.092 4.1759 11.026 3.9999 12.001 3.9999C12.134 3.9999 12.266 4.0039 12.398 4.0099ZM4.00002 11.9999C4.00002 10.5909 4.36802 9.2659 5.01002 8.1149L5.46902 9.1249C5.56202 9.3339 5.60002 9.5589 5.60002 9.8999V11.1999C5.60002 12.4049 6.12002 13.6289 7.03402 14.5659L7.42702 14.9589C7.67902 15.2179 7.86002 15.5419 7.91002 15.8279L8.41502 19.1489C5.79902 17.8319 4.00002 15.1229 4.00002 11.9999ZM12 19.9999C11.356 19.9999 10.73 19.9209 10.13 19.7769L9.49102 15.5799L9.48902 15.5659C9.38602 14.9609 9.05202 14.3329 8.56602 13.8339L8.17302 13.4409C7.55502 12.8079 7.20002 11.9909 7.20002 11.1999V9.8999C7.20002 9.5179 7.16902 9.0109 6.92802 8.4689L6.08602 6.6179C6.56502 6.0919 7.11403 5.6319 7.71602 5.2489L8.83302 6.3659C9.30002 6.8329 9.98002 7.0999 10.699 7.0999H11.099C12.114 7.0999 13.006 6.5389 13.425 5.6369L14.036 4.2639C14.694 4.4369 15.319 4.6929 15.9 5.0189V6.4999C15.9 7.0169 15.715 7.4539 15.334 7.8339L14.132 9.1359C14.1 9.1589 13.986 9.1999 13.8 9.1999H12.3C11.638 9.1999 11.1 9.7379 11.1 10.3999V13.0999C11.1 13.6859 11.509 14.1399 11.634 14.2659L12.634 15.2659C12.994 15.6259 13.44 15.7999 14 15.7999H15.5C16.013 15.7999 16.574 15.5569 16.966 15.1659L17.366 14.7659C17.605 14.5269 17.944 14.4719 18.256 14.6229L19.355 15.1459C18.131 17.9979 15.295 19.9999 12 19.9999Z"/>
</svg>
