<svg width="24" height="24" viewBox="0 0 24 24" xmlns="http://www.w3.org/2000/svg">
<path d="M12.1933 2.0459C6.79217 2.0459 2.41455 6.42451 2.41455 11.8246C2.41455 17.2248 6.79317 21.6034 12.1933 21.6034C17.5934 21.6034 21.972 17.2248 21.972 11.8246C21.972 6.42451 17.5934 2.0459 12.1933 2.0459ZM15.7741 14.4448C15.837 15.2766 15.2129 16.0345 14.3781 16.1383C13.5453 16.2412 12.8174 15.6521 12.7545 14.8193C12.6906 13.9885 13.3176 13.2296 14.1504 13.1267C14.4141 13.0948 14.6657 13.1307 14.8914 13.2226V9.13855L10.9801 9.86649V14.9691H10.9721C10.9741 14.983 10.9771 14.997 10.9771 15.011C11.04 15.8428 10.4159 16.5997 9.5831 16.7035C8.74831 16.8064 8.02237 16.2162 7.95946 15.3854C7.89556 14.5537 8.51965 13.7958 9.35343 13.6929C9.61705 13.659 9.86868 13.6969 10.0944 13.7888V7.90735L15.7691 6.93677L15.7741 6.93477H15.7761L15.7741 6.96073V14.4039H15.7661C15.7691 14.4189 15.7711 14.4308 15.7721 14.4448H15.7741Z"/>
</svg>
