<svg width="24" height="24" viewBox="0 0 24 24" xmlns="http://www.w3.org/2000/svg">
<path d="M12.0001 22.4001C6.2651 22.4001 1.6001 17.7351 1.6001 12.0001C1.6001 6.2651 6.2651 1.6001 12.0001 1.6001C17.7351 1.6001 22.4001 6.2651 22.4001 12.0001C22.4001 17.7351 17.7351 22.4001 12.0001 22.4001ZM12.0001 3.2001C7.1481 3.2001 3.2001 7.1481 3.2001 12.0001C3.2001 16.8521 7.1481 20.8001 12.0001 20.8001C16.8521 20.8001 20.8001 16.8521 20.8001 12.0001C20.8001 7.1481 16.8521 3.2001 12.0001 3.2001ZM15.6871 14.5691C15.7551 15.4721 15.0771 16.2941 14.1721 16.4071C13.2681 16.5191 12.4771 15.8791 12.4101 14.9761C12.3411 14.0741 13.0211 13.2511 13.9251 13.1391C14.2111 13.1041 14.4851 13.1431 14.7291 13.2431V8.8101L10.4831 9.6001V15.1381H10.4751C10.4771 15.1541 10.4811 15.1681 10.4811 15.1841C10.5501 16.0871 9.8711 16.9081 8.9681 17.0211C8.0621 17.1331 7.2741 16.4921 7.2061 15.5911C7.1361 14.6881 7.8151 13.8651 8.7191 13.7541C9.0051 13.7181 9.2791 13.7581 9.5231 13.8581V7.4741L15.6831 6.4211L15.6891 6.4191H15.6911L15.6891 6.4471V14.5261H15.6811C15.6841 14.5421 15.6871 14.5551 15.6881 14.5711L15.6871 14.5691Z"/>
</svg>
