<svg width="24" height="24" viewBox="0 0 24 24" xmlns="http://www.w3.org/2000/svg">
<path d="M21.2769 9.8336C21.2799 9.79865 21.2799 9.7637 21.2769 9.72975C20.3912 5.86638 16.7985 2.74593 12.8902 2.44637C8.78417 2.13183 5.15746 4.18383 3.35908 7.86646C2.69105 9.22948 2.35554 10.6754 2.42245 12.2051C2.39948 13.9776 2.87678 15.6152 3.79644 17.112C5.24133 19.4685 7.31431 20.9514 9.9964 21.5635C10.273 21.6274 10.3109 21.5555 10.3109 21.2969C10.304 18.2873 10.304 15.2767 10.3109 12.267C10.3109 12.0144 10.261 11.9295 9.9934 11.9335C9.08573 11.9465 8.17705 11.9295 7.26938 11.9235C7.26938 10.946 7.28635 9.9684 7.26039 8.99182C7.2524 8.67029 7.35126 8.62735 7.64083 8.62735C9.19457 8.64233 10.7503 8.65032 12.301 8.62735C12.9661 8.61737 13.4394 8.83705 13.683 9.48411L13.712 9.69879C13.7809 9.79066 13.7569 9.8995 13.7569 10.0014V21.5705C13.8019 21.5735 13.8468 21.5735 13.8907 21.5705C15.756 21.243 17.2948 20.2834 18.6578 19.0202C19.9049 17.8649 20.7148 16.413 21.1841 14.7794C21.6534 13.1448 21.7063 11.4902 21.2769 9.8336ZM11.7908 7.8395C10.936 7.88144 10.0214 6.8819 10.0204 5.90532C10.0164 5.65669 10.0603 5.41005 10.1512 5.17938C10.242 4.94872 10.3778 4.73903 10.5496 4.56128C10.7213 4.38454 10.927 4.24375 11.1537 4.14689C11.3804 4.05103 11.623 4.0011 11.8697 4.0011C12.3679 4.0021 12.8462 4.20281 13.1987 4.55929C13.5512 4.91577 13.7489 5.39906 13.7499 5.90233C13.7469 6.94281 12.8962 7.78558 11.7918 7.8385L11.7908 7.8395Z"/>
</svg>
