<svg width="24" height="24" viewBox="0 0 24 24" xmlns="http://www.w3.org/2000/svg">
<path d="M12.0001 22.4001C6.2651 22.4001 1.6001 17.7351 1.6001 12.0001C1.6001 6.2651 6.2651 1.6001 12.0001 1.6001C17.7351 1.6001 22.4001 6.2651 22.4001 12.0001C22.4001 17.7351 17.7351 22.4001 12.0001 22.4001ZM12.0001 3.2001C7.1481 3.2001 3.2001 7.1481 3.2001 12.0001C3.2001 16.8521 7.1481 20.8001 12.0001 20.8001C16.8521 20.8001 20.8001 16.8521 20.8001 12.0001C20.8001 7.1481 16.8521 3.2001 12.0001 3.2001ZM18.9681 10.3731C18.9711 10.3471 18.9711 10.3211 18.9681 10.2951C18.3031 7.3931 15.6051 5.0501 12.6691 4.8241C9.5851 4.5871 6.8611 6.1291 5.5101 8.8951C5.0081 9.9191 4.7561 11.0051 4.8071 12.1541C4.7901 13.4851 5.1481 14.7161 5.8391 15.8401C6.9241 17.6101 8.4821 18.7241 10.4961 19.1841C10.7041 19.2321 10.7331 19.1781 10.7321 18.9841C10.7261 16.7231 10.7261 14.4631 10.7321 12.2021C10.7321 12.0121 10.6951 11.9491 10.4931 11.9521C9.8111 11.9621 9.1291 11.9491 8.4471 11.9441C8.4471 11.2101 8.4591 10.4761 8.4401 9.7421C8.4341 9.5001 8.5091 9.4681 8.7261 9.4681C9.8931 9.4801 11.0611 9.4851 12.2261 9.4681C12.7251 9.4611 13.0811 9.6251 13.2641 10.1111L13.2861 10.2721C13.3381 10.3411 13.3201 10.4231 13.3201 10.5001V19.1891C13.3531 19.1921 13.3871 19.1921 13.4211 19.1891C14.8221 18.9431 15.9771 18.2221 17.0021 17.2731C17.9391 16.4051 18.5471 15.3151 18.8991 14.0881C19.2511 12.8601 19.2921 11.6181 18.9701 10.3731H18.9681ZM11.8431 8.8751C11.2011 8.9061 10.5141 8.1561 10.5131 7.4221C10.5101 7.2361 10.5431 7.0501 10.6111 6.8771C10.6791 6.7041 10.7811 6.5461 10.9101 6.4131C11.0391 6.2801 11.1931 6.1741 11.3641 6.1021C11.5341 6.0301 11.7171 5.9921 11.9011 5.9921C12.2761 5.9921 12.6341 6.1441 12.8991 6.4111C13.1641 6.6791 13.3131 7.0421 13.3131 7.4201C13.3101 8.2011 12.6721 8.8341 11.8421 8.8751H11.8431Z"/>
</svg>
