<svg width="24" height="24" viewBox="0 0 24 24" xmlns="http://www.w3.org/2000/svg">
<path d="M11.9999 9.69993C12.497 9.69993 12.8999 9.29698 12.8999 8.79993C12.8999 8.30287 12.497 7.89993 11.9999 7.89993C11.5028 7.89993 11.0999 8.30287 11.0999 8.79993C11.0999 9.29698 11.5028 9.69993 11.9999 9.69993Z"/>
<path d="M20.7229 8.25793L18.5179 3.84893C18.3739 3.55093 18.0629 3.20093 17.3989 3.20093H6.5989C5.9019 3.20093 5.5999 3.60193 5.4809 3.84893L3.2759 8.25893C3.1309 8.56593 3.0619 9.06693 3.3449 9.46193L10.9489 20.2669C11.1729 20.5799 11.5659 20.7669 11.9999 20.7669C12.4339 20.7669 12.8269 20.5799 13.0509 20.2669L20.6509 9.46693C20.9369 9.06693 20.8689 8.56593 20.7229 8.25793ZM11.9999 18.9779L5.3999 9.59993H9.4999V7.99993H5.1939L6.7939 4.79993H17.2049L19.1869 8.76393L11.9989 18.9779H11.9999Z"/>
</svg>
