<svg width="24" height="24" viewBox="0 0 24 24" xmlns="http://www.w3.org/2000/svg">
<path d="M12.331 1.6001H4V22.4001H7V20.8001H5.6V3.2001H11.2V10.4001H18.4V20.8001H12V22.4001H20V9.2691L12.331 1.6001ZM12.8 4.3311L17.269 8.8001H12.8V4.3311ZM10.4 21.6001C10.4 21.7781 10.3472 21.9521 10.2483 22.1001C10.1494 22.2481 10.0089 22.3635 9.84442 22.4316C9.67996 22.4997 9.499 22.5175 9.32442 22.4828C9.14984 22.4481 8.98947 22.3624 8.8636 22.2365C8.73774 22.1106 8.65202 21.9503 8.61729 21.7757C8.58257 21.6011 8.60039 21.4201 8.66851 21.2557C8.73663 21.0912 8.85198 20.9507 8.99999 20.8518C9.14799 20.7529 9.322 20.7001 9.5 20.7001C9.73869 20.7001 9.96761 20.7949 10.1364 20.9637C10.3052 21.1325 10.4 21.3614 10.4 21.6001ZM8.821 13.9181H9.721V16.2631C9.721 16.9711 9.308 17.3631 8.559 17.3631C8.21088 17.3734 7.87156 17.2528 7.608 17.0251L7.545 16.9701L7.951 16.2801L8.042 16.3631C8.219 16.5251 8.377 16.6031 8.525 16.6031C8.673 16.6031 8.825 16.5501 8.825 16.1571V13.9181H8.821ZM11.521 13.9181H10.259V17.3001H11.159V16.1691H11.51C12.444 16.1691 12.917 15.7881 12.917 15.0371C12.917 13.9181 11.864 13.9181 11.517 13.9181H11.521ZM11.538 15.4271H11.161V14.6901H11.538C11.975 14.6901 12.038 14.8651 12.038 15.0541C12.038 15.2431 11.971 15.4271 11.533 15.4271H11.538ZM16.159 15.5051V17.3001H15.396V17.1121C15.1824 17.2801 14.9166 17.3679 14.645 17.3601C13.718 17.3601 13.165 16.7011 13.165 15.5961C13.165 14.4911 13.765 13.8581 14.701 13.8581C15.316 13.8581 15.814 14.1581 16.068 14.6751L16.113 14.7681L15.334 15.1181L15.293 15.0271C15.2501 14.9136 15.1739 14.8157 15.0742 14.7465C14.9746 14.6772 14.8563 14.6398 14.735 14.6391C14.487 14.6391 14.07 14.7621 14.07 15.5841C14.07 16.4991 14.538 16.5981 14.74 16.5981C14.8564 16.6033 14.9712 16.5695 15.0663 16.5022C15.1614 16.4348 15.2313 16.3377 15.265 16.2261H14.8L14.657 15.5061H16.15L16.159 15.5051Z"/>
</svg>
