<svg width="24" height="24" viewBox="0 0 24 24" xmlns="http://www.w3.org/2000/svg">
<path d="M20.8001 19.2H3.2001C2.3181 19.2 1.6001 18.482 1.6001 17.6V6.40005C1.6001 5.51805 2.3181 4.80005 3.2001 4.80005H20.8001C21.6821 4.80005 22.4001 5.51805 22.4001 6.40005V17.6C22.4001 18.482 21.6821 19.2 20.8001 19.2ZM3.2001 6.40005V17.6H20.8001V6.40005H3.2001ZM6.4001 8.00005H4.8001V9.60005H6.4001V8.00005ZM9.6001 8.00005H8.0001V9.60005H9.6001V8.00005ZM12.8001 8.00005H11.2001V9.60005H12.8001V8.00005ZM16.0001 8.00005H14.4001V9.60005H16.0001V8.00005ZM11.2001 11.2H9.6001V12.8H11.2001V11.2ZM14.4001 11.2H12.8001V12.8H14.4001V11.2ZM6.4001 14.4H4.8001V16H6.4001V14.4ZM8.0001 11.2H4.8001V12.8H8.0001V11.2ZM19.2001 14.4H17.6001V16H19.2001V14.4ZM16.0001 14.4H8.0001V16H16.0001V14.4ZM19.2001 7.98905H17.6001V11.2H16.0001V12.8H19.2001V7.98905Z"/>
</svg>
