<svg width="24" height="24" viewBox="0 0 24 24" xmlns="http://www.w3.org/2000/svg">
<path d="M3.4001 21.5001C3.4001 21.9971 2.9971 22.4001 2.5001 22.4001C2.0031 22.4001 1.6001 21.9971 1.6001 21.5001C1.6001 21.0031 2.0031 20.6001 2.5001 20.6001C2.9971 20.6001 3.4001 21.0031 3.4001 21.5001ZM22.4001 3.2001V11.5971C22.4001 12.3461 21.8911 12.9871 21.1611 13.1561L9.2041 15.9281L8.7861 16.3461C8.6331 16.5251 8.6011 16.6581 8.6011 16.8001C8.6011 17.2411 8.9601 17.6001 9.4011 17.6001H11.8011C13.1241 17.6001 14.2011 18.6771 14.2011 20.0001C14.2011 21.3231 13.1241 22.4001 11.8011 22.4001H5.0001V20.8001H11.8001C12.2411 20.8001 12.6001 20.4411 12.6001 20.0001C12.6001 19.5591 12.2411 19.2001 11.8001 19.2001H9.4001C8.0771 19.2001 7.0001 18.1231 7.0001 16.8001C7.0001 16.2291 7.1961 15.7281 7.6001 15.2711L7.6341 15.2351L8.0721 14.7971L10.8441 2.8391C11.0131 2.1101 11.6541 1.6001 12.4031 1.6001H20.8001C21.6821 1.6001 22.4001 2.3181 22.4001 3.2001ZM20.8001 10.3021V4.3321L17.8151 7.3171L20.8001 10.3021ZM16.6831 8.4481L11.3411 13.7901L20.0141 11.7801L16.6831 8.4481ZM19.6691 3.2001H13.6991L16.6841 6.1851L19.6691 3.2001ZM10.2101 12.6581L15.5521 7.3161L12.2211 3.9851L10.2111 12.6581H10.2101Z"/>
</svg>
