<svg width="24" height="24" viewBox="0 0 24 24" xmlns="http://www.w3.org/2000/svg">
<path d="M18.1481 15.9871C18.7641 16.0881 19.2891 15.5631 19.1881 14.9471C19.1271 14.5741 18.8261 14.2731 18.4531 14.2121C17.8371 14.1111 17.3121 14.6361 17.4131 15.2521C17.4741 15.6251 17.7751 15.9261 18.1481 15.9871Z"/>
<path d="M10.4001 11.2001V4.4001C10.4001 3.7371 9.8631 3.2001 9.2001 3.2001H2.8001C2.1371 3.2001 1.6001 3.7371 1.6001 4.4001V19.6001C1.6001 20.2631 2.1371 20.8001 2.8001 20.8001H22.4001V11.2001H10.4001ZM8.8001 19.2001H3.2001V9.6001H8.8001V19.2001ZM8.8001 8.0001H3.2001V4.8001H8.8001V8.0001ZM20.8001 19.2001H10.4001V12.8001H20.8001V19.2001Z"/>
<path d="M16.0001 14.4001H12.0001V16.0001H16.0001V14.4001Z"/>
<path d="M20.8251 9.6001V8.0001H19.0251L18.4521 5.7091C18.3181 5.1751 17.8391 4.8001 17.2881 4.8001H17.2001V1.6001H15.6001V4.8001H15.5121C14.9611 4.8001 14.4811 5.1751 14.3481 5.7091L13.7751 8.0001H12.0001V9.6001H20.8251ZM15.8251 6.4001H16.9761L17.3761 8.0001H15.4251L15.8251 6.4001Z"/>
</svg>
