<svg width="24" height="24" viewBox="0 0 24 24" xmlns="http://www.w3.org/2000/svg">
<path d="M4.9001 21.6011C4.9001 22.0981 4.4971 22.5011 4.0001 22.5011C3.5031 22.5011 3.1001 22.0981 3.1001 21.6011C3.1001 21.1041 3.5031 20.7011 4.0001 20.7011C4.4971 20.7011 4.9001 21.1041 4.9001 21.6011ZM19.7821 4.02912C18.9291 4.27112 18.1051 4.39912 17.4001 4.39912C15.7141 4.39912 14.5641 3.84712 13.2321 3.20712C11.6631 2.45312 9.8851 1.59912 7.0001 1.59912C6.2041 1.59912 4.9991 1.67412 3.7761 2.03112L3.2001 2.19912V19.1011H4.8001V3.42212C5.6401 3.24212 6.4371 3.19912 7.0001 3.19912C9.5211 3.19912 11.0551 3.93612 12.5391 4.64912C13.9211 5.31312 15.3491 5.99912 17.4001 5.99912C17.9661 5.99912 18.5681 5.93712 19.2001 5.81312V13.3771C18.5571 13.5221 17.9431 13.5981 17.4001 13.5981C15.7141 13.5981 14.5641 13.0461 13.2321 12.4061C11.6631 11.6521 9.8851 10.7981 7.0001 10.7981C6.8201 10.7981 6.6171 10.8031 6.4001 10.8131V12.4141C6.6191 12.4021 6.8221 12.3981 7.0001 12.3981C9.5211 12.3981 11.0551 13.1351 12.5391 13.8481C13.9211 14.5121 15.3491 15.1981 17.4001 15.1981C18.2631 15.1981 19.2111 15.0531 20.2181 14.7681L20.8001 14.6031V3.74112L19.7821 4.02912Z"/>
</svg>
