<svg width="24" height="24" viewBox="0 0 24 24" xmlns="http://www.w3.org/2000/svg">
<path d="M13.469 9.89997L14.638 8.73096L15.538 9.63097L17.372 7.79697C17.825 7.34397 18.075 6.74096 18.075 6.09997C18.075 5.45897 17.825 4.85596 17.372 4.40296L15.235 2.26596C14.299 1.32996 12.777 1.32996 11.841 2.26596L10.007 4.09996L10.907 4.99996L7.43798 8.46897L6.53798 7.56897L4.70398 9.40297C4.25098 9.85596 4.00098 10.459 4.00098 11.1C4.00098 11.741 4.25098 12.344 4.70398 12.797L6.84098 14.934C7.30898 15.402 7.92298 15.636 8.53798 15.636C9.15298 15.636 9.76698 15.402 10.235 14.934L12.069 13.1L11.169 12.2L12.338 11.031L18.872 17.565L20.003 16.434L13.469 9.89997ZM12.972 3.39697C13.284 3.08496 13.791 3.08496 14.103 3.39697L16.24 5.53397C16.391 5.68497 16.474 5.88596 16.474 6.09997C16.474 6.31397 16.391 6.51497 16.24 6.66597L15.537 7.36897L12.268 4.09996L12.972 3.39697ZM9.10298 13.803C8.79098 14.115 8.28398 14.115 7.97198 13.803L5.83498 11.666C5.68398 11.515 5.60098 11.314 5.60098 11.1C5.60098 10.886 5.68398 10.685 5.83498 10.534L6.53798 9.83097L9.80698 13.1L9.10398 13.803H9.10298ZM8.56898 9.59997L12.038 6.13097L13.507 7.59997L10.038 11.069L8.56898 9.59997ZM6.53698 4.99996C6.53698 4.50296 6.93998 4.09996 7.43698 4.09996C7.93398 4.09996 8.33698 4.50296 8.33698 4.99996C8.33698 5.49696 7.93398 5.89996 7.43698 5.89996C6.93998 5.89996 6.53698 5.49696 6.53698 4.99996ZM14.437 17.6H6.43698C5.11398 17.6 4.03698 18.677 4.03698 20V22.4H16.837V20C16.837 18.677 15.76 17.6 14.437 17.6ZM15.237 20.8H5.63698V20C5.63698 19.559 5.99598 19.2 6.43698 19.2H14.437C14.878 19.2 15.237 19.559 15.237 20V20.8Z"/>
</svg>
