<svg width="24" height="24" viewBox="0 0 24 24" xmlns="http://www.w3.org/2000/svg">
<path d="M12.8999 21.7001C12.8999 22.1971 12.4969 22.6001 11.9999 22.6001C11.5029 22.6001 11.0999 22.1971 11.0999 21.7001C11.0999 21.2031 11.5029 20.8001 11.9999 20.8001C12.4969 20.8001 12.8999 21.2031 12.8999 21.7001ZM17.5999 9.6001C17.5999 6.0141 15.4599 2.8191 12.2759 1.6491L11.9999 1.5481L11.7239 1.6491C8.5389 2.8191 6.3999 6.0141 6.3999 9.6001C6.3999 11.8141 7.2159 13.8791 8.5899 15.4101L9.7219 14.2781C8.6409 13.0421 7.9999 11.3821 7.9999 9.6001C7.9999 6.7881 9.5959 4.2791 11.9999 3.2601C14.4039 4.2791 15.9999 6.7881 15.9999 9.6001C15.9999 12.0871 14.7519 14.3361 12.7999 15.5281V9.2001H11.1999V19.2001H12.7999V17.3351C15.6929 16.0221 17.5999 12.9861 17.5999 9.6001Z"/>
</svg>
