<svg width="24" height="24" viewBox="0 0 24 24" xmlns="http://www.w3.org/2000/svg">
<path d="M19.2002 20.8H4.8002C4.37585 20.8 3.96888 20.6314 3.66882 20.3313C3.36877 20.0313 3.2002 19.6243 3.2002 19.2V4.79995C3.2002 4.3756 3.36877 3.96864 3.66882 3.66858C3.96888 3.36852 4.37585 3.19995 4.8002 3.19995H19.2002C19.6245 3.19995 20.0315 3.36852 20.3316 3.66858C20.6316 3.96864 20.8002 4.3756 20.8002 4.79995V19.2C20.8002 19.6243 20.6316 20.0313 20.3316 20.3313C20.0315 20.6314 19.6245 20.8 19.2002 20.8ZM4.8002 4.79995V19.2H19.2002V4.79995H4.8002ZM14.8642 13.992C14.8642 15.9 13.9002 17.2 11.4482 17.2C10.0882 17.2 9.2242 16.728 8.6002 16.192L9.5682 14.544C10.0562 14.984 10.6682 15.4 11.3362 15.4C12.1362 15.4 12.6082 14.9 12.6082 13.64V6.75995H14.8642V13.992Z"/>
</svg>
