<svg width="24" height="24" viewBox="0 0 24 24" xmlns="http://www.w3.org/2000/svg">
<path d="M19.2002 20.8H4.8002C4.37585 20.8 3.96888 20.6314 3.66882 20.3313C3.36877 20.0313 3.2002 19.6243 3.2002 19.2V4.79995C3.2002 4.3756 3.36877 3.96864 3.66882 3.66858C3.96888 3.36852 4.37585 3.19995 4.8002 3.19995H19.2002C19.6245 3.19995 20.0315 3.36852 20.3316 3.66858C20.6316 3.96864 20.8002 4.3756 20.8002 4.79995V19.2C20.8002 19.6243 20.6316 20.0313 20.3316 20.3313C20.0315 20.6314 19.6245 20.8 19.2002 20.8ZM4.8002 4.79995V19.2H19.2002V4.79995H4.8002ZM10.9642 6.85995H7.8202V17.1H10.9642C14.0522 17.1 16.4442 15.772 16.4442 11.924C16.4442 8.18795 14.0922 6.85995 10.9642 6.85995ZM11.1162 15.276H10.0602V8.73995H11.0842C13.3322 8.73995 14.1842 9.76395 14.1842 11.956C14.1882 14.276 13.3402 15.276 11.1162 15.276Z"/>
</svg>
