<svg width="24" height="24" viewBox="0 0 24 24" xmlns="http://www.w3.org/2000/svg">
<path d="M19.2002 20.8H4.8002C4.37585 20.8 3.96888 20.6314 3.66882 20.3313C3.36877 20.0313 3.2002 19.6243 3.2002 19.2V4.79995C3.2002 4.3756 3.36877 3.96864 3.66882 3.66858C3.96888 3.36852 4.37585 3.19995 4.8002 3.19995H19.2002C19.6245 3.19995 20.0315 3.36852 20.3316 3.66858C20.6316 3.96864 20.8002 4.3756 20.8002 4.79995V19.2C20.8002 19.6243 20.6316 20.0313 20.3316 20.3313C20.0315 20.6314 19.6245 20.8 19.2002 20.8ZM4.8002 4.79995V19.2H19.2002V4.79995H4.8002ZM10.8472 6.01295C11.7472 6.01295 12.1142 6.70695 12.6572 6.70695C12.9792 6.70695 13.1652 6.49995 13.1442 5.95595L14.2102 6.12795C14.2102 7.35095 13.6382 8.00895 12.7502 8.00895C11.8622 8.00895 11.4842 7.31495 10.9402 7.31495C10.6182 7.31495 10.4322 7.52295 10.4542 8.07395L9.3732 7.89995C9.3812 6.65695 9.9602 6.01295 10.8472 6.01295ZM15.6622 17.575H13.8002L9.8002 11.687H9.7782V17.582H7.9212V8.42395H9.9312L13.7662 14.27H13.8002V8.41695H15.6602L15.6622 17.575Z"/>
</svg>
