<svg width="24" height="24" viewBox="0 0 24 24" xmlns="http://www.w3.org/2000/svg">
<path d="M19.2002 20.8H4.8002C4.37585 20.8 3.96888 20.6314 3.66882 20.3313C3.36877 20.0313 3.2002 19.6243 3.2002 19.2V4.79995C3.2002 4.3756 3.36877 3.96864 3.66882 3.66858C3.96888 3.36852 4.37585 3.19995 4.8002 3.19995H19.2002C19.6245 3.19995 20.0315 3.36852 20.3316 3.66858C20.6316 3.96864 20.8002 4.3756 20.8002 4.79995V19.2C20.8002 19.6243 20.6316 20.0313 20.3316 20.3313C20.0315 20.6314 19.6245 20.8 19.2002 20.8ZM4.8002 4.79995V19.2H19.2002V4.79995H4.8002ZM13.8142 11.772V11.748C13.8142 11.748 15.7902 11.492 15.7662 9.39995C15.7662 9.39995 16.0382 6.76795 12.1112 6.86395H8.0112V17.1H12.3112C12.3112 17.1 16.0302 17.292 16.0382 14.276C16.0462 14.276 16.2222 12.084 13.8142 11.772ZM10.2232 8.59995H11.9112C11.9112 8.59995 13.6002 8.49195 13.6002 9.85195C13.6002 11.196 11.8882 11.084 11.8882 11.084H10.2232V8.59995ZM11.8872 15.376H10.2232V12.668H11.9112C11.9112 12.668 13.8392 12.692 13.8392 14.052C13.8392 15.4 11.8872 15.38 11.8872 15.38V15.376Z"/>
</svg>
