<svg width="24" height="24" viewBox="0 0 24 24" xmlns="http://www.w3.org/2000/svg">
<path d="M19.2002 20.8H4.8002C4.37585 20.8 3.96888 20.6314 3.66882 20.3313C3.36877 20.0313 3.2002 19.6243 3.2002 19.2V4.79995C3.2002 4.3756 3.36877 3.96864 3.66882 3.66858C3.96888 3.36852 4.37585 3.19995 4.8002 3.19995H19.2002C19.6245 3.19995 20.0315 3.36852 20.3316 3.66858C20.6316 3.96864 20.8002 4.3756 20.8002 4.79995V19.2C20.8002 19.6243 20.6316 20.0313 20.3316 20.3313C20.0315 20.6314 19.6245 20.8 19.2002 20.8ZM4.8002 4.79995V19.2H19.2002V4.79995H4.8002ZM14.2402 17.18L11.2482 12.48L10.1282 13.744V17.024H7.8732V6.77995H10.1282V11.012L13.5602 6.77995H16.1922L12.7202 10.78L16.5922 16.852L14.2402 17.18Z"/>
</svg>
