<svg width="24" height="24" viewBox="0 0 24 24" xmlns="http://www.w3.org/2000/svg">
<path d="M19.2002 20.8H4.8002C4.37585 20.8 3.96888 20.6314 3.66882 20.3313C3.36877 20.0313 3.2002 19.6243 3.2002 19.2V4.79995C3.2002 4.3756 3.36877 3.96864 3.66882 3.66858C3.96888 3.36852 4.37585 3.19995 4.8002 3.19995H19.2002C19.6245 3.19995 20.0315 3.36852 20.3316 3.66858C20.6316 3.96864 20.8002 4.3756 20.8002 4.79995V19.2C20.8002 19.6243 20.6316 20.0313 20.3316 20.3313C20.0315 20.6314 19.6245 20.8 19.2002 20.8ZM4.8002 4.79995V19.2H19.2002V4.79995H4.8002ZM11.9402 6.66795C9.4602 6.66795 7.1082 8.37995 7.1082 11.98C7.1082 15.58 9.4602 17.292 11.9402 17.292C14.4042 17.292 16.7562 15.572 16.7562 11.98C16.7562 8.38795 14.4002 6.66795 11.9402 6.66795ZM11.9402 15.484C10.3482 15.484 9.3642 14.124 9.3642 11.984C9.3642 9.84395 10.3482 8.53595 11.9402 8.53595C13.5162 8.53595 14.5162 9.83595 14.5162 11.984C14.5162 14.132 13.5162 15.484 11.9402 15.484Z"/>
</svg>
