<svg width="24" height="24" viewBox="0 0 24 24" xmlns="http://www.w3.org/2000/svg">
<path d="M19.2002 20.8H4.8002C4.37585 20.8 3.96888 20.6314 3.66882 20.3313C3.36877 20.0313 3.2002 19.6243 3.2002 19.2V4.79995C3.2002 4.3756 3.36877 3.96864 3.66882 3.66858C3.96888 3.36852 4.37585 3.19995 4.8002 3.19995H19.2002C19.6245 3.19995 20.0315 3.36852 20.3316 3.66858C20.6316 3.96864 20.8002 4.3756 20.8002 4.79995V19.2C20.8002 19.6243 20.6316 20.0313 20.3316 20.3313C20.0315 20.6314 19.6245 20.8 19.2002 20.8ZM4.8002 4.79995V19.2H19.2002V4.79995H4.8002ZM15.5562 17.18H13.6362L12.0122 10.06H11.9802L10.2522 17.18H8.3082L5.6212 7.10795L7.8002 6.77995L8.9202 11.612C9.12658 12.3492 9.29348 13.0969 9.4202 13.852H9.4442C9.5642 13.1 9.7242 12.352 9.9162 11.62L10.9642 6.93995H13.0442L14.1442 11.64C14.3362 12.456 14.4882 12.928 14.6322 13.84H14.6642C14.8002 12.912 14.9282 12.496 15.1202 11.664L16.1602 6.93595H18.2402L15.5562 17.18Z"/>
</svg>
