<svg width="24" height="24" viewBox="0 0 24 24" xmlns="http://www.w3.org/2000/svg">
<path d="M19.2002 20.8H4.8002C4.37585 20.8 3.96888 20.6314 3.66882 20.3313C3.36877 20.0313 3.2002 19.6243 3.2002 19.2V4.79995C3.2002 4.3756 3.36877 3.96864 3.66882 3.66858C3.96888 3.36852 4.37585 3.19995 4.8002 3.19995H19.2002C19.6245 3.19995 20.0315 3.36852 20.3316 3.66858C20.6316 3.96864 20.8002 4.3756 20.8002 4.79995V19.2C20.8002 19.6243 20.6316 20.0313 20.3316 20.3313C20.0315 20.6314 19.6245 20.8 19.2002 20.8ZM4.8002 4.79995V19.2H19.2002V4.79995H4.8002ZM12.9482 15.912C15.0282 15.52 16.7562 13.792 16.7562 10.704C16.7562 7.11195 14.4042 5.39295 11.9402 5.39295C9.4602 5.39295 7.1082 7.09995 7.1082 10.7C7.1082 13.668 8.69219 15.4 10.6682 15.852C10.7242 17.412 11.9482 18.563 14.0282 18.563H15.6202L15.9482 16.78H15.0762C14.0362 16.784 13.2202 16.744 12.9482 15.912ZM9.3482 10.712C9.3482 8.56795 10.3402 7.26395 11.9322 7.26395C13.5082 7.26395 14.4922 8.56395 14.4922 10.712C14.4922 12.86 13.5082 14.212 11.9322 14.212C10.3562 14.212 9.3482 12.856 9.3482 10.712Z"/>
</svg>
