<svg width="24" height="24" viewBox="0 0 24 24" xmlns="http://www.w3.org/2000/svg">
<path d="M19.2002 20.8H4.8002C4.37585 20.8 3.96888 20.6314 3.66882 20.3313C3.36877 20.0313 3.2002 19.6243 3.2002 19.2V4.79995C3.2002 4.3756 3.36877 3.96864 3.66882 3.66858C3.96888 3.36852 4.37585 3.19995 4.8002 3.19995H19.2002C19.6245 3.19995 20.0315 3.36852 20.3316 3.66858C20.6316 3.96864 20.8002 4.3756 20.8002 4.79995V19.2C20.8002 19.6243 20.6316 20.0313 20.3316 20.3313C20.0315 20.6314 19.6245 20.8 19.2002 20.8ZM4.8002 4.79995V19.2H19.2002V4.79995H4.8002ZM12.0002 6.85995H8.2852V17.1H10.5242V13.46H11.9802C14.0282 13.46 16.1882 12.892 16.1802 10.14C16.1802 7.44395 14.1882 6.85995 12.0002 6.85995ZM10.5242 11.716V8.69995H12.0602C13.4762 8.69995 13.9882 9.24395 13.9802 10.2C13.9802 11.172 13.4602 11.716 12.0602 11.716H10.5242Z"/>
</svg>
