<svg width="24" height="24" viewBox="0 0 24 24" xmlns="http://www.w3.org/2000/svg">
<path d="M19.2002 20.8H4.8002C4.37585 20.8 3.96888 20.6314 3.66882 20.3313C3.36877 20.0313 3.2002 19.6243 3.2002 19.2V4.79995C3.2002 4.3756 3.36877 3.96864 3.66882 3.66858C3.96888 3.36852 4.37585 3.19995 4.8002 3.19995H19.2002C19.6245 3.19995 20.0315 3.36852 20.3316 3.66858C20.6316 3.96864 20.8002 4.3756 20.8002 4.79995V19.2C20.8002 19.6243 20.6316 20.0313 20.3316 20.3313C20.0315 20.6314 19.6245 20.8 19.2002 20.8ZM4.8002 4.79995V19.2H19.2002V4.79995H4.8002ZM16.4322 17.1H14.6162V15.968H14.5842C14.1682 16.728 13.1602 17.296 11.8722 17.296C8.8162 17.296 7.4322 15.024 7.4322 11.936C7.4322 8.72795 9.2162 6.66395 12.0562 6.66395C13.6082 6.66395 15.2802 7.30395 16.1682 9.11195L14.2562 9.96795C13.8722 9.11195 13.1562 8.52795 12.1682 8.52795C11.2562 8.52795 9.7042 9.01595 9.7042 11.888C9.7042 14.76 11.0882 15.472 12.1842 15.472C13.3042 15.472 14.0842 14.772 14.2842 13.632H12.6642L12.3282 11.96H16.4282L16.4322 17.1Z"/>
</svg>
