<svg width="24" height="24" viewBox="0 0 24 24" xmlns="http://www.w3.org/2000/svg">
<path d="M19.2002 20.8H4.8002C4.37585 20.8 3.96888 20.6314 3.66882 20.3313C3.36877 20.0313 3.2002 19.6243 3.2002 19.2V4.79995C3.2002 4.3756 3.36877 3.96864 3.66882 3.66858C3.96888 3.36852 4.37585 3.19995 4.8002 3.19995H19.2002C19.6245 3.19995 20.0315 3.36852 20.3316 3.66858C20.6316 3.96864 20.8002 4.3756 20.8002 4.79995V19.2C20.8002 19.6243 20.6316 20.0313 20.3316 20.3313C20.0315 20.6314 19.6245 20.8 19.2002 20.8ZM4.8002 4.79995V19.2H19.2002V4.79995H4.8002ZM16.6002 14.352C15.9922 16.112 14.7602 17.304 12.3922 17.304C9.7042 17.304 7.6722 15.592 7.6722 11.976V11.96C7.6722 8.39995 9.73619 6.65995 12.2562 6.65995C14.3362 6.65995 15.5762 7.50795 16.3362 9.10795H16.3282C16.3282 9.11595 16.3362 9.11595 16.3362 9.12395L14.4362 10.076C14.0922 9.27595 13.3882 8.53995 12.2522 8.53995C10.6682 8.53995 9.9242 9.85195 9.9242 11.964C9.9242 14.116 10.7562 15.464 12.3882 15.464C13.5802 15.464 14.3082 14.704 14.6602 13.648L16.5962 14.328C16.5962 14.336 16.5882 14.344 16.5962 14.352H16.6002Z"/>
</svg>
