<svg width="24" height="24" viewBox="0 0 24 24" xmlns="http://www.w3.org/2000/svg">
<path d="M19.2002 20.8H4.8002C4.37585 20.8 3.96888 20.6314 3.66882 20.3313C3.36877 20.0313 3.2002 19.6243 3.2002 19.2V4.79995C3.2002 4.3756 3.36877 3.96864 3.66882 3.66858C3.96888 3.36852 4.37585 3.19995 4.8002 3.19995H19.2002C19.6245 3.19995 20.0315 3.36852 20.3316 3.66858C20.6316 3.96864 20.8002 4.3756 20.8002 4.79995V19.2C20.8002 19.6243 20.6316 20.0313 20.3316 20.3313C20.0315 20.6314 19.6245 20.8 19.2002 20.8ZM4.8002 4.79995V19.2H19.2002V4.79995H4.8002ZM13.9402 12.864C15.3092 12.455 16.0732 11.564 16.0732 9.94695C16.0732 7.67495 14.5732 6.77095 12.0512 6.77495H8.2052V17.015H10.4202V13.151H11.7202L14.0832 17.179L16.2602 16.846L13.9402 12.864ZM11.9642 11.407H10.4282V8.61495H11.9642C13.2642 8.61495 13.8822 8.99195 13.8932 9.99195C13.8862 11.032 13.2682 11.405 11.9642 11.407Z"/>
</svg>
