<svg width="24" height="24" viewBox="0 0 24 24" xmlns="http://www.w3.org/2000/svg">
<path d="M19.2002 20.8H4.8002C4.37585 20.8 3.96888 20.6314 3.66882 20.3313C3.36877 20.0313 3.2002 19.6243 3.2002 19.2V4.79995C3.2002 4.3756 3.36877 3.96864 3.66882 3.66858C3.96888 3.36852 4.37585 3.19995 4.8002 3.19995H19.2002C19.6245 3.19995 20.0315 3.36852 20.3316 3.66858C20.6316 3.96864 20.8002 4.3756 20.8002 4.79995V19.2C20.8002 19.6243 20.6316 20.0313 20.3316 20.3313C20.0315 20.6314 19.6245 20.8 19.2002 20.8ZM4.8002 4.79995V19.2H19.2002V4.79995H4.8002ZM12.1762 17.292C10.2402 17.292 8.7442 16.436 7.7042 15.468L8.8802 13.956C9.6242 14.732 10.9602 15.508 12.1042 15.508C13.1842 15.508 13.9602 15.124 13.9602 14.332C13.9602 13.556 13.2242 13.232 11.8802 12.852C10.0562 12.34 8.1442 11.868 8.1442 9.72395C8.1442 7.81195 9.6642 6.66795 11.8442 6.66795C13.4202 6.66795 14.8202 7.35595 15.8042 8.14795L14.7602 9.75595C14.0242 9.11595 12.8602 8.50795 11.8962 8.50795C10.8962 8.50795 10.3442 8.92395 10.3442 9.53195C10.3442 10.348 11.1042 10.632 12.4442 11.012C14.2442 11.5 16.1562 12.06 16.1562 14.18C16.1682 15.828 14.8882 17.292 12.1762 17.292Z"/>
</svg>
