<svg width="24" height="24" viewBox="0 0 24 24" xmlns="http://www.w3.org/2000/svg">
<path d="M19.2002 20.8H4.8002C4.37585 20.8 3.96888 20.6314 3.66882 20.3313C3.36877 20.0313 3.2002 19.6243 3.2002 19.2V4.79995C3.2002 4.3756 3.36877 3.96864 3.66882 3.66858C3.96888 3.36852 4.37585 3.19995 4.8002 3.19995H19.2002C19.6245 3.19995 20.0315 3.36852 20.3316 3.66858C20.6316 3.96864 20.8002 4.3756 20.8002 4.79995V19.2C20.8002 19.6243 20.6316 20.0313 20.3316 20.3313C20.0315 20.6314 19.6245 20.8 19.2002 20.8ZM4.8002 4.79995V19.2H19.2002V4.79995H4.8002ZM17.1642 17.1H14.9882V10.108H14.9562C14.8171 10.8835 14.6274 11.6492 14.3882 12.4L12.8602 17.1H10.8682L9.3482 12.4C9.09517 11.6147 8.89736 10.8128 8.7562 9.99995H8.7322V17.1H6.7002V6.85995H9.6762L11.9642 14.388H12.0002L14.1202 6.85995H17.1682L17.1642 17.1Z"/>
</svg>
