<svg width="24" height="24" viewBox="0 0 24 24" xmlns="http://www.w3.org/2000/svg">
<path d="M11.1 2.2999C11.1 1.8029 11.503 1.3999 12 1.3999C12.497 1.3999 12.9 1.8029 12.9 2.2999C12.9 2.7969 12.497 3.1999 12 3.1999C11.503 3.1999 11.1 2.7969 11.1 2.2999ZM20.2 20.7999V22.3999H4V20.7999H7.3L8.687 10.3999H7.201V8.7999H8.801V7.9999C8.801 6.2349 10.236 4.7999 12.001 4.7999C13.766 4.7999 15.201 6.2349 15.201 7.9999V8.7999H16.801V10.3999H15.315L16.702 20.7999H20.202H20.2ZM9.68 15.0549L14.674 17.7079L14.404 15.6819L9.915 13.2879L9.679 15.0549H9.68ZM10.4 8.7999H13.6V7.9999C13.6 7.1179 12.882 6.3999 12 6.3999C11.118 6.3999 10.4 7.1179 10.4 7.9999V8.7999ZM10.3 10.3999L10.141 11.5949L14.143 13.7299L13.699 10.3999H10.3ZM8.914 20.7999H15.086L14.934 19.6579L9.454 16.7469L8.914 20.7999Z"/>
</svg>
