<svg width="24" height="24" viewBox="0 0 24 24" xmlns="http://www.w3.org/2000/svg">
<path d="M20.7661 4.83541C19.7081 3.77541 18.3001 3.19141 16.8001 3.19141C15.3001 3.19141 13.8911 3.77541 12.8341 4.83541C12.5151 5.15541 12.2351 5.50341 12.0001 5.86941C11.7651 5.50241 11.4851 5.15441 11.1661 4.83541C10.1081 3.77541 8.7001 3.19141 7.2001 3.19141C5.7001 3.19141 4.2911 3.77541 3.2341 4.83541C2.1801 5.89141 1.6001 7.29941 1.6001 8.80041C1.6001 10.3014 2.2111 11.7404 3.2341 12.7664L12.0001 21.5324L20.7661 12.7664C21.7891 11.7404 22.4001 10.2584 22.4001 8.80041C22.4001 7.34241 21.8201 5.89141 20.7661 4.83541ZM19.6341 11.6344L12.0001 19.2684L4.3661 11.6354C3.6361 10.9034 3.2001 9.84341 3.2001 8.80041C3.2001 7.75741 3.6141 6.71941 4.3661 5.96541C5.1211 5.20841 6.1281 4.79141 7.2001 4.79141C8.2721 4.79141 9.2781 5.20841 10.0341 5.96541C10.6301 6.56341 11.0361 7.28141 11.1861 8.00041H12.8141C12.9641 7.28141 13.3701 6.56341 13.9661 5.96541C14.7211 5.20841 15.7281 4.79141 16.8001 4.79141C17.8721 4.79141 18.8781 5.20841 19.6341 5.96541C20.3861 6.71941 20.8001 7.72641 20.8001 8.80041C20.8001 9.87441 20.3641 10.9024 19.6341 11.6344Z"/>
</svg>
