<svg width="24" height="24" viewBox="0 0 24 24" xmlns="http://www.w3.org/2000/svg">
<path d="M20.7661 4.83492C19.7081 3.77492 18.3001 3.19092 16.8001 3.19092C15.3001 3.19092 13.8911 3.77492 12.8341 4.83492C12.5151 5.15492 12.2351 5.50292 12.0001 5.86892C11.7651 5.50192 11.4851 5.15392 11.1661 4.83492C10.1081 3.77492 8.7001 3.19092 7.2001 3.19092C5.7001 3.19092 4.2911 3.77492 3.2341 4.83492C2.1801 5.89092 1.6001 7.29892 1.6001 8.79992C1.6001 10.3009 2.2111 11.7399 3.2341 12.7659L12.0001 21.5319L20.7661 12.7659C21.7891 11.7399 22.4001 10.2579 22.4001 8.79992C22.4001 7.34192 21.8201 5.89092 20.7661 4.83492Z"/>
</svg>
