<svg width="24" height="24" viewBox="0 0 24 24" xmlns="http://www.w3.org/2000/svg">
<path d="M12 6.39995C13.709 6.39995 15.317 7.06595 16.525 8.27495L15.394 9.40595C14.487 8.49895 13.282 7.99995 12 7.99995C10.718 7.99995 9.52799 8.50395 8.63399 9.41995L7.48899 8.30295C8.68599 7.07595 10.288 6.39995 12 6.39995ZM6.39999 10.4C5.90299 10.4 5.49999 10.803 5.49999 11.3C5.49999 11.797 5.90299 12.2 6.39999 12.2C6.89699 12.2 7.29999 11.797 7.29999 11.3C7.29999 10.803 6.89699 10.4 6.39999 10.4ZM21.6 12.8C21.6 15.469 20.53 17.9489 18.588 19.7819L18.357 20H5.64299L5.41199 19.7819C3.46999 17.9489 2.39999 15.469 2.39999 12.8C2.39999 7.50695 6.70699 3.19995 12 3.19995C17.293 3.19995 21.6 7.50695 21.6 12.8ZM20 12.8C20 8.38895 16.411 4.79995 12 4.79995C7.58899 4.79995 3.99999 8.38895 3.99999 12.8C3.99999 14.92 4.80999 16.896 6.28699 18.4H10.868L17.034 12.234L18.165 13.365L13.131 18.399H17.712C19.189 16.895 19.999 14.919 19.999 12.799L20 12.8Z"/>
</svg>
