<svg width="24" height="24" viewBox="0 0 24 24" xmlns="http://www.w3.org/2000/svg">
<path d="M16.4281 6.8001H7.5731C7.1461 6.8001 6.8011 7.1461 6.8011 7.5721V16.4271C6.8011 16.8541 7.1471 17.1991 7.5731 17.1991H16.4281C16.8551 17.1991 17.2001 16.8531 17.2001 16.4271V7.5721C17.2001 7.1451 16.8541 6.8001 16.4281 6.8001ZM9.8861 15.6281H8.3511V10.6981H9.8861V15.6281ZM9.1221 10.0111C8.6321 10.0111 8.2351 9.6141 8.2351 9.1241C8.2351 8.6341 8.6321 8.2371 9.1221 8.2371C9.6121 8.2371 10.0091 8.6341 10.0091 9.1241C10.0091 9.6141 9.6121 10.0111 9.1221 10.0111ZM15.6441 15.6281H14.1091V12.9371C14.1091 12.4681 13.9851 11.9151 13.3051 11.9151C12.7191 11.9151 12.3801 12.2401 12.3801 13.0711V15.6281H10.8451V10.6981H12.3271V11.3751C12.3271 11.3751 12.7821 10.5641 13.7811 10.5641C15.3391 10.5641 15.6441 11.5831 15.6441 12.8661V15.6281ZM12.0001 22.4001C6.2651 22.4001 1.6001 17.7351 1.6001 12.0001C1.6001 6.2651 6.2651 1.6001 12.0001 1.6001C17.7351 1.6001 22.4001 6.2651 22.4001 12.0001C22.4001 17.7351 17.7351 22.4001 12.0001 22.4001ZM12.0001 3.2001C7.1481 3.2001 3.2001 7.1481 3.2001 12.0001C3.2001 16.8521 7.1481 20.8001 12.0001 20.8001C16.8521 20.8001 20.8001 16.8521 20.8001 12.0001C20.8001 7.1481 16.8521 3.2001 12.0001 3.2001Z"/>
</svg>
