<svg width="24" height="24" viewBox="0 0 24 24" xmlns="http://www.w3.org/2000/svg">
<path d="M19.4932 3.2002H4.5072C3.7852 3.2002 3.2002 3.7852 3.2002 4.5072V19.4932C3.2002 20.2152 3.7852 20.8002 4.5072 20.8002H19.4932C20.2152 20.8002 20.8002 20.2152 20.8002 19.4932V4.5072C20.8002 3.7852 20.2152 3.2002 19.4932 3.2002ZM8.4232 18.1402H5.8252V9.7972H8.4232V18.1402ZM7.1302 8.6352C6.3012 8.6352 5.6292 7.96319 5.6292 7.1342C5.6292 6.3052 6.3012 5.6332 7.1302 5.6332C7.9592 5.6332 8.6312 6.3052 8.6312 7.1342C8.6312 7.96319 7.9592 8.6352 7.1302 8.6352ZM18.1662 18.1402H15.5682V13.5862C15.5682 12.7922 15.3582 11.8562 14.2072 11.8562C13.2152 11.8562 12.6422 12.4062 12.6422 13.8132V18.1402H10.0442V9.7972H12.5522V10.9432C12.5522 10.9432 13.3222 9.5712 15.0122 9.5712C17.6492 9.5712 18.1652 11.2952 18.1652 13.4672V18.1402H18.1662Z"/>
</svg>
