<svg width="24" height="24" viewBox="0 0 24 24" xmlns="http://www.w3.org/2000/svg">
<path d="M8.89995 12C8.89995 12.497 8.49695 12.9 7.99995 12.9C7.50295 12.9 7.09995 12.497 7.09995 12C7.09995 11.503 7.50295 11.1 7.99995 11.1C8.49695 11.1 8.89995 11.503 8.89995 12ZM17.642 7.48895L16.316 8.81495C17.933 8.97395 19.2 10.341 19.2 11.999C19.2 13.763 17.764 15.199 16 15.199H9.93095L8.33095 16.799H16C18.647 16.799 20.8 14.646 20.8 11.999C20.8 9.92895 19.483 8.16095 17.642 7.48795V7.48895ZM7.68395 15.184C6.06695 15.025 4.79995 13.658 4.79995 12C4.79995 10.236 6.23595 8.79995 7.99995 8.79995H14.069L15.669 7.19995H7.99995C5.35295 7.19995 3.19995 9.35295 3.19995 12C3.19995 14.07 4.51695 15.838 6.35795 16.511L7.68395 15.185V15.184ZM16 11.2H10.5V12.8H16V11.2Z"/>
</svg>
