<svg width="24" height="24" viewBox="0 0 24 24" xmlns="http://www.w3.org/2000/svg">
<path d="M3.9 8.9001C4.39706 8.9001 4.8 8.49715 4.8 8.0001C4.8 7.50304 4.39706 7.1001 3.9 7.1001C3.40294 7.1001 3 7.50304 3 8.0001C3 8.49715 3.40294 8.9001 3.9 8.9001Z"/>
<path d="M4.8 12.0001C4.8 12.4972 4.39706 12.9001 3.9 12.9001C3.40294 12.9001 3 12.4972 3 12.0001C3 11.503 3.40294 11.1001 3.9 11.1001C4.39706 11.1001 4.8 11.503 4.8 12.0001Z"/>
<path d="M4.8 16.0001C4.8 16.4972 4.39706 16.9001 3.9 16.9001C3.40294 16.9001 3 16.4972 3 16.0001C3 15.503 3.40294 15.1001 3.9 15.1001C4.39706 15.1001 4.8 15.503 4.8 16.0001Z"/>
<path d="M6.4 7.2001H20.8V8.8001H6.4V7.2001Z"/>
<path d="M17.6 15.2001H6.4V16.8001H17.6V15.2001Z"/>
<path d="M6.4 11.2001H14.4V12.8001H6.4V11.2001Z"/>
</svg>
