<svg width="24" height="24" viewBox="0 0 24 24" xmlns="http://www.w3.org/2000/svg">
<path d="M16.8002 18.6001C17.2972 18.6001 17.7002 18.1971 17.7002 17.7001C17.7002 17.203 17.2972 16.8001 16.8002 16.8001C16.3031 16.8001 15.9002 17.203 15.9002 17.7001C15.9002 18.1971 16.3031 18.6001 16.8002 18.6001Z"/>
<path d="M20.7202 11.9511L17.1462 3.10207C16.7782 2.19007 15.9042 1.60107 14.9212 1.60107H9.08017C8.09617 1.60107 7.22317 2.19007 6.85517 3.10207L3.28117 11.9511C3.13117 12.3211 3.17517 12.7401 3.39917 13.0721C3.62217 13.4031 3.99417 13.6011 4.39417 13.6011H11.2012V19.2011H10.5102C9.51517 19.2011 8.61217 19.8271 8.26317 20.7581L7.64717 22.4011H9.35617L9.76117 21.3201C9.87717 21.0101 10.1782 20.8011 10.5102 20.8011H13.6922C14.0242 20.8011 14.3252 21.0101 14.4412 21.3201L14.8462 22.4011H16.5552L15.9392 20.7581C15.5902 19.8271 14.6872 19.2011 13.6922 19.2011H12.8012V13.6011H16.0012V15.2011H17.6012V13.6011H19.6082C20.0072 13.6011 20.3792 13.4031 20.6032 13.0721C20.8262 12.7411 20.8702 12.3221 20.7212 11.9511H20.7202ZM4.98617 12.0001L8.33817 3.70007C8.46117 3.39607 8.75217 3.20007 9.08017 3.20007H14.9212C15.2492 3.20007 15.5402 3.39607 15.6632 3.70007L19.0152 12.0001H4.98617Z"/>
</svg>
