<svg width="24" height="24" viewBox="0 0 24 24" xmlns="http://www.w3.org/2000/svg">
<path d="M9.26601 14.1661L8.13501 13.0351L10.401 10.7691V5.6001H12.001V11.4311L9.26601 14.1661ZM22.4 16.8001C22.4 19.8881 19.888 22.4001 16.8 22.4001C13.712 22.4001 11.2 19.8881 11.2 16.8001C11.2 13.7121 13.712 11.2001 16.8 11.2001C17.651 11.2001 18.457 11.3921 19.18 11.7321C19.192 11.5561 19.2 11.3791 19.2 11.2001C19.2 6.7891 15.611 3.2001 11.2 3.2001C6.78901 3.2001 3.20001 6.7891 3.20001 11.2001C3.20001 14.3591 5.04101 17.0951 7.70501 18.3951L6.52001 19.5801C3.58701 17.9351 1.60001 14.7961 1.60001 11.2001C1.60001 5.9071 5.90701 1.6001 11.2 1.6001C16.493 1.6001 20.8 5.9071 20.8 11.2001C20.8 11.7311 20.756 12.2521 20.672 12.7601C21.736 13.7801 22.4 15.2131 22.4 16.8001ZM20.8 16.8001C20.8 14.5941 19.006 12.8001 16.8 12.8001C14.594 12.8001 12.8 14.5941 12.8 16.8001C12.8 19.0061 14.594 20.8001 16.8 20.8001C19.006 20.8001 20.8 19.0061 20.8 16.8001ZM16.328 15.2881C16.468 15.1431 16.664 15.0721 16.929 15.0721C17.134 15.0721 17.295 15.1381 17.423 15.2751C17.558 15.4191 17.675 15.6521 17.769 15.9651L17.799 16.0641L19.001 15.6781L18.971 15.5841C18.815 15.0911 18.565 14.7011 18.227 14.4231C17.885 14.1421 17.446 14.0001 16.923 14.0001C16.655 14.0001 16.397 14.0371 16.157 14.1111C15.914 14.1851 15.692 14.3011 15.499 14.4551C15.305 14.6091 15.137 14.8071 14.998 15.0441C14.895 15.2201 14.725 15.6401 14.645 16.2001H14.002V17.4001H14.645C14.725 17.9601 14.895 18.3801 14.998 18.5561C15.137 18.7941 15.305 18.9921 15.499 19.1451C15.693 19.2991 15.914 19.4141 16.157 19.4891C16.398 19.5631 16.655 19.6001 16.923 19.6001C17.446 19.6001 17.885 19.4581 18.227 19.1771C18.565 18.8991 18.816 18.5081 18.971 18.0161L19.001 17.9221L17.799 17.5361L17.769 17.6351C17.675 17.9481 17.559 18.1801 17.423 18.3251C17.295 18.4611 17.133 18.5281 16.929 18.5281C16.664 18.5281 16.468 18.4571 16.328 18.3121C16.183 18.1611 16.078 17.9471 16.018 17.6811C16.018 17.6811 15.998 17.5651 15.979 17.4001H16.803V16.2001H15.979C15.998 16.0351 16.018 15.9191 16.018 15.9191C16.078 15.6531 16.183 15.4391 16.328 15.2881ZM8.86401 19.1641C8.51301 19.5151 8.51301 20.0851 8.86401 20.4371C9.21501 20.7891 9.78501 20.7891 10.137 20.4371C10.488 20.0861 10.488 19.5161 10.137 19.1641C9.78601 18.8121 9.21601 18.8121 8.86401 19.1641Z"/>
</svg>
