<svg width="24" height="24" viewBox="0 0 24 24" xmlns="http://www.w3.org/2000/svg">
<path d="M9.266 14.1661L8.135 13.0351L10.401 10.7691V5.6001H12.001V11.4311L9.266 14.1661ZM8.864 19.1641C8.513 19.5151 8.513 20.0851 8.864 20.4371C9.215 20.7881 9.785 20.7881 10.137 20.4371C10.488 20.0861 10.488 19.5161 10.137 19.1641C9.786 18.8131 9.216 18.8131 8.864 19.1641ZM22.4 16.8001C22.4 19.8881 19.888 22.4001 16.8 22.4001C13.712 22.4001 11.2 19.8881 11.2 16.8001C11.2 13.7121 13.712 11.2001 16.8 11.2001C17.651 11.2001 18.457 11.3921 19.18 11.7331C19.192 11.5571 19.2 11.3801 19.2 11.2001C19.2 6.7891 15.611 3.2001 11.2 3.2001C6.789 3.2001 3.2 6.7891 3.2 11.2001C3.2 14.3591 5.041 17.0951 7.705 18.3951L6.52 19.5801C3.587 17.9351 1.6 14.7961 1.6 11.2001C1.6 5.9071 5.907 1.6001 11.2 1.6001C16.493 1.6001 20.8 5.9071 20.8 11.2001C20.8 11.7311 20.755 12.2521 20.671 12.7591C21.735 13.7791 22.4 15.2131 22.4 16.8001ZM20.8 16.8001C20.8 14.5941 19.006 12.8001 16.8 12.8001C14.594 12.8001 12.8 14.5941 12.8 16.8001C12.8 19.0061 14.594 20.8001 16.8 20.8001C19.006 20.8001 20.8 19.0061 20.8 16.8001ZM18.687 17.1291C18.6 16.9611 18.479 16.8181 18.326 16.7031C18.18 16.5931 18.006 16.5021 17.809 16.4311C17.622 16.3631 17.403 16.3051 17.212 16.2571L17.13 16.2361C16.972 16.1951 16.814 16.1551 16.682 16.1231C16.557 16.0921 16.439 16.0251 16.377 15.9721C16.36 15.9571 16.307 15.9121 16.307 15.7781C16.307 15.6911 16.334 15.6191 16.388 15.5591C16.441 15.5011 16.539 15.4601 16.65 15.4491C16.826 15.4321 16.986 15.4401 17.101 15.4711C17.238 15.5081 17.354 15.5641 17.454 15.6421C17.568 15.7311 17.678 15.8311 17.782 15.9391L17.926 16.0891L18.78 15.2901L18.66 15.1611C18.577 15.0721 18.489 14.9871 18.401 14.9091C18.307 14.8271 18.202 14.7531 18.087 14.6891C17.972 14.6241 17.84 14.5691 17.696 14.5241C17.606 14.4961 17.519 14.4751 17.399 14.4521V13.8011H16.199V14.4651C16.113 14.4861 16.023 14.5121 15.949 14.5401C15.754 14.6141 15.586 14.7161 15.449 14.8401C15.311 14.9661 15.203 15.1171 15.128 15.2901C15.054 15.4611 15.016 15.6521 15.016 15.8571C15.016 16.0931 15.064 16.2981 15.158 16.4651C15.251 16.6301 15.375 16.7691 15.528 16.8791C15.674 16.9841 15.843 17.0711 16.032 17.1371C16.208 17.1991 16.392 17.2531 16.575 17.2981L17.098 17.4311C17.257 17.4801 17.374 17.5381 17.445 17.6031C17.5 17.6541 17.527 17.7251 17.527 17.8211C17.527 17.9311 17.499 18.0101 17.442 18.0621C17.384 18.1161 17.263 18.1601 17.127 18.1791C16.971 18.2001 16.819 18.1981 16.661 18.1741C16.508 18.1501 16.356 18.0881 16.209 17.9881C16.052 17.8821 15.91 17.7501 15.787 17.5951L15.642 17.4141L14.815 18.2291L14.92 18.3531C15.016 18.4671 15.12 18.5721 15.228 18.6641C15.34 18.7601 15.464 18.8441 15.598 18.9141C15.73 18.9841 15.879 19.0431 16.04 19.0911C16.088 19.1051 16.143 19.1181 16.198 19.1311V19.8021H17.398V19.1741C17.561 19.1441 17.762 19.0991 17.911 19.0361C18.116 18.9491 18.288 18.8391 18.422 18.7081C18.558 18.5751 18.659 18.4211 18.723 18.2511C18.784 18.0861 18.816 17.9121 18.816 17.7321C18.816 17.5001 18.772 17.2981 18.686 17.1301L18.687 17.1291Z"/>
</svg>
