<svg width="24" height="24" viewBox="0 0 24 24" xmlns="http://www.w3.org/2000/svg">
<path d="M17.6 10.4001V7.2001C17.6 5.7181 17.014 4.3151 15.949 3.2511C14.885 2.1871 13.482 1.6001 12 1.6001C10.518 1.6001 9.115 2.1861 8.051 3.2511C6.987 4.3151 6.4 5.7181 6.4 7.2001V10.4001H4V22.4001H20V10.4001H17.6ZM8 7.2001C8 5.0321 9.832 3.2001 12 3.2001C14.168 3.2001 16 5.0321 16 7.2001V10.4001H8V7.2001ZM18.4 20.8001H5.6V16.8001H9.5V15.2001H5.6V12.0001H18.4V20.8001ZM12 16.9001C11.503 16.9001 11.1 16.4971 11.1 16.0001C11.1 15.5031 11.503 15.1001 12 15.1001C12.497 15.1001 12.9 15.5031 12.9 16.0001C12.9 16.4971 12.497 16.9001 12 16.9001Z"/>
</svg>
