<svg width="24" height="24" viewBox="0 0 24 24" xmlns="http://www.w3.org/2000/svg">
<path d="M10.6 20.0001C10.6 20.4971 10.197 20.9001 9.7 20.9001C9.203 20.9001 8.8 20.4971 8.8 20.0001C8.8 19.5031 9.203 19.1001 9.7 19.1001C10.197 19.1001 10.6 19.5031 10.6 20.0001ZM21.034 22.1661L18.892 20.0241C18.183 20.5131 17.325 20.8001 16.4 20.8001C13.974 20.8001 12 18.8261 12 16.4001C12 13.9741 13.974 12.0001 16.4 12.0001C17.12 12.0001 17.799 12.1751 18.4 12.4831V8.8001H12.8V3.2001H5.6V19.2001H7.2V20.8001H4V1.6001H13.931L20 7.6691V13.8751C20.503 14.5901 20.8 15.4611 20.8 16.4001C20.8 17.3391 20.513 18.1831 20.024 18.8921L22.166 21.0341L21.034 22.1661ZM17.269 7.2001L14.4 4.3311V7.2001H17.269ZM19.2 16.4001C19.2 14.8561 17.944 13.6001 16.4 13.6001C14.856 13.6001 13.6 14.8561 13.6 16.4001C13.6 17.9441 14.856 19.2001 16.4 19.2001C17.944 19.2001 19.2 17.9441 19.2 16.4001Z"/>
</svg>
