<svg width="24" height="24" viewBox="0 0 24 24" xmlns="http://www.w3.org/2000/svg">
<path d="M22.4001 20.8H15.2001V18.128C14.4701 17.858 13.3151 17.6 12.0001 17.6C10.6851 17.6 9.5391 17.859 8.8001 18.13V20.8H1.6001V15.942C1.6001 15.545 1.7961 15.174 2.1251 14.949C4.1521 13.563 7.6591 12.8 12.0001 12.8C16.3411 12.8 19.8171 13.581 21.8631 14.944C22.1991 15.168 22.4001 15.542 22.4001 15.945V20.8ZM16.8001 19.2H20.8001V16.163C18.9951 15.056 15.7321 14.4 12.0001 14.4C8.2681 14.4 4.9761 15.038 3.2001 16.157V19.2H7.2001V17.858C7.2001 17.376 7.4881 16.942 7.9331 16.752C9.0421 16.281 10.5621 15.999 12.0001 15.999C13.4381 15.999 14.9771 16.281 16.0721 16.752C16.5141 16.942 16.8001 17.376 16.8001 17.856V19.2ZM13.6001 3.19995V4.79995H15.6691L12.0001 8.46895L7.7661 4.23495L6.6351 5.36595L12.0011 10.732L16.8011 5.93195V8.00095H18.4011V3.20095H13.6011L13.6001 3.19995Z"/>
</svg>
