<svg width="24" height="24" viewBox="0 0 24 24" xmlns="http://www.w3.org/2000/svg">
<path d="M4.0001 12.3002C3.5031 12.3002 3.1001 12.7032 3.1001 13.2002C3.1001 13.6972 3.5031 14.1002 4.0001 14.1002C4.4971 14.1002 4.9001 13.6972 4.9001 13.2002C4.9001 12.7032 4.4971 12.3002 4.0001 12.3002ZM14.4001 3.2002V4.8002H18.0691L15.5761 7.2932C14.2701 6.2352 12.6091 5.6002 10.8011 5.6002C7.4861 5.6002 4.6621 7.7342 3.6251 10.7002H5.3481C6.2981 8.6372 8.3841 7.2002 10.8001 7.2002C14.1081 7.2002 16.8001 9.89219 16.8001 13.2002C16.8001 16.5082 14.1081 19.2002 10.8001 19.2002C8.3841 19.2002 6.2981 17.7632 5.3481 15.7002H3.6251C4.6611 18.6662 7.4861 20.8002 10.8011 20.8002C14.9921 20.8002 18.4011 17.3912 18.4011 13.2002C18.4011 11.3922 17.7661 9.7312 16.7081 8.4252L19.2011 5.9322V9.6012H20.8011V3.2002H14.4001Z"/>
</svg>
