<svg width="24" height="24" viewBox="0 0 24 24" xmlns="http://www.w3.org/2000/svg">
<path d="M11.3002 21.7001C11.3002 22.1971 10.8972 22.6001 10.4002 22.6001C9.90318 22.6001 9.50018 22.1971 9.50018 21.7001C9.50018 21.2031 9.90318 20.8001 10.4002 20.8001C10.8972 20.8001 11.3002 21.2031 11.3002 21.7001ZM14.8002 4.4001C14.8002 2.8561 13.5442 1.6001 12.0002 1.6001C10.4562 1.6001 9.20018 2.8561 9.20018 4.4001C9.20018 5.9441 10.4562 7.2001 12.0002 7.2001C13.5442 7.2001 14.8002 5.9441 14.8002 4.4001ZM13.2002 4.4001C13.2002 5.0621 12.6622 5.6001 12.0002 5.6001C11.3382 5.6001 10.8002 5.0621 10.8002 4.4001C10.8002 3.7381 11.3382 3.2001 12.0002 3.2001C12.6622 3.2001 13.2002 3.7381 13.2002 4.4001ZM14.4002 16.9301L16.5592 10.4531C16.6842 10.0781 16.6132 9.6521 16.3702 9.3151C16.1342 8.9881 15.7812 8.8001 15.4002 8.8001H8.60018C8.21918 8.8001 7.86618 8.9881 7.63018 9.3151C7.38618 9.6531 7.31618 10.0781 7.44118 10.4531L9.60018 16.9301V19.2001H11.2002V16.6701L9.11018 10.4001H14.8902L12.8002 16.6701V22.4001H14.4002V16.9301Z"/>
</svg>
