<svg width="24" height="24" viewBox="0 0 24 24" xmlns="http://www.w3.org/2000/svg">
<path d="M20.3421 3.56494C20.0511 3.33594 19.6781 3.25394 19.3181 3.34094L14.6661 4.46194L9.6141 3.24394C9.4301 3.19994 9.2351 3.19994 9.0511 3.24394L4.1181 4.43294C3.5771 4.56294 3.1991 5.04294 3.1991 5.59994V14.0989H4.7991V5.91594L8.3991 5.04794V18.3159L5.4251 19.0329L3.1991 19.5819V19.6919C3.1991 20.0619 3.3661 20.4059 3.6571 20.6349C3.9481 20.8639 4.3211 20.9459 4.6811 20.8589L9.3331 19.7379L14.3851 20.9559C14.4771 20.9779 14.5721 20.9889 14.6661 20.9889C14.7601 20.9889 14.8551 20.9779 14.9471 20.9559L19.8801 19.7669C20.4211 19.6369 20.7991 19.1569 20.7991 18.5999V4.50794C20.7991 4.13794 20.6331 3.79394 20.3421 3.56494ZM10.0001 4.98394L13.9001 5.92394V19.1919L10.0001 18.2519V4.98394ZM19.2001 18.2839L15.5001 19.1759V5.90794L19.2001 5.01594V18.2839ZM4.0001 17.5999C3.5031 17.5999 3.1001 17.1969 3.1001 16.6999C3.1001 16.2029 3.5031 15.7999 4.0001 15.7999C4.4971 15.7999 4.9001 16.2029 4.9001 16.6999C4.9001 17.1969 4.4971 17.5999 4.0001 17.5999Z"/>
</svg>
