<svg width="24" height="24" viewBox="0 0 24 24" xmlns="http://www.w3.org/2000/svg">
<path d="M20.4001 6.39995H16.8001V5.19995C16.8001 4.09695 15.9931 3.19995 15.0001 3.19995H9.0001C8.0071 3.19995 7.2001 4.09695 7.2001 5.19995V6.39995H3.6001C2.4971 6.39995 1.6001 7.29695 1.6001 8.39995V18.8C1.6001 19.903 2.4971 20.8 3.6001 20.8H20.4001C21.5031 20.8 22.4001 19.903 22.4001 18.8V8.39995C22.4001 7.29695 21.5031 6.39995 20.4001 6.39995ZM8.8001 5.19995C8.8001 4.95095 8.9391 4.79995 9.0001 4.79995H15.0001C15.0611 4.79995 15.2001 4.95095 15.2001 5.19995V6.39995H8.8001V5.19995ZM20.8001 18.8C20.8001 19.021 20.6211 19.2 20.4001 19.2H3.6001C3.3791 19.2 3.2001 19.021 3.2001 18.8V8.39995C3.2001 8.17895 3.3791 7.99995 3.6001 7.99995H20.4001C20.6211 7.99995 20.8001 8.17895 20.8001 8.39995V18.8ZM12.8001 12.8H15.2001V14.4H12.8001V16.8H11.2001V14.4H8.8001V12.8H11.2001V10.4H12.8001V12.8Z"/>
</svg>
