<svg width="24" height="24" viewBox="0 0 24 24" xmlns="http://www.w3.org/2000/svg">
<path d="M12 8.0001C10.236 8.0001 8.8 6.5641 8.8 4.8001C8.8 3.0361 10.236 1.6001 12 1.6001C13.764 1.6001 15.2 3.0361 15.2 4.8001C15.2 6.5641 13.764 8.0001 12 8.0001ZM12 3.2001C11.118 3.2001 10.4 3.9181 10.4 4.8001C10.4 5.6821 11.118 6.4001 12 6.4001C12.882 6.4001 13.6 5.6821 13.6 4.8001C13.6 3.9181 12.882 3.2001 12 3.2001ZM19.2 16.8001C19.2 12.8301 15.97 9.6001 12 9.6001C8.03 9.6001 4.8 12.8301 4.8 16.8001V19.1001H8V17.5001H6.4V16.8001C6.4 13.7121 8.912 11.2001 12 11.2001C15.088 11.2001 17.6 13.7121 17.6 16.8001V17.6001H13V19.2001H19.2V16.8001ZM10.5 17.4001C10.003 17.4001 9.6 17.8031 9.6 18.3001C9.6 18.7971 10.003 19.2001 10.5 19.2001C10.997 19.2001 11.4 18.7971 11.4 18.3001C11.4 17.8031 10.997 17.4001 10.5 17.4001ZM20 20.8001H4V22.4001H20V20.8001Z"/>
</svg>
