<svg width="24" height="24" viewBox="0 0 24 24" xmlns="http://www.w3.org/2000/svg">
<path d="M11.9999 16.0001C14.6469 16.0001 16.7999 13.8471 16.7999 11.2001V6.4001C16.7999 3.7531 14.6469 1.6001 11.9999 1.6001C9.3529 1.6001 7.1999 3.7531 7.1999 6.4001V11.2001C7.1999 13.8471 9.3529 16.0001 11.9999 16.0001ZM11.9999 3.2001C13.7649 3.2001 15.1999 4.6361 15.1999 6.4001V11.2001C15.1999 12.9641 13.7649 14.4001 11.9999 14.4001C10.2349 14.4001 8.7999 12.9641 8.7999 11.2001H13.5999V9.6001H8.7999V8.0001H11.9999V6.4001H8.7999C8.7999 4.6361 10.2349 3.2001 11.9999 3.2001ZM12.7999 19.1601V20.8001H15.1999V22.4001H8.7999V20.8001H11.1999V19.1601C8.5129 18.8921 6.2129 17.2891 4.9749 15.0251L6.1679 13.8321C7.1739 16.0521 9.4079 17.6001 11.9999 17.6001C15.5289 17.6001 18.3999 14.7291 18.3999 11.2001H19.9999C19.9999 15.3411 16.8369 18.7571 12.7999 19.1601ZM4.7999 12.9001C4.3029 12.9001 3.8999 12.4971 3.8999 12.0001C3.8999 11.5031 4.3029 11.1001 4.7999 11.1001C5.2969 11.1001 5.6999 11.5031 5.6999 12.0001C5.6999 12.4971 5.2969 12.9001 4.7999 12.9001Z"/>
</svg>
