<svg width="24" height="24" viewBox="0 0 24 24" xmlns="http://www.w3.org/2000/svg">
<path d="M18.3999 11.2001H19.9999C19.9999 15.3411 16.8369 18.7571 12.7999 19.1601V20.8001H15.1999V22.4001H8.79987V20.8001H11.1999V19.1591C10.3699 19.0761 9.57787 18.8661 8.84187 18.5491L10.0849 17.3061C10.6899 17.4961 11.3329 17.6001 11.9999 17.6001C15.5289 17.6001 18.3999 14.7291 18.3999 11.2001ZM4.79987 12.9001C5.29687 12.9001 5.69987 12.4971 5.69987 12.0001C5.69987 11.5031 5.29687 11.1001 4.79987 11.1001C4.30287 11.1001 3.89987 11.5031 3.89987 12.0001C3.89987 12.4971 4.30287 12.9001 4.79987 12.9001ZM3.96887 21.1591L2.83887 20.0291L6.18487 16.6831C5.71487 16.1851 5.30587 15.6291 4.97487 15.0241L6.16787 13.8311C6.45587 14.4671 6.84487 15.0481 7.31487 15.5531L8.44587 14.4221C7.67187 13.5701 7.19987 12.4391 7.19987 11.1991V6.39912C7.19987 3.75212 9.35287 1.59912 11.9999 1.59912C14.6469 1.59912 16.6229 3.58112 16.7879 6.07912L20.0289 2.83812L21.1589 3.96812L3.96887 21.1591ZM8.79987 9.60012H13.2689L15.1999 7.66912V6.40012C15.1999 4.63612 13.7649 3.20012 11.9999 3.20012C10.2349 3.20012 8.79987 4.63612 8.79987 6.40012H11.9999V8.00012H8.79987V9.60012ZM8.79987 11.2001C8.79987 11.9981 9.09387 12.7281 9.57887 13.2891L11.6679 11.2001H8.79887H8.79987ZM14.0809 13.6281L11.7179 15.9911C11.8109 15.9961 11.9049 16.0001 11.9999 16.0001C14.6469 16.0001 16.7999 13.8471 16.7999 11.2001V10.9091L14.4279 13.2811C14.3209 13.4051 14.2049 13.5211 14.0809 13.6281Z"/>
</svg>
