<svg width="24" height="24" viewBox="0 0 24 24" xmlns="http://www.w3.org/2000/svg">
<path d="M16.994 7.8631L15.531 6.4001H16.8V4.0001C16.8 2.6771 15.723 1.6001 14.4 1.6001H9.6C8.277 1.6001 7.2 2.6771 7.2 4.0001V6.4001H8.469L7.006 7.8631C6.099 8.7701 5.6 9.9751 5.6 11.2571V19.0001H7.2V14.0111C7.742 14.2681 8.345 14.4001 9 14.4001C10.255 14.4001 11.551 13.8441 12.555 12.8761C13.132 12.3191 13.951 12.0001 14.8 12.0001C15.417 12.0001 16.067 12.1961 16.634 12.5521L16.8 12.6851V20.8011H9V22.4011H18.4V11.2581C18.4 9.9761 17.901 8.7701 16.994 7.8641V7.8631ZM8.8 4.0001C8.8 3.5591 9.159 3.2001 9.6 3.2001H14.4C14.841 3.2001 15.2 3.5591 15.2 4.0001V4.8001H8.8V4.0001ZM14.8 10.4001C13.54 10.4001 12.318 10.8831 11.445 11.7241C10.736 12.4081 9.845 12.8001 9 12.8001C8.47 12.8001 8.023 12.6781 7.633 12.4271L7.2 12.1571V11.2571C7.2 10.4021 7.533 9.5991 8.137 8.9941L10.731 6.4001H13.268L15.862 8.9941C16.362 9.4941 16.676 10.1321 16.769 10.8211C16.135 10.5471 15.459 10.4001 14.8 10.4001ZM7.3 21.6001C7.3 22.0971 6.897 22.5001 6.4 22.5001C5.903 22.5001 5.5 22.0971 5.5 21.6001C5.5 21.1031 5.903 20.7001 6.4 20.7001C6.897 20.7001 7.3 21.1031 7.3 21.6001Z"/>
</svg>
