<svg width="24" height="24" viewBox="0 0 24 24" xmlns="http://www.w3.org/2000/svg">
<path d="M22.4001 20.8H15.2001V18.13C14.4611 17.859 13.3011 17.6 12.0001 17.6C10.6991 17.6 9.5301 17.858 8.8001 18.128V20.8H1.6001V15.945C1.6001 15.542 1.8011 15.168 2.1371 14.944C4.1831 13.582 7.7781 12.8 12.0001 12.8C16.2221 12.8 19.8481 13.563 21.8751 14.949C22.2041 15.174 22.4001 15.545 22.4001 15.942V20.8ZM16.8001 19.2H20.8001V16.157C19.0241 15.039 15.8371 14.4 12.0001 14.4C8.1631 14.4 5.0051 15.057 3.2001 16.163V19.2H7.2001V17.857C7.2001 17.377 7.4861 16.944 7.9281 16.753C9.0231 16.281 10.5461 16 12.0001 16C13.4541 16 14.9581 16.281 16.0671 16.753C16.5121 16.942 16.8001 17.376 16.8001 17.859V19.2ZM17.3661 5.36595L16.2351 4.23495L12.0011 8.46895L8.3321 4.79995H10.4011V3.19995H5.6011V7.99995H7.2011V5.93095L12.0011 10.731L17.3671 5.36495L17.3661 5.36595Z"/>
</svg>
