<svg width="24" height="24" viewBox="0 0 24 24" xmlns="http://www.w3.org/2000/svg">
<path d="M19.9449 17.5999C19.5969 17.6039 19.3119 17.3249 19.3089 16.9769C19.3079 16.8489 19.3449 16.7239 19.4169 16.6179C20.6219 14.8389 20.6219 12.5049 19.4169 10.7249C19.2209 10.4399 19.2929 10.0509 19.5779 9.85492C19.5829 9.85192 19.5879 9.84792 19.5929 9.84492C19.8859 9.64792 20.2839 9.72592 20.4809 10.0189C21.9729 12.2239 21.9729 15.1159 20.4809 17.3209C20.3589 17.4959 20.1589 17.6019 19.9449 17.5999ZM18.6499 16.2849C19.7369 14.6999 19.7369 12.6099 18.6499 11.0259C18.4489 10.7379 18.0539 10.6639 17.7619 10.8599C17.7619 10.8599 17.7599 10.8609 17.7599 10.8619C17.4719 11.0589 17.3979 11.4519 17.5939 11.7399C17.9809 12.3059 18.1869 12.9749 18.1859 13.6599C18.1899 14.3449 17.9829 15.0159 17.5939 15.5799C17.5929 15.5819 17.5919 15.5829 17.5909 15.5849C17.3969 15.8739 17.4739 16.2659 17.7619 16.4599C17.8679 16.5329 17.9929 16.5719 18.1219 16.5709C18.3349 16.5709 18.5329 16.4629 18.6499 16.2849ZM15.1419 10.9119C16.4629 11.1869 17.4029 12.3599 17.3829 13.7089C17.3589 15.2629 16.0809 16.5029 14.5269 16.4799H5.8059C3.9269 16.4799 2.3999 14.9699 2.3999 13.1199C2.4079 11.4449 3.6409 10.0289 5.2979 9.78992C6.0149 7.75492 7.9399 6.39492 10.0979 6.39992C12.7239 6.39992 14.8899 8.37992 15.1379 10.9149L15.1419 10.9119ZM14.5199 15.2229C15.1789 15.2369 15.7739 14.8329 16.0049 14.2159C16.3049 13.4139 15.8969 12.5209 15.0949 12.2209C15.0479 12.4789 14.9839 12.7329 14.9029 12.9819C14.8149 13.2419 14.5709 13.4179 14.2959 13.4169C14.2279 13.4179 14.1599 13.4069 14.0959 13.3859C14.0939 13.3859 14.0909 13.3839 14.0889 13.3839C13.7579 13.2739 13.5789 12.9169 13.6879 12.5859C13.8159 12.2079 13.8809 11.8119 13.8799 11.4129C13.8799 9.34692 12.1769 7.66692 10.0899 7.66692C8.6129 7.66692 7.2689 8.52292 6.6439 9.86092C7.2359 10.0079 7.7769 10.3119 8.2109 10.7409C8.2109 10.7409 8.2129 10.7429 8.2139 10.7439C8.4599 10.9909 8.4589 11.3909 8.2109 11.6369C7.9589 11.8819 7.5589 11.8819 7.3069 11.6369C6.9159 11.2439 6.3849 11.0219 5.8309 11.0189C4.6689 11.0109 3.7219 11.9469 3.7139 13.1079C3.7059 14.2699 4.6419 15.2169 5.8029 15.2249H14.5229H14.5199V15.2229Z"/>
</svg>
