<svg width="24" height="24" viewBox="0 0 24 24" xmlns="http://www.w3.org/2000/svg">
<path d="M17.6751 16.0001C17.4271 16.0031 17.2231 15.8031 17.2211 15.5551C17.2211 15.4641 17.2471 15.3741 17.2981 15.2981C18.1591 14.0271 18.1591 12.3601 17.2981 11.0891C17.1581 10.8861 17.2101 10.6071 17.4131 10.4681C17.4171 10.4661 17.4201 10.4631 17.4241 10.4611C17.6341 10.3201 17.9181 10.3761 18.0581 10.5861C19.1241 12.1611 19.1241 14.2271 18.0581 15.8021C17.9711 15.9271 17.8281 16.0011 17.6751 16.0001ZM16.7501 15.0611C17.5261 13.9291 17.5261 12.4361 16.7501 11.3041C16.6061 11.0981 16.3241 11.0461 16.1161 11.1851C16.1161 11.1851 16.1151 11.1851 16.1141 11.1861C15.9081 11.3271 15.8551 11.6071 15.9961 11.8131C16.2721 12.2171 16.4201 12.6951 16.4191 13.1841C16.4221 13.6741 16.2741 14.1521 15.9961 14.5551C15.9961 14.5561 15.9941 14.5571 15.9941 14.5591C15.8551 14.7651 15.9101 15.0451 16.1161 15.1841C16.1911 15.2361 16.2811 15.2641 16.3731 15.2631C16.5251 15.2631 16.6671 15.1861 16.7501 15.0591V15.0611ZM14.2441 11.2231C15.1881 11.4191 15.8591 12.2571 15.8441 13.2211C15.8271 14.3311 14.9141 15.2171 13.8041 15.2001H7.5751C6.2331 15.2001 5.1421 14.1221 5.1421 12.8001C5.1471 11.6041 6.0281 10.5921 7.2121 10.4221C7.7241 8.9681 9.0991 7.9971 10.6411 8.0001C12.5161 8.0001 14.0641 9.4141 14.2411 11.2251L14.2431 11.2231H14.2441ZM13.8001 14.3021C14.2711 14.3121 14.6961 14.0231 14.8611 13.5821C15.0751 13.0091 14.7841 12.3711 14.2111 12.1571C14.1771 12.3411 14.1321 12.5231 14.0741 12.7001C14.0111 12.8861 13.8371 13.0111 13.6401 13.0111C13.5911 13.0111 13.5431 13.0041 13.4971 12.9891C13.4951 12.9891 13.4941 12.9881 13.4921 12.9871C13.2561 12.9091 13.1271 12.6541 13.2061 12.4171C13.2981 12.1471 13.3441 11.8641 13.3431 11.5791C13.3431 10.1031 12.1261 8.9031 10.6361 8.9031C9.5811 8.9031 8.6211 9.5141 8.1741 10.4701C8.5971 10.5751 8.9841 10.7921 9.2931 11.0991C9.2931 11.0991 9.2941 11.1001 9.2951 11.1011C9.4711 11.2781 9.4701 11.5631 9.2931 11.7391C9.1131 11.9141 8.8271 11.9141 8.6471 11.7391C8.3681 11.4591 7.9891 11.3001 7.5931 11.2971C6.7631 11.2921 6.0861 11.9601 6.0811 12.7891C6.0761 13.6191 6.7441 14.2961 7.5731 14.3011H13.8021H13.8001V14.3021ZM12.0001 22.4001C6.2651 22.4001 1.6001 17.7351 1.6001 12.0001C1.6001 6.2651 6.2651 1.6001 12.0001 1.6001C17.7351 1.6001 22.4001 6.2651 22.4001 12.0001C22.4001 17.7351 17.7351 22.4001 12.0001 22.4001ZM12.0001 3.2001C7.1481 3.2001 3.2001 7.1481 3.2001 12.0001C3.2001 16.8521 7.1481 20.8001 12.0001 20.8001C16.8521 20.8001 20.8001 16.8521 20.8001 12.0001C20.8001 7.1481 16.8521 3.2001 12.0001 3.2001Z"/>
</svg>
