<svg width="24" height="24" viewBox="0 0 24 24" xmlns="http://www.w3.org/2000/svg">
<path d="M5 20C5 20.552 4.552 21 4 21C3.448 21 3 20.552 3 20C3 19.448 3.448 19 4 19C4.552 19 5 19.448 5 20ZM3.2 3.19995V14.234C3.2 14.721 3.491 15.1559 3.941 15.3429C4.391 15.5289 4.904 15.427 5.249 15.083L9.601 10.731L11.67 12.8H14.47L12.836 14.434L13.967 15.5649L17.533 11.999L13.967 8.43295L12.836 9.56395L14.47 11.198H12.333L9.602 8.46695L4.802 13.267V4.79995H19.202V19.2H6.502V20.7999H20.802V3.19995H3.2Z"/>
</svg>
