<svg width="24" height="24" viewBox="0 0 24 24" xmlns="http://www.w3.org/2000/svg">
<path d="M12.9001 18.3001C12.9001 18.7971 12.4971 19.2001 12.0001 19.2001C11.5031 19.2001 11.1001 18.7971 11.1001 18.3001C11.1001 17.8031 11.5031 17.4001 12.0001 17.4001C12.4971 17.4001 12.9001 17.8031 12.9001 18.3001ZM17.6001 9.7911V20.4001C17.6001 20.6211 17.4211 20.8001 17.2001 20.8001H6.80006C6.73906 20.8001 6.68206 20.7851 6.63006 20.7611L5.48606 21.9051C5.83806 22.2121 6.29606 22.4001 6.79906 22.4001H17.1991C18.3021 22.4001 19.1991 21.5031 19.1991 20.4001V8.1911L17.6001 9.7911ZM3.71606 21.4161L3.56606 21.5661L2.43506 20.4351L4.80106 18.0691V3.6001C4.80106 2.4971 5.69806 1.6001 6.80106 1.6001H17.2011C18.3041 1.6001 19.2011 2.4971 19.2011 3.6001V3.6691L20.4351 2.4351L21.5661 3.5661L3.71406 21.4141H3.71506L3.71606 21.4161ZM6.40006 16.4691L17.6001 5.2691V3.6001C17.6001 3.3791 17.4211 3.2001 17.2001 3.2001H6.80006C6.57906 3.2001 6.40006 3.3791 6.40006 3.6001V16.4691Z"/>
</svg>
