<svg width="24" height="24" viewBox="0 0 24 24" xmlns="http://www.w3.org/2000/svg">
<path d="M15.1999 19.6001H16.7999V20.4001C16.7999 21.5031 15.9029 22.4001 14.7999 22.4001H4.3999C3.2969 22.4001 2.3999 21.5031 2.3999 20.4001V3.6001C2.3999 2.4971 3.2969 1.6001 4.3999 1.6001H14.7999C15.9029 1.6001 16.7999 2.4971 16.7999 3.6001V4.4001H15.1999V3.6001C15.1999 3.3791 15.0209 3.2001 14.7999 3.2001H4.3999C4.1789 3.2001 3.9999 3.3791 3.9999 3.6001V20.4001C3.9999 20.6211 4.1789 20.8001 4.3999 20.8001H14.7999C15.0209 20.8001 15.1999 20.6211 15.1999 20.4001V19.6001ZM8.6999 18.3001C8.6999 18.7971 9.1029 19.2001 9.5999 19.2001C10.0969 19.2001 10.4999 18.7971 10.4999 18.3001C10.4999 17.8031 10.0969 17.4001 9.5999 17.4001C9.1029 17.4001 8.6999 17.8031 8.6999 18.3001ZM21.5999 10.8001V13.2001C21.5999 14.0821 20.8819 14.8001 19.9999 14.8001H19.1999V18.0001H12.7999V14.8001H11.9999C11.1179 14.8001 10.3999 14.0821 10.3999 13.2001V10.8001C10.3999 9.9181 11.1179 9.2001 11.9999 9.2001H12.7999V6.0001H17.6309L19.1999 7.5691V9.2001H19.9999C20.8819 9.2001 21.5999 9.9181 21.5999 10.8001ZM14.3999 9.2001H17.5999V8.2311L16.9689 7.6001H14.3999V9.2001ZM17.5999 14.8001H14.3999V16.4001H17.5999V14.8001ZM20.0009 13.2001V10.8001H11.9999V13.2001H20.0009Z"/>
</svg>
