<svg width="24" height="24" viewBox="0 0 24 24" xmlns="http://www.w3.org/2000/svg">
<path d="M13.659 11.6361L14.953 12.1361C14.566 13.2461 13.742 13.9981 12.399 13.9981C10.706 13.9981 9.838 12.8011 9.63 11.1991H8.599V9.5991H9.631C9.841 7.9971 10.715 6.8001 12.399 6.8001C13.735 6.8001 14.561 7.5531 14.951 8.6631L13.657 9.1631C13.46 8.4501 13.061 7.9731 12.428 7.9731C11.673 7.9731 11.251 8.6521 11.107 9.5991H11.999V11.1991H11.106C11.248 12.1481 11.668 12.8291 12.428 12.8291C13.065 12.8291 13.463 12.3501 13.659 11.6361ZM19.2 3.6001V20.4001C19.2 21.5031 18.303 22.4001 17.2 22.4001H6.8C5.697 22.4001 4.8 21.5031 4.8 20.4001V3.6001C4.8 2.4971 5.697 1.6001 6.8 1.6001H17.2C18.303 1.6001 19.2 2.4971 19.2 3.6001ZM17.6 3.6001C17.6 3.3791 17.421 3.2001 17.2 3.2001H6.8C6.579 3.2001 6.4 3.3791 6.4 3.6001V20.4001C6.4 20.6211 6.579 20.8001 6.8 20.8001H17.2C17.421 20.8001 17.6 20.6211 17.6 20.4001V3.6001ZM12 17.4001C11.503 17.4001 11.1 17.8031 11.1 18.3001C11.1 18.7971 11.503 19.2001 12 19.2001C12.497 19.2001 12.9 18.7971 12.9 18.3001C12.9 17.8031 12.497 17.4001 12 17.4001Z"/>
</svg>
