<svg width="24" height="24" viewBox="0 0 24 24" xmlns="http://www.w3.org/2000/svg">
<path d="M9.6 17.4001C10.097 17.4001 10.5 17.8031 10.5 18.3001C10.5 18.7971 10.097 19.2001 9.6 19.2001C9.103 19.2001 8.7 18.7971 8.7 18.3001C8.7 17.8031 9.103 17.4001 9.6 17.4001ZM15.2 20.4001C15.2 20.6211 15.021 20.8001 14.8 20.8001H4.4C4.179 20.8001 4 20.6211 4 20.4001V3.6001C4 3.3791 4.179 3.2001 4.4 3.2001H14.8C15.021 3.2001 15.2 3.3791 15.2 3.6001V6.4001L16.8 4.8001V3.6001C16.8 2.4971 15.903 1.6001 14.8 1.6001H4.4C3.297 1.6001 2.4 2.4971 2.4 3.6001V20.4001C2.4 21.5031 3.297 22.4001 4.4 22.4001H14.8C15.903 22.4001 16.8 21.5031 16.8 20.4001V19.2001L15.2 17.6001V20.4001ZM14.262 14.2621C14.841 13.6831 15.2 12.8831 15.2 12.0001C15.2 11.1171 14.841 10.3181 14.262 9.7381L13.131 10.8691C13.421 11.1591 13.6 11.5591 13.6 12.0001C13.6 12.4411 13.421 12.8411 13.131 13.1311L14.262 14.2621ZM16.523 16.5231C17.682 15.3641 18.4 13.7641 18.4 12.0001C18.4 10.2361 17.682 8.6351 16.523 7.4771L15.392 8.6081C16.261 9.4771 16.799 10.6771 16.799 12.0011C16.799 13.3251 16.261 14.5241 15.392 15.3941L16.523 16.5251V16.5231ZM18.785 5.2151L17.654 6.3461C19.103 7.7951 20 9.7951 20 12.0001C20 14.2051 19.103 16.2061 17.654 17.6541L18.785 18.7851C20.523 17.0471 21.6 14.6471 21.6 12.0001C21.6 9.3531 20.523 6.9531 18.785 5.2151Z"/>
</svg>
