<svg width="24" height="24" viewBox="0 0 24 24" xmlns="http://www.w3.org/2000/svg">
<path d="M12.9 18.3001C12.9 18.7971 12.497 19.2001 12 19.2001C11.503 19.2001 11.1 18.7971 11.1 18.3001C11.1 17.8031 11.503 17.4001 12 17.4001C12.497 17.4001 12.9 17.8031 12.9 18.3001ZM19.2 20.4001V3.6001C19.2 2.4971 18.303 1.6001 17.2 1.6001H6.80005C5.69705 1.6001 4.80005 2.4971 4.80005 3.6001V20.4001C4.80005 21.5031 5.69705 22.4001 6.80005 22.4001H17.2C18.303 22.4001 19.2 21.5031 19.2 20.4001ZM17.2 3.2001C17.421 3.2001 17.6 3.3791 17.6 3.6001V20.4001C17.6 20.6211 17.421 20.8001 17.2 20.8001H6.80005C6.57905 20.8001 6.40005 20.6211 6.40005 20.4001V3.6001C6.40005 3.3791 6.57905 3.2001 6.80005 3.2001H17.2Z"/>
</svg>
