<svg width="24" height="24" viewBox="0 0 24 24" xmlns="http://www.w3.org/2000/svg">
<path d="M12.9 18.3001C12.9 18.7971 12.497 19.2001 12 19.2001C11.503 19.2001 11.1 18.7971 11.1 18.3001C11.1 17.8031 11.503 17.4001 12 17.4001C12.497 17.4001 12.9 17.8031 12.9 18.3001ZM19.2 3.6001V20.4001C19.2 21.5031 18.303 22.4001 17.2 22.4001H6.79999C5.69699 22.4001 4.79999 21.5031 4.79999 20.4001V3.6001C4.79999 2.4971 5.69699 1.6001 6.79999 1.6001H17.2C18.303 1.6001 19.2 2.4971 19.2 3.6001ZM17.6 3.6001C17.6 3.3791 17.421 3.2001 17.2 3.2001H6.79999C6.57899 3.2001 6.39999 3.3791 6.39999 3.6001V20.4001C6.39999 20.6211 6.57899 20.8001 6.79999 20.8001H17.2C17.421 20.8001 17.6 20.6211 17.6 20.4001V3.6001ZM14.394 10.9601C14.285 10.7431 14.132 10.5581 13.939 10.4091C13.75 10.2641 13.525 10.1421 13.268 10.0471C13.016 9.9531 12.716 9.8731 12.456 9.8041L12.332 9.7721C12.115 9.7151 11.9 9.6581 11.719 9.6131C11.539 9.5681 11.342 9.4671 11.216 9.3561C11.113 9.2651 11.063 9.1361 11.063 8.9621C11.063 8.7991 11.113 8.6631 11.217 8.5471C11.322 8.4291 11.5 8.3501 11.705 8.3301C11.895 8.3121 12.17 8.3031 12.405 8.3681C12.618 8.4261 12.807 8.5201 12.965 8.6461C13.13 8.7781 13.29 8.9271 13.44 9.0881L13.509 9.1621L14.449 8.2601L14.383 8.1881C14.27 8.0641 14.153 7.9481 14.034 7.8411C13.913 7.7331 13.776 7.6341 13.627 7.5481C13.478 7.4621 13.307 7.3881 13.12 7.3281C13.022 7.2971 12.915 7.2691 12.8 7.2451V6.4001H11.2V7.2321C11.067 7.2621 10.94 7.3001 10.821 7.3471C10.572 7.4451 10.357 7.5771 10.183 7.7391C10.008 7.9021 9.87099 8.1001 9.77499 8.3261C9.67899 8.5511 9.63099 8.8041 9.63099 9.0761C9.63099 9.3871 9.69099 9.6551 9.80999 9.8701C9.92699 10.0841 10.085 10.2641 10.277 10.4061C10.466 10.5451 10.685 10.6611 10.931 10.7491C11.171 10.8351 11.419 10.9111 11.669 10.9731L12.4 11.1631C12.653 11.2421 12.841 11.3391 12.961 11.4521C13.072 11.5571 13.127 11.6961 13.127 11.8771C13.127 12.0781 13.072 12.2281 12.959 12.3351C12.85 12.4381 12.647 12.5191 12.417 12.5501C12.181 12.5831 11.949 12.5801 11.71 12.5421C11.468 12.5041 11.23 12.4041 11.001 12.2451C10.768 12.0831 10.557 11.8831 10.375 11.6481L10.305 11.5581L9.40499 12.4671L9.46199 12.5371C9.58899 12.6921 9.72699 12.8351 9.87199 12.9611C10.018 13.0891 10.18 13.2011 10.354 13.2951C10.527 13.3891 10.722 13.4681 10.934 13.5331C11.018 13.5581 11.107 13.5811 11.2 13.6021V14.3991H12.8V13.6361C13.024 13.5971 13.226 13.5391 13.404 13.4621C13.668 13.3481 13.888 13.2031 14.059 13.0321C14.231 12.8601 14.36 12.6601 14.44 12.4381C14.519 12.2191 14.56 11.9881 14.56 11.7491C14.56 11.4421 14.504 11.1761 14.395 10.9581L14.394 10.9601Z"/>
</svg>
