<svg width="24" height="24" viewBox="0 0 24 24" xmlns="http://www.w3.org/2000/svg">
<path d="M4.8642 11.9741C3.9452 11.9741 3.2002 12.7151 3.2002 13.6281C3.2002 13.6601 3.2032 13.6911 3.2052 13.7221V18.5891C3.2002 18.8081 3.2402 19.0271 3.3212 19.2311C3.4022 19.4361 3.5242 19.6221 3.6782 19.7791C3.8332 19.9361 4.0172 20.0611 4.2212 20.1461C4.4252 20.2311 4.6442 20.2751 4.8652 20.2751C5.0862 20.2751 5.3052 20.2311 5.5092 20.1461C5.7132 20.0611 5.8972 19.9361 6.0522 19.7791C6.2072 19.6221 6.32819 19.4361 6.40919 19.2311C6.49019 19.0271 6.5302 18.8081 6.5252 18.5891V13.7131C6.5252 13.7131 6.5252 13.7171 6.5252 13.7191C6.5272 13.6881 6.5302 13.6581 6.5302 13.6271C6.5302 12.7141 5.7852 11.9731 4.8662 11.9731L4.8642 11.9741ZM3.7202 14.8271C3.7202 14.8271 3.7192 14.8251 3.7182 14.8251C3.7202 14.8271 3.7222 14.8281 3.7242 14.8301C3.7232 14.8291 3.7212 14.8281 3.7202 14.8271ZM6.0092 14.8271C6.0092 14.8271 6.0062 14.8291 6.0042 14.8301C6.0062 14.8281 6.0092 14.8261 6.0112 14.8241C6.0112 14.8241 6.0102 14.8261 6.0092 14.8271ZM12.0002 12.4481L6.2142 4.4161C6.0872 4.2401 5.9272 4.0901 5.7422 3.9761C5.5572 3.8621 5.3512 3.7851 5.1362 3.7491C4.9212 3.7141 4.7012 3.7211 4.4892 3.7701C4.2772 3.8191 4.0762 3.9091 3.8992 4.0361C3.7222 4.1631 3.5712 4.3211 3.4562 4.5051C3.3412 4.6891 3.2632 4.8941 3.2272 5.1071C3.1912 5.3211 3.1992 5.5391 3.2482 5.7501C3.2972 5.9611 3.3882 6.1601 3.5152 6.3361L10.5792 16.1421C10.5862 16.1541 10.5942 16.1651 10.6022 16.1761C10.8982 16.6321 11.4132 16.9351 12.0002 16.9351C12.5872 16.9351 13.1412 16.6091 13.4312 16.1231L17.4752 10.5091V18.5001C17.4752 18.4931 17.4782 18.4871 17.4782 18.4801C17.4762 18.5151 17.4732 18.5501 17.4732 18.5861C17.4732 19.5001 18.2182 20.2401 19.1372 20.2401C20.0562 20.2401 20.8012 19.4991 20.8012 18.5861C20.8012 18.5461 20.7982 18.5061 20.7952 18.4661V5.4991C20.7982 5.4591 20.8012 5.4191 20.8012 5.3791C20.8012 4.4661 20.0562 3.7251 19.1372 3.7251C18.5312 3.7251 18.0012 4.0491 17.7112 4.5301C17.7202 4.5141 17.7282 4.4981 17.7382 4.4821L12.0002 12.4421M10.5302 14.5061C10.5302 14.5061 10.5332 14.4981 10.5352 14.4941C10.5352 14.4921 10.5372 14.4911 10.5382 14.4891C10.5352 14.4941 10.5322 14.5001 10.5292 14.5051L10.5302 14.5061ZM20.2562 17.3661C20.2642 17.3731 20.2732 17.3781 20.2802 17.3851C20.2852 17.3891 20.2882 17.3951 20.2922 17.3991C20.2802 17.3881 20.2682 17.3771 20.2562 17.3661Z"/>
</svg>
