<svg width="24" height="24" viewBox="0 0 24 24" xmlns="http://www.w3.org/2000/svg">
<path d="M21.5828 12.5769C21.5938 12.3859 21.6008 12.1929 21.6008 11.9999C21.6008 11.9729 21.6008 11.9469 21.5998 11.9199C21.5948 11.8139 21.5078 11.7299 21.4008 11.7299C21.3458 11.7299 21.2948 11.7519 21.2588 11.7879C21.2568 11.7899 21.2518 11.7899 21.2518 11.7899C20.3948 12.6219 19.3068 13.2169 18.0948 13.4679C18.0728 13.4719 18.0508 13.4769 18.0298 13.4809C17.9518 13.4959 17.8728 13.5099 17.7928 13.5229C17.7758 13.5259 17.7598 13.5289 17.7428 13.5309C17.6498 13.5449 17.5568 13.5559 17.4628 13.5659C17.4398 13.5679 17.4168 13.5699 17.3928 13.5719C17.3188 13.5789 17.2458 13.5839 17.1708 13.5889C17.1438 13.5909 17.1158 13.5919 17.0888 13.5929C16.9938 13.5969 16.8978 13.5999 16.8008 13.5999C15.9418 13.5999 15.1218 13.4289 14.3728 13.1199C14.3438 13.1079 14.3138 13.0959 14.2848 13.0839C13.9648 12.9469 13.6598 12.7839 13.3698 12.5979C13.0568 12.3979 12.7618 12.1739 12.4888 11.9249C12.0718 11.5439 11.7068 11.1089 11.4018 10.6309C11.3628 10.5699 11.3248 10.5079 11.2878 10.4459C11.1998 10.2959 11.1158 10.1429 11.0398 9.98588C11.0378 9.98088 11.0348 9.97688 11.0328 9.97188C11.0288 9.96288 11.0248 9.95388 11.0208 9.94488C10.7128 9.29888 10.5098 8.59488 10.4338 7.85288C10.4118 7.63788 10.4008 7.41988 10.4008 7.19988C10.4008 7.10388 10.4038 7.00788 10.4078 6.91188C10.4088 6.88488 10.4108 6.85688 10.4118 6.82988C10.4158 6.75588 10.4218 6.68188 10.4288 6.60788C10.4308 6.58488 10.4328 6.56188 10.4348 6.53888C10.4448 6.44488 10.4558 6.35088 10.4698 6.25888C10.4718 6.24188 10.4758 6.22588 10.4778 6.20888C10.4898 6.12988 10.5038 6.04988 10.5198 5.97188C10.5238 5.94988 10.5288 5.92788 10.5328 5.90688C10.7838 4.69488 11.3788 3.60688 12.2108 2.74988C12.2108 2.74988 12.2108 2.74488 12.2128 2.74288C12.2488 2.70688 12.2708 2.65588 12.2708 2.60088C12.2708 2.49388 12.1868 2.40688 12.0808 2.40188C12.0538 2.40188 12.0278 2.40088 12.0008 2.40088C11.8068 2.40088 11.6148 2.40688 11.4228 2.41888L11.4038 2.41988C11.1518 2.43588 10.9018 2.46088 10.6558 2.49588H10.6458C10.6398 2.49788 10.6348 2.49888 10.6288 2.49988C10.4988 2.51888 10.3698 2.53988 10.2418 2.56388C10.2268 2.56688 10.2108 2.56988 10.1958 2.57288C10.0678 2.59688 9.94083 2.62388 9.81383 2.65388C9.80283 2.65688 9.79183 2.65888 9.78083 2.66188C9.65883 2.69088 9.53783 2.72188 9.41783 2.75588C9.40583 2.75888 9.39383 2.76188 9.38283 2.76588C9.26683 2.79888 9.15183 2.83488 9.03683 2.87188C9.00883 2.88088 8.98083 2.88988 8.95383 2.89888C8.84983 2.93388 8.74583 2.97088 8.64383 3.00888C8.60583 3.02288 8.56683 3.03788 8.52883 3.05288C8.43483 3.08888 8.34183 3.12688 8.24983 3.16688C8.20183 3.18688 8.15383 3.20888 8.10683 3.22988C8.04483 3.25788 7.98283 3.28588 7.92183 3.31488C7.84183 3.35288 7.76183 3.39188 7.68283 3.43188C7.64883 3.44888 7.61583 3.46588 7.58183 3.48388C7.46783 3.54288 7.35483 3.60488 7.24283 3.66888C7.23483 3.67388 7.22683 3.67788 7.21883 3.68288C6.30883 4.20688 5.48083 4.87888 4.77683 5.68288C4.35583 6.16288 3.98983 6.68188 3.67583 7.22888C3.60783 7.34688 3.54283 7.46688 3.47983 7.58788C3.45783 7.62988 3.43683 7.67088 3.41583 7.71288C3.37983 7.78588 3.34383 7.85788 3.30983 7.93188C3.27483 8.00688 3.24083 8.08188 3.20783 8.15688C3.19283 8.19088 3.17783 8.22488 3.16283 8.25888C3.11683 8.36788 3.07283 8.47788 3.03083 8.58788C3.02283 8.60888 3.01483 8.62988 3.00683 8.64988C2.96183 8.77088 2.91883 8.89188 2.87883 9.01488C2.87583 9.02488 2.87283 9.03488 2.86883 9.04388C2.69583 9.57688 2.56783 10.1299 2.49083 10.6989C2.49083 10.7019 2.49083 10.7049 2.48983 10.7079C2.47183 10.8429 2.45583 10.9789 2.44383 11.1159C2.44283 11.1289 2.44183 11.1419 2.44083 11.1549C2.42883 11.2869 2.41983 11.4189 2.41383 11.5519C2.41383 11.5669 2.41283 11.5819 2.41183 11.5969C2.40583 11.7319 2.40283 11.8669 2.40283 12.0019C2.40283 17.2949 6.70983 21.6019 12.0028 21.6019C12.1388 21.6019 12.2738 21.5979 12.4078 21.5929C12.4228 21.5929 12.4378 21.5919 12.4528 21.5909C12.5858 21.5849 12.7178 21.5759 12.8498 21.5639C12.8628 21.5629 12.8758 21.5619 12.8888 21.5609C13.0258 21.5479 13.1618 21.5329 13.2968 21.5149C13.2998 21.5149 13.3028 21.5149 13.3058 21.5139C13.8748 21.4359 14.4278 21.3089 14.9608 21.1359C14.9708 21.1329 14.9808 21.1299 14.9898 21.1259C15.1128 21.0859 15.2338 21.0429 15.3548 20.9979C15.3758 20.9899 15.3968 20.9819 15.4178 20.9739C15.5288 20.9319 15.6388 20.8879 15.7468 20.8419C15.7808 20.8269 15.8148 20.8119 15.8488 20.7969C15.9238 20.7639 15.9988 20.7299 16.0728 20.6949C16.1468 20.6599 16.2198 20.6249 16.2928 20.5879C16.3348 20.5669 16.3758 20.5459 16.4168 20.5249C17.0968 20.1729 17.7378 19.7399 18.3228 19.2269C19.1268 18.5229 19.7988 17.6959 20.3228 16.7849C20.3278 16.7769 20.3318 16.7689 20.3368 16.7609C20.4008 16.6489 20.4618 16.5369 20.5218 16.4229C20.5398 16.3889 20.5568 16.3559 20.5738 16.3219C20.6138 16.2429 20.6528 16.1629 20.6908 16.0829C20.7198 16.0209 20.7488 15.9599 20.7758 15.8969C20.7968 15.8489 20.8178 15.8019 20.8388 15.7539C20.8778 15.6619 20.9158 15.5679 20.9528 15.4739C20.9678 15.4359 20.9818 15.3979 20.9958 15.3599C21.0348 15.2569 21.0718 15.1539 21.1068 15.0489C21.1158 15.0209 21.1248 14.9939 21.1338 14.9659C21.1708 14.8509 21.2068 14.7359 21.2398 14.6199C21.2428 14.6079 21.2458 14.5969 21.2488 14.5849C21.2828 14.4649 21.3138 14.3429 21.3428 14.2209C21.3458 14.2099 21.3478 14.1989 21.3508 14.1879C21.3808 14.0619 21.4068 13.9339 21.4318 13.8059C21.4348 13.7909 21.4378 13.7759 21.4408 13.7609C21.4648 13.6329 21.4858 13.5029 21.5048 13.3729C21.5048 13.3669 21.5068 13.3619 21.5078 13.3559V13.3459C21.5438 13.0989 21.5688 12.8499 21.5848 12.5969L21.5868 12.5779L21.5828 12.5769ZM11.1828 19.9589C7.42283 19.5759 4.42383 16.5779 4.04083 12.8169C4.01383 12.5479 3.99983 12.2759 3.99983 11.9999C3.99983 11.8939 4.00183 11.7879 4.00583 11.6819C4.01383 11.4709 4.03083 11.2619 4.05583 11.0549C4.06783 10.9509 4.08283 10.8479 4.09883 10.7459C4.13183 10.5409 4.17283 10.3389 4.22083 10.1389C4.24483 10.0389 4.27083 9.93988 4.29883 9.84088C4.63383 8.65788 5.23683 7.57788 6.03983 6.67688C6.17383 6.52688 6.31383 6.38188 6.45783 6.24188C6.71683 5.99188 6.99283 5.75988 7.28383 5.54588C7.88783 5.10188 8.55683 4.73888 9.27483 4.47688C9.00183 5.22888 8.84383 6.01988 8.80683 6.82688C8.80083 6.95088 8.79783 7.07488 8.79783 7.19988C8.79783 7.47588 8.81183 7.74788 8.83883 8.01688C9.22183 11.7769 12.2198 14.7759 15.9808 15.1589C16.2498 15.1859 16.5218 15.1999 16.7978 15.1999C17.0318 15.1999 17.2648 15.1899 17.4958 15.1699C18.0168 15.1249 18.5288 15.0269 19.0268 14.8819C19.1928 14.8339 19.3578 14.7819 19.5208 14.7229C18.6408 17.1429 16.6218 19.0019 14.1578 19.6999C14.0588 19.7279 13.9598 19.7539 13.8598 19.7779C13.6598 19.8259 13.4578 19.8669 13.2528 19.8999C12.8428 19.9659 12.4238 19.9999 11.9988 19.9999C11.7228 19.9999 11.4508 19.9859 11.1818 19.9589H11.1828Z"/>
</svg>
