<svg width="24" height="24" viewBox="0 0 24 24" xmlns="http://www.w3.org/2000/svg">
<path d="M12 14.4001C10.677 14.4001 9.59995 13.3231 9.59995 12.0001C9.59995 10.6771 10.677 9.6001 12 9.6001C13.323 9.6001 14.4 10.6771 14.4 12.0001C14.4 13.3231 13.323 14.4001 12 14.4001ZM12 11.2001C11.559 11.2001 11.2 11.5591 11.2 12.0001C11.2 12.4411 11.559 12.8001 12 12.8001C12.441 12.8001 12.8 12.4411 12.8 12.0001C12.8 11.5591 12.441 11.2001 12 11.2001ZM18.4 14.4001C17.077 14.4001 16 13.3231 16 12.0001C16 10.6771 17.077 9.6001 18.4 9.6001C19.7229 9.6001 20.8 10.6771 20.8 12.0001C20.8 13.3231 19.7229 14.4001 18.4 14.4001ZM18.4 11.2001C17.959 11.2001 17.6 11.5591 17.6 12.0001C17.6 12.4411 17.959 12.8001 18.4 12.8001C18.841 12.8001 19.2 12.4411 19.2 12.0001C19.2 11.5591 18.841 11.2001 18.4 11.2001ZM5.59995 14.4001C4.27695 14.4001 3.19995 13.3231 3.19995 12.0001C3.19995 10.6771 4.27695 9.6001 5.59995 9.6001C6.92295 9.6001 7.99995 10.6771 7.99995 12.0001C7.99995 13.3231 6.92295 14.4001 5.59995 14.4001ZM5.59995 11.2001C5.15895 11.2001 4.79995 11.5591 4.79995 12.0001C4.79995 12.4411 5.15895 12.8001 5.59995 12.8001C6.04095 12.8001 6.39995 12.4411 6.39995 12.0001C6.39995 11.5591 6.04095 11.2001 5.59995 11.2001Z"/>
</svg>
