<svg width="24" height="24" viewBox="0 0 24 24" xmlns="http://www.w3.org/2000/svg">
<path d="M12.9001 10.5001C12.9001 10.9971 12.4971 11.4001 12.0001 11.4001C11.5031 11.4001 11.1001 10.9971 11.1001 10.5001C11.1001 10.0031 11.5031 9.6001 12.0001 9.6001C12.4971 9.6001 12.9001 10.0031 12.9001 10.5001ZM18.4001 5.6001H16.2261C17.5571 6.7741 18.4001 8.4901 18.4001 10.4001V17.6001C18.4001 18.9231 17.3231 20.0001 16.0001 20.0001H14.4001C14.4001 21.3231 13.3231 22.4001 12.0001 22.4001C10.6771 22.4001 9.6001 21.3231 9.6001 20.0001H8.0001C6.6771 20.0001 5.6001 18.9231 5.6001 17.6001V10.4001C5.6001 8.4901 6.4421 6.7741 7.7741 5.6001H5.6001V4.0001H8.9011C9.2571 2.6211 10.5111 1.6001 12.0001 1.6001C13.4891 1.6001 14.7431 2.6211 15.0991 4.0001H18.4001V5.6001ZM10.4001 4.8001C10.4001 5.6821 11.1181 6.4001 12.0001 6.4001C12.8821 6.4001 13.6001 5.6821 13.6001 4.8001C13.6001 3.9181 12.8821 3.2001 12.0001 3.2001C11.1181 3.2001 10.4001 3.9181 10.4001 4.8001ZM12.8001 15.4001C12.8001 14.9591 12.4411 14.6001 12.0001 14.6001C11.5591 14.6001 11.2001 14.9591 11.2001 15.4001V20.0001C11.2001 20.4411 11.5591 20.8001 12.0001 20.8001C12.4411 20.8001 12.8001 20.4411 12.8001 20.0001V15.4001ZM14.7351 6.4591C14.1731 7.3821 13.1571 8.0001 12.0001 8.0001C10.8431 8.0001 9.8271 7.3821 9.2651 6.4591C8.0181 7.3271 7.2001 8.7691 7.2001 10.4001V17.6001C7.2001 18.0411 7.5591 18.4001 8.0001 18.4001H9.6001V15.4001C9.6001 14.0771 10.6771 13.0001 12.0001 13.0001C13.3231 13.0001 14.4001 14.0771 14.4001 15.4001V18.4001H16.0001C16.4411 18.4001 16.8001 18.0411 16.8001 17.6001V10.4001C16.8001 8.7691 15.9821 7.3271 14.7351 6.4591Z"/>
</svg>
