<svg width="24" height="24" viewBox="0 0 24 24" xmlns="http://www.w3.org/2000/svg">
<path d="M17.6001 6.8001H14.6831C14.3381 5.6451 13.2661 4.8001 12.0001 4.8001C10.7341 4.8001 9.6621 5.6451 9.3171 6.8001H6.4001V8.4001H8.1131C8.0901 8.4221 8.0671 8.4421 8.0451 8.4641C6.9841 9.5071 6.4001 10.9051 6.4001 12.4001V17.8001C6.4001 18.9931 7.4071 20.0001 8.6001 20.0001H9.6001C9.6001 21.3231 10.6771 22.4001 12.0001 22.4001C13.3231 22.4001 14.4001 21.3231 14.4001 20.0001H15.4001C16.5931 20.0001 17.6001 18.9931 17.6001 17.8001V12.4001C17.6001 10.9051 17.0161 9.5071 15.9551 8.4641C15.9331 8.4421 15.9091 8.4211 15.8871 8.4001H17.6001V6.8001ZM12.0001 6.4001C12.6621 6.4001 13.2001 6.9381 13.2001 7.6001C13.2001 8.2621 12.6621 8.8001 12.0001 8.8001C11.3381 8.8001 10.8001 8.2621 10.8001 7.6001C10.8001 6.9381 11.3381 6.4001 12.0001 6.4001ZM12.8001 20.0001C12.8001 20.4411 12.4411 20.8001 12.0001 20.8001C11.5591 20.8001 11.2001 20.4411 11.2001 20.0001V16.0001C11.2001 15.5591 11.5591 15.2001 12.0001 15.2001C12.4411 15.2001 12.8001 15.5591 12.8001 16.0001V20.0001ZM16.0001 12.4001V17.8001C16.0001 18.1141 15.7141 18.4001 15.4001 18.4001H14.4001V16.0001C14.4001 14.6771 13.3231 13.6001 12.0001 13.6001C10.6771 13.6001 9.6001 14.6771 9.6001 16.0001V18.4001H8.6001C8.2861 18.4001 8.0001 18.1141 8.0001 17.8001V12.4001C8.0001 11.0481 8.6581 9.8761 9.6821 9.1691C10.1861 9.9121 11.0371 10.4001 12.0001 10.4001C12.9631 10.4001 13.8141 9.9111 14.3181 9.1691C15.3421 9.8761 16.0001 11.0481 16.0001 12.4001ZM3.2001 22.4001H1.6001V5.1311C1.6001 4.7041 1.7661 4.3021 2.0691 4.0001L4.0001 2.0691C4.3021 1.7671 4.7041 1.6001 5.1311 1.6001H20.8001V4.8001H19.2001V3.2001H5.1311L3.2001 5.1311V22.4001Z"/>
</svg>
