<svg width="24" height="24" viewBox="0 0 24 24" xmlns="http://www.w3.org/2000/svg">
<path d="M17.8316 6.9691C16.6136 3.8311 13.5626 1.6001 9.99961 1.6001C5.36761 1.6001 1.59961 5.3681 1.59961 10.0001C1.59961 13.5631 3.83061 16.6141 6.96861 17.8321C8.18761 20.9691 11.2376 23.2001 14.7996 23.2001C19.4316 23.2001 23.1996 19.4321 23.1996 14.8001C23.1996 11.2371 20.9686 8.1881 17.8316 6.9691ZM3.19961 10.0001C3.19961 6.2501 6.24961 3.2001 9.99961 3.2001C12.4546 3.2001 14.6086 4.5071 15.8046 6.4621C15.4746 6.4221 15.1396 6.4001 14.7996 6.4001C10.1676 6.4001 6.39961 10.1681 6.39961 14.8001C6.39961 15.1401 6.42261 15.4751 6.46161 15.8051C4.50661 14.6091 3.19961 12.4551 3.19961 10.0001ZM14.7996 21.6001C11.0496 21.6001 7.99961 18.5501 7.99961 14.8001C7.99961 11.0501 11.0496 8.0001 14.7996 8.0001C18.5496 8.0001 21.5996 11.0501 21.5996 14.8001C21.5996 18.5501 18.5496 21.6001 14.7996 21.6001ZM11.7956 11.6981C11.4746 11.4661 11.4046 11.0161 11.6366 10.6961C11.8686 10.3751 12.3186 10.3051 12.6396 10.5381C12.9606 10.7701 13.0306 11.2201 12.7986 11.5401C12.5626 11.8611 12.1166 11.9311 11.7956 11.6981ZM17.9626 18.9051C17.7306 19.2261 17.2806 19.2961 16.9596 19.0631C16.6386 18.8311 16.5686 18.3811 16.8006 18.0611C17.0326 17.7401 17.4826 17.6701 17.8036 17.9031C18.1246 18.1391 18.1946 18.5851 17.9626 18.9051ZM12.9386 12.5381L13.7726 11.3741C14.0046 11.0531 14.4476 10.9831 14.7646 11.2161C15.0786 11.4521 15.1486 11.9011 14.9196 12.2221L14.0856 13.3861C13.8536 13.7071 13.4106 13.7771 13.0936 13.5441C12.7766 13.3121 12.7066 12.8621 12.9386 12.5381ZM17.0626 12.9101L13.7246 17.5671C13.4926 17.8881 13.0496 17.9581 12.7326 17.7251C12.4156 17.4891 12.3416 17.0401 12.5736 16.7191L15.9086 12.0621C16.1406 11.7411 16.5836 11.6711 16.9006 11.9041C17.2176 12.1371 17.2876 12.5861 17.0626 12.9101ZM16.6936 17.0881L15.8596 18.2521C15.6276 18.5731 15.1846 18.6431 14.8676 18.4101C14.5536 18.1741 14.4836 17.7251 14.7126 17.4041L15.5466 16.2401C15.7786 15.9191 16.2216 15.8491 16.5386 16.0821C16.8556 16.3141 16.9256 16.7671 16.6936 17.0881Z"/>
</svg>
