<svg width="24" height="24" viewBox="0 0 24 24" xmlns="http://www.w3.org/2000/svg">
<path d="M21.6149 11.2H15.1439L14.9339 10.72C14.6099 9.97801 14.0219 9.39101 13.2799 9.06601L12.7999 8.85601V2.38501L13.7449 2.55901C17.6339 3.27301 20.7269 6.36601 21.4419 10.256L21.6159 11.201L21.6149 11.2ZM16.1579 9.60001H19.6329C18.8509 7.11901 16.8809 5.14901 14.3999 4.36701V7.84301C15.1309 8.26501 15.7359 8.86901 16.1579 9.60001ZM4.6359 18.233L4.0909 17.442C2.9849 15.837 2.3999 13.955 2.3999 12C2.3999 7.36601 5.7039 3.39501 10.2549 2.55901L11.1999 2.38501V8.85701L10.7199 9.06701C9.5529 9.57701 8.7999 10.728 8.7999 12C8.7999 12.402 8.8739 12.795 9.0209 13.168L9.2129 13.656L4.6359 18.233ZM9.5999 4.36601C6.3039 5.39601 3.9999 8.46701 3.9999 12C3.9999 13.302 4.3109 14.564 4.9059 15.7L7.3639 13.242C7.2549 12.838 7.2009 12.422 7.2009 11.999C7.2009 10.272 8.1279 8.69301 9.6009 7.84201V4.36501L9.5999 4.36601ZM11.9999 21.6C10.0449 21.6 8.1629 21.015 6.5579 19.909L5.7669 19.364L10.3429 14.788L10.8309 14.979C11.2049 15.126 11.5979 15.2 11.9989 15.2C13.2709 15.2 14.4219 14.446 14.9319 13.28L15.1419 12.8H21.6139L21.4399 13.745C20.6039 18.297 16.6329 21.6 11.9989 21.6H11.9999ZM8.2999 19.094C9.4369 19.689 10.6989 20 11.9999 20C15.5329 20 18.6039 17.696 19.6339 14.4H16.1569C15.3059 15.873 13.7269 16.8 11.9999 16.8C11.5779 16.8 11.1619 16.745 10.7579 16.637L8.2999 19.094Z"/>
</svg>
