<svg width="24" height="24" viewBox="0 0 24 24" xmlns="http://www.w3.org/2000/svg">
<path d="M12 9.6001C14.206 9.6001 16 7.8061 16 5.6001C16 3.3941 14.206 1.6001 12 1.6001C9.794 1.6001 8 3.3941 8 5.6001C8 7.8061 9.794 9.6001 12 9.6001ZM12 3.2001C13.323 3.2001 14.4 4.2771 14.4 5.6001C14.4 6.9231 13.323 8.0001 12 8.0001C10.677 8.0001 9.6 6.9231 9.6 5.6001C9.6 4.2771 10.677 3.2001 12 3.2001ZM11 21.6001C11 22.0971 10.597 22.5001 10.1 22.5001C9.603 22.5001 9.2 22.0971 9.2 21.6001C9.2 21.1031 9.603 20.7001 10.1 20.7001C10.597 20.7001 11 21.1031 11 21.6001ZM16.8 12.0001C16.423 12.0001 16.056 12.0381 15.7 12.1091C14.593 11.5291 13.334 11.2001 12 11.2001C7.589 11.2001 4 14.7891 4 19.2001V22.4001H7.6V20.8001H5.6V19.2001C5.6 15.6711 8.471 12.8001 12 12.8001C12.554 12.8001 13.091 12.8721 13.604 13.0061C12.153 14.0191 11.2 15.7001 11.2 17.6001C11.2 20.6881 13.712 23.2001 16.8 23.2001C19.888 23.2001 22.4 20.6881 22.4 17.6001C22.4 14.5121 19.888 12.0001 16.8 12.0001ZM16.8 21.6001C14.594 21.6001 12.8 19.8061 12.8 17.6001C12.8 15.3941 14.594 13.6001 16.8 13.6001C19.006 13.6001 20.8 15.3941 20.8 17.6001C20.8 19.8061 19.006 21.6001 16.8 21.6001ZM16.017 16.7191C16.017 16.7191 15.997 16.8351 15.978 17.0001H16.802V18.2001H15.978C15.997 18.3651 16.017 18.4811 16.017 18.4811C16.077 18.7471 16.182 18.9611 16.327 19.1121C16.467 19.2571 16.663 19.3281 16.928 19.3281C17.132 19.3281 17.294 19.2621 17.422 19.1251C17.557 18.9811 17.674 18.7481 17.768 18.4351L17.798 18.3361L19 18.7221L18.97 18.8161C18.814 19.3091 18.564 19.6991 18.226 19.9771C17.884 20.2581 17.445 20.4001 16.922 20.4001C16.654 20.4001 16.396 20.3631 16.156 20.2891C15.913 20.2151 15.691 20.0991 15.498 19.9451C15.304 19.7921 15.136 19.5931 14.997 19.3561C14.895 19.1801 14.724 18.7601 14.644 18.2001H14.001V17.0001H14.644C14.724 16.4401 14.894 16.0201 14.997 15.8441C15.136 15.6061 15.304 15.4081 15.498 15.2551C15.692 15.1011 15.913 14.9851 16.156 14.9111C16.397 14.8371 16.654 14.8001 16.922 14.8001C17.445 14.8001 17.884 14.9421 18.226 15.2231C18.564 15.5011 18.815 15.8921 18.97 16.3841L19 16.4781L17.798 16.8641L17.768 16.7651C17.674 16.4521 17.558 16.2201 17.422 16.0751C17.294 15.9391 17.132 15.8721 16.928 15.8721C16.663 15.8721 16.467 15.9431 16.327 16.0881C16.182 16.2391 16.077 16.4531 16.017 16.7191Z"/>
</svg>
