<svg width="24" height="24" viewBox="0 0 24 24" xmlns="http://www.w3.org/2000/svg">
<path d="M11.9999 7.9999C9.7939 7.9999 7.9999 9.7939 7.9999 11.9999C7.9999 14.2059 9.7939 15.9999 11.9999 15.9999C14.2059 15.9999 15.9999 14.2059 15.9999 11.9999C15.9999 9.7939 14.2059 7.9999 11.9999 7.9999ZM11.9999 14.3999C10.6769 14.3999 9.5999 13.3229 9.5999 11.9999C9.5999 10.6769 10.6769 9.5999 11.9999 9.5999C13.3229 9.5999 14.3999 10.6769 14.3999 11.9999C14.3999 13.3229 13.3229 14.3999 11.9999 14.3999ZM12.8999 11.9999C12.8999 12.4969 12.4969 12.8999 11.9999 12.8999C11.5029 12.8999 11.0999 12.4969 11.0999 11.9999C11.0999 11.5029 11.5029 11.0999 11.9999 11.0999C12.4969 11.0999 12.8999 11.5029 12.8999 11.9999ZM21.5999 11.1999H19.8509C19.4749 7.4859 16.5139 4.5249 12.7999 4.1489V2.3999H11.1999V4.1489C7.4859 4.5249 4.5249 7.4859 4.1489 11.1999H2.3999V12.7999H4.1489C4.5249 16.5139 7.4859 19.4749 11.1999 19.8509V21.5999H12.7999V19.8509C16.5139 19.4749 19.4749 16.5139 19.8509 12.7999H21.5999V11.1999ZM11.9999 18.2909C8.5309 18.2909 5.7089 15.4689 5.7089 11.9999C5.7089 8.5309 8.5309 5.7089 11.9999 5.7089C15.4689 5.7089 18.2909 8.5309 18.2909 11.9999C18.2909 15.4689 15.4689 18.2909 11.9999 18.2909Z"/>
</svg>
