<svg width="24" height="24" viewBox="0 0 24 24" xmlns="http://www.w3.org/2000/svg">
<path d="M14.131 1.6001H4.19995V22.4001H7.19995V20.8001H5.79995V3.2001H12.8V8.8001H18.6V20.8001H12.2V22.4001H20.2V7.6691L14.131 1.6001ZM14.4 4.1311L17.469 7.2001H14.4V4.1311ZM10.6 21.6001C10.6 22.0971 10.197 22.5001 9.69995 22.5001C9.20295 22.5001 8.79995 22.0971 8.79995 21.6001C8.79995 21.1031 9.20295 20.7001 9.69995 20.7001C10.197 20.7001 10.6 21.1031 10.6 21.6001ZM7.99995 17.6001V19.2001H16V17.6001C16 16.1201 15.192 14.8261 13.994 14.1341C14.25 13.7521 14.4 13.2931 14.4 12.8001C14.4 11.4771 13.323 10.4001 12 10.4001C10.677 10.4001 9.59995 11.4771 9.59995 12.8001C9.59995 13.2941 9.74995 13.7531 10.006 14.1341C8.80795 14.8261 7.99995 16.1201 7.99995 17.6001ZM11.2 12.8001C11.2 12.3591 11.559 12.0001 12 12.0001C12.441 12.0001 12.8 12.3591 12.8 12.8001C12.8 13.2411 12.441 13.6001 12 13.6001C11.559 13.6001 11.2 13.2411 11.2 12.8001ZM12 15.2001C13.323 15.2001 14.4 16.2771 14.4 17.6001H9.59995C9.59995 16.2771 10.677 15.2001 12 15.2001Z"/>
</svg>
