<svg width="24" height="24" viewBox="0 0 24 24" xmlns="http://www.w3.org/2000/svg">
<path d="M11.2 9.6001C8.99395 9.6001 7.19995 7.8061 7.19995 5.6001C7.19995 3.3941 8.99395 1.6001 11.2 1.6001C13.406 1.6001 15.2 3.3941 15.2 5.6001C15.2 7.8061 13.406 9.6001 11.2 9.6001ZM11.2 3.2001C9.87695 3.2001 8.79995 4.2771 8.79995 5.6001C8.79995 6.9231 9.87695 8.0001 11.2 8.0001C12.523 8.0001 13.6 6.9231 13.6 5.6001C13.6 4.2771 12.523 3.2001 11.2 3.2001ZM19.2 19.2001C19.2 14.7891 15.611 11.2001 11.2 11.2001C6.78895 11.2001 3.19995 14.7891 3.19995 19.2001V22.4001H6.39995V20.8001H4.79995V19.2001C4.79995 15.6711 7.67095 12.8001 11.2 12.8001C14.729 12.8001 17.6 15.6711 17.6 19.2001V20.8001H11.4V22.4001H19.2V19.2001ZM8.89995 20.7001C8.40295 20.7001 7.99995 21.1031 7.99995 21.6001C7.99995 22.0971 8.40295 22.5001 8.89995 22.5001C9.39695 22.5001 9.79995 22.0971 9.79995 21.6001C9.79995 21.1031 9.39695 20.7001 8.89995 20.7001Z"/>
</svg>
