<svg width="24" height="24" viewBox="0 0 24 24" xmlns="http://www.w3.org/2000/svg">
<path d="M20.448 3.55211C20.111 3.21511 19.607 3.11011 19.163 3.28311L3.96304 9.22411C3.45704 9.42211 3.15304 9.91811 3.20604 10.4591C3.25904 11.0001 3.65504 11.4271 4.19004 11.5221L11.228 12.7731L12.479 19.8111C12.574 20.3461 13.001 20.7411 13.542 20.7951C13.583 20.7991 13.624 20.8011 13.664 20.8011C14.156 20.8011 14.594 20.5061 14.777 20.0381L20.717 4.83811C20.89 4.39411 20.785 3.88911 20.448 3.55211ZM13.805 18.1281L12.608 11.3931L5.87304 10.1961L18.895 5.10711L13.806 18.1291L13.805 18.1281Z"/>
</svg>
