<svg width="24" height="24" viewBox="0 0 24 24" xmlns="http://www.w3.org/2000/svg">
<path d="M11.2002 9.6001C8.99419 9.6001 7.2002 7.8061 7.2002 5.6001C7.2002 3.3941 8.99419 1.6001 11.2002 1.6001C13.4062 1.6001 15.2002 3.3941 15.2002 5.6001C15.2002 7.8061 13.4062 9.6001 11.2002 9.6001ZM11.2002 3.2001C9.8772 3.2001 8.8002 4.2771 8.8002 5.6001C8.8002 6.9231 9.8772 8.0001 11.2002 8.0001C12.5232 8.0001 13.6002 6.9231 13.6002 5.6001C13.6002 4.2771 12.5232 3.2001 11.2002 3.2001ZM9.3002 20.7001C8.80319 20.7001 8.4002 21.1031 8.4002 21.6001C8.4002 22.0971 8.80319 22.5001 9.3002 22.5001C9.7972 22.5001 10.2002 22.0971 10.2002 21.6001C10.2002 21.1031 9.7972 20.7001 9.3002 20.7001ZM16.0002 12.0001C15.6232 12.0001 15.2542 12.0381 14.8982 12.1091C13.7912 11.5291 12.5342 11.2001 11.2002 11.2001C6.7892 11.2001 3.2002 14.7891 3.2002 19.2001V22.4001H6.8002V20.8001H4.8002V19.2001C4.8002 15.6711 7.6712 12.8001 11.2002 12.8001C11.7542 12.8001 12.2922 12.8711 12.8062 13.0041C11.3532 14.0171 10.4002 15.6991 10.4002 17.6001C10.4002 20.6881 12.9122 23.2001 16.0002 23.2001C19.0882 23.2001 21.6002 20.6881 21.6002 17.6001C21.6002 14.5121 19.0882 12.0001 16.0002 12.0001ZM16.0002 21.6001C13.7942 21.6001 12.0002 19.8061 12.0002 17.6001C12.0002 15.8601 13.1172 14.3771 14.6722 13.8281C15.0882 13.6811 15.5352 13.6001 16.0002 13.6001C16.3582 13.6001 16.7062 13.6481 17.0362 13.7371C18.7412 14.1951 20.0002 15.7531 20.0002 17.6001C20.0002 19.8061 18.2062 21.6001 16.0002 21.6001ZM18.4002 16.8001H16.8002V15.2001H15.2002V16.8001H13.6002V18.4001H15.2002V20.0001H16.8002V18.4001H18.4002V16.8001Z"/>
</svg>
