<svg width="24" height="24" viewBox="0 0 24 24" xmlns="http://www.w3.org/2000/svg">
<path d="M4.01289 12.945C4.24189 12.696 4.38289 12.364 4.38289 12C4.38289 11.636 4.24189 11.304 4.01289 11.055L5.37689 10.194C5.75689 10.697 5.98289 11.322 5.98289 12C5.98289 12.678 5.75689 13.303 5.37589 13.806L4.01189 12.945H4.01289ZM11.6379 17.76L12.9909 18.614C14.1769 16.825 14.8969 14.701 14.9749 12.417L13.1349 14.257C12.8529 15.527 12.3389 16.711 11.6379 17.76ZM17.6169 9.77501C17.7259 10.501 17.7839 11.244 17.7839 12C17.7839 14.992 16.8949 17.779 15.3689 20.115L16.7219 20.969C18.4049 18.387 19.3839 15.306 19.3839 12C19.3839 10.765 19.2469 9.56201 18.9879 8.40401L17.6169 9.77501ZM19.6339 3.23401L17.8339 5.03401C17.5079 4.33901 17.1369 3.66901 16.7209 3.03101L15.3679 3.88501C15.8539 4.62901 16.2729 5.41901 16.6209 6.24701L14.4379 8.43001C14.0979 7.34101 13.6079 6.31801 12.9899 5.38701L11.6369 6.24101C12.3359 7.28801 12.8489 8.47001 13.1309 9.73701L10.5759 12.292C10.5799 12.195 10.5819 12.098 10.5819 12C10.5819 10.421 10.0969 8.95201 9.26889 7.73601L7.91489 8.59101C8.58689 9.56001 8.98189 10.735 8.98189 12C8.98189 12.845 8.80489 13.65 8.48789 14.38L3.23389 19.634L4.36489 20.765L20.7659 4.36601L19.6339 3.23401Z"/>
</svg>
