<svg width="24" height="24" viewBox="0 0 24 24" xmlns="http://www.w3.org/2000/svg">
<path d="M4.01321 11.055L5.37721 10.194C5.75721 10.697 5.98321 11.322 5.98321 12C5.98321 12.678 5.75721 13.303 5.37621 13.806L4.01221 12.945C4.24121 12.696 4.38221 12.364 4.38221 12C4.38221 11.636 4.24121 11.304 4.01221 11.055H4.01321ZM8.98321 12C8.98321 13.266 8.58821 14.441 7.91621 15.41L9.27021 16.265C10.0982 15.048 10.5832 13.58 10.5832 12C10.5832 10.42 10.0982 8.95201 9.27021 7.73601L7.91621 8.59101C8.58821 9.56001 8.98321 10.735 8.98321 12ZM13.3832 12C13.3832 14.129 12.7402 16.109 11.6382 17.76L12.9912 18.614C14.2492 16.717 14.9832 14.443 14.9832 12C14.9832 9.55701 14.2492 7.28401 12.9912 5.38701L11.6382 6.24101C12.7402 7.89101 13.3832 9.87201 13.3832 12ZM17.7832 12C17.7832 14.992 16.8942 17.779 15.3682 20.115L16.7212 20.969C18.4042 18.387 19.3832 15.306 19.3832 12C19.3832 8.69401 18.4042 5.61401 16.7212 3.03101L15.3682 3.88501C16.8942 6.22001 17.7832 9.00801 17.7832 12Z"/>
</svg>
