<svg width="24" height="24" viewBox="0 0 24 24" xmlns="http://www.w3.org/2000/svg">
<path d="M13.4531 5.01005C13.1101 4.78805 12.6831 4.75505 12.3101 4.92205L5.4291 8.00005H3.6001C2.4971 8.00005 1.6001 8.89705 1.6001 10V14C1.6001 15.103 2.4971 16 3.6001 16H5.4291L12.3101 19.078C12.4671 19.148 12.6341 19.183 12.8011 19.183C13.0291 19.183 13.2551 19.118 13.4531 18.989C13.7961 18.767 14.0001 18.39 14.0001 17.982V6.01705C14.0001 5.60905 13.7951 5.23205 13.4531 5.01005ZM3.2001 14V10C3.2001 9.77905 3.3791 9.60005 3.6001 9.60005H4.8001V14.4H3.6001C3.3791 14.4 3.2001 14.221 3.2001 14ZM12.4001 17.366L6.4001 14.682V9.31905L12.4001 6.63505V17.366ZM20.1311 12L22.3651 14.234L21.2341 15.365L19.0001 13.131L16.7661 15.365L15.6351 14.234L17.8691 12L15.6351 9.76605L16.7661 8.63505L19.0001 10.869L21.2341 8.63505L22.3651 9.76605L20.1311 12Z"/>
</svg>
