<svg width="24" height="24" viewBox="0 0 24 24" xmlns="http://www.w3.org/2000/svg">
<path d="M18.492 18.1491V20.8461H6.54498L8.14498 19.2461H16.892V18.1491C16.892 16.0841 15.606 14.3161 13.793 13.5991L14.998 12.3941C17.072 13.4791 18.492 15.6511 18.492 18.1491ZM3.33398 19.5341L11.589 11.2791C9.51998 11.0721 7.89998 9.3221 7.89998 7.2001C7.89998 4.9391 9.73898 3.1001 12 3.1001C14.122 3.1001 15.873 4.7211 16.079 6.7891L19.534 3.3341L20.664 4.4641L4.46398 20.6641L3.33398 19.5341ZM12 9.7001C13.379 9.7001 14.5 8.5791 14.5 7.2001C14.5 5.8211 13.379 4.7001 12 4.7001C10.621 4.7001 9.49998 5.8211 9.49998 7.2001C9.49998 8.5791 10.621 9.7001 12 9.7001Z"/>
</svg>
