<svg width="24" height="24" viewBox="0 0 24 24" xmlns="http://www.w3.org/2000/svg">
<path d="M19.1599 12.8399C18.4979 12.1779 17.7109 11.7179 16.8739 11.4579L20.2829 8.04894C20.7509 7.58094 20.7509 6.81994 20.2829 6.35194L17.6489 3.71794C17.1809 3.24994 16.4199 3.24994 15.9519 3.71794L3.20093 16.4689V20.7999H7.53193L9.85593 18.4759C10.1219 19.3279 10.5919 20.1099 11.2409 20.7589C12.3329 21.8509 13.7669 22.3969 15.2009 22.3969C16.6349 22.3969 18.0689 21.8509 19.1609 20.7589C20.2189 19.7009 20.8009 18.2949 20.8009 16.7989C20.8009 15.3029 20.2179 13.8969 19.1609 12.8389L19.1599 12.8399ZM16.7999 5.13094L18.8689 7.19994L16.7999 9.26894L14.7309 7.19994L16.7999 5.13094ZM6.86893 19.1999H4.79993V17.1309L13.5999 8.33094L15.6689 10.3999L14.8539 11.2149C13.5369 11.2959 12.2439 11.8369 11.2399 12.8409C10.2639 13.8169 9.69293 15.0909 9.61093 16.4579L6.86793 19.2009L6.86893 19.1999ZM18.0279 19.6279C17.2729 20.3829 16.2679 20.7999 15.1999 20.7999C14.1319 20.7999 13.1269 20.3839 12.3719 19.6279C11.6169 18.8719 11.1999 17.8679 11.1999 16.7999C11.1999 15.7319 11.6159 14.7269 12.3719 13.9719C13.1279 13.2169 14.1319 12.7999 15.1999 12.7999C16.2679 12.7999 17.2729 13.2159 18.0279 13.9719C18.7829 14.7279 19.1999 15.7319 19.1999 16.7999C19.1999 17.8679 18.7839 18.8729 18.0279 19.6279ZM17.4629 15.6689L16.3319 16.7999L17.4629 17.9309L16.3319 19.0619L15.2009 17.9309L14.0699 19.0619L12.9389 17.9309L14.0699 16.7999L12.9389 15.6689L14.0699 14.5379L15.2009 15.6689L16.3319 14.5379L17.4629 15.6689Z"/>
</svg>
