<svg width="24" height="24" viewBox="0 0 24 24" xmlns="http://www.w3.org/2000/svg">
<path d="M12.9 2.5001C12.9 2.9971 12.497 3.4001 12 3.4001C11.503 3.4001 11.1 2.9971 11.1 2.5001C11.1 2.0031 11.503 1.6001 12 1.6001C12.497 1.6001 12.9 2.0031 12.9 2.5001ZM17.82 9.5711C18.649 10.7091 19.156 12.0971 19.197 13.6001H13.791L11.2 16.1911V20.0001C11.2 20.4411 10.841 20.8001 10.4 20.8001C9.959 20.8001 9.6 20.4411 9.6 20.0001V17.7911L8 19.3911V20.0001C8 21.3231 9.077 22.4001 10.4 22.4001C11.723 22.4001 12.8 21.3231 12.8 20.0001V15.2001H20.8V13.8001C20.8 11.7791 20.115 9.9141 18.964 8.4271L17.82 9.5711ZM2.534 20.3341L7.668 15.2001H3.199V13.8001C3.199 8.9481 7.147 5.0001 11.999 5.0001C13.676 5.0001 15.244 5.4711 16.579 6.2891L20.033 2.8351L21.163 3.9651L3.664 21.4641L2.534 20.3341ZM9.269 13.6001L15.409 7.4601C14.394 6.9121 13.233 6.6001 12 6.6001C8.097 6.6001 4.909 9.7221 4.803 13.6001H9.269Z"/>
</svg>
