<svg width="24" height="24" viewBox="0 0 24 24" xmlns="http://www.w3.org/2000/svg">
<path d="M20.722 13.6081C20.774 13.0851 20.8 12.5471 20.8 11.9941C20.8 10.4911 20.609 9.09207 20.233 7.83407C19.849 6.55107 19.278 5.43807 18.537 4.52607C17.785 3.60007 16.844 2.87307 15.742 2.36407C14.645 1.85807 13.393 1.60107 12.02 1.60107C10.647 1.60107 9.39499 1.85807 8.29799 2.36407C7.19599 2.87307 6.25399 3.60007 5.49799 4.52507C4.75299 5.43607 4.17599 6.54807 3.78299 7.83007C3.39699 9.08807 3.20099 10.4901 3.20099 11.9951C3.20099 13.5001 3.39699 14.9021 3.78299 16.1601C4.17599 17.4421 4.75199 18.5551 5.49699 19.4701C6.25299 20.4001 7.19599 21.1291 8.29899 21.6381C9.39599 22.1441 10.648 22.4011 12.021 22.4011C12.604 22.4011 13.164 22.3531 13.7 22.2611C14.589 22.8541 15.655 23.2011 16.801 23.2011C19.889 23.2011 22.401 20.6891 22.401 17.6011C22.401 16.0391 21.758 14.6251 20.723 13.6091L20.722 13.6081ZM8.96799 20.1841C8.08899 19.7781 7.33799 19.1981 6.73699 18.4591C6.12299 17.7051 5.64399 16.7741 5.31199 15.6901C4.97299 14.5841 4.80099 13.3401 4.80099 11.9941C4.80099 10.6481 4.97299 9.40507 5.31199 8.29807C5.64399 7.21607 6.12299 6.28607 6.73599 5.53707C7.33699 4.80207 8.08799 4.22307 8.96799 3.81607C9.85299 3.40707 10.88 3.20007 12.019 3.20007C13.158 3.20007 14.185 3.40707 15.07 3.81607C15.949 4.22207 16.697 4.80007 17.294 5.53507C17.902 6.28407 18.375 7.21207 18.699 8.29307C19.031 9.40107 19.199 10.6461 19.199 11.9941C19.199 12.1771 19.195 12.3581 19.188 12.5371C18.463 12.1931 17.653 12.0001 16.799 12.0001C16.732 12.0001 16.665 12.0031 16.598 12.0051C16.598 11.9891 16.598 11.9731 16.598 11.9571C16.598 9.68107 16.232 7.98707 15.479 6.77807C14.673 5.48407 13.469 4.80007 11.998 4.80007C10.527 4.80007 9.26299 5.48807 8.47899 6.78807C7.75199 7.99407 7.39799 9.68507 7.39799 11.9571C7.39799 14.2291 7.75999 15.9341 8.50399 17.1691C9.19899 18.3211 10.2 19.0021 11.421 19.1621C11.593 19.7531 11.86 20.3041 12.204 20.7971C12.142 20.7981 12.08 20.8001 12.017 20.8001C10.877 20.8001 9.85099 20.5931 8.96499 20.1841H8.96799ZM11.203 17.4821C10.664 17.3071 10.233 16.9341 9.87599 16.3421C9.29499 15.3771 8.99999 13.9021 8.99999 11.9571C8.99999 10.0121 9.28599 8.55107 9.85099 7.61407C10.351 6.78507 11.034 6.39907 12 6.39907C12.966 6.39907 13.603 6.78807 14.123 7.62307C14.705 8.55707 15 10.0151 15 11.9561C15 12.0721 14.999 12.1861 14.997 12.2981C12.827 13.0381 11.253 15.0751 11.203 17.4811V17.4821ZM16.8 21.6001C14.594 21.6001 12.8 19.8061 12.8 17.6001C12.8 15.3941 14.594 13.6001 16.8 13.6001C19.006 13.6001 20.8 15.3941 20.8 17.6001C20.8 19.8061 19.006 21.6001 16.8 21.6001ZM18.992 16.2561L15.456 19.7921L14.607 18.9431L18.143 15.4071L18.992 16.2561ZM14.6 16.1001C14.6 15.7131 14.913 15.4001 15.3 15.4001C15.687 15.4001 16 15.7131 16 16.1001C16 16.4871 15.687 16.8001 15.3 16.8001C14.913 16.8001 14.6 16.4871 14.6 16.1001ZM19 19.1001C19 19.4871 18.687 19.8001 18.3 19.8001C17.913 19.8001 17.6 19.4871 17.6 19.1001C17.6 18.7131 17.913 18.4001 18.3 18.4001C18.687 18.4001 19 18.7131 19 19.1001Z"/>
</svg>
