<svg width="24" height="24" viewBox="0 0 24 24" xmlns="http://www.w3.org/2000/svg">
<path d="M20.4341 2.43408L13.2681 9.60008H2.8001C2.1381 9.60008 1.6001 10.1381 1.6001 10.8001V13.2001C1.6001 13.8621 2.1381 14.4001 2.8001 14.4001H8.4691L2.4351 20.4341L3.5661 21.5651L21.5661 3.56608L20.4341 2.43408ZM3.2001 11.2001H4.8001V12.8001H3.2001V11.2001ZM6.4001 12.8001V11.2001H11.6691L10.0691 12.8001H6.4001Z"/>
<path d="M21.2001 9.60008H17.7911L16.1911 11.2001H20.8001V12.8001H14.5911L12.9911 14.4001H21.2001C21.8621 14.4001 22.4001 13.8621 22.4001 13.2001V10.8001C22.4001 10.1381 21.8621 9.60008 21.2001 9.60008Z"/>
<path d="M1.8341 6.83408L2.9651 7.96508L3.5651 7.36508C3.9301 7.00008 4.1311 6.51508 4.1311 5.99908C4.1311 5.48308 3.9301 4.99808 3.5651 4.63308C3.4811 4.54908 3.4681 4.45008 3.4681 4.39908C3.4681 4.34808 3.4811 4.24908 3.5651 4.16508L4.1651 3.56508L3.0341 2.43408L2.4341 3.03408C2.0691 3.39908 1.8681 3.88408 1.8681 4.40008C1.8681 4.91608 2.0691 5.40108 2.4341 5.76608C2.5181 5.85008 2.5311 5.94908 2.5311 6.00008C2.5311 6.05108 2.5181 6.15008 2.4341 6.23408L1.8341 6.83408Z"/>
<path d="M5.6341 6.83408L6.7651 7.96508L7.3651 7.36508C7.7301 7.00008 7.9311 6.51508 7.9311 5.99908C7.9311 5.48308 7.7301 4.99808 7.3651 4.63308C7.2811 4.54908 7.2681 4.45008 7.2681 4.39908C7.2681 4.34808 7.2811 4.24908 7.3651 4.16508L7.9651 3.56508L6.8341 2.43408L6.2341 3.03408C5.8691 3.39908 5.6681 3.88408 5.6681 4.40008C5.6681 4.91608 5.8691 5.40108 6.2341 5.76608C6.3181 5.85008 6.3311 5.94908 6.3311 6.00008C6.3311 6.05108 6.3181 6.15008 6.2341 6.23408L5.6341 6.83408Z"/>
</svg>
