<svg width="24" height="24" viewBox="0 0 24 24" xmlns="http://www.w3.org/2000/svg">
<path d="M17.3711 8.8521C17.1821 7.0151 16.0521 5.3841 14.4001 4.5621V4.0001C14.4001 2.6771 13.3231 1.6001 12.0001 1.6001C10.6771 1.6001 9.6001 2.6771 9.6001 4.0001V4.5621C7.9481 5.3841 6.8181 7.0151 6.6291 8.8521C5.9971 9.4371 5.6001 10.2731 5.6001 11.2001V19.2001C5.6001 20.9651 7.0351 22.4001 8.8001 22.4001H15.2001C16.9651 22.4001 18.4001 20.9651 18.4001 19.2001V11.2001C18.4001 10.2731 18.0031 9.4371 17.3711 8.8521ZM10.6781 5.8361L11.2001 5.6421V3.9991C11.2001 3.5581 11.5591 3.1991 12.0001 3.1991C12.4411 3.1991 12.8001 3.5581 12.8001 3.9991V5.6421L13.3221 5.8361C14.3531 6.2181 15.1461 7.0281 15.5351 8.0171C15.4251 8.0061 15.3131 7.9991 15.2011 7.9991H8.8011C8.6881 7.9991 8.5761 8.0051 8.4671 8.0171C8.8561 7.0281 9.6491 6.2181 10.6801 5.8361H10.6781ZM16.8001 19.2001C16.8001 20.0821 16.0821 20.8001 15.2001 20.8001H8.8001C7.9181 20.8001 7.2001 20.0821 7.2001 19.2001H10.4001V17.6001H7.2001V16.0001H10.4001V14.4001H7.2001V12.8001H10.4001V11.2001H7.2001C7.2001 10.3181 7.9181 9.6001 8.8001 9.6001H15.2001C16.0821 9.6001 16.8001 10.3181 16.8001 11.2001V19.2001Z"/>
</svg>
