<svg width="24" height="24" viewBox="0 0 24 24" xmlns="http://www.w3.org/2000/svg">
<path d="M20.4001 5.5999H16.8001V4.3999C16.8001 3.2969 15.9931 2.3999 15.0001 2.3999H9.0001C8.0071 2.3999 7.2001 3.2969 7.2001 4.3999V5.5999H3.6001C2.4971 5.5999 1.6001 6.4969 1.6001 7.5999V18.7999C1.6001 19.9029 2.4971 20.7999 3.6001 20.7999H20.4001C21.5031 20.7999 22.4001 19.9029 22.4001 18.7999V7.5999C22.4001 6.4969 21.5031 5.5999 20.4001 5.5999ZM8.8001 4.3999C8.8001 4.1509 8.9391 3.9999 9.0001 3.9999H15.0001C15.0611 3.9999 15.2001 4.1509 15.2001 4.3999V5.5999H8.8001V4.3999ZM20.8001 18.7999C20.8001 19.0209 20.6211 19.1999 20.4001 19.1999H3.6001C3.3791 19.1999 3.2001 19.0209 3.2001 18.7999V7.5999C3.2001 7.3789 3.3791 7.1999 3.6001 7.1999H20.4001C20.6211 7.1999 20.8001 7.3789 20.8001 7.5999V18.7999ZM15.5751 12.3789L10.8211 8.9909C10.5061 8.7659 10.0951 8.7369 9.7501 8.9149C9.4111 9.0899 9.2001 9.4339 9.2001 9.8119V16.5879C9.2001 16.9669 9.4111 17.3099 9.7501 17.4849C9.9001 17.5619 10.0621 17.5999 10.2241 17.5999C10.4341 17.5999 10.6431 17.5349 10.8211 17.4079L15.5751 14.0199C15.8411 13.8299 16.0001 13.5239 16.0001 13.1989C16.0001 12.8739 15.8411 12.5679 15.5751 12.3779V12.3789ZM10.8001 15.4589V10.9409L13.9701 13.1999L10.8001 15.4589Z"/>
</svg>
