<svg width="24" height="24" viewBox="0 0 24 24" xmlns="http://www.w3.org/2000/svg">
<path d="M21.5534 12.9449C21.5844 12.6339 21.6004 12.3189 21.6004 11.9999C21.6004 6.7069 17.2934 2.3999 12.0004 2.3999C6.70739 2.3999 2.40039 6.7069 2.40039 11.9999C2.40039 17.2929 6.70739 21.5999 12.0004 21.5999C12.8924 21.5999 13.7564 21.4769 14.5774 21.2479C15.3114 21.6019 16.1334 21.7999 17.0004 21.7999C20.0884 21.7999 22.6004 19.2879 22.6004 16.1999C22.6004 14.9869 22.2114 13.8629 21.5534 12.9449ZM19.9604 11.1999H19.5174C18.9074 10.8909 18.2334 10.6909 17.5214 10.6249C17.2614 8.3229 16.3644 6.1849 15.0444 4.6029C17.7144 5.7059 19.6624 8.2129 19.9604 11.1999ZM12.8004 4.6299C14.4294 5.9269 15.6084 8.2139 15.9184 10.7059C15.4124 10.8059 14.9304 10.9739 14.4834 11.1999H12.8004V4.6299ZM8.95639 4.6029C7.52739 6.3159 6.59139 8.6799 6.42639 11.1999H4.04039C4.33839 8.2129 6.28639 5.7059 8.95639 4.6029ZM4.04039 12.7999H6.42639C6.59139 15.3199 7.52739 17.6839 8.95639 19.3969C6.28639 18.2939 4.33839 15.7869 4.04039 12.7999ZM11.2004 19.3699C9.46439 17.9879 8.23939 15.4809 8.03239 12.7999H11.2004V19.3699ZM11.2004 11.1999H8.03239C8.23939 8.5189 9.46439 6.0119 11.2004 4.6299V11.1999ZM17.0004 20.1999C14.7944 20.1999 13.0004 18.4059 13.0004 16.1999C13.0004 13.9939 14.7944 12.1999 17.0004 12.1999C19.2064 12.1999 21.0004 13.9939 21.0004 16.1999C21.0004 18.4059 19.2064 20.1999 17.0004 20.1999ZM16.2174 15.3189C16.2174 15.3189 16.1974 15.4349 16.1784 15.5999H17.0024V16.7999H16.1784C16.1974 16.9649 16.2174 17.0809 16.2174 17.0809C16.2774 17.3469 16.3824 17.5609 16.5274 17.7119C16.6674 17.8569 16.8634 17.9279 17.1284 17.9279C17.3324 17.9279 17.4944 17.8619 17.6224 17.7249C17.7574 17.5809 17.8744 17.3479 17.9684 17.0349L17.9984 16.9359L19.2004 17.3219L19.1704 17.4159C19.0144 17.9089 18.7644 18.2989 18.4264 18.5769C18.0844 18.8579 17.6454 18.9999 17.1224 18.9999C16.8544 18.9999 16.5964 18.9629 16.3564 18.8889C16.1134 18.8149 15.8914 18.6989 15.6984 18.5449C15.5044 18.3909 15.3364 18.1929 15.1974 17.9559C15.0954 17.7799 14.9244 17.3599 14.8444 16.7999H14.2014V15.5999H14.8444C14.9244 15.0399 15.0944 14.6199 15.1974 14.4439C15.3364 14.2059 15.5044 14.0079 15.6984 13.8549C15.8924 13.7009 16.1134 13.5859 16.3564 13.5109C16.5974 13.4369 16.8544 13.3999 17.1224 13.3999C17.6454 13.3999 18.0844 13.5419 18.4264 13.8229C18.7644 14.1009 19.0154 14.4919 19.1704 14.9839L19.2004 15.0779L17.9984 15.4639L17.9684 15.3649C17.8744 15.0519 17.7584 14.8199 17.6224 14.6749C17.4944 14.5389 17.3324 14.4719 17.1284 14.4719C16.8634 14.4719 16.6674 14.5429 16.5274 14.6879C16.3824 14.8389 16.2774 15.0529 16.2174 15.3189Z"/>
</svg>
