<svg width="24" height="24" viewBox="0 0 24 24" xmlns="http://www.w3.org/2000/svg">
<path d="M12 16.7999C9.35305 16.7999 7.20005 14.6469 7.20005 11.9999C7.20005 9.3529 9.35305 7.1999 12 7.1999C14.647 7.1999 16.8 9.3529 16.8 11.9999C16.8 14.6469 14.647 16.7999 12 16.7999ZM12 8.7999C10.236 8.7999 8.80005 10.2349 8.80005 11.9999C8.80005 13.7649 10.236 15.1999 12 15.1999C13.764 15.1999 15.2 13.7649 15.2 11.9999C15.2 10.2349 13.764 8.7999 12 8.7999ZM12 2.3999C7.64405 2.3999 3.95605 5.3169 2.78705 9.2999H4.47005C5.58005 6.2139 8.53605 3.9999 12 3.9999C16.411 3.9999 20 7.5889 20 11.9999C20 16.4109 16.411 19.9999 12 19.9999C8.53605 19.9999 5.58005 17.7859 4.47005 14.6999H2.78705C3.95605 18.6829 7.64405 21.5999 12 21.5999C17.293 21.5999 21.6 17.2929 21.6 11.9999C21.6 6.7069 17.293 2.3999 12 2.3999ZM3.20005 11.0999C2.70305 11.0999 2.30005 11.5029 2.30005 11.9999C2.30005 12.4969 2.70305 12.8999 3.20005 12.8999C3.69705 12.8999 4.10005 12.4969 4.10005 11.9999C4.10005 11.5029 3.69705 11.0999 3.20005 11.0999Z"/>
</svg>
