<svg width="24" height="24" viewBox="0 0 24 24" xmlns="http://www.w3.org/2000/svg">
<path d="M20.8001 5.70002H19.2001V3.12402L18.2431 3.31502C18.0821 3.34702 14.5401 4.07602 12.0001 6.21602C9.4601 4.07602 5.9181 3.34702 5.7571 3.31502L4.8001 3.12402V5.70002H3.2001C2.3181 5.70002 1.6001 6.41802 1.6001 7.30002V18.5C1.6001 19.382 2.3181 20.1 3.2001 20.1H20.8001C21.6821 20.1 22.4001 19.382 22.4001 18.5V7.30002C22.4001 6.41802 21.6821 5.70002 20.8001 5.70002ZM12.8001 7.64202C14.3021 6.27102 16.3951 5.49502 17.6001 5.13502V15.47C16.5911 15.739 14.5751 16.384 12.8001 17.607V7.64202ZM6.4001 5.13502C7.6051 5.49502 9.6981 6.27102 11.2001 7.64202V17.607C9.4251 16.384 7.4091 15.739 6.4001 15.47V5.13502ZM3.2001 7.30002H4.8001V16.755L5.4421 16.885C5.4691 16.891 7.6221 17.336 9.6191 18.501H3.2001V7.30002ZM20.8001 18.5H14.3801C16.3781 17.336 18.5301 16.89 18.5571 16.884L19.2001 16.755V7.29902H20.8001V18.5Z"/>
</svg>
