<svg width="24" height="24" viewBox="0 0 24 24" xmlns="http://www.w3.org/2000/svg">
<path d="M18.8 3.19995H5.19995C4.09695 3.19995 3.19995 4.09695 3.19995 5.19995V18.8C3.19995 19.903 4.09695 20.8 5.19995 20.8H18.8C19.903 20.8 20.8 19.903 20.8 18.8V5.19995C20.8 4.09695 19.903 3.19995 18.8 3.19995ZM19.2 18.8C19.2 19.021 19.021 19.2 18.8 19.2H5.19995C4.97895 19.2 4.79995 19.021 4.79995 18.8V5.19995C4.79995 4.97895 4.97895 4.79995 5.19995 4.79995H18.8C19.021 4.79995 19.2 4.97895 19.2 5.19995V18.8ZM12 6.39995H17.6V12H16V9.13095L7.76595 17.365L6.63495 16.234L14.869 7.99995H12V6.39995Z"/>
</svg>
