<svg width="24" height="24" viewBox="0 0 24 24" xmlns="http://www.w3.org/2000/svg">
<path d="M4.9001 20.1C4.9001 20.597 4.4971 21 4.0001 21C3.5031 21 3.1001 20.597 3.1001 20.1C3.1001 19.603 3.5031 19.2 4.0001 19.2C4.4971 19.2 4.9001 19.603 4.9001 20.1ZM12.0001 19.2C11.5031 19.2 11.1001 19.603 11.1001 20.1C11.1001 20.597 11.5031 21 12.0001 21C12.4971 21 12.9001 20.597 12.9001 20.1C12.9001 19.603 12.4971 19.2 12.0001 19.2ZM20.0001 19.2C19.5031 19.2 19.1001 19.603 19.1001 20.1C19.1001 20.597 19.5031 21 20.0001 21C20.4971 21 20.9001 20.597 20.9001 20.1C20.9001 19.603 20.4971 19.2 20.0001 19.2ZM4.8001 17.6H3.2001V11.2H11.2001V7.99995H5.6001V3.19995H18.4001V7.99995H12.8001V11.2H20.8001V17.6H19.2001V12.8H12.8001V17.6H11.2001V12.8H4.8001V17.6ZM7.2001 6.39995H16.8001V4.79995H7.2001V6.39995Z"/>
</svg>
