<svg width="24" height="24" viewBox="0 0 24 24" xmlns="http://www.w3.org/2000/svg">
<path d="M16.5608 21.6709C16.4868 21.6709 16.4128 21.6639 16.3388 21.6509C13.7878 21.1769 10.5898 19.1229 7.33376 15.8659C4.16576 12.6979 2.05976 9.41989 1.55376 6.87289C1.47476 6.47689 1.59776 6.07088 1.88176 5.78688L5.49976 2.16888L10.8308 7.49989L8.83576 9.49488C9.17876 10.2519 9.85876 11.3279 10.8648 12.3339C11.8598 13.3289 12.9418 14.0119 13.7058 14.3609L15.6988 12.3679L21.0298 17.6989L17.4098 21.3189C17.1828 21.5459 16.8758 21.6699 16.5598 21.6699L16.5608 21.6709ZM3.16776 6.76389C3.68376 8.95788 5.64776 11.9169 8.46576 14.7349C11.3628 17.6319 14.2508 19.5509 16.4318 20.0369L18.7688 17.6999L15.6998 14.6309L14.6468 15.6839C14.3078 16.0229 13.8018 16.1279 13.3588 15.9519C12.1748 15.4799 10.8198 14.5509 9.73476 13.4649C8.63676 12.3669 7.70576 11.0099 7.24476 9.83589C7.07176 9.39389 7.17776 8.89088 7.51476 8.55288L8.56876 7.49888L5.49976 4.42988L3.16776 6.76189V6.76389ZM17.3658 1.43388L16.2348 2.56488L17.6688 3.99888H11.9998V5.59889H17.6688L16.2348 7.03289L17.3658 8.16388L20.7318 4.79788L17.3658 1.43188V1.43388Z"/>
</svg>
