<svg width="24" height="24" viewBox="0 0 24 24" xmlns="http://www.w3.org/2000/svg">
<path d="M15.5518 14.3549L14.3808 13.1839L15.8648 11.6999C16.1828 11.3819 16.5108 11.2339 16.8988 11.2339C18.0448 11.2339 19.1398 10.7329 19.9018 9.85991C20.5448 9.12391 20.8988 8.19091 20.8988 7.23391C20.8988 6.27891 20.5458 5.34691 19.9018 4.60791C19.1298 3.72091 18.0678 3.23291 16.9108 3.23291H16.8958C15.7938 3.23691 14.7498 3.64991 14.0328 4.36691C13.3158 5.08391 12.9038 6.12491 12.8988 7.22891C12.8968 7.61591 12.7448 7.95591 12.4328 8.26691L10.9488 9.75091L9.77783 8.57991C9.21083 8.01291 8.89883 7.25991 8.89883 6.45891V3.23291H7.29883V6.45891C7.29883 7.68791 7.77683 8.84291 8.64583 9.71191L9.19483 10.2609C7.17483 9.83391 5.07983 10.4429 3.59583 11.9279C2.43683 13.0869 1.79883 14.6269 1.79883 16.2659C1.79883 17.9049 2.43683 19.4449 3.59583 20.6039C4.75483 21.7629 6.29483 22.4009 7.93383 22.4009C9.57283 22.4009 11.1128 21.7629 12.2718 20.6039C13.7378 19.1379 14.3528 17.0069 13.9358 15.0019L14.4208 15.4869C15.2898 16.3559 16.4448 16.8339 17.6738 16.8339H17.6998V15.2339H17.6738C16.8728 15.2339 16.1178 14.9219 15.5518 14.3549ZM9.72283 12.3859L10.5218 11.5869L12.5018 13.5669L11.7028 14.3659C11.4388 14.6299 11.0868 14.7759 10.7128 14.7759C10.3388 14.7759 9.98783 14.6299 9.72283 14.3659C9.45883 14.1019 9.31283 13.7499 9.31283 13.3759C9.31283 13.0019 9.45883 12.6509 9.72283 12.3859ZM13.5648 9.39991C14.1718 8.79291 14.4948 8.04491 14.4988 7.23791C14.5018 6.55291 14.7448 5.91891 15.1648 5.49991C15.5858 5.07891 16.2188 4.83691 16.9018 4.83391C17.5918 4.82891 18.2298 5.12491 18.6958 5.65891C19.0848 6.10591 19.2998 6.66491 19.2988 7.23291C19.2988 7.80291 19.0848 8.36191 18.6958 8.80791C18.2378 9.33291 17.5828 9.63391 16.8988 9.63391C16.0818 9.63391 15.3528 9.94791 14.7328 10.5679L13.2488 12.0519L12.0798 10.8829L13.5638 9.39891L13.5648 9.39991ZM11.1408 19.4719C10.2848 20.3279 9.14583 20.7999 7.93483 20.7999C6.72383 20.7999 5.58483 20.3279 4.72883 19.4719C3.87283 18.6159 3.40083 17.4769 3.40083 16.2659C3.40083 15.0549 3.87283 13.9159 4.72883 13.0599C5.66283 12.1259 6.92383 11.6629 8.19883 11.7389C7.88283 12.2219 7.71283 12.7859 7.71283 13.3759C7.71283 14.1769 8.02483 14.9309 8.59183 15.4969C9.15883 16.0629 9.91183 16.3759 10.7128 16.3759C11.3438 16.3759 11.9448 16.1819 12.4488 15.8219C12.5838 17.1569 12.1218 18.4899 11.1398 19.4719H11.1408ZM21.0998 16.0339C21.0998 16.5309 20.6968 16.9339 20.1998 16.9339C19.7028 16.9339 19.2998 16.5309 19.2998 16.0339C19.2998 15.5369 19.7028 15.1339 20.1998 15.1339C20.6968 15.1339 21.0998 15.5369 21.0998 16.0339Z"/>
</svg>
