<svg width="24" height="24" viewBox="0 0 24 24" xmlns="http://www.w3.org/2000/svg">
<path d="M16.5358 6.53602C16.1848 6.88702 15.6148 6.88702 15.2628 6.53602C14.9118 6.18502 14.9118 5.61502 15.2628 5.26302C15.6138 4.91202 16.1838 4.91202 16.5358 5.26302C16.8868 5.61402 16.8868 6.18402 16.5358 6.53602ZM17.4638 7.46402C17.1128 7.81502 17.1128 8.38502 17.4638 8.73702C17.8148 9.08802 18.3848 9.08802 18.7368 8.73702C19.0878 8.38602 19.0878 7.81602 18.7368 7.46402C18.3858 7.11302 17.8158 7.11302 17.4638 7.46402ZM10.8638 9.66402C10.5128 10.015 10.5128 10.585 10.8638 10.937C11.2148 11.288 11.7848 11.288 12.1368 10.937C12.4878 10.586 12.4878 10.016 12.1368 9.66402C11.7858 9.31302 11.2158 9.31302 10.8638 9.66402ZM13.0638 11.864C12.7128 12.215 12.7128 12.785 13.0638 13.137C13.4148 13.488 13.9848 13.488 14.3368 13.137C14.6878 12.786 14.6878 12.216 14.3368 11.864C13.9858 11.513 13.4158 11.513 13.0638 11.864ZM14.1638 8.56402C13.8128 8.91502 13.8128 9.48502 14.1638 9.83702C14.5148 10.188 15.0848 10.188 15.4368 9.83702C15.7878 9.48602 15.7878 8.91602 15.4368 8.56402C15.0858 8.21302 14.5158 8.21302 14.1638 8.56402ZM16.5638 10.964C16.2128 11.315 16.2128 11.885 16.5638 12.237C16.9148 12.588 17.4848 12.588 17.8368 12.237C18.1878 11.886 18.1878 11.316 17.8368 10.964C17.4858 10.613 16.9158 10.613 16.5638 10.964ZM13.0358 7.43602C13.3868 7.08502 13.3868 6.51502 13.0358 6.16302C12.6848 5.81202 12.1148 5.81202 11.7628 6.16302C11.4118 6.51402 11.4118 7.08402 11.7628 7.43602C12.1138 7.78702 12.6838 7.78702 13.0358 7.43602ZM22.3988 9.06402C22.4678 12.987 19.5848 16.289 15.6938 16.746H15.6808L11.9658 17.123C10.7768 17.243 9.65685 17.775 8.81185 18.62L4.99985 22.432L1.56885 19.001L5.37985 15.19C6.22485 14.345 6.75585 13.225 6.87685 12.036L7.25385 8.30802C7.71085 4.41702 11.0128 1.53402 14.9358 1.60302C16.9038 1.63702 18.7618 2.43002 20.1668 3.83502C21.5718 5.24002 22.3648 7.09802 22.3988 9.06602V9.06402ZM10.6268 15.758L8.24185 13.373C7.92585 14.48 7.33185 15.499 6.51085 16.32L3.83085 19L4.99985 20.169L7.67985 17.489C8.49985 16.669 9.51985 16.075 10.6258 15.759L10.6268 15.758ZM20.7988 9.09202C20.7428 5.89902 18.0998 3.25702 14.9078 3.20102C11.8138 3.14602 9.20685 5.41902 8.84385 8.48702L8.54785 11.416L12.5838 15.452L15.5128 15.156C18.5808 14.793 20.8528 12.187 20.7988 9.09202Z"/>
</svg>
