<svg width="24" height="24" viewBox="0 0 24 24" xmlns="http://www.w3.org/2000/svg">
<path d="M23.2001 10.0001C23.2001 5.3681 19.4321 1.6001 14.8001 1.6001C11.2391 1.6001 8.1901 3.8291 6.9701 6.9641C3.7421 8.2101 1.6001 11.3111 1.6001 14.8001C1.6001 19.4321 5.3681 23.2001 10.0001 23.2001C13.4891 23.2001 16.5901 21.0581 17.8361 17.8301C20.9711 16.6101 23.2001 13.5611 23.2001 10.0001ZM10.0001 21.6001C6.2501 21.6001 3.2001 18.5501 3.2001 14.8001C3.2001 12.3871 4.4661 10.2041 6.4631 8.9901C6.4231 9.3211 6.4001 9.6581 6.4001 10.0001C6.4001 14.6321 10.1681 18.4001 14.8001 18.4001C15.1421 18.4001 15.4791 18.3771 15.8101 18.3371C14.5961 20.3341 12.4131 21.6001 10.0001 21.6001ZM14.8001 16.8001C11.0501 16.8001 8.0001 13.7501 8.0001 10.0001C8.0001 6.2501 11.0501 3.2001 14.8001 3.2001C18.5501 3.2001 21.6001 6.2501 21.6001 10.0001C21.6001 13.7501 18.5501 16.8001 14.8001 16.8001ZM16.0001 6.4001H12.8001V13.6001H14.4001V11.2001H16.0001C17.3231 11.2001 18.4001 10.1231 18.4001 8.8001C18.4001 7.4771 17.3231 6.4001 16.0001 6.4001ZM16.0001 9.6001H14.4001V8.0001H16.0001C16.4411 8.0001 16.8001 8.3591 16.8001 8.8001C16.8001 9.2411 16.4411 9.6001 16.0001 9.6001Z"/>
</svg>
