<svg width="24" height="24" viewBox="0 0 24 24" xmlns="http://www.w3.org/2000/svg">
<path d="M12.0002 4.8001C8.9122 4.8001 6.4002 7.3121 6.4002 10.4001C6.4002 13.4881 8.9122 16.0001 12.0002 16.0001C15.0882 16.0001 17.6002 13.4881 17.6002 10.4001C17.6002 7.3121 15.0882 4.8001 12.0002 4.8001ZM15.9202 9.6001H14.5702C14.4952 8.6041 14.2822 7.6861 13.9582 6.9141C14.9532 7.4751 15.6852 8.4481 15.9202 9.6001ZM12.0002 14.1191C11.5452 13.5371 11.1522 12.5091 11.0352 11.2001H12.9642C12.8472 12.5091 12.4542 13.5361 11.9992 14.1191H12.0002ZM11.0352 9.6001C11.1522 8.2911 11.5452 7.2631 12.0002 6.6811C12.4552 7.2631 12.8482 8.2911 12.9652 9.6001H11.0352ZM10.0422 6.9141C9.7182 7.6861 9.5052 8.6051 9.4302 9.6001H8.0802C8.3152 8.4481 9.0472 7.4751 10.0422 6.9141ZM8.0802 11.2001H9.4302C9.5052 12.1961 9.7182 13.1141 10.0422 13.8861C9.0472 13.3251 8.3152 12.3521 8.0802 11.2001ZM13.9582 13.8861C14.2822 13.1141 14.4952 12.1951 14.5702 11.2001H15.9202C15.6852 12.3521 14.9532 13.3251 13.9582 13.8861ZM18.4002 1.6001H5.6002C4.2772 1.6001 3.2002 2.6771 3.2002 4.0001V20.0001C3.2002 21.3231 4.2772 22.4001 5.6002 22.4001H18.4002C19.7232 22.4001 20.8002 21.3231 20.8002 20.0001V4.0001C20.8002 2.6771 19.7232 1.6001 18.4002 1.6001ZM19.2002 20.0001C19.2002 20.4411 18.8412 20.8001 18.4002 20.8001H5.6002C5.1592 20.8001 4.8002 20.4411 4.8002 20.0001V4.0001C4.8002 3.5591 5.1592 3.2001 5.6002 3.2001H18.4002C18.8412 3.2001 19.2002 3.5591 19.2002 4.0001V20.0001ZM8.0182 17.6191H15.9822V19.2191H8.0182V17.6191Z"/>
</svg>
