<svg width="24" height="24" viewBox="0 0 24 24" xmlns="http://www.w3.org/2000/svg">
<path d="M11.2002 20.866C11.6973 20.866 12.1002 20.4631 12.1002 19.966C12.1002 19.469 11.6973 19.066 11.2002 19.066C10.7031 19.066 10.3002 19.469 10.3002 19.966C10.3002 20.4631 10.7031 20.866 11.2002 20.866Z"/>
<path d="M20.8002 20.766H13.6002V14.366H15.2002V19.166H19.2002V5.29703L15.6492 8.84803C15.3052 9.19203 14.7912 9.29503 14.3412 9.10803C13.8912 8.92203 13.6002 8.48603 13.6002 7.99903V5.29603L10.0492 8.84703C9.7052 9.19103 9.1912 9.29403 8.7412 9.10703C8.2912 8.92103 8.0002 8.48503 8.0002 7.99803V5.29503L4.8002 8.49503V19.164H8.9312V20.764H3.2002V8.33003C3.2002 8.00903 3.3252 7.70803 3.5512 7.48203L7.5512 3.48203C7.8952 3.13803 8.40919 3.03503 8.8592 3.22203C9.3092 3.40803 9.6002 3.84403 9.6002 4.33103V7.03403L13.1512 3.48303C13.4952 3.13903 14.0092 3.03603 14.4592 3.22303C14.9092 3.40903 15.2002 3.84503 15.2002 4.33203V7.03503L18.7512 3.48403C19.0952 3.14003 19.6092 3.03703 20.0592 3.22403C20.5092 3.41003 20.8002 3.84603 20.8002 4.33303V20.766Z"/>
</svg>
