<svg width="24" height="24" viewBox="0 0 24 24" xmlns="http://www.w3.org/2000/svg">
<path d="M11.9999 21.5999C6.7069 21.5999 2.3999 17.2929 2.3999 11.9999C2.3999 6.7069 6.7069 2.3999 11.9999 2.3999C17.2929 2.3999 21.5999 6.7069 21.5999 11.9999C21.5999 17.2929 17.2929 21.5999 11.9999 21.5999ZM11.9999 3.9999C7.5889 3.9999 3.9999 7.5889 3.9999 11.9999C3.9999 16.4109 7.5889 19.9999 11.9999 19.9999C16.4109 19.9999 19.9999 16.4109 19.9999 11.9999C19.9999 7.5889 16.4109 3.9999 11.9999 3.9999ZM11.1999 7.9999H9.5999V15.9999H11.1999V7.9999ZM14.3999 7.9999H12.7999V15.9999H14.3999V7.9999Z"/>
</svg>
