<svg width="24" height="24" viewBox="0 0 24 24" xmlns="http://www.w3.org/2000/svg">
<path d="M9.5 22.5001C9.99706 22.5001 10.4 22.0972 10.4 21.6001C10.4 21.103 9.99706 20.7001 9.5 20.7001C9.00294 20.7001 8.6 21.103 8.6 21.6001C8.6 22.0972 9.00294 22.5001 9.5 22.5001Z"/>
<path d="M20 13.0081V9.2681L12.331 1.6001H4V22.4001H7V20.8001H5.6V3.2001H11.2V10.4001H18.4V12.2341C17.893 12.0821 17.356 12.0001 16.8 12.0001C13.712 12.0001 11.2 14.5121 11.2 17.6001C11.2 20.6881 13.712 23.2001 16.8 23.2001C19.888 23.2001 22.4 20.6881 22.4 17.6001C22.4 15.7011 21.449 14.0211 20 13.0081ZM12.8 4.3311L17.269 8.8001H12.8V4.3311ZM16.8 21.6001C14.594 21.6001 12.8 19.8061 12.8 17.6001C12.8 15.3941 14.594 13.6001 16.8 13.6001C19.006 13.6001 20.8 15.3941 20.8 17.6001C20.8 19.8061 19.006 21.6001 16.8 21.6001Z"/>
<path d="M18.687 17.9291C18.6 17.7611 18.479 17.6181 18.326 17.5031C18.18 17.3931 18.006 17.3021 17.809 17.2311C17.622 17.1631 17.403 17.1051 17.212 17.0571L17.13 17.0361C16.972 16.9951 16.814 16.9551 16.682 16.9231C16.557 16.8921 16.439 16.8251 16.377 16.7721C16.36 16.7571 16.307 16.7121 16.307 16.5781C16.307 16.4911 16.334 16.4191 16.388 16.3591C16.441 16.3011 16.539 16.2601 16.65 16.2491C16.826 16.2321 16.986 16.2401 17.101 16.2711C17.238 16.3081 17.354 16.3641 17.454 16.4421C17.568 16.5311 17.678 16.6311 17.782 16.7391L17.926 16.8891L18.78 16.0901L18.66 15.9611C18.577 15.8721 18.489 15.7871 18.401 15.7091C18.307 15.6271 18.202 15.5531 18.087 15.4891C17.972 15.4241 17.84 15.3691 17.696 15.3241C17.606 15.2961 17.519 15.2751 17.399 15.2521V14.6011H16.199V15.2651C16.113 15.2861 16.023 15.3121 15.949 15.3401C15.754 15.4141 15.586 15.5161 15.449 15.6401C15.311 15.7661 15.203 15.9171 15.128 16.0901C15.054 16.2611 15.016 16.4521 15.016 16.6571C15.016 16.8931 15.064 17.0981 15.158 17.2651C15.251 17.4301 15.375 17.5691 15.528 17.6791C15.674 17.7841 15.843 17.8711 16.032 17.9371C16.208 17.9991 16.392 18.0531 16.575 18.0981L17.098 18.2311C17.257 18.2801 17.374 18.3381 17.445 18.4031C17.5 18.4541 17.527 18.5251 17.527 18.6211C17.527 18.7311 17.499 18.8101 17.442 18.8621C17.384 18.9161 17.263 18.9601 17.127 18.9791C16.971 19.0001 16.819 18.9981 16.661 18.9741C16.508 18.9501 16.356 18.8881 16.209 18.7881C16.052 18.6821 15.91 18.5501 15.787 18.3951L15.642 18.2141L14.815 19.0291L14.92 19.1531C15.016 19.2671 15.12 19.3721 15.228 19.4641C15.34 19.5601 15.464 19.6441 15.598 19.7141C15.73 19.7841 15.879 19.8431 16.04 19.8911C16.088 19.9051 16.143 19.9181 16.198 19.9311V20.6021H17.398V19.9741C17.561 19.9441 17.762 19.8991 17.911 19.8361C18.116 19.7491 18.288 19.6391 18.422 19.5081C18.558 19.3751 18.659 19.2211 18.723 19.0511C18.784 18.8861 18.816 18.7121 18.816 18.5321C18.816 18.3001 18.772 18.0981 18.686 17.9301L18.687 17.9291Z"/>
</svg>
