<svg width="24" height="24" viewBox="0 0 24 24" xmlns="http://www.w3.org/2000/svg">
<path d="M9.5 22.5001C9.99706 22.5001 10.4 22.0972 10.4 21.6001C10.4 21.103 9.99706 20.7001 9.5 20.7001C9.00294 20.7001 8.6 21.103 8.6 21.6001C8.6 22.0972 9.00294 22.5001 9.5 22.5001Z"/>
<path d="M20 13.0081V9.2681L12.331 1.6001H4V22.4001H7V20.8001H5.6V3.2001H11.2V10.4001H18.4V12.2341C17.893 12.0821 17.356 12.0001 16.8 12.0001C13.712 12.0001 11.2 14.5121 11.2 17.6001C11.2 20.6881 13.712 23.2001 16.8 23.2001C19.888 23.2001 22.4 20.6881 22.4 17.6001C22.4 15.7011 21.449 14.0211 20 13.0081ZM12.8 4.3311L17.269 8.8001H12.8V4.3311ZM16.8 21.6001C14.594 21.6001 12.8 19.8061 12.8 17.6001C12.8 15.3941 14.594 13.6001 16.8 13.6001C19.006 13.6001 20.8 15.3941 20.8 17.6001C20.8 19.8061 19.006 21.6001 16.8 21.6001Z"/>
<path d="M17.768 18.4351C17.674 18.7481 17.558 18.9801 17.422 19.1251C17.294 19.2611 17.132 19.3281 16.928 19.3281C16.663 19.3281 16.467 19.2571 16.327 19.1121C16.182 18.9611 16.077 18.7471 16.017 18.4811C16.017 18.4811 15.997 18.3651 15.978 18.2001H16.802V17.0001H15.978C15.997 16.8351 16.017 16.7191 16.017 16.7191C16.077 16.4531 16.182 16.2391 16.327 16.0881C16.467 15.9431 16.663 15.8721 16.928 15.8721C17.133 15.8721 17.294 15.9381 17.422 16.0751C17.557 16.2191 17.674 16.4521 17.768 16.7651L17.798 16.8641L19 16.4781L18.97 16.3841C18.814 15.8911 18.564 15.5011 18.226 15.2231C17.884 14.9421 17.445 14.8001 16.922 14.8001C16.654 14.8001 16.396 14.8371 16.156 14.9111C15.913 14.9851 15.691 15.1011 15.498 15.2551C15.304 15.4081 15.136 15.6071 14.997 15.8441C14.894 16.0201 14.724 16.4401 14.644 17.0001H14.001V18.2001H14.644C14.724 18.7601 14.894 19.1801 14.997 19.3561C15.136 19.5941 15.304 19.7921 15.498 19.9451C15.692 20.0991 15.913 20.2151 16.156 20.2891C16.397 20.3631 16.654 20.4001 16.922 20.4001C17.445 20.4001 17.884 20.2581 18.226 19.9771C18.564 19.6991 18.815 19.3081 18.97 18.8161L19 18.7221L17.798 18.3361L17.768 18.4351Z"/>
</svg>
