<svg width="24" height="24" viewBox="0 0 24 24" xmlns="http://www.w3.org/2000/svg">
<path d="M12.331 1.6001H4V22.4001H7V20.8001H5.6V3.2001H11.2V10.4001H18.4V20.8001H12V22.4001H20V9.2691L12.331 1.6001ZM12.8 4.3311L17.269 8.8001H12.8V4.3311ZM10.4 21.6001C10.4 22.0971 9.997 22.5001 9.5 22.5001C9.003 22.5001 8.6 22.0971 8.6 21.6001C8.6 21.1031 9.003 20.7001 9.5 20.7001C9.997 20.7001 10.4 21.1031 10.4 21.6001ZM8.967 13.8031H7.668V17.3001H8.59V16.1281H8.958C9.923 16.1281 10.412 15.7351 10.412 14.9591C10.412 13.8031 9.325 13.8031 8.967 13.8031ZM8.985 15.3671H8.59V14.5961H8.985C9.441 14.5961 9.504 14.7791 9.504 14.9771C9.504 15.1751 9.441 15.3671 8.985 15.3671ZM13.788 15.5341C13.788 14.4021 13.143 13.8031 11.924 13.8031H10.813V17.3001H11.924C13.144 17.3001 13.788 16.6891 13.788 15.5341ZM11.973 16.5121H11.734V14.6091H11.964C12.61 14.6091 12.862 14.8711 12.862 15.5431C12.862 16.2501 12.621 16.5121 11.973 16.5121ZM15.171 14.6091V15.2111H16.223L16.367 15.9861H15.17V17.3001H14.244V13.8031H16.623V14.6091H15.171Z"/>
</svg>
