<svg width="24" height="24" viewBox="0 0 24 24" xmlns="http://www.w3.org/2000/svg">
<path d="M6.4 11.2H8V12.8H6.4V11.2ZM6.4 16H8V14.4H6.4V16ZM6.4 19.2H8V17.6H6.4V19.2ZM9.6 11.2V12.8H11.2V11.2H9.6ZM21.6 17.6C21.6 20.688 19.088 23.2 16 23.2C13.468 23.2 11.324 21.511 10.634 19.2H9.6V17.6H10.4C10.4 17.044 10.483 16.507 10.634 16H9.6V14.4H11.4V14.412C11.78 13.865 12.255 13.39 12.8 13.009V11.201H14.4V12.235C14.907 12.083 15.444 12.001 16 12.001V11.201H17.6V12.235C18.178 12.408 18.717 12.671 19.2 13.009V9.60095H4.8V20.801H6.6V22.401H3.2V4.79995H6.4V3.19995H8V4.79995H16V3.19995H17.6V4.79995H20.8V14.719C21.307 15.561 21.6 16.547 21.6 17.6ZM19.2 7.99995V6.39995H4.8V7.99995H19.2ZM20 17.6C20 15.394 18.206 13.6 16 13.6C13.794 13.6 12 15.394 12 17.6C12 19.806 13.794 21.6 16 21.6C18.206 21.6 20 19.806 20 17.6ZM14.434 16.166L15.868 17.6L14.434 19.034L15.565 20.165L18.131 17.599L15.565 15.033L14.434 16.164V16.166ZM9.1 20.7C8.603 20.7 8.2 21.103 8.2 21.6C8.2 22.097 8.603 22.5 9.1 22.5C9.597 22.5 10 22.097 10 21.6C10 21.103 9.597 20.7 9.1 20.7Z"/>
</svg>
