<svg width="24" height="24" viewBox="0 0 24 24" xmlns="http://www.w3.org/2000/svg">
<path d="M12.0002 9.6002C10.5112 9.6002 9.3002 8.1642 9.3002 6.4002C9.3002 4.6362 10.5112 3.2002 12.0002 3.2002C13.4892 3.2002 14.7002 4.6362 14.7002 6.4002C14.7002 8.1642 13.4892 9.6002 12.0002 9.6002ZM12.0002 4.8002C11.4042 4.8002 10.9002 5.5332 10.9002 6.4002C10.9002 7.2672 11.4042 8.0002 12.0002 8.0002C12.5962 8.0002 13.1002 7.2672 13.1002 6.4002C13.1002 5.5332 12.5962 4.8002 12.0002 4.8002Z"/>
<path d="M5.6002 12.4002C4.2772 12.4002 3.2002 11.1442 3.2002 9.6002C3.2002 8.0562 4.2772 6.8002 5.6002 6.8002C6.9232 6.8002 8.0002 8.0562 8.0002 9.6002C8.0002 11.1442 6.9232 12.4002 5.6002 12.4002ZM5.6002 8.4002C5.1742 8.4002 4.8002 8.9612 4.8002 9.6002C4.8002 10.2392 5.1742 10.8002 5.6002 10.8002C6.0262 10.8002 6.4002 10.2392 6.4002 9.6002C6.4002 8.9612 6.0262 8.4002 5.6002 8.4002Z"/>
<path d="M18.4002 12.4002C17.0772 12.4002 16.0002 11.1442 16.0002 9.6002C16.0002 8.0562 17.0772 6.8002 18.4002 6.8002C19.7232 6.8002 20.8002 8.0562 20.8002 9.6002C20.8002 11.1442 19.7232 12.4002 18.4002 12.4002ZM18.4002 8.4002C17.9742 8.4002 17.6002 8.9612 17.6002 9.6002C17.6002 10.2392 17.9742 10.8002 18.4002 10.8002C18.8262 10.8002 19.2002 10.2392 19.2002 9.6002C19.2002 8.9612 18.8262 8.4002 18.4002 8.4002Z"/>
<path d="M16.0002 20.8002C14.6892 20.8002 13.9122 20.2352 13.2892 19.7802C12.7812 19.4092 12.4702 19.2002 12.0002 19.2002C11.5302 19.2002 11.2202 19.4102 10.7112 19.7802C10.0872 20.2342 9.3112 20.8002 8.0002 20.8002C7.0032 20.8002 6.1332 20.3752 5.5492 19.6042C4.9242 18.7792 4.7302 17.6502 5.0302 16.5832C5.3622 15.4012 6.3782 13.9862 7.7462 12.7972C9.2082 11.5272 10.7582 10.7992 12.0002 10.7992C13.2422 10.7992 14.7922 11.5272 16.2542 12.7972C17.6222 13.9852 18.6382 15.4012 18.9702 16.5832C19.2702 17.6502 19.0762 18.7792 18.4512 19.6042C17.8672 20.3752 16.9972 20.8002 16.0002 20.8002ZM12.0002 17.6002C13.0142 17.6002 13.6602 18.0712 14.2312 18.4872C14.7782 18.8852 15.2102 19.2002 16.0002 19.2002C16.6202 19.2002 16.9822 18.8952 17.1762 18.6382C17.5002 18.2102 17.5952 17.6042 17.4302 17.0162C16.9292 15.2352 13.8762 12.3992 12.0002 12.3992C10.1242 12.3992 7.0712 15.2352 6.5702 17.0162C6.4052 17.6032 6.5002 18.2102 6.8242 18.6382C7.0182 18.8942 7.3802 19.2002 8.0002 19.2002C8.7902 19.2002 9.2222 18.8852 9.7692 18.4872C10.3402 18.0712 10.9862 17.6002 12.0002 17.6002Z"/>
</svg>
