<svg width="24" height="24" viewBox="0 0 24 24" xmlns="http://www.w3.org/2000/svg">
<path d="M17.27 16.4201L18.055 17.5411L16.744 18.4591L15.999 17.3951L15.254 18.4591L13.943 17.5411L14.728 16.4201L13.345 15.9591L13.851 14.4411L15.198 14.8901V13.6001H16.798V14.8901L18.145 14.4411L18.651 15.9591L17.268 16.4201H17.27ZM10.4 15.1001C9.90298 15.1001 9.49998 15.5031 9.49998 16.0001C9.49998 16.4971 9.90298 16.9001 10.4 16.9001C10.897 16.9001 11.3 16.4971 11.3 16.0001C11.3 15.5031 10.897 15.1001 10.4 15.1001ZM6.19998 15.1001C5.70298 15.1001 5.29998 15.5031 5.29998 16.0001C5.29998 16.4971 5.70298 16.9001 6.19998 16.9001C6.69698 16.9001 7.09998 16.4971 7.09998 16.0001C7.09998 15.5031 6.69698 15.1001 6.19998 15.1001ZM19.008 7.2001H15.2V1.6001H13.6V7.2001H12V8.8001H19.008C19.996 8.8001 20.8 9.6041 20.8 10.5921V19.0071C20.8 19.9951 19.996 20.7991 19.008 20.7991H4.99198C4.00398 20.7991 3.19998 19.9951 3.19998 19.0071V10.5921C3.19998 9.6041 4.00398 8.8001 4.99198 8.8001H7.19998V7.2001H4.99198C3.12098 7.2001 1.59998 8.7221 1.59998 10.5921V19.0071C1.59998 20.8781 3.12198 22.3991 4.99198 22.3991H19.007C20.878 22.3991 22.399 20.8771 22.399 19.0071V10.5921C22.399 8.7211 20.878 7.2001 19.008 7.2001ZM12 12.4001C12.884 12.4001 13.685 12.0401 14.265 11.4581L13.132 10.3291C12.842 10.6191 12.442 10.7991 12 10.7991C11.118 10.7991 10.4 10.0811 10.4 9.1991V5.5991L8.79998 7.1991V9.1991C8.79998 10.9631 10.235 12.3991 12 12.3991V12.4001Z"/>
</svg>
