<svg width="24" height="24" viewBox="0 0 24 24" xmlns="http://www.w3.org/2000/svg">
<path d="M4.79995 8.79995H3.19995V3.19995H8.79995V4.79995H4.79995V8.79995ZM20.8 3.19995H15.2V4.79995H19.2V8.79995H20.8V3.19995ZM8.79995 19.2H4.79995V15.2H3.19995V20.8H8.79995V19.2ZM20.8 15.2H19.2V19.2H15.2V20.8H20.8V15.2ZM14.4 7.59995C14.4 6.27695 13.323 5.19995 12 5.19995C10.677 5.19995 9.59995 6.27695 9.59995 7.59995C9.59995 8.92295 10.677 9.99995 12 9.99995C13.323 9.99995 14.4 8.92295 14.4 7.59995ZM12.8 7.59995C12.8 8.04095 12.441 8.39995 12 8.39995C11.559 8.39995 11.2 8.04095 11.2 7.59995C11.2 7.15895 11.559 6.79995 12 6.79995C12.441 6.79995 12.8 7.15895 12.8 7.59995ZM16.87 16.104C16.87 13.409 14.678 11.217 11.983 11.217C9.28795 11.217 7.09595 13.409 7.09595 16.104V17.585H16.87V16.104ZM11.983 12.817C13.756 12.817 15.205 14.228 15.268 15.985H8.69795C8.76095 14.227 10.21 12.817 11.983 12.817Z"/>
</svg>
