<svg width="24" height="24" viewBox="0 0 24 24" xmlns="http://www.w3.org/2000/svg">
<path d="M21.4658 9.3351C20.8608 8.7291 20.0558 8.3951 19.1998 8.3951C18.3438 8.3951 17.5378 8.7291 16.9338 9.3351C16.8878 9.3811 16.8428 9.4281 16.7998 9.4771C16.7568 9.4291 16.7118 9.3821 16.6658 9.3351C16.0608 8.7291 15.2558 8.3951 14.3998 8.3951C13.5438 8.3951 12.7378 8.7291 12.1338 9.3351C11.5318 9.9381 11.1998 10.7431 11.1998 11.6001C11.1998 12.4571 11.5488 13.2791 12.1338 13.8661L16.7998 18.5321L21.4658 13.8661C22.0508 13.2801 22.3998 12.4331 22.3998 11.6011C22.3998 10.7691 22.0678 9.9391 21.4658 9.3361V9.3351ZM20.3338 12.7341L16.7998 16.2681L13.2658 12.7341C12.9778 12.4461 12.7998 12.0111 12.7998 11.5991C12.7998 11.1871 12.9658 10.7651 13.2658 10.4641C13.5678 10.1611 13.9708 9.9941 14.3998 9.9941C14.8288 9.9941 15.2308 10.1611 15.5338 10.4641C15.7538 10.6851 15.9098 10.9421 15.9808 11.1991H17.6188C17.6908 10.9421 17.8458 10.6851 18.0658 10.4641C18.3678 10.1611 18.7708 9.9941 19.1998 9.9941C19.6288 9.9941 20.0308 10.1611 20.3338 10.4641C20.6348 10.7651 20.7998 11.1681 20.7998 11.5991C20.7998 12.0301 20.6208 12.4471 20.3338 12.7341ZM9.59977 6.4001C8.27677 6.4001 7.19977 5.3231 7.19977 4.0001C7.19977 2.6771 8.27677 1.6001 9.59977 1.6001C10.9228 1.6001 11.9998 2.6771 11.9998 4.0001C11.9998 5.3231 10.9228 6.4001 9.59977 6.4001ZM9.59977 3.2001C9.15877 3.2001 8.79977 3.5591 8.79977 4.0001C8.79977 4.4411 9.15877 4.8001 9.59977 4.8001C10.0408 4.8001 10.3998 4.4411 10.3998 4.0001C10.3998 3.5591 10.0408 3.2001 9.59977 3.2001ZM2.76577 22.3661L1.63477 21.2351L6.83477 16.0351L7.96577 17.1661L2.76577 22.3661ZM13.5998 18.5661V22.4001H11.9998V18.7311L8.35077 15.0821C8.12377 14.8551 7.99977 14.5541 7.99977 14.2341V10.2541L5.29977 12.9331V14.4001H3.69977V12.7671C3.69977 12.4491 3.82877 12.1391 4.05477 11.9151L7.99877 8.0011H9.59877V14.0701L13.2478 17.7191C13.4748 17.9461 13.5988 18.2471 13.5988 18.5671L13.5998 18.5661Z"/>
</svg>
