<svg width="24" height="24" viewBox="0 0 24 24" xmlns="http://www.w3.org/2000/svg">
<path d="M17.1656 16.0341L17.0916 16.1081C18.4056 14.5701 19.2006 12.5761 19.2006 10.3991C19.2006 5.54712 15.2526 1.59912 10.4006 1.59912C5.54861 1.59912 1.59961 5.54812 1.59961 10.4001C1.59961 15.2521 5.54761 19.2001 10.3996 19.2001C12.5766 19.2001 14.5706 18.4051 16.1086 17.0911L16.0346 17.1651L21.2346 22.3651L22.3656 21.2341L17.1656 16.0341ZM10.3996 17.6001C6.42961 17.6001 3.19961 14.3701 3.19961 10.4001C3.19961 6.43012 6.42961 3.20012 10.3996 3.20012C14.3696 3.20012 17.5996 6.43012 17.5996 10.4001C17.5996 14.3701 14.3696 17.6001 10.3996 17.6001ZM12.3936 9.13512C12.6496 8.75312 12.7996 8.29412 12.7996 7.80012C12.7996 6.47712 11.7226 5.40012 10.3996 5.40012C9.07661 5.40012 7.99961 6.47712 7.99961 7.80012C7.99961 8.29412 8.14961 8.75312 8.40561 9.13512C7.20761 9.82712 6.39961 11.1211 6.39961 12.6001V14.2001H14.3996V12.6001C14.3996 11.1201 13.5916 9.82612 12.3936 9.13512ZM10.3996 7.00012C10.8406 7.00012 11.1996 7.35912 11.1996 7.80012C11.1996 8.24112 10.8406 8.60012 10.3996 8.60012C9.95861 8.60012 9.59961 8.24112 9.59961 7.80012C9.59961 7.35912 9.95861 7.00012 10.3996 7.00012ZM7.99961 12.6001C7.99961 11.2771 9.07661 10.2001 10.3996 10.2001C11.7226 10.2001 12.7996 11.2771 12.7996 12.6001H7.99961Z"/>
</svg>
