<svg width="24" height="24" viewBox="0 0 24 24" xmlns="http://www.w3.org/2000/svg">
<path d="M22.3998 9.6001H14.3998V1.6001H15.1998C19.1698 1.6001 22.3998 4.8301 22.3998 8.8001V9.6001ZM15.9998 8.0001H20.7428C20.3908 5.5511 18.4488 3.6091 15.9998 3.2571V8.0001ZM12.7998 11.2001V2.4001H11.9998C7.6438 2.4001 3.9558 5.3171 2.7868 9.3001H4.4708C5.4948 6.4541 8.0868 4.3501 11.1998 4.0401V12.8001H19.9598C19.5568 16.8371 16.1408 20.0001 11.9998 20.0001C8.5358 20.0001 5.5798 17.7861 4.46981 14.7001H2.7868C3.9558 18.6831 7.6438 21.6001 11.9998 21.6001C17.2928 21.6001 21.5998 17.2931 21.5998 12.0001V11.2001H12.7998Z"/>
<path d="M3.1998 12.9001C3.69686 12.9001 4.0998 12.4972 4.0998 12.0001C4.0998 11.503 3.69686 11.1001 3.1998 11.1001C2.70275 11.1001 2.2998 11.503 2.2998 12.0001C2.2998 12.4972 2.70275 12.9001 3.1998 12.9001Z"/>
</svg>
