<svg width="24" height="24" viewBox="0 0 24 24" xmlns="http://www.w3.org/2000/svg">
<path d="M20.7661 3.2341C19.7271 2.1951 18.3551 1.6001 17.0001 1.6001C15.5181 1.6001 14.0731 2.1961 13.0341 3.2341L3.2341 13.0341C2.1951 14.0731 1.6001 15.5181 1.6001 17.0001C1.6001 18.3551 2.1961 19.7271 3.2341 20.7661C4.2731 21.8051 5.7181 22.4001 7.2001 22.4001C8.5541 22.4001 9.9271 21.8041 10.9661 20.7661L20.7661 10.9661C21.8051 9.9271 22.4001 8.5551 22.4001 7.2001C22.4001 5.7181 21.8041 4.2731 20.7661 3.2341ZM9.8341 19.6341C9.0931 20.3751 8.1331 20.8001 7.2001 20.8001C6.1401 20.8001 5.1061 20.3751 4.3661 19.6341C3.6251 18.8931 3.2001 17.9331 3.2001 17.0001C3.2001 15.9401 3.6251 14.9061 4.3661 14.1661L8.7001 9.8321L14.1691 15.3011L9.8351 19.6351L9.8341 19.6341ZM19.6341 9.8341L15.3001 14.1681L12.1311 10.9991L14.7651 8.3651L13.6341 7.2341L11.0001 9.8681L9.8311 8.6991L14.1651 4.3651C14.9061 3.6241 15.9391 3.1991 16.9991 3.1991C17.9321 3.1991 18.8931 3.6241 19.6331 4.3651C20.3741 5.1061 20.7991 6.1391 20.7991 7.1991C20.7991 8.1321 20.3741 9.0931 19.6331 9.8331L19.6341 9.8341ZM17.0001 6.0001C17.0001 6.4971 16.5971 6.9001 16.1001 6.9001C15.6031 6.9001 15.2001 6.4971 15.2001 6.0001C15.2001 5.5031 15.6031 5.1001 16.1001 5.1001C16.5971 5.1001 17.0001 5.5031 17.0001 6.0001Z"/>
</svg>
