<svg width="24" height="24" viewBox="0 0 24 24" xmlns="http://www.w3.org/2000/svg">
<path d="M8.0002 8.0002H3.2002V3.2002H8.0002V8.0002ZM4.8002 6.4002H6.4002V4.8002H4.8002V6.4002Z"/>
<path d="M14.4002 8.0002H9.6002V3.2002H14.4002V8.0002ZM11.2002 6.4002H12.8002V4.8002H11.2002V6.4002Z"/>
<path d="M20.8002 8.0002H16.0002V3.2002H20.8002V8.0002ZM17.6002 6.4002H19.2002V4.8002H17.6002V6.4002Z"/>
<path d="M8.0002 14.4002H3.2002V9.6002H8.0002V14.4002ZM4.8002 12.8002H6.4002V11.2002H4.8002V12.8002Z"/>
<path d="M14.4002 14.4002H9.6002V9.6002H14.4002V14.4002ZM11.2002 12.8002H12.8002V11.2002H11.2002V12.8002Z"/>
<path d="M20.8002 14.4002H16.0002V9.6002H20.8002V14.4002ZM17.6002 12.8002H19.2002V11.2002H17.6002V12.8002Z"/>
<path d="M8.0002 20.8002H3.2002V16.0002H8.0002V20.8002ZM4.8002 19.2002H6.4002V17.6002H4.8002V19.2002Z"/>
<path d="M14.4002 20.8002H9.6002V16.0002H14.4002V20.8002ZM11.2002 19.2002H12.8002V17.6002H11.2002V19.2002Z"/>
<path d="M20.8002 20.8002H16.0002V16.0002H20.8002V20.8002ZM17.6002 19.2002H19.2002V17.6002H17.6002V19.2002Z"/>
</svg>
