<svg width="24" height="24" viewBox="0 0 24 24" xmlns="http://www.w3.org/2000/svg">
<path d="M8.0002 8.0002H3.2002V3.2002H8.0002V8.0002ZM4.8002 6.4002H6.4002V4.8002H4.8002V6.4002Z"/>
<path d="M14.4002 8.0002H9.6002V3.2002H14.4002V8.0002ZM11.2002 6.4002H12.8002V4.8002H11.2002V6.4002Z"/>
<path d="M8.0002 14.4002H3.2002V9.6002H8.0002V14.4002ZM4.8002 12.8002H6.4002V11.2002H4.8002V12.8002Z"/>
<path d="M20.8002 14.4002H16.0002V9.6002H20.8002V14.4002ZM17.6002 12.8002H19.2002V11.2002H17.6002V12.8002Z"/>
<path d="M14.4002 20.8002H9.6002V16.0002H14.4002V20.8002ZM11.2002 19.2002H12.8002V17.6002H11.2002V19.2002Z"/>
<path d="M20.8002 20.8002H16.0002V16.0002H20.8002V20.8002ZM17.6002 19.2002H19.2002V17.6002H17.6002V19.2002Z"/>
<path d="M20.8002 4.3292V3.2002H16.0002V6.8692L13.2692 9.6002H9.6002V13.2692L6.8692 16.0002H3.2002V20.8002H4.3292L20.8002 4.3292Z"/>
</svg>
