<svg width="24" height="24" viewBox="0 0 24 24" xmlns="http://www.w3.org/2000/svg">
<path d="M19.2001 17.5999H4.8001C3.0351 17.5999 1.6001 16.1639 1.6001 14.3999V9.5999C1.6001 7.8359 3.0351 6.3999 4.8001 6.3999H19.2001C20.9651 6.3999 22.4001 7.8359 22.4001 9.5999V14.3999C22.4001 16.1639 20.9651 17.5999 19.2001 17.5999ZM4.8001 7.9999C3.9181 7.9999 3.2001 8.7179 3.2001 9.5999V14.3999C3.2001 15.2819 3.9181 15.9999 4.8001 15.9999H19.2001C20.0821 15.9999 20.8001 15.2819 20.8001 14.3999V9.5999C20.8001 8.7179 20.0821 7.9999 19.2001 7.9999H4.8001Z"/>
<path d="M18.8531 11.9589L18.3471 10.4409L17.0001 10.8899V9.5999H15.4001V10.8899L14.0531 10.4409L13.5471 11.9589L14.9301 12.4199L14.1451 13.5409L15.4551 14.4589L16.2001 13.3949L16.9451 14.4589L18.2551 13.5409L17.4701 12.4199L18.8531 11.9589Z"/>
<path d="M10.6001 12.8999C11.0972 12.8999 11.5001 12.497 11.5001 11.9999C11.5001 11.5028 11.0972 11.0999 10.6001 11.0999C10.103 11.0999 9.7001 11.5028 9.7001 11.9999C9.7001 12.497 10.103 12.8999 10.6001 12.8999Z"/>
<path d="M6.4001 12.8999C6.89715 12.8999 7.3001 12.497 7.3001 11.9999C7.3001 11.5028 6.89715 11.0999 6.4001 11.0999C5.90304 11.0999 5.5001 11.5028 5.5001 11.9999C5.5001 12.497 5.90304 12.8999 6.4001 12.8999Z"/>
</svg>
