<svg width="24" height="24" viewBox="0 0 24 24" xmlns="http://www.w3.org/2000/svg">
<path d="M11.9999 2.3999C6.6949 2.3999 2.3999 6.6989 2.3999 12.0069C2.3999 16.0749 4.9229 19.5509 8.4969 20.9509C8.4109 20.1859 8.3379 19.0319 8.5259 18.1959C8.6989 17.4459 9.6499 13.4209 9.6499 13.4209C9.6499 13.4209 9.3619 12.8439 9.3619 11.9929C9.3619 10.6509 10.1399 9.6559 11.0919 9.6559C11.9139 9.6559 12.3029 10.2759 12.3029 11.0119C12.3029 11.8339 11.7839 13.0749 11.5099 14.2139C11.2789 15.1659 11.9859 15.9449 12.9369 15.9449C14.6379 15.9449 15.9499 14.1419 15.9499 11.5449C15.9499 9.2509 14.2919 7.6359 11.9429 7.6359C9.2189 7.6359 7.6039 9.6839 7.6039 11.8049C7.6039 12.6269 7.9209 13.5219 8.3249 13.9979C8.3969 14.0989 8.4109 14.1709 8.3969 14.2719C8.3249 14.5749 8.1659 15.2239 8.1379 15.3539C8.0949 15.5269 7.9939 15.5699 7.8209 15.4839C6.6249 14.9209 5.8749 13.1759 5.8749 11.7619C5.8749 8.7329 8.0799 5.9489 12.2169 5.9489C15.5469 5.9489 18.1269 8.3289 18.1269 11.4879C18.1269 14.6469 16.0369 17.4599 13.1539 17.4599C12.1879 17.4599 11.2659 16.9549 10.9489 16.3639C10.9489 16.3639 10.4729 18.1959 10.3579 18.6429C10.1419 19.4799 9.5509 20.5179 9.1619 21.1669C10.0559 21.4409 11.0069 21.5999 12.0019 21.5999C17.3069 21.5999 21.6019 17.3009 21.6019 11.9929C21.6019 6.6849 17.3049 2.3999 11.9999 2.3999Z"/>
</svg>
