<svg width="24" height="24" viewBox="0 0 24 24" xmlns="http://www.w3.org/2000/svg">
<path d="M19.2001 11.9951C19.2001 15.9761 15.9781 19.2001 12.0001 19.2001C11.2541 19.2001 10.5411 19.0811 9.8701 18.8751C10.1621 18.3881 10.6051 17.6091 10.7671 16.9821C10.8531 16.6471 11.2101 15.2731 11.2101 15.2731C11.4481 15.7171 12.1401 16.0951 12.8641 16.0951C15.0261 16.0951 16.5941 14.0931 16.5941 11.6161C16.5941 9.1391 14.6591 7.4621 12.1621 7.4621C9.0591 7.4621 7.4051 9.5501 7.4051 11.8221C7.4051 12.8821 7.9671 14.1911 8.8641 14.6131C8.9941 14.6781 9.0691 14.6451 9.1021 14.5161C9.1241 14.4191 9.2431 13.9321 9.2971 13.7051C9.3081 13.6291 9.2971 13.5751 9.2431 13.4991C8.9401 13.1421 8.7021 12.4711 8.7021 11.8551C8.7021 10.2651 9.9131 8.7281 11.9561 8.7281C13.7181 8.7281 14.9611 9.9401 14.9611 11.6601C14.9611 13.6071 13.9771 14.9601 12.7021 14.9601C11.9881 14.9601 11.4591 14.3761 11.6321 13.6621C11.8371 12.8071 12.2271 11.8771 12.2271 11.2601C12.2271 10.7081 11.9351 10.2431 11.3191 10.2431C10.6051 10.2431 10.0221 10.9901 10.0221 11.9961C10.0221 12.6341 10.2381 13.0671 10.2381 13.0671C10.2381 13.0671 9.5241 16.0851 9.3951 16.6481C9.2541 17.2751 9.3091 18.1411 9.3731 18.7141C6.6921 17.6651 4.8001 15.0571 4.8001 12.0061C4.8001 8.0251 8.0221 4.8011 12.0001 4.8011C15.9781 4.8011 19.2001 8.0251 19.2001 11.9961V11.9951ZM12.0001 22.4001C6.2651 22.4001 1.6001 17.7351 1.6001 12.0001C1.6001 6.2651 6.2651 1.6001 12.0001 1.6001C17.7351 1.6001 22.4001 6.2651 22.4001 12.0001C22.4001 17.7351 17.7351 22.4001 12.0001 22.4001ZM12.0001 3.2001C7.1481 3.2001 3.2001 7.1481 3.2001 12.0001C3.2001 16.8521 7.1481 20.8001 12.0001 20.8001C16.8521 20.8001 20.8001 16.8521 20.8001 12.0001C20.8001 7.1481 16.8521 3.2001 12.0001 3.2001Z"/>
</svg>
