<svg width="24" height="24" viewBox="0 0 24 24" xmlns="http://www.w3.org/2000/svg">
<path d="M12 1.59912C7.589 1.59912 4 5.18812 4 9.59912C4 11.6521 4.616 13.4881 5.782 14.9081L10.987 21.2291L11.074 21.3341C11.302 21.6121 11.64 21.7711 12 21.7711C12.36 21.7711 12.697 21.6121 12.926 21.3341L18.218 14.9081C19.384 13.4881 20 11.6531 20 9.60012C20 5.18812 16.411 1.59912 12 1.59912ZM12 12.8001C10.235 12.8001 8.8 11.3651 8.8 9.60012C8.8 7.83512 10.235 6.40012 12 6.40012C13.765 6.40012 15.2 7.83512 15.2 9.60012C15.2 11.3651 13.765 12.8001 12 12.8001Z"/>
</svg>
