<svg width="24" height="24" viewBox="0 0 24 24" xmlns="http://www.w3.org/2000/svg">
<path d="M16.8 11.8781V10.0791C16.8 8.3941 15.577 6.6631 14.79 5.7231C14.796 5.6831 14.8 5.6421 14.8 5.6001V2.4001C14.8 1.9581 14.442 1.6001 14 1.6001H9.99995C9.55795 1.6001 9.19995 1.9581 9.19995 2.4001V5.6001C9.19995 5.6411 9.20395 5.6821 9.20995 5.7211C8.42295 6.6561 7.19995 8.3701 7.19995 10.0001V11.8781C7.19995 12.4051 7.32195 12.9171 7.55195 13.3601C7.84995 13.9321 7.99995 14.5521 7.99995 15.2011C7.99995 15.8501 7.84895 16.4701 7.55195 17.0421C7.32195 17.4841 7.19995 17.9971 7.19995 18.5241V21.6021C7.19995 22.0441 7.55795 22.4021 7.99995 22.4021H16C16.442 22.4021 16.8 22.0441 16.8 21.6021V18.5241C16.8 17.9971 16.678 17.4851 16.448 17.0421C16.15 16.4701 16 15.8501 16 15.2011C16 14.5521 16.151 13.9321 16.448 13.3601C16.678 12.9181 16.8 12.4051 16.8 11.8781ZM10.743 6.4001H13.256C13.732 6.9241 14.466 7.8561 14.882 8.8001H9.10095C9.51495 7.8681 10.261 6.9281 10.743 6.4001ZM10.8 3.2001H13.2V4.8001H10.8V3.2001ZM8.79995 10.4001H15.2V11.8781C15.2 12.1491 15.141 12.4061 15.029 12.6211C14.998 12.6801 14.971 12.7401 14.943 12.8001H9.05795C9.02995 12.7401 9.00195 12.6801 8.97195 12.6211C8.85995 12.4061 8.80095 12.1491 8.80095 11.8781V10.4001H8.79995ZM15.2 20.8001H8.79995V18.5221C8.79995 18.2511 8.85895 17.9941 8.97095 17.7781C9.38195 16.9871 9.59995 16.0951 9.59995 15.1991C9.59995 14.9311 9.57795 14.6641 9.53995 14.3991H14.46C14.422 14.6641 14.4 14.9311 14.4 15.1991C14.4 16.0951 14.617 16.9871 15.029 17.7781C15.141 17.9931 15.2 18.2501 15.2 18.5211V20.7991V20.8001Z"/>
</svg>
