<svg width="24" height="24" viewBox="0 0 24 24" xmlns="http://www.w3.org/2000/svg">
<path d="M11.9999 21.5999C6.7069 21.5999 2.3999 17.2929 2.3999 11.9999C2.3999 6.7069 6.7069 2.3999 11.9999 2.3999C17.2929 2.3999 21.5999 6.7069 21.5999 11.9999C21.5999 17.2929 17.2929 21.5999 11.9999 21.5999ZM11.9999 3.9999C7.5889 3.9999 3.9999 7.5889 3.9999 11.9999C3.9999 16.4109 7.5889 19.9999 11.9999 19.9999C16.4109 19.9999 19.9999 16.4109 19.9999 11.9999C19.9999 7.5889 16.4109 3.9999 11.9999 3.9999ZM10.2409 16.7999C10.0799 16.7999 9.9189 16.7629 9.7689 16.6869C9.4179 16.5099 9.1999 16.1559 9.1999 15.7639V8.2349C9.1999 7.8429 9.4179 7.4899 9.7689 7.3119C10.1219 7.1329 10.5399 7.1679 10.8579 7.4019L15.9779 11.1659C16.2419 11.3599 16.3999 11.6719 16.3999 11.9989C16.3999 12.3259 16.2419 12.6369 15.9779 12.8319L10.8579 16.5959C10.6749 16.7309 10.4589 16.7999 10.2409 16.7999ZM10.7999 14.6529L14.4089 11.9989L10.7999 9.3449V14.6529Z"/>
</svg>
