<svg width="24" height="24" viewBox="0 0 24 24" xmlns="http://www.w3.org/2000/svg">
<path d="M13.3062 13.0731L15.1812 15.1481L7.21222 19.8281L13.3062 13.0731ZM4.77422 3.61705L12.8992 12.6181L5.52922 20.7821C5.12122 20.8851 4.69922 20.5401 4.69922 20.0411V3.95505C4.70122 3.83905 4.72622 3.72405 4.77322 3.61805L4.77422 3.61705ZM13.3122 12.1711L5.23022 3.22105C5.39522 3.17605 5.57222 3.20305 5.71722 3.29405L15.6602 9.55805L13.3112 12.1701L13.3122 12.1711ZM18.9562 11.6271C19.4212 11.9201 19.4142 12.6761 18.9422 12.9551L15.7202 14.8321L13.7172 12.6171L16.1852 9.88105L18.9562 11.6271Z"/>
</svg>
