<svg width="24" height="24" viewBox="0 0 24 24" xmlns="http://www.w3.org/2000/svg">
<path d="M7.44612 20.0231H7.66312C8.22412 20.0401 8.77912 20.135 9.31312 20.3071C13.8931 21.7971 18.8131 19.2931 20.3041 14.7131C20.5541 13.9461 20.6961 13.1471 20.7261 12.3411V12.0001C20.7221 7.18205 16.8181 3.27705 12.0001 3.27005H11.6961C6.89612 3.44005 3.10812 7.49505 3.28012 12.3091C3.30712 13.1011 3.44412 13.8861 3.68912 14.64C3.87112 15.194 3.97012 15.7721 3.98312 16.3551C4.00712 17.1151 3.89512 17.8741 3.65112 18.5951C3.59212 18.7641 3.56212 18.941 3.56112 19.1201C3.57112 19.4731 3.71812 19.8071 3.97012 20.0541C4.21912 20.3041 4.55212 20.4501 4.90412 20.4641C5.06912 20.476 5.23412 20.4541 5.39012 20.4001C6.04912 20.1541 6.74712 20.0281 7.45012 20.0291M12.0171 21.6H11.6791C10.8061 21.5721 9.94112 21.4261 9.10712 21.1651C8.62712 21.0081 8.12712 20.921 7.62212 20.909C6.97112 20.893 6.32112 20.9881 5.70212 21.1911C4.88512 21.4811 3.97412 21.2771 3.35912 20.6661C2.95312 20.2631 2.71912 19.7181 2.70612 19.1461C2.69312 18.8771 2.73212 18.608 2.82112 18.3531C3.04512 17.7191 3.14612 17.048 3.11912 16.376C3.10512 15.894 3.02412 15.4161 2.87912 14.9551C2.59912 14.1071 2.44012 13.2241 2.40512 12.3321C2.22412 7.04705 6.37112 2.59205 11.6681 2.41405C11.7781 2.40305 11.8891 2.39905 11.9991 2.40005C17.2991 2.40605 21.5931 6.70105 21.5991 12.0001V12.3461C21.4371 17.5181 17.1871 21.6201 12.0121 21.6M13.4981 14.6351H13.3321C13.0561 14.6351 12.8331 14.4121 12.8331 14.1361V10.8981C12.8291 10.6261 13.0461 10.4031 13.3181 10.3991H13.4991C13.7741 10.3991 13.9971 10.6231 13.9981 10.8981V14.1361C14.0021 14.4081 13.7851 14.6311 13.5131 14.6351H13.4991M11.4401 14.6351H11.2861C11.0151 14.6391 10.7911 14.422 10.7871 14.151V9.33705C10.7871 9.06205 11.0111 8.83905 11.2861 8.83805H11.4401C11.7121 8.83405 11.9351 9.05105 11.9391 9.32305V14.1361C11.9391 14.4121 11.7151 14.6351 11.4401 14.6351ZM14.0001 9.55505C14.0001 9.87305 13.7421 10.1311 13.4241 10.1311C13.1061 10.1311 12.8481 9.87305 12.8481 9.55505C12.8481 9.23705 13.1061 8.97905 13.4241 8.97905C13.7411 8.97905 13.9981 9.23405 14.0001 9.55005V9.55505ZM18.3761 12.2811V14.1481C18.3801 14.4131 18.1671 14.6311 17.9021 14.6341H17.7231C17.4581 14.6301 17.2471 14.4121 17.2501 14.1481V11.7431C17.2501 11.2181 16.9681 10.9621 16.5851 10.9621C16.2011 10.9621 15.9191 11.2561 15.9191 11.7431V14.1661C15.9161 14.4281 15.7011 14.6381 15.4391 14.6351H15.2501C14.9851 14.6311 14.7731 14.4141 14.7761 14.1491V10.8961C14.7761 10.5631 15.0451 10.3711 15.3521 10.3711C15.7361 10.3711 15.8161 10.4511 16.0561 10.4511C16.5301 10.4511 16.6961 10.259 17.1431 10.259C18.0771 10.259 18.3451 10.8351 18.3711 11.3601V12.2811M8.88012 12.4731C8.88012 13.3051 8.52212 13.97 7.85612 13.97C7.19012 13.97 6.83312 13.3051 6.83312 12.4731C6.83312 11.6411 7.23312 10.9751 7.85612 10.9751C8.47912 10.9751 8.88012 11.6411 8.88012 12.4731ZM8.08612 10.259C7.51112 10.259 7.36612 10.4511 6.93512 10.4511C6.67912 10.4511 6.53512 10.3611 6.20612 10.3611C6.01412 10.3611 5.74512 10.4761 5.74512 10.8731V15.9411C5.74512 16.2101 5.96312 16.4271 6.23112 16.4271H6.42312C6.69112 16.4271 6.90812 16.2091 6.90912 15.9411V14.9811C6.90912 14.6481 7.12712 14.5331 7.30912 14.5331C7.43712 14.5331 7.70912 14.6481 7.99912 14.6481C9.56012 14.6481 10.0081 13.5731 10.0081 12.5241C10.0081 11.0901 9.36812 10.2581 8.08812 10.2581"/>
</svg>
