<svg width="24" height="24" viewBox="0 0 24 24" xmlns="http://www.w3.org/2000/svg">
<path d="M9.3641 16.7491H9.5091C9.8831 16.7601 10.2531 16.8241 10.6091 16.9381C13.6621 17.9311 16.9431 16.2621 17.9361 13.2091C18.1021 12.6971 18.1971 12.1651 18.2171 11.6271V11.4001C18.2141 8.1881 15.6121 5.5851 12.4001 5.5801H12.1971C8.9971 5.6941 6.4721 8.3961 6.5861 11.6061C6.6041 12.1341 6.6951 12.6571 6.8591 13.1601C6.9801 13.5291 7.0461 13.9151 7.0551 14.3031C7.0711 14.8101 6.9961 15.3161 6.8341 15.7961C6.7951 15.9091 6.7751 16.0271 6.7741 16.1461C6.7811 16.3811 6.8791 16.6041 7.0471 16.7691C7.2131 16.9351 7.4351 17.0331 7.6701 17.0421C7.7801 17.0501 7.8901 17.0361 7.9941 16.9991C8.4331 16.8351 8.8981 16.7511 9.3671 16.7521M12.4111 17.8001H12.1861C11.6041 17.7811 11.0271 17.6841 10.4711 17.5101C10.1511 17.4051 9.8181 17.3481 9.4811 17.3391C9.0471 17.3281 8.6141 17.3921 8.2011 17.5271C7.6561 17.7201 7.0491 17.5841 6.6391 17.1771C6.3681 16.9081 6.2121 16.5451 6.2041 16.1641C6.1961 15.9851 6.2221 15.8051 6.2811 15.6351C6.4311 15.2121 6.4981 14.7651 6.4791 14.3171C6.4691 13.9951 6.4161 13.6771 6.3191 13.3701C6.1321 12.8051 6.0261 12.2161 6.0031 11.6211C5.8821 8.0971 8.6471 5.1281 12.1781 5.0091C12.2511 5.0021 12.3251 4.9991 12.3991 5.0001C15.9321 5.0041 18.7951 7.8671 18.7991 11.4001V11.6301C18.6911 15.0781 15.8571 17.8131 12.4081 17.7991M13.2871 13.1571C13.1031 13.1571 12.9541 13.0081 12.9541 12.8241V10.6661C12.9511 10.4851 13.0961 10.3361 13.2771 10.3331H13.3981C13.5821 10.3331 13.7301 10.4821 13.7311 10.6661V12.8241C13.7341 13.0051 13.5891 13.1541 13.4081 13.1571H13.2871ZM12.0261 13.1571H11.9241C11.7431 13.1601 11.5941 13.0151 11.5911 12.8341V9.6241C11.5911 9.4401 11.7401 9.2921 11.9241 9.2911H12.0261C12.2071 9.2881 12.3561 9.4331 12.3591 9.6141V12.8231C12.3591 13.0071 12.2101 13.1551 12.0261 13.1561M13.7331 9.7701C13.7331 9.9821 13.5611 10.1541 13.3491 10.1541C13.1371 10.1541 12.9651 9.9821 12.9651 9.7701C12.9651 9.5581 13.1371 9.3861 13.3491 9.3861C13.5601 9.3861 13.7321 9.5561 13.7331 9.7671V9.7701ZM16.6501 11.5871V12.8321C16.6521 13.0091 16.5111 13.1541 16.3341 13.1561H16.2151C16.0381 13.1531 15.8971 13.0081 15.9001 12.8321V11.2291C15.9001 10.8791 15.7121 10.7081 15.4571 10.7081C15.2011 10.7081 15.0131 10.9041 15.0131 11.2291V12.8441C15.0111 13.0191 14.8681 13.1591 14.6931 13.1571H14.5671C14.3901 13.1551 14.2491 13.0091 14.2511 12.8331V10.6651C14.2511 10.4431 14.4301 10.3151 14.6351 10.3151C14.8911 10.3151 14.9441 10.3681 15.1041 10.3681C15.4201 10.3681 15.5311 10.2401 15.8291 10.2401C16.4511 10.2401 16.6311 10.6241 16.6481 10.9741V11.5881M10.3191 11.7151C10.3191 12.2701 10.0801 12.7131 9.6361 12.7131C9.1921 12.7131 8.9541 12.2701 8.9541 11.7151C8.9541 11.1601 9.2211 10.7171 9.6361 10.7171C10.0511 10.7171 10.3191 11.1611 10.3191 11.7151ZM9.7901 10.2391C9.4071 10.2391 9.3101 10.3671 9.0231 10.3671C8.8521 10.3671 8.7561 10.3071 8.5371 10.3071C8.4091 10.3071 8.2301 10.3841 8.2301 10.6481V14.0271C8.2301 14.2061 8.3751 14.3511 8.5541 14.3511H8.6821C8.8611 14.3511 9.0051 14.2051 9.0061 14.0271V13.3871C9.0061 13.1651 9.1511 13.0881 9.2731 13.0881C9.3581 13.0881 9.5401 13.1651 9.7331 13.1651C10.7741 13.1651 11.0721 12.4481 11.0721 11.7491C11.0721 10.7931 10.6451 10.2391 9.7921 10.2391M12.0001 1.6001C6.2651 1.6001 1.6001 6.2651 1.6001 12.0001C1.6001 17.7351 6.2651 22.4001 12.0001 22.4001C17.7351 22.4001 22.4001 17.7351 22.4001 12.0001C22.4001 6.2651 17.7351 1.6001 12.0001 1.6001ZM12.0001 20.8001C7.1481 20.8001 3.2001 16.8521 3.2001 12.0001C3.2001 7.1481 7.1481 3.2001 12.0001 3.2001C16.8521 3.2001 20.8001 7.1481 20.8001 12.0001C20.8001 16.8521 16.8521 20.8001 12.0001 20.8001Z"/>
</svg>
