<svg width="24" height="24" viewBox="0 0 24 24" xmlns="http://www.w3.org/2000/svg">
<path d="M3.2002 3.19995V18.9749C3.2002 19.7099 3.6982 20.349 4.4122 20.527L11.6122 22.327C11.7392 22.3589 11.8702 22.375 12.0002 22.375C12.1302 22.375 12.2612 22.3589 12.3882 22.327L19.5882 20.527C20.3022 20.349 20.8002 19.7099 20.8002 18.9749V3.19995H3.2002ZM19.2002 8.17495L12.0002 9.97495L4.8002 8.17495V4.79995H19.2002V8.17495ZM12.0002 20.775L4.8002 18.9749V9.82395L11.6122 11.5269C11.7392 11.5589 11.8702 11.575 12.0002 11.575C12.1302 11.575 12.2612 11.5589 12.3882 11.5269L19.2002 9.82395V18.9749L12.0002 20.775Z"/>
<path d="M12.0002 8.19995C12.4973 8.19995 12.9002 7.79701 12.9002 7.29995C12.9002 6.80289 12.4973 6.39995 12.0002 6.39995C11.5031 6.39995 11.1002 6.80289 11.1002 7.29995C11.1002 7.79701 11.5031 8.19995 12.0002 8.19995Z"/>
</svg>
