<svg width="24" height="24" viewBox="0 0 24 24" xmlns="http://www.w3.org/2000/svg">
<path d="M19.1998 8.80001C19.1998 6.87701 18.4508 5.06901 17.0908 3.70901C14.2838 0.90201 9.7158 0.90201 6.9088 3.70901C5.5488 5.06901 4.7998 6.87701 4.7998 8.80001C4.7998 10.723 5.5488 12.531 6.9088 13.891C7.2488 14.231 7.6148 14.529 7.9998 14.786V21.386C7.9998 21.797 8.2458 22.165 8.6258 22.322C8.7518 22.374 8.8838 22.4 9.0148 22.4C9.2778 22.4 9.5358 22.297 9.7298 22.103L11.9998 19.833L14.2698 22.103C14.5608 22.394 14.9938 22.48 15.3738 22.323C15.7538 22.166 15.9998 21.798 15.9998 21.387V14.787C16.3848 14.529 16.7508 14.232 17.0908 13.892C18.4508 12.532 19.1998 10.723 19.1998 8.80001ZM6.3998 8.80001C6.3998 7.30401 6.9818 5.89801 8.0398 4.84001C9.1318 3.74801 10.5658 3.20201 11.9998 3.20201C13.4338 3.20201 14.8678 3.74801 15.9598 4.84001C17.0178 5.89801 17.5998 7.30401 17.5998 8.80001C17.5998 10.296 17.0178 11.702 15.9598 12.76C13.7768 14.943 10.2238 14.943 8.0398 12.76C6.9818 11.702 6.3998 10.296 6.3998 8.80001ZM14.3998 19.97L12.7168 18.287C12.5258 18.096 12.2708 17.99 11.9998 17.99C11.7288 17.99 11.4748 18.095 11.2828 18.287L9.5998 19.97V15.587C10.3748 15.86 11.1868 15.996 11.9998 15.996C12.8128 15.996 13.6248 15.859 14.3998 15.587V19.97ZM11.9998 6.40001V4.80001C14.2058 4.80001 15.9998 6.59401 15.9998 8.80001H14.3998C14.3998 7.47701 13.3228 6.40001 11.9998 6.40001ZM8.9638 7.43601C8.6128 7.08501 8.6128 6.51501 8.9638 6.16301C9.3148 5.81101 9.8848 5.81101 10.2368 6.16301C10.5878 6.51401 10.5878 7.08401 10.2368 7.43601C9.8858 7.78801 9.3158 7.78801 8.9638 7.43601Z"/>
</svg>
