<svg width="24" height="24" viewBox="0 0 24 24" xmlns="http://www.w3.org/2000/svg">
<path d="M20.4 6.39995H16.8V5.19995C16.8 4.09695 15.993 3.19995 15 3.19995H9.00001C8.00701 3.19995 7.20001 4.09695 7.20001 5.19995V6.39995H3.60001C2.49701 6.39995 1.60001 7.29695 1.60001 8.39995V18.8C1.60001 19.903 2.49701 20.8 3.60001 20.8H20.4C21.503 20.8 22.4 19.903 22.4 18.8V8.39995C22.4 7.29695 21.503 6.39995 20.4 6.39995ZM8.80001 5.19995C8.80001 4.95095 8.93901 4.79995 9.00001 4.79995H15C15.061 4.79995 15.2 4.95095 15.2 5.19995V6.39995H8.80001V5.19995ZM3.60001 7.99995H20.4C20.621 7.99995 20.8 8.17895 20.8 8.39995V10.139C15.184 13.415 8.81601 13.415 3.20001 10.139V8.39995C3.20001 8.17895 3.37901 7.99995 3.60001 7.99995ZM20.8 18.8C20.8 19.021 20.621 19.2 20.4 19.2H3.60001C3.37901 19.2 3.20001 19.021 3.20001 18.8V11.971C6.02901 13.462 9.01401 14.207 12 14.207C14.986 14.207 17.971 13.461 20.8 11.971V18.8ZM12.9 16.7C12.9 17.197 12.497 17.6 12 17.6C11.503 17.6 11.1 17.197 11.1 16.7C11.1 16.203 11.503 15.8 12 15.8C12.497 15.8 12.9 16.203 12.9 16.7Z"/>
</svg>
