<svg width="24" height="24" viewBox="0 0 24 24" xmlns="http://www.w3.org/2000/svg">
<path d="M12 2.3999C6.707 2.3999 2.4 6.7069 2.4 11.9999C2.4 17.2929 6.707 21.5999 12 21.5999C17.293 21.5999 21.6 17.2929 21.6 11.9999C21.6 6.7069 17.293 2.3999 12 2.3999ZM12 19.9999C7.589 19.9999 4 16.4109 4 11.9999C4 7.5889 7.589 3.9999 12 3.9999C16.411 3.9999 20 7.5889 20 11.9999C20 16.4109 16.411 19.9999 12 19.9999ZM13.884 13.6589C13.874 13.8649 13.85 14.0359 13.812 14.1689C13.776 14.2949 13.727 14.3939 13.666 14.4629C13.607 14.5309 13.537 14.5769 13.452 14.6049C13.361 14.6349 13.258 14.6499 13.144 14.6499C13.013 14.6499 12.889 14.6309 12.773 14.5929C12.682 14.5629 12.59 14.5259 12.499 14.4819C12.565 14.3409 12.617 14.1929 12.655 14.0419C12.701 13.8579 12.724 13.6659 12.724 13.4699C12.724 13.2529 12.705 13.0459 12.666 12.8549C12.638 12.7169 12.605 12.5859 12.566 12.4639H13.927V11.3809H12.039C11.924 11.1809 11.82 10.9839 11.727 10.7949C11.633 10.6029 11.586 10.3969 11.586 10.1819C11.586 9.9489 11.647 9.7739 11.772 9.6469C11.897 9.5199 12.061 9.4589 12.275 9.4589C12.431 9.4589 12.562 9.4849 12.666 9.5359C12.77 9.5869 12.858 9.6559 12.925 9.7399C12.995 9.8259 13.05 9.9299 13.09 10.0459C13.132 10.1689 13.165 10.2989 13.187 10.4319L13.204 10.5349L14.858 10.1849L14.833 10.0849C14.771 9.8329 14.687 9.5809 14.583 9.3359C14.476 9.0839 14.321 8.8569 14.124 8.6619C13.926 8.4659 13.668 8.3059 13.357 8.1839C13.047 8.0629 12.657 8.0009 12.198 8.0009C11.837 8.0009 11.504 8.0569 11.207 8.1689C10.91 8.2809 10.653 8.4359 10.443 8.6309C10.233 8.8269 10.068 9.0619 9.954 9.3289C9.84 9.5959 9.782 9.8869 9.782 10.1939C9.782 10.4459 9.822 10.6859 9.901 10.9089C9.959 11.0729 10.027 11.2309 10.104 11.3829H9.301V12.4659H10.762C10.848 12.6279 10.921 12.7889 10.978 12.9439C11.04 13.1109 11.078 13.3149 11.091 13.5459C11.091 13.5509 11.091 13.5559 11.091 13.5609C10.962 13.4939 10.829 13.4349 10.694 13.3869C10.328 13.2559 9.889 13.2439 9.49 13.3709C9.302 13.4309 9.133 13.5209 8.987 13.6389C8.84 13.7579 8.721 13.9089 8.632 14.0859C8.543 14.2649 8.498 14.4709 8.498 14.7009C8.498 14.9309 8.545 15.1239 8.637 15.2899C8.728 15.4549 8.849 15.5919 8.997 15.6969C9.143 15.8009 9.312 15.8789 9.5 15.9279C9.684 15.9759 9.877 16.0009 10.074 16.0009C10.394 16.0009 10.702 15.9479 10.988 15.8439C11.249 15.7489 11.49 15.6209 11.705 15.4639C11.912 15.6029 12.149 15.7249 12.409 15.8279C12.699 15.9429 13.043 16.0009 13.432 16.0009C13.844 16.0009 14.186 15.9319 14.449 15.7959C14.712 15.6599 14.922 15.4789 15.072 15.2579C15.22 15.0399 15.326 14.7869 15.388 14.5069C15.448 14.2329 15.485 13.9519 15.499 13.6699L15.504 13.5649H13.888L13.884 13.6599V13.6589ZM10.768 14.6819C10.699 14.7599 10.617 14.8259 10.523 14.8769C10.404 14.9429 10.265 14.9759 10.111 14.9759C9.992 14.9759 9.904 14.9469 9.842 14.8869C9.781 14.8289 9.751 14.7539 9.751 14.6589C9.751 14.5639 9.78 14.4829 9.841 14.4219C9.901 14.3619 9.986 14.3319 10.101 14.3319C10.216 14.3319 10.335 14.3669 10.449 14.4399C10.551 14.5049 10.658 14.5859 10.767 14.6799L10.768 14.6819Z"/>
</svg>
