<svg width="24" height="24" viewBox="0 0 24 24" xmlns="http://www.w3.org/2000/svg">
<path d="M17.4001 13.6002C17.4001 13.1032 17.8031 12.7002 18.3001 12.7002C18.7971 12.7002 19.2001 13.1032 19.2001 13.6002C19.2001 14.0972 18.7971 14.5002 18.3001 14.5002C17.8031 14.5002 17.4001 14.0972 17.4001 13.6002ZM22.4001 6.4002V20.8002H12.1661C11.8461 20.8002 11.5441 20.6752 11.3181 20.4492L8.4691 17.6002H4.8001V14.4002H3.2001V16.8002H1.6001V10.4002H3.2001V12.8002H4.8001V9.6002H8.4691L11.3181 6.7512C11.5451 6.5242 11.8461 6.4002 12.1671 6.4002H16.0011V4.8002H13.6011V3.2002H20.0011V4.8002H17.6011V6.4002H22.4001ZM20.8001 8.0002H12.3311L10.7311 9.6002H12.8001V12.8002H15.8001V14.4002H11.2001V11.2002H6.4001V16.0002H8.6341C8.9541 16.0002 9.2561 16.1252 9.4821 16.3512L12.3311 19.2002H20.8001V8.0002Z"/>
</svg>
