<svg width="24" height="24" viewBox="0 0 24 24" xmlns="http://www.w3.org/2000/svg">
<path d="M13.0531 19.5289L9.28813 15.7759C8.79813 15.2869 8.50613 14.5809 8.50613 13.8869C8.50613 13.1929 8.78313 12.5009 9.28713 11.9979C10.3241 10.9619 12.0081 10.9559 13.0531 11.9789C14.0981 10.9549 15.7821 10.9619 16.8191 11.9979C17.3231 12.5009 17.6001 13.1719 17.6001 13.8869C17.6001 14.6019 17.3081 15.2869 16.8191 15.7759L13.0531 19.5289ZM11.1801 12.8159C10.9041 12.8159 10.6281 12.9209 10.4181 13.1309C10.1601 13.3879 10.1061 13.6839 10.1061 13.8879C10.1061 14.1629 10.2251 14.4529 10.4181 14.6449L13.0531 17.2709L15.6881 14.6439C15.8801 14.4519 15.9991 14.1629 15.9991 13.8879C15.9991 13.6849 15.9451 13.3889 15.6871 13.1309C15.2671 12.7119 14.5841 12.7109 14.1641 13.1309C13.9891 13.3059 13.8741 13.5109 13.8411 13.7079H12.2631C12.2301 13.5109 12.1161 13.3069 11.9401 13.1309C11.7301 12.9209 11.4541 12.8159 11.1781 12.8159H11.1801ZM5.80213 2.3999H4.15413C4.44713 3.5479 4.91213 5.2329 5.09013 5.9109C5.51913 7.5559 5.92513 9.1089 5.92513 10.1579C5.92513 11.0149 5.38913 11.8619 4.76913 12.8429C3.96713 14.1119 3.05713 15.5499 3.05713 17.4579C3.05713 19.0119 3.37113 20.3939 3.73413 21.5999H5.41013C5.01413 20.3709 4.65713 19.0069 4.65713 17.4569C4.65713 16.0119 5.40113 14.8349 6.12113 13.6969C6.81113 12.6059 7.52513 11.4779 7.52513 10.1569C7.52513 8.8359 7.11413 7.3289 6.63813 5.5059C6.49113 4.9429 6.07413 3.4369 5.80213 2.3999ZM16.6391 5.9529C17.2731 5.4039 17.8741 4.6139 18.2931 3.4759C18.4421 3.0699 18.5731 2.7109 18.6851 2.3999H16.9831C16.9251 2.5599 16.8611 2.7339 16.7911 2.9239C15.8311 5.5319 13.6291 5.5989 13.5351 5.5999L13.5411 6.3999V7.1999C13.6031 7.1999 14.2891 7.1909 15.1481 6.8519C15.2311 6.9409 15.3261 7.0209 15.4331 7.0849C16.7291 7.8599 19.7421 10.1189 19.7421 14.3279C19.7421 17.4679 18.2431 19.1519 16.7931 20.7809C16.5531 21.0499 16.3121 21.3209 16.0791 21.5989H18.2061C19.6561 19.9609 21.3411 17.8969 21.3411 14.3279C21.3411 9.6829 18.3051 7.0499 16.6371 5.9529H16.6391Z"/>
</svg>
