<svg width="24" height="24" viewBox="0 0 24 24" xmlns="http://www.w3.org/2000/svg">
<path d="M7.2002 3.19995V6.39995H3.2002V18C3.2002 19.544 4.4562 20.8 6.0002 20.8H17.6002C19.3652 20.8 20.8002 19.365 20.8002 17.6V3.19995H7.2002ZM4.8002 18V7.99995H7.2002V18C7.2002 18.662 6.6622 19.2 6.0002 19.2C5.3382 19.2 4.8002 18.662 4.8002 18ZM19.2002 17.6C19.2002 18.482 18.4822 19.2 17.6002 19.2H8.5292C8.7022 18.836 8.8002 18.429 8.8002 18V4.79995H19.2002V17.6ZM17.6002 6.39995H10.4002V11.2H17.6002V6.39995ZM16.0002 9.59995H12.0002V7.99995H16.0002V9.59995ZM10.4052 12.795H14.4132V14.395H10.4052V12.795ZM16.0002 13.6C16.0002 13.103 16.4032 12.7 16.9002 12.7C17.3972 12.7 17.8002 13.103 17.8002 13.6C17.8002 14.097 17.3972 14.5 16.9002 14.5C16.4032 14.5 16.0002 14.097 16.0002 13.6Z"/>
</svg>
