<svg width="24" height="24" viewBox="0 0 24 24" xmlns="http://www.w3.org/2000/svg">
<path d="M7.5661 14.366L6.4351 13.235L10.2511 9.419L12.2011 11.369L14.2351 9.335L15.3661 10.466L12.2001 13.632L10.2501 11.682L7.5661 14.366ZM22.4001 4V5.6H20.8001V15.6C20.8001 16.703 19.9031 17.6 18.8001 17.6H16.5481L18.3031 20.817L16.8981 21.583L14.7251 17.6H12.8001V20H11.2001V17.6H9.2751L7.1021 21.583L5.6971 20.817L7.4521 17.6H5.2001C4.0971 17.6 3.2001 16.703 3.2001 15.6V5.6H1.6001V4H22.4001ZM19.2001 5.6H4.8001V15.6C4.8001 15.821 4.9791 16 5.2001 16H18.8001C19.0211 16 19.2001 15.821 19.2001 15.6V5.6ZM16.6001 9C17.0971 9 17.5001 8.597 17.5001 8.1C17.5001 7.603 17.0971 7.2 16.6001 7.2C16.1031 7.2 15.7001 7.603 15.7001 8.1C15.7001 8.597 16.1031 9 16.6001 9Z"/>
</svg>
