<svg width="24" height="24" viewBox="0 0 24 24" xmlns="http://www.w3.org/2000/svg">
<path d="M6.39995 11.2H7.99995V12.8H6.39995V11.2ZM6.39995 16H7.99995V14.4H6.39995V16ZM6.39995 19.2H7.99995V17.6H6.39995V19.2ZM9.59995 11.2V12.8H11.2V11.2H9.59995ZM9.09995 20.7C8.60295 20.7 8.19995 21.103 8.19995 21.6C8.19995 22.097 8.60295 22.5 9.09995 22.5C9.59695 22.5 9.99995 22.097 9.99995 21.6C9.99995 21.103 9.59695 20.7 9.09995 20.7ZM21.6 17.6C21.6 20.688 19.088 23.2 16 23.2C13.468 23.2 11.324 21.51 10.634 19.2H9.59995V17.6H10.4C10.4 17.044 10.483 16.507 10.634 16H9.59995V14.4H11.4V14.412C11.78 13.865 12.255 13.39 12.8 13.009V11.2H14.4V12.235C14.907 12.083 15.444 12.001 16 12.001V11.201H17.6V12.236C18.178 12.409 18.717 12.672 19.2 13.01V9.60095H4.79995V20.801H6.59995V22.401H3.19995V4.79995H6.39995V3.19995H7.99995V4.79995H16V3.19995H17.6V4.79995H20.8V14.719C21.307 15.561 21.6 16.547 21.6 17.6ZM19.2 7.99995V6.39995H4.79995V7.99995H19.2ZM20 17.6C20 15.394 18.206 13.6 16 13.6C13.794 13.6 12 15.394 12 17.6C12 19.806 13.794 21.6 16 21.6C18.206 21.6 20 19.806 20 17.6ZM16.8 15.199H15.2V18.001L16.869 19.601L18 18.47L16.8 17.339V15.199Z"/>
</svg>
