<svg width="24" height="24" viewBox="0 0 24 24" xmlns="http://www.w3.org/2000/svg">
<path d="M20.8001 8.0001H17.6001V6.0691L13.1311 1.6001H6.4001V8.0001H3.2001C2.3181 8.0001 1.6001 8.7181 1.6001 9.6001V17.6001C1.6001 18.4821 2.3181 19.2001 3.2001 19.2001H6.4001V20.7001C6.4001 21.5821 7.1181 22.3001 8.0001 22.3001H16.0001C16.8821 22.3001 17.6001 21.5821 17.6001 20.7001V19.2001H20.8001C21.6821 19.2001 22.4001 18.4821 22.4001 17.6001V9.6001C22.4001 8.7181 21.6821 8.0001 20.8001 8.0001ZM8.0001 3.2001H12.4691L16.0001 6.7311V8.0001H8.0001V3.2001ZM16.0001 20.7001H8.0001V16.8001H16.0001V20.7001ZM20.8001 17.6001H17.6001V15.2001H6.4001V17.6001H3.2001V9.6001H20.8001V17.6001ZM17.4001 12.1001C17.4001 11.6031 17.8031 11.2001 18.3001 11.2001C18.7971 11.2001 19.2001 11.6031 19.2001 12.1001C19.2001 12.5971 18.7971 13.0001 18.3001 13.0001C17.8031 13.0001 17.4001 12.5971 17.4001 12.1001ZM15.8001 12.8001H4.8001V11.2001H15.8001V12.8001Z"/>
</svg>
