<svg width="24" height="24" viewBox="0 0 24 24" xmlns="http://www.w3.org/2000/svg">
<path d="M12.1652 11.9345L11.0338 13.0659L15.3338 17.3658L16.4651 16.2344L12.1652 11.9345Z"/>
<path d="M9.96521 14.1338L8.83383 15.2651L13.1338 19.5651L14.2651 18.4337L9.96521 14.1338Z"/>
<path d="M18.684 11.9161L14.35 7.5821L13.016 8.9161C12.098 9.8341 10.603 9.8341 9.685 8.9161C9.24 8.4711 8.995 7.8801 8.995 7.2501C8.995 6.6201 9.24 6.0291 9.685 5.5841L13.335 1.9341L14.466 3.0651L10.816 6.7151C10.521 7.0101 10.521 7.4891 10.816 7.7841C10.959 7.9271 11.148 8.0051 11.35 8.0051C11.552 8.0051 11.742 7.9261 11.884 7.7841L14.35 5.3181L19.816 10.7841L18.684 11.9161Z"/>
<path d="M14.3654 9.73473L13.234 10.8661L17.6344 15.2664L18.7657 14.1351L14.3654 9.73473Z"/>
<path d="M12 22.3341C11.693 22.3341 11.385 22.2171 11.151 21.9831L5.054 15.8861C4.374 15.2061 4 14.3021 4 13.3401V1.6001H20V13.3401C20 14.3021 19.626 15.2061 18.946 15.8861L12.849 21.9831C12.615 22.2171 12.308 22.3341 12 22.3341ZM5.6 3.2001V13.3401C5.6 13.8741 5.808 14.3761 6.186 14.7541L12 20.5681L17.814 14.7541C18.192 14.3761 18.4 13.8741 18.4 13.3401V3.2001H5.6Z"/>
</svg>
