<svg width="24" height="24" viewBox="0 0 24 24" xmlns="http://www.w3.org/2000/svg">
<path d="M20.8 12.138V12C20.8 10.485 20.415 9.02595 19.697 7.73495L18.509 8.91995C18.96 9.87095 19.2 10.918 19.2 12H17.6V20H20C21.323 20 22.4 18.923 22.4 17.6V14.4C22.4 13.357 21.731 12.468 20.8 12.138ZM20.8 17.6C20.8 18.041 20.441 18.4 20 18.4H19.2V13.6H20C20.441 13.6 20.8 13.959 20.8 14.4V17.6ZM16.986 8.02095L22.324 2.63295L21.193 1.50195L18.685 4.03295C16.814 2.46095 14.458 1.59995 12.001 1.59995C9.39104 1.59995 6.89503 2.57095 4.97304 4.33395C4.73404 4.55395 4.59204 4.86595 4.58504 5.19095C4.57804 5.51695 4.70604 5.83595 4.93704 6.06595L5.24004 6.36895C3.92204 7.94795 3.20103 9.91995 3.20103 11.999V12.137C2.27003 12.467 1.60104 13.356 1.60104 14.399V17.599C1.60104 18.587 2.20103 19.436 3.05503 19.804L1.43604 21.433L2.56704 22.564L5.11404 19.999H5.11604L6.40004 18.703V18.701L16.984 8.01995C16.984 8.01995 16.985 8.01995 16.986 8.01995V8.02095ZM12 3.19995C14.035 3.19995 15.986 3.89895 17.553 5.17495L16.42 6.31795C15.16 5.33695 13.608 4.79995 12 4.79995C10.392 4.79995 8.77903 5.35695 7.50603 6.37495L6.36904 5.23795C7.94804 3.92095 9.93204 3.19995 12 3.19995ZM4.00004 18.4C3.55904 18.4 3.20004 18.041 3.20004 17.6V14.4C3.20004 13.959 3.55904 13.6 4.00004 13.6H4.80004V18.043L4.44704 18.4H4.00004ZM4.80004 12C4.80004 10.349 5.35504 8.77795 6.37504 7.50595L6.63504 7.76595C7.08303 8.21395 7.80703 8.23395 8.28403 7.81095C9.30903 6.90095 10.629 6.39995 12.001 6.39995C13.187 6.39995 14.334 6.77495 15.285 7.46395L6.40104 16.429V12H4.80004Z"/>
</svg>
