<svg width="24" height="24" viewBox="0 0 24 24" xmlns="http://www.w3.org/2000/svg">
<path d="M12.8001 20.8001H15.2001V22.4001H8.80012V20.8001H11.2001V16.1911L12.8001 14.5911V20.8001ZM3.87012 18.8701L9.67312 13.1961L4.16212 5.07409C3.91212 4.70509 3.88612 4.23209 4.09512 3.83809C4.30412 3.44409 4.71012 3.20009 5.15512 3.20009H19.6691L20.8691 2.06909L22.0001 3.20009L5.00012 20.0001L3.87012 18.8701ZM11.0621 7.40809C12.3261 6.25809 14.3431 6.08709 15.8761 6.99309L18.0691 4.80009H5.91012L7.86612 7.68209L8.22912 7.92409C9.12912 8.45909 10.3331 8.07109 11.0621 7.40809ZM10.8251 12.0441L14.6801 8.18909C13.8181 7.86709 12.7731 8.01509 12.1391 8.59209C11.3101 9.34609 10.2801 9.75009 9.28412 9.77209L10.8251 12.0441Z"/>
</svg>
