<svg width="24" height="24" viewBox="0 0 24 24" xmlns="http://www.w3.org/2000/svg">
<path d="M11.9999 2.3999C6.7069 2.3999 2.3999 6.7069 2.3999 11.9999C2.3999 17.2929 6.7069 21.5999 11.9999 21.5999C17.2929 21.5999 21.5999 17.2929 21.5999 11.9999C21.5999 6.7069 17.2929 2.3999 11.9999 2.3999ZM11.9999 19.9999C7.5889 19.9999 3.9999 16.4109 3.9999 11.9999C3.9999 7.5889 7.5889 3.9999 11.9999 3.9999C16.4109 3.9999 19.9999 7.5889 19.9999 11.9999C19.9999 16.4109 16.4109 19.9999 11.9999 19.9999ZM18.0789 10.1129C17.9339 9.6669 17.5549 9.3579 17.0969 9.3059L14.2519 8.9609L13.1339 6.3819L13.1279 6.3689C12.9339 5.9409 12.4909 5.6649 11.9999 5.6649C11.5089 5.6649 11.0659 5.9409 10.8719 6.3689L9.7489 8.9609L6.9109 9.3049C6.4459 9.3569 6.0669 9.6669 5.9219 10.1129C5.7749 10.5659 5.9079 11.0679 6.2609 11.3909L8.3319 13.2039L7.8139 16.0509C7.7249 16.5049 7.9009 16.9549 8.2749 17.2259C8.6599 17.5049 9.1779 17.5329 9.5959 17.2949L11.9989 15.9219L14.4039 17.2959C14.5929 17.4029 14.8019 17.4559 15.0109 17.4559C15.2629 17.4559 15.5129 17.3789 15.7239 17.2259C16.0979 16.9539 16.2739 16.5049 16.1849 16.0509L15.6669 13.2039L17.7249 11.4029L17.7379 11.3919C18.0909 11.0689 18.2239 10.5679 18.0769 10.1139L18.0789 10.1129ZM13.9319 12.5969L14.4569 15.4829L12.0009 14.0789L9.5449 15.4829L10.0699 12.5969L7.9989 10.7849L10.8529 10.4389L12.0009 7.7889L13.1489 10.4389L16.0029 10.7849L13.9319 12.5969Z"/>
</svg>
