<svg width="24" height="24" viewBox="0 0 24 24" xmlns="http://www.w3.org/2000/svg">
<path d="M2.73145 9.4999C3.83445 5.4149 7.57144 2.3999 12.0004 2.3999C17.2934 2.3999 21.6004 6.7069 21.6004 11.9999C21.6004 17.2929 17.2934 21.5999 12.0004 21.5999C7.57144 21.5999 3.83445 18.5849 2.73145 14.4999H4.40245C5.45545 17.6899 8.46245 19.9999 12.0004 19.9999C16.4114 19.9999 20.0004 16.4109 20.0004 11.9999C20.0004 7.5889 16.4114 3.9999 12.0004 3.9999C8.46245 3.9999 5.45445 6.3099 4.40245 9.4999H2.73145Z"/>
<path d="M4.0998 12.0001C4.0998 12.4972 3.69686 12.9001 3.1998 12.9001C2.70275 12.9001 2.2998 12.4972 2.2998 12.0001C2.2998 11.503 2.70275 11.1001 3.1998 11.1001C3.69686 11.1001 4.0998 11.503 4.0998 12.0001Z"/>
</svg>
