<svg width="24" height="24" viewBox="0 0 24 24" xmlns="http://www.w3.org/2000/svg">
<path d="M2.4538 12.5029C2.3568 12.3589 2.2998 12.1859 2.2998 11.9999C2.2998 11.8139 2.3568 11.6399 2.4538 11.4969C2.5828 11.3049 2.7848 11.1659 3.0188 11.1179C3.0778 11.1059 3.1378 11.0999 3.1998 11.0999C3.2618 11.0999 3.3228 11.1059 3.3808 11.1179C3.6148 11.1659 3.8158 11.3049 3.9458 11.4969C3.9618 11.5209 3.9768 11.5459 3.9908 11.5709C4.0188 11.6219 4.0418 11.6759 4.0588 11.7319C4.0848 11.8169 4.0988 11.9059 4.0988 11.9999C4.0988 12.0939 4.0848 12.1829 4.0588 12.2679C4.0408 12.3239 4.0188 12.3779 3.9908 12.4289C3.9768 12.4549 3.9618 12.4789 3.9458 12.5029C3.8168 12.6949 3.6148 12.8339 3.3808 12.8819C3.3218 12.8939 3.2618 12.8999 3.1998 12.8999C3.1378 12.8999 3.0768 12.8939 3.0188 12.8819C2.7848 12.8339 2.5838 12.6949 2.4538 12.5029ZM22.3998 13.1999V16.2339C22.3998 16.5549 22.2748 16.8559 22.0488 17.0829L16.7998 22.3309L15.4328 20.9639C14.3658 21.3739 13.2088 21.5999 11.9998 21.5999C7.5708 21.5999 3.8338 18.5849 2.7308 14.4999H4.4018C5.4538 17.6899 8.4618 19.9999 11.9998 19.9999C12.7508 19.9999 13.4778 19.8939 14.1678 19.6989L12.0688 17.5999L17.3168 12.3509C17.5438 12.1239 17.8448 11.9999 18.1658 11.9999H19.9998C19.9998 7.5889 16.4108 3.9999 11.9998 3.9999C8.4618 3.9999 5.4548 6.3099 4.4018 9.4999H2.7308C3.8338 5.4149 7.5708 2.3999 11.9998 2.3999C17.2928 2.3999 21.5998 6.7069 21.5998 11.9999C21.5998 12.0229 21.5988 12.0459 21.5978 12.0689C22.0638 12.2339 22.3998 12.6779 22.3998 13.1999ZM20.7998 13.5999H18.3308L14.3308 17.5999L16.7998 20.0689L20.7998 16.0689V13.5999Z"/>
</svg>
