<svg width="24" height="24" viewBox="0 0 24 24" xmlns="http://www.w3.org/2000/svg">
<path d="M11.2002 11.2H3.2002V3.19995H11.2002V11.2ZM4.8002 9.59995H9.6002V4.79995H4.8002V9.59995ZM20.8002 11.2H12.8002V3.19995H20.8002V11.2ZM14.4002 9.59995H19.2002V4.79995H14.4002V9.59995ZM11.2002 20.8H3.2002V12.8H11.2002V20.8ZM4.8002 19.2H9.6002V14.4H4.8002V19.2ZM17.5002 19.2H14.4002V14.4H19.2002V17.5H20.8002V12.8H12.8002V20.8H17.5002V19.2ZM8.0002 6.39995H6.4002V7.99995H8.0002V6.39995ZM8.0002 16H6.4002V17.6H8.0002V16ZM17.6002 6.39995H16.0002V7.99995H17.6002V6.39995ZM20.0002 19.1C19.5032 19.1 19.1002 19.503 19.1002 20C19.1002 20.497 19.5032 20.9 20.0002 20.9C20.4972 20.9 20.9002 20.497 20.9002 20C20.9002 19.503 20.4972 19.1 20.0002 19.1Z"/>
</svg>
