<svg width="24" height="24" viewBox="0 0 24 24" xmlns="http://www.w3.org/2000/svg">
<path d="M21.062 10.0269C20.803 9.82095 20.412 9.50895 20.361 9.35295C20.301 9.16895 20.438 8.64495 20.528 8.29795C20.731 7.51895 20.961 6.63595 20.447 5.92895C19.929 5.21795 19.007 5.16095 18.267 5.11495C17.911 5.09295 17.422 5.06295 17.271 4.95295C17.122 4.84395 16.909 4.32395 16.769 3.97995C16.45 3.19795 16.088 2.31195 15.247 2.03895C14.425 1.77195 13.659 2.26495 12.982 2.69995C12.653 2.91095 12.204 3.19995 12 3.19995C11.796 3.19995 11.347 2.91095 11.018 2.69995C10.341 2.26495 9.57401 1.77295 8.75301 2.03895C7.91201 2.31195 7.55101 3.19795 7.23101 3.97995C7.09101 4.32395 6.87801 4.84395 6.72901 4.95295C6.57801 5.06295 6.09001 5.09295 5.73301 5.11495C4.99201 5.16095 4.07001 5.21795 3.55301 5.92895C3.03801 6.63595 3.26901 7.51895 3.47201 8.29795C3.56201 8.64495 3.69901 9.16895 3.63901 9.35295C3.58801 9.50895 3.19701 9.82095 2.93801 10.0269C2.34201 10.5019 1.60001 11.0919 1.60001 11.9999C1.60001 12.9079 2.34201 13.4979 2.93801 13.9729C3.19701 14.1789 3.58801 14.4909 3.63901 14.6469C3.69901 14.8309 3.56201 15.3549 3.47201 15.7019C3.26901 16.4809 3.03901 17.3639 3.55301 18.0709C4.07101 18.7819 4.99301 18.8389 5.73301 18.8849C6.08901 18.9069 6.57801 18.9369 6.72901 19.0469C6.87801 19.1559 7.09101 19.6759 7.23101 20.0199C7.55001 20.8019 7.91201 21.6879 8.75301 21.9609C8.91401 22.0129 9.07401 22.0359 9.23001 22.0359C9.87201 22.0359 10.474 21.6489 11.018 21.2999C11.347 21.0889 11.796 20.7999 12 20.7999C12.204 20.7999 12.653 21.0889 12.982 21.2999C13.659 21.7349 14.425 22.2279 15.247 21.9609C16.088 21.6879 16.449 20.8019 16.769 20.0199C16.909 19.6759 17.122 19.1559 17.271 19.0469C17.422 18.9369 17.91 18.9069 18.267 18.8849C19.008 18.8389 19.93 18.7819 20.447 18.0709C20.962 17.3639 20.731 16.4809 20.528 15.7019C20.438 15.3549 20.301 14.8309 20.361 14.6469C20.412 14.4909 20.803 14.1789 21.062 13.9729C21.658 13.4989 22.4 12.9079 22.4 11.9999C22.4 11.0919 21.658 10.5019 21.062 10.0269ZM20.066 12.7209C19.561 13.1229 19.039 13.5389 18.839 14.1529C18.635 14.7819 18.81 15.4549 18.98 16.1049C19.059 16.4069 19.204 16.9639 19.15 17.1309C19.024 17.2339 18.469 17.2689 18.168 17.2869C17.554 17.3249 16.858 17.3679 16.33 17.7519C15.813 18.1279 15.546 18.7819 15.288 19.4139C15.158 19.7329 14.919 20.3189 14.757 20.4339C14.578 20.4229 14.123 20.1299 13.847 19.9529C13.27 19.5819 12.673 19.1989 12 19.1989C11.327 19.1989 10.73 19.5819 10.153 19.9529C9.87801 20.1299 9.42301 20.4219 9.24301 20.4339C9.08201 20.3189 8.84201 19.7329 8.71201 19.4139C8.45401 18.7819 8.18701 18.1289 7.67001 17.7519C7.14201 17.3679 6.44601 17.3249 5.83201 17.2869C5.52901 17.2679 4.96901 17.2339 4.85001 17.1319C4.79501 16.9669 4.94001 16.4069 5.01901 16.1039C5.18901 15.4529 5.36401 14.7799 5.16001 14.1519C4.96101 13.5379 4.43801 13.1219 3.93301 12.7199C3.70201 12.5359 3.22101 12.1529 3.19901 12.0009C3.22101 11.8449 3.70201 11.4619 3.93301 11.2779C4.43801 10.8759 4.96001 10.4599 5.16001 9.84595C5.36401 9.21695 5.18901 8.54395 5.01901 7.89395C4.94001 7.59195 4.79501 7.03495 4.84901 6.86795C4.97501 6.76495 5.53001 6.72995 5.83101 6.71195C6.44501 6.67395 7.14101 6.63095 7.66901 6.24695C8.18601 5.87095 8.45301 5.21695 8.71101 4.58495C8.84101 4.26595 9.08001 3.67995 9.24201 3.56495C9.42101 3.57595 9.87601 3.86895 10.152 4.04595C10.729 4.41695 11.326 4.79995 11.999 4.79995C12.672 4.79995 13.269 4.41695 13.846 4.04595C14.121 3.86895 14.576 3.57695 14.756 3.56495C14.917 3.67995 15.157 4.26595 15.287 4.58495C15.545 5.21695 15.812 5.86995 16.329 6.24695C16.857 6.63095 17.553 6.67395 18.167 6.71195C18.47 6.73095 19.03 6.76495 19.148 6.86695C19.203 7.03195 19.058 7.59195 18.979 7.89495C18.809 8.54595 18.634 9.21895 18.838 9.84695C19.037 10.4609 19.56 10.8769 20.065 11.2789C20.295 11.4619 20.774 11.8429 20.799 11.9999C20.773 12.1569 20.295 12.5379 20.065 12.7209H20.066ZM11.298 9.70295C11.068 9.47595 10.799 9.30295 10.498 9.19195C9.89801 8.96895 9.24001 8.96995 8.64201 9.19195C8.34001 9.30395 8.07001 9.47595 7.83901 9.70295C7.60901 9.92995 7.42101 10.2189 7.28101 10.5609C7.14101 10.9029 7.07001 11.3079 7.07001 11.7649C7.07001 12.1409 7.11801 12.4849 7.21201 12.7859C7.30701 13.0889 7.43901 13.3539 7.60401 13.5739C7.77001 13.7949 7.96801 13.9789 8.19301 14.1209C8.39601 14.2489 8.61401 14.3449 8.84101 14.4049C8.85601 14.5839 8.90001 14.7539 8.97401 14.9089C9.05801 15.0869 9.17901 15.2419 9.33101 15.3699C9.48201 15.4959 9.66801 15.5969 9.88401 15.6689C10.098 15.7399 10.342 15.7769 10.609 15.7769H11.667V14.6869H11.134C11.009 14.6869 10.888 14.6839 10.775 14.6769C10.668 14.6709 10.572 14.6549 10.49 14.6289C10.413 14.6049 10.345 14.5679 10.289 14.5199C10.26 14.4949 10.235 14.4629 10.213 14.4259C10.437 14.3729 10.651 14.2869 10.853 14.1709C11.092 14.0329 11.304 13.8499 11.483 13.6259C11.661 13.4029 11.804 13.1319 11.908 12.8229C12.012 12.5139 12.064 12.1579 12.064 11.7659C12.064 11.3089 11.993 10.9039 11.853 10.5619C11.713 10.2189 11.526 9.93095 11.297 9.70395L11.298 9.70295ZM9.57201 10.1509C9.75001 10.1509 9.91301 10.1879 10.056 10.2599C10.199 10.3319 10.323 10.4359 10.422 10.5699C10.524 10.7059 10.604 10.8759 10.659 11.0759C10.716 11.2789 10.744 11.5109 10.744 11.7649C10.744 12.0189 10.715 12.2549 10.659 12.4609C10.603 12.6629 10.523 12.8369 10.421 12.9759C10.321 13.1129 10.198 13.2199 10.054 13.2939C9.91101 13.3679 9.74901 13.4049 9.57101 13.4049C9.39301 13.4049 9.22601 13.3669 9.08101 13.2929C8.93601 13.2189 8.81101 13.1119 8.71101 12.9749C8.60901 12.8349 8.52801 12.6619 8.47101 12.4589C8.41301 12.2539 8.38401 12.0199 8.38401 11.7639C8.38401 11.5079 8.41301 11.2789 8.47101 11.0759C8.52801 10.8759 8.60801 10.7049 8.71001 10.5689C8.81001 10.4359 8.93401 10.3309 9.07901 10.2589C9.22501 10.1869 9.39001 10.1499 9.57001 10.1499L9.57201 10.1509ZM13.167 9.11795H16.73V10.2559H14.485V11.2959H16.303V12.3829H14.485V14.4129H13.166V9.11895L13.167 9.11795Z"/>
</svg>
