<svg width="24" height="24" viewBox="0 0 24 24" xmlns="http://www.w3.org/2000/svg">
<path d="M19.1996 8V4H1.59961V16.834C1.59961 17.321 1.89061 17.756 2.34061 17.943C2.48961 18.005 2.64661 18.035 2.80061 18.035C3.11261 18.035 3.41761 17.913 3.64761 17.683L6.13061 15.2H8.79961V18.4H18.0686L20.3516 20.683C20.5816 20.913 20.8876 21.035 21.1986 21.035C21.3536 21.035 21.5096 21.005 21.6586 20.943C22.1086 20.757 22.3996 20.321 22.3996 19.834V8H19.1996ZM5.96561 13.6C5.64461 13.6 5.34361 13.725 5.11761 13.951L3.20061 15.868V5.6H17.6006V13.6H5.96561ZM20.7996 18.869L19.0826 17.152C18.8556 16.925 18.5546 16.8 18.2336 16.8H10.3996V15.2H19.1996V9.6H20.7996V18.869Z"/>
<path d="M10.9766 11.098C10.9106 11.035 10.8286 10.985 10.7326 10.951C10.6386 10.917 10.5316 10.9 10.4136 10.9C10.2956 10.9 10.1926 10.917 10.1006 10.951C10.0066 10.986 9.92661 11.036 9.86161 11.099C9.79661 11.162 9.74761 11.236 9.71561 11.319C9.68361 11.4 9.66661 11.489 9.66661 11.581C9.66661 11.673 9.68261 11.759 9.71461 11.841C9.74761 11.926 9.79661 12 9.86161 12.062C9.92561 12.123 10.0056 12.173 10.0986 12.209C10.1906 12.244 10.2966 12.262 10.4126 12.262C10.5286 12.262 10.6386 12.244 10.7326 12.209C10.8286 12.173 10.9096 12.124 10.9746 12.063C11.0406 12.001 11.0916 11.927 11.1256 11.842C11.1596 11.759 11.1766 11.671 11.1766 11.581C11.1766 11.491 11.1596 11.4 11.1256 11.317C11.0916 11.234 11.0416 11.161 10.9766 11.098Z"/>
<path d="M11.9416 7.228C11.7966 7.109 11.6156 7.015 11.4046 6.949C11.1956 6.884 10.9546 6.851 10.6876 6.851C10.4546 6.851 10.2346 6.874 10.0336 6.919C9.83261 6.964 9.64761 7.025 9.48261 7.101C9.31761 7.177 9.16561 7.269 9.03161 7.373C8.89761 7.477 8.77961 7.59 8.67961 7.708L8.62261 7.776L9.39061 8.594L9.46261 8.502C9.52061 8.428 9.59161 8.355 9.67361 8.285C9.75561 8.215 9.84561 8.153 9.94161 8.101C10.0376 8.049 10.1406 8.006 10.2496 7.974C10.3556 7.942 10.4636 7.926 10.5716 7.926C10.7526 7.926 10.8916 7.963 10.9856 8.035C11.0726 8.103 11.1156 8.186 11.1156 8.29C11.1156 8.363 11.1066 8.427 11.0876 8.479C11.0696 8.531 11.0416 8.578 11.0056 8.621C10.9666 8.667 10.9166 8.711 10.8546 8.754C10.7886 8.8 10.7096 8.849 10.6196 8.901C10.5156 8.959 10.4166 9.023 10.3246 9.092C10.2286 9.164 10.1446 9.246 10.0756 9.336C10.0046 9.427 9.94861 9.531 9.90761 9.643C9.86561 9.757 9.84461 9.886 9.84461 10.026C9.84461 10.115 9.84661 10.199 9.85161 10.276L9.85361 10.315C9.85428 10.3303 9.85628 10.353 9.85961 10.383L9.87061 10.499H10.9716V10.399C10.9716 10.26 10.9736 10.227 10.9776 10.155L10.9796 10.107C10.9846 10.011 11.0036 9.928 11.0346 9.861C11.0656 9.797 11.1166 9.736 11.1886 9.682C11.2676 9.621 11.3846 9.551 11.5356 9.473C11.6506 9.411 11.7596 9.342 11.8606 9.269C11.9656 9.193 12.0576 9.104 12.1356 9.004C12.2146 8.903 12.2776 8.786 12.3236 8.655C12.3696 8.523 12.3926 8.371 12.3926 8.203C12.3926 8.009 12.3546 7.827 12.2786 7.66C12.2026 7.493 12.0896 7.347 11.9426 7.227L11.9416 7.228Z"/>
</svg>
