<svg width="24" height="24" viewBox="0 0 24 24" xmlns="http://www.w3.org/2000/svg">
<path d="M11.2001 19.2001H1.6001V11.3061C1.6001 11.0971 1.6551 10.8911 1.7581 10.7101L4.7901 5.40407C5.0031 5.03107 5.4021 4.79907 5.8321 4.79907H10.0111C10.4371 4.79907 10.8351 5.02807 11.0491 5.39707C11.2631 5.76607 11.2641 6.22507 11.0531 6.59507L8.8791 10.3991H11.2001V19.2001ZM3.2001 17.6001H9.6001V12.0001H6.1211L9.3211 6.40007H6.0641L3.2001 11.4121V17.6001ZM22.4001 19.2001H12.8001V11.3061C12.8001 11.0971 12.8551 10.8911 12.9581 10.7101L15.9901 5.40407C16.2031 5.03107 16.6021 4.79907 17.0321 4.79907H21.2111C21.6371 4.79907 22.0351 5.02807 22.2491 5.39707C22.4631 5.76607 22.4641 6.22507 22.2531 6.59507L20.0791 10.3991H22.4001V19.2001ZM14.4001 17.6001H20.8001V12.0001H17.3211L20.5211 6.40007H17.2641L14.4001 11.4121V17.6001Z"/>
</svg>
