<svg width="24" height="24" viewBox="0 0 24 24" xmlns="http://www.w3.org/2000/svg">
<path d="M19.2001 6.4H9.99412L11.6281 4.766L10.4971 3.635L7.73112 6.401H4.79912C3.03412 6.401 1.59912 7.836 1.59912 9.601V17.601C1.59912 19.366 3.03412 20.801 4.79912 20.801H19.1991C20.9641 20.801 22.3991 19.366 22.3991 17.601V9.601C22.3991 7.836 20.9641 6.401 19.1991 6.401L19.2001 6.4ZM20.8001 17.6C20.8001 18.482 20.0821 19.2 19.2001 19.2H4.80012C3.91812 19.2 3.20012 18.482 3.20012 17.6V9.6C3.20012 8.718 3.91812 8 4.80012 8H19.2001C20.0821 8 20.8001 8.718 20.8001 9.6V17.6ZM8.80012 9.6C6.59412 9.6 4.80012 11.394 4.80012 13.6C4.80012 15.806 6.59412 17.6 8.80012 17.6C11.0061 17.6 12.8001 15.806 12.8001 13.6C12.8001 11.394 11.0061 9.6 8.80012 9.6ZM8.80012 16C7.47712 16 6.40012 14.923 6.40012 13.6C6.40012 12.277 7.47712 11.2 8.80012 11.2C10.1231 11.2 11.2001 12.277 11.2001 13.6C11.2001 14.923 10.1231 16 8.80012 16ZM14.4001 12.8H19.2001V14.4H14.4001V12.8ZM18.4001 11.2H15.2001V9.6H18.4001V11.2ZM15.2001 16H18.4001V17.6H15.2001V16ZM11.9631 2.4C11.9631 1.903 12.3661 1.5 12.8631 1.5C13.3601 1.5 13.7631 1.903 13.7631 2.4C13.7631 2.897 13.3601 3.3 12.8631 3.3C12.3661 3.3 11.9631 2.897 11.9631 2.4Z"/>
</svg>
