<svg width="24" height="24" viewBox="0 0 24 24" xmlns="http://www.w3.org/2000/svg">
<path d="M18.4001 7.99979C17.0771 7.99979 16.0001 9.07679 16.0001 10.3998H14.4001C14.4001 9.07679 13.3231 7.99979 12.0001 7.99979C10.6771 7.99979 9.6001 9.07679 9.6001 10.3998H8.0001C8.0001 9.07679 6.9231 7.99979 5.6001 7.99979C4.2771 7.99979 3.2001 9.07679 3.2001 10.3998H1.6001V11.9998H3.2001V19.9998C3.2001 21.3228 4.2771 22.3998 5.6001 22.3998C6.9231 22.3998 7.9691 21.3538 7.9991 20.0558H9.6021C9.6321 21.3538 10.6961 22.3998 12.0011 22.3998C13.3061 22.3998 14.3701 21.3538 14.4001 20.0558H16.0031C16.0331 21.3538 17.0971 22.3998 18.4021 22.3998C19.7071 22.3998 20.8021 21.3228 20.8021 19.9998V10.3998C20.8021 9.07679 19.7251 7.99979 18.4021 7.99979H18.4001ZM16.0001 11.9998V18.4558H14.4001V11.9998H16.0001ZM9.6001 11.9998V18.4558H8.0001V11.9998H9.6001ZM6.4001 19.9998C6.4001 20.4408 6.0411 20.7998 5.6001 20.7998C5.1591 20.7998 4.8001 20.4408 4.8001 19.9998V10.3998C4.8001 9.95879 5.1591 9.59979 5.6001 9.59979C6.0411 9.59979 6.4001 9.95879 6.4001 10.3998V19.9998ZM12.8001 19.9998C12.8001 20.4408 12.4411 20.7998 12.0001 20.7998C11.5591 20.7998 11.2001 20.4408 11.2001 19.9998V10.3998C11.2001 9.95879 11.5591 9.59979 12.0001 9.59979C12.4411 9.59979 12.8001 9.95879 12.8001 10.3998V19.9998ZM19.2001 19.9998C19.2001 20.4408 18.8411 20.7998 18.4001 20.7998C17.9591 20.7998 17.6001 20.4408 17.6001 19.9998V10.3998C17.6001 9.95879 17.9591 9.59979 18.4001 9.59979C18.8411 9.59979 19.2001 9.95879 19.2001 10.3998V19.9998ZM8.2341 5.43379C8.3181 5.34979 8.3311 5.25079 8.3311 5.19979C8.3311 5.14879 8.3181 5.04979 8.2341 4.96579C7.8691 4.60079 7.6681 4.11579 7.6681 3.59979C7.6681 3.08379 7.8691 2.59879 8.2341 2.23379L8.8341 1.63379L9.9651 2.76479L9.3651 3.36479C9.2811 3.44879 9.2681 3.54779 9.2681 3.59879C9.2681 3.64979 9.2811 3.74879 9.3651 3.83279C9.7301 4.19779 9.9311 4.68279 9.9311 5.19879C9.9311 5.71479 9.7301 6.19979 9.3651 6.56479L8.7651 7.16479L7.6341 6.03379L8.2341 5.43379ZM14.6341 5.43379C14.7181 5.34979 14.7311 5.25079 14.7311 5.19979C14.7311 5.14879 14.7181 5.04979 14.6341 4.96579C14.2691 4.60079 14.0681 4.11579 14.0681 3.59979C14.0681 3.08379 14.2691 2.59879 14.6341 2.23379L15.2341 1.63379L16.3651 2.76479L15.7651 3.36479C15.6811 3.44879 15.6681 3.54779 15.6681 3.59879C15.6681 3.64979 15.6811 3.74879 15.7651 3.83279C16.1301 4.19779 16.3311 4.68279 16.3311 5.19879C16.3311 5.71479 16.1301 6.19979 15.7651 6.56479L15.1651 7.16479L14.0341 6.03379L14.6341 5.43379Z"/>
</svg>
