<svg width="24" height="24" viewBox="0 0 24 24" xmlns="http://www.w3.org/2000/svg">
<path d="M8.83189 22.4171C8.64089 22.4171 8.44689 22.3701 8.26489 22.2741C7.74889 22.0011 7.50789 21.4201 7.67889 20.8621L10.1519 12.7891H5.19989C4.81089 12.7891 4.44489 12.5991 4.21989 12.2821C3.99489 11.9641 3.93889 11.5561 4.06889 11.1891L7.18589 2.38909C7.35489 1.91109 7.80989 1.59009 8.31689 1.59009H15.2619C15.6539 1.59009 16.0219 1.78209 16.2459 2.10309C16.4699 2.42409 16.5239 2.83509 16.3889 3.20309L14.7809 7.59009H18.8019C19.2679 7.59009 19.6819 7.85109 19.8839 8.27109C20.0859 8.69109 20.0299 9.17809 19.7379 9.54109L9.76489 21.9651C9.52789 22.2601 9.18689 22.4171 8.83489 22.4171H8.83189ZM5.76489 11.1901H12.3149L9.81889 19.3381L17.9649 9.19009H12.4879L14.6879 3.19009H8.59889L5.76589 11.1901H5.76489Z"/>
</svg>
