<svg width="24" height="24" viewBox="0 0 24 24" xmlns="http://www.w3.org/2000/svg">
<path d="M15.2 9.60009H8.8V11.2001H15.2V9.60009Z"/>
<path d="M18.687 17.9291C18.601 17.7611 18.479 17.6181 18.326 17.5031C18.18 17.3931 18.006 17.3021 17.809 17.2311C17.622 17.1631 17.403 17.1051 17.212 17.0571L17.13 17.0361C16.972 16.9951 16.814 16.9551 16.682 16.9231C16.557 16.8921 16.439 16.8251 16.377 16.7721C16.36 16.7571 16.307 16.7121 16.307 16.5781C16.307 16.4911 16.334 16.4191 16.388 16.3591C16.441 16.3011 16.539 16.2601 16.65 16.2491C16.826 16.2321 16.986 16.2401 17.101 16.2711C17.238 16.3081 17.354 16.3641 17.454 16.4421C17.568 16.5311 17.678 16.6311 17.782 16.7391L17.926 16.8891L18.78 16.0901L18.66 15.9611C18.577 15.8721 18.489 15.7871 18.401 15.7091C18.307 15.6271 18.202 15.5531 18.087 15.4891C17.972 15.4241 17.84 15.3691 17.696 15.3241C17.606 15.2961 17.519 15.2751 17.4 15.2521V14.6011H16.2V15.2651C16.114 15.2861 16.024 15.3121 15.95 15.3401C15.755 15.4141 15.587 15.5161 15.45 15.6401C15.312 15.7661 15.204 15.9171 15.129 16.0901C15.055 16.2611 15.017 16.4521 15.017 16.6571C15.017 16.8931 15.065 17.0981 15.159 17.2651C15.252 17.4301 15.376 17.5691 15.529 17.6791C15.675 17.7841 15.844 17.8711 16.033 17.9371C16.209 17.9991 16.393 18.0531 16.576 18.0981L17.099 18.2311C17.258 18.2801 17.375 18.3381 17.446 18.4031C17.501 18.4541 17.528 18.5251 17.528 18.6211C17.528 18.7311 17.5 18.8101 17.443 18.8621C17.385 18.9161 17.264 18.9601 17.128 18.9791C16.972 19.0001 16.82 18.9981 16.662 18.9741C16.509 18.9501 16.357 18.8881 16.21 18.7881C16.053 18.6821 15.911 18.5501 15.788 18.3951L15.643 18.2141L14.816 19.0291L14.921 19.1531C15.017 19.2671 15.121 19.3721 15.229 19.4641C15.341 19.5601 15.465 19.6441 15.599 19.7141C15.731 19.7841 15.88 19.8431 16.041 19.8911C16.089 19.9051 16.144 19.9181 16.199 19.9311V20.6021H17.399V19.9741C17.562 19.9441 17.763 19.8991 17.912 19.8361C18.117 19.7491 18.289 19.6391 18.423 19.5081C18.559 19.3751 18.66 19.2211 18.724 19.0511C18.785 18.8861 18.817 18.7121 18.817 18.5321C18.817 18.3001 18.773 18.0981 18.687 17.9301V17.9291Z"/>
<path d="M15.2 6.40009H8.8V8.00009H15.2V6.40009Z"/>
<path d="M18.4 12.2341V2.95609C18.4 2.53009 18.171 2.13209 17.802 1.91809C17.433 1.70409 16.975 1.70309 16.604 1.91409L14.799 2.94509L12.594 1.68509C12.227 1.47509 11.77 1.47509 11.403 1.68509L9.198 2.94509L7.393 1.91409C7.023 1.70209 6.564 1.70409 6.195 1.91809C5.826 2.13209 5.597 2.53009 5.597 2.95609V21.2001C5.597 21.6431 5.838 22.0581 6.225 22.2831C6.594 22.4971 7.031 22.5021 7.393 22.2941L9.215 21.1111L11.409 22.3001C11.59 22.4011 11.793 22.4521 11.996 22.4521C12.199 22.4521 12.401 22.4011 12.583 22.3001L13.256 21.9351C14.221 22.7251 15.454 23.1991 16.796 23.1991C19.884 23.1991 22.396 20.6871 22.396 17.5991C22.396 15.0671 20.706 12.9231 18.396 12.2331L18.4 12.2341ZM12.208 14.4001C11.573 15.3081 11.2 16.4111 11.2 17.6001C11.2 18.7891 11.55 19.8261 12.15 20.7171L12 20.7981L9.787 19.5991C9.421 19.3941 8.968 19.3961 8.603 19.6051L7.2 20.5151V3.64509L8.605 4.44809C8.972 4.65809 9.428 4.65809 9.796 4.44809L12.001 3.18809L14.206 4.44809C14.573 4.65809 15.029 4.65809 15.397 4.44809L16.802 3.64509V12.0001C15.749 12.0001 14.763 12.2931 13.921 12.8001H8.802V14.4001H12.21H12.208ZM16.8 21.6001C14.594 21.6001 12.8 19.8061 12.8 17.6001C12.8 15.3941 14.594 13.6001 16.8 13.6001C19.006 13.6001 20.8 15.3941 20.8 17.6001C20.8 19.8061 19.006 21.6001 16.8 21.6001Z"/>
</svg>
