<svg width="24" height="24" viewBox="0 0 24 24" xmlns="http://www.w3.org/2000/svg">
<path d="M10.5 18.3001C10.5 18.7971 10.097 19.2001 9.59999 19.2001C9.10299 19.2001 8.69999 18.7971 8.69999 18.3001C8.69999 17.8031 9.10299 17.4001 9.59999 17.4001C10.097 17.4001 10.5 17.8031 10.5 18.3001ZM23.2 17.6001C23.2 20.6881 20.688 23.2001 17.6 23.2001C16.547 23.2001 15.561 22.9071 14.719 22.4001H4.39999C3.29699 22.4001 2.39999 21.5031 2.39999 20.4001V3.6001C2.39999 2.4971 3.29699 1.6001 4.39999 1.6001H14.8C15.903 1.6001 16.8 2.4971 16.8 3.6001V12.0581C17.061 12.0201 17.328 12.0001 17.6 12.0001C20.688 12.0001 23.2 14.5121 23.2 17.6001ZM4.39999 20.8001H13.008C12.373 19.8921 12 18.7891 12 17.6001C12 15.3711 13.31 13.4421 15.2 12.5411V3.6001C15.2 3.3791 15.021 3.2001 14.8 3.2001H4.39999C4.17899 3.2001 3.99999 3.3791 3.99999 3.6001V20.4001C3.99999 20.6211 4.17899 20.8001 4.39999 20.8001ZM21.6 17.6001C21.6 15.3941 19.806 13.6001 17.6 13.6001C15.394 13.6001 13.6 15.3941 13.6 17.6001C13.6 19.8061 15.394 21.6001 17.6 21.6001C19.806 21.6001 21.6 19.8061 21.6 17.6001ZM7.72899 9.7411C7.08399 9.5611 6.81399 9.4381 6.81399 9.1421C6.81399 8.9031 7.04899 8.7611 7.44199 8.7611C7.87999 8.7611 8.40099 9.0431 8.72199 9.3221L8.80899 9.3981L9.40799 8.4711L9.33799 8.4151C9.00399 8.1471 8.31099 7.6971 7.41599 7.6971C6.30099 7.6971 5.57999 8.3001 5.57999 9.2341C5.57999 10.2891 6.51199 10.5491 7.33499 10.7791L7.40799 10.8001C8.09099 10.9901 8.30999 11.1361 8.30999 11.3991C8.30999 11.8191 7.71999 11.8521 7.53899 11.8521C7.03299 11.8521 6.43099 11.5011 6.09599 11.1551L6.01599 11.0721L5.33599 11.9441L5.40299 12.0061C5.83599 12.4101 6.56299 12.8911 7.57099 12.8911C9.02699 12.8911 9.54299 12.0491 9.54299 11.3281C9.54299 10.2321 8.53599 9.9611 7.72799 9.7431L7.72899 9.7411ZM12.591 7.7881L9.67999 12.7981H10.984L13.895 7.7881H12.591ZM19.366 19.0351L17.932 17.6011L19.366 16.1671L18.235 15.0361L15.669 17.6021L18.235 20.1681L19.366 19.0371V19.0351Z"/>
</svg>
