<svg width="24" height="24" viewBox="0 0 24 24" xmlns="http://www.w3.org/2000/svg">
<path d="M15.2 7.99995H8.80001V6.39995H15.2V7.99995ZM15.2 9.59995H8.80001V11.1999H15.2V9.59995ZM22.4 17.6C22.4 20.688 19.888 23.1999 16.8 23.1999C15.48 23.1999 14.267 22.74 13.309 21.974L12.596 22.382C12.412 22.4869 12.206 22.5389 12.001 22.5389C11.796 22.5389 11.589 22.4869 11.406 22.382L9.20101 21.122L7.39601 22.153C7.02601 22.364 6.56701 22.363 6.19801 22.149C5.82901 21.9349 5.60001 21.537 5.60001 21.111V2.88895C5.60001 2.46295 5.82901 2.06495 6.19801 1.85095C6.56701 1.63695 7.02601 1.63595 7.39601 1.84695L9.20101 2.87795L11.406 1.61795C11.773 1.40795 12.23 1.40795 12.597 1.61795L14.802 2.87795L16.607 1.84695C16.977 1.63595 17.436 1.63695 17.805 1.85095C18.174 2.06495 18.403 2.46295 18.403 2.88895V12.2339C20.713 12.9239 22.403 15.068 22.403 17.6H22.4ZM12 20.879L12.188 20.7719C11.566 19.8699 11.2 18.777 11.2 17.601C11.2 16.425 11.574 15.3089 12.208 14.4009H8.80001V12.8009H13.919C14.761 12.2939 15.747 12.0009 16.8 12.0009V3.57895L15.395 4.38195C15.028 4.59195 14.571 4.59195 14.204 4.38195L11.999 3.12195L9.79401 4.38195C9.42701 4.59195 8.97101 4.59195 8.60301 4.38195L7.19801 3.57895V20.4219L8.60301 19.6189C8.97001 19.409 9.42701 19.409 9.79401 19.6189L11.999 20.879H12ZM20.8 17.6C20.8 15.394 19.006 13.5999 16.8 13.5999C14.594 13.5999 12.8 15.394 12.8 17.6C12.8 19.806 14.594 21.6 16.8 21.6C19.006 21.6 20.8 19.806 20.8 17.6ZM16.328 16.088C16.468 15.943 16.664 15.872 16.929 15.872C17.133 15.872 17.295 15.938 17.423 16.075C17.558 16.219 17.675 16.4519 17.769 16.7649L17.799 16.8639L19.001 16.478L18.971 16.3839C18.815 15.8909 18.565 15.5009 18.227 15.2229C17.885 14.9419 17.446 14.7999 16.923 14.7999C16.655 14.7999 16.397 14.8369 16.157 14.9109C15.914 14.985 15.692 15.101 15.499 15.255C15.305 15.409 15.137 15.607 14.998 15.844C14.896 16.0199 14.725 16.4399 14.645 16.9999H14.002V18.1999H14.645C14.725 18.7599 14.895 19.1799 14.998 19.3559C15.137 19.594 15.305 19.792 15.499 19.945C15.693 20.0989 15.914 20.2139 16.157 20.2889C16.398 20.3629 16.655 20.4 16.923 20.4C17.446 20.4 17.885 20.2579 18.227 19.9769C18.565 19.6989 18.816 19.308 18.971 18.816L19.001 18.722L17.799 18.336L17.769 18.4349C17.675 18.7479 17.559 18.9799 17.423 19.125C17.295 19.261 17.133 19.3279 16.929 19.3279C16.664 19.3279 16.468 19.257 16.328 19.1119C16.183 18.961 16.078 18.747 16.018 18.4809C16.018 18.4809 15.998 18.365 15.979 18.1999H16.803V16.9999H15.979C15.998 16.8349 16.018 16.719 16.018 16.719C16.078 16.453 16.183 16.239 16.328 16.088Z"/>
</svg>
