<svg width="24" height="24" viewBox="0 0 24 24" xmlns="http://www.w3.org/2000/svg">
<path d="M15.2 9.60001H8.79998V11.2H15.2V9.60001Z"/>
<path d="M15.2 6.40001H8.79998V8.00001H15.2V6.40001Z"/>
<path d="M16.4 17.569L15.366 16.534L14.234 17.666L16.4 19.831L19.366 16.866L18.234 15.734L16.4 17.569Z"/>
<path d="M18.4 12.234V2.75101C18.4 2.32501 18.171 1.92701 17.802 1.71301C17.433 1.49901 16.975 1.49801 16.604 1.70901L14.799 2.74001L12.594 1.48001C12.227 1.27001 11.77 1.27001 11.403 1.48001L9.19798 2.74001L7.39298 1.70901C7.02298 1.49701 6.56398 1.49901 6.19498 1.71301C5.82598 1.92701 5.59698 2.32501 5.59698 2.75101V21.2C5.59698 21.643 5.83798 22.058 6.22498 22.283C6.59398 22.497 7.03098 22.501 7.39298 22.294L9.21498 21.111L11.409 22.3C11.591 22.401 11.793 22.452 11.996 22.452C12.199 22.452 12.401 22.401 12.583 22.3L13.256 21.935C14.221 22.725 15.454 23.199 16.796 23.199C19.884 23.199 22.396 20.687 22.396 17.599C22.396 15.067 20.706 12.923 18.396 12.233L18.4 12.234ZM12.208 14.4C11.573 15.308 11.2 16.411 11.2 17.6C11.2 18.789 11.551 19.826 12.15 20.717L12 20.798L9.78698 19.599C9.42098 19.394 8.96798 19.396 8.60298 19.605L7.19998 20.515V3.44001L8.60498 4.24301C8.97198 4.45301 9.42798 4.45301 9.79598 4.24301L12.001 2.98301L14.206 4.24301C14.573 4.45301 15.029 4.45301 15.397 4.24301L16.802 3.44001V12C15.749 12 14.763 12.293 13.921 12.8H8.80198V14.4H12.21H12.208ZM16.8 21.6C14.594 21.6 12.8 19.806 12.8 17.6C12.8 15.394 14.594 13.6 16.8 13.6C19.006 13.6 20.8 15.394 20.8 17.6C20.8 19.806 19.006 21.6 16.8 21.6Z"/>
</svg>
