<svg width="24" height="24" viewBox="0 0 24 24" xmlns="http://www.w3.org/2000/svg">
<path d="M10.5 18.3001C10.5 18.7971 10.097 19.2001 9.60002 19.2001C9.10302 19.2001 8.70002 18.7971 8.70002 18.3001C8.70002 17.8031 9.10302 17.4001 9.60002 17.4001C10.097 17.4001 10.5 17.8031 10.5 18.3001ZM12.16 10.9511C12.16 10.6441 12.104 10.3781 11.995 10.1601C11.886 9.9431 11.733 9.7581 11.54 9.6091C11.351 9.4641 11.126 9.3421 10.869 9.2471C10.617 9.1531 10.317 9.0731 10.057 9.0041L9.93302 8.9721C9.71602 8.9151 9.50102 8.8581 9.32002 8.8131C9.14002 8.7681 8.94302 8.6671 8.81702 8.5561C8.71402 8.4651 8.66402 8.3361 8.66402 8.1621C8.66402 7.9991 8.71402 7.8631 8.81802 7.7471C8.92302 7.6291 9.10102 7.5501 9.30602 7.5301C9.49602 7.5121 9.77102 7.5031 10.006 7.5681C10.219 7.6261 10.408 7.7201 10.566 7.8461C10.731 7.9781 10.891 8.1271 11.041 8.2881L11.11 8.3621L12.05 7.4601L11.984 7.3881C11.871 7.2641 11.754 7.1481 11.635 7.0411C11.514 6.9331 11.377 6.8341 11.228 6.7481C11.079 6.6621 10.908 6.5881 10.721 6.5281C10.623 6.4971 10.516 6.4691 10.401 6.4451V5.6001H8.80102V6.4321C8.66802 6.4621 8.54102 6.5001 8.42202 6.5471C8.17302 6.6451 7.95802 6.7771 7.78402 6.9391C7.60902 7.1021 7.47202 7.3001 7.37602 7.5261C7.28002 7.7511 7.23202 8.0041 7.23202 8.2761C7.23202 8.5871 7.29202 8.8551 7.41102 9.0701C7.52802 9.2841 7.68602 9.4641 7.87802 9.6061C8.06702 9.7451 8.28602 9.8611 8.53202 9.9491C8.77202 10.0351 9.02002 10.1111 9.27002 10.1731L10.001 10.3631C10.254 10.4421 10.442 10.5391 10.562 10.6521C10.673 10.7571 10.728 10.8961 10.728 11.0771C10.728 11.2781 10.673 11.4281 10.56 11.5351C10.451 11.6381 10.248 11.7191 10.018 11.7501C9.78202 11.7831 9.55002 11.7801 9.31102 11.7421C9.06902 11.7041 8.83102 11.6041 8.60202 11.4451C8.36902 11.2831 8.15802 11.0831 7.97602 10.8481L7.90602 10.7581L7.00602 11.6671L7.06302 11.7371C7.19002 11.8921 7.32802 12.0351 7.47302 12.1611C7.61902 12.2891 7.78102 12.4011 7.95502 12.4951C8.12802 12.5891 8.32302 12.6681 8.53502 12.7331C8.61902 12.7581 8.70802 12.7811 8.80102 12.8021V13.5991H10.401V12.8361C10.625 12.7971 10.827 12.7391 11.005 12.6621C11.269 12.5481 11.489 12.4031 11.66 12.2321C11.832 12.0601 11.961 11.8601 12.041 11.6381C12.12 11.4191 12.161 11.1881 12.161 10.9491L12.16 10.9511ZM23.2 17.6001C23.2 20.6881 20.688 23.2001 17.6 23.2001C16.547 23.2001 15.561 22.9071 14.719 22.4001H4.40002C3.29702 22.4001 2.40002 21.5031 2.40002 20.4001V3.6001C2.40002 2.4971 3.29702 1.6001 4.40002 1.6001H14.8C15.903 1.6001 16.8 2.4971 16.8 3.6001V12.0581C17.061 12.0201 17.328 12.0001 17.6 12.0001C20.688 12.0001 23.2 14.5121 23.2 17.6001ZM4.40002 20.8001H13.008C12.373 19.8921 12 18.7891 12 17.6001C12 15.3711 13.31 13.4421 15.2 12.5411V3.6001C15.2 3.3791 15.021 3.2001 14.8 3.2001H4.40002C4.17902 3.2001 4.00002 3.3791 4.00002 3.6001V20.4001C4.00002 20.6211 4.17902 20.8001 4.40002 20.8001ZM21.6 17.6001C21.6 15.3941 19.806 13.6001 17.6 13.6001C15.394 13.6001 13.6 15.3941 13.6 17.6001C13.6 19.8061 15.394 21.6001 17.6 21.6001C19.806 21.6001 21.6 19.8061 21.6 17.6001ZM18.234 15.0341L15.668 17.6001L18.234 20.1661L19.365 19.0351L17.931 17.6011L19.365 16.1671L18.234 15.0361V15.0341Z"/>
</svg>
