<svg width="24" height="24" viewBox="0 0 24 24" xmlns="http://www.w3.org/2000/svg">
<path d="M15.2 7.99995H8.80001V6.39995H15.2V7.99995ZM15.2 9.59995H8.80001V11.1999H15.2V9.59995ZM22.4 17.6C22.4 20.688 19.888 23.1999 16.8 23.1999C15.48 23.1999 14.267 22.74 13.309 21.974L12.596 22.382C12.412 22.4869 12.207 22.5389 12.001 22.5389C11.795 22.5389 11.589 22.4869 11.405 22.3809L9.20101 21.121L7.39601 22.152C7.02601 22.364 6.56701 22.3619 6.19801 22.1479C5.82901 21.9339 5.60001 21.536 5.60001 21.11V2.88895C5.60001 2.46295 5.82901 2.06495 6.19801 1.85095C6.56701 1.63695 7.02601 1.63595 7.39601 1.84695L9.20101 2.87795L11.406 1.61795C11.773 1.40795 12.23 1.40795 12.597 1.61795L14.801 2.87795L16.606 1.84695C16.976 1.63495 17.435 1.63695 17.804 1.85095C18.173 2.06495 18.402 2.46295 18.402 2.88895V12.2339C20.712 12.9239 22.402 15.068 22.402 17.6H22.4ZM12.188 20.771C11.566 19.8689 11.2 18.776 11.2 17.6C11.2 16.424 11.574 15.308 12.208 14.4H8.80001V12.7999H13.919C14.761 12.2929 15.747 11.9999 16.8 11.9999V3.57895L15.395 4.38195C15.028 4.59195 14.572 4.59195 14.204 4.38195L11.999 3.12195L9.79401 4.38195C9.42701 4.59195 8.97101 4.59195 8.60301 4.38195L7.19801 3.57895V20.4219L8.60301 19.6189C8.97001 19.409 9.42601 19.409 9.79401 19.6189L11.999 20.879L12.187 20.7719L12.188 20.771ZM20.8 17.6C20.8 15.394 19.006 13.5999 16.8 13.5999C14.594 13.5999 12.8 15.394 12.8 17.6C12.8 19.806 14.594 21.6 16.8 21.6C19.006 21.6 20.8 19.806 20.8 17.6ZM17.931 15.3369L16.8 16.4679L15.669 15.3369L14.538 16.4679L15.669 17.599L14.538 18.7299L15.669 19.861L16.8 18.7299L17.931 19.861L19.062 18.7299L17.931 17.599L19.062 16.4679L17.931 15.3369Z"/>
</svg>
