<svg width="24" height="24" viewBox="0 0 24 24" xmlns="http://www.w3.org/2000/svg">
<path d="M4.9001 13.5C4.9001 13.997 4.4971 14.4 4.0001 14.4C3.5031 14.4 3.1001 13.997 3.1001 13.5C3.1001 13.003 3.5031 12.6 4.0001 12.6C4.4971 12.6 4.9001 13.003 4.9001 13.5ZM4.8001 4.79995H7.2001V3.19995H3.2001V7.19995H4.8001V4.79995ZM20.8001 3.19995H16.8001V4.79995H19.2001V7.19995H20.8001V3.19995ZM7.2001 19.2H4.8001V16.8H3.2001V20.8H7.2001V19.2ZM20.8001 16.8H19.2001V19.2H16.8001V20.8H20.8001V16.8ZM14.8001 12.8C14.8001 11.256 13.5441 9.99995 12.0001 9.99995C10.4561 9.99995 9.2001 11.256 9.2001 12.8C9.2001 14.344 10.4561 15.6 12.0001 15.6C13.5441 15.6 14.8001 14.344 14.8001 12.8ZM13.2001 12.8C13.2001 13.462 12.6621 14 12.0001 14C11.3381 14 10.8001 13.462 10.8001 12.8C10.8001 12.138 11.3381 11.6 12.0001 11.6C12.6621 11.6 13.2001 12.138 13.2001 12.8ZM12.0001 5.99995C8.4051 5.99995 5.2971 8.04795 3.8561 11H5.6871C6.9891 8.96195 9.3321 7.59995 12.0001 7.59995C15.3941 7.59995 18.2601 9.80495 19.1291 12.8H20.7831C19.8841 8.91395 16.2871 5.99995 12.0001 5.99995Z"/>
</svg>
