<svg width="24" height="24" viewBox="0 0 24 24" xmlns="http://www.w3.org/2000/svg">
<path d="M4.32407 14.6259C3.84707 15.4139 3.90507 16.4319 4.47007 17.1589L4.77007 17.5449C4.91607 17.7329 5.08807 17.8919 5.27807 18.0209L4.13407 19.1649C3.90407 18.9799 3.69307 18.7659 3.50607 18.5259L3.20607 18.1399C2.23807 16.8929 2.13707 15.1469 2.95507 13.7959L4.77307 10.7949L2.68007 11.2779L2.32007 9.7189L6.99507 8.6399L8.07807 13.2139L6.52107 13.5829L6.08107 11.7239L4.32407 14.6259ZM13.8851 5.0659L16.3701 9.1679L14.4841 8.7209L14.1151 10.2779L18.6741 11.3579L19.8731 6.8029L18.3261 6.3959L17.7921 8.4269L15.2541 4.2369C14.5681 3.1039 13.3211 2.3999 12.0001 2.3999C10.6791 2.3999 9.43307 3.1039 8.74607 4.2369L7.23407 6.7339L8.39907 7.8989L10.1151 5.0659C10.5131 4.4079 11.2361 3.9999 12.0001 3.9999C12.7641 3.9999 13.4871 4.4089 13.8851 5.0659ZM21.0451 13.7969L20.1441 12.3099L19.5841 14.4739L19.6761 14.6259C20.1531 15.4139 20.0951 16.4319 19.5301 17.1589L19.2301 17.5459C18.8091 18.0889 18.1751 18.3999 17.4911 18.3999H13.9311L15.3651 16.9659L14.2341 15.8349L10.8681 19.2009L14.2341 22.5669L15.3651 21.4359L13.9311 20.0019H17.4911C18.6731 20.0019 19.7671 19.4649 20.4941 18.5289L20.7941 18.1419C21.7621 16.8949 21.8631 15.1489 21.0451 13.7969ZM7.50007 18.2999C7.00307 18.2999 6.60007 18.7029 6.60007 19.1999C6.60007 19.6969 7.00307 20.0999 7.50007 20.0999C7.99707 20.0999 8.40007 19.6969 8.40007 19.1999C8.40007 18.7029 7.99707 18.2999 7.50007 18.2999Z"/>
</svg>
