<svg width="24" height="24" viewBox="0 0 24 24" xmlns="http://www.w3.org/2000/svg">
<path d="M16.8 7.2001H7.2V5.6001H16.8V7.2001ZM7.2 10.4001H12V8.8001H7.2V10.4001ZM9.7 20.7001C9.203 20.7001 8.8 21.1031 8.8 21.6001C8.8 22.0971 9.203 22.5001 9.7 22.5001C10.197 22.5001 10.6 22.0971 10.6 21.6001C10.6 21.1031 10.197 20.7001 9.7 20.7001ZM22.4 17.6001C22.4 20.6881 19.888 23.2001 16.8 23.2001C13.712 23.2001 11.2 20.6881 11.2 17.6001C11.2 14.5121 13.712 12.0001 16.8 12.0001C17.356 12.0001 17.893 12.0831 18.4 12.2341V3.2001H5.6V20.8001H7.2V22.4001H4V1.6001H20V13.0081C21.449 14.0211 22.4 15.7011 22.4 17.6001ZM20.8 17.6001C20.8 15.3941 19.006 13.6001 16.8 13.6001C14.594 13.6001 12.8 15.3941 12.8 17.6001C12.8 19.8061 14.594 21.6001 16.8 21.6001C19.006 21.6001 20.8 19.8061 20.8 17.6001ZM18.687 17.9291C18.601 17.7611 18.479 17.6181 18.326 17.5031C18.18 17.3931 18.006 17.3021 17.809 17.2311C17.622 17.1631 17.403 17.1051 17.212 17.0571L17.13 17.0361C16.972 16.9951 16.814 16.9551 16.682 16.9231C16.557 16.8921 16.439 16.8251 16.377 16.7721C16.36 16.7571 16.307 16.7121 16.307 16.5781C16.307 16.4911 16.334 16.4191 16.388 16.3591C16.441 16.3011 16.539 16.2601 16.65 16.2491C16.826 16.2321 16.986 16.2401 17.101 16.2711C17.238 16.3081 17.354 16.3641 17.454 16.4421C17.568 16.5311 17.678 16.6311 17.782 16.7391L17.926 16.8891L18.78 16.0891L18.66 15.9601C18.577 15.8711 18.489 15.7861 18.401 15.7081C18.307 15.6261 18.202 15.5521 18.087 15.4881C17.972 15.4231 17.84 15.3681 17.696 15.3231C17.606 15.2951 17.519 15.2741 17.4 15.2511V14.6001H16.2V15.2641C16.114 15.2851 16.024 15.3111 15.95 15.3391C15.755 15.4141 15.587 15.5151 15.45 15.6391C15.312 15.7651 15.204 15.9161 15.129 16.0891C15.055 16.2601 15.017 16.4511 15.017 16.6561C15.017 16.8921 15.065 17.0971 15.159 17.2641C15.252 17.4291 15.376 17.5681 15.529 17.6781C15.675 17.7831 15.844 17.8701 16.033 17.9361C16.209 17.9981 16.393 18.0521 16.576 18.0971L17.099 18.2301C17.258 18.2791 17.375 18.3371 17.446 18.4021C17.501 18.4531 17.528 18.5241 17.528 18.6201C17.528 18.7301 17.5 18.8091 17.443 18.8611C17.385 18.9151 17.264 18.9591 17.128 18.9781C16.972 18.9991 16.82 18.9971 16.662 18.9731C16.509 18.9491 16.357 18.8871 16.21 18.7871C16.053 18.6811 15.911 18.5491 15.788 18.3941L15.643 18.2131L14.816 19.0281L14.921 19.1521C15.017 19.2661 15.121 19.3711 15.229 19.4631C15.341 19.5591 15.465 19.6431 15.599 19.7131C15.731 19.7831 15.88 19.8421 16.041 19.8901C16.089 19.9041 16.144 19.9171 16.199 19.9301V20.6011H17.399V19.9731C17.562 19.9441 17.763 19.8981 17.912 19.8351C18.117 19.7481 18.289 19.6381 18.423 19.5071C18.559 19.3741 18.66 19.2201 18.724 19.0501C18.785 18.8851 18.817 18.7111 18.817 18.5311C18.817 18.2991 18.773 18.0971 18.687 17.9291Z"/>
</svg>
