<svg width="24" height="24" viewBox="0 0 24 24" xmlns="http://www.w3.org/2000/svg">
<path d="M15.34 6.1989L15.969 3.9179C16.081 3.5289 16.018 3.1359 15.795 2.8389C15.587 2.5599 15.26 2.3999 14.899 2.3999H9.09901C8.73801 2.3999 8.41201 2.5599 8.20301 2.8389C7.98001 3.1369 7.91701 3.5299 8.02901 3.9179L8.89601 7.0599L9.09501 7.2209C9.89501 7.8709 10.872 8.1999 12 8.1999C12.903 8.1999 13.71 7.9879 14.406 7.5699C17.196 8.4519 19.2 10.8209 19.2 13.5999C19.2 17.1289 15.97 19.9999 12 19.9999C8.03001 19.9999 4.80001 17.1289 4.80001 13.5999C4.80001 12.6029 5.05801 11.6589 5.51701 10.8169L4.35001 9.6499C3.61901 10.8159 3.20001 12.1639 3.20001 13.5999C3.20001 18.0109 7.14801 21.5999 12 21.5999C16.852 21.5999 20.8 18.0109 20.8 13.5999C20.8 10.2629 18.541 7.3979 15.34 6.1989ZM10.298 6.1219L9.71301 3.9999H14.288L13.703 6.1219C13.231 6.4389 12.659 6.5999 12.001 6.5999C11.343 6.5999 10.771 6.4389 10.298 6.1219ZM5.70001 8.2999C5.70001 7.8029 6.10301 7.3999 6.60001 7.3999C7.09701 7.3999 7.50001 7.8029 7.50001 8.2999C7.50001 8.7969 7.09701 9.1999 6.60001 9.1999C6.10301 9.1999 5.70001 8.7969 5.70001 8.2999ZM11.2 17.9999V12.8309L9.36601 14.6649L8.23501 13.5339L12.001 9.7679L15.767 13.5339L14.636 14.6649L12.802 12.8309V17.9999H11.2Z"/>
</svg>
