<svg width="24" height="24" viewBox="0 0 24 24" xmlns="http://www.w3.org/2000/svg">
<path d="M18.8 1.6001C18.542 1.6001 18.275 1.6871 18.097 1.7591C17.346 2.0661 13.6 3.8081 13.6 8.0001V17.6001H18.4V22.4001H20V2.8001C20 2.1381 19.462 1.6001 18.8 1.6001ZM18.4 16.0001H15.2V8.0001C15.2 5.2121 17.459 3.8311 18.4 3.3761V16.0001Z"/>
<path d="M10.4 7.8001C10.4 8.2971 10.11 8.7511 9.633 8.9891L8.8 9.4191V2.4001H7.2V9.4191L6.358 8.9851C5.891 8.7511 5.6 8.2971 5.6 7.8011V2.4001H4V7.8001C4 8.9071 4.629 9.9091 5.633 10.4111L7.2 11.2191V19.2001H8.8V11.2191L10.358 10.4161C11.371 9.9101 12 8.9071 12 7.8001V2.4001H10.4V7.8001Z"/>
<path d="M8 22.6001C8.49706 22.6001 8.9 22.1972 8.9 21.7001C8.9 21.203 8.49706 20.8001 8 20.8001C7.50294 20.8001 7.1 21.203 7.1 21.7001C7.1 22.1972 7.50294 22.6001 8 22.6001Z"/>
</svg>
