<svg width="24" height="24" viewBox="0 0 24 24" xmlns="http://www.w3.org/2000/svg">
<path d="M21.5999 11.9999C21.5999 6.7069 17.2929 2.3999 11.9999 2.3999C6.7069 2.3999 2.3999 6.7069 2.3999 11.9999V14.4169H6.3999V17.3999H7.9999V9.5999H6.3999V12.8169H3.9999V11.9999C3.9999 9.0409 5.6159 6.4539 8.0099 5.0699C8.1499 7.1499 9.8849 8.7999 11.9999 8.7999C14.1149 8.7999 15.8499 7.1499 15.9899 5.0699C18.3839 6.4539 19.9999 9.0409 19.9999 11.9999V12.8169H17.5999V9.5999H15.9999V19.1999H9.7999V20.7999H17.5999V14.4169H21.5999V11.9999ZM14.3999 4.7999C14.3999 6.1229 13.3229 7.1999 11.9999 7.1999C10.6769 7.1999 9.5999 6.1229 9.5999 4.7999C9.5999 4.6489 9.6149 4.5009 9.6419 4.3549C10.3879 4.1249 11.1789 3.9999 11.9999 3.9999C12.8209 3.9999 13.6119 4.1249 14.3579 4.3549C14.3849 4.5009 14.3999 4.6489 14.3999 4.7999ZM8.0999 19.9999C8.0999 20.4969 7.6969 20.8999 7.1999 20.8999C6.7029 20.8999 6.2999 20.4969 6.2999 19.9999C6.2999 19.5029 6.7029 19.0999 7.1999 19.0999C7.6969 19.0999 8.0999 19.5029 8.0999 19.9999Z"/>
</svg>
