<svg width="24" height="24" viewBox="0 0 24 24" xmlns="http://www.w3.org/2000/svg">
<path d="M15.0039 4.79999L15.9489 2.28099L14.4509 1.71899L13.2959 4.79999H6.3999V19.2C6.3999 20.965 7.8359 22.4 9.5999 22.4H14.3999C16.1639 22.4 17.5999 20.965 17.5999 19.2V4.79999H15.0039ZM15.9999 6.39999V9.74299C15.1149 9.30999 14.1409 9.23099 13.2459 9.48999L14.4049 6.39999H15.9999ZM12.6959 6.39999L10.9369 11.09C10.1189 11.685 9.0979 11.744 8.3229 11.191L8.0009 10.869V6.39999H12.6969H12.6959ZM14.3999 20.8H9.5999C8.7179 20.8 7.9999 20.082 7.9999 19.2V12.847C8.4869 13.072 9.0059 13.183 9.5269 13.183C10.6319 13.183 11.7499 12.686 12.5979 11.731C13.4249 10.8 14.7079 10.68 15.7189 11.44L15.9989 11.628V19.201C15.9989 20.083 15.2809 20.801 14.3989 20.801L14.3999 20.8Z"/>
</svg>
