<svg width="24" height="24" viewBox="0 0 24 24" xmlns="http://www.w3.org/2000/svg">
<path d="M21.6 11.9999C21.6 17.2929 17.293 21.5999 12 21.5999C8.188 21.5999 4.734 19.3199 3.212 15.8659C3.191 15.8199 3.171 15.7709 3.151 15.7229C3.134 15.6829 3.117 15.6429 3.1 15.6019C3.079 15.5499 3.06 15.4979 3.04 15.4459C3.019 15.3909 2.997 15.3369 2.976 15.2809C2.907 15.0899 2.845 14.8959 2.787 14.6999H4.47C4.484 14.7389 4.498 14.7789 4.512 14.8189C5.681 17.9209 8.677 19.9999 12 19.9999C16.411 19.9999 20 16.4109 20 11.9999C20 7.5889 16.411 3.9999 12 3.9999C9.447 3.9999 7.095 5.1999 5.598 7.1999H8V8.7999H3.2V3.9999H4.8V5.6459C6.598 3.6039 9.198 2.3999 12 2.3999C17.293 2.3999 21.6 6.7069 21.6 11.9999ZM4.1 11.9999C4.1 11.5029 3.697 11.0999 3.2 11.0999C2.703 11.0999 2.3 11.5029 2.3 11.9999C2.3 12.4969 2.703 12.8999 3.2 12.8999C3.697 12.8999 4.1 12.4969 4.1 11.9999Z"/>
</svg>
