<svg width="24" height="24" viewBox="0 0 24 24" xmlns="http://www.w3.org/2000/svg">
<path d="M22.3658 13.966L17.5998 18.732L12.8338 13.966L13.9648 12.835L16.7988 15.669V7.20005C16.7988 6.75905 16.4398 6.40005 15.9988 6.40005H10.3988L8.79881 4.80005H15.9988C17.3218 4.80005 18.3988 5.87705 18.3988 7.20005V15.669L21.2328 12.835L22.3638 13.966H22.3658ZM13.5998 17.6H7.99981C7.55881 17.6 7.19981 17.241 7.19981 16.8V8.33105L10.0338 11.165L11.1648 10.034L6.39881 5.26805L1.63281 10.034L2.76381 11.165L5.59781 8.33105V16.8C5.59781 18.123 6.67481 19.2 7.99781 19.2H15.1978L13.5978 17.6H13.5998Z"/>
</svg>
