<svg width="24" height="24" viewBox="0 0 24 24" xmlns="http://www.w3.org/2000/svg">
<path d="M12.9001 16.1C12.9001 16.597 12.4972 17 12.0001 17C11.503 17 11.1001 16.597 11.1001 16.1C11.1001 15.6029 11.503 15.2 12.0001 15.2C12.4972 15.2 12.9001 15.6029 12.9001 16.1Z"/>
<path fill-rule="evenodd" clip-rule="evenodd" d="M17.4622 6.39995H20.8002V11.2H20.0002V20.8H4.0002V11.2H3.2002V6.39995H6.5382C6.44919 6.14995 6.4002 5.87995 6.4002 5.59995C6.4002 4.27695 7.4772 3.19995 8.8002 3.19995H10.4002C11.0142 3.19995 11.5752 3.43195 12.0002 3.81295C12.4252 3.43195 12.9862 3.19995 13.6002 3.19995H15.2002C16.5232 3.19995 17.6002 4.27695 17.6002 5.59995C17.6002 5.87995 17.5512 6.14995 17.4622 6.39995ZM12.8002 7.99995V9.59995H19.2002V7.99995H12.8002ZM15.2002 4.79995H13.6002C13.1592 4.79995 12.8002 5.15895 12.8002 5.59995V6.39995H15.2002C15.6412 6.39995 16.0002 6.04095 16.0002 5.59995C16.0002 5.15895 15.6412 4.79995 15.2002 4.79995ZM8.8002 4.79995C8.3592 4.79995 8.0002 5.15895 8.0002 5.59995C8.0002 6.04095 8.3592 6.39995 8.8002 6.39995H11.2002V5.59995C11.2002 5.15895 10.8412 4.79995 10.4002 4.79995H8.8002ZM11.2002 7.99995H4.8002V9.59995H11.2002V7.99995ZM5.6002 11.2V19.2H18.4002V11.2H12.8002V13.611H11.2002V11.2H5.6002Z"/>
</svg>
