<svg width="24" height="24" viewBox="0 0 24 24" xmlns="http://www.w3.org/2000/svg">
<path d="M19.2 12.541V5.19995C19.2 4.09695 18.303 3.19995 17.2 3.19995H4.40001C3.29701 3.19995 2.40001 4.09695 2.40001 5.19995V15.2H11.741C11.504 15.698 11.339 16.235 11.258 16.8H1.60001V18.4H11.258C11.647 21.11 13.984 23.2 16.8 23.2C19.888 23.2 22.4 20.688 22.4 17.6C22.4 15.371 21.09 13.442 19.2 12.541ZM4.40001 4.79995H17.2C17.421 4.79995 17.6 4.97895 17.6 5.19995V12.058C17.339 12.02 17.072 12 16.8 12C15.278 12 13.897 12.611 12.886 13.6H5.13101L9.10001 9.63095L11.5 12.031L14.4 9.13095V10.4H16V6.39995H12V7.99995H13.269L11.5 9.76895L9.10001 7.36895L4.00001 12.469V5.19995C4.00001 4.97895 4.17901 4.79995 4.40001 4.79995ZM16.8 21.6C14.594 21.6 12.8 19.806 12.8 17.6C12.8 15.394 14.594 13.6 16.8 13.6C19.006 13.6 20.8 15.394 20.8 17.6C20.8 19.806 19.006 21.6 16.8 21.6ZM18.234 15.934L19.365 17.065L16.399 20.031L14.233 17.865L15.364 16.734L16.398 17.768L18.232 15.934H18.234Z"/>
</svg>
