<svg width="24" height="24" viewBox="0 0 24 24" xmlns="http://www.w3.org/2000/svg">
<path d="M11.6 12.3311L9.034 9.76512L10.165 8.63412L11.599 10.0681L14.633 7.03412L15.764 8.16512L11.598 12.3311H11.6ZM12 1.60012C7.589 1.60012 4 5.18912 4 9.60012C4 11.6531 4.616 13.4881 5.782 14.9091L7.669 17.2011L8.806 16.0641L7.018 13.8931C6.09 12.7631 5.6 11.2791 5.6 9.60112C5.6 6.07212 8.471 3.20112 12 3.20112C15.529 3.20112 18.4 6.07212 18.4 9.60112C18.4 11.2791 17.91 12.7631 16.982 13.8921L12.844 18.9161L10.986 21.2281L11.073 21.3331C11.302 21.6111 11.639 21.7701 11.999 21.7701C12.359 21.7701 12.697 21.6111 12.925 21.3331L18.217 14.9071C19.383 13.4881 19.999 11.6521 19.999 9.59912C19.999 5.18812 16.41 1.59912 11.999 1.59912L12 1.60012ZM9.9 17.6001C9.403 17.6001 9 18.0031 9 18.5001C9 18.9971 9.403 19.4001 9.9 19.4001C10.397 19.4001 10.8 18.9971 10.8 18.5001C10.8 18.0031 10.397 17.6001 9.9 17.6001Z"/>
</svg>
