<svg width="24" height="24" viewBox="0 0 24 24" xmlns="http://www.w3.org/2000/svg">
<path d="M18.788 5.21204C15.045 1.46904 8.95504 1.46904 5.21204 5.21204C1.46904 8.95504 1.46904 15.045 5.21204 18.788C7.08403 20.66 9.54204 21.595 12 21.595C14.458 21.595 16.917 20.659 18.788 18.788C22.531 15.045 22.531 8.95504 18.788 5.21204ZM17.657 17.657C14.538 20.776 9.46204 20.776 6.34304 17.657C3.22404 14.538 3.22404 9.46204 6.34304 6.34304C7.90304 4.78304 9.95104 4.00404 12 4.00404C14.049 4.00404 16.097 4.78404 17.657 6.34304C20.776 9.46204 20.776 14.538 17.657 17.657ZM16.034 8.23404L17.165 9.36504L10.999 15.531L7.23304 11.765L8.36404 10.634L10.998 13.268L16.032 8.23404H16.034Z"/>
</svg>
