<svg width="24" height="24" viewBox="0 0 24 24" xmlns="http://www.w3.org/2000/svg">
<path d="M7.3001 15.2C7.3001 15.697 6.8971 16.1 6.4001 16.1C5.9031 16.1 5.5001 15.697 5.5001 15.2C5.5001 14.703 5.9031 14.3 6.4001 14.3C6.8971 14.3 7.3001 14.703 7.3001 15.2ZM23.2001 16.4C23.2001 18.02 22.4811 19.551 21.2261 20.603L19.5631 22.114C19.3361 22.304 19.0791 22.4 18.8011 22.4C18.5231 22.4 18.2631 22.301 18.0391 22.114L18.0131 22.092L16.3751 20.603C15.8931 20.199 15.4911 19.723 15.1771 19.2H3.2881C2.7731 19.2 2.3041 18.962 1.9991 18.548C1.6941 18.133 1.6071 17.614 1.7611 17.123L2.4001 15.078V13.711C2.4001 9.49595 5.0891 5.88595 8.8211 4.55195C8.9411 3.78695 9.6021 3.19995 10.4001 3.19995H13.6001C14.3931 3.19995 15.0511 3.77995 15.1771 4.53795C16.5091 5.00295 17.7321 5.76195 18.7631 6.78595C20.0101 8.02395 20.8731 9.54195 21.2981 11.199H23.2001V16.4ZM18.4001 8.79795V11.2H19.6351C19.3651 10.338 18.9501 9.52695 18.4001 8.79795ZM14.5341 17.6C14.4461 17.21 14.4001 16.808 14.4001 16.4V16H8.9001V14.4H14.4001V11.2H16.8001V7.19995C16.3011 6.82495 15.7651 6.51195 15.1991 6.26495V9.59995H13.5991V4.79995H10.3991V9.59995H8.7991V6.28195C8.2281 6.53695 7.6921 6.85695 7.1991 7.23395V12.001H5.5991V8.85895C4.5951 10.215 3.9991 11.896 3.9991 13.712V15.324L3.2871 17.602H14.5331L14.5341 17.6ZM21.6001 12.8H16.0001V16.4C16.0001 17.549 16.5151 18.638 17.4121 19.385L17.4381 19.408L18.8001 20.646L20.1881 19.385C21.0851 18.637 21.6001 17.549 21.6001 16.4V12.8Z"/>
</svg>
