<svg width="24" height="24" viewBox="0 0 24 24" xmlns="http://www.w3.org/2000/svg">
<path d="M16 4.80003V2.86603C16 2.51503 15.847 2.18303 15.581 1.95503C15.315 1.72703 14.964 1.62603 14.617 1.68003L5.01702 3.15703C4.42702 3.24803 3.99902 3.74603 3.99902 4.34303V19.657C3.99902 20.254 4.42702 20.752 5.01702 20.843L14.617 22.32C14.678 22.329 14.739 22.334 14.8 22.334C15.085 22.334 15.362 22.233 15.581 22.045C15.847 21.817 16 21.485 16 21.134V6.40003H18.4V20.799H20V4.80003H16ZM14.4 20.667L5.60002 19.313V4.68603L14.4 3.33203V20.667ZM11 12C11 11.503 11.403 11.1 11.9 11.1C12.397 11.1 12.8 11.503 12.8 12C12.8 12.497 12.397 12.9 11.9 12.9C11.403 12.9 11 12.497 11 12Z"/>
</svg>
