<svg width="24" height="24" viewBox="0 0 24 24" xmlns="http://www.w3.org/2000/svg">
<path d="M9.0361 14.9641C9.3871 15.3151 9.3871 15.8851 9.0361 16.2371C8.6851 16.5881 8.1151 16.5881 7.7631 16.2371C7.4121 15.8861 7.4121 15.3161 7.7631 14.9641C8.1141 14.6131 8.6841 14.6131 9.0361 14.9641ZM21.8541 8.67308L15.3271 2.14608C14.6001 1.41908 13.4171 1.41908 12.6891 2.14608L11.0171 3.81808L12.1481 4.94908L13.8201 3.27708C13.8721 3.22508 13.9401 3.19908 14.0071 3.19908C14.0741 3.19908 14.1431 3.22508 14.1941 3.27608L20.7211 9.80308C20.8241 9.90608 20.8241 10.0751 20.7211 10.1781L10.1781 20.7211C10.0751 20.8241 9.9071 20.8241 9.8031 20.7211L3.2761 14.1941C3.1731 14.0911 3.1731 13.9221 3.2761 13.8191L8.2981 8.79708L7.1671 7.66608L2.1451 12.6881C1.4181 13.4151 1.4181 14.5981 2.1451 15.3261L8.6721 21.8531C9.0361 22.2171 9.5131 22.3981 9.9911 22.3981C10.4691 22.3981 10.9461 22.2161 11.3101 21.8531L21.8531 11.3101C22.5801 10.5831 22.5801 9.40008 21.8531 8.67208L21.8541 8.67308ZM6.5501 5.75008C9.1141 5.75008 11.2001 7.83608 11.2001 10.4001V11.4831L9.7371 10.0201L8.6061 11.1511L12.0001 14.5451L15.3941 11.1511L14.2631 10.0201L12.8001 11.4831V10.4001C12.8001 6.95408 9.9961 4.15008 6.5501 4.15008C4.8931 4.15008 3.2431 4.87708 2.0231 6.14508L3.1761 7.25408C4.0961 6.29808 5.3261 5.74908 6.5491 5.74908L6.5501 5.75008Z"/>
</svg>
