<svg width="24" height="24" viewBox="0 0 24 24" xmlns="http://www.w3.org/2000/svg">
<path d="M4.6998 19.1C4.1998 19.1 3.7998 19.5 3.7998 20C3.7998 20.5 4.1998 20.9 4.6998 20.9C5.1998 20.9 5.5998 20.5 5.5998 20C5.5998 19.5 5.1998 19.1 4.6998 19.1ZM22.3998 18.23C22.3998 19.65 21.2498 20.8 19.8298 20.8H7.1998V19.2H13.2698L4.9198 10.85C3.7898 9.71996 3.7298 7.89996 4.7898 6.69996L8.0598 2.96996C8.4398 2.52996 9.0198 2.29996 9.6098 2.37996C10.1998 2.44996 10.7098 2.80996 10.9698 3.33996C11.1298 3.64996 11.2098 3.99996 11.2098 4.33996V5.38996C11.5898 6.00996 12.2598 6.38996 12.9998 6.38996H14.9498L17.8198 13.56C17.9998 13.87 19.1798 14.67 20.3698 15.28C20.4498 15.32 22.4098 16.33 22.4098 18.22L22.3998 18.23ZM20.7998 18.23C20.7998 17.34 19.6498 16.72 19.6398 16.72C18.7798 16.28 16.7198 15.15 16.3298 14.18L16.0498 13.47L14.8498 14.27L13.9598 12.94L15.4398 11.95L14.9498 10.73L13.2398 11.87L12.3498 10.54L14.3398 9.21996L13.8598 8.00996H12.9898C11.5798 8.00996 10.3098 7.22996 9.6898 5.96996L9.6098 5.79996V4.34996C9.6098 4.24996 9.5898 4.14996 9.5398 4.05996C9.5098 3.98996 9.4498 3.97996 9.4098 3.96996C9.3698 3.96996 9.3098 3.96996 9.2598 4.02996L5.9798 7.75996C5.4798 8.32996 5.5098 9.18996 6.0398 9.71996L15.5198 19.2H19.8098C20.3498 19.2 20.7798 18.76 20.7798 18.23H20.7998Z"/>
</svg>
