<svg width="24" height="24" viewBox="0 0 24 24" xmlns="http://www.w3.org/2000/svg">
<path d="M20.561 2.22998H13.727C13.406 2.22998 13.105 2.35498 12.879 2.58098L2.22998 13.23L10.761 21.761L21.41 11.112C21.637 10.885 21.761 10.584 21.761 10.264V3.42998C21.761 2.76798 21.223 2.22998 20.561 2.22998ZM20.161 10.099L10.761 19.499L4.49198 13.23L5.61098 12.111L8.29498 14.795L9.42598 13.664L6.74198 10.98L13.892 3.82998H20.161V10.099Z"/>
<path d="M16.161 10.23C17.484 10.23 18.561 9.15298 18.561 7.82998C18.561 6.50698 17.484 5.42998 16.161 5.42998C14.838 5.42998 13.761 6.50698 13.761 7.82998C13.761 9.15298 14.838 10.23 16.161 10.23ZM16.161 7.02998C16.602 7.02998 16.961 7.38898 16.961 7.82998C16.961 8.27098 16.602 8.62998 16.161 8.62998C15.72 8.62998 15.361 8.27098 15.361 7.82998C15.361 7.38898 15.72 7.02998 16.161 7.02998Z"/>
<path d="M10.761 16.93C11.258 16.93 11.661 16.527 11.661 16.03C11.661 15.5329 11.258 15.13 10.761 15.13C10.2639 15.13 9.86098 15.5329 9.86098 16.03C9.86098 16.527 10.2639 16.93 10.761 16.93Z"/>
</svg>
