<svg width="24" height="24" viewBox="0 0 24 24" xmlns="http://www.w3.org/2000/svg">
<path d="M12 21.596C9.54202 21.596 7.08302 20.66 5.21202 18.789C3.39902 16.976 2.40002 14.565 2.40002 12.001C2.40002 9.43701 3.39902 7.02601 5.21202 5.21301C8.95502 1.47001 15.045 1.47001 18.789 5.21301C20.602 7.02601 21.601 9.43701 21.601 12.001C21.601 14.565 20.602 16.976 18.789 18.789C16.917 20.661 14.459 21.596 12.001 21.596H12ZM12 4.00401C9.95103 4.00401 7.90302 4.78401 6.34302 6.34301C4.83202 7.85401 4.00002 9.86301 4.00002 12C4.00002 14.137 4.83202 16.146 6.34302 17.657C9.46202 20.776 14.538 20.776 17.657 17.657C19.168 16.146 20 14.137 20 12C20 9.86301 19.168 7.85401 17.657 6.34301C16.097 4.78301 14.049 4.00401 12 4.00401ZM8.96402 8.96401C8.61302 9.31501 8.61302 9.88501 8.96402 10.237C9.31502 10.589 9.88503 10.588 10.237 10.237C10.589 9.88601 10.588 9.31601 10.237 8.96401C9.88602 8.61301 9.31602 8.61301 8.96402 8.96401ZM13.764 13.764C13.413 14.115 13.413 14.685 13.764 15.037C14.115 15.388 14.685 15.388 15.037 15.037C15.389 14.686 15.388 14.116 15.037 13.764C14.686 13.413 14.116 13.413 13.764 13.764ZM16.166 8.96601L15.035 7.83501L7.83502 15.035L8.96602 16.166L16.166 8.96601Z"/>
</svg>
