<svg width="24" height="24" viewBox="0 0 24 24" xmlns="http://www.w3.org/2000/svg">
<path d="M20.331 7.99995L16 3.66895C15.698 3.36695 15.296 3.19995 14.869 3.19995H4.79995C3.91795 3.19995 3.19995 3.91795 3.19995 4.79995V19.2C3.19995 20.082 3.91795 20.8 4.79995 20.8H19.2C20.082 20.8 20.8 20.082 20.8 19.2V9.13095C20.8 8.70395 20.634 8.30195 20.331 7.99995ZM19.2 19.2H4.79995V4.79995H14.869L19.2 9.13095V19.2ZM14.634 9.53395L15.765 10.665L11.999 14.431L8.23295 10.665L9.36395 9.53395L11.198 11.368V6.39895H12.798V11.368L14.632 9.53395H14.634ZM7.99995 16H16V17.6H7.99995V16Z"/>
</svg>
