<svg width="24" height="24" viewBox="0 0 24 24" xmlns="http://www.w3.org/2000/svg">
<path d="M5 20C5 20.552 4.552 21 4 21C3.448 21 3 20.552 3 20C3 19.448 3.448 19 4 19C4.552 19 5 19.448 5 20ZM23.2 16.8C23.2 19.888 20.688 22.4 17.6 22.4C16.078 22.4 14.697 21.789 13.686 20.8H6.6V19.2H12.541C12.194 18.472 12 17.658 12 16.8C12 13.712 14.512 11.2 17.6 11.2C18.156 11.2 18.693 11.283 19.2 11.434V4.83095L11.5 12.531L8.8 9.83095L5.249 13.382C5.019 13.612 4.713 13.734 4.402 13.734C4.247 13.734 4.091 13.704 3.942 13.642C3.492 13.456 3.201 13.02 3.201 12.533V3.19995H20.801V12.208C22.25 13.221 23.2 14.901 23.2 16.8ZM11.5 10.269L16.969 4.79995H4.8V11.569L8.8 7.56895L11.5 10.269ZM21.6 16.8C21.6 14.594 19.806 12.8 17.6 12.8C15.394 12.8 13.6 14.594 13.6 16.8C13.6 19.006 15.394 20.8 17.6 20.8C19.806 20.8 21.6 19.006 21.6 16.8ZM15.834 15.366L17.268 16.8L15.834 18.234L16.965 19.365L19.531 16.799L16.965 14.233L15.834 15.364V15.366Z"/>
</svg>
