<svg width="24" height="24" viewBox="0 0 24 24" xmlns="http://www.w3.org/2000/svg">
<path d="M8.9001 9.59995C8.9001 10.097 8.49715 10.5 8.0001 10.5C7.50304 10.5 7.1001 10.097 7.1001 9.59995C7.1001 9.10289 7.50304 8.69995 8.0001 8.69995C8.49715 8.69995 8.9001 9.10289 8.9001 9.59995Z"/>
<path fill-rule="evenodd" clip-rule="evenodd" d="M20.7601 11.1999H22.4001V12.7999H20.7591C20.5371 15.0219 19.3981 17.0509 17.6001 18.3999V21.5999H12.8001V19.9999H11.2001V21.5999H6.4001V18.3989C5.2991 17.5709 4.4201 16.4589 3.8681 15.1999H3.6001C2.4971 15.1999 1.6001 14.3029 1.6001 13.1999V10.7999C1.6001 9.6969 2.4971 8.7999 3.6001 8.7999H3.8671C5.1301 5.9069 8.0081 3.9999 11.2001 3.9999H12.0021C12.7331 3.0289 13.8941 2.3999 15.2001 2.3999C17.4061 2.3999 19.2001 4.1939 19.2001 6.3999C19.2001 6.6459 19.1771 6.8879 19.1341 7.1219C20.0241 8.2749 20.6081 9.6739 20.7601 11.1999ZM17.6001 6.3999C17.6001 5.0769 16.5231 3.9999 15.2001 3.9999C13.8771 3.9999 12.8001 5.0769 12.8001 6.3999C12.8001 6.6819 12.8491 6.9529 12.9391 7.2039C14.1991 7.2399 15.3391 7.7629 16.1761 8.5919C17.0141 8.2169 17.6001 7.3759 17.6001 6.3999ZM16.0001 17.5599L16.3551 17.3219C18.1361 16.1289 19.2001 14.1399 19.2001 11.9999C19.2001 10.8529 18.8951 9.7759 18.3641 8.8439C18.0271 9.2789 17.6041 9.6429 17.1191 9.9089C17.4221 10.5319 17.5941 11.2309 17.5991 11.9679L15.9991 11.9769C15.9871 10.2229 14.5571 8.7999 12.8001 8.7999H11.2001C11.0561 8.7999 10.9141 8.8099 10.7751 8.8289L9.4701 7.5239C10.0071 7.3159 10.5901 7.1999 11.2001 7.1999H11.2811C11.2291 6.9409 11.2001 6.6739 11.2001 6.3999C11.2001 6.1259 11.2271 5.8589 11.2801 5.5999H11.2001C8.4931 5.5999 6.0681 7.3149 5.1661 9.8669L4.9771 10.3999H3.6001C3.3791 10.3999 3.2001 10.5789 3.2001 10.7999V13.1999C3.2001 13.4209 3.3791 13.5999 3.6001 13.5999H4.9771L5.1661 14.1329C5.6221 15.4249 6.5031 16.5569 7.6451 17.3219L8.0001 17.5599V19.9999H9.6001V18.2609L10.4881 18.3589C10.7311 18.3849 10.9701 18.3989 11.2001 18.3989H12.8001C13.0301 18.3989 13.2691 18.3859 13.5121 18.3589L14.4001 18.2609V19.9999H16.0001V17.5599Z"/>
</svg>
