<svg width="24" height="24" viewBox="0 0 24 24" xmlns="http://www.w3.org/2000/svg">
<path d="M19.249 3.95809L12.381 1.66209C12.135 1.58009 11.865 1.58009 11.62 1.66209L4.75198 3.95809C4.30298 4.10809 4.00098 4.52809 4.00098 5.00109V10.4021C4.00098 13.0621 4.71298 15.5731 6.05898 17.6651C7.36698 19.6981 9.24098 21.2941 11.478 22.2811C11.644 22.3541 11.822 22.3911 12 22.3911C12.178 22.3911 12.356 22.3541 12.522 22.2811C14.759 21.2941 16.633 19.6981 17.941 17.6651C19.288 15.5731 19.999 13.0611 19.999 10.4021V5.00109C19.999 4.52709 19.697 4.10809 19.248 3.95809H19.249ZM18.4 10.4021C18.4 12.7541 17.776 14.9661 16.596 16.7991C15.482 18.5301 13.895 19.8981 12 20.7621C10.105 19.8981 8.51798 18.5301 7.40398 16.7991C6.22398 14.9661 5.59998 12.7541 5.59998 10.4021V5.36109L12 3.22109L18.4 5.36109V10.4021ZM12 9.86909L14.634 7.23509L15.765 8.36609L13.131 11.0001L15.765 13.6341L14.634 14.7651L12 12.1311L9.36598 14.7651L8.23498 13.6341L10.869 11.0001L8.23498 8.36609L9.36598 7.23509L12 9.86909Z"/>
</svg>
