<svg width="24" height="24" viewBox="0 0 24 24" xmlns="http://www.w3.org/2000/svg">
<path d="M16.5309 11.9999L21.0819 7.44892C21.3089 7.22192 21.4339 6.92092 21.4339 6.59992C21.4339 6.27892 21.3089 5.97792 21.0819 5.75092L18.2479 2.91692C17.7799 2.44892 17.0189 2.44892 16.5509 2.91692L11.9999 7.46792L7.33092 2.79892H2.79992V7.32992L7.46892 11.9989L2.91792 16.5499C2.69092 16.7769 2.56592 17.0779 2.56592 17.3989C2.56592 17.7199 2.69092 18.0209 2.91792 18.2479L5.75192 21.0819C5.98592 21.3159 6.29292 21.4329 6.60092 21.4329C6.90892 21.4329 7.21592 21.3159 7.44992 21.0819L12.0009 16.5309L16.2699 20.7999C16.5719 21.1019 16.9739 21.2689 17.4009 21.2689C17.8279 21.2689 18.2299 21.1029 18.5319 20.7999L20.8009 18.5309C21.1029 18.2289 21.2699 17.8269 21.2699 17.3999C21.2699 16.9729 21.1039 16.5709 20.8009 16.2689L16.5319 11.9999H16.5309ZM4.39992 6.66892V4.39992H6.66892L10.8689 8.59992L8.59992 10.8689L4.39992 6.66892ZM6.59992 19.6689L4.33092 17.3999L5.77392 15.9569L6.90992 17.0929L8.04092 15.9619L6.90492 14.8259L8.03592 13.6949L9.17192 14.8309L10.3029 13.6999L9.16692 12.5639L10.2979 11.4329L11.4339 12.5689L12.5649 11.4379L11.4289 10.3019L12.5599 9.17092L13.6959 10.3069L14.8269 9.17592L13.6909 8.03992L14.8219 6.90892L15.9579 8.04492L17.0889 6.91392L15.9529 5.77792L17.3969 4.33392L19.6659 6.60292L6.59992 19.6689ZM13.1309 15.3999L15.3999 13.1309L16.3189 14.0499L14.0499 16.3189L13.1309 15.3999ZM17.3999 19.6689L15.1809 17.4499L17.4499 15.1809L19.6689 17.3999L17.3999 19.6689Z"/>
</svg>
