<svg width="24" height="24" viewBox="0 0 24 24" xmlns="http://www.w3.org/2000/svg">
<path d="M6.7002 4.10007C6.7002 3.60307 7.1032 3.20007 7.6002 3.20007C8.0972 3.20007 8.5002 3.60307 8.5002 4.10007C8.5002 4.59707 8.0972 5.00007 7.6002 5.00007C7.1032 5.00007 6.7002 4.59707 6.7002 4.10007ZM17.4052 3.87907L15.9962 3.12207L12.9062 8.87107L13.8152 10.5601L17.4052 3.87907ZM20.8002 17.6001C20.8002 19.3641 19.3652 20.8001 17.6002 20.8001C16.3352 20.8001 15.2402 20.0621 14.7202 18.9951L11.9992 13.9361L9.2802 18.9951C8.7612 20.0631 7.6652 20.8011 6.4002 20.8011C4.6352 20.8011 3.2002 19.3651 3.2002 17.6011C3.2002 15.8371 4.6352 14.4011 6.4002 14.4011C7.5462 14.4011 8.5542 15.0071 9.1192 15.9161L11.0912 12.2481L8.0962 6.68007L9.5052 5.92207L14.8812 15.9171C15.4462 15.0081 16.4532 14.4011 17.6002 14.4011C19.3652 14.4011 20.8002 15.8361 20.8002 17.6001ZM8.0002 17.6001C8.0002 16.7181 7.2822 16.0001 6.4002 16.0001C5.5182 16.0001 4.8002 16.7181 4.8002 17.6001C4.8002 18.4821 5.5182 19.2001 6.4002 19.2001C7.2822 19.2001 8.0002 18.4821 8.0002 17.6001ZM19.2002 17.6001C19.2002 16.7181 18.4822 16.0001 17.6002 16.0001C16.7182 16.0001 16.0002 16.7181 16.0002 17.6001C16.0002 18.4821 16.7182 19.2001 17.6002 19.2001C18.4822 19.2001 19.2002 18.4821 19.2002 17.6001Z"/>
</svg>
