<svg width="24" height="24" viewBox="0 0 24 24" xmlns="http://www.w3.org/2000/svg">
<path d="M12.9 9.60012C12.9 10.0971 12.497 10.5001 12 10.5001C11.503 10.5001 11.1 10.0971 11.1 9.60012C11.1 9.10312 11.503 8.70012 12 8.70012C12.497 8.70012 12.9 9.10312 12.9 9.60012ZM15.4 8.70012C14.903 8.70012 14.5 9.10312 14.5 9.60012C14.5 10.0971 14.903 10.5001 15.4 10.5001C15.897 10.5001 16.3 10.0971 16.3 9.60012C16.3 9.10312 15.897 8.70012 15.4 8.70012ZM8.5 8.70012C8.003 8.70012 7.6 9.10312 7.6 9.60012C7.6 10.0971 8.003 10.5001 8.5 10.5001C8.997 10.5001 9.4 10.0971 9.4 9.60012C9.4 9.10312 8.997 8.70012 8.5 8.70012ZM12 1.60012C7.589 1.60012 4 5.18912 4 9.60012C4 11.6531 4.616 13.4881 5.782 14.9091L7.669 17.2011L8.806 16.0641L7.018 13.8931C6.09 12.7631 5.6 11.2791 5.6 9.60112C5.6 6.07212 8.471 3.20112 12 3.20112C15.529 3.20112 18.4 6.07212 18.4 9.60112C18.4 11.2791 17.91 12.7631 16.982 13.8921L12.844 18.9161L10.986 21.2281L11.073 21.3331C11.302 21.6111 11.639 21.7701 11.999 21.7701C12.359 21.7701 12.697 21.6111 12.925 21.3331L18.217 14.9071C19.383 13.4881 19.999 11.6521 19.999 9.59912C19.999 5.18812 16.41 1.59912 11.999 1.59912L12 1.60012ZM9.9 17.6001C9.403 17.6001 9 18.0031 9 18.5001C9 18.9971 9.403 19.4001 9.9 19.4001C10.397 19.4001 10.8 18.9971 10.8 18.5001C10.8 18.0031 10.397 17.6001 9.9 17.6001Z"/>
</svg>
