<svg width="24" height="24" viewBox="0 0 24 24" xmlns="http://www.w3.org/2000/svg">
<path d="M9.3001 4.8001C9.7971 4.8001 10.2001 5.2031 10.2001 5.7001C10.2001 6.1971 9.7971 6.6001 9.3001 6.6001C8.8031 6.6001 8.4001 6.1971 8.4001 5.7001C8.4001 5.2031 8.8031 4.8001 9.3001 4.8001ZM7.5721 13.2281C6.8161 12.4721 6.4001 11.4681 6.4001 10.4001C6.4001 9.3321 6.8161 8.3271 7.5721 7.5721L6.4411 6.4411C5.3831 7.4991 4.8011 8.9051 4.8011 10.4011C4.8011 11.8971 5.3841 13.3031 6.4411 14.3611L7.5721 13.2301V13.2281ZM21.2341 22.3661L16.0281 17.1601C14.5011 18.4331 12.5391 19.2011 10.4001 19.2011C5.5481 19.2011 1.6001 15.2531 1.6001 10.4011C1.6001 5.5491 5.5481 1.6001 10.4001 1.6001C15.2521 1.6001 19.2001 5.5481 19.2001 10.4001C19.2001 12.5391 18.4331 14.5011 17.1591 16.0281L22.3651 21.2341L21.2341 22.3651V22.3661ZM17.6001 10.4001C17.6001 6.4301 14.3701 3.2001 10.4001 3.2001C6.4301 3.2001 3.2001 6.4301 3.2001 10.4001C3.2001 14.3701 6.4301 17.6001 10.4001 17.6001C14.3701 17.6001 17.6001 14.3701 17.6001 10.4001Z"/>
</svg>
