<svg width="24" height="24" viewBox="0 0 24 24" xmlns="http://www.w3.org/2000/svg">
<path d="M12.7998 10.4001H11.1998V7.2001H12.7998V10.4001ZM19.1998 1.6001V6.2341C19.1998 6.5551 19.0748 6.8561 18.8478 7.0831L15.9998 9.9311V13.6001H7.9998V9.9311L5.1508 7.0831C4.9238 6.8561 4.7998 6.5551 4.7998 6.2341V1.6001H6.3998V4.0001H17.5998V1.6001H19.1998ZM17.5998 5.6001H6.3998V6.0691L9.2488 8.9171C9.4758 9.1441 9.5998 9.4451 9.5998 9.7661V12.0001H14.3998V9.7661C14.3998 9.4451 14.5248 9.1441 14.7518 8.9171L17.5998 6.0691V5.6001ZM19.1998 16.4001V22.4001H17.5998V16.8001H15.9998V18.4001C15.9998 19.2821 15.2818 20.0001 14.3998 20.0001H9.5998C8.7178 20.0001 7.9998 19.2821 7.9998 18.4001V16.8001H6.3998V22.4001H4.7998V16.4001C4.7998 15.7381 5.3378 15.2001 5.9998 15.2001H17.9998C18.6618 15.2001 19.1998 15.7381 19.1998 16.4001ZM14.3998 16.8001H9.5998V18.4001H14.3998V16.8001Z"/>
</svg>
