<svg width="24" height="24" viewBox="0 0 24 24" xmlns="http://www.w3.org/2000/svg">
<path d="M12 22.4001C11.837 22.4001 11.673 22.3671 11.521 22.3001C9.273 21.3181 7.388 19.7221 6.071 17.6851C4.716 15.5891 4 13.0701 4 10.4021V5.07611C4 4.55711 4.33 4.09911 4.821 3.93411L11.621 1.66111C11.866 1.57911 12.135 1.57911 12.38 1.66111L19.18 3.93411C19.671 4.09811 20.001 4.55711 20.001 5.07611V10.4021C20.001 13.0711 19.285 15.5891 17.93 17.6851C16.613 19.7221 14.729 21.3171 12.48 22.3001C12.328 22.3661 12.165 22.4001 12.001 22.4001H12ZM5.6 5.36511V10.4021C5.6 12.7601 6.227 14.9771 7.414 16.8131C8.528 18.5361 10.111 19.8971 12 20.7581C13.889 19.8971 15.472 18.5361 16.586 16.8131C17.773 14.9771 18.4 12.7601 18.4 10.4021V5.36511L12 3.22611L5.6 5.36511ZM15.2 6.80011V10.4001C15.2 12.4621 14.565 14.3081 13.409 15.7241L14.547 16.8621C16 15.1501 16.801 12.9051 16.801 10.4001V6.80011H15.2ZM12 17.0001C11.503 17.0001 11.1 17.4031 11.1 17.9001C11.1 18.3971 11.503 18.8001 12 18.8001C12.497 18.8001 12.9 18.3971 12.9 17.9001C12.9 17.4031 12.497 17.0001 12 17.0001Z"/>
</svg>
