<svg width="24" height="24" viewBox="0 0 24 24" xmlns="http://www.w3.org/2000/svg">
<path d="M19.8472 5.81395L6.4152 3.30795C6.0182 3.23395 5.8372 3.19995 5.6002 3.19995C5.1562 3.19995 4.6372 3.45195 4.5132 4.15695L3.3122 10.761C3.2002 11.4 3.2002 11.43 3.2002 11.503C3.2032 12.099 3.5952 12.584 4.1542 12.686L7.2002 13.266V17.599H4.8002V15.999H3.2002V20.799H4.8002V19.199H8.8002V13.571L10.4502 13.885L10.4812 13.891C11.0192 13.992 11.1122 13.999 11.2002 13.999C11.4832 13.999 11.7852 13.876 11.9572 13.756L12.7852 13.181C13.5472 13.9 14.5472 14.281 15.5592 14.28C16.3562 14.28 17.1602 14.045 17.8602 13.554C18.7352 12.941 19.3222 12.017 19.5122 10.952C19.6522 10.169 19.5632 9.38495 19.2642 8.67695L20.1522 8.05995C20.5702 7.77895 20.8072 7.38895 20.8012 6.98795C20.7932 6.39295 20.3982 5.90995 19.8482 5.81295L19.8472 5.81395ZM11.1302 12.383C11.0582 12.371 10.9462 12.351 10.7772 12.319L10.7502 12.314L4.8622 11.192C4.8742 11.125 4.8832 11.068 4.8882 11.043L6.0122 4.85995C6.0462 4.86595 6.0822 4.87295 6.1222 4.88095L18.5802 7.20495L11.1302 12.383ZM17.9352 10.672C17.8202 11.318 17.4672 11.876 16.9412 12.244C16.0982 12.834 14.9662 12.794 14.1512 12.231L17.8982 9.62595C17.9842 9.96095 17.9992 10.316 17.9352 10.672ZM9.0002 7.79995C9.0002 8.29695 8.5972 8.69995 8.1002 8.69995C7.6032 8.69995 7.2002 8.29695 7.2002 7.79995C7.2002 7.30295 7.6032 6.89995 8.1002 6.89995C8.5972 6.89995 9.0002 7.30295 9.0002 7.79995Z"/>
</svg>
