<svg width="24" height="24" viewBox="0 0 24 24" xmlns="http://www.w3.org/2000/svg">
<path d="M12.4 14.4C12.4 14.897 11.997 15.3 11.5 15.3C11.003 15.3 10.6 14.897 10.6 14.4C10.6 13.903 11.003 13.5 11.5 13.5C11.997 13.5 12.4 13.903 12.4 14.4ZM14.9 13.5C14.403 13.5 14 13.903 14 14.4C14 14.897 14.403 15.3 14.9 15.3C15.397 15.3 15.8 14.897 15.8 14.4C15.8 13.903 15.397 13.5 14.9 13.5ZM18.3 13.5C17.803 13.5 17.4 13.903 17.4 14.4C17.4 14.897 17.803 15.3 18.3 15.3C18.797 15.3 19.2 14.897 19.2 14.4C19.2 13.903 18.797 13.5 18.3 13.5ZM22.4 6.80005V17.2C22.4 18.303 21.503 19.2 20.4 19.2H3.6C2.497 19.2 1.6 18.303 1.6 17.2V6.80005C1.6 5.69705 2.497 4.80005 3.6 4.80005H20.4C21.503 4.80005 22.4 5.69705 22.4 6.80005ZM3.2 6.80005V8.80005H20.8V6.80005C20.8 6.57905 20.621 6.40005 20.4 6.40005H3.6C3.379 6.40005 3.2 6.57905 3.2 6.80005ZM20.8 17.2V10.4H3.2V17.2C3.2 17.421 3.379 17.6 3.6 17.6H20.4C20.621 17.6 20.8 17.421 20.8 17.2Z"/>
</svg>
