<svg width="24" height="24" viewBox="0 0 24 24" xmlns="http://www.w3.org/2000/svg">
<path d="M11.1002 4.0001C11.1002 3.5031 11.5032 3.1001 12.0002 3.1001C12.4972 3.1001 12.9002 3.5031 12.9002 4.0001C12.9002 4.4971 12.4972 4.9001 12.0002 4.9001C11.5032 4.9001 11.1002 4.4971 11.1002 4.0001ZM20.8002 16.8001V20.0001C20.8002 21.3231 19.7232 22.4001 18.4002 22.4001C17.0772 22.4001 16.0002 21.3231 16.0002 20.0001V19.2001H8.0002V20.0001C8.0002 21.3231 6.9232 22.4001 5.6002 22.4001C4.2772 22.4001 3.2002 21.3231 3.2002 20.0001V16.8001C3.2002 15.4771 4.2772 14.4001 5.6002 14.4001C6.9232 14.4001 8.0002 15.4771 8.0002 16.8001V17.6001H9.6002V14.8001C9.6002 14.1381 10.1382 13.6001 10.8002 13.6001H11.2002V6.6001H12.8002V13.6001H13.2002C13.8622 13.6001 14.4002 14.1381 14.4002 14.8001V17.6001H16.0002V16.8001C16.0002 15.4771 17.0772 14.4001 18.4002 14.4001C19.7232 14.4001 20.8002 15.4771 20.8002 16.8001ZM6.4002 16.8001C6.4002 16.3591 6.0412 16.0001 5.6002 16.0001C5.1592 16.0001 4.8002 16.3591 4.8002 16.8001V20.0001C4.8002 20.4411 5.1592 20.8001 5.6002 20.8001C6.0412 20.8001 6.4002 20.4411 6.4002 20.0001V16.8001ZM11.2002 17.6001H12.8002V15.2001H11.2002V17.6001ZM19.2002 16.8001C19.2002 16.3591 18.8412 16.0001 18.4002 16.0001C17.9592 16.0001 17.6002 16.3591 17.6002 16.8001V20.0001C17.6002 20.4411 17.9592 20.8001 18.4002 20.8001C18.8412 20.8001 19.2002 20.4411 19.2002 20.0001V16.8001ZM18.4002 3.2001H14.6002V4.8001H18.4002V3.2001ZM9.4002 3.2001H5.6002V4.8001H9.4002V3.2001Z"/>
</svg>
