<svg width="24" height="24" viewBox="0 0 24 24" xmlns="http://www.w3.org/2000/svg">
<path d="M15.34 6.1999L15.97 3.9179C16.082 3.5289 16.019 3.1359 15.796 2.8389C15.588 2.5599 15.261 2.3999 14.9 2.3999H9.10001C8.73901 2.3999 8.41301 2.5599 8.20401 2.8389C7.98101 3.1369 7.91801 3.5299 8.03001 3.9179L8.89701 7.0599L9.09601 7.2209C9.89601 7.8709 10.873 8.1999 12 8.1999C12.904 8.1999 13.71 7.9879 14.407 7.5699C17.197 8.4519 19.2 10.8209 19.2 13.5999C19.2 17.1289 15.97 19.9999 12 19.9999C8.03001 19.9999 4.80001 17.1289 4.80001 13.5999C4.80001 12.6029 5.058 11.6589 5.517 10.8169L4.35001 9.6499C3.61901 10.8159 3.19901 12.1639 3.19901 13.5989C3.19901 18.0099 7.14701 21.5989 11.999 21.5989C16.851 21.5989 20.799 18.0099 20.799 13.5989C20.799 10.2619 18.54 7.3979 15.339 6.1989L15.34 6.1999ZM10.298 6.1219L9.71201 3.9999H14.287L13.701 6.1219C13.229 6.4389 12.657 6.5999 11.999 6.5999C11.341 6.5999 10.77 6.4389 10.297 6.1219H10.298ZM5.70001 8.2999C5.70001 7.8029 6.10301 7.3999 6.60001 7.3999C7.09701 7.3999 7.50001 7.8029 7.50001 8.2999C7.50001 8.7969 7.09701 9.1999 6.60001 9.1999C6.10301 9.1999 5.70001 8.7969 5.70001 8.2999ZM11.6 14.6999H7.70001V10.3999H9.30001V11.5389C10.081 10.5479 11.358 9.8999 12.8 9.8999C15.185 9.8999 17.2 11.6859 17.2 13.7999C17.2 15.9139 15.226 17.5999 12.8 17.5999V15.9999C14.344 15.9999 15.6 15.0129 15.6 13.7999C15.6 12.5869 14.318 11.4999 12.8 11.4999C11.598 11.4999 10.577 12.1729 10.228 13.0999H11.6V14.6999Z"/>
</svg>
