<svg width="24" height="24" viewBox="0 0 24 24" xmlns="http://www.w3.org/2000/svg">
<path d="M21.4911 10.86L3.44512 4.93905L3.42512 4.93205C3.15312 4.84105 3.00512 4.80005 2.84712 4.80005C2.15912 4.80005 1.59912 5.33805 1.59912 6.00005C1.59912 6.24505 1.67412 6.48905 1.82112 6.72405L5.43012 12L1.83912 17.248L1.82112 17.276C1.67412 17.511 1.59912 17.755 1.59912 18C1.59912 18.662 2.15912 19.2 2.84712 19.2C3.00412 19.2 3.15212 19.159 3.42512 19.068L21.4901 13.14C22.0251 12.964 22.3991 12.495 22.3991 12C22.3991 11.419 21.9431 11.008 21.4901 10.86H21.4911ZM6.90612 12.678C7.18812 12.266 7.18812 11.734 6.90612 11.323L3.76112 6.72705L17.3961 11.201H12.2001V12.801H17.3961L3.76112 17.275L6.90612 12.679V12.678ZM10.6001 12C10.6001 12.497 10.1971 12.9 9.70012 12.9C9.20312 12.9 8.80012 12.497 8.80012 12C8.80012 11.503 9.20312 11.1 9.70012 11.1C10.1971 11.1 10.6001 11.503 10.6001 12Z"/>
</svg>
