<svg width="24" height="24" viewBox="0 0 24 24" xmlns="http://www.w3.org/2000/svg">
<path d="M10.5 18.3001C10.5 18.7971 10.097 19.2001 9.60002 19.2001C9.10302 19.2001 8.70002 18.7971 8.70002 18.3001C8.70002 17.8031 9.10302 17.4001 9.60002 17.4001C10.097 17.4001 10.5 17.8031 10.5 18.3001ZM23.2 17.6001C23.2 20.6881 20.688 23.2001 17.6 23.2001C16.547 23.2001 15.561 22.9071 14.718 22.4001H4.40002C3.29702 22.4001 2.40002 21.5031 2.40002 20.4001V3.6001C2.40002 2.4971 3.29702 1.6001 4.40002 1.6001H14.8C15.903 1.6001 16.8 2.4971 16.8 3.6001V12.0591C17.061 12.0211 17.328 12.0011 17.6 12.0011C19.096 12.0011 20.502 12.5831 21.56 13.6411C22.618 14.6991 23.2 16.1041 23.2 17.6001ZM4.40002 20.8001H13.008C12.374 19.8921 12 18.7901 12 17.6001C12 15.3711 13.31 13.4421 15.2 12.5411V3.6001C15.2 3.3791 15.021 3.2001 14.8 3.2001H4.40002C4.17902 3.2001 4.00002 3.3791 4.00002 3.6001V20.4001C4.00002 20.6211 4.17902 20.8001 4.40002 20.8001ZM21.6 17.6001C21.6 16.5321 21.184 15.5271 20.428 14.7721C19.673 14.0161 18.668 13.6001 17.6 13.6001C15.394 13.6001 13.6 15.3941 13.6 17.6001C13.6 19.8061 15.394 21.6001 17.6 21.6001C19.806 21.6001 21.6 19.8061 21.6 17.6001ZM15.834 16.1661L17.268 17.6001L15.834 19.0341L16.965 20.1651L19.531 17.5991L16.965 15.0331L15.834 16.1641V16.1661ZM10.859 11.6361C10.663 12.3501 10.265 12.8291 9.62802 12.8291C8.86802 12.8291 8.44802 12.1481 8.30602 11.1991H9.20002V9.5991H8.30802C8.45202 8.6521 8.87402 7.9731 9.62902 7.9731C10.262 7.9731 10.661 8.4511 10.858 9.1631L12.152 8.6631C11.762 7.5521 10.936 6.8001 9.60002 6.8001C7.91502 6.8001 7.04102 7.9971 6.83202 9.5991H5.80002V11.1991H6.83102C7.03902 12.8011 7.90702 13.9981 9.60002 13.9981C10.942 13.9981 11.766 13.2461 12.154 12.1361L10.86 11.6361H10.859Z"/>
</svg>
