<svg width="24" height="24" viewBox="0 0 24 24" xmlns="http://www.w3.org/2000/svg">
<path d="M10.5 18.3001C10.5 18.7971 10.097 19.2001 9.60002 19.2001C9.10302 19.2001 8.70002 18.7971 8.70002 18.3001C8.70002 17.8031 9.10302 17.4001 9.60002 17.4001C10.097 17.4001 10.5 17.8031 10.5 18.3001ZM12.16 10.9511C12.16 10.6441 12.104 10.3781 11.995 10.1601C11.886 9.9431 11.733 9.7581 11.54 9.6091C11.351 9.4641 11.126 9.3421 10.869 9.2471C10.617 9.1531 10.317 9.0731 10.057 9.0041L9.94102 8.9741C9.72202 8.9161 9.50302 8.8591 9.32002 8.8131C9.14002 8.7681 8.94302 8.6671 8.81702 8.5561C8.71402 8.4651 8.66402 8.3361 8.66402 8.1611C8.66402 7.9981 8.71402 7.8621 8.81802 7.7461C8.92302 7.6281 9.10102 7.5491 9.30602 7.5291C9.49602 7.5111 9.77202 7.5021 10.006 7.5671C10.219 7.6261 10.408 7.7191 10.566 7.8451C10.731 7.9771 10.891 8.1261 11.041 8.2871L11.11 8.3611L12.05 7.4591L11.984 7.3871C11.871 7.2631 11.754 7.1471 11.635 7.0401C11.514 6.9311 11.377 6.8331 11.228 6.7471C11.079 6.6611 10.908 6.5871 10.721 6.5271C10.623 6.4961 10.516 6.4681 10.401 6.4441V5.5991H8.80102V6.4311C8.66802 6.4611 8.54102 6.4991 8.42202 6.5461C8.17302 6.6441 7.95802 6.7761 7.78402 6.9381C7.60902 7.1011 7.47202 7.2991 7.37602 7.5251C7.28002 7.7501 7.23202 8.0031 7.23202 8.2751C7.23202 8.5861 7.29202 8.8541 7.41102 9.0691C7.52902 9.2831 7.68602 9.4631 7.87802 9.6051C8.06602 9.7441 8.28602 9.8601 8.53202 9.9481C8.77202 10.0341 9.02002 10.1101 9.27002 10.1721L10.001 10.3621C10.254 10.4411 10.442 10.5381 10.562 10.6501C10.673 10.7551 10.728 10.8941 10.728 11.0751C10.728 11.2761 10.673 11.4261 10.56 11.5331C10.451 11.6361 10.248 11.7171 10.018 11.7481C9.78202 11.7811 9.55102 11.7781 9.31102 11.7401C9.06902 11.7021 8.83102 11.6021 8.60202 11.4431C8.36902 11.2821 8.15802 11.0811 7.97602 10.8461L7.90602 10.7561L7.00602 11.6651L7.06302 11.7351C7.19002 11.8901 7.32802 12.0331 7.47302 12.1591C7.61902 12.2871 7.78102 12.3991 7.95502 12.4931C8.12802 12.5871 8.32302 12.6661 8.53502 12.7301C8.61902 12.7551 8.70802 12.7781 8.80102 12.7991V13.5961H10.401V12.8331C10.625 12.7941 10.827 12.7361 11.005 12.6591C11.269 12.5451 11.489 12.4001 11.66 12.2291C11.832 12.0571 11.961 11.8571 12.041 11.6351C12.12 11.4161 12.161 11.1851 12.161 10.9461L12.16 10.9511ZM23.2 17.6001C23.2 20.6881 20.688 23.2001 17.6 23.2001C16.547 23.2001 15.561 22.9071 14.719 22.4001H4.40002C3.29702 22.4001 2.40002 21.5031 2.40002 20.4001V3.6001C2.40002 2.4971 3.29702 1.6001 4.40002 1.6001H14.8C15.903 1.6001 16.8 2.4971 16.8 3.6001V12.0581C17.061 12.0201 17.328 12.0001 17.6 12.0001C20.688 12.0001 23.2 14.5121 23.2 17.6001ZM4.40002 20.8001H13.008C12.373 19.8921 12 18.7891 12 17.6001C12 15.3711 13.31 13.4421 15.2 12.5411V3.6001C15.2 3.3791 15.021 3.2001 14.8 3.2001H4.40002C4.17902 3.2001 4.00002 3.3791 4.00002 3.6001V20.4001C4.00002 20.6211 4.17902 20.8001 4.40002 20.8001ZM21.6 17.6001C21.6 15.3941 19.806 13.6001 17.6 13.6001C15.394 13.6001 13.6 15.3941 13.6 17.6001C13.6 19.8061 15.394 21.6001 17.6 21.6001C19.806 21.6001 21.6 19.8061 21.6 17.6001ZM16.034 16.1661L17.468 17.6001L16.034 19.0341L17.165 20.1651L19.731 17.5991L17.165 15.0331L16.034 16.1641V16.1661Z"/>
</svg>
