<svg width="24" height="24" viewBox="0 0 24 24" xmlns="http://www.w3.org/2000/svg">
<path d="M10.5 18.3001C10.5 18.7971 10.097 19.2001 9.6 19.2001C9.103 19.2001 8.7 18.7971 8.7 18.3001C8.7 17.8031 9.103 17.4001 9.6 17.4001C10.097 17.4001 10.5 17.8031 10.5 18.3001ZM23.2 17.6001C23.2 20.6881 20.688 23.2001 17.6 23.2001C16.547 23.2001 15.561 22.9071 14.719 22.4001H4.4C3.297 22.4001 2.4 21.5031 2.4 20.4001V3.6001C2.4 2.4971 3.297 1.6001 4.4 1.6001H14.8C15.903 1.6001 16.8 2.4971 16.8 3.6001V12.0581C17.061 12.0201 17.328 12.0001 17.6 12.0001C20.688 12.0001 23.2 14.5121 23.2 17.6001ZM4.4 20.8001H13.008C12.373 19.8921 12 18.7891 12 17.6001C12 15.3711 13.31 13.4421 15.2 12.5411V3.6001C15.2 3.3791 15.021 3.2001 14.8 3.2001H4.4C4.179 3.2001 4 3.3791 4 3.6001V20.4001C4 20.6211 4.179 20.8001 4.4 20.8001ZM21.6 17.6001C21.6 15.3941 19.806 13.6001 17.6 13.6001C15.394 13.6001 13.6 15.3941 13.6 17.6001C13.6 19.8061 15.394 21.6001 17.6 21.6001C19.806 21.6001 21.6 19.8061 21.6 17.6001ZM16.034 16.1661L17.468 17.6001L16.034 19.0341L17.165 20.1651L19.731 17.5991L17.165 15.0331L16.034 16.1641V16.1661ZM7.729 9.7411C7.084 9.5611 6.814 9.4381 6.814 9.1421C6.814 8.9031 7.049 8.7611 7.442 8.7611C7.88 8.7611 8.401 9.0431 8.722 9.3221L8.809 9.3981L9.408 8.4711L9.338 8.4151C9.004 8.1471 8.311 7.6971 7.416 7.6971C6.301 7.6971 5.58 8.3001 5.58 9.2341C5.58 10.2891 6.512 10.5491 7.335 10.7791L7.408 10.8001C8.091 10.9901 8.31 11.1361 8.31 11.3991C8.31 11.8191 7.72 11.8521 7.539 11.8521C7.033 11.8521 6.431 11.5011 6.096 11.1551L6.016 11.0721L5.336 11.9441L5.403 12.0061C5.836 12.4101 6.563 12.8911 7.571 12.8911C9.027 12.8911 9.543 12.0491 9.543 11.3281C9.543 10.2321 8.536 9.9611 7.728 9.7431L7.729 9.7411ZM12.591 7.7881L9.68 12.7981H10.984L13.895 7.7881H12.591Z"/>
</svg>
