<svg width="24" height="24" viewBox="0 0 24 24" xmlns="http://www.w3.org/2000/svg">
<path d="M20.8001 16.8V16C20.8001 11.148 16.8521 7.20005 12.0001 7.20005C7.1481 7.20005 3.2001 11.148 3.2001 16V16.8H1.6001V18.4H22.4001V16.8H20.8001ZM4.8001 16C4.8001 12.03 8.0301 8.80005 12.0001 8.80005C15.9701 8.80005 19.2001 12.03 19.2001 16V16.8H4.8001V16ZM11.1001 4.70005C11.1001 4.20305 11.5031 3.80005 12.0001 3.80005C12.4971 3.80005 12.9001 4.20305 12.9001 4.70005C12.9001 5.19705 12.4971 5.60005 12.0001 5.60005C11.5031 5.60005 11.1001 5.19705 11.1001 4.70005ZM12.0001 10.4V12C10.0501 12 8.4221 13.38 8.0711 15.2H6.4511C6.8161 12.494 9.1641 10.4 12.0001 10.4Z"/>
</svg>
