<svg width="24" height="24" viewBox="0 0 24 24" xmlns="http://www.w3.org/2000/svg">
<path d="M8 12.7999H13.569L11.735 10.9659L12.866 9.83488L16.632 13.6009L12.866 17.3669L11.735 16.2359L13.569 14.4019H8V12.7999ZM20.8 13.5999C20.8 18.0109 16.852 21.5999 12 21.5999C7.148 21.5999 3.2 18.0109 3.2 13.5999C3.2 12.1639 3.618 10.8159 4.35 9.64988L5.517 10.8169C5.058 11.6589 4.8 12.6029 4.8 13.5999C4.8 17.1289 8.03 19.9999 12 19.9999C15.97 19.9999 19.2 17.1289 19.2 13.5999C19.2 10.8209 17.196 8.45188 14.405 7.57088C13.709 7.98888 12.903 8.19988 12 8.19988C10.872 8.19988 9.895 7.87088 9.095 7.22088L8.896 7.05988L8.029 3.91888C7.917 3.52988 7.98 3.13688 8.203 2.83988C8.412 2.56088 8.738 2.40088 9.099 2.40088H14.899C15.26 2.40088 15.586 2.56088 15.795 2.83988C16.018 3.13788 16.081 3.53088 15.969 3.91888L15.34 6.20088C18.54 7.39888 20.8 10.2639 20.8 13.5999ZM12 6.59988C12.658 6.59988 13.229 6.43988 13.702 6.12188L14.287 3.99988H9.712L10.297 6.12188C10.769 6.43888 11.341 6.59988 11.999 6.59988H12ZM6.6 9.19988C7.097 9.19988 7.5 8.79688 7.5 8.29988C7.5 7.80288 7.097 7.39988 6.6 7.39988C6.103 7.39988 5.7 7.80288 5.7 8.29988C5.7 8.79688 6.103 9.19988 6.6 9.19988Z"/>
</svg>
