<svg width="24" height="24" viewBox="0 0 24 24" xmlns="http://www.w3.org/2000/svg">
<path d="M21.395 12.578L17.215 20.178C17.004 20.561 16.601 20.8 16.164 20.8H10.001V19.2H15.928L19.888 12L15.928 4.79995H8.07404L4.11404 12L6.86604 17.004L5.68804 18.182L2.60604 12.579C2.40704 12.217 2.40704 11.784 2.60604 11.422L6.78604 3.82195C6.99704 3.43895 7.40004 3.19995 7.83704 3.19995H16.164C16.602 3.19995 17.005 3.43795 17.216 3.82195L21.396 11.422C21.595 11.784 21.595 12.217 21.396 12.579L21.395 12.578ZM16 12C16 14.206 14.206 16 12 16C9.79404 16 8.00004 14.206 8.00004 12C8.00004 9.79395 9.79404 7.99995 12 7.99995C14.206 7.99995 16 9.79395 16 12ZM14.4 12C14.4 10.677 13.323 9.59995 12 9.59995C10.677 9.59995 9.60004 10.677 9.60004 12C9.60004 13.323 10.677 14.4 12 14.4C13.323 14.4 14.4 13.323 14.4 12ZM7.50004 19C7.00304 19 6.60004 19.403 6.60004 19.9C6.60004 20.397 7.00304 20.8 7.50004 20.8C7.99704 20.8 8.40004 20.397 8.40004 19.9C8.40004 19.403 7.99704 19 7.50004 19Z"/>
</svg>
