<svg width="24" height="24" viewBox="0 0 24 24" xmlns="http://www.w3.org/2000/svg">
<path d="M17.6002 14.4C16.5172 14.4 15.5582 14.942 14.9792 15.768L9.5032 12.781C9.5662 12.531 9.6002 12.269 9.6002 12C9.6002 11.731 9.5662 11.469 9.5032 11.219L14.9792 8.23195C15.5582 9.05795 16.5172 9.59995 17.6002 9.59995C19.3642 9.59995 20.8002 8.16395 20.8002 6.39995C20.8002 4.63595 19.3642 3.19995 17.6002 3.19995C15.8362 3.19995 14.4002 4.63595 14.4002 6.39995C14.4002 6.50695 14.4062 6.61195 14.4162 6.71695L8.7352 9.81595C8.1512 9.19195 7.3202 8.80095 6.4002 8.80095C4.6362 8.80095 3.2002 10.237 3.2002 12.001C3.2002 13.765 4.6362 15.201 6.4002 15.201C7.3202 15.201 8.1512 14.81 8.7352 14.186L14.4162 17.285C14.4062 17.389 14.4002 17.495 14.4002 17.602C14.4002 19.366 15.8362 20.802 17.6002 20.802C19.3642 20.802 20.8002 19.366 20.8002 17.602C20.8002 15.838 19.3642 14.402 17.6002 14.402V14.4ZM17.6002 4.79995C18.4822 4.79995 19.2002 5.51795 19.2002 6.39995C19.2002 7.28195 18.4822 7.99995 17.6002 7.99995C16.7182 7.99995 16.0002 7.28195 16.0002 6.39995C16.0002 5.51795 16.7182 4.79995 17.6002 4.79995ZM4.8002 12C4.8002 11.118 5.5182 10.4 6.4002 10.4C7.2822 10.4 8.0002 11.118 8.0002 12C8.0002 12.882 7.2822 13.6 6.4002 13.6C5.5182 13.6 4.8002 12.882 4.8002 12ZM17.6002 19.2C16.7182 19.2 16.0002 18.482 16.0002 17.6C16.0002 16.718 16.7182 16 17.6002 16C18.4822 16 19.2002 16.718 19.2002 17.6C19.2002 18.482 18.4822 19.2 17.6002 19.2Z"/>
</svg>
