<svg width="24" height="24" viewBox="0 0 24 24" xmlns="http://www.w3.org/2000/svg">
<path d="M9.5998 12.9971C10.0969 12.9971 10.4998 12.5942 10.4998 12.0971C10.4998 11.6 10.0969 11.1971 9.5998 11.1971C9.10275 11.1971 8.6998 11.6 8.6998 12.0971C8.6998 12.5942 9.10275 12.9971 9.5998 12.9971Z"/>
<path d="M15.1998 6.4001V4.8001C15.1998 3.0361 13.7638 1.6001 11.9998 1.6001C10.2358 1.6001 8.7998 3.0361 8.7998 4.8001V6.4001H4.7998V22.4001H19.1998V6.4001H15.1998ZM10.3998 4.8001C10.3998 3.9181 11.1178 3.2001 11.9998 3.2001C12.8818 3.2001 13.5998 3.9181 13.5998 4.8001V6.4001H10.3998V4.8001ZM17.5998 20.8001H6.3998V8.0001H8.7998V9.6001H10.3998V8.0001H13.5998V12.0001H15.1998V8.0001H17.5998V20.8001Z"/>
</svg>
