<svg width="24" height="24" viewBox="0 0 24 24" xmlns="http://www.w3.org/2000/svg">
<path d="M22.1371 5.79093L20.4251 3.65093C20.1961 3.36493 19.8541 3.20093 19.4881 3.20093H4.5121C4.1451 3.20093 3.8041 3.36493 3.5751 3.65093L1.8631 5.79093C1.6931 6.00293 1.6001 6.26893 1.6001 6.54093V7.94693C1.6001 8.81893 1.9591 9.67093 2.5851 10.2849C2.7741 10.4699 2.9801 10.6289 3.2001 10.7599V20.8009H6.2001V19.2009H4.8001V11.1999C4.8211 11.1999 4.8411 11.1999 4.8621 11.1999C5.7891 11.1819 6.6231 10.7619 7.1981 10.1099C7.7851 10.7779 8.6441 11.1999 9.6011 11.1999C10.5581 11.1999 11.4141 10.7789 12.0011 10.1129C12.5881 10.7789 13.4461 11.1999 14.4011 11.1999C15.3561 11.1999 16.2171 10.7769 16.8041 10.1099C17.3791 10.7619 18.2131 11.1819 19.1401 11.1999C19.1601 11.1999 19.1801 11.1999 19.2001 11.1999L19.2011 19.1999H12.8011V15.9999H11.2011V20.7999H20.8011V10.7589C21.0211 10.6279 21.2271 10.4689 21.4161 10.2839C22.0421 9.66993 22.4011 8.81793 22.4011 7.94593V6.53993C22.4011 6.26893 22.3081 6.00193 22.1381 5.78993L22.1371 5.79093ZM20.8001 7.94593C20.8001 8.39093 20.6161 8.82693 20.2951 9.14193C19.9861 9.44493 19.5871 9.60593 19.1691 9.59893C18.3041 9.58293 17.6001 8.86493 17.6001 7.99893H16.0001C16.0001 8.88093 15.2821 9.59893 14.4001 9.59893C13.5181 9.59893 12.8001 8.88093 12.8001 7.99893H11.2001C11.2001 8.88093 10.4821 9.59893 9.6001 9.59893C8.7181 9.59893 8.0001 8.88093 8.0001 7.99893H6.4001C6.4001 8.86493 5.6961 9.58193 4.8311 9.59893C4.4131 9.60593 4.0141 9.44393 3.7051 9.14193C3.3841 8.82693 3.2001 8.39093 3.2001 7.94593V6.68093L4.7041 4.79993H19.2951L20.7991 6.68093L20.8001 7.94593ZM9.6001 19.9999C9.6001 20.4969 9.1971 20.8999 8.7001 20.8999C8.2031 20.8999 7.8001 20.4969 7.8001 19.9999C7.8001 19.5029 8.2031 19.0999 8.7001 19.0999C9.1971 19.0999 9.6001 19.5029 9.6001 19.9999ZM17.6001 12.7999V14.3999H13.6001V12.7999H17.6001Z"/>
</svg>
