<svg width="24" height="24" viewBox="0 0 24 24" xmlns="http://www.w3.org/2000/svg">
<path d="M20.1 21.5999C20.1 22.0969 19.697 22.4999 19.2 22.4999C18.703 22.4999 18.3 22.0969 18.3 21.5999C18.3 21.1029 18.703 20.6999 19.2 20.6999C19.697 20.6999 20.1 21.1029 20.1 21.5999ZM18.4 3.5999C18.4 3.3789 18.221 3.1999 18 3.1999H10.8C10.579 3.1999 10.4 3.3789 10.4 3.5999V3.9399L14.009 6.0449C14.743 6.4729 15.2 7.2679 15.2 8.1179V10.4109H13.6V12.7989H12V10.4109H7.2V11.9989H5.6V10.4109H4V8.1109C4 7.2589 4.457 6.4639 5.193 6.0359L8.8 3.9379V3.5979C8.8 2.4949 9.697 1.5979 10.8 1.5979H18C19.103 1.5979 20 2.4949 20 3.5979V19.0979H18.4V3.5999ZM13.203 7.4279L9.599 5.3259L5.997 7.4209C5.752 7.5639 5.599 7.8289 5.599 8.1129V8.8129H13.599V8.1199C13.599 7.8369 13.447 7.5719 13.202 7.4289L13.203 7.4279ZM8.8 14.3999H10.4V11.9999H8.8V14.3999ZM8.8 18.3999H10.4V15.9999H8.8V18.3999ZM8.8 22.3999H10.4V19.9999H8.8V22.3999ZM12 15.9999H13.6V14.3999H12V15.9999ZM12 19.9999H13.6V17.5999H12V19.9999ZM5.6 15.9999H7.2V13.5999H5.6V15.9999ZM5.6 19.1999H7.2V17.5999H5.6V19.1999Z"/>
</svg>
