<svg width="24" height="24" viewBox="0 0 24 24" xmlns="http://www.w3.org/2000/svg">
<path d="M12 8.02797C8.51998 8.02797 5.48498 9.96996 3.92198 12.828H2.13798C3.82598 9.05996 7.61098 6.42796 11.999 6.42796C12.004 6.42796 12.008 6.42796 12.013 6.42796L12.008 8.02797C12.008 8.02797 12.003 8.02797 12 8.02797ZM2.49998 14.428C2.00298 14.428 1.59998 14.831 1.59998 15.328C1.59998 15.825 2.00298 16.228 2.49998 16.228C2.99698 16.228 3.39998 15.825 3.39998 15.328C3.39998 14.831 2.99698 14.428 2.49998 14.428ZM19.638 12.108C20.266 13.042 20.728 14.096 20.98 15.229H22.613C22.318 13.66 21.683 12.211 20.787 10.959L19.638 12.108ZM16 15.228C16 17.434 14.206 19.228 12 19.228C9.79398 19.228 7.99998 17.434 7.99998 15.228C7.99998 13.022 9.79398 11.228 12 11.228C14.206 11.228 16 13.022 16 15.228ZM14.4 15.228C14.4 13.905 13.323 12.828 12 12.828C10.677 12.828 9.59998 13.905 9.59998 15.228C9.59998 16.551 10.677 17.628 12 17.628C13.323 17.628 14.4 16.551 14.4 15.228ZM17.333 5.62897C16.8 6.82897 16.266 7.22897 16.266 7.22897C16.266 7.22897 16.799 7.62897 17.333 8.82897C17.866 7.62897 18.4 7.22897 18.4 7.22897C18.4 7.22897 17.867 6.82897 17.333 5.62897ZM17.333 1.68896L18.795 4.97897C19.084 5.62897 19.346 5.92196 19.408 5.98496L21.067 7.22897L19.408 8.47297C19.347 8.53597 19.084 8.82797 18.795 9.47897L17.333 12.769L15.871 9.47897C15.582 8.82897 15.32 8.53597 15.258 8.47297L13.599 7.22897L15.258 5.98496C15.319 5.92196 15.581 5.62997 15.87 4.97897L17.333 1.68896Z"/>
</svg>
