<svg width="24" height="24" viewBox="0 0 24 24" xmlns="http://www.w3.org/2000/svg">
<path d="M1.59998 13.7C1.59998 13.203 2.00298 12.8 2.49998 12.8C2.99698 12.8 3.39998 13.203 3.39998 13.7C3.39998 14.197 2.99698 14.6 2.49998 14.6C2.00298 14.6 1.59998 14.197 1.59998 13.7ZM16 13.6C16 11.394 14.206 9.60005 12 9.60005C9.79398 9.60005 7.99998 11.394 7.99998 13.6C7.99998 15.806 9.79398 17.6 12 17.6C14.206 17.6 16 15.806 16 13.6ZM14.4 13.6C14.4 14.923 13.323 16 12 16C10.677 16 9.59998 14.923 9.59998 13.6C9.59998 12.277 10.677 11.2 12 11.2C13.323 11.2 14.4 12.277 14.4 13.6ZM12 4.80005C7.61098 4.80005 3.82598 7.43205 2.13798 11.2H3.92198C5.48498 8.34205 8.51998 6.40005 12 6.40005C16.386 6.40005 20.065 9.48605 20.98 13.6H22.613C21.672 8.59705 17.271 4.80005 11.999 4.80005H12Z"/>
</svg>
