<svg width="24" height="24" viewBox="0 0 24 24" xmlns="http://www.w3.org/2000/svg">
<path d="M13.2 1.76904L10.683 4.28604C9.964 5.00504 9.91 6.13904 10.517 6.92304L5.666 7.96804C5.232 8.06104 4.887 8.38504 4.765 8.81104L1.696 19.554C1.576 19.973 1.693 20.424 2.001 20.732L3.269 22C3.497 22.228 3.804 22.351 4.118 22.351C4.228 22.351 4.339 22.336 4.447 22.305L15.19 19.236C15.617 19.114 15.94 18.769 16.033 18.335L17.078 13.485C17.437 13.763 17.868 13.904 18.301 13.904C18.813 13.904 19.325 13.709 19.715 13.319L22.232 10.802L13.2 1.76904ZM14.519 17.763L4.509 20.623L9.366 15.766L8.235 14.635L3.378 19.492L6.238 9.48204L11.843 8.27504L15.727 12.159L14.52 17.764L14.519 17.763ZM18.583 12.186C18.427 12.342 18.173 12.342 18.017 12.186L11.814 5.98304C11.658 5.82704 11.658 5.57304 11.814 5.41704L13.2 4.03104L19.969 10.8L18.583 12.186ZM11.236 12.764C11.588 13.115 11.588 13.685 11.236 14.037C10.885 14.389 10.315 14.389 9.963 14.037C9.611 13.686 9.611 13.116 9.963 12.764C10.314 12.412 10.884 12.412 11.236 12.764Z"/>
</svg>
