<svg width="24" height="24" viewBox="0 0 24 24" xmlns="http://www.w3.org/2000/svg">
<path d="M13.2992 5.59995C12.9432 4.22095 11.6892 3.19995 10.2002 3.19995C8.71119 3.19995 7.4572 4.22095 7.1012 5.59995H3.2002V7.19995H7.1012C7.4572 8.57895 8.71119 9.59995 10.2002 9.59995C11.6892 9.59995 12.9432 8.57895 13.2992 7.19995H20.8002V5.59995H13.2992ZM10.2002 7.99995C9.3182 7.99995 8.6002 7.28195 8.6002 6.39995C8.6002 5.51795 9.3182 4.79995 10.2002 4.79995C11.0822 4.79995 11.8002 5.51795 11.8002 6.39995C11.8002 7.28195 11.0822 7.99995 10.2002 7.99995ZM16.0002 8.79995C14.5122 8.79995 13.2572 9.82095 12.9012 11.2H3.2002V12.8H12.9012C13.2572 14.179 14.5112 15.2 16.0002 15.2C17.4892 15.2 18.7432 14.179 19.0992 12.8H20.8002V11.2H19.0992C18.7432 9.82095 17.4892 8.79995 16.0002 8.79995ZM16.0002 13.6C15.1182 13.6 14.4002 12.882 14.4002 12C14.4002 11.118 15.1182 10.4 16.0002 10.4C16.8822 10.4 17.6002 11.118 17.6002 12C17.6002 12.882 16.8822 13.6 16.0002 13.6ZM8.0002 14.4C6.5122 14.4 5.2572 15.421 4.9012 16.8H3.2002V18.4H4.9012C5.2572 19.779 6.5112 20.8 8.0002 20.8C9.4892 20.8 10.7432 19.779 11.0992 18.4H20.8002V16.8H11.0992C10.7432 15.421 9.4892 14.4 8.0002 14.4ZM8.0002 19.2C7.1182 19.2 6.4002 18.482 6.4002 17.6C6.4002 16.718 7.1182 16 8.0002 16C8.8822 16 9.6002 16.718 9.6002 17.6C9.6002 18.482 8.8822 19.2 8.0002 19.2Z"/>
</svg>
