<svg width="24" height="24" viewBox="0 0 24 24" xmlns="http://www.w3.org/2000/svg">
<path d="M12.0001 4.8001C8.0301 4.8001 4.8001 8.0301 4.8001 12.0001C4.8001 15.9701 8.0301 19.2001 12.0001 19.2001C15.9701 19.2001 19.2001 15.9701 19.2001 12.0001C19.2001 8.0301 15.9701 4.8001 12.0001 4.8001ZM17.5421 11.2001H16.0681C15.9501 9.6851 15.4991 8.2821 14.8001 7.1541C16.2521 7.9961 17.2931 9.4721 17.5421 11.2001ZM11.2001 11.2001H9.5381C9.6911 9.5711 10.3051 8.1031 11.2001 7.1591V11.2001ZM11.2001 12.8001V16.8411C10.3051 15.8971 9.6921 14.4291 9.5381 12.8001H11.2001ZM12.8001 12.8001H14.4621C14.3091 14.4291 13.6951 15.8971 12.8001 16.8411V12.8001ZM12.8001 11.2001V7.1591C13.6951 8.1031 14.3081 9.5711 14.4621 11.2001H12.8001ZM9.2001 7.1541C8.5011 8.2821 8.0511 9.6851 7.9321 11.2001H6.4581C6.7061 9.4711 7.7471 7.9961 9.2001 7.1541ZM6.4581 12.8001H7.9321C8.0501 14.3151 8.5011 15.7181 9.2001 16.8461C7.7481 16.0041 6.7071 14.5281 6.4581 12.8001ZM14.8001 16.8461C15.4991 15.7181 15.9491 14.3151 16.0681 12.8001H17.5421C17.2941 14.5291 16.2531 16.0041 14.8001 16.8461ZM20.0001 1.6001H4.0001C2.6771 1.6001 1.6001 2.6771 1.6001 4.0001V20.0001C1.6001 21.3231 2.6771 22.4001 4.0001 22.4001H20.0001C21.3231 22.4001 22.4001 21.3231 22.4001 20.0001V4.0001C22.4001 2.6771 21.3231 1.6001 20.0001 1.6001ZM20.8001 20.0001C20.8001 20.4411 20.4411 20.8001 20.0001 20.8001H4.0001C3.5591 20.8001 3.2001 20.4411 3.2001 20.0001V4.0001C3.2001 3.5591 3.5591 3.2001 4.0001 3.2001H20.0001C20.4411 3.2001 20.8001 3.5591 20.8001 4.0001V20.0001Z"/>
</svg>
