<svg width="24" height="24" viewBox="0 0 24 24" xmlns="http://www.w3.org/2000/svg">
<path d="M19.4531 13.6109L17.6501 4.9549C17.5351 4.4009 17.0411 3.9999 16.4751 3.9999H14.5001V5.5999H16.1501L16.9481 9.4279L11.6201 15.9999H11.1491C10.7541 12.8469 8.05907 10.3999 4.80107 10.3999V11.9999C7.17507 11.9999 9.15107 13.7329 9.53307 15.9999H7.90007C7.54407 14.6209 6.29007 13.5999 4.80107 13.5999C3.03607 13.5999 1.60107 15.0359 1.60107 16.7999C1.60107 18.5639 3.03607 19.9999 4.80107 19.9999C6.28907 19.9999 7.54407 18.9789 7.90007 17.5999H11.8111C12.1741 17.5999 12.5141 17.4379 12.7431 17.1559L17.3701 11.4499L17.8781 13.8879C16.7721 14.3929 16.0021 15.5079 16.0021 16.7999C16.0021 18.5639 17.4371 19.9999 19.2021 19.9999C20.9671 19.9999 22.4021 18.5639 22.4021 16.7999C22.4021 15.0359 21.1011 13.7399 19.4551 13.6109H19.4531ZM4.80007 18.3999C3.91807 18.3999 3.20007 17.6819 3.20007 16.7999C3.20007 15.9179 3.91807 15.1999 4.80007 15.1999C5.68207 15.1999 6.40007 15.9179 6.40007 16.7999C6.40007 17.6819 5.68207 18.3999 4.80007 18.3999ZM19.2001 18.3999C18.3181 18.3999 17.6001 17.6819 17.6001 16.7999C17.6001 15.9179 18.3181 15.1999 19.2001 15.1999C20.0821 15.1999 20.8001 15.9179 20.8001 16.7999C20.8001 17.6819 20.0821 18.3999 19.2001 18.3999ZM11.1001 4.7999C11.1001 4.3029 11.5031 3.8999 12.0001 3.8999C12.4971 3.8999 12.9001 4.3029 12.9001 4.7999C12.9001 5.2969 12.4971 5.6999 12.0001 5.6999C11.5031 5.6999 11.1001 5.2969 11.1001 4.7999Z"/>
</svg>
