<svg width="24" height="24" viewBox="0 0 24 24" xmlns="http://www.w3.org/2000/svg">
<path d="M16.7741 10.39V10.392C16.7331 11.537 15.7671 12.432 14.6161 12.392C13.4781 12.43 12.5181 11.554 12.4581 10.423C12.5011 9.27797 13.4661 8.38297 14.6161 8.42097C15.7541 8.38397 16.7131 9.25897 16.7741 10.39ZM20.6811 12.11C19.6761 13.242 18.3971 14.1 16.9661 14.605C17.1961 15.334 17.3161 16.093 17.3221 16.858C17.3221 18.879 16.2201 20.797 14.1281 20.797C14.0411 20.802 13.9541 20.802 13.8671 20.794C12.8981 20.712 12.1781 19.864 12.2611 18.899V15.99C12.5221 16.044 12.7871 16.072 13.0531 16.075C14.2311 16.106 15.2961 15.38 15.6931 14.276C15.7141 14.218 15.7311 14.162 15.7451 14.109C15.7391 14.125 15.7331 14.141 15.7261 14.157C15.2781 15.212 14.2011 15.863 13.0531 15.772C12.6171 15.744 12.1851 15.667 11.7661 15.542V18.897C11.7741 18.99 11.7751 19.084 11.7681 19.178C11.6951 20.14 10.8531 20.861 9.88613 20.789C8.08413 20.796 5.80113 18.826 7.04813 14.597C5.61713 14.095 4.34013 13.236 3.33913 12.102C2.98913 11.636 3.35913 11.111 3.89313 11.485C4.01713 11.572 4.14213 11.655 4.26913 11.736V4.70897C4.27313 3.87097 4.96013 3.19597 5.80213 3.19997C5.81213 3.19997 5.82213 3.19997 5.83113 3.19997H18.2691C19.1041 3.20497 19.7801 3.87697 19.7851 4.70797V11.694C19.8871 11.627 19.9891 11.558 20.0891 11.486C20.6241 11.112 21.0061 11.637 20.6831 12.109L20.6811 12.11ZM19.1241 12.091V4.71097C19.1211 4.23997 18.7381 3.85997 18.2651 3.85697H5.81613C5.33913 3.84397 4.94113 4.21797 4.92813 4.69297C4.92813 4.69897 4.92813 4.70597 4.92813 4.71197V12.12C6.55413 12.979 8.40313 13.357 10.2541 13.194H10.2401C11.1041 13.149 11.2901 13.234 11.6261 13.542C11.8271 13.733 12.0271 13.9 12.2251 14.04C12.2831 13.129 12.9561 13.194 13.5871 13.194C15.5121 13.404 17.4441 13.012 19.1241 12.091ZM9.59413 8.42097C8.45613 8.38297 7.49613 9.25897 7.43613 10.39V10.393C7.47713 11.538 8.44313 12.433 9.59413 12.392C9.60413 12.392 9.61313 12.392 9.62313 12.392C10.7781 12.42 11.7371 11.511 11.7661 10.362C11.6921 9.23597 10.7281 8.37397 9.59513 8.41897L9.59413 8.42097Z"/>
</svg>
