<svg width="24" height="24" viewBox="0 0 24 24" xmlns="http://www.w3.org/2000/svg">
<path d="M17.1471 12.0731C17.0831 12.1191 17.0191 12.1621 16.9541 12.2051V7.7601C16.9511 7.2311 16.5211 6.8031 15.9891 6.8001H8.0741C8.0681 6.8001 8.0621 6.8001 8.0551 6.8001C7.5191 6.7971 7.0821 7.2271 7.0801 7.7601V12.2321C6.9991 12.1811 6.9191 12.1281 6.8411 12.0721C6.5011 11.8341 6.2661 12.1681 6.4881 12.4651C7.1251 13.1871 7.9381 13.7331 8.8491 14.0531C8.0551 16.7441 9.5081 17.9971 10.6551 17.9931C11.2701 18.0391 11.8071 17.5801 11.8531 16.9681C11.8571 16.9091 11.8571 16.8491 11.8531 16.7891V14.6541C12.1201 14.7331 12.3941 14.7821 12.6721 14.8001C13.4021 14.8581 14.0881 14.4431 14.3731 13.7721C14.3771 13.7621 14.3811 13.7511 14.3851 13.7411C14.3761 13.7751 14.3651 13.8101 14.3521 13.8471C14.1001 14.5501 13.4221 15.0121 12.6721 14.9921C12.5031 14.9901 12.3341 14.9721 12.1681 14.9381V16.7891C12.1161 17.4031 12.5731 17.9431 13.1901 17.9951C13.2451 18.0001 13.3011 18.0001 13.3561 17.9971C14.6871 17.9971 15.3891 16.7771 15.3891 15.4901C15.3851 15.0041 15.3091 14.5211 15.1621 14.0561C16.0731 13.7351 16.8861 13.1891 17.5261 12.4691C17.7321 12.1681 17.4881 11.8341 17.1481 12.0721L17.1471 12.0731ZM13.0101 13.1591C12.6081 13.1591 12.1811 13.1181 12.1431 13.6971C12.0171 13.6081 11.8901 13.5021 11.7621 13.3801C11.5481 13.1841 11.4301 13.1301 10.8801 13.1591H10.8891C9.7111 13.2631 8.5351 13.0231 7.5001 12.4761V7.7621C7.5001 7.7621 7.5001 7.7541 7.5001 7.7501C7.5081 7.4481 7.7611 7.2101 8.0651 7.2181H15.9871C16.2881 7.2201 16.5321 7.4621 16.5341 7.7621V12.4581C15.4651 13.0441 14.2351 13.2931 13.0111 13.1601L13.0101 13.1591ZM15.0381 11.3771C15.0121 12.1061 14.3971 12.6751 13.6651 12.6501C12.9411 12.6741 12.3301 12.1171 12.2921 11.3971C12.3191 10.6691 12.9331 10.0991 13.6651 10.1231C14.3891 10.1001 14.9991 10.6571 15.0381 11.3771ZM11.8501 11.3581C11.8321 12.0891 11.2221 12.6671 10.4871 12.6501C10.4811 12.6501 10.4751 12.6501 10.4691 12.6501C9.7371 12.6761 9.1221 12.1061 9.0961 11.3781C9.0961 11.3781 9.0961 11.3771 9.0961 11.3761C9.1351 10.6561 9.7451 10.0991 10.4691 10.1231C11.1901 10.0941 11.8031 10.6431 11.8511 11.3601L11.8501 11.3581ZM12.0001 22.4001C6.2651 22.4001 1.6001 17.7351 1.6001 12.0001C1.6001 6.2651 6.2651 1.6001 12.0001 1.6001C17.7351 1.6001 22.4001 6.2651 22.4001 12.0001C22.4001 17.7351 17.7351 22.4001 12.0001 22.4001ZM12.0001 3.2001C7.1481 3.2001 3.2001 7.1481 3.2001 12.0001C3.2001 16.8521 7.1481 20.8001 12.0001 20.8001C16.8521 20.8001 20.8001 16.8521 20.8001 12.0001C20.8001 7.1481 16.8521 3.2001 12.0001 3.2001Z"/>
</svg>
