<svg width="24" height="24" viewBox="0 0 24 24" xmlns="http://www.w3.org/2000/svg">
<path d="M19.4831 3.75595C19.1791 3.40295 18.7371 3.19995 18.2711 3.19995H5.72907C5.26307 3.19995 4.82107 3.40295 4.51707 3.75595C4.21307 4.10895 4.07807 4.57595 4.14707 5.03695L6.30707 19.437C6.42507 20.227 7.09107 20.8 7.88907 20.8H16.1111C16.9091 20.8 17.5751 20.227 17.6931 19.437L19.8531 5.03695C19.9221 4.57595 19.7871 4.10895 19.4831 3.75595ZM18.2711 4.79995L17.6951 8.63795C15.6501 7.57395 13.0831 7.83395 11.4611 9.30895C10.1741 10.479 8.17907 10.741 6.81807 9.91895L6.46207 9.69695L5.72807 4.79995H18.2711ZM16.1111 19.2H7.88907L6.75807 11.662C7.35207 11.889 7.99007 12 8.63507 12C10.0251 12 11.4491 11.483 12.5381 10.492C13.7241 9.41295 15.6591 9.27795 17.1531 10.165L17.4351 10.376L16.1111 19.2Z"/>
</svg>
