<svg width="24" height="24" viewBox="0 0 24 24" xmlns="http://www.w3.org/2000/svg">
<path d="M2.8011 21.835C2.6461 21.835 2.4901 21.805 2.3411 21.743C1.8911 21.5569 1.6001 21.121 1.6001 20.634V3.19995H22.4001V18.4H6.7311L3.6481 21.483C3.4181 21.713 3.1121 21.835 2.8011 21.835ZM3.2001 4.79995V19.669L5.7171 17.152C5.9441 16.925 6.2451 16.801 6.5661 16.801H20.8001V4.79995H3.2001ZM12.6691 12.4H11.1751C11.1601 12.241 11.1661 12.308 11.1591 12.176C11.1521 12.044 11.1481 11.903 11.1481 11.752C11.1481 11.527 11.1791 11.325 11.2411 11.145C11.3031 10.965 11.3871 10.802 11.4931 10.657C11.5991 10.512 11.7251 10.381 11.8711 10.265C12.0171 10.149 12.1721 10.042 12.3361 9.94495C12.4891 9.85195 12.6221 9.76395 12.7351 9.68095C12.8481 9.59795 12.9411 9.51095 13.0141 9.41895C13.0871 9.32795 13.1421 9.22695 13.1781 9.11695C13.2141 9.00695 13.2331 8.87795 13.2331 8.73095C13.2331 8.49495 13.1411 8.30095 12.9571 8.14995C12.7731 7.99895 12.5131 7.92295 12.1771 7.92295C11.9841 7.92295 11.7921 7.95295 11.6021 8.01295C11.4121 8.07295 11.2341 8.15195 11.0661 8.24795C10.8981 8.34495 10.7421 8.45795 10.5981 8.58795C10.4541 8.71795 10.3311 8.85195 10.2291 8.99195L9.2001 7.82995C9.3571 7.63195 9.5411 7.44595 9.7531 7.27195C9.9651 7.09795 10.2011 6.94695 10.4621 6.81895C10.7231 6.69095 11.0131 6.58895 11.3321 6.51395C11.6511 6.43795 11.9971 6.40095 12.3691 6.40095C12.7921 6.40095 13.1681 6.45495 13.4961 6.56395C13.8241 6.67295 14.1001 6.82395 14.3221 7.01695C14.5441 7.21095 14.7131 7.44095 14.8281 7.70895C14.9431 7.97595 15.0001 8.26695 15.0001 8.58095C15.0001 8.85595 14.9651 9.09895 14.8961 9.30995C14.8271 9.52095 14.7331 9.70695 14.6141 9.86795C14.4951 10.029 14.3561 10.171 14.1951 10.295C14.0341 10.419 13.8631 10.533 13.6811 10.638C13.4261 10.777 13.2291 10.903 13.0901 11.016C12.9511 11.128 12.8511 11.253 12.7891 11.391C12.7271 11.529 12.6911 11.693 12.6821 11.885C12.6731 12.077 12.6681 12.108 12.6681 12.402L12.6691 12.4ZM12.0001 13.4C11.5031 13.4 11.1001 13.803 11.1001 14.3C11.1001 14.797 11.5031 15.2 12.0001 15.2C12.4971 15.2 12.9001 14.797 12.9001 14.3C12.9001 13.803 12.4971 13.4 12.0001 13.4Z"/>
</svg>
