<svg width="24" height="24" viewBox="0 0 24 24" xmlns="http://www.w3.org/2000/svg">
<path d="M10.4999 18.3001C10.4999 18.7971 10.0969 19.2001 9.5999 19.2001C9.1029 19.2001 8.6999 18.7971 8.6999 18.3001C8.6999 17.8031 9.1029 17.4001 9.5999 17.4001C10.0969 17.4001 10.4999 17.8031 10.4999 18.3001ZM15.1999 16.8001V20.4001C15.1999 20.6211 15.0209 20.8001 14.7999 20.8001H4.3999C4.1789 20.8001 3.9999 20.6211 3.9999 20.4001V3.6001C3.9999 3.3791 4.1789 3.2001 4.3999 3.2001H14.7999C15.0209 3.2001 15.1999 3.3791 15.1999 3.6001V4.8001H16.7999V3.6001C16.7999 2.4971 15.9029 1.6001 14.7999 1.6001H4.3999C3.2969 1.6001 2.3999 2.4971 2.3999 3.6001V20.4001C2.3999 21.5031 3.2969 22.4001 4.3999 22.4001H14.7999C15.9029 22.4001 16.7999 21.5031 16.7999 20.4001V16.8001H15.1999ZM21.5999 6.4001V15.2001H10.3999V6.4001H21.5999ZM13.3889 8.0001L15.9999 10.2031L18.6109 8.0001H13.3889ZM19.9999 13.6001V8.9221L16.6359 11.7601C16.4519 11.9151 16.2259 11.9931 15.9999 11.9931C15.7739 11.9931 15.5479 11.9151 15.3639 11.7601L11.9999 8.9221V13.6001H19.9999Z"/>
</svg>
