<svg width="24" height="24" viewBox="0 0 24 24" xmlns="http://www.w3.org/2000/svg">
<path d="M20.8 16.4459C20.798 16.5009 20.786 16.5549 20.763 16.6039C20.587 17.0139 19.83 17.3159 18.45 17.5249C18.399 17.5819 18.355 17.7909 18.325 17.9279C18.298 18.0639 18.263 18.1979 18.222 18.3309C18.174 18.5129 18.005 18.6359 17.818 18.6259H17.796C17.663 18.6199 17.53 18.6029 17.399 18.5759C17.09 18.5099 16.775 18.4759 16.46 18.4749C16.236 18.4759 16.013 18.4949 15.792 18.5319C15.344 18.6039 14.969 18.8699 14.529 19.1729C13.905 19.6119 13.193 20.1009 12.113 20.1009H11.893C10.813 20.1009 10.101 19.6049 9.47698 19.1729C9.03598 18.8639 8.66198 18.6059 8.21398 18.5319C7.99098 18.4949 7.76498 18.4759 7.53898 18.4749C7.22298 18.4759 6.90798 18.5099 6.59898 18.5759C6.46898 18.6089 6.33598 18.6279 6.20198 18.6329C6.00598 18.6489 5.82698 18.5219 5.77698 18.3309C5.73298 18.1939 5.70398 18.0579 5.67398 17.9279C5.64398 17.7979 5.59298 17.5829 5.54898 17.5179C4.17598 17.3099 3.41298 17.0069 3.23698 16.5969C3.21398 16.5479 3.20098 16.4939 3.19998 16.4389C3.18798 16.2549 3.31898 16.0919 3.50098 16.0649C5.88698 15.6759 6.96698 13.2739 7.01098 13.1729L7.01798 13.1589C7.14998 12.8999 7.17898 12.6909 7.10598 12.5259C6.96698 12.2029 6.45998 12.0509 6.12198 11.9439C6.02698 11.9149 5.93898 11.8869 5.86498 11.8579C5.05198 11.5409 4.93398 11.1749 4.98498 10.9299C5.05898 10.5849 5.48398 10.3549 5.84398 10.3549C5.93998 10.3549 6.03398 10.3749 6.12298 10.4119C6.37498 10.5349 6.64998 10.6059 6.92998 10.6199C7.04898 10.6259 7.16798 10.5999 7.27498 10.5459C7.25998 10.4089 7.25298 10.2649 7.24598 10.1289C7.17298 8.9629 7.07698 7.5029 7.46598 6.6479C8.62598 4.1019 11.086 3.8999 11.813 3.8999H12.166C12.893 3.8999 15.36 4.0939 16.521 6.6429C16.91 7.5059 16.814 8.9589 16.741 10.1309V10.1809C16.734 10.3119 16.726 10.4269 16.719 10.5489C16.81 10.5949 16.91 10.6199 17.012 10.6229C17.275 10.6009 17.531 10.5309 17.768 10.4149C17.876 10.3719 17.99 10.3499 18.106 10.3499C18.232 10.3499 18.357 10.3739 18.473 10.4239C18.796 10.5389 19.002 10.7689 19.009 11.0279C19.016 11.3539 18.716 11.6399 18.121 11.8699C18.048 11.8989 17.959 11.9269 17.864 11.9559C17.527 12.0639 17.02 12.2229 16.881 12.5389C16.808 12.7039 16.837 12.9199 16.962 13.1709L16.969 13.1859C17.013 13.2869 18.085 15.6889 20.478 16.0769C20.661 16.1039 20.797 16.2599 20.8 16.4459Z"/>
</svg>
