<svg width="24" height="24" viewBox="0 0 24 24" xmlns="http://www.w3.org/2000/svg">
<path d="M21.531 6.00001L22.365 6.83401L21.234 7.96501L20.068 6.79901H18.799V8.06801L19.965 9.23401L18.834 10.365L18 9.53101L17.166 10.365L16.035 9.23401L17.201 8.06801V6.79901H15.932L14.766 7.96501L13.635 6.83401L14.469 6.00001L13.635 5.16601L14.766 4.03501L15.932 5.20101H17.201V3.93201L16.035 2.76601L17.166 1.63501L18 2.46901L18.834 1.63501L19.965 2.76601L18.799 3.93201V5.20101H20.068L21.234 4.03501L22.365 5.16601L21.531 6.00001ZM22.4 15.4V19.2C22.4 19.862 21.862 20.4 21.2 20.4H18.983C18.638 21.555 17.566 22.4 16.3 22.4C15.034 22.4 13.962 21.555 13.617 20.4H10.383C10.038 21.555 8.966 22.4 7.7 22.4C6.156 22.4 4.9 21.144 4.9 19.6C4.9 18.056 6.156 16.8 7.7 16.8C8.966 16.8 10.038 17.645 10.383 18.8H13.617C13.962 17.645 15.034 16.8 16.3 16.8C17.566 16.8 18.638 17.645 18.983 18.8H20.8V15.8H18.566C18.245 15.8 17.944 15.675 17.718 15.449L13.469 11.2H6.732L3.201 14.731V17H1.601V14.566C1.601 14.245 1.726 13.944 1.952 13.717L5.718 9.95101C5.945 9.72401 6.246 9.60001 6.566 9.60001H13.635C13.956 9.60001 14.257 9.72501 14.483 9.95101L18.732 14.2H21.201C21.863 14.2 22.4 14.738 22.4 15.4ZM8.9 19.6C8.9 18.938 8.362 18.4 7.7 18.4C7.038 18.4 6.5 18.938 6.5 19.6C6.5 20.262 7.038 20.8 7.7 20.8C8.362 20.8 8.9 20.262 8.9 19.6ZM17.5 19.6C17.5 18.938 16.962 18.4 16.3 18.4C15.638 18.4 15.1 18.938 15.1 19.6C15.1 20.262 15.638 20.8 16.3 20.8C16.962 20.8 17.5 20.262 17.5 19.6ZM2.4 18.6C1.903 18.6 1.5 19.003 1.5 19.5C1.5 19.997 1.903 20.4 2.4 20.4C2.897 20.4 3.3 19.997 3.3 19.5C3.3 19.003 2.897 18.6 2.4 18.6Z"/>
</svg>
