<svg width="24" height="24" viewBox="0 0 24 24" xmlns="http://www.w3.org/2000/svg">
<path d="M21.2 8.79995H19.47C19.349 8.08895 19.068 7.43095 18.667 6.86495L19.797 5.73495L18.666 4.60395L17.536 5.73395C16.97 5.33195 16.313 5.05195 15.601 4.92995V3.19995H14.001V4.92995C13.29 5.05195 12.632 5.33195 12.066 5.73395L10.936 4.60395L9.80501 5.73495L10.935 6.86495C10.533 7.43095 10.253 8.08795 10.132 8.79995H2.77701C2.38301 8.79995 2.01501 8.99295 1.79101 9.31695C1.56701 9.64095 1.51601 10.053 1.65401 10.422L4.95401 19.222C5.12901 19.688 5.58001 20.0009 6.07801 20.0009H16.024C16.418 20.0009 16.786 19.8079 17.01 19.4839C17.234 19.1599 17.285 18.7479 17.147 18.3789L15.606 14.269C16.315 14.147 16.971 13.867 17.536 13.467L18.666 14.597L19.797 13.466L18.667 12.336C19.069 11.77 19.349 11.113 19.47 10.401H21.2V8.79995ZM12.446 10.4L13.646 13.6H11.755L10.555 10.4H12.446ZM8.15401 13.6L6.95401 10.4H8.84501L10.045 13.6H8.15401ZM10.646 15.2L11.846 18.4H9.95501L8.75501 15.2H10.646ZM5.24601 10.4L6.44601 13.6H4.55501L3.35501 10.4H5.24601ZM5.15401 15.2H7.04501L8.24501 18.4H6.35401L5.15401 15.2ZM13.554 18.4L12.354 15.2H14.245L15.445 18.4H13.554ZM15.028 12.729L13.847 9.57795C13.672 9.11195 13.221 8.79895 12.723 8.79895H11.765C12.12 7.45495 13.346 6.46095 14.8 6.46095C16.531 6.46095 17.938 7.86895 17.938 9.59895C17.938 11.3289 16.652 12.611 15.027 12.728L15.028 12.729Z"/>
</svg>
