<svg width="24" height="24" viewBox="0 0 24 24" xmlns="http://www.w3.org/2000/svg">
<path d="M7.7111 14.3521C7.6851 14.3231 7.6701 14.2861 7.6691 14.2471C7.6691 14.2061 7.6451 13.8731 7.6211 13.5051L7.5731 12.8261L7.6271 11.6281C7.6811 10.4061 7.6871 10.3651 7.7831 10.3651C7.8101 10.3681 7.8361 10.3801 7.8551 10.4001C7.8911 10.4291 7.9031 10.5831 7.9631 11.6111L8.0291 12.7921L7.9631 13.5641C7.9211 13.9911 7.8851 14.3531 7.8671 14.3711C7.8221 14.4101 7.7551 14.4051 7.7161 14.3601C7.7141 14.3581 7.7121 14.3551 7.7111 14.3521ZM8.3581 14.3911C8.4121 14.3911 8.4841 14.3271 8.4841 14.2861C8.5021 14.0341 8.5201 13.7771 8.5441 13.5261L8.6041 12.7951L8.5441 11.3741C8.5141 10.5961 8.4781 9.9351 8.4721 9.9061C8.4421 9.7711 8.2741 9.7951 8.2501 9.9351C8.2441 9.9821 8.2201 10.3681 8.2081 10.8121C8.1961 11.2561 8.1721 11.8761 8.1601 12.1861C8.1421 12.6771 8.1481 12.8641 8.1901 13.5191C8.2321 14.0691 8.2501 14.2971 8.2801 14.3381C8.3031 14.3601 8.3291 14.3781 8.3581 14.3901V14.3911ZM8.8691 14.3471C8.8981 14.3681 8.9301 14.3821 8.9651 14.3881C9.0251 14.3881 9.0971 14.3231 9.0971 14.2831C9.0971 14.2651 9.1211 13.9201 9.1511 13.5171L9.2051 12.7741L9.1511 11.3001C9.1271 10.4871 9.0971 9.7741 9.0971 9.7211C9.0971 9.6041 9.0251 9.5391 8.9291 9.5631C8.8511 9.5801 8.8271 9.6681 8.8211 9.9601C8.8211 10.1011 8.8031 10.6801 8.7791 11.2471C8.7371 12.4451 8.7311 12.9541 8.7671 13.3411C8.7791 13.4931 8.7971 13.7741 8.8091 13.9611C8.8211 14.2471 8.8271 14.3061 8.8691 14.3471ZM9.4521 14.3481C9.5111 14.4021 9.6001 14.4041 9.6621 14.3531C9.7161 14.3121 9.7221 14.2421 9.7701 13.5051C9.8121 12.8501 9.8061 12.5341 9.7401 10.5461C9.7161 9.8331 9.6981 9.5171 9.6741 9.4941C9.6101 9.4531 9.5281 9.4531 9.4641 9.4941C9.4161 9.5401 9.4041 9.7101 9.3561 11.5051C9.3141 12.8021 9.3141 12.8971 9.3981 14.1431C9.4101 14.2481 9.4221 14.3121 9.4521 14.3481ZM10.0381 14.3471L10.0321 14.3411C10.0611 14.3701 10.0991 14.3881 10.1401 14.3931C10.2221 14.3871 10.2911 14.3271 10.3101 14.2451C10.3221 13.9791 10.3401 13.7161 10.3581 13.4531C10.3881 13.0531 10.4061 12.7051 10.4001 12.6871C10.3941 12.6691 10.3881 12.3771 10.3761 12.0261C10.3641 11.6751 10.3461 11.0611 10.3341 10.6521C10.3221 10.2431 10.3101 9.8451 10.3101 9.7691C10.3101 9.5991 10.2381 9.5061 10.1241 9.5291C9.9921 9.5561 9.9921 9.5291 9.9501 11.2351C9.9081 12.7081 9.9081 12.8771 9.9501 13.4861C9.9741 13.8521 9.9921 14.1761 9.9921 14.2171C9.9921 14.2641 10.0091 14.3101 10.0401 14.3461L10.0381 14.3471ZM10.6401 14.3471V14.3411H10.6341C10.6991 14.3931 10.7911 14.3931 10.8561 14.3411C10.9161 14.2941 10.9221 14.2711 10.9641 13.5571C11.0131 12.8951 11.0131 12.7271 10.9881 11.9201C10.9761 11.4281 10.9521 10.8151 10.9461 10.5631C10.9221 9.7621 10.9221 9.7211 10.8741 9.6741C10.8371 9.6431 10.7901 9.6261 10.7421 9.6271C10.5921 9.6271 10.5921 9.6451 10.5621 10.5741C10.5081 12.3111 10.5021 12.8491 10.5321 13.3581C10.5861 14.2351 10.5921 14.3001 10.6401 14.3471ZM11.2351 14.3471C11.2461 14.3581 11.2591 14.3681 11.2731 14.3761C11.3581 14.4231 11.4641 14.3921 11.5111 14.3061C11.5651 14.2071 11.6251 12.7971 11.6071 11.9911C11.5471 9.3191 11.5411 9.1461 11.4811 9.0851C11.4111 9.0271 11.3111 9.0271 11.2411 9.0851C11.1931 9.1371 11.1811 9.3541 11.1511 10.7401C11.1451 11.0851 11.1271 11.6701 11.1211 12.0551C11.1091 12.6751 11.1331 13.7221 11.1751 14.1431C11.1871 14.2541 11.1991 14.3111 11.2351 14.3471ZM11.8471 14.3481C11.8861 14.3731 11.9281 14.3901 11.9731 14.4001C12.0451 14.4001 12.1591 14.2971 12.1591 14.2361C12.1711 14.0371 12.1831 13.8331 12.2011 13.6341C12.2371 13.1421 12.2611 11.5521 12.2311 11.5111C12.2251 11.5051 12.2131 11.0611 12.2011 10.5231C12.1891 9.9841 12.1831 9.5231 12.1771 9.4871C12.1711 9.4521 12.1651 9.2881 12.1651 9.1241C12.1591 8.8431 12.1531 8.8201 12.0991 8.7671C12.0291 8.6971 11.9171 8.6921 11.8411 8.7551C11.7751 8.8201 11.7631 8.9301 11.7451 10.0591C11.7331 10.5521 11.7151 11.3521 11.7031 11.8311C11.6851 12.5211 11.6911 12.8601 11.7211 13.4211C11.7391 13.8191 11.7631 14.1701 11.7691 14.2161C11.7751 14.2681 11.8041 14.3161 11.8471 14.3451V14.3481ZM12.3921 14.3341L12.4581 14.3871L17.8121 14.3761L17.9921 14.3111C18.4731 14.1421 18.7851 13.8721 19.0071 13.4461C19.4871 12.5281 19.0381 11.4141 18.0471 11.0481C17.8251 10.9661 17.8071 10.9661 17.4651 10.9481C17.3001 10.9321 17.1331 10.9481 16.9731 10.9951L16.7511 11.0561L16.7331 10.9681C16.5171 9.6171 15.5741 8.6291 14.2481 8.3601C13.8591 8.2951 13.4621 8.2901 13.0721 8.3481C12.7781 8.4131 12.4771 8.5061 12.3991 8.5641L12.3331 8.6111V14.2741L12.3931 14.3351L12.3921 14.3341ZM7.1231 14.3071V14.3091C7.1291 14.3471 7.1631 14.3731 7.2011 14.3681C7.2431 14.3681 7.2731 14.3511 7.2851 14.3161C7.2971 14.2811 7.3331 13.9181 7.3691 13.5031L7.4351 12.7481L7.3691 12.0351C7.3031 11.3391 7.2791 11.2511 7.2011 11.2511C7.1351 11.2511 7.0991 11.3631 7.0811 11.5901C7.0751 11.7191 7.0511 12.0351 7.0271 12.2921C6.9911 12.7561 6.9911 12.7861 7.0451 13.5111C7.0811 13.9271 7.1111 14.2831 7.1231 14.3121V14.3071ZM6.5581 14.3231C6.5761 14.3581 6.6961 14.3471 6.7081 14.3181C6.7141 14.3001 6.7501 13.9491 6.7921 13.5341L6.8641 12.7791L6.7921 12.0021C6.7501 11.5691 6.7081 11.2071 6.6901 11.1891C6.6861 11.1831 6.6811 11.1781 6.6751 11.1741C6.6421 11.1491 6.5951 11.1561 6.5701 11.1891C6.5581 11.2071 6.5161 11.5751 6.4801 12.0081L6.4151 12.7921L6.4811 13.5461C6.5171 13.9611 6.5521 14.3121 6.5581 14.3231ZM6.1201 14.2421C6.1321 14.2071 6.1741 13.8621 6.2161 13.4701L6.2881 12.7501L6.2101 12.0081C6.1621 11.5751 6.1201 11.2531 6.1021 11.2361C6.0481 11.1891 6.0001 11.2301 5.9821 11.3411C5.9761 11.3931 5.9461 11.7501 5.9101 12.1251L5.8501 12.8041L5.9161 13.5231C5.9521 13.9151 5.9881 14.2481 6.0001 14.2661C6.0361 14.3131 6.0901 14.3031 6.1201 14.2421ZM5.4361 14.0251H5.4481C5.4661 14.0831 5.5261 14.0771 5.5561 14.0131C5.5681 13.9841 5.6101 13.6911 5.6521 13.3631L5.7251 12.7701L5.6521 12.2031C5.5501 11.4371 5.5501 11.4661 5.4961 11.4781C5.4421 11.4901 5.4301 11.5191 5.3641 12.1211L5.2921 12.7521L5.3581 13.3721C5.3941 13.7111 5.4301 14.0091 5.4361 14.0321V14.0231V14.0251ZM4.9861 13.5931C5.0041 13.5811 5.0461 13.3941 5.0821 13.1771L5.1421 12.7851L5.0821 12.3931C5.0281 12.0081 4.9861 11.9061 4.9321 11.9661C4.8961 12.1061 4.8701 12.2491 4.8541 12.3931L4.8001 12.7851L4.8481 13.1591C4.8661 13.2941 4.8901 13.4341 4.9141 13.5681C4.9261 13.6211 4.9381 13.6271 4.9861 13.5931ZM12.0001 22.4001C6.2651 22.4001 1.6001 17.7351 1.6001 12.0001C1.6001 6.2651 6.2651 1.6001 12.0001 1.6001C17.7351 1.6001 22.4001 6.2651 22.4001 12.0001C22.4001 17.7351 17.7351 22.4001 12.0001 22.4001ZM12.0001 3.2001C7.1481 3.2001 3.2001 7.1481 3.2001 12.0001C3.2001 16.8521 7.1481 20.8001 12.0001 20.8001C16.8521 20.8001 20.8001 16.8521 20.8001 12.0001C20.8001 7.1481 16.8521 3.2001 12.0001 3.2001Z"/>
</svg>
