<svg width="24" height="24" viewBox="0 0 24 24" xmlns="http://www.w3.org/2000/svg">
<path d="M5.8051 16.3309C5.7681 16.2889 5.7461 16.2349 5.7441 16.1789C5.7441 16.1199 5.7091 15.6389 5.6751 15.1069L5.6061 14.1269L5.6841 12.3959C5.7621 10.6309 5.7711 10.5719 5.9091 10.5719C5.9481 10.5759 5.9851 10.5939 6.0131 10.6219C6.0651 10.6639 6.0821 10.8859 6.1691 12.3709L6.2641 14.0769L6.1691 15.1919C6.1081 15.8079 6.0561 16.3319 6.0301 16.3569C5.9661 16.4139 5.8681 16.4069 5.8121 16.3409C5.8091 16.3379 5.8081 16.3349 5.8051 16.3309ZM6.7401 16.3869C6.8181 16.3869 6.9221 16.2949 6.9221 16.2359C6.9481 15.8729 6.9741 15.5009 7.0091 15.1379L7.0961 14.0819L7.0091 12.0299C6.9661 10.9059 6.9141 9.95191 6.9051 9.90991C6.8621 9.71591 6.6191 9.74991 6.5841 9.95191C6.5751 10.0199 6.5411 10.5779 6.5231 11.2189C6.5051 11.8599 6.4711 12.7559 6.4541 13.2039C6.4281 13.9129 6.4371 14.1839 6.4971 15.1299C6.5581 15.9249 6.5841 16.2539 6.6271 16.3129C6.6601 16.3449 6.6981 16.3709 6.7401 16.3889V16.3869ZM7.4781 16.3229C7.5191 16.3529 7.5671 16.3729 7.6171 16.3819C7.7041 16.3819 7.8081 16.2889 7.8081 16.2299C7.8081 16.2039 7.8431 15.7059 7.8861 15.1239L7.9641 14.0509L7.8861 11.9219C7.8511 10.7479 7.8081 9.71691 7.8081 9.64191C7.8081 9.47291 7.7041 9.37991 7.5651 9.41391C7.4521 9.43891 7.4181 9.56491 7.4091 9.98791C7.4091 10.1909 7.3831 11.0269 7.3481 11.8469C7.2871 13.5779 7.2791 14.3129 7.3311 14.8709C7.3481 15.0899 7.3741 15.4959 7.3921 15.7659C7.4091 16.1799 7.4181 16.2639 7.4791 16.3239L7.4781 16.3229ZM8.3201 16.3239C8.4051 16.4019 8.5341 16.4059 8.6231 16.3319C8.7011 16.2729 8.7101 16.1719 8.7791 15.1079C8.8401 14.1619 8.8311 13.7049 8.7361 10.8329C8.7011 9.80191 8.6751 9.34691 8.6411 9.31291C8.5481 9.25291 8.4301 9.25291 8.3381 9.31291C8.2691 9.37891 8.2511 9.62491 8.1821 12.2169C8.1211 14.0909 8.1211 14.2269 8.2431 16.0269C8.2601 16.1779 8.2781 16.2719 8.3211 16.3229L8.3201 16.3239ZM9.1661 16.3229L9.1571 16.3139C9.1991 16.3559 9.2541 16.3829 9.3131 16.3899C9.4321 16.3809 9.5321 16.2939 9.5581 16.1759C9.5751 15.7919 9.6011 15.4119 9.6271 15.0319C9.6701 14.4539 9.6961 13.9509 9.6881 13.9259C9.6801 13.9009 9.6711 13.4779 9.6531 12.9709C9.6361 12.4639 9.6101 11.5779 9.5921 10.9859C9.5751 10.3949 9.5571 9.81991 9.5571 9.71091C9.5571 9.46491 9.4531 9.33091 9.2881 9.36391C9.0971 9.40391 9.0971 9.36391 9.0371 11.8279C8.9761 13.9559 8.9761 14.1999 9.0371 15.0799C9.0721 15.6079 9.0981 16.0769 9.0981 16.1359C9.0981 16.2049 9.1221 16.2709 9.1661 16.3229ZM10.0361 16.3229V16.3139H10.0271C10.1211 16.3889 10.2541 16.3889 10.3481 16.3139C10.4351 16.2459 10.4431 16.2129 10.5041 15.1819C10.5741 14.2249 10.5741 13.9819 10.5391 12.8169C10.5221 12.1069 10.4871 11.2209 10.4781 10.8569C10.4431 9.69991 10.4431 9.64091 10.3741 9.57291C10.3201 9.52791 10.2531 9.50391 10.1831 9.50491C9.9661 9.50491 9.9661 9.53091 9.9231 10.8739C9.8451 13.3829 9.8361 14.1599 9.8801 14.8949C9.9581 16.1609 9.9671 16.2549 10.0361 16.3229ZM10.8951 16.3229C10.9111 16.3389 10.9301 16.3529 10.9501 16.3639C11.0721 16.4319 11.2261 16.3869 11.2941 16.2629C11.3721 16.1199 11.4591 14.0839 11.4331 12.9189C11.3461 9.05891 11.3381 8.80891 11.2511 8.72091C11.1501 8.63691 11.0051 8.63691 10.9041 8.72091C10.8351 8.79691 10.8171 9.10891 10.7741 11.1109C10.7651 11.6089 10.7391 12.4539 10.7311 13.0109C10.7141 13.9069 10.7481 15.4189 10.8091 16.0269C10.8261 16.1869 10.8441 16.2719 10.8961 16.3229H10.8951ZM11.7791 16.3239C11.8351 16.3599 11.8971 16.3849 11.9611 16.3999C12.0651 16.3999 12.2301 16.2509 12.2301 16.1629C12.2471 15.8759 12.2651 15.5799 12.2911 15.2929C12.3431 14.5829 12.3781 12.2859 12.3341 12.2269C12.3251 12.2179 12.3081 11.5769 12.2911 10.7989C12.2741 10.0209 12.2651 9.35391 12.2561 9.30291C12.2471 9.25191 12.2391 9.01591 12.2391 8.77891C12.2301 8.37291 12.2221 8.33991 12.1441 8.26291C12.0421 8.16191 11.8821 8.15391 11.7711 8.24591C11.6761 8.33891 11.6581 8.49891 11.6321 10.1289C11.6151 10.8409 11.5891 11.9969 11.5711 12.6889C11.5451 13.6849 11.5541 14.1749 11.5971 14.9859C11.6231 15.5609 11.6581 16.0679 11.6661 16.1349C11.6751 16.2109 11.7161 16.2789 11.7791 16.3219V16.3239ZM12.5661 16.3039L12.6611 16.3809L20.3941 16.3639L20.6541 16.2709C21.3481 16.0259 21.7991 15.6369 22.1201 15.0209C22.8131 13.6949 22.1641 12.0859 20.7331 11.5579C20.4121 11.4389 20.3861 11.4389 19.8921 11.4139C19.6531 11.3909 19.4121 11.4139 19.1811 11.4819L18.8601 11.5699L18.8341 11.4429C18.5221 9.49191 17.1601 8.06391 15.2441 7.67591C14.6821 7.58091 14.1091 7.57491 13.5451 7.65791C13.1201 7.75091 12.6861 7.88691 12.5731 7.96991L12.4781 8.03791V16.2179L12.5651 16.3059V16.3039H12.5661ZM4.9551 16.2649C4.9551 16.2649 4.9551 16.2669 4.9551 16.2679C4.9631 16.3229 5.0131 16.3609 5.0671 16.3529C5.1281 16.3529 5.1711 16.3279 5.1881 16.2769C5.2051 16.2259 5.2571 15.7019 5.3091 15.1029L5.4041 14.0129L5.3091 12.9829C5.2141 11.9769 5.1791 11.8499 5.0661 11.8499C4.9711 11.8499 4.9191 12.0109 4.8931 12.3399C4.8841 12.5259 4.8501 12.9819 4.8151 13.3539C4.7631 14.0249 4.7631 14.0669 4.8411 15.1139C4.8931 15.7139 4.9361 16.2289 4.9541 16.2709V16.2639L4.9551 16.2649ZM4.1391 16.2889C4.1651 16.3399 4.3381 16.3229 4.3561 16.2809C4.3651 16.2549 4.4171 15.7489 4.4771 15.1489L4.5811 14.0589L4.4771 12.9359C4.4161 12.3109 4.3561 11.7869 4.3301 11.7619C4.3241 11.7539 4.3171 11.7459 4.3081 11.7399C4.2601 11.7039 4.1921 11.7129 4.1561 11.7619C4.1391 11.7879 4.0781 12.3189 4.0261 12.9449L3.9321 14.0769L4.0271 15.1669C4.0791 15.7659 4.1311 16.2729 4.1401 16.2899L4.1391 16.2889ZM3.5071 16.1709C3.5241 16.1199 3.5851 15.6219 3.6461 15.0559L3.7501 14.0169L3.6371 12.9449C3.5681 12.3189 3.5071 11.8549 3.4811 11.8299C3.4031 11.7619 3.3341 11.8209 3.3081 11.9809C3.2991 12.0569 3.2561 12.5719 3.2041 13.1129L3.1171 14.0929L3.2121 15.1319C3.2641 15.6979 3.3161 16.1789 3.3331 16.2049C3.3851 16.2729 3.4631 16.2599 3.5061 16.1719L3.5071 16.1709ZM2.5191 15.8579H2.5361C2.5621 15.9419 2.6491 15.9339 2.6921 15.8409C2.7091 15.7989 2.7701 15.3759 2.8311 14.9029L2.9361 14.0469L2.8311 13.2279C2.6841 12.1219 2.6841 12.1639 2.6061 12.1809C2.5281 12.1979 2.5111 12.2399 2.4151 13.1099L2.3111 14.0219L2.4061 14.9179C2.4581 15.4069 2.5101 15.8389 2.5191 15.8719V15.8579ZM1.8691 15.2339C1.8951 15.2159 1.9561 14.9459 2.0081 14.6339L2.0951 14.0679L2.0081 13.5019C1.9301 12.9459 1.8691 12.7979 1.7911 12.8859C1.7391 13.0879 1.7011 13.2939 1.6781 13.5019L1.6001 14.0679L1.6691 14.6079C1.6951 14.8029 1.7301 15.0049 1.7641 15.1989C1.7811 15.2759 1.7991 15.2829 1.8681 15.2329L1.8691 15.2339Z"/>
</svg>
