<svg width="24" height="24" viewBox="0 0 24 24" xmlns="http://www.w3.org/2000/svg">
<path d="M11.9999 2.3999C6.6979 2.3999 2.3999 6.6979 2.3999 11.9999C2.3999 17.3019 6.6979 21.5999 11.9999 21.5999C17.3019 21.5999 21.5999 17.3019 21.5999 11.9999C21.5999 6.6979 17.3019 2.3999 11.9999 2.3999ZM16.3779 16.2339C16.2219 16.4879 15.9009 16.5869 15.6289 16.4639C15.5709 16.4349 15.5229 16.4059 15.4659 16.3779C14.4609 15.7829 13.3489 15.3919 12.1919 15.2259C11.4769 15.1199 10.7539 15.0819 10.0319 15.1109C9.1009 15.1509 8.1759 15.2729 7.2669 15.4759C7.1759 15.4979 7.0819 15.5109 6.9889 15.5139C6.7119 15.5139 6.4729 15.3159 6.4229 15.0439C6.3649 14.7659 6.5139 14.4869 6.7779 14.3819C6.8339 14.3619 6.8919 14.3459 6.9509 14.3339C7.6969 14.1629 8.4539 14.0439 9.2169 13.9789C9.6389 13.9409 10.0709 13.9309 10.4939 13.9019C11.7489 13.8989 12.9969 14.0969 14.1899 14.4879C14.8499 14.7069 15.4839 14.9969 16.0809 15.3519C16.1339 15.3809 16.1859 15.4129 16.2349 15.4479C16.4679 15.6399 16.5289 15.9729 16.3789 16.2349L16.3779 16.2339ZM17.5489 13.6219C17.3359 13.9709 16.8809 14.0829 16.5309 13.8719C16.3199 13.7569 16.1179 13.6319 15.9069 13.5259C14.9389 13.0439 13.9079 12.7019 12.8449 12.5079C12.0089 12.3529 11.1609 12.2749 10.3109 12.2779C9.1869 12.2749 8.0679 12.4329 6.9889 12.7479C6.8139 12.8069 6.6239 12.8039 6.4509 12.7379C6.1669 12.6229 5.9829 12.3439 5.9899 12.0369C5.9929 11.7229 6.1989 11.4469 6.4989 11.3549C6.8059 11.2589 7.1229 11.1819 7.4399 11.1049C8.2169 10.9389 9.0069 10.8389 9.8019 10.8069C11.5029 10.7349 13.2029 10.9659 14.8229 11.4889C15.6459 11.7539 16.4379 12.1079 17.1849 12.5449C17.2229 12.5639 17.2619 12.5929 17.2999 12.6119C17.6459 12.8219 17.7579 13.2729 17.5499 13.6199L17.5489 13.6219ZM17.6639 10.9059C17.2529 10.6689 16.8259 10.4609 16.3869 10.2819C15.5109 9.9369 14.5999 9.6849 13.6699 9.5329C13.0259 9.4179 12.3749 9.3409 11.7209 9.3029C11.0399 9.2609 10.3569 9.2579 9.6759 9.2929C8.8949 9.3269 8.1179 9.4229 7.3529 9.5809C7.0749 9.6389 6.7959 9.7149 6.5079 9.7919C6.3419 9.8399 6.1649 9.8399 5.9989 9.7919C5.6239 9.6859 5.3629 9.3469 5.3559 8.9569C5.3409 8.5709 5.5839 8.2219 5.9509 8.1029C6.2219 8.0149 6.4979 7.9409 6.7769 7.8819C7.4619 7.7239 8.1589 7.6179 8.8599 7.5649C9.6039 7.4989 10.3509 7.4769 11.0969 7.4979C12.9289 7.5289 14.7449 7.8399 16.4829 8.4199C17.1939 8.6609 17.8789 8.9729 18.5279 9.3509C18.7529 9.4749 18.9169 9.6869 18.9789 9.9369C18.9889 10.0039 18.9979 10.0619 19.0079 10.1289C19.0109 10.6229 18.6129 11.0249 18.1199 11.0279C17.9599 11.0279 17.8019 10.9869 17.6639 10.9059Z"/>
</svg>
