<svg width="24" height="24" viewBox="0 0 24 24" xmlns="http://www.w3.org/2000/svg">
<path d="M12.0001 4.8001C8.0241 4.8001 4.8001 8.0241 4.8001 12.0001C4.8001 15.9761 8.0241 19.2001 12.0001 19.2001C15.9761 19.2001 19.2001 15.9761 19.2001 12.0001C19.2001 8.0241 15.9761 4.8001 12.0001 4.8001ZM15.2831 15.1751C15.1661 15.3661 14.9251 15.4401 14.7211 15.3481C14.6781 15.3261 14.6421 15.3051 14.5991 15.2831C13.8451 14.8371 13.0111 14.5431 12.1441 14.4191C11.6081 14.3401 11.0661 14.3111 10.5241 14.3331C9.8261 14.3631 9.1321 14.4541 8.4501 14.6071C8.3821 14.6241 8.3121 14.6331 8.2411 14.6361C8.0331 14.6361 7.8541 14.4881 7.8161 14.2831C7.7721 14.0751 7.8851 13.8651 8.0821 13.7861C8.1241 13.7711 8.1681 13.7591 8.2121 13.7501C8.7711 13.6221 9.3391 13.5331 9.9111 13.4841C10.2281 13.4551 10.5521 13.4481 10.8691 13.4261C11.8101 13.4241 12.7461 13.5721 13.6411 13.8651C14.1361 14.0291 14.6111 14.2461 15.0591 14.5131C15.0991 14.5341 15.1371 14.5581 15.1741 14.5851C15.3491 14.7291 15.3951 14.9791 15.2831 15.1751ZM16.1621 13.2171C16.0031 13.4791 15.6611 13.5631 15.3991 13.4041C15.2411 13.3181 15.0891 13.2241 14.9311 13.1451C14.2051 12.7841 13.4321 12.5271 12.6341 12.3821C12.0071 12.2651 11.3711 12.2081 10.7331 12.2091C9.8901 12.2061 9.0511 12.3251 8.2421 12.5621C8.1111 12.6061 7.9681 12.6041 7.8391 12.5551C7.6261 12.4691 7.4881 12.2591 7.4931 12.0291C7.4951 11.7941 7.6501 11.5871 7.8751 11.5181C8.1051 11.4461 8.3431 11.3881 8.5811 11.3311C9.1641 11.2061 9.7571 11.1321 10.3521 11.1081C11.6281 11.0541 12.9031 11.2271 14.1181 11.6191C14.7361 11.8171 15.3301 12.0831 15.8891 12.4111C15.9181 12.4251 15.9471 12.4471 15.9751 12.4611C16.2351 12.6191 16.3181 12.9561 16.1621 13.2171ZM16.2481 11.1791C15.9401 11.0011 15.6201 10.8451 15.2901 10.7111C14.6331 10.4521 13.9501 10.2641 13.2521 10.1491C12.7691 10.0631 12.2811 10.0051 11.7901 9.9761C11.2791 9.9451 10.7671 9.9421 10.2561 9.9691C9.6701 9.9941 9.0881 10.0671 8.5141 10.1851C8.3051 10.2281 8.0961 10.2861 7.8801 10.3431C7.7551 10.3791 7.6231 10.3791 7.4981 10.3431C7.2171 10.2631 7.0211 10.0091 7.0161 9.7171C7.0051 9.4281 7.1871 9.1661 7.4621 9.0761C7.6651 9.0101 7.8721 8.9551 8.0811 8.9101C8.5951 8.7911 9.1171 8.7121 9.6431 8.6721C10.2011 8.6231 10.7611 8.6061 11.3211 8.6221C12.6951 8.6451 14.0571 8.8781 15.3601 9.3131C15.8931 9.4941 16.4071 9.7281 16.8941 10.0111C17.0631 10.1041 17.1861 10.2631 17.2321 10.4501C17.2391 10.5001 17.2461 10.5441 17.2541 10.5941C17.2561 10.9641 16.9581 11.2661 16.5881 11.2681C16.4681 11.2681 16.3501 11.2371 16.2461 11.1771L16.2481 11.1791ZM12.0001 22.4001C6.2651 22.4001 1.6001 17.7351 1.6001 12.0001C1.6001 6.2651 6.2651 1.6001 12.0001 1.6001C17.7351 1.6001 22.4001 6.2651 22.4001 12.0001C22.4001 17.7351 17.7351 22.4001 12.0001 22.4001ZM12.0001 3.2001C7.1481 3.2001 3.2001 7.1481 3.2001 12.0001C3.2001 16.8521 7.1481 20.8001 12.0001 20.8001C16.8521 20.8001 20.8001 16.8521 20.8001 12.0001C20.8001 7.1481 16.8521 3.2001 12.0001 3.2001Z"/>
</svg>
