<svg width="24" height="24" viewBox="0 0 24 24" xmlns="http://www.w3.org/2000/svg">
<path d="M15.7312 20.8H8.26822L3.19922 15.731V8.26797L8.26822 3.19897H15.7312L20.8002 8.26797V15.731L15.7312 20.8ZM8.93122 19.2H15.0682L19.1992 15.069V8.93197L15.0682 4.80097H8.93122L4.80022 8.93197V15.069L8.93122 19.2ZM7.90922 11.631C7.49622 11.516 7.38322 11.446 7.38322 11.305C7.38322 11.127 7.64522 11.113 7.72522 11.113C7.97922 11.113 8.29322 11.284 8.47622 11.444L8.56322 11.519L8.97022 10.889L8.90022 10.832C8.69322 10.666 8.26422 10.388 7.70922 10.388C7.01922 10.388 6.55522 10.779 6.55522 11.36C6.55522 12.03 7.13622 12.192 7.64922 12.336L7.69422 12.348C8.08722 12.457 8.21322 12.537 8.21322 12.674C8.21322 12.892 7.88522 12.909 7.78422 12.909C7.48822 12.909 7.13422 12.702 6.93722 12.498L6.85722 12.415L6.39522 13.008L6.46222 13.07C6.73022 13.32 7.18022 13.618 7.80522 13.618C8.71822 13.618 9.04122 13.086 9.04122 12.63C9.04122 11.935 8.38722 11.759 7.91022 11.63L7.90922 11.631ZM9.15122 10.444V11.181H10.0192V13.564H10.8622V11.181H11.8012L11.6712 10.444H9.15122ZM13.3082 10.388C12.5732 10.388 11.8312 10.887 11.8312 12.003C11.8312 13.119 12.5732 13.618 13.3082 13.618C14.0432 13.618 14.7812 13.119 14.7812 12.003C14.7812 10.887 14.0412 10.388 13.3082 10.388ZM13.3082 12.902C12.9172 12.902 12.6742 12.558 12.6742 12.004C12.6742 11.45 12.9112 11.121 13.3082 11.121C13.7052 11.121 13.9422 11.451 13.9422 12.004C13.9422 12.557 13.6992 12.902 13.3082 12.902ZM16.3642 10.444H15.2032V13.564H16.0422V12.526H16.3562C17.2182 12.526 17.6562 12.174 17.6562 11.479C17.6562 10.444 16.6842 10.444 16.3642 10.444ZM16.3802 11.829H16.0422V11.169H16.3802C16.7942 11.169 16.8282 11.337 16.8282 11.495C16.8282 11.695 16.7522 11.829 16.3802 11.829Z"/>
</svg>
