<svg width="24" height="24" viewBox="0 0 24 24" xmlns="http://www.w3.org/2000/svg">
<path d="M17.6 14.5311L16.166 15.9651L15.035 14.8341L17.601 12.2681L20.167 14.8341L19.036 15.9651L17.602 14.5311H17.6ZM21.566 3.56606L3.56601 21.5661L2.43501 20.4351L3.66901 19.2011H3.60001C2.49701 19.2011 1.60001 18.3041 1.60001 17.2011V6.80106C1.60001 5.69806 2.49701 4.80106 3.60001 4.80106H18.069L20.435 2.43506L21.566 3.56606ZM3.20001 6.80006V8.80006H14.069L16.469 6.40006H3.60001C3.37901 6.40006 3.20001 6.57906 3.20001 6.80006ZM5.26901 17.6001L12.469 10.4001H3.20001V17.2001C3.20001 17.4211 3.37901 17.6001 3.60001 17.6001H5.26901ZM22.4 11.5201V6.80006C22.4 6.29706 22.212 5.83806 21.905 5.48706L20.761 6.63106C20.785 6.68306 20.8 6.74006 20.8 6.80106V9.80906C20.13 9.34106 19.354 9.01506 18.515 8.87706L16.935 10.4571C17.151 10.4211 17.373 10.4011 17.6 10.4011C19.806 10.4011 21.6 12.1951 21.6 14.4011C21.6 16.6071 19.806 18.4011 17.6 18.4011C15.394 18.4011 13.6 16.6071 13.6 14.4011C13.6 14.1741 13.62 13.9531 13.656 13.7361L12.076 15.3161C12.215 16.1551 12.54 16.9311 13.008 17.6011H9.79101L8.19101 19.2011H14.719C15.561 19.7081 16.546 20.0011 17.599 20.0011C20.687 20.0011 23.199 17.4891 23.199 14.4011C23.199 13.3481 22.906 12.3631 22.399 11.5211L22.4 11.5201Z"/>
</svg>
