<svg width="24" height="24" viewBox="0 0 24 24" xmlns="http://www.w3.org/2000/svg">
<path d="M22.4001 4.39995C22.4001 3.73795 21.8621 3.19995 21.2001 3.19995H2.8001C2.1381 3.19995 1.6001 3.73795 1.6001 4.39995V9.59995H3.2001V17.4H4.8001V9.59995H19.2001V19.2H6.6001V20.8H20.8001V9.59995H22.4001V4.39995ZM20.8001 7.99995H3.2001V4.79995H20.8001V7.99995ZM4.9001 20C4.9001 20.497 4.4971 20.9 4.0001 20.9C3.5031 20.9 3.1001 20.497 3.1001 20C3.1001 19.503 3.5031 19.1 4.0001 19.1C4.4971 19.1 4.9001 19.503 4.9001 20ZM14.4001 16C15.2821 16 16.0001 15.282 16.0001 14.4V11.2H8.0001V14.4C8.0001 15.282 8.7181 16 9.6001 16H14.4001ZM9.6001 12.8H14.4001V14.4H9.6001V12.8Z"/>
</svg>
