<svg width="24" height="24" viewBox="0 0 24 24" xmlns="http://www.w3.org/2000/svg">
<path d="M7.8999 11.3001C7.8999 10.8031 8.3029 10.4001 8.7999 10.4001C9.2969 10.4001 9.6999 10.8031 9.6999 11.3001C9.6999 11.7971 9.2969 12.2001 8.7999 12.2001C8.3029 12.2001 7.8999 11.7971 7.8999 11.3001ZM15.9999 5.60007V7.20007H17.5999V8.80007H15.9999V18.0691L17.2489 19.3171C17.4759 19.5441 17.5999 19.8451 17.5999 20.1661V22.4001H6.3999V20.1661C6.3999 19.8451 6.5249 19.5441 6.7509 19.3171L7.9999 18.0691V13.8121H9.5999V17.6011H14.3999V8.80107H6.3999V7.20107H7.9999V5.60107C7.1179 5.60107 6.3999 4.88307 6.3999 4.00107V1.60107H7.9999V4.00107H9.5999V1.60107H11.1999V4.00107H12.7999V1.60107H14.3999V4.00107H15.9999V1.60107H17.5999V4.00107C17.5999 4.88307 16.8819 5.60107 15.9999 5.60107V5.60007ZM15.9999 20.3311L14.8689 19.2001H9.1319L8.0009 20.3311V20.8001H16.0009L15.9999 20.3311ZM14.3999 5.60007H9.5999V7.20007H14.3999V5.60007Z"/>
</svg>
