<svg width="24" height="24" viewBox="0 0 24 24" xmlns="http://www.w3.org/2000/svg">
<path d="M14.634 13.2339L12.8 15.0689V9.9999H11.2V15.0689L9.36601 13.2339L8.23401 14.3659L12 18.1309L15.766 14.3659L14.634 13.2339Z"/>
<path d="M15.35 6.2039L16.016 3.9389C16.124 3.5729 16.054 3.1869 15.826 2.8809C15.598 2.5749 15.247 2.3999 14.865 2.3999H9.13401C8.75201 2.3999 8.40201 2.5749 8.17301 2.8809C7.94401 3.1869 7.87501 3.5719 7.98301 3.9389L8.90201 7.0639L9.09501 7.2209C9.89501 7.8709 10.872 8.1999 12 8.1999C12.904 8.1999 13.71 7.9879 14.407 7.5699C17.197 8.4519 19.2 10.8209 19.2 13.5999C19.2 17.1289 15.97 19.9999 12 19.9999V21.5999C16.852 21.5999 20.8 18.0109 20.8 13.5999C20.8 10.2669 18.545 7.4049 15.35 6.2039ZM10.292 6.1179L9.66901 3.9999H14.331L13.708 6.1179C13.234 6.4379 12.661 6.5999 12 6.5999C11.339 6.5999 10.766 6.4379 10.292 6.1179Z"/>
<path d="M4.80001 13.5999C4.80001 12.5529 5.09201 11.5329 5.62901 10.6239L4.46801 9.4629C3.64701 10.6979 3.20001 12.1249 3.20001 13.5999C3.20001 18.0109 7.14801 21.5999 12 21.5999V19.9999C8.03001 19.9999 4.80001 17.1289 4.80001 13.5999Z"/>
<path d="M6.50001 9.1999C6.99707 9.1999 7.40001 8.79696 7.40001 8.2999C7.40001 7.80285 6.99707 7.3999 6.50001 7.3999C6.00296 7.3999 5.60001 7.80285 5.60001 8.2999C5.60001 8.79696 6.00296 9.1999 6.50001 9.1999Z"/>
</svg>
