<svg width="24" height="24" viewBox="0 0 24 24" xmlns="http://www.w3.org/2000/svg">
<path d="M6.4 19.2001H7.669L4.469 22.4001H6.732L9.932 19.2001H14.069L17.269 22.4001H19.532L16.332 19.2001H17.601C18.924 19.2001 20.001 18.1231 20.001 16.8001V4.0001C20.001 2.6771 18.924 1.6001 17.601 1.6001H6.4C5.077 1.6001 4 2.6771 4 4.0001V16.8001C4 18.1231 5.077 19.2001 6.4 19.2001ZM5.6 4.0001C5.6 3.5591 5.959 3.2001 6.4 3.2001H17.6C18.041 3.2001 18.4 3.5591 18.4 4.0001V4.8001H5.6V4.0001ZM5.6 6.4001H18.4V11.0001H5.6V6.4001ZM5.6 12.6001H18.4V16.8001C18.4 17.2411 18.041 17.6001 17.6 17.6001H6.4C5.959 17.6001 5.6 17.2411 5.6 16.8001V12.6001Z"/>
<path d="M8.1 16.0001C8.59706 16.0001 9 15.5972 9 15.1001C9 14.603 8.59706 14.2001 8.1 14.2001C7.60294 14.2001 7.2 14.603 7.2 15.1001C7.2 15.5972 7.60294 16.0001 8.1 16.0001Z"/>
<path d="M15.9 16.0001C16.3971 16.0001 16.8 15.5972 16.8 15.1001C16.8 14.603 16.3971 14.2001 15.9 14.2001C15.4029 14.2001 15 14.603 15 15.1001C15 15.5972 15.4029 16.0001 15.9 16.0001Z"/>
</svg>
