<svg width="24" height="24" viewBox="0 0 24 24" xmlns="http://www.w3.org/2000/svg">
<path d="M22.4001 12.8001V11.2001H19.1541C19.0001 9.8131 18.4511 8.5451 17.6211 7.5091L19.7651 5.3651L18.6341 4.2341L16.4901 6.3781C15.4541 5.5491 14.1861 4.9991 12.7991 4.8451V1.6001H11.1991V4.8461C9.8131 5.0001 8.5441 5.5491 7.5081 6.3791L5.3641 4.2351L4.2331 5.3661L6.3771 7.5101C5.5481 8.5461 4.9991 9.8141 4.8441 11.2011H1.6001V12.8011H4.8461C5.0001 14.1881 5.5491 15.4561 6.3791 16.4921L4.2351 18.6361L5.3661 19.7671L7.5101 17.6231C8.5461 18.4521 9.8141 19.0021 11.2011 19.1561V22.4021H12.8011V19.1561C14.1871 19.0021 15.4561 18.4531 16.4921 17.6231L18.6361 19.7671L19.7671 18.6361L17.6231 16.4921C18.4521 15.4561 19.0011 14.1881 19.1561 12.8011H22.4021L22.4001 12.8001ZM12.0001 17.6001C8.9121 17.6001 6.4001 15.0881 6.4001 12.0001C6.4001 8.9121 8.9121 6.4001 12.0001 6.4001C15.0881 6.4001 17.6001 8.9121 17.6001 12.0001C17.6001 15.0881 15.0881 17.6001 12.0001 17.6001Z"/>
</svg>
