<svg width="24" height="24" viewBox="0 0 24 24" xmlns="http://www.w3.org/2000/svg">
<path d="M21.213 8.50895C20.988 8.18995 20.622 7.99995 20.232 7.99995H15.2V6.39995C15.2 4.63595 13.764 3.19995 12 3.19995C10.236 3.19995 8.80003 4.63595 8.80003 6.39995V7.99995H3.76803C3.37803 7.99995 3.01203 8.18995 2.78703 8.50895C2.56303 8.82795 2.50703 9.23695 2.63803 9.60395L5.87803 18.677C6.33203 19.947 7.54303 20.801 8.89203 20.801H15.109C16.458 20.801 17.669 19.948 18.123 18.677L21.363 9.60395C21.494 9.23695 21.437 8.82795 21.213 8.50895ZM10.4 6.39995C10.4 5.51795 11.118 4.79995 12 4.79995C12.882 4.79995 13.6 5.51795 13.6 6.39995V7.99995H10.4V6.39995ZM16.615 18.138C16.388 18.773 15.783 19.2 15.108 19.2H8.89103C8.21703 19.2 7.61103 18.773 7.38403 18.138L4.33503 9.59995H8.80003V11.2H10.4V9.59995H13.6V13.6H15.2V9.59995H19.665L16.616 18.138H16.615ZM10.5 13.6C10.5 14.097 10.097 14.5 9.60003 14.5C9.10303 14.5 8.70003 14.097 8.70003 13.6C8.70003 13.103 9.10303 12.7 9.60003 12.7C10.097 12.7 10.5 13.103 10.5 13.6Z"/>
</svg>
