<svg width="24" height="24" viewBox="0 0 24 24" xmlns="http://www.w3.org/2000/svg">
<path d="M2.8011 21.835C2.6461 21.835 2.4901 21.805 2.3411 21.743C1.8911 21.5569 1.6001 21.121 1.6001 20.634V3.19995H22.4001V18.4H6.7311L3.6481 21.483C3.4181 21.713 3.1121 21.835 2.8011 21.835ZM3.2001 4.79995V19.669L5.7171 17.152C5.9441 16.925 6.2451 16.801 6.5651 16.801H20.7991V4.79995H3.2001ZM5.7001 6.39995C5.2031 6.39995 4.8001 6.80295 4.8001 7.29995C4.8001 7.79695 5.2031 8.19995 5.7001 8.19995C6.1971 8.19995 6.6001 7.79695 6.6001 7.29995C6.6001 6.80295 6.1971 6.39995 5.7001 6.39995ZM19.2001 6.39995H8.2001V7.99995H19.2001V6.39995ZM14.3961 9.79995H4.8001V11.4H14.3961V9.79995Z"/>
</svg>
