<svg width="24" height="24" viewBox="0 0 24 24" xmlns="http://www.w3.org/2000/svg">
<path d="M20.3539 18.8791C20.7979 18.6661 21.3509 18.4001 22.3999 18.4001V20.0001C21.7149 20.0001 21.4199 20.1421 21.0459 20.3211C20.6019 20.5341 20.0489 20.8001 18.9999 20.8001C17.9509 20.8001 17.3929 20.5531 16.8849 20.3351C16.4479 20.1481 16.1029 20.0001 15.3999 20.0001C14.6969 20.0001 14.4199 20.1421 14.0459 20.3211C13.6019 20.5341 13.0479 20.8001 11.9999 20.8001C10.9519 20.8001 10.3979 20.5351 9.9539 20.3211C9.5799 20.1421 9.2849 20.0001 8.5999 20.0001C7.9149 20.0001 7.5519 20.1481 7.1149 20.3351C6.6069 20.5531 6.0309 20.8001 4.9999 20.8001C3.9689 20.8001 3.3979 20.5351 2.9539 20.3211C2.5799 20.1421 2.2849 20.0001 1.5999 20.0001V18.4001C2.6489 18.4001 3.2019 18.6651 3.6459 18.8791C4.0199 19.0581 4.3149 19.2001 4.9999 19.2001C5.6849 19.2001 6.0479 19.0521 6.4849 18.8651C6.9929 18.6471 7.5689 18.4001 8.5999 18.4001C9.6309 18.4001 10.2019 18.6651 10.6459 18.8791C11.0199 19.0581 11.3149 19.2001 11.9999 19.2001C12.6849 19.2001 12.9799 19.0581 13.3539 18.8791C13.7979 18.6661 14.3519 18.4001 15.3999 18.4001C16.4479 18.4001 17.0069 18.6471 17.5149 18.8651C17.9519 19.0521 18.2969 19.2001 18.9999 19.2001C19.7029 19.2001 19.9799 19.0581 20.3539 18.8791ZM14.3999 10.4001V15.2971C14.6759 15.2381 15.0019 15.2001 15.3999 15.2001C16.4309 15.2001 17.0069 15.4471 17.5149 15.6651C17.9519 15.8521 18.2969 16.0001 18.9999 16.0001C19.7029 16.0001 19.9799 15.8581 20.3539 15.6791C20.7979 15.4661 21.3509 15.2001 22.3999 15.2001V16.8001C21.7149 16.8001 21.4199 16.9421 21.0459 17.1211C20.6019 17.3341 20.0489 17.6001 18.9999 17.6001C17.9509 17.6001 17.3929 17.3531 16.8849 17.1351C16.4479 16.9481 16.1029 16.8001 15.3999 16.8001C14.6969 16.8001 14.4199 16.9421 14.0459 17.1211C13.6019 17.3341 13.0479 17.6001 11.9999 17.6001C10.9519 17.6001 10.3979 17.3351 9.9539 17.1211C9.5799 16.9421 9.2849 16.8001 8.5999 16.8001C7.9149 16.8001 7.5519 16.9481 7.1149 17.1351C6.6069 17.3531 6.0309 17.6001 4.9999 17.6001C3.9689 17.6001 3.3979 17.3351 2.9539 17.1211C2.5799 16.9421 2.2849 16.8001 1.5999 16.8001V15.2001C2.6489 15.2001 3.2019 15.4651 3.6459 15.6791C4.0199 15.8581 4.3149 16.0001 4.9999 16.0001C5.6849 16.0001 6.0009 15.8711 6.3999 15.7011V10.4001H4.7999V8.80012H6.3999V4.80012C6.3999 3.03612 7.8349 1.60012 9.5999 1.60012C10.4419 1.60012 11.2669 1.94012 11.8639 2.53212L10.7369 3.66712C10.4379 3.37012 10.0229 3.19912 9.6009 3.19912C8.7189 3.19912 8.0009 3.91712 8.0009 4.79912V5.59912H12.8009V4.79912C12.8009 3.03512 14.2359 1.59912 16.0009 1.59912C17.7659 1.59912 19.2009 3.03512 19.2009 4.79912V8.79912H22.4009V10.3991H14.4009L14.3999 10.4001ZM14.3999 4.80012V8.80012H17.5999V4.80012C17.5999 3.91812 16.8819 3.20012 15.9999 3.20012C15.1179 3.20012 14.3999 3.91812 14.3999 4.80012ZM7.9999 8.80012H12.7999V7.20012H7.9999V8.80012ZM11.9999 16.0001C12.3459 16.0001 12.5919 15.9641 12.7999 15.9051V13.6001H7.9999V15.2321C8.1819 15.2121 8.3799 15.2001 8.5999 15.2001C9.6489 15.2001 10.2019 15.4651 10.6459 15.6791C11.0199 15.8581 11.3149 16.0001 11.9999 16.0001ZM12.7999 10.4001H7.9999V12.0001H12.7999V10.4001ZM2.2999 10.4741C2.7969 10.4741 3.1999 10.0711 3.1999 9.57412C3.1999 9.07712 2.7969 8.67412 2.2999 8.67412C1.8029 8.67412 1.3999 9.07712 1.3999 9.57412C1.3999 10.0711 1.8029 10.4741 2.2999 10.4741Z"/>
</svg>
