<svg width="24" height="24" viewBox="0 0 24 24" xmlns="http://www.w3.org/2000/svg">
<path d="M18 1.6001H6C4.897 1.6001 4 2.4971 4 3.6001V20.4001C4 21.5031 4.897 22.4001 6 22.4001H18C19.103 22.4001 20 21.5031 20 20.4001V3.6001C20 2.4971 19.103 1.6001 18 1.6001ZM18.4 20.4001C18.4 20.6211 18.221 20.8001 18 20.8001H6C5.779 20.8001 5.6 20.6211 5.6 20.4001V3.6001C5.6 3.3791 5.779 3.2001 6 3.2001H18C18.221 3.2001 18.4 3.3791 18.4 3.6001V20.4001ZM12.9 18.3001C12.9 18.7971 12.497 19.2001 12 19.2001C11.503 19.2001 11.1 18.7971 11.1 18.3001C11.1 17.8031 11.503 17.4001 12 17.4001C12.497 17.4001 12.9 17.8031 12.9 18.3001ZM9.6 4.8001H14.4V6.4001H9.6V4.8001Z"/>
</svg>
