<svg width="24" height="24" viewBox="0 0 24 24" xmlns="http://www.w3.org/2000/svg">
<path d="M20 13.0091V1.6001H4V22.4001H7V20.8001H5.6V3.2001H18.4V12.2351C17.893 12.0831 17.356 12.0011 16.8 12.0011C13.712 12.0011 11.2 14.5131 11.2 17.6011C11.2 20.6891 13.712 23.2011 16.8 23.2011C19.888 23.2011 22.4 20.6891 22.4 17.6011C22.4 15.7021 21.449 14.0221 20 13.0091ZM16.8 21.6001C14.594 21.6001 12.8 19.8061 12.8 17.6001C12.8 15.3941 14.594 13.6001 16.8 13.6001C19.006 13.6001 20.8 15.3941 20.8 17.6001C20.8 19.8061 19.006 21.6001 16.8 21.6001ZM18.234 15.9351L19.365 17.0661L16.399 20.0321L14.233 17.8661L15.364 16.7351L16.398 17.7691L18.232 15.9351H18.234ZM16.8 7.2001H7.2V5.6001H16.8V7.2001ZM7.2 8.8001H12V10.4001H7.2V8.8001ZM10.4 21.6001C10.4 22.0971 9.997 22.5001 9.5 22.5001C9.003 22.5001 8.6 22.0971 8.6 21.6001C8.6 21.1031 9.003 20.7001 9.5 20.7001C9.997 20.7001 10.4 21.1031 10.4 21.6001Z"/>
</svg>
