<svg width="24" height="24" viewBox="0 0 24 24" xmlns="http://www.w3.org/2000/svg">
<path d="M7.4641 18.5449C7.98601 18.5449 8.4091 18.1218 8.4091 17.5999C8.4091 17.078 7.98601 16.6549 7.4641 16.6549C6.94219 16.6549 6.5191 17.078 6.5191 17.5999C6.5191 18.1218 6.94219 18.5449 7.4641 18.5449Z"/>
<path d="M7.4501 9.31993C5.6191 9.31993 4.1301 7.83093 4.1301 5.99993C4.1301 4.16893 5.6191 2.67993 7.4501 2.67993C9.2811 2.67993 10.7701 4.16893 10.7701 5.99993C10.7701 7.83093 9.2811 9.31993 7.4501 9.31993ZM7.4501 4.27993C6.5021 4.27993 5.7301 5.05193 5.7301 5.99993C5.7301 6.94793 6.5021 7.71993 7.4501 7.71993C8.3981 7.71993 9.1701 6.94793 9.1701 5.99993C9.1701 5.05193 8.3981 4.27993 7.4501 4.27993Z"/>
<path d="M16.7001 11.7199C14.8691 11.7199 13.3801 10.2309 13.3801 8.39993C13.3801 6.56893 14.8691 5.07993 16.7001 5.07993C18.5311 5.07993 20.0201 6.56893 20.0201 8.39993C20.0201 10.2309 18.5311 11.7199 16.7001 11.7199ZM16.7001 6.67993C15.7521 6.67993 14.9801 7.45193 14.9801 8.39993C14.9801 9.34793 15.7521 10.1199 16.7001 10.1199C17.6481 10.1199 18.4201 9.34793 18.4201 8.39993C18.4201 7.45193 17.6481 6.67993 16.7001 6.67993Z"/>
<path d="M16.6791 13.3199C15.2441 13.3199 13.9301 13.8409 12.9121 14.7019C12.0831 12.4839 9.9431 10.8999 7.4401 10.8999C4.2201 10.8999 1.6001 13.5199 1.6001 16.7399V18.3799H4.9201V16.7799H3.2001V16.7399C3.2001 14.4019 5.1021 12.4999 7.4401 12.4999C9.5971 12.4999 11.3811 14.1189 11.6451 16.2049C11.1341 17.0719 10.8391 18.0819 10.8391 19.1599V20.7999H22.5191V19.1599C22.5191 15.9399 19.8991 13.3199 16.6791 13.3199ZM20.9191 19.1999H12.4391V19.1599C12.4391 18.6019 12.5481 18.0689 12.7451 17.5799C12.8821 17.2399 13.0611 16.9219 13.2761 16.6319C14.0501 15.5929 15.2871 14.9189 16.6781 14.9189C19.0161 14.9189 20.9181 16.8209 20.9181 19.1589V19.1989L20.9191 19.1999Z"/>
</svg>
