<svg width="24" height="24" viewBox="0 0 24 24" xmlns="http://www.w3.org/2000/svg">
<path d="M12.0001 22.4001C6.2651 22.4001 1.6001 17.7351 1.6001 12.0001C1.6001 6.2651 6.2651 1.6001 12.0001 1.6001C17.7351 1.6001 22.4001 6.2651 22.4001 12.0001C22.4001 17.7351 17.7351 22.4001 12.0001 22.4001ZM12.0001 3.2001C7.1481 3.2001 3.2001 7.1481 3.2001 12.0001C3.2001 16.8521 7.1481 20.8001 12.0001 20.8001C16.8521 20.8001 20.8001 16.8521 20.8001 12.0001C20.8001 7.1481 16.8521 3.2001 12.0001 3.2001ZM12.0001 4.8001C8.0241 4.8001 4.8001 8.0241 4.8001 12.0001C4.8001 15.9761 8.0241 19.2001 12.0001 19.2001C15.9761 19.2001 19.2001 15.9761 19.2001 12.0001C19.2001 8.0241 15.9761 4.8001 12.0001 4.8001ZM15.3371 9.6971C15.2291 10.8361 14.7601 13.5981 14.5211 14.8731C14.4201 15.4131 14.2211 15.5931 14.0291 15.6111C13.6111 15.6491 13.2931 15.3351 12.8881 15.0691C12.2541 14.6541 11.8961 14.3951 11.2811 13.9901C10.5701 13.5221 11.0311 13.2641 11.4361 12.8431C11.5421 12.7331 13.3841 11.0571 13.4201 10.9051C13.4241 10.8861 13.4291 10.8151 13.3871 10.7781C13.3451 10.7411 13.2831 10.7531 13.2381 10.7641C13.1741 10.7781 12.1621 11.4481 10.2011 12.7711C9.9141 12.9681 9.6531 13.0641 9.4201 13.0591C9.1631 13.0531 8.6681 12.9141 8.3011 12.7941C7.8501 12.6471 7.4921 12.5701 7.5231 12.3211C7.5391 12.1911 7.7181 12.0591 8.0591 11.9231C10.1581 11.0091 11.5581 10.4061 12.2581 10.1141C14.2581 9.2821 14.6731 9.1381 14.9441 9.1331C15.0041 9.1321 15.1371 9.1471 15.2231 9.2171C15.2961 9.2761 15.3161 9.3561 15.3251 9.4121C15.3351 9.4681 15.3471 9.5961 15.3371 9.6951V9.6971Z"/>
</svg>
