<svg width="24" height="24" viewBox="0 0 24 24" xmlns="http://www.w3.org/2000/svg">
<path d="M17.4612 21.5711C17.3872 21.5711 17.3132 21.5641 17.2392 21.5511C14.6892 21.0771 11.4902 19.0231 8.23415 15.7661C5.06615 12.5981 2.96015 9.32009 2.45415 6.77309C2.37515 6.37709 2.49815 5.97109 2.78215 5.68709L6.40015 2.06909L11.7312 7.40009L9.73615 9.39509C10.0792 10.1521 10.7592 11.2281 11.7652 12.2341C12.7602 13.2291 13.8422 13.9121 14.6062 14.2611L16.5992 12.2681L21.9302 17.5991L18.3102 21.2191C18.0832 21.4461 17.7762 21.5701 17.4602 21.5701L17.4612 21.5711ZM4.06815 6.66409C4.58415 8.85809 6.54815 11.8171 9.36615 14.6351C12.2632 17.5321 15.1512 19.4511 17.3322 19.9371L19.6692 17.6001L16.6002 14.5311L15.5472 15.5841C15.2082 15.9231 14.7022 16.0291 14.2592 15.8521C13.0752 15.3801 11.7202 14.4511 10.6352 13.3651C9.53715 12.2671 8.60615 10.9101 8.14515 9.73609C7.97215 9.29409 8.07815 8.79109 8.41515 8.45309L9.46915 7.39909L6.40015 4.33009L4.06815 6.66209V6.66409Z"/>
</svg>
