<svg width="24" height="24" viewBox="0 0 24 24" xmlns="http://www.w3.org/2000/svg">
<path fill-rule="evenodd" clip-rule="evenodd" d="M12.0006 2.41455C6.70629 2.41455 2.41455 6.70629 2.41455 12.0006C2.41455 17.2949 6.70629 21.5866 12.0006 21.5866C17.2949 21.5866 21.5866 17.2949 21.5866 12.0006C21.5866 6.70629 17.2949 2.41455 12.0006 2.41455ZM16.4431 8.93304C16.2993 10.4488 15.6742 14.1275 15.3567 15.825C15.2219 16.5429 14.9573 16.7846 14.7016 16.8076C14.1444 16.8585 13.7221 16.4401 13.1828 16.0866C12.3391 15.5334 11.8628 15.1889 11.044 14.6497C10.0973 14.0256 10.7115 13.6831 11.2507 13.1229C11.3915 12.9761 13.8449 10.7454 13.8918 10.5427C13.8978 10.5177 13.9038 10.4229 13.8469 10.3729C13.79 10.323 13.7081 10.34 13.6482 10.354C13.5633 10.3729 12.2153 11.2636 9.60506 13.0261C9.22262 13.2887 8.87613 13.4165 8.56558 13.4105C8.22308 13.4035 7.56504 13.2168 7.07575 13.058C6.47563 12.8633 5.99832 12.7595 6.04026 12.4279C6.06223 12.2552 6.29988 12.0785 6.75322 11.8987C9.54815 10.6815 11.4114 9.87867 12.3441 9.49123C15.0062 8.38385 15.5594 8.19213 15.9199 8.18514C15.9987 8.18414 16.1765 8.20311 16.2913 8.29697C16.3882 8.37586 16.4151 8.4817 16.4281 8.55659C16.4411 8.63148 16.4571 8.80124 16.4441 8.93404L16.4431 8.93304Z"/>
</svg>
