<svg width="24" height="24" viewBox="0 0 24 24" xmlns="http://www.w3.org/2000/svg">
<path d="M5.8998 14.5C6.39686 14.5 6.7998 14.097 6.7998 13.6C6.7998 13.1029 6.39686 12.7 5.8998 12.7C5.40275 12.7 4.9998 13.1029 4.9998 13.6C4.9998 14.097 5.40275 14.5 5.8998 14.5Z"/>
<path d="M7.5998 15.8C6.1658 15.8 4.9998 16.966 4.9998 18.4H6.5998C6.5998 17.849 7.0488 17.4 7.5998 17.4C8.1508 17.4 8.5998 17.849 8.5998 18.4H10.1998C10.1998 16.966 9.0338 15.8 7.5998 15.8Z"/>
<path d="M21.7148 1.89196C21.4118 1.66696 21.0148 1.59796 20.6538 1.70696C19.9228 1.92796 18.3968 2.29996 16.3998 2.29996C14.4028 2.29996 12.8768 1.92896 12.1458 1.70696C11.7848 1.59796 11.3878 1.66696 11.0848 1.89196C10.7808 2.11696 10.5998 2.47796 10.5998 2.85596V9.21396C9.81281 9.36796 8.7918 9.49996 7.5998 9.49996C5.6028 9.49996 4.0768 9.12896 3.3458 8.90696C2.9848 8.79796 2.5878 8.86696 2.2848 9.09196C1.9808 9.31696 1.7998 9.67796 1.7998 10.056V16.599C1.7998 19.797 4.4018 22.399 7.5998 22.399C10.7978 22.399 13.3998 19.797 13.3998 16.599V14.361C14.2758 14.892 15.3028 15.199 16.3998 15.199C19.5978 15.199 22.1998 12.597 22.1998 9.39896V2.85696C22.1998 2.47896 22.0188 2.11796 21.7148 1.89296V1.89196ZM7.5998 20.8C5.2838 20.8 3.3998 18.916 3.3998 16.6V10.583C4.3188 10.82 5.7888 11.1 7.5998 11.1C8.84081 11.1 9.9208 10.969 10.7738 10.81C10.9698 11.59 11.3238 12.308 11.7998 12.927V16.6C11.7998 18.916 9.9158 20.8 7.5998 20.8ZM20.5998 9.39996C20.5998 11.716 18.7158 13.6 16.3998 13.6C14.0838 13.6 12.1998 11.716 12.1998 9.39996V3.38296C13.1188 3.61996 14.5888 3.89996 16.3998 3.89996C18.2108 3.89996 19.6808 3.61996 20.5998 3.38296V9.39996Z"/>
<path d="M9.2998 14.5C9.79686 14.5 10.1998 14.097 10.1998 13.6C10.1998 13.1029 9.79686 12.7 9.2998 12.7C8.80275 12.7 8.3998 13.1029 8.3998 13.6C8.3998 14.097 8.80275 14.5 9.2998 14.5Z"/>
<path d="M18.0998 7.29996C18.5969 7.29996 18.9998 6.89702 18.9998 6.39996C18.9998 5.9029 18.5969 5.49996 18.0998 5.49996C17.6027 5.49996 17.1998 5.9029 17.1998 6.39996C17.1998 6.89702 17.6027 7.29996 18.0998 7.29996Z"/>
<path d="M14.6998 7.29996C15.1969 7.29996 15.5998 6.89702 15.5998 6.39996C15.5998 5.9029 15.1969 5.49996 14.6998 5.49996C14.2027 5.49996 13.7998 5.9029 13.7998 6.39996C13.7998 6.89702 14.2027 7.29996 14.6998 7.29996Z"/>
<path d="M15.3998 8.99996H13.7998C13.7998 10.434 14.9658 11.6 16.3998 11.6C17.8338 11.6 18.9998 10.434 18.9998 8.99996H17.3998C17.3998 9.55096 16.9508 9.99996 16.3998 9.99996C15.8488 9.99996 15.3998 9.55096 15.3998 8.99996Z"/>
</svg>
