<svg width="24" height="24" viewBox="0 0 24 24" xmlns="http://www.w3.org/2000/svg">
<path d="M12.9 17.3999C12.9 17.8969 12.497 18.2999 12 18.2999C11.503 18.2999 11.1 17.8969 11.1 17.3999C11.1 16.9029 11.503 16.4999 12 16.4999C12.497 16.4999 12.9 16.9029 12.9 17.3999ZM16.8 17.3999C16.8 20.0469 14.647 22.1999 12 22.1999C9.35295 22.1999 7.19995 20.0469 7.19995 17.3999C7.19995 16.0149 7.77795 14.7319 8.79995 13.8219V4.5499C8.79995 2.8129 10.213 1.3999 11.95 1.3999H12.05C13.787 1.3999 15.2 2.8129 15.2 4.5499V13.8219C16.222 14.7319 16.8 16.0149 16.8 17.3999ZM15.2 17.3999C15.2 16.3839 14.733 15.4509 13.919 14.8399L13.6 14.5999V4.5499C13.6 3.6949 12.905 2.9999 12.05 2.9999H11.95C11.095 2.9999 10.4 3.6949 10.4 4.5499V5.5999H12V7.1999H10.4V8.7999H12V10.3999H10.4V11.9999H12V13.5999H10.4V14.5999L10.081 14.8399C9.26695 15.4509 8.79995 16.3849 8.79995 17.3999C8.79995 19.1649 10.235 20.5999 12 20.5999C13.765 20.5999 15.2 19.1649 15.2 17.3999Z"/>
</svg>
