<svg width="24" height="24" viewBox="0 0 24 24" xmlns="http://www.w3.org/2000/svg">
<path d="M20.3153 12.1802C20.3153 11.629 20.7627 11.1817 21.3139 11.1817C21.8651 11.1817 22.3124 11.629 22.3124 12.1802C22.3124 12.7314 21.8651 13.1788 21.3139 13.1788C20.7627 13.1788 20.3153 12.7314 20.3153 12.1802ZM1.82329 10.0833C2.04797 9.77172 2.41144 9.58599 2.79588 9.58599H7.13455V6.39065C7.13455 4.62922 8.56846 3.19531 10.3299 3.19531H10.924L11.0948 3.76448C11.8936 6.42061 13.7699 8.6214 16.3212 9.94447V7.98832H22.3124V9.58599H17.9188V19.172H22.3124V20.7697H16.3212V18.5539L14.1693 20.4661C13.9496 20.6618 13.667 20.7687 13.3735 20.7687H7.16451C5.78751 20.7687 4.56929 19.891 4.13293 18.5839L1.65853 11.1617C1.53671 10.7972 1.59862 10.3948 1.82329 10.0833ZM5.64872 18.0796C5.8664 18.7327 6.47551 19.172 7.16451 19.172H13.2217L16.3212 16.417V11.7149C13.2357 10.3519 10.8991 7.90944 9.78668 4.88784C9.17258 5.11052 8.73222 5.69966 8.73222 6.39065V9.58599H10.3299V11.1837H3.35007L5.64872 18.0796Z"/>
</svg>
