<svg width="24" height="24" viewBox="0 0 24 24" xmlns="http://www.w3.org/2000/svg">
<path d="M2.6001 13.1979C2.0481 13.1979 1.6001 12.7499 1.6001 12.1979C1.6001 11.6459 2.0481 11.1979 2.6001 11.1979C3.1521 11.1979 3.6001 11.6459 3.6001 12.1979C3.6001 12.7499 3.1521 13.1979 2.6001 13.1979ZM22.2831 11.1789L19.8051 18.6119C19.3691 19.9209 18.1491 20.7999 16.7691 20.7999H10.5511C10.2571 20.7999 9.9741 20.6919 9.7541 20.4969L7.5991 18.5819V20.8009H1.6001V19.2009H6.0001V9.60093H1.6001V8.00093H7.6001V9.95993C10.1551 8.63493 12.0341 6.42993 12.8341 3.77093L13.0051 3.20093H13.6001C15.3641 3.20093 16.8001 4.63693 16.8001 6.40093V9.60093H21.1451C21.5301 9.60093 21.8941 9.78693 22.1191 10.0989C22.3441 10.4109 22.4061 10.8149 22.2841 11.1799L22.2831 11.1789ZM20.5901 11.1999H13.6001V9.59993H15.2001V6.39993C15.2001 5.70893 14.7591 5.11793 14.1441 4.89493C13.0301 7.91993 10.6901 10.3669 7.6001 11.7319V16.4409L10.7041 19.1999H16.7701C17.4601 19.1999 18.0701 18.7599 18.2881 18.1059L20.5901 11.1999Z"/>
</svg>
