<svg width="24" height="24" viewBox="0 0 24 24" xmlns="http://www.w3.org/2000/svg">
<path d="M20.3451 11.802C20.3451 11.25 20.7931 10.802 21.3451 10.802C21.8971 10.802 22.3451 11.25 22.3451 11.802C22.3451 12.354 21.8971 12.802 21.3451 12.802C20.7931 12.802 20.3451 12.354 20.3451 11.802ZM1.66107 12.821L4.13907 5.38797C4.57507 4.07897 5.79507 3.19997 7.17507 3.19997H13.3931C13.6871 3.19997 13.9701 3.30797 14.1901 3.50297L16.3451 5.41797V3.19897H22.3451V4.79897H17.9451V14.399H22.3451V15.999H16.3451V14.04C13.7901 15.365 11.9111 17.57 11.1111 20.229L10.9401 20.799H10.3451C8.58107 20.799 7.14507 19.363 7.14507 17.599V14.399H2.80007C2.41507 14.399 2.05107 14.213 1.82607 13.901C1.60107 13.589 1.53907 13.185 1.66107 12.82V12.821ZM10.3451 12.8V14.4H8.74507V17.6C8.74507 18.291 9.18607 18.882 9.80107 19.105C10.9151 16.08 13.2551 13.633 16.3451 12.268V7.55897L13.2411 4.79997H7.17507C6.48507 4.79997 5.87507 5.23997 5.65707 5.89397L3.35507 12.8H10.3451Z"/>
</svg>
