<svg width="24" height="24" viewBox="0 0 24 24" xmlns="http://www.w3.org/2000/svg">
<path d="M2.6001 12.802C2.0481 12.802 1.6001 12.354 1.6001 11.802C1.6001 11.25 2.0481 10.802 2.6001 10.802C3.1521 10.802 3.6001 11.25 3.6001 11.802C3.6001 12.354 3.1521 12.802 2.6001 12.802ZM22.1191 13.902C21.8941 14.214 21.5301 14.4 21.1451 14.4H16.8001V17.6C16.8001 19.364 15.3641 20.8 13.6001 20.8H13.0051L12.8341 20.23C12.0341 17.57 10.1551 15.366 7.6001 14.041V16H1.6001V14.4H6.0001V4.79995H1.6001V3.19995H7.6001V5.41895L9.7551 3.50395C9.9751 3.30895 10.2581 3.20095 10.5521 3.20095H16.7701C18.1491 3.20095 19.3691 4.07995 19.8061 5.38895L22.2841 12.822C22.4061 13.187 22.3441 13.59 22.1191 13.902ZM20.5901 12.8L18.2881 5.89395C18.0701 5.23995 17.4601 4.79995 16.7701 4.79995H10.7041L7.6001 7.55895V12.268C10.6901 13.633 13.0301 16.079 14.1441 19.105C14.7591 18.882 15.2001 18.292 15.2001 17.6V14.4H13.6001V12.8H20.5901Z"/>
</svg>
