<svg width="24" height="24" viewBox="0 0 24 24" xmlns="http://www.w3.org/2000/svg">
<path d="M15.2 9.60006H8.79998V11.2001H15.2V9.60006Z"/>
<path d="M15.2 6.40006H8.79998V8.00006H15.2V6.40006Z"/>
<path d="M18.4 11.8681V2.22806C18.4 1.80206 18.171 1.40406 17.802 1.19006C17.433 0.976061 16.975 0.975061 16.604 1.18606L14.799 2.21706L12.594 0.957061C12.227 0.747061 11.77 0.747061 11.403 0.957061L9.19799 2.21706L7.39298 1.18606C7.02298 0.974061 6.56398 0.976061 6.19498 1.19006C5.82598 1.40406 5.59698 1.80206 5.59698 2.22806V21.2001C5.59698 21.6431 5.83798 22.0581 6.22498 22.2831C6.59398 22.4971 7.03098 22.5021 7.39298 22.2941L9.21498 21.1111L11.409 22.3001C11.59 22.4011 11.793 22.4521 11.996 22.4521C12.199 22.4521 12.401 22.4011 12.583 22.3001L14.62 21.1971L16.016 22.8401C16.211 23.0691 16.495 23.2001 16.797 23.2001C17.099 23.2001 17.383 23.0691 17.578 22.8401L20.518 19.3791C21.224 18.5461 21.597 17.4741 21.597 16.2771C21.597 14.2451 20.259 12.5121 18.397 11.8681H18.4ZM12.405 14.4001C12.145 14.9751 12 15.6101 12 16.2771C12 17.4731 12.373 18.5461 13.079 19.3801L13.564 19.9511L11.999 20.7991L9.78598 19.6001C9.41999 19.3951 8.96698 19.3971 8.60198 19.6061L7.19898 20.5161V2.91706L8.60398 3.72006C8.97098 3.93006 9.42698 3.93006 9.79498 3.72006L12 2.46006L14.205 3.72006C14.572 3.93006 15.028 3.93006 15.396 3.72006L16.801 2.91706V11.6001C15.57 11.6001 14.445 12.0551 13.595 12.8001H8.80099V14.4001H12.405ZM19.301 18.3441L16.8 21.2881L14.299 18.3451C13.842 17.8051 13.6 17.0901 13.6 16.2771C13.6 14.5801 15.036 13.2001 16.8 13.2001C18.564 13.2001 20 14.5801 20 16.2771C20 17.0901 19.758 17.8051 19.301 18.3441Z"/>
</svg>
