<svg width="24" height="24" viewBox="0 0 24 24" xmlns="http://www.w3.org/2000/svg">
<path d="M17.802 1.85095C17.433 1.63695 16.975 1.63595 16.604 1.84695L14.799 2.87795L12.594 1.61795C12.227 1.40795 11.77 1.40795 11.403 1.61795L9.19798 2.87795L7.39298 1.84695C7.02298 1.63495 6.56398 1.63695 6.19498 1.85095C5.82598 2.06495 5.59698 2.46295 5.59698 2.88895V21.11C5.59698 21.536 5.82598 21.9339 6.19498 22.1479C6.56398 22.3619 7.02298 22.363 7.39298 22.152L9.19798 21.121L11.403 22.3809C11.587 22.4859 11.792 22.538 11.998 22.538C12.204 22.538 12.41 22.4859 12.593 22.3809L14.798 21.121L16.603 22.152C16.973 22.364 17.432 22.3619 17.801 22.1479C18.17 21.9339 18.399 21.536 18.399 21.11V2.88895C18.399 2.46295 18.17 2.06495 17.801 1.85095H17.802ZM16.8 20.4209L15.395 19.6179C15.028 19.4079 14.572 19.4079 14.204 19.6179L11.999 20.878L9.79398 19.6179C9.42698 19.4079 8.96998 19.4079 8.60298 19.6179L7.19798 20.4209V3.57895L8.60298 4.38195C8.96998 4.59195 9.42598 4.59195 9.79398 4.38195L11.999 3.12195L14.204 4.38195C14.571 4.59195 15.027 4.59195 15.395 4.38195L16.8 3.57895V20.4209ZM8.79998 6.39995H15.2V7.99995H8.79998V6.39995ZM8.79998 9.59995H15.2V11.1999H8.79998V9.59995ZM8.79998 12.7999H12V14.4H8.79998V12.7999Z"/>
</svg>
