<svg width="24" height="24" viewBox="0 0 24 24" xmlns="http://www.w3.org/2000/svg">
<path d="M17.6001 8.6771V10.8671C16.4551 10.8671 15.3941 10.5041 14.5281 9.8871V14.3381C14.5281 16.5611 12.7051 18.3701 10.4641 18.3701C9.5981 18.3701 8.7951 18.0991 8.1351 17.6401C7.0871 16.9101 6.4001 15.7031 6.4001 14.3391C6.4001 12.1161 8.2231 10.3071 10.4641 10.3071C10.6501 10.3071 10.8331 10.3221 11.0121 10.3461V12.5821C10.8381 12.5281 10.6551 12.4971 10.4641 12.4971C9.4411 12.4971 8.6081 13.3231 8.6081 14.3381C8.6081 15.0451 9.0131 15.6591 9.6031 15.9681C9.8611 16.1021 10.1531 16.1801 10.4641 16.1801C11.4641 16.1801 12.2791 15.3911 12.3161 14.4081L12.3201 5.6301H14.5281C14.5281 5.8201 14.5461 6.0051 14.5801 6.1861C14.7361 7.0211 15.2351 7.7361 15.9271 8.1841C16.4091 8.4951 16.9831 8.6771 17.6001 8.6771ZM12.0001 22.4001C6.2651 22.4001 1.6001 17.7351 1.6001 12.0001C1.6001 6.2651 6.2651 1.6001 12.0001 1.6001C17.7351 1.6001 22.4001 6.2651 22.4001 12.0001C22.4001 17.7351 17.7351 22.4001 12.0001 22.4001ZM12.0001 3.2001C7.1481 3.2001 3.2001 7.1481 3.2001 12.0001C3.2001 16.8521 7.1481 20.8001 12.0001 20.8001C16.8521 20.8001 20.8001 16.8521 20.8001 12.0001C20.8001 7.1481 16.8521 3.2001 12.0001 3.2001Z"/>
</svg>
