<svg width="24" height="24" viewBox="0 0 24 24" xmlns="http://www.w3.org/2000/svg">
<path d="M20 7.2529V10.3819C18.364 10.3819 16.848 9.8629 15.611 8.9819V15.3409C15.611 18.5169 13.006 21.0999 9.805 21.0999C8.567 21.0999 7.421 20.7129 6.478 20.0569C4.981 19.0149 4 17.2899 4 15.3419C4 12.1669 6.605 9.5829 9.806 9.5829C10.072 9.5829 10.333 9.6049 10.589 9.6389V12.8329C10.341 12.7559 10.08 12.7119 9.806 12.7119C8.344 12.7119 7.155 13.8919 7.155 15.3419C7.155 16.3519 7.733 17.2289 8.577 17.6699C8.945 17.8619 9.363 17.9719 9.807 17.9719C11.235 17.9719 12.4 16.8449 12.453 15.4399L12.458 2.8999H15.612C15.612 3.1709 15.638 3.4359 15.686 3.6939C15.909 4.8859 16.622 5.9089 17.61 6.5479C18.298 6.9929 19.12 7.2529 20 7.2529Z"/>
</svg>
