<svg width="24" height="24" viewBox="0 0 24 24" xmlns="http://www.w3.org/2000/svg">
<path d="M12.994 8.0001C11.783 6.4901 9.94598 5.6001 7.99998 5.6001C4.47098 5.6001 1.59998 8.4711 1.59998 12.0001C1.59998 15.5291 4.47098 18.4001 7.99998 18.4001C9.94697 18.4001 11.784 17.5101 12.994 16.0001H22.4V8.0001H12.994ZM20.8 14.4001H12.177L11.938 14.7421C11.039 16.0311 9.56698 16.8001 7.99998 16.8001C5.35298 16.8001 3.19998 14.6471 3.19998 12.0001C3.19998 9.3531 5.35298 7.2001 7.99998 7.2001C9.56698 7.2001 11.039 7.9691 11.938 9.2581L12.177 9.6001H20.8V14.4001ZM12 11.1001C12.497 11.1001 12.9 11.5031 12.9 12.0001C12.9 12.4971 12.497 12.9001 12 12.9001C11.503 12.9001 11.1 12.4971 11.1 12.0001C11.1 11.5031 11.503 11.1001 12 11.1001ZM19.2 12.8001H14.4V11.2001H19.2V12.8001Z"/>
</svg>
