<svg width="24" height="24" viewBox="0 0 24 24" xmlns="http://www.w3.org/2000/svg">
<path d="M21.645 17.671L16.82 12.846C18.248 12.815 19.61 12.222 20.666 11.166C21.717 10.115 22.297 8.74297 22.3 7.30197C22.302 6.48597 22.107 5.66297 21.722 4.85597L21.695 4.79997H20.268L18.068 6.99997H16.999V5.93097L19.199 3.73097V2.30397L19.144 2.27697C18.352 1.89897 17.507 1.69897 16.699 1.69897C15.26 1.69897 13.887 2.27897 12.833 3.33297C11.748 4.41797 11.15 5.82697 11.15 7.29798C11.15 8.30798 10.745 9.29297 10.038 9.99897L2.38396 17.656C1.85496 18.185 1.56396 18.888 1.56396 19.636C1.56396 20.384 1.85496 21.087 2.38396 21.616C2.92996 22.162 3.64696 22.435 4.36396 22.435C5.08096 22.435 5.79796 22.162 6.34396 21.616L11.993 15.967L17.671 21.645C18.219 22.193 18.938 22.467 19.658 22.467C20.378 22.467 21.097 22.193 21.645 21.645C22.74 20.55 22.74 18.766 21.645 17.671ZM5.21296 20.484C4.74496 20.952 3.98396 20.952 3.51596 20.484C3.04796 20.016 3.04796 19.255 3.51596 18.787L11.171 11.132C12.176 10.127 12.752 8.72997 12.752 7.29897C12.752 6.25497 13.183 5.24797 13.967 4.46497C14.719 3.71297 15.69 3.29897 16.701 3.29897C16.902 3.29897 17.108 3.31697 17.316 3.35297L15.401 5.26797V8.59897H18.732L20.648 6.68298C20.683 6.88898 20.701 7.09398 20.7 7.29798C20.698 8.31297 20.284 9.28497 19.534 10.034C18.751 10.817 17.744 11.249 16.7 11.249C15.269 11.249 13.872 11.825 12.867 12.83L5.21196 20.485L5.21296 20.484ZM20.513 20.513C20.041 20.985 19.274 20.985 18.802 20.513L13.124 14.835L13.998 13.961C14.283 13.676 14.613 13.442 14.971 13.261L20.512 18.802C20.74 19.03 20.866 19.334 20.866 19.657C20.866 19.98 20.74 20.284 20.512 20.512L20.513 20.513ZM8.32596 9.45697L4.50296 5.63397L5.63396 4.50297L9.45696 8.32597L8.32596 9.45697ZM2.39996 3.29997C2.39996 2.80297 2.80296 2.39997 3.29996 2.39997C3.79696 2.39997 4.19996 2.80297 4.19996 3.29997C4.19996 3.79697 3.79696 4.19997 3.29996 4.19997C2.80296 4.19997 2.39996 3.79697 2.39996 3.29997Z"/>
</svg>
