<svg width="24" height="24" viewBox="0 0 24 24" xmlns="http://www.w3.org/2000/svg">
<path d="M3.3 16.3002C3.3 16.7972 2.897 17.2002 2.4 17.2002C1.903 17.2002 1.5 16.7972 1.5 16.3002C1.5 15.8032 1.903 15.4002 2.4 15.4002C2.897 15.4002 3.3 15.8032 3.3 16.3002ZM22.4 17.2002H18.883C18.538 18.3552 17.466 19.2002 16.2 19.2002C14.934 19.2002 13.862 18.3552 13.517 17.2002H10.483C10.138 18.3552 9.066 19.2002 7.8 19.2002C6.256 19.2002 5 17.9442 5 16.4002C5 14.8562 6.256 13.6002 7.8 13.6002C9.066 13.6002 10.138 14.4452 10.483 15.6002H13.517C13.862 14.4452 14.934 13.6002 16.2 13.6002C17.466 13.6002 18.538 14.4452 18.883 15.6002H20.8V10.6422L17.972 6.4002H16V12.0002H4C3.559 12.0002 3.2 12.3592 3.2 12.8002V13.8002H1.6V12.8002C1.6 11.4772 2.677 10.4002 4 10.4002H13.269L8.8 5.9312V6.4002C8.8 7.7232 7.723 8.8002 6.4 8.8002H5.6V7.2002H6.4C6.841 7.2002 7.2 6.8412 7.2 6.4002V4.9002C7.2 4.2272 7.683 3.7002 8.3 3.7002C8.837 3.7002 9.127 3.9942 9.236 4.1052L14.4 9.2692V4.8002H18.186C18.588 4.8002 18.961 5.0002 19.185 5.3342L22.199 9.8552C22.331 10.0532 22.401 10.2832 22.401 10.5212L22.4 17.2002ZM9 16.4002C9 15.7382 8.462 15.2002 7.8 15.2002C7.138 15.2002 6.6 15.7382 6.6 16.4002C6.6 17.0622 7.138 17.6002 7.8 17.6002C8.462 17.6002 9 17.0622 9 16.4002ZM17.4 16.4002C17.4 15.7382 16.862 15.2002 16.2 15.2002C15.538 15.2002 15 15.7382 15 16.4002C15 17.0622 15.538 17.6002 16.2 17.6002C16.862 17.6002 17.4 17.0622 17.4 16.4002Z"/>
</svg>
