<svg width="24" height="24" viewBox="0 0 24 24" xmlns="http://www.w3.org/2000/svg">
<path d="M13.4998 7.99992C13.4998 7.50292 13.9028 7.09992 14.3998 7.09992C14.8968 7.09992 15.2998 7.50292 15.2998 7.99992C15.2998 8.49692 14.8968 8.89992 14.3998 8.89992C13.9028 8.89992 13.4998 8.49692 13.4998 7.99992ZM13.5998 15.9999H8.79984V17.5999H13.5998C15.3638 17.5999 16.7998 16.1639 16.7998 14.3999H15.1998C15.1998 15.2819 14.4818 15.9999 13.5998 15.9999ZM19.1308 8.79992C19.0208 9.44892 18.7788 10.0689 18.4208 10.6199C19.8808 11.6509 20.7888 13.3449 20.7998 15.1649C20.8088 16.6369 20.2298 18.0349 19.1688 19.1009C18.0958 20.1799 16.6168 20.7989 15.1118 20.7989H8.88484C7.37884 20.7989 5.89984 20.1799 4.82884 19.1009C3.76884 18.0329 3.18984 16.6329 3.20084 15.1589C3.20984 13.8649 3.67084 12.6059 4.49884 11.6129C4.71384 11.3559 5.02884 11.1989 5.36484 11.1839C5.70084 11.1689 6.03084 11.2969 6.26884 11.5339C6.82584 12.0909 7.56684 12.3979 8.35384 12.3979H10.0408C10.5618 12.3979 10.7668 12.0009 10.8168 11.8789C10.8668 11.7569 11.0028 11.3319 10.6348 10.9629L10.5948 10.9229L10.5608 10.8779C9.93284 10.0419 9.60084 9.04592 9.60084 7.99792C9.60084 6.67192 10.1568 5.39192 11.1278 4.48692C12.1118 3.56892 13.3958 3.11592 14.7438 3.20992C16.9738 3.36592 18.7718 5.03892 19.1338 7.19792H20.8008V8.79792H19.1318L19.1308 8.79992ZM16.8768 11.5689L15.8308 11.0849L16.6498 10.2739C17.3038 9.62592 17.6398 8.76192 17.5958 7.83992C17.5188 6.24992 16.2168 4.91792 14.6308 4.80792C13.7308 4.74492 12.8728 5.04692 12.2178 5.65892C11.5618 6.27092 11.1998 7.10292 11.1998 7.99992C11.1998 8.68292 11.4108 9.33192 11.8108 9.88092C12.4848 10.5899 12.6708 11.5849 12.2948 12.4939C11.9098 13.4229 11.0458 13.9999 10.0408 13.9999H8.35384C7.29284 13.9999 6.28684 13.6389 5.47684 12.9749C5.04384 13.6219 4.80684 14.3869 4.80084 15.1709C4.79384 16.2149 5.20684 17.2109 5.96484 17.9739C6.73784 18.7529 7.80284 19.1999 8.88584 19.1999H15.1128C16.1958 19.1999 17.2608 18.7529 18.0358 17.9739C18.7938 17.2119 19.2078 16.2179 19.2008 15.1749C19.1918 13.6329 18.2788 12.2169 16.8768 11.5689Z"/>
</svg>
