<svg width="24" height="24" viewBox="0 0 24 24" xmlns="http://www.w3.org/2000/svg">
<path d="M9.60001 11.2001H11.2V12.8001H9.60001V11.2001ZM6.40001 12.8001H8.00001V11.2001H6.40001V12.8001ZM12.8 12.8001H14.4V11.2001H12.8V12.8001ZM9.60001 16.0001H11.2V14.4001H9.60001V16.0001ZM6.40001 16.0001H8.00001V14.4001H6.40001V16.0001ZM12.8 16.0001H14.4V14.4001H12.8V16.0001ZM9.60001 19.2001H11.2V17.6001H9.60001V19.2001ZM6.40001 19.2001H8.00001V17.6001H6.40001V19.2001ZM12.8 19.2001H14.4V17.6001H12.8V19.2001ZM6.40001 4.8001H14.4V9.6001H6.40001V4.8001ZM8.00001 8.0001H12.8V6.4001H8.00001V8.0001ZM20.8 6.0001V18.8001C20.8 19.9031 19.903 20.8001 18.8 20.8001H17.56C17.374 21.7121 16.566 22.4001 15.6 22.4001H5.20001C4.09701 22.4001 3.20001 21.5031 3.20001 20.4001V3.6001C3.20001 2.4971 4.09701 1.6001 5.20001 1.6001H15.6C16.703 1.6001 17.6 2.4971 17.6 3.6001V4.0001H18.8C19.903 4.0001 20.8 4.8971 20.8 6.0001ZM16 20.4001V3.6001C16 3.3791 15.821 3.2001 15.6 3.2001H5.20001C4.97901 3.2001 4.80001 3.3791 4.80001 3.6001V20.4001C4.80001 20.6211 4.97901 20.8001 5.20001 20.8001H15.6C15.821 20.8001 16 20.6211 16 20.4001ZM19.2 6.0001C19.2 5.7791 19.021 5.6001 18.8 5.6001H17.6V19.2001H18.8C19.021 19.2001 19.2 19.0211 19.2 18.8001V6.0001Z"/>
</svg>
