<svg width="24" height="24" viewBox="0 0 24 24" xmlns="http://www.w3.org/2000/svg">
<path d="M14.9998 1.6001H8.9998C8.3378 1.6001 7.7998 2.1381 7.7998 2.8001V15.4001C7.7998 16.0621 8.3378 16.6001 8.9998 16.6001H11.1998V22.4001H12.7998V16.6001H14.9998C15.6618 16.6001 16.1998 16.0621 16.1998 15.4001V2.8001C16.1998 2.1381 15.6618 1.6001 14.9998 1.6001ZM14.5998 15.0001H9.3998V3.2001H14.5998V15.0001ZM11.0998 5.7001C11.0998 5.2031 11.5028 4.8001 11.9998 4.8001C12.4968 4.8001 12.8998 5.2031 12.8998 5.7001C12.8998 6.1971 12.4968 6.6001 11.9998 6.6001C11.5028 6.6001 11.0998 6.1971 11.0998 5.7001ZM11.0998 9.1001C11.0998 8.6031 11.5028 8.2001 11.9998 8.2001C12.4968 8.2001 12.8998 8.6031 12.8998 9.1001C12.8998 9.5971 12.4968 10.0001 11.9998 10.0001C11.5028 10.0001 11.0998 9.5971 11.0998 9.1001ZM11.0998 12.5001C11.0998 12.0031 11.5028 11.6001 11.9998 11.6001C12.4968 11.6001 12.8998 12.0031 12.8998 12.5001C12.8998 12.9971 12.4968 13.4001 11.9998 13.4001C11.5028 13.4001 11.0998 12.9971 11.0998 12.5001Z"/>
</svg>
