<svg width="24" height="24" viewBox="0 0 24 24" xmlns="http://www.w3.org/2000/svg">
<path d="M6.60001 14.4C6.60001 14.897 6.19701 15.3 5.70001 15.3C5.20301 15.3 4.80001 14.897 4.80001 14.4C4.80001 13.903 5.20301 13.5 5.70001 13.5C6.19701 13.5 6.60001 13.903 6.60001 14.4ZM23.2 14.4C23.2 17.488 20.688 20 17.6 20C16.547 20 15.561 19.707 14.719 19.2H1.60001V4.80005H22.4V11.519C22.907 12.361 23.2 13.347 23.2 14.4ZM3.20001 17.6H13.008C12.518 16.9 12.185 16.083 12.058 15.2H8.20001V13.6H12.058C12.447 10.89 14.784 8.80005 17.6 8.80005C18.789 8.80005 19.892 9.17405 20.8 9.80805V6.40005H3.20001V17.6ZM21.6 14.4C21.6 12.194 19.806 10.4 17.6 10.4C15.394 10.4 13.6 12.194 13.6 14.4C13.6 16.606 15.394 18.4 17.6 18.4C19.806 18.4 21.6 16.606 21.6 14.4ZM16.034 12.966L17.468 14.4L16.034 15.834L17.165 16.965L19.731 14.399L17.165 11.833L16.034 12.964V12.966Z"/>
</svg>
