<svg width="24" height="24" viewBox="0 0 24 24" xmlns="http://www.w3.org/2000/svg">
<path d="M20.9 12.0001C20.9 12.4971 20.497 12.9001 20 12.9001C19.503 12.9001 19.1 12.4971 19.1 12.0001C19.1 11.5031 19.503 11.1001 20 11.1001C20.497 11.1001 20.9 11.5031 20.9 12.0001ZM20 15.1001C19.503 15.1001 19.1 15.5031 19.1 16.0001C19.1 16.4971 19.503 16.9001 20 16.9001C20.497 16.9001 20.9 16.4971 20.9 16.0001C20.9 15.5031 20.497 15.1001 20 15.1001ZM20 8.9001C20.497 8.9001 20.9 8.4971 20.9 8.0001C20.9 7.5031 20.497 7.1001 20 7.1001C19.503 7.1001 19.1 7.5031 19.1 8.0001C19.1 8.4971 19.503 8.9001 20 8.9001ZM3.20001 16.8001H15.2V15.2001H3.20001V16.8001ZM3.20001 8.8001H17.5V7.2001H3.20001V8.8001ZM12.8 11.2001H3.20001V12.8001H12.8V11.2001Z"/>
</svg>
