<svg width="24" height="24" viewBox="0 0 24 24" xmlns="http://www.w3.org/2000/svg">
<path d="M3.99899 19.2001C3.99899 19.6971 3.59599 20.1001 3.09899 20.1001C2.60199 20.1001 2.19899 19.6971 2.19899 19.2001C2.19899 18.7031 2.60199 18.3001 3.09899 18.3001C3.59599 18.3001 3.99899 18.7031 3.99899 19.2001ZM22.749 16.8001C22.749 19.8881 20.237 22.4001 17.149 22.4001C15.25 22.4001 13.571 21.4491 12.557 20.0001H5.59899V18.4001H11.783C11.631 17.8931 11.549 17.3561 11.549 16.8001C11.549 15.6621 11.891 14.6041 12.476 13.7191L5.33499 16.3501L1.38499 11.4131C1.12099 11.0831 1.04999 10.6491 1.19499 10.2531C1.33999 9.85608 1.67299 9.57008 2.08699 9.48708L3.29399 9.24608C3.58199 9.18808 3.88099 9.23808 4.13399 9.38608L6.07699 10.5191L8.43199 9.65108L5.45299 6.24708C5.17199 5.92608 5.08299 5.47508 5.21999 5.07108C5.35699 4.66708 5.70199 4.36408 6.12099 4.28008L7.28599 4.04708C7.58999 3.98608 7.90099 4.04408 8.16299 4.21008L13.694 7.71308L15.939 6.89008C17.042 6.48508 18.235 6.53808 19.299 7.03908C20.362 7.54008 21.163 8.42608 21.554 9.53408L21.817 10.2781L18.71 11.4231C21.041 12.1001 22.749 14.2541 22.749 16.8001ZM5.86399 14.4501L19.676 9.36108C19.406 8.98808 19.045 8.68808 18.617 8.48608C17.944 8.16908 17.188 8.13508 16.49 8.39208L13.505 9.48708L7.44299 5.64708L7.11299 5.71308L11.169 10.3481L5.92399 12.2801L3.46099 10.8431L3.04799 10.9261L5.86699 14.4491L5.86399 14.4501ZM21.149 16.8001C21.149 14.5941 19.355 12.8001 17.149 12.8001C14.943 12.8001 13.149 14.5941 13.149 16.8001C13.149 19.0061 14.943 20.8001 17.149 20.8001C19.355 20.8001 21.149 19.0061 21.149 16.8001ZM19.036 17.1291C18.949 16.9611 18.828 16.8181 18.675 16.7031C18.529 16.5931 18.355 16.5021 18.158 16.4311C17.971 16.3631 17.752 16.3051 17.561 16.2571L17.479 16.2361C17.321 16.1951 17.163 16.1551 17.031 16.1231C16.906 16.0921 16.788 16.0251 16.726 15.9721C16.709 15.9571 16.656 15.9121 16.656 15.7781C16.656 15.6911 16.683 15.6191 16.737 15.5591C16.79 15.5011 16.888 15.4601 16.999 15.4491C17.175 15.4321 17.335 15.4401 17.45 15.4711C17.587 15.5081 17.703 15.5641 17.803 15.6421C17.917 15.7311 18.027 15.8311 18.131 15.9391L18.275 16.0891L19.129 15.2901L19.009 15.1611C18.926 15.0721 18.838 14.9871 18.75 14.9091C18.656 14.8271 18.551 14.7531 18.436 14.6891C18.321 14.6241 18.189 14.5691 18.045 14.5241C17.955 14.4961 17.868 14.4751 17.748 14.4521V13.8011H16.548V14.4651C16.462 14.4861 16.372 14.5121 16.298 14.5401C16.103 14.6141 15.935 14.7161 15.798 14.8401C15.66 14.9661 15.552 15.1171 15.477 15.2901C15.403 15.4611 15.365 15.6521 15.365 15.8571C15.365 16.0931 15.413 16.2981 15.507 16.4651C15.6 16.6301 15.724 16.7691 15.877 16.8791C16.023 16.9841 16.192 17.0711 16.381 17.1371C16.557 17.1991 16.741 17.2531 16.924 17.2981L17.447 17.4311C17.606 17.4801 17.723 17.5381 17.794 17.6031C17.849 17.6541 17.876 17.7251 17.876 17.8211C17.876 17.9311 17.848 18.0101 17.791 18.0621C17.733 18.1161 17.612 18.1601 17.476 18.1791C17.32 18.2001 17.168 18.1981 17.01 18.1741C16.857 18.1501 16.705 18.0881 16.558 17.9881C16.401 17.8821 16.259 17.7501 16.136 17.5951L15.991 17.4141L15.164 18.2291L15.269 18.3531C15.365 18.4671 15.469 18.5721 15.577 18.6641C15.689 18.7601 15.813 18.8441 15.947 18.9141C16.079 18.9841 16.228 19.0431 16.389 19.0911C16.437 19.1051 16.492 19.1181 16.547 19.1311V19.8021H17.747V19.1741C17.91 19.1441 18.111 19.0991 18.26 19.0361C18.465 18.9491 18.637 18.8391 18.771 18.7081C18.907 18.5751 19.008 18.4211 19.072 18.2511C19.133 18.0861 19.165 17.9121 19.165 17.7321C19.165 17.5001 19.121 17.2981 19.035 17.1301L19.036 17.1291Z"/>
</svg>
