<svg width="24" height="24" viewBox="0 0 24 24" xmlns="http://www.w3.org/2000/svg">
<path d="M21.5999 17.6H5.5999V4.39995C5.5999 3.73795 5.0619 3.19995 4.3999 3.19995H2.3999V4.79995H3.9999V19.2H7.3379C7.2489 19.45 7.1999 19.72 7.1999 20C7.1999 21.323 8.2769 22.4 9.5999 22.4C10.9229 22.4 11.9999 21.323 11.9999 20C11.9999 19.72 11.9509 19.45 11.8619 19.2H15.3379C15.2489 19.45 15.1999 19.72 15.1999 20C15.1999 21.323 16.2769 22.4 17.5999 22.4C18.9229 22.4 19.9999 21.323 19.9999 20C19.9999 19.72 19.9509 19.45 19.8619 19.2H21.5989L21.5999 17.6ZM10.3999 20C10.3999 20.441 10.0409 20.8 9.5999 20.8C9.1589 20.8 8.7999 20.441 8.7999 20C8.7999 19.559 9.1589 19.2 9.5999 19.2C10.0409 19.2 10.3999 19.559 10.3999 20ZM18.3999 20C18.3999 20.441 18.0409 20.8 17.5999 20.8C17.1589 20.8 16.7999 20.441 16.7999 20C16.7999 19.559 17.1589 19.2 17.5999 19.2C18.0409 19.2 18.3999 19.559 18.3999 20ZM18.7999 6.39995H16.7999V4.79995C16.7999 3.91795 16.0819 3.19995 15.1999 3.19995H11.9999C11.1179 3.19995 10.3999 3.91795 10.3999 4.79995V6.39995H8.3999C7.7379 6.39995 7.1999 6.93795 7.1999 7.59995V14.8C7.1999 15.462 7.7379 16 8.3999 16H18.7999C19.4619 16 19.9999 15.462 19.9999 14.8V7.59995C19.9999 6.93795 19.4619 6.39995 18.7999 6.39995ZM11.9999 4.79995H15.1999V6.39995H11.9999V4.79995ZM18.3999 7.99995V9.53995C16.9019 10.376 15.2899 10.8 13.5999 10.8C11.9099 10.8 10.2979 10.376 8.7999 9.53995V7.99995H18.3999ZM8.7999 14.4V11.336C10.3149 12.042 11.9229 12.4 13.5999 12.4C15.2769 12.4 16.8849 12.042 18.3999 11.336V14.4H8.7999Z"/>
</svg>
