<svg width="24" height="24" viewBox="0 0 24 24" xmlns="http://www.w3.org/2000/svg">
<path d="M15.0631 15.9721L15.7091 17.8711C15.4651 18.2221 14.3741 18.6331 13.3871 18.6511C10.4681 18.6991 9.3591 16.5831 9.3591 15.0961V10.7491H8.0001V9.0321C10.0351 8.3061 10.5231 6.4871 10.6391 5.4471C10.6441 5.3961 10.6851 5.3551 10.7371 5.3501H12.6991V8.7361H15.3801V10.7491H12.6861V14.8911C12.6981 15.4531 12.9051 16.2331 13.9781 16.2031C14.3381 16.1911 14.8131 16.0931 15.0631 15.9721ZM12.0001 22.4001C6.2651 22.4001 1.6001 17.7351 1.6001 12.0001C1.6001 6.2651 6.2651 1.6001 12.0001 1.6001C17.7351 1.6001 22.4001 6.2651 22.4001 12.0001C22.4001 17.7351 17.7351 22.4001 12.0001 22.4001ZM12.0001 3.2001C7.1481 3.2001 3.2001 7.1481 3.2001 12.0001C3.2001 16.8521 7.1481 20.8001 12.0001 20.8001C16.8521 20.8001 20.8001 16.8521 20.8001 12.0001C20.8001 7.1481 16.8521 3.2001 12.0001 3.2001Z"/>
</svg>
