<svg width="24" height="24" viewBox="0 0 24 24" xmlns="http://www.w3.org/2000/svg">
<path d="M9.77602 10.3129C8.50802 10.3129 7.72002 11.2859 7.72002 12.8519C7.72002 14.4179 8.50802 15.3909 9.77602 15.3909C11.044 15.3909 11.826 14.4179 11.826 12.8519C11.826 11.2859 11.041 10.3129 9.77602 10.3129ZM9.77602 14.3839C9.05603 14.3839 8.94902 13.4239 8.94902 12.8519C8.94902 11.8479 9.22703 11.3389 9.77602 11.3389C10.46 11.3389 10.603 12.1619 10.603 12.8519C10.603 13.5419 10.459 14.3839 9.77602 14.3839ZM15.93 15.3019H12.178V15.0999C12.178 14.3259 12.424 13.6529 13.628 12.8819L13.645 12.8709C14.358 12.4189 14.598 12.2659 14.598 11.8479C14.598 11.5479 14.41 11.3759 14.082 11.3759C13.726 11.3759 13.364 11.6149 13.112 12.0149L13.052 12.1109L12.209 11.4169L12.258 11.3419C12.71 10.6489 13.317 10.3119 14.114 10.3119C15.155 10.3119 15.802 10.8739 15.802 11.7769C15.802 12.3639 15.62 12.8429 14.714 13.4169C14.275 13.6959 13.778 14.0359 13.64 14.2929H15.74L15.93 15.2999V15.3019ZM20 2.83589V15.8089C20 16.1739 19.837 16.5149 19.553 16.7429L12.753 22.2209C12.535 22.3969 12.268 22.4849 12 22.4849C11.732 22.4849 11.465 22.3969 11.247 22.2209L4.44702 16.7429C4.16302 16.5139 4.00002 16.1729 4.00002 15.8089V11.9999H5.60002V15.6169L12 20.7729L18.4 15.6169V3.67189L12.753 8.22089C12.317 8.57189 11.684 8.57189 11.247 8.22089L5.60002 3.67189V6.99989H4.00002V2.83589C4.00002 2.36989 4.26102 1.95489 4.68202 1.75389C5.10302 1.55289 5.59002 1.60889 5.95302 1.90189L12 6.77289L18.047 1.90189C18.41 1.60889 18.897 1.55289 19.318 1.75389C19.739 1.95489 20 2.36989 20 2.83589ZM5.70002 9.49989C5.70002 9.99689 5.29702 10.3999 4.80002 10.3999C4.30302 10.3999 3.90002 9.99689 3.90002 9.49989C3.90002 9.00289 4.30302 8.59989 4.80002 8.59989C5.29702 8.59989 5.70002 9.00289 5.70002 9.49989Z"/>
</svg>
