<svg width="24" height="24" viewBox="0 0 24 24" xmlns="http://www.w3.org/2000/svg">
<path d="M20.4001 4.80005H3.6001C2.4971 4.80005 1.6001 5.69705 1.6001 6.80005V15.6C1.6001 16.703 2.4971 17.6 3.6001 17.6H4.8691L3.4351 19.034L4.5661 20.165L7.1321 17.599H16.7691L19.4351 20.265L20.5661 19.134L19.0321 17.6H20.4011C21.5041 17.6 22.4011 16.703 22.4011 15.6V6.80005C22.4011 5.69705 21.5031 4.80005 20.4001 4.80005ZM20.8001 15.6C20.8001 15.821 20.6211 16 20.4001 16H3.6001C3.3791 16 3.2001 15.821 3.2001 15.6V6.80005C3.2001 6.57905 3.3791 6.40005 3.6001 6.40005H20.4001C20.6211 6.40005 20.8001 6.57905 20.8001 6.80005V15.6ZM19.2001 13.5C19.2001 13.997 18.7971 14.4 18.3001 14.4C17.8031 14.4 17.4001 13.997 17.4001 13.5C17.4001 13.003 17.8031 12.6 18.3001 12.6C18.7971 12.6 19.2001 13.003 19.2001 13.5Z"/>
</svg>
