<svg width="24" height="24" viewBox="0 0 24 24" xmlns="http://www.w3.org/2000/svg">
<path d="M12.9671 11.2041L16.7511 6.8001H15.8541L12.5691 10.6241L9.9451 6.8001H6.9191L10.8871 12.5821L6.9191 17.2001H7.8161L11.2851 13.1621L14.0561 17.2001H17.0821L12.9671 11.2041ZM11.7391 12.6331L8.1381 7.4761H9.5151L15.8551 16.5551H14.4781L11.7401 12.6331H11.7391Z"/>
<path d="M12.0001 22.4001C6.2651 22.4001 1.6001 17.7351 1.6001 12.0001C1.6001 6.2651 6.2651 1.6001 12.0001 1.6001C17.7351 1.6001 22.4001 6.2651 22.4001 12.0001C22.4001 17.7351 17.7351 22.4001 12.0001 22.4001ZM12.0001 3.2001C7.1481 3.2001 3.2001 7.1481 3.2001 12.0001C3.2001 16.8521 7.1481 20.8001 12.0001 20.8001C16.8521 20.8001 20.8001 16.8521 20.8001 12.0001C20.8001 7.1481 16.8521 3.2001 12.0001 3.2001Z"/>
</svg>
