<svg width="24" height="24" viewBox="0 0 24 24" xmlns="http://www.w3.org/2000/svg">
<path d="M12.331 1.6001H4V22.4001H7V20.8001H5.6V3.2001H11.2V10.4001H18.4V20.8001H12V22.4001H20V9.2691L12.331 1.6001ZM12.8 4.3311L17.269 8.8001H12.8V4.3311ZM10.4 21.6001C10.4 21.7781 10.3472 21.9521 10.2483 22.1001C10.1494 22.2481 10.0089 22.3635 9.84442 22.4316C9.67996 22.4997 9.499 22.5175 9.32442 22.4828C9.14984 22.4481 8.98947 22.3624 8.8636 22.2365C8.73774 22.1106 8.65202 21.9503 8.61729 21.7757C8.58257 21.6011 8.60039 21.4201 8.66851 21.2557C8.73663 21.0912 8.85198 20.9507 8.99999 20.8518C9.14799 20.7529 9.322 20.7001 9.5 20.7001C9.73869 20.7001 9.96761 20.7949 10.1364 20.9637C10.3052 21.1325 10.4 21.3614 10.4 21.6001ZM10.213 13.9181L10.352 14.7031H9.331V17.3031H8.431V14.7001H7.484V13.9151L10.213 13.9181ZM12.542 15.5181L13.592 17.2181L12.662 17.3521L12.013 16.2701L11.413 17.2921H10.439L11.518 15.5111L10.571 13.9841L11.524 13.8501L12.063 14.7681L12.548 13.9091H13.51L12.543 15.5091L12.542 15.5181ZM16.659 14.7001H15.638V17.3001H14.738V14.7001H13.792V13.9151H16.52L16.659 14.7001Z"/>
</svg>
