<svg width="24" height="24" viewBox="0 0 24 24" xmlns="http://www.w3.org/2000/svg">
<path d="M15.08 2.3999C11.485 2.3999 8.56002 5.3249 8.56002 8.9199C8.56002 9.4199 8.61702 9.9159 8.72902 10.3989L2.76302 16.3649C2.52902 16.5989 2.40002 16.9109 2.40002 17.2419V21.5999H6.75802C7.08902 21.5999 7.40102 21.4709 7.63502 21.2369L9.35702 19.5149C9.59102 19.2809 9.72102 18.9689 9.72102 18.6379V17.6399H10.719C11.05 17.6399 11.362 17.5109 11.596 17.2769L13.602 15.2709C14.086 15.3829 14.581 15.4399 15.081 15.4399C18.676 15.4399 21.601 12.5149 21.601 8.9199C21.601 5.3249 18.675 2.3999 15.08 2.3999ZM15.08 13.8399C14.576 13.8399 14.079 13.7639 13.603 13.6139L13.14 13.4689L10.569 16.0399H8.12002V18.4889L6.60902 19.9999H4.00002V17.3909L10.531 10.8599L10.386 10.3969C10.236 9.9199 10.16 9.4229 10.16 8.9199C10.16 6.2069 12.367 3.9999 15.08 3.9999C17.793 3.9999 20 6.2069 20 8.9199C20 11.6329 17.793 13.8399 15.08 13.8399ZM17.8 7.0999C17.8 7.5969 17.397 7.9999 16.9 7.9999C16.403 7.9999 16 7.5969 16 7.0999C16 6.6029 16.403 6.1999 16.9 6.1999C17.397 6.1999 17.8 6.6029 17.8 7.0999Z"/>
</svg>
