<svg width="24" height="24" viewBox="0 0 24 24" xmlns="http://www.w3.org/2000/svg">
<path d="M6.5001 18.4C6.5001 18.897 6.0971 19.3 5.6001 19.3C5.1031 19.3 4.7001 18.897 4.7001 18.4C4.7001 17.903 5.1031 17.5 5.6001 17.5C6.0971 17.5 6.5001 17.903 6.5001 18.4ZM17.1661 13.534L13.6001 9.96805L10.0341 13.534L11.1651 14.665L12.7991 13.031V20.8H14.3991V13.031L16.0331 14.665L17.1641 13.534H17.1661ZM8.1001 19.2H11.2001V17.6H8.1001V19.2ZM19.1921 9.87105C19.1971 9.78105 19.2001 9.69005 19.2001 9.60005C19.2001 6.95305 17.0471 4.80005 14.4001 4.80005C12.4071 4.80005 10.6661 6.00505 9.9461 7.80605C9.8641 7.80205 9.7821 7.80005 9.7001 7.80005C7.7181 7.80005 5.9891 9.01805 5.3061 10.829C3.2221 11.074 1.6001 12.851 1.6001 15C1.6001 16.158 2.0711 17.208 2.8321 17.968L3.9621 16.838C3.4911 16.3671 3.2001 15.717 3.2001 15C3.2001 13.564 4.3641 12.4 5.8001 12.4C5.8181 12.4 5.8351 12.4 5.8531 12.401L6.5341 12.422L6.6811 11.798C6.6921 11.751 6.7041 11.705 6.7171 11.658C6.7171 11.658 6.7181 11.653 6.7191 11.651C6.7301 11.612 6.7421 11.573 6.7541 11.534C6.7571 11.525 6.7601 11.516 6.7631 11.507C6.7741 11.475 6.7851 11.443 6.7971 11.411C6.8081 11.38 6.8211 11.35 6.8331 11.32C6.8371 11.31 6.8411 11.3 6.8451 11.29C7.2411 10.347 8.0761 9.66505 9.0751 9.46205H9.0771C9.1221 9.45305 9.1681 9.44505 9.2141 9.43805C9.2251 9.43605 9.2351 9.43505 9.2461 9.43305C9.2831 9.42805 9.3201 9.42305 9.3571 9.41905C9.3711 9.41705 9.3861 9.41605 9.4001 9.41405C9.4361 9.41105 9.4721 9.40805 9.5081 9.40605C9.5221 9.40605 9.5361 9.40405 9.5501 9.40305C9.6001 9.40105 9.6491 9.39905 9.6991 9.39905C9.7601 9.39905 9.8211 9.40105 9.8831 9.40505C9.9051 9.40605 9.9271 9.40805 9.9491 9.41005C9.9881 9.41305 10.0261 9.41705 10.0641 9.42105C10.0891 9.42405 10.1151 9.42705 10.1401 9.43105C10.1771 9.43605 10.2141 9.44205 10.2501 9.44905C10.2731 9.45305 10.2961 9.45705 10.3191 9.46205C10.3261 9.46405 10.3341 9.46505 10.3411 9.46605L11.1061 9.62705L11.2791 8.89005C11.2911 8.83705 11.3041 8.78505 11.3191 8.73305V8.73005C11.3311 8.68805 11.3431 8.64605 11.3571 8.60505C11.3601 8.59705 11.3621 8.58905 11.3651 8.58105C11.3771 8.54605 11.3881 8.51205 11.4011 8.47805C11.4141 8.44205 11.4281 8.40705 11.4431 8.37205C11.4461 8.36605 11.4481 8.35905 11.4511 8.35305C11.8791 7.33305 12.8021 6.61005 13.8981 6.43905C13.9081 6.43705 13.9181 6.43605 13.9291 6.43405C13.9681 6.42805 14.0071 6.42305 14.0461 6.41905C14.0601 6.41705 14.0751 6.41605 14.0891 6.41405C14.1261 6.41005 14.1641 6.40805 14.2011 6.40505C14.2151 6.40505 14.2301 6.40305 14.2441 6.40205C14.2951 6.40005 14.3461 6.39805 14.3981 6.39805C16.1651 6.39805 17.5981 7.83105 17.5981 9.59805C17.5981 9.66405 17.5951 9.72905 17.5911 9.79505C17.5891 9.82305 17.5871 9.85005 17.5841 9.87705C17.5811 9.91305 17.5771 9.94905 17.5731 9.98505C17.5691 10.019 17.5641 10.053 17.5591 10.087C17.5551 10.115 17.5491 10.144 17.5441 10.172C17.5371 10.208 17.5311 10.244 17.5231 10.28C17.5231 10.283 17.5221 10.286 17.5211 10.289L17.3421 11.102L18.0821 11.234C18.2051 11.253 18.3251 11.279 18.4431 11.311L18.4471 11.312C18.4911 11.324 18.5351 11.337 18.5781 11.351C18.5841 11.353 18.5911 11.355 18.5971 11.358C18.6351 11.371 18.6731 11.383 18.7111 11.397C19.6451 11.742 20.3581 12.502 20.6511 13.44C20.6541 13.45 20.6571 13.46 20.6601 13.469C20.6711 13.506 20.6821 13.544 20.6921 13.582C20.6961 13.598 20.7001 13.614 20.7041 13.63C20.7121 13.662 20.7191 13.694 20.7261 13.727C20.7301 13.746 20.7341 13.765 20.7371 13.784C20.7431 13.815 20.7481 13.845 20.7531 13.876C20.7561 13.896 20.7601 13.916 20.7621 13.936C20.7661 13.967 20.7701 13.998 20.7741 14.029C20.7761 14.049 20.7791 14.069 20.7811 14.088C20.7841 14.1221 20.7871 14.156 20.7891 14.191C20.7901 14.208 20.7921 14.225 20.7921 14.242C20.7941 14.294 20.7961 14.345 20.7961 14.397C20.7961 16.164 19.3631 17.597 17.5961 17.597H15.9961V19.197H17.5961C20.2431 19.197 22.3961 17.044 22.3961 14.397C22.3961 12.329 21.0861 10.531 19.1881 9.86805L19.1921 9.87105Z"/>
</svg>
