<svg width="24" height="24" viewBox="0 0 24 24" xmlns="http://www.w3.org/2000/svg">
<path d="M20.8 11.0999C21.297 11.0999 21.7 11.5029 21.7 11.9999C21.7 12.4969 21.297 12.8999 20.8 12.8999C20.303 12.8999 19.9 12.4969 19.9 11.9999C19.9 11.5029 20.303 11.0999 20.8 11.0999ZM20.958 15.4519C20.98 15.3949 21.003 15.3389 21.024 15.2809C21.093 15.0889 21.155 14.8959 21.213 14.6999H19.53C19.516 14.7399 19.502 14.7799 19.488 14.8199C18.319 17.9219 15.323 19.9999 12 19.9999C7.58902 19.9999 4.00002 16.4109 4.00002 11.9999C4.00002 7.5889 7.58902 3.9999 12 3.9999C14.553 3.9999 16.905 5.1999 18.402 7.1999H16V8.7999H20.8V3.9999H19.2V5.6459C17.402 3.6039 14.802 2.3999 12 2.3999C6.70702 2.3999 2.40002 6.7069 2.40002 11.9999C2.40002 17.2929 6.70702 21.5999 12 21.5999C15.812 21.5999 19.266 19.3199 20.788 15.8659C20.809 15.8199 20.829 15.7729 20.848 15.7259C20.865 15.6849 20.883 15.6429 20.9 15.6019C20.92 15.5529 20.939 15.5019 20.958 15.4519Z"/>
</svg>
