<svg width="24" height="24" viewBox="0 0 24 24" xmlns="http://www.w3.org/2000/svg">
<path d="M8.85299 9.9129H9.93399V12.5209C9.93399 12.7789 9.89899 13.0169 9.83099 13.2289C9.76099 13.4449 9.65299 13.6309 9.50999 13.7809C9.36699 13.9319 9.18199 14.0499 8.95999 14.1309C8.74199 14.2109 8.48399 14.2509 8.19199 14.2509C7.89999 14.2509 7.64199 14.2109 7.42399 14.1309C7.20299 14.0499 7.01699 13.9319 6.87299 13.7809C6.72899 13.6299 6.62099 13.4449 6.55099 13.2299C6.48299 13.0199 6.44799 12.7829 6.44799 12.5259V9.9119H7.54499V12.5039C7.54499 12.7719 7.59899 12.9799 7.70499 13.1219C7.80599 13.2569 7.96899 13.3219 8.20499 13.3219C8.44099 13.3219 8.59499 13.2569 8.69399 13.1249C8.79799 12.9849 8.85099 12.7759 8.85099 12.5039V9.9119L8.85299 9.9129ZM13.426 11.9699C13.28 11.8729 13.113 11.7929 12.928 11.7309C12.75 11.6719 12.569 11.6169 12.392 11.5689C12.262 11.5319 12.144 11.4959 12.042 11.4619C11.946 11.4299 11.865 11.3929 11.801 11.3539C11.743 11.3179 11.699 11.2769 11.67 11.2319C11.643 11.1899 11.63 11.1399 11.63 11.0779C11.63 10.9899 11.668 10.9229 11.748 10.8649C11.837 10.8019 11.97 10.7689 12.145 10.7689C12.232 10.7689 12.325 10.7819 12.42 10.8069C12.518 10.8329 12.615 10.8689 12.708 10.9119C12.803 10.9559 12.895 11.0079 12.982 11.0649C13.069 11.1219 13.149 11.1819 13.219 11.2409L13.306 11.3149L13.831 10.5039L13.76 10.4479C13.66 10.3689 13.548 10.2909 13.427 10.2179C13.305 10.1439 13.173 10.0779 13.037 10.0229C12.9 9.9669 12.753 9.9219 12.6 9.8889C12.446 9.8549 12.286 9.8379 12.123 9.8379C11.899 9.8379 11.69 9.8669 11.5 9.9259C11.308 9.9849 11.14 10.0709 11.002 10.1829C10.862 10.2959 10.751 10.4359 10.672 10.5999C10.593 10.7639 10.553 10.9499 10.553 11.1519C10.553 11.3829 10.602 11.5779 10.699 11.7319C10.793 11.8819 10.918 12.0069 11.07 12.1029C11.216 12.1959 11.385 12.2729 11.57 12.3309C11.75 12.3879 11.932 12.4419 12.112 12.4919C12.369 12.5649 12.568 12.6409 12.701 12.7179C12.812 12.7829 12.863 12.8669 12.863 12.9829C12.863 13.0429 12.85 13.0929 12.823 13.1349C12.795 13.1799 12.756 13.2169 12.704 13.2479C12.649 13.2809 12.581 13.3059 12.502 13.3229C12.334 13.3599 12.123 13.3649 11.904 13.3019C11.79 13.2689 11.678 13.2249 11.571 13.1709C11.464 13.1159 11.361 13.0529 11.266 12.9819C11.171 12.9119 11.088 12.8389 11.018 12.7659L10.938 12.6819L10.344 13.4439L10.41 13.5059C10.515 13.6059 10.634 13.7019 10.764 13.7919C10.895 13.8829 11.038 13.9639 11.191 14.0329C11.344 14.1029 11.511 14.1589 11.688 14.1989C11.866 14.2399 12.056 14.2609 12.254 14.2609C12.532 14.2609 12.779 14.2249 12.989 14.1539C13.2 14.0819 13.377 13.9839 13.516 13.8639C13.657 13.7419 13.764 13.5969 13.834 13.4329C13.904 13.2709 13.939 13.0989 13.939 12.9239C13.939 12.6969 13.89 12.5029 13.794 12.3479C13.7 12.1969 13.576 12.0699 13.426 11.9699ZM17.71 12.3479C17.616 12.1969 17.492 12.0699 17.342 11.9699C17.196 11.8729 17.029 11.7929 16.844 11.7309C16.666 11.6719 16.485 11.6169 16.308 11.5689C16.178 11.5319 16.06 11.4959 15.958 11.4619C15.862 11.4299 15.781 11.3929 15.717 11.3539C15.659 11.3179 15.615 11.2769 15.586 11.2319C15.559 11.1899 15.546 11.1399 15.546 11.0779C15.546 10.9899 15.584 10.9229 15.664 10.8649C15.753 10.8019 15.886 10.7689 16.061 10.7689C16.148 10.7689 16.241 10.7819 16.336 10.8069C16.434 10.8329 16.531 10.8689 16.624 10.9119C16.719 10.9559 16.811 11.0079 16.898 11.0649C16.985 11.1219 17.065 11.1819 17.135 11.2409L17.222 11.3149L17.747 10.5039L17.676 10.4479C17.576 10.3689 17.464 10.2909 17.343 10.2179C17.221 10.1439 17.089 10.0779 16.953 10.0229C16.872 9.9899 16.787 9.9619 16.7 9.9369V9.2999H15.5V9.9039C15.472 9.9109 15.444 9.9179 15.417 9.9259C15.225 9.9849 15.057 10.0709 14.919 10.1829C14.779 10.2959 14.668 10.4359 14.589 10.5999C14.51 10.7639 14.47 10.9499 14.47 11.1519C14.47 11.3829 14.519 11.5779 14.616 11.7319C14.71 11.8819 14.835 12.0069 14.987 12.1029C15.133 12.1959 15.302 12.2729 15.487 12.3309C15.667 12.3879 15.849 12.4419 16.029 12.4919C16.286 12.5649 16.485 12.6409 16.618 12.7179C16.729 12.7829 16.78 12.8669 16.78 12.9829C16.78 13.0429 16.767 13.0929 16.74 13.1349C16.712 13.1799 16.673 13.2169 16.621 13.2479C16.566 13.2809 16.498 13.3059 16.419 13.3229C16.251 13.3599 16.04 13.3649 15.821 13.3019C15.707 13.2689 15.595 13.2249 15.488 13.1709C15.381 13.1159 15.278 13.0529 15.183 12.9819C15.088 12.9119 15.005 12.8389 14.935 12.7659L14.855 12.6819L14.261 13.4439L14.327 13.5059C14.432 13.6059 14.551 13.7019 14.681 13.7919C14.812 13.8829 14.955 13.9639 15.108 14.0329C15.23 14.0889 15.362 14.1349 15.5 14.1719V14.7979H16.7V14.2079C16.772 14.1929 16.841 14.1749 16.906 14.1529C17.117 14.0809 17.294 13.9829 17.433 13.8629C17.574 13.7409 17.681 13.5959 17.751 13.4319C17.821 13.2699 17.856 13.0979 17.856 12.9229C17.856 12.6959 17.807 12.5019 17.711 12.3469L17.71 12.3479ZM21.6 11.9999C21.6 17.2929 17.293 21.5999 12 21.5999C6.70699 21.5999 2.39999 17.2929 2.39999 11.9999C2.39999 6.7069 6.70699 2.3999 12 2.3999C17.293 2.3999 21.6 6.7069 21.6 11.9999ZM20 11.9999C20 7.5889 16.411 3.9999 12 3.9999C7.58899 3.9999 3.99999 7.5889 3.99999 11.9999C3.99999 16.4109 7.58899 19.9999 12 19.9999C16.411 19.9999 20 16.4109 20 11.9999Z"/>
</svg>
