<svg width="24" height="24" viewBox="0 0 24 24" xmlns="http://www.w3.org/2000/svg">
<path d="M12.7999 15.131V21.6H11.1999V15.131L9.56589 16.765L8.43489 15.634L12.0009 12.068L15.5669 15.634L14.4359 16.765L12.8019 15.131H12.7999ZM21.9739 10.631C21.7539 10.987 21.3719 11.2 20.9529 11.2H19.9999V18.4C19.9999 19.282 19.2819 20 18.3999 20H14.3999V18.4H18.3999V11.2H14.6469C14.1889 11.2 13.7779 10.946 13.5739 10.537L11.9999 7.38905L10.4259 10.537C10.2219 10.946 9.80989 11.2 9.35289 11.2H5.59989V18.4H9.59989V20H5.59989C4.71789 20 3.99989 19.282 3.99989 18.4V11.2H3.04689C2.62789 11.2 2.24589 10.987 2.02589 10.631C1.80589 10.275 1.78589 9.83805 1.97389 9.46305L3.97389 5.46305C4.17789 5.05405 4.58989 4.80005 5.04689 4.80005H18.9529C19.4109 4.80005 19.8219 5.05405 20.0259 5.46305L22.0259 9.46305C22.2129 9.83805 22.1939 10.274 21.9739 10.631ZM10.7059 6.40005H5.29489L3.69489 9.60005H9.10589L10.7059 6.40005ZM20.3059 9.60005L18.7059 6.40005H13.2949L14.8949 9.60005H20.3059Z"/>
</svg>
