<svg width="24" height="24" viewBox="0 0 24 24" xmlns="http://www.w3.org/2000/svg">
<path d="M21.2 12.6001H18.711L14.255 8.5161C14.033 8.3121 13.745 8.2001 13.444 8.2001H12.708C12.767 7.8751 12.799 7.5411 12.799 7.2001C12.799 4.1121 10.287 1.6001 7.199 1.6001C4.111 1.6001 1.599 4.1121 1.599 7.2001C1.599 8.7741 2.253 10.1981 3.303 11.2171L1.911 12.7481C1.71 12.9691 1.599 13.2561 1.599 13.5551V15.4001H3.199V13.7091L4.606 12.1611C5.382 12.5681 6.263 12.8001 7.199 12.8001C9.349 12.8001 11.218 11.5821 12.157 9.8001H13.288L17.744 13.8841C17.966 14.0881 18.254 14.2001 18.555 14.2001H20.799V17.2001H18.982C18.637 16.0451 17.565 15.2001 16.299 15.2001C15.033 15.2001 13.961 16.0451 13.616 17.2001H10.382C10.037 16.0451 8.965 15.2001 7.699 15.2001C6.155 15.2001 4.899 16.4561 4.899 18.0001C4.899 19.5441 6.155 20.8001 7.699 20.8001C8.965 20.8001 10.037 19.9551 10.382 18.8001H13.616C13.961 19.9551 15.033 20.8001 16.299 20.8001C17.565 20.8001 18.637 19.9551 18.982 18.8001H21.199C21.861 18.8001 22.399 18.2621 22.399 17.6001V13.8001C22.399 13.1381 21.862 12.6001 21.2 12.6001ZM7.2 11.2001C4.994 11.2001 3.2 9.4061 3.2 7.2001C3.2 4.9941 4.994 3.2001 7.2 3.2001C9.406 3.2001 11.2 4.9941 11.2 7.2001C11.2 9.4061 9.406 11.2001 7.2 11.2001ZM7.7 19.2001C7.038 19.2001 6.5 18.6621 6.5 18.0001C6.5 17.3381 7.038 16.8001 7.7 16.8001C8.362 16.8001 8.9 17.3381 8.9 18.0001C8.9 18.6621 8.362 19.2001 7.7 19.2001ZM16.3 19.2001C15.638 19.2001 15.1 18.6621 15.1 18.0001C15.1 17.3381 15.638 16.8001 16.3 16.8001C16.962 16.8001 17.5 17.3381 17.5 18.0001C17.5 18.6621 16.962 19.2001 16.3 19.2001ZM3.3 17.9001C3.3 18.3971 2.897 18.8001 2.4 18.8001C1.903 18.8001 1.5 18.3971 1.5 17.9001C1.5 17.4031 1.903 17.0001 2.4 17.0001C2.897 17.0001 3.3 17.4031 3.3 17.9001ZM6.417 6.3191C6.417 6.3191 6.397 6.4351 6.378 6.6001H7.202V7.8001H6.378C6.397 7.9651 6.417 8.0791 6.417 8.0811C6.477 8.3471 6.582 8.5611 6.727 8.7121C6.867 8.8571 7.063 8.9281 7.328 8.9281C7.532 8.9281 7.694 8.8621 7.822 8.7251C7.957 8.5811 8.074 8.3481 8.168 8.0351L8.198 7.9361L9.4 8.3221L9.37 8.4161C9.214 8.9091 8.964 9.2991 8.626 9.5771C8.284 9.8581 7.845 10.0001 7.322 10.0001C7.054 10.0001 6.796 9.9631 6.556 9.8891C6.313 9.8151 6.091 9.6991 5.898 9.5451C5.704 9.3921 5.536 9.1931 5.397 8.9561C5.295 8.7801 5.124 8.3601 5.044 7.8001H4.401V6.6001H5.044C5.124 6.0401 5.294 5.6201 5.397 5.4441C5.536 5.2061 5.704 5.0081 5.898 4.8551C6.092 4.7011 6.313 4.5851 6.556 4.5111C6.797 4.4371 7.054 4.4001 7.322 4.4001C7.845 4.4001 8.284 4.5421 8.626 4.8231C8.964 5.1011 9.215 5.4921 9.37 5.9841L9.4 6.0781L8.198 6.4641L8.168 6.3651C8.074 6.0521 7.958 5.8201 7.822 5.6751C7.694 5.5391 7.532 5.4721 7.328 5.4721C7.063 5.4721 6.867 5.5431 6.727 5.6881C6.582 5.8391 6.477 6.0531 6.417 6.3191Z"/>
</svg>
