<svg width="24" height="24" viewBox="0 0 24 24" xmlns="http://www.w3.org/2000/svg">
<path d="M16.8 11.2V8.80003H4V17.6C4 20.247 6.153 22.4 8.8 22.4H12C14.374 22.4 16.35 20.667 16.732 18.4H18C19.103 18.4 20 17.503 20 16.4V11.2H16.8ZM12 20.8H8.8C7.036 20.8 5.6 19.365 5.6 17.6V10.4H15.2V17.6C15.2 19.365 13.764 20.8 12 20.8ZM18.4 16.4C18.4 16.621 18.221 16.8 18 16.8H16.8V12.8H18.4V16.4ZM5.834 5.43403C5.963 5.30503 5.963 5.09503 5.834 4.96503C5.081 4.21203 5.081 2.98703 5.834 2.23403L6.434 1.63403L7.565 2.76503L6.965 3.36503C6.836 3.49403 6.836 3.70403 6.965 3.83403C7.718 4.58703 7.718 5.81203 6.965 6.56503L6.365 7.16503L5.234 6.03403L5.834 5.43403ZM13.834 5.43403C13.963 5.30503 13.963 5.09503 13.834 4.96503C13.081 4.21203 13.081 2.98703 13.834 2.23403L14.434 1.63403L15.565 2.76503L14.965 3.36503C14.836 3.49403 14.836 3.70403 14.965 3.83403C15.718 4.58703 15.718 5.81203 14.965 6.56503L14.365 7.16503L13.234 6.03403L13.834 5.43403ZM9.834 5.43403C9.963 5.30503 9.963 5.09503 9.834 4.96503C9.081 4.21203 9.081 2.98703 9.834 2.23403L10.434 1.63403L11.565 2.76503L10.965 3.36503C10.836 3.49403 10.836 3.70403 10.965 3.83403C11.718 4.58703 11.718 5.81203 10.965 6.56503L10.365 7.16503L9.234 6.03403L9.834 5.43403Z"/>
</svg>
