<svg width="24" height="24" viewBox="0 0 24 24" xmlns="http://www.w3.org/2000/svg">
<path d="M7.9881 12.8H9.5961V14.4H7.9881V16.008H6.3881V14.4H4.7801V12.8H6.3881V11.192H7.9881V12.8ZM14.9001 12.7C14.4031 12.7 14.0001 13.103 14.0001 13.6C14.0001 14.097 14.4031 14.5 14.9001 14.5C15.3971 14.5 15.8001 14.097 15.8001 13.6C15.8001 13.103 15.3971 12.7 14.9001 12.7ZM18.3001 12.7C17.8031 12.7 17.4001 13.103 17.4001 13.6C17.4001 14.097 17.8031 14.5 18.3001 14.5C18.7971 14.5 19.2001 14.097 19.2001 13.6C19.2001 13.103 18.7971 12.7 18.3001 12.7ZM22.4001 13.6C22.4001 16.688 19.8881 19.2 16.8001 19.2C15.3351 19.2 13.9281 18.621 12.8851 17.6H11.1151C10.0721 18.621 8.6651 19.2 7.2001 19.2C4.1121 19.2 1.6001 16.688 1.6001 13.6C1.6001 10.512 4.1121 7.99995 7.2001 7.99995H11.2001C11.2001 6.23595 12.6351 4.79995 14.4001 4.79995C15.2821 4.79995 16.0001 4.08195 16.0001 3.19995H17.6001C17.6001 4.96395 16.1651 6.39995 14.4001 6.39995C13.5181 6.39995 12.8001 7.11795 12.8001 7.99995H16.8001C19.8881 7.99995 22.4001 10.512 22.4001 13.6ZM20.8001 13.6C20.8001 11.394 19.0061 9.59995 16.8001 9.59995H7.2001C4.9941 9.59995 3.2001 11.394 3.2001 13.6C3.2001 15.806 4.9941 17.6 7.2001 17.6C8.3341 17.6 9.4191 17.114 10.1781 16.266L10.4161 16H13.5831L13.8211 16.266C14.5801 17.114 15.6651 17.6 16.7991 17.6C19.0051 17.6 20.8001 15.806 20.8001 13.6Z"/>
</svg>
