<svg width="24" height="24" viewBox="0 0 24 24" xmlns="http://www.w3.org/2000/svg">
<path d="M2.8011 21.835C2.6461 21.835 2.4901 21.805 2.3411 21.743C1.8911 21.5569 1.6001 21.121 1.6001 20.634V3.19995H22.4001V18.4H6.7311L3.6481 21.483C3.4181 21.713 3.1121 21.835 2.8011 21.835ZM3.2001 4.79995V19.669L5.7171 17.152C5.9441 16.925 6.2451 16.801 6.5661 16.801H20.8001V4.79995H3.2001ZM17.7251 7.24295C17.3081 7.04095 16.8231 7.09195 16.4591 7.37795L15.1981 8.36795C15.1811 7.72095 14.6511 7.19995 14.0001 7.19995H6.8001C6.1381 7.19995 5.6001 7.73795 5.6001 8.39995V13.2C5.6001 13.862 6.1381 14.4 6.8001 14.4H14.0001C14.6511 14.4 15.1811 13.879 15.1981 13.232L16.4591 14.222C16.6761 14.392 16.9361 14.48 17.1981 14.48C17.3761 14.48 17.5561 14.44 17.7251 14.358C18.1411 14.155 18.4001 13.742 18.4001 13.279V8.32395C18.4001 7.86095 18.1411 7.44695 17.7251 7.24495V7.24295ZM13.6001 12.8H7.2001V8.79995H13.6001V12.8ZM16.8001 12.455L15.2001 11.199V10.401L16.8001 9.14495V12.455Z"/>
</svg>
