<svg width="24" height="24" viewBox="0 0 24 24" xmlns="http://www.w3.org/2000/svg">
<path d="M6.6001 10.1C6.6001 10.597 6.1971 11 5.7001 11C5.2031 11 4.8001 10.597 4.8001 10.1C4.8001 9.603 5.2031 9.2 5.7001 9.2C6.1971 9.2 6.6001 9.603 6.6001 10.1ZM22.4001 7.244V16.756C22.4001 17.26 22.0991 17.711 21.6331 17.904C21.4781 17.968 21.3161 17.999 21.1561 17.999C20.8661 17.999 20.5801 17.897 20.3521 17.703L17.3571 15.727C17.2081 17.005 16.1201 18 14.8031 18H4.1721C2.7541 18 1.6001 16.846 1.6001 15.428V8.572C1.6001 7.154 2.7541 6 4.1721 6H14.8031C16.1201 6 17.2081 6.995 17.3571 8.273L20.3521 6.297C20.7061 5.996 21.1981 5.916 21.6321 6.096C22.0981 6.289 22.4001 6.74 22.4001 7.244ZM15.7751 8.572C15.7751 8.036 15.3391 7.6 14.8031 7.6H4.1721C3.6361 7.6 3.2001 8.036 3.2001 8.572V15.428C3.2001 15.964 3.6361 16.4 4.1721 16.4H14.8031C15.3391 16.4 15.7751 15.964 15.7751 15.428V8.572ZM20.8001 7.918L17.4191 10.149V13.852L20.8001 16.083V7.918Z"/>
</svg>
