<svg width="24" height="24" viewBox="0 0 24 24" xmlns="http://www.w3.org/2000/svg">
<path d="M6.60007 10.1C6.60007 10.597 6.19707 11 5.70007 11C5.20307 11 4.80007 10.597 4.80007 10.1C4.80007 9.60303 5.20307 9.20003 5.70007 9.20003C6.19707 9.20003 6.60007 9.60303 6.60007 10.1ZM21.3661 2.56604L2.76607 21.166L1.63507 20.035L3.71207 17.959C2.51307 17.741 1.60107 16.69 1.60107 15.429V8.57304C1.60107 7.15504 2.75507 6.00103 4.17307 6.00103H14.8041C15.0661 6.00103 15.3181 6.04103 15.5571 6.11403L20.2351 1.43604L21.3661 2.56704V2.56604ZM5.26907 16.4L14.0691 7.60003H4.17207C3.63607 7.60003 3.20007 8.03604 3.20007 8.57203V15.428C3.20007 15.964 3.63607 16.4 4.17207 16.4H5.26907ZM22.4001 7.24403V16.756C22.4001 17.26 22.0991 17.711 21.6331 17.904C21.4781 17.968 21.3161 17.999 21.1561 17.999C20.8661 17.999 20.5801 17.897 20.3521 17.703L17.3571 15.727C17.2081 17.005 16.1201 18 14.8031 18H8.19107L9.79107 16.4H14.8031C15.3391 16.4 15.7751 15.964 15.7751 15.428V10.416L19.0081 7.18303L20.3521 6.29603C20.7061 5.99503 21.1981 5.91504 21.6321 6.09504C22.0981 6.28803 22.3991 6.73903 22.3991 7.24303L22.4001 7.24403ZM20.8001 7.91803L17.4191 10.149V13.852L20.8001 16.083V7.91803Z"/>
</svg>
