<svg width="24" height="24" viewBox="0 0 24 24" xmlns="http://www.w3.org/2000/svg">
<path d="M17.9761 9.6711C17.9201 10.8591 17.0771 12.4881 15.4461 14.5581C13.7601 16.7201 12.3341 17.7991 11.1681 17.7971C10.4431 17.7971 9.8351 17.1361 9.3331 15.8191L8.3351 12.1941C7.9631 10.8771 7.5661 10.2141 7.1381 10.2141C7.0451 10.2141 6.7231 10.4001 6.1651 10.7901L5.5821 10.0571C6.1901 9.5311 6.7911 9.0001 7.3861 8.4651C8.1981 7.7671 8.8121 7.4081 9.2211 7.3691C10.1841 7.2781 10.7771 7.9271 11.0001 9.3171C11.2421 10.8171 11.4091 11.7481 11.5021 12.1141C11.7811 13.3571 12.0851 13.9821 12.4201 13.9821C12.6801 13.9821 13.0711 13.5771 13.5861 12.7761C14.1011 11.9741 14.3801 11.3551 14.4171 10.9391C14.4911 10.2401 14.2121 9.8981 13.5861 9.8981C13.2711 9.9001 12.9591 9.9631 12.6681 10.0841C13.2821 8.1271 14.4491 7.1771 16.1711 7.2321C17.4481 7.2631 18.0501 8.0751 17.9751 9.6691L17.9761 9.6711ZM12.0001 1.6001C6.2651 1.6001 1.6001 6.2651 1.6001 12.0001C1.6001 17.7351 6.2651 22.4001 12.0001 22.4001C17.7351 22.4001 22.4001 17.7351 22.4001 12.0001C22.4001 6.2651 17.7351 1.6001 12.0001 1.6001ZM12.0001 20.8001C7.1481 20.8001 3.2001 16.8521 3.2001 12.0001C3.2001 7.1481 7.1481 3.2001 12.0001 3.2001C16.8521 3.2001 20.8001 7.1481 20.8001 12.0001C20.8001 16.8521 16.8521 20.8001 12.0001 20.8001Z"/>
</svg>
