<svg width="24" height="24" viewBox="0 0 24 24" xmlns="http://www.w3.org/2000/svg">
<path d="M20.7912 7.96601C20.7122 9.65301 19.5152 11.965 17.2012 14.902C14.8072 17.97 12.7832 19.503 11.1292 19.5C10.0992 19.5 9.2372 18.561 8.5242 16.692L7.1072 11.547C6.5792 9.67801 6.0162 8.73701 5.4092 8.73701C5.2772 8.73701 4.8192 9.00201 4.0272 9.55401L3.2002 8.51301C4.0622 7.76601 4.9162 7.01301 5.7612 6.25301C6.9142 5.26201 7.7852 4.75301 8.3662 4.69701C9.7332 4.56801 10.5752 5.48901 10.8922 7.46201C11.2352 9.59201 11.4732 10.912 11.6052 11.432C12.0012 13.196 12.4322 14.084 12.9072 14.084C13.2772 14.084 13.8312 13.51 14.5612 12.372C15.2912 11.234 15.6872 10.355 15.7402 9.76401C15.8462 8.77201 15.4502 8.28601 14.5612 8.28601C14.1142 8.28801 13.6712 8.37801 13.2592 8.55101C14.1302 5.77401 15.7882 4.42501 18.2312 4.50401C20.0442 4.54801 20.8972 5.70101 20.7922 7.96301V7.96701L20.7912 7.96601Z"/>
</svg>
