<svg width="24" height="24" viewBox="0 0 24 24" xmlns="http://www.w3.org/2000/svg">
<path d="M19.7331 6.04801L18.3431 5.81301C14.1341 5.04801 9.8661 5.04801 5.6611 5.81301L4.2441 6.06301C2.7121 6.33301 1.6001 7.65901 1.6001 9.21401V14.719C1.6001 16.301 2.7811 17.663 4.3471 17.887L5.0861 17.993L5.0991 17.995C5.1101 17.996 6.2301 18.137 7.3191 18.257C8.5061 18.388 9.6201 17.613 9.9101 16.453L10.0721 15.806C10.1611 15.449 10.4801 15.2 10.8481 15.2H13.1501C13.5181 15.2 13.8371 15.449 13.9261 15.806L14.0881 16.453C14.3561 17.527 15.3321 18.271 16.4181 18.271C16.5051 18.271 16.5921 18.266 16.6801 18.257C17.7701 18.137 18.8891 17.996 18.9001 17.995L19.6531 17.888C21.2191 17.664 22.4011 16.302 22.4011 14.72V9.20501C22.4011 7.63801 21.2791 6.31101 19.7341 6.05001L19.7331 6.04801ZM20.8001 14.718C20.8001 15.509 20.2091 16.19 19.4261 16.302L18.6931 16.407C18.6001 16.419 17.5381 16.552 16.5041 16.666C16.1081 16.71 15.7371 16.451 15.6411 16.065L15.4791 15.418C15.2111 14.348 14.2541 13.6 13.1511 13.6H10.8491C9.7461 13.6 8.7881 14.348 8.5211 15.418L8.3591 16.065C8.2621 16.451 7.8911 16.71 7.4951 16.666C6.4611 16.552 5.3981 16.419 5.3061 16.407L4.5731 16.302C3.7901 16.19 3.1991 15.509 3.1991 14.718V9.21301C3.1991 8.43501 3.7551 7.77201 4.5211 7.63701L5.9421 7.38601C9.9611 6.65601 14.0371 6.65601 18.0661 7.38801L19.4661 7.62501C20.2391 7.75601 20.7991 8.41901 20.7991 9.20301L20.8001 14.718ZM12.9001 9.40001C12.9001 9.89701 12.4971 10.3 12.0001 10.3C11.5031 10.3 11.1001 9.89701 11.1001 9.40001C11.1001 8.90301 11.5031 8.50001 12.0001 8.50001C12.4971 8.50001 12.9001 8.90301 12.9001 9.40001ZM19.2001 12H17.6001V10.55C17.1101 10.481 15.9941 10.335 14.5001 10.211V8.60501C16.6691 8.78101 18.0661 9.00001 18.1251 9.00901L18.1581 9.01501C18.4711 9.07801 19.2001 9.34001 19.2001 10.399V12Z"/>
</svg>
