<svg width="24" height="24" viewBox="0 0 24 24" xmlns="http://www.w3.org/2000/svg">
<path d="M11.9999 2.3999C6.7069 2.3999 2.3999 6.7069 2.3999 11.9999C2.3999 17.2929 6.7069 21.5999 11.9999 21.5999C13.5929 21.5999 15.0959 21.2099 16.4199 20.5199L15.2209 19.3209C14.2349 19.7569 13.1459 19.9999 11.9999 19.9999C7.5889 19.9999 3.9999 16.4109 3.9999 11.9999C3.9999 7.5889 7.5889 3.9999 11.9999 3.9999C16.4109 3.9999 19.9999 7.5889 19.9999 11.9999C19.9999 13.3229 19.1029 14.3999 17.9999 14.3999C16.8969 14.3999 15.9999 13.3229 15.9999 11.9999V8.1999H14.3999V8.8019C13.7309 8.2989 12.8999 7.9999 11.9999 7.9999C9.7939 7.9999 7.9999 9.7939 7.9999 11.9999C7.9999 14.2059 9.7939 15.9999 11.9999 15.9999C13.2829 15.9999 14.4249 15.3919 15.1579 14.4509C15.8169 15.3929 16.8459 15.9999 17.9999 15.9999C19.9849 15.9999 21.5999 14.2059 21.5999 11.9999C21.5999 6.7069 17.2929 2.3999 11.9999 2.3999ZM11.9999 14.3999C10.6769 14.3999 9.5999 13.3229 9.5999 11.9999C9.5999 10.6769 10.6769 9.5999 11.9999 9.5999C13.3229 9.5999 14.3999 10.6769 14.3999 11.9999C14.3999 13.3229 13.3229 14.3999 11.9999 14.3999ZM18.7999 18.4999C18.7999 18.9969 18.3969 19.3999 17.8999 19.3999C17.4029 19.3999 16.9999 18.9969 16.9999 18.4999C16.9999 18.0029 17.4029 17.5999 17.8999 17.5999C18.3969 17.5999 18.7999 18.0029 18.7999 18.4999Z"/>
</svg>
