<svg width="24" height="24" viewBox="0 0 24 24" xmlns="http://www.w3.org/2000/svg">
<path d="M20.4 4.79995H19.062C18.732 3.86895 17.843 3.19995 16.8 3.19995C15.477 3.19995 14.4 4.27695 14.4 5.59995C14.4 6.92295 15.477 7.99995 16.8 7.99995C17.843 7.99995 18.732 7.33095 19.062 6.39995H20.4C20.621 6.39995 20.8 6.57895 20.8 6.79995V11.086C19.783 10.047 18.366 9.39995 16.8 9.39995H3.20001V6.79995C3.20001 6.57895 3.37901 6.39995 3.60001 6.39995H12.8V4.79995H3.60001C2.49701 4.79995 1.60001 5.69695 1.60001 6.79995V17.2C1.60001 18.303 2.49701 19.2 3.60001 19.2H4.13801C4.46801 20.131 5.35701 20.8 6.40001 20.8C7.72301 20.8 8.80001 19.7229 8.80001 18.4C8.80001 17.077 7.72301 16 6.40001 16C5.35701 16 4.46801 16.669 4.13801 17.6H3.60001C3.37901 17.6 3.20001 17.421 3.20001 17.2V11H12.886C11.847 12.017 11.2 13.434 11.2 15C11.2 15.938 11.433 16.822 11.842 17.6H10.4V19.2H13.102C14.089 20.07 15.384 20.6 16.8 20.6C19.888 20.6 22.4 18.088 22.4 15V6.79995C22.4 5.69695 21.503 4.79995 20.4 4.79995ZM16.8 6.39995C16.359 6.39995 16 6.04095 16 5.59995C16 5.15895 16.359 4.79995 16.8 4.79995C17.241 4.79995 17.6 5.15895 17.6 5.59995C17.6 6.04095 17.241 6.39995 16.8 6.39995ZM6.40001 17.6C6.84101 17.6 7.20001 17.959 7.20001 18.4C7.20001 18.841 6.84101 19.2 6.40001 19.2C5.95901 19.2 5.60001 18.841 5.60001 18.4C5.60001 17.959 5.95901 17.6 6.40001 17.6ZM16.8 19C14.594 19 12.8 17.206 12.8 15C12.8 12.794 14.594 11 16.8 11C19.006 11 20.8 12.794 20.8 15C20.8 17.206 19.006 19 16.8 19ZM17.779 12.9H18.892L17.321 17.3H16.277L14.708 12.9H15.892L16.82 15.696L17.779 12.9Z"/>
</svg>
