<svg width="24" height="24" viewBox="0 0 24 24" xmlns="http://www.w3.org/2000/svg">
<path d="M12.8 6.4001C14.123 6.4001 15.2 5.3231 15.2 4.0001C15.2 2.6771 14.123 1.6001 12.8 1.6001C11.477 1.6001 10.4 2.6771 10.4 4.0001C10.4 5.3231 11.477 6.4001 12.8 6.4001ZM12.8 3.2001C13.241 3.2001 13.6 3.5591 13.6 4.0001C13.6 4.4411 13.241 4.8001 12.8 4.8001C12.359 4.8001 12 4.4411 12 4.0001C12 3.5591 12.359 3.2001 12.8 3.2001ZM16.449 17.7171C16.676 17.9441 16.8 18.2451 16.8 18.5661V22.4001H15.2V18.7311L11.551 15.0831C11.324 14.8561 11.2 14.5551 11.2 14.2341V10.2541L8.49998 12.9331V14.4001H6.89998V12.7671C6.89998 12.4491 7.02898 12.1391 7.25498 11.9151L11.2 8.0011H12.8V14.0701L16.449 17.7171ZM10.034 16.0341L11.165 17.1651L5.96498 22.3651L4.83398 21.2341L10.034 16.0341ZM19.172 12.8001V14.4001H17.269L14.4 11.5311V9.2681L17.931 12.7991H19.171L19.172 12.8001Z"/>
</svg>
