<svg width="24" height="24" viewBox="0 0 24 24" xmlns="http://www.w3.org/2000/svg">
<path d="M19.271 6.40195L18.684 2.09595L4.27598 4.12195L4.65598 6.40395C2.95798 6.47895 1.59998 7.88395 1.59998 9.59995V17.5999C1.59998 19.3649 3.03498 20.7999 4.79998 20.7999H19.2C20.965 20.7999 22.4 19.3649 22.4 17.5999V9.59995C22.4 7.85895 21.003 6.43995 19.271 6.40195ZM18.4 16.1999C16.966 16.1999 15.8 15.0339 15.8 13.5999C15.8 12.1659 16.966 10.9999 18.4 10.9999H20.8V16.1999H18.4ZM17.316 3.90395L17.656 6.39995H6.27798L6.12398 5.47795L17.316 3.90395ZM19.2 19.1999H4.79998C3.91798 19.1999 3.19998 18.4819 3.19998 17.5999V9.59995C3.19998 8.71795 3.91798 7.99995 4.79998 7.99995H19.2C20.014 7.99995 20.687 8.61195 20.786 9.39995H18.4C16.084 9.39995 14.2 11.2839 14.2 13.5999C14.2 15.9159 16.084 17.7999 18.4 17.7999H20.786C20.687 18.5879 20.014 19.1999 19.2 19.1999ZM19.2 13.5999C19.2 14.0969 18.797 14.4999 18.3 14.4999C17.803 14.4999 17.4 14.0969 17.4 13.5999C17.4 13.1029 17.803 12.6999 18.3 12.6999C18.797 12.6999 19.2 13.1029 19.2 13.5999Z"/>
</svg>
