<svg width="24" height="24" viewBox="0 0 24 24" xmlns="http://www.w3.org/2000/svg">
<path d="M11.9999 15.9001C12.4999 15.9001 12.8999 16.3001 12.8999 16.8001C12.8999 17.3001 12.4999 17.7001 11.9999 17.7001C11.4999 17.7001 11.0999 17.3001 11.0999 16.8001C11.0999 16.3001 11.4999 15.9001 11.9999 15.9001ZM11.1999 9.60011H12.7999V14.4001H11.1999V9.60011ZM13.0599 3.50011C12.8499 3.10011 12.4399 2.86011 11.9999 2.86011C11.5599 2.86011 11.1399 3.11011 10.9399 3.50011L2.79992 19.0401C2.59992 19.4201 2.61992 19.8601 2.83992 20.2201C3.05992 20.5801 3.43992 20.8001 3.86992 20.8001H20.1499C20.5699 20.8001 20.9599 20.5801 21.1799 20.2201C21.3999 19.8601 21.4099 19.4201 21.2199 19.0401L13.0599 3.50011ZM4.51992 19.2001L11.9999 4.92011L19.4799 19.2001H4.51992Z"/>
</svg>
