<svg width="24" height="24" viewBox="0 0 24 24" xmlns="http://www.w3.org/2000/svg">
<path d="M16.8 6.39991C16.8 6.89691 16.397 7.29991 15.9 7.29991C15.403 7.29991 15 6.89691 15 6.39991C15 5.90291 15.403 5.49991 15.9 5.49991C16.397 5.49991 16.8 5.90291 16.8 6.39991ZM20 4.80791V19.1919C20 20.9569 18.565 22.3919 16.8 22.3919H7.2C5.435 22.3919 4 20.9569 4 19.1919V4.80791C4 3.04291 5.435 1.60791 7.2 1.60791H16.8C18.565 1.60791 20 3.04291 20 4.80791ZM18.4 4.80791C18.4 3.92591 17.682 3.20791 16.8 3.20791H7.2C6.318 3.20791 5.6 3.92591 5.6 4.80791V5.59991H13.4V7.19991H5.6V19.1919C5.6 20.0739 6.318 20.7919 7.2 20.7919H16.8C17.682 20.7919 18.4 20.0739 18.4 19.1919V4.80791ZM16.8 14.3999C16.8 17.0469 14.647 19.1999 12 19.1999C9.353 19.1999 7.2 17.0469 7.2 14.3999C7.2 11.7529 9.353 9.59991 12 9.59991C14.647 9.59991 16.8 11.7529 16.8 14.3999ZM15.2 14.3999C15.2 12.6349 13.765 11.1999 12 11.1999C10.512 11.1999 9.257 12.2209 8.901 13.5999H10.4V15.1999H8.901C9.257 16.5789 10.511 17.5999 12 17.5999C13.765 17.5999 15.2 16.1649 15.2 14.3999Z"/>
</svg>
