<svg width="24" height="24" viewBox="0 0 24 24" xmlns="http://www.w3.org/2000/svg">
<path d="M16.8001 16.8001C16.8001 17.2411 16.4411 17.6001 16.0001 17.6001H8.00007C7.55907 17.6001 7.20007 17.2411 7.20007 16.8001V7.2001C7.20007 6.7591 7.55907 6.4001 8.00007 6.4001H16.0001C16.4411 6.4001 16.8001 6.7591 16.8001 7.2001V9.5001H18.4001V7.2001C18.4001 6.1011 17.6571 5.1721 16.6471 4.8891L16.1091 2.7361C15.9421 2.0671 15.3431 1.6001 14.6541 1.6001H9.34707C8.65707 1.6001 8.05907 2.0671 7.89207 2.7361L7.35407 4.8891C6.34407 5.1721 5.60107 6.1001 5.60107 7.2001V16.8001C5.60107 17.8911 6.33307 18.8131 7.33107 19.1041L7.89107 21.2751C8.06207 21.9371 8.65907 22.4001 9.34307 22.4001H14.6581C15.3421 22.4001 15.9391 21.9371 16.1101 21.2751L16.6701 19.1041C17.6681 18.8131 18.4001 17.8911 18.4001 16.8001V14.5001H16.8001V16.8001ZM9.42507 3.2001H14.5761L14.9761 4.8001H9.02507L9.42507 3.2001ZM14.5801 20.8001H9.42007L9.00707 19.2001H14.9931L14.5801 20.8001ZM18.5001 12.0001C18.5001 12.4971 18.0971 12.9001 17.6001 12.9001C17.1031 12.9001 16.7001 12.4971 16.7001 12.0001C16.7001 11.5031 17.1031 11.1001 17.6001 11.1001C18.0971 11.1001 18.5001 11.5031 18.5001 12.0001ZM11.2001 11.6691V8.0001H12.8001V12.3311L10.9661 14.1651L9.83507 13.0341L11.2011 11.6681L11.2001 11.6691Z"/>
</svg>
