<svg width="24" height="24" viewBox="0 0 24 24" xmlns="http://www.w3.org/2000/svg">
<path d="M19.8001 11.2839C19.7911 9.03088 17.9551 7.19988 15.7001 7.19988C14.9751 7.19988 14.2851 7.39188 13.6841 7.73288C13.5161 7.29488 13.2911 6.88588 13.0181 6.51388L14.3661 5.16588L13.2351 4.03488L11.8881 5.38188C11.2261 4.89588 10.4471 4.56188 9.60007 4.43188V2.40088H8.00007V4.43088C7.15407 4.56088 6.37407 4.89588 5.71307 5.38188L4.36607 4.03488L3.23507 5.16588L4.58207 6.51288C4.09607 7.17488 3.76207 7.95388 3.63107 8.79988H1.60107V10.3999H3.63107C3.82707 11.6699 4.48107 12.7889 5.41907 13.5859C5.02907 14.1609 4.80107 14.8539 4.80107 15.5999C4.80107 16.5929 5.20507 17.4919 5.85707 18.1439L6.98707 17.0139C6.62507 16.6519 6.40107 16.1519 6.40107 15.5999C6.40107 15.1609 6.54407 14.7559 6.78407 14.4259C6.82807 14.3659 6.87507 14.3089 6.92507 14.2539C6.92807 14.2499 6.93207 14.2459 6.93507 14.2429C7.00907 14.1629 7.09007 14.0889 7.17607 14.0219C7.18907 14.0119 7.20307 14.0019 7.21707 13.9919C7.25607 13.9629 7.29707 13.9349 7.33807 13.9089C7.36007 13.8949 7.38207 13.8809 7.40507 13.8679C7.42807 13.8549 7.45007 13.8419 7.47307 13.8299C7.51407 13.8089 7.55607 13.7879 7.59807 13.7699C7.61707 13.7619 7.63607 13.7539 7.65507 13.7459C7.69807 13.7289 7.74207 13.7119 7.78707 13.6979C7.80007 13.6939 7.81307 13.6899 7.82607 13.6859C7.87407 13.6719 7.92307 13.6589 7.97307 13.6479C7.98607 13.6449 8.00007 13.6419 8.01307 13.6389C8.06807 13.6279 8.12507 13.6189 8.18107 13.6129C8.19307 13.6119 8.20507 13.6109 8.21707 13.6099C8.27707 13.6049 8.33807 13.6009 8.40007 13.6009C8.46207 13.6009 8.52107 13.6039 8.58007 13.6089C8.58207 13.6089 8.58307 13.6089 8.58507 13.6089C8.64307 13.6149 8.70007 13.6219 8.75707 13.6329C9.08607 13.6929 9.38707 13.8329 9.64007 14.0329C9.61407 13.8929 9.60007 13.7479 9.60007 13.6009C9.60007 13.4399 9.61607 13.2829 9.64607 13.1309C9.64607 13.1309 9.64507 13.1309 9.64407 13.1309L9.66707 13.0369C9.68307 12.9709 9.70207 12.9059 9.72307 12.8419C9.72507 12.8369 9.72607 12.8319 9.72807 12.8269C9.74807 12.7689 9.77007 12.7109 9.79407 12.6549C9.79907 12.6439 9.80407 12.6339 9.80807 12.6229C9.82707 12.5809 9.84707 12.5399 9.86807 12.4989C9.88207 12.4729 9.89607 12.4469 9.91007 12.4209C9.92607 12.3929 9.94207 12.3649 9.95907 12.3379C10.1571 12.0169 10.4261 11.7509 10.7431 11.5559C10.7521 11.5499 10.7611 11.5449 10.7711 11.5389C10.8181 11.5109 10.8671 11.4839 10.9161 11.4589C10.9361 11.4489 10.9551 11.4389 10.9751 11.4299C11.0011 11.4179 11.0271 11.4059 11.0541 11.3939C11.0961 11.3759 11.1381 11.3589 11.1811 11.3439C11.2011 11.3369 11.2211 11.3299 11.2411 11.3239C11.2821 11.3099 11.3241 11.2969 11.3671 11.2859C11.3811 11.2819 11.3941 11.2779 11.4081 11.2749C11.4601 11.2619 11.5131 11.2509 11.5671 11.2409C11.5811 11.2379 11.5951 11.2359 11.6081 11.2339C11.6641 11.2249 11.7221 11.2169 11.7791 11.2119C11.7911 11.2109 11.8021 11.2099 11.8141 11.2089C11.8751 11.2039 11.9371 11.2009 11.9991 11.2009C12.0281 11.2009 12.0561 11.2029 12.0841 11.2039C12.4941 11.2179 12.8771 11.3339 13.2101 11.5289C13.2031 11.4539 13.1991 11.3779 13.1991 11.3009C13.1991 11.0769 13.2291 10.8599 13.2841 10.6529V10.6499C13.2841 10.6499 13.2851 10.6479 13.2861 10.6469C13.3031 10.5839 13.3231 10.5219 13.3451 10.4609C13.3461 10.4569 13.3481 10.4529 13.3501 10.4479C13.3721 10.3879 13.3961 10.3279 13.4221 10.2699C13.4251 10.2629 13.4291 10.2549 13.4321 10.2479C13.4561 10.1959 13.4821 10.1459 13.5101 10.0959C13.5161 10.0849 13.5221 10.0739 13.5291 10.0629C13.5291 10.0629 13.5291 10.0609 13.5301 10.0609C13.5611 10.0069 13.5941 9.95488 13.6281 9.90388C13.6281 9.90288 13.6301 9.90088 13.6311 9.89988C13.6641 9.85088 13.6991 9.80388 13.7351 9.75788C13.7411 9.74988 13.7481 9.74088 13.7541 9.73288C13.7911 9.68688 13.8301 9.64288 13.8701 9.59988C13.8781 9.59088 13.8871 9.58288 13.8951 9.57388C14.2571 9.19588 14.7371 8.93088 15.2761 8.83888C15.2801 8.83888 15.2851 8.83688 15.2891 8.83688C15.3511 8.82688 15.4141 8.81888 15.4771 8.81288C15.4871 8.81288 15.4981 8.81088 15.5081 8.81088C15.5711 8.80588 15.6351 8.80288 15.7001 8.80288C17.0811 8.80288 18.2001 9.92188 18.2001 11.3029C18.2001 11.3729 18.1961 11.4409 18.1911 11.5089C18.1911 11.5189 18.1891 11.5279 18.1881 11.5379C18.1821 11.5979 18.1751 11.6579 18.1651 11.7169C18.1651 11.7219 18.1641 11.7269 18.1631 11.7309L18.0301 12.4989L18.7941 12.6519C18.8621 12.6659 18.9281 12.6819 18.9941 12.7009C19.0021 12.7029 19.0091 12.7049 19.0171 12.7079C19.0791 12.7269 19.1401 12.7479 19.2001 12.7709C19.2101 12.7749 19.2191 12.7779 19.2291 12.7819C19.2881 12.8059 19.3471 12.8319 19.4041 12.8599C19.4111 12.8629 19.4171 12.8669 19.4241 12.8699C19.5461 12.9319 19.6631 13.0029 19.7731 13.0829C19.7731 13.0829 19.7751 13.0839 19.7761 13.0849C19.8331 13.1269 19.8871 13.1699 19.9401 13.2169C20.3611 13.5829 20.6581 14.0879 20.7601 14.6599C20.7601 14.6639 20.7621 14.6689 20.7621 14.6729C20.7731 14.7389 20.7831 14.8059 20.7891 14.8739C20.7891 14.8819 20.7901 14.8899 20.7911 14.8979C20.7971 14.9659 20.8001 15.0339 20.8001 15.1029C20.8001 15.1459 20.7991 15.1879 20.7971 15.2299C20.7971 15.2389 20.7951 15.2489 20.7951 15.2579C20.7931 15.2909 20.7911 15.3239 20.7871 15.3559C20.7871 15.3639 20.7851 15.3719 20.7841 15.3799C20.7801 15.4139 20.7761 15.4469 20.7711 15.4809C20.7711 15.4869 20.7691 15.4929 20.7681 15.4989C20.7621 15.5339 20.7561 15.5699 20.7491 15.6049C20.7491 15.6079 20.7481 15.6109 20.7471 15.6149C20.7391 15.6529 20.7311 15.6899 20.7211 15.7269C20.5671 16.3249 20.1971 16.8369 19.6991 17.1739C19.6981 17.1739 19.6961 17.1759 19.6951 17.1769C19.6641 17.1979 19.6331 17.2169 19.6021 17.2369C19.5981 17.2389 19.5941 17.2419 19.5901 17.2439C19.5611 17.2609 19.5321 17.2779 19.5021 17.2939C19.4951 17.2979 19.4881 17.3019 19.4811 17.3049C19.4541 17.3189 19.4271 17.3329 19.4001 17.3459C19.3901 17.3509 19.3791 17.3559 19.3691 17.3609C19.3451 17.3719 19.3211 17.3829 19.2961 17.3939C19.2821 17.3999 19.2681 17.4059 19.2541 17.4119C19.2331 17.4209 19.2111 17.4289 19.1901 17.4369C19.1731 17.4439 19.1551 17.4499 19.1371 17.4569C19.1191 17.4629 19.1001 17.4699 19.0821 17.4759C19.0611 17.4829 19.0391 17.4899 19.0181 17.4959C19.0031 17.4999 18.9881 17.5049 18.9731 17.5089C18.9481 17.5159 18.9231 17.5229 18.8971 17.5289C18.8851 17.5319 18.8741 17.5339 18.8621 17.5369C18.8331 17.5439 18.8041 17.5499 18.7741 17.5559C18.7661 17.5579 18.7571 17.5589 18.7491 17.5599C18.7161 17.5659 18.6831 17.5709 18.6501 17.5759C18.6451 17.5759 18.6391 17.5769 18.6341 17.5779C18.5981 17.5829 18.5621 17.5869 18.5251 17.5899C18.5221 17.5899 18.5201 17.5899 18.5171 17.5899C18.4781 17.5929 18.4381 17.5959 18.3991 17.5979V17.6009H16.7941V17.6069H11.4001V19.2069H18.3941V19.1999C20.6111 19.1499 22.4001 17.3299 22.4001 15.1009C22.4001 13.3979 21.3411 11.8909 19.8001 11.2849V11.2839ZM11.9691 9.59988C10.3641 9.61188 8.95407 10.5679 8.33307 11.9999C7.70207 12.0119 7.11107 12.1869 6.59907 12.4839C5.73107 11.8199 5.16907 10.7739 5.16907 9.59888C5.16907 7.59688 6.79807 5.96788 8.80007 5.96788C10.5691 5.96788 12.0461 7.23988 12.3661 8.91688C12.2141 9.12988 12.0791 9.35688 11.9691 9.59888V9.59988ZM9.80007 18.3999C9.80007 18.8969 9.39707 19.2999 8.90007 19.2999C8.40307 19.2999 8.00007 18.8969 8.00007 18.3999C8.00007 17.9029 8.40307 17.4999 8.90007 17.4999C9.39707 17.4999 9.80007 17.9029 9.80007 18.3999Z"/>
</svg>
