<svg width="24" height="24" viewBox="0 0 24 24" xmlns="http://www.w3.org/2000/svg">
<path d="M14.4538 7.19995C13.5818 7.19995 12.7638 7.53895 12.1488 8.15495C12.0968 8.20695 12.0468 8.25995 11.9988 8.31395C11.9508 8.25995 11.9008 8.20695 11.8488 8.15495C11.2338 7.53895 10.4158 7.19995 9.54381 7.19995C8.6718 7.19995 7.8538 7.53895 7.2388 8.15495C6.6268 8.76895 6.2888 9.58695 6.2888 10.459C6.2888 11.331 6.6438 12.167 7.2388 12.763L11.9978 17.522L16.7568 12.763C17.3518 12.167 17.7068 11.306 17.7068 10.459C17.7068 9.61195 17.3698 8.76895 16.7568 8.15495C16.1418 7.53895 15.3238 7.19995 14.4518 7.19995H14.4538ZM15.6268 11.633L11.9998 15.26L8.37281 11.633C8.07581 11.335 7.89081 10.885 7.89081 10.46C7.89081 10.035 8.06181 9.59795 8.37281 9.28595C8.6848 8.97295 9.1018 8.79995 9.5448 8.79995C9.9878 8.79995 10.4048 8.97195 10.7168 9.28595C10.9828 9.55295 11.1588 9.87095 11.2098 10.181H12.7878C12.8398 9.87095 13.0148 9.55295 13.2808 9.28595C13.5928 8.97295 14.0098 8.79995 14.4528 8.79995C14.8958 8.79995 15.3128 8.97195 15.6248 9.28595C15.9358 9.59795 16.1068 10.015 16.1068 10.46C16.1068 10.905 15.9218 11.335 15.6248 11.633H15.6268ZM11.9998 2.19995C6.6508 2.19995 2.2998 6.55095 2.2998 11.9C2.2998 17.249 6.6508 21.6 11.9998 21.6C17.3488 21.6 21.6998 17.249 21.6998 11.9C21.6998 6.55095 17.3488 2.19995 11.9998 2.19995ZM11.9998 20C7.5338 20 3.8998 16.366 3.8998 11.9C3.8998 7.43395 7.5338 3.79995 11.9998 3.79995C16.4658 3.79995 20.0998 7.43395 20.0998 11.9C20.0998 16.366 16.4658 20 11.9998 20Z"/>
</svg>
