<svg width="24" height="24" viewBox="0 0 24 24" xmlns="http://www.w3.org/2000/svg">
<path fill-rule="evenodd" clip-rule="evenodd" d="M12.0059 2.39993C6.7029 2.39793 2.4029 6.69293 2.3999 11.9949C2.3999 13.8699 2.9479 15.7039 3.9769 17.2709L3.9369 17.2309L2.3999 21.5989L6.6259 19.9589L6.6179 19.9509C11.0099 22.9209 16.9789 21.7689 19.9499 17.3769C22.9209 12.9849 21.7679 7.01793 17.3759 4.04693C15.7899 2.97493 13.9199 2.40093 12.0049 2.39893L12.0059 2.39993ZM17.4019 15.8069C17.1689 16.4469 16.1369 16.9109 15.5439 17.1029C15.0079 17.2549 14.2159 17.2229 12.2389 16.4229C9.4389 15.3269 7.6779 12.4869 7.5399 12.3029C7.4019 12.1189 6.4199 10.8229 6.4199 9.47893C6.4199 8.13493 7.1329 7.47893 7.3799 7.19893C7.5579 6.97593 7.8299 6.84893 8.1159 6.85493H8.5619C8.7629 6.85493 9.0349 6.79093 9.2669 7.33493C9.4989 7.87893 10.0509 9.22293 10.1149 9.35893C10.2029 9.50493 10.2119 9.68493 10.1389 9.83893C10.0709 10.0029 9.9789 10.1569 9.8669 10.2949C9.7309 10.4549 9.5789 10.6469 9.4509 10.7749C9.3229 10.9029 9.1709 11.0549 9.3309 11.3349C9.7449 12.0359 10.2599 12.6719 10.8599 13.2229C11.9079 14.1509 12.7969 14.4389 13.0689 14.5749C13.3409 14.7109 13.5009 14.6869 13.6609 14.5029C13.8209 14.3189 14.3499 13.7029 14.5339 13.4309C14.7179 13.1589 14.9019 13.2069 15.1499 13.2949C15.3979 13.3829 16.7589 14.0469 17.0309 14.1829C17.3029 14.3189 17.4879 14.3909 17.5599 14.5029C17.6319 14.6149 17.6259 15.1669 17.4019 15.8069Z"/>
</svg>
