<svg width="24" height="24" viewBox="0 0 24 24" xmlns="http://www.w3.org/2000/svg">
<path d="M11.9999 2.3999C6.7069 2.3999 2.3999 6.7069 2.3999 11.9999C2.3999 17.2929 6.7069 21.5999 11.9999 21.5999C17.2929 21.5999 21.5999 17.2929 21.5999 11.9999C21.5999 6.7069 17.2929 2.3999 11.9999 2.3999ZM11.9999 19.9999C7.5889 19.9999 3.9999 16.4109 3.9999 11.9999C3.9999 7.5889 7.5889 3.9999 11.9999 3.9999C16.4109 3.9999 19.9999 7.5889 19.9999 11.9999C19.9999 16.4109 16.4109 19.9999 11.9999 19.9999ZM11.9999 5.5999C8.4709 5.5999 5.5999 8.4709 5.5999 11.9999C5.5999 15.5289 8.4709 18.3999 11.9999 18.3999C15.5289 18.3999 18.3999 15.5289 18.3999 11.9999C18.3999 8.4709 15.5289 5.5999 11.9999 5.5999ZM16.7319 11.1999H15.0989C15.0229 10.9069 14.9059 10.6299 14.7559 10.3759L15.9109 9.2209C16.3229 9.7989 16.6089 10.4719 16.7319 11.1999ZM13.5999 11.9999C13.5999 12.8819 12.8819 13.5999 11.9999 13.5999C11.1179 13.5999 10.3999 12.8819 10.3999 11.9999C10.3999 11.1179 11.1179 10.3999 11.9999 10.3999C12.8819 10.3999 13.5999 11.1179 13.5999 11.9999ZM13.6239 9.2439C13.3699 9.0929 13.0929 8.9769 12.7999 8.9009V7.2679C13.5279 7.3909 14.2009 7.6779 14.7789 8.0899L13.6239 9.2439ZM11.1999 8.9009C10.9069 8.9769 10.6299 9.0939 10.3759 9.2439L9.2209 8.0889C9.7989 7.6769 10.4719 7.3899 11.1999 7.2669V8.9009ZM10.3759 14.7559C10.6299 14.9069 10.9069 15.0229 11.1999 15.0989V16.7319C10.4719 16.6089 9.7989 16.3219 9.2209 15.9099L10.3759 14.7559ZM12.7999 15.0989C13.0929 15.0229 13.3699 14.9059 13.6239 14.7559L14.7789 15.9109C14.2009 16.3229 13.5279 16.6099 12.7999 16.7329V15.0989ZM8.0899 9.2209L9.2449 10.3759C9.0939 10.6299 8.9779 10.9069 8.9019 11.1999H7.2689C7.3919 10.4719 7.6789 9.7989 8.0909 9.2209H8.0899ZM8.9009 12.7999C8.9769 13.0929 9.0939 13.3699 9.2439 13.6239L8.0889 14.7789C7.6769 14.2009 7.3899 13.5279 7.2669 12.7999H8.9009ZM15.9099 14.7789L14.7549 13.6239C14.9059 13.3699 15.0219 13.0929 15.0979 12.7999H16.7309C16.6079 13.5279 16.3209 14.2009 15.9089 14.7789H15.9099Z"/>
</svg>
