<svg width="24" height="24" viewBox="0 0 24 24" xmlns="http://www.w3.org/2000/svg">
<path d="M12.8998 19.4C12.8998 19.897 12.4968 20.3 11.9998 20.3C11.5028 20.3 11.0998 19.897 11.0998 19.4C11.0998 18.903 11.5028 18.5 11.9998 18.5C12.4968 18.5 12.8998 18.903 12.8998 19.4ZM19.7778 3.10303L17.2518 5.62903C15.7198 4.94903 14.0258 4.56903 12.2438 4.56903C8.68784 4.56903 5.47784 6.07403 3.21484 8.47903L4.34584 9.61003C6.31884 7.49403 9.12884 6.16803 12.2438 6.16803C13.5748 6.16803 14.8488 6.41103 16.0268 6.85403L13.5928 9.28803C13.1548 9.21103 12.7038 9.16903 12.2438 9.16903C9.95684 9.16903 7.89584 10.159 6.46784 11.732L7.60084 12.865C8.70984 11.612 10.3158 10.811 12.1078 10.772L4.70284 18.268L5.83384 19.399L20.9098 4.23403L19.7778 3.10303ZM19.8118 7.57903L18.6748 8.71603C19.1108 9.06003 19.5198 9.43603 19.8968 9.84103L21.0278 8.71003C20.6478 8.30703 20.2418 7.92903 19.8108 7.57903H19.8118ZM16.5338 10.857L15.3818 12.009C15.8488 12.315 16.2728 12.68 16.6418 13.097L17.7748 11.964C17.4018 11.553 16.9848 11.182 16.5328 10.858L16.5338 10.857ZM13.1688 14.223L11.7748 15.617C11.8478 15.607 11.9228 15.601 11.9998 15.601C12.5788 15.601 13.0858 15.911 13.3668 16.373L14.5148 15.225C14.1658 14.782 13.7018 14.433 13.1688 14.223Z"/>
</svg>
