<svg width="24" height="24" viewBox="0 0 24 24" xmlns="http://www.w3.org/2000/svg">
<path d="M12.9002 19.4001C12.9002 19.8971 12.4972 20.3001 12.0002 20.3001C11.5032 20.3001 11.1002 19.8971 11.1002 19.4001C11.1002 18.9031 11.5032 18.5001 12.0002 18.5001C12.4972 18.5001 12.9002 18.9031 12.9002 19.4001ZM12.0002 14.0001C10.9812 14.0001 10.0722 14.4801 9.48519 15.2251L10.6332 16.3731C10.9142 15.9111 11.4212 15.6011 12.0002 15.6011C12.5792 15.6011 13.0862 15.9111 13.3672 16.3731L14.5152 15.2251C13.9292 14.4801 13.0202 14.0011 12.0012 14.0011L12.0002 14.0001ZM12.0002 9.40007C9.71319 9.40007 7.65219 10.3901 6.22419 11.9631L7.35719 13.0961C8.49419 11.8111 10.1532 10.9991 11.9992 10.9991C13.8452 10.9991 15.5042 11.8111 16.6412 13.0961L17.7742 11.9631C16.3462 10.3901 14.2862 9.40007 11.9982 9.40007H12.0002ZM12.0002 4.80007C8.44419 4.80007 5.23419 6.30507 2.97119 8.71007L4.10219 9.84107C6.07519 7.72507 8.88519 6.39907 12.0002 6.39907C15.1152 6.39907 17.9242 7.72507 19.8972 9.84007L21.0282 8.70907C18.7652 6.30407 15.5552 4.79907 11.9992 4.79907L12.0002 4.80007Z"/>
</svg>
