<svg width="24" height="24" viewBox="0 0 24 24" xmlns="http://www.w3.org/2000/svg">
<path d="M8.79961 9.59995C10.5636 9.59995 11.9996 8.16495 11.9996 6.39995C11.9996 4.63495 10.5636 3.19995 8.79961 3.19995C7.03561 3.19995 5.59961 4.63495 5.59961 6.39995C5.59961 8.16495 7.03561 9.59995 8.79961 9.59995ZM8.79961 4.79995C9.68161 4.79995 10.3996 5.51795 10.3996 6.39995C10.3996 7.28195 9.68161 7.99995 8.79961 7.99995C7.91761 7.99995 7.19961 7.28195 7.19961 6.39995C7.19961 5.51795 7.91761 4.79995 8.79961 4.79995ZM8.19961 20C8.19961 20.497 7.79661 20.9 7.29961 20.9C6.80261 20.9 6.39961 20.497 6.39961 20C6.39961 19.503 6.80261 19.1 7.29961 19.1C7.79661 19.1 8.19961 19.503 8.19961 20ZM17.5996 7.99995V11.2H14.3996V13.881C13.0786 12.247 11.0596 11.2 8.79961 11.2C4.82961 11.2 1.59961 14.43 1.59961 18.4V20.8H4.79961V19.2H3.19961V18.4C3.19961 15.312 5.71161 12.8 8.79961 12.8C10.3216 12.8 11.7016 13.412 12.7116 14.4H11.1996V19.2H9.79961V20.8H22.3996V7.99995H17.5996ZM14.3996 19.2H12.7996V16H14.3996V19.2ZM17.5996 19.2H15.9996V12.8H17.5996V19.2ZM20.7996 19.2H19.1996V9.59995H20.7996V19.2Z"/>
</svg>
