<svg width="24" height="24" viewBox="0 0 24 24" xmlns="http://www.w3.org/2000/svg">
<path d="M4.7002 9.5001C4.7002 9.0031 5.1032 8.6001 5.6002 8.6001C6.0972 8.6001 6.5002 9.0031 6.5002 9.5001C6.5002 9.9971 6.0972 10.4001 5.6002 10.4001C5.1032 10.4001 4.7002 9.9971 4.7002 9.5001ZM20.8002 20.8001V22.4001H3.2002V20.8001H4.8002V13.0751L5.4112 12.8001L6.8302 12.0911C9.7702 10.4901 11.0612 7.8841 11.1892 3.2001H6.4002V7.0001H4.8002V1.6001H19.2002V20.8001H20.8002ZM17.6002 3.2001H12.8112C12.9392 7.8841 14.2292 10.4901 17.1702 12.0911L17.6002 12.3061V3.2001ZM6.4002 20.8001H17.6002V14.0941L16.4182 13.5031C14.0282 12.2061 12.7132 10.3621 12.0012 8.3161C11.9412 8.4891 11.8792 8.6601 11.8122 8.8261C10.9842 10.8771 9.6002 12.4071 7.5822 13.5031L6.4002 14.0941V20.8001Z"/>
</svg>
