<svg width="24" height="24" viewBox="0 0 24 24" xmlns="http://www.w3.org/2000/svg">
<path d="M11.3001 21.7001C11.3001 22.1971 10.8971 22.6001 10.4001 22.6001C9.90314 22.6001 9.50014 22.1971 9.50014 21.7001C9.50014 21.2031 9.90314 20.8001 10.4001 20.8001C10.8971 20.8001 11.3001 21.2031 11.3001 21.7001ZM14.8001 4.4001C14.8001 2.8561 13.5441 1.6001 12.0001 1.6001C10.4561 1.6001 9.20014 2.8561 9.20014 4.4001C9.20014 5.9441 10.4561 7.2001 12.0001 7.2001C13.5441 7.2001 14.8001 5.9441 14.8001 4.4001ZM13.2001 4.4001C13.2001 5.0621 12.6621 5.6001 12.0001 5.6001C11.3381 5.6001 10.8001 5.0621 10.8001 4.4001C10.8001 3.7381 11.3381 3.2001 12.0001 3.2001C12.6621 3.2001 13.2001 3.7381 13.2001 4.4001ZM14.4001 17.6001H15.4001C15.7981 17.6001 16.1711 17.4111 16.4001 17.0941C16.6211 16.7871 16.6791 16.4061 16.5601 16.0501L14.4591 9.6461C14.2931 9.1471 13.8161 8.7991 13.3001 8.7991H10.7001C10.1841 8.7991 9.70714 9.1471 9.54014 9.6501L7.44114 16.0461C7.32114 16.4051 7.37914 16.7871 7.60014 17.0931C7.82814 17.4101 8.20214 17.5991 8.60014 17.5991H9.60014V19.1991H11.2001V15.9991H9.14014L10.9781 10.3991H13.0221L14.8601 15.9991H12.8001V22.3991H14.4001V17.6001ZM15.0411 16.5531C15.0411 16.5531 15.0411 16.5511 15.0401 16.5491V16.5531H15.0411ZM8.96114 16.5461V16.5501C8.96114 16.5501 8.96114 16.5481 8.96114 16.5461Z"/>
</svg>
