<svg width="24" height="24" viewBox="0 0 24 24" xmlns="http://www.w3.org/2000/svg">
<path d="M4.9001 18.5C4.9001 18.997 4.4971 19.4 4.0001 19.4C3.5031 19.4 3.1001 18.997 3.1001 18.5C3.1001 18.003 3.5031 17.6 4.0001 17.6C4.4971 17.6 4.9001 18.003 4.9001 18.5ZM20.8001 17.2V19.2H13.6451C12.5941 19.2 11.6241 18.675 11.0491 17.795L7.2661 12H4.7991V16H3.1991V9.80005C3.1991 8.29905 3.4091 6.94105 3.8401 5.64705L3.8461 5.62805C3.9841 5.24605 4.3421 4.80005 4.8981 4.80005C5.3511 4.80005 5.7501 5.03905 6.1721 5.29205L6.2081 5.31405C7.4301 6.04505 8.6701 6.40105 9.9971 6.40105H12.5591L14.5491 11.93C14.9341 12.983 15.8861 13.722 17.0961 13.9071L18.1141 14.01C19.6681 14.24 20.7971 15.582 20.7971 17.201L20.8001 17.2ZM5.3461 6.19505L5.3591 6.15305C5.3561 6.16105 5.3541 6.16805 5.3511 6.17605L5.3461 6.19505ZM19.2001 17.2C19.2001 16.387 18.6541 15.714 17.9001 15.594L16.8831 15.491C15.1021 15.227 13.6331 14.071 13.0491 12.474L11.4381 7.99905H10.0001C8.3981 7.99905 6.8471 7.55705 5.3891 6.68605L5.3521 6.66405C5.3131 6.64105 5.2691 6.61405 5.2241 6.58805C4.9391 7.58805 4.8001 8.64305 4.8001 9.80005V10.4H8.1331L12.3891 16.92C12.6671 17.346 13.1371 17.6 13.6451 17.6H19.2001V17.2Z"/>
</svg>
