<svg width="24" height="24" viewBox="0 0 24 24" xmlns="http://www.w3.org/2000/svg">
<path d="M12.331 1.6001H4V22.4001H7V20.8001H5.6V3.2001H11.2V10.4001H18.4V20.8001H12V22.4001H20V9.2691L12.331 1.6001ZM12.8 4.3311L17.269 8.8001H12.8V4.3311ZM10.4 21.6001C10.4 21.7781 10.3472 21.9521 10.2483 22.1001C10.1494 22.2481 10.0089 22.3635 9.84442 22.4316C9.67996 22.4997 9.499 22.5175 9.32442 22.4828C9.14984 22.4481 8.98947 22.3624 8.8636 22.2365C8.73774 22.1106 8.65202 21.9503 8.61729 21.7757C8.58257 21.6011 8.60039 21.4201 8.66851 21.2557C8.73663 21.0912 8.85198 20.9507 8.99999 20.8518C9.14799 20.7529 9.322 20.7001 9.5 20.7001C9.73869 20.7001 9.96761 20.7949 10.1364 20.9637C10.3052 21.1325 10.4 21.3614 10.4 21.6001ZM8.216 13.9181H7.14V17.3001H8.216C9.395 17.3001 10.016 16.7091 10.016 15.5921C10.016 14.4751 9.4 13.9181 8.216 13.9181ZM8.264 16.5321H8.037V14.7001H8.255C8.876 14.7001 9.118 14.9521 9.118 15.6001C9.118 16.2791 8.886 16.5321 8.263 16.5321H8.264ZM12.017 13.8581C11.217 13.8581 10.417 14.3991 10.417 15.6091C10.417 16.8191 11.217 17.3601 12.017 17.3601C12.817 17.3601 13.617 16.8191 13.617 15.6091C13.617 14.3991 12.811 13.8581 12.017 13.8581ZM12.017 16.5971C11.585 16.5971 11.317 16.2181 11.317 15.6091C11.317 15.0001 11.579 14.6381 12.017 14.6381C12.455 14.6381 12.717 15.0011 12.717 15.6091C12.717 16.2171 12.449 16.6001 12.017 16.6001V16.5971ZM16.917 16.2831L16.884 16.3771C16.658 17.0291 16.184 17.3601 15.484 17.3601C14.518 17.3601 13.918 16.6871 13.918 15.6051C13.918 14.5231 14.518 13.8581 15.441 13.8581C16.103 13.8581 16.535 14.1181 16.8 14.6761L16.842 14.7641L16.071 15.1521L16.029 15.0521C15.9849 14.9311 15.9051 14.8264 15.8 14.7519C15.695 14.6774 15.5698 14.6367 15.441 14.6351C14.927 14.6351 14.819 15.1601 14.819 15.6011C14.819 15.9721 14.905 16.5931 15.484 16.5931C15.854 16.5931 16.02 16.3241 16.094 16.0981L16.126 15.9981L16.918 16.2751L16.917 16.2831Z"/>
</svg>
