<svg width="24" height="24" viewBox="0 0 24 24" xmlns="http://www.w3.org/2000/svg">
<path d="M11.9999 2.3999C6.7069 2.3999 2.3999 6.7069 2.3999 11.9999C2.3999 17.2929 6.7069 21.5999 11.9999 21.5999C17.2929 21.5999 21.5999 17.2929 21.5999 11.9999C21.5999 6.7069 17.2929 2.3999 11.9999 2.3999ZM11.9999 19.9999C7.5889 19.9999 3.9999 16.4109 3.9999 11.9999C3.9999 7.5889 7.5889 3.9999 11.9999 3.9999C16.4109 3.9999 19.9999 7.5889 19.9999 11.9999C19.9999 16.4109 16.4109 19.9999 11.9999 19.9999ZM16.1659 8.9659L13.1319 11.9999L16.1659 15.0339L15.0349 16.1649L12.0009 13.1309L8.9669 16.1649L7.8359 15.0339L10.8699 11.9999L7.8359 8.9659L8.9669 7.8349L12.0009 10.8689L15.0349 7.8349L16.1659 8.9659Z"/>
</svg>
