<svg width="24" height="24" viewBox="0 0 24 24" xmlns="http://www.w3.org/2000/svg">
<path d="M13.131 9.60012L14.965 11.4341L13.834 12.5651L12 10.7311L10.166 12.5651L9.035 11.4341L10.869 9.60012L9.035 7.76612L10.166 6.63512L12 8.46912L13.834 6.63512L14.965 7.76612L13.131 9.60012ZM20 9.60012C20 11.6531 19.384 13.4881 18.218 14.9081L12.926 21.3341C12.697 21.6121 12.36 21.7711 12 21.7711C11.64 21.7711 11.302 21.6121 11.074 21.3341L10.987 21.2291L12.845 18.9171L16.983 13.8931C17.91 12.7641 18.401 11.2801 18.401 9.60212C18.401 6.07312 15.53 3.20212 12.001 3.20212C8.472 3.20212 5.6 6.07112 5.6 9.60012C5.6 11.2781 6.09 12.7621 7.018 13.8921L8.806 16.0631L7.669 17.2001L5.782 14.9081C4.616 13.4881 4 11.6521 4 9.59912C4 5.18812 7.589 1.59912 12 1.59912C16.411 1.59912 20 5.18812 20 9.59912V9.60012ZM10.8 18.5001C10.8 18.9971 10.397 19.4001 9.9 19.4001C9.403 19.4001 9 18.9971 9 18.5001C9 18.0031 9.403 17.6001 9.9 17.6001C10.397 17.6001 10.8 18.0031 10.8 18.5001Z"/>
</svg>
