<svg width="24" height="24" viewBox="0 0 24 24" xmlns="http://www.w3.org/2000/svg">
<path d="M12.331 1.6001H4V22.4001H7V20.8001H5.6V3.2001H11.2V10.4001H18.4V20.8001H12V22.4001H20V9.2691L12.331 1.6001ZM12.8 4.3311L17.269 8.8001H12.8V4.3311ZM10.4 21.6001C10.4 21.7781 10.3472 21.9521 10.2483 22.1001C10.1494 22.2481 10.0089 22.3635 9.84442 22.4316C9.67996 22.4997 9.499 22.5175 9.32442 22.4828C9.14984 22.4481 8.98947 22.3624 8.8636 22.2365C8.73774 22.1106 8.65202 21.9503 8.61729 21.7757C8.58257 21.6011 8.60039 21.4201 8.66851 21.2557C8.73663 21.0912 8.85198 20.9507 8.99999 20.8518C9.14799 20.7529 9.322 20.7001 9.5 20.7001C9.73869 20.7001 9.96761 20.7949 10.1364 20.9637C10.3052 21.1325 10.4 21.3614 10.4 21.6001ZM9.106 15.5221L10.156 17.2221L9.226 17.3561L8.577 16.2741L7.977 17.2961H7L8.079 15.5151L7.132 13.9881L8.085 13.8541L8.624 14.7721L9.109 13.9131H10.071L9.104 15.5131L9.106 15.5221ZM12.859 13.9221H13.981V17.3001H13.106V15.8001L12.616 17.3001H11.851L11.357 15.7741V17.3001H10.529V13.9181H11.629L12.265 16.0181L12.859 13.9181V13.9221ZM16.953 17.3001H14.579V13.9181H15.479V16.5321H16.813L16.953 17.3001Z"/>
</svg>
