<svg width="24" height="24" viewBox="0 0 24 24" xmlns="http://www.w3.org/2000/svg">
<path d="M12 2.3999C6.707 2.3999 2.4 6.7069 2.4 11.9999C2.4 17.2929 6.707 21.5999 12 21.5999C17.293 21.5999 21.6 17.2929 21.6 11.9999C21.6 6.7069 17.293 2.3999 12 2.3999ZM12 19.9999C7.589 19.9999 4 16.4109 4 11.9999C4 7.5889 7.589 3.9999 12 3.9999C16.411 3.9999 20 7.5889 20 11.9999C20 16.4109 16.411 19.9999 12 19.9999ZM15.652 7.9909L13.11 12.2819H14.893V13.3879H13.015V13.9029H14.893V15.0239H13.015V15.9909H11.124V15.0239H9.271V13.9029H11.124V13.3879H9.271V12.2819H11.019L8.502 7.9909H10.486L12.084 10.7719L13.687 7.9909H15.652Z"/>
</svg>
