<svg width="24" height="24" viewBox="0 0 24 24" xmlns="http://www.w3.org/2000/svg">
<path d="M11.9823 6.16491C8.77299 6.16491 6.14782 8.7771 6.14782 11.9994C6.14782 15.2217 8.76001 17.8339 11.9823 17.8339C15.2046 17.8339 17.8168 15.2217 17.8168 11.9994C17.8168 8.7771 15.1906 6.16491 11.9823 6.16491ZM9.75956 15.1957V8.80506L15.1777 11.8616L9.75956 15.1957Z"/>
<path d="M11.9623 2.35547C6.6471 2.35547 2.33838 6.66419 2.33838 11.9794C2.33838 17.2947 6.6471 21.6034 11.9623 21.6034C17.2776 21.6034 21.5863 17.2947 21.5863 11.9794C21.5863 6.66419 17.2776 2.35547 11.9623 2.35547ZM11.9823 18.3911C8.45346 18.3911 5.59163 15.5293 5.59163 12.0004C5.59163 8.47155 8.45346 5.60972 11.9823 5.60972C15.5112 5.60972 18.373 8.47155 18.373 12.0004C18.373 15.5293 15.5112 18.3911 11.9823 18.3911Z"/>
</svg>
