<svg width="24" height="24" viewBox="0 0 24 24" xmlns="http://www.w3.org/2000/svg">
<path d="M21.9651 7.0488C21.7261 6.1638 21.0211 5.4668 20.1261 5.2298C18.5041 4.7998 12.0001 4.7998 12.0001 4.7998C12.0001 4.7998 5.4961 4.7998 3.8741 5.2298C2.9791 5.4668 2.2741 6.1638 2.0351 7.0488C1.6001 8.6528 1.6001 11.9998 1.6001 11.9998C1.6001 11.9998 1.6001 15.3468 2.0351 16.9508C2.2741 17.8358 2.9791 18.5328 3.8741 18.7698C5.4961 19.1998 12.0001 19.1998 12.0001 19.1998C12.0001 19.1998 18.5041 19.1998 20.1261 18.7698C21.0211 18.5328 21.7261 17.8358 21.9651 16.9508C22.4001 15.3468 22.4001 11.9998 22.4001 11.9998C22.4001 11.9998 22.4001 8.6528 21.9651 7.0488ZM9.9201 15.0858V8.9148L15.3241 12.0008L9.9201 15.0858Z"/>
</svg>
