<svg width="24" height="24" viewBox="0 0 24 24" xmlns="http://www.w3.org/2000/svg">
<path d="M12.0001 22.4001C6.2651 22.4001 1.6001 17.7351 1.6001 12.0001C1.6001 6.2651 6.2651 1.6001 12.0001 1.6001C17.7351 1.6001 22.4001 6.2651 22.4001 12.0001C22.4001 17.7351 17.7351 22.4001 12.0001 22.4001ZM12.0001 3.2001C7.1481 3.2001 3.2001 7.1481 3.2001 12.0001C3.2001 16.8521 7.1481 20.8001 12.0001 20.8001C16.8521 20.8001 20.8001 16.8521 20.8001 12.0001C20.8001 7.1481 16.8521 3.2001 12.0001 3.2001ZM12.0001 6.1741C15.2141 6.1741 17.8431 8.7901 17.8431 12.0171C17.8431 15.2441 15.2271 17.8601 12.0001 17.8601C8.7731 17.8601 6.1571 15.2441 6.1571 12.0171C6.1571 8.7901 8.7871 6.1741 12.0001 6.1741ZM12.0001 5.6181C8.4661 5.6181 5.6001 8.4841 5.6001 12.0181C5.6001 15.5521 8.4661 18.4181 12.0001 18.4181C15.5341 18.4181 18.4001 15.5521 18.4001 12.0181C18.4001 8.4841 15.5341 5.6181 12.0001 5.6181ZM9.7741 15.2181L15.2001 11.8791L9.7741 8.8181V15.2181Z"/>
</svg>
