<svg width="24" height="24" viewBox="0 0 24 24" xmlns="http://www.w3.org/2000/svg">
<path d="M18.1331 8.9531C17.9861 8.4081 17.5521 7.9791 17.0011 7.8341C16.0031 7.5691 12.0001 7.5691 12.0001 7.5691C12.0001 7.5691 7.9971 7.5691 6.9991 7.8341C6.4481 7.9801 6.0151 8.4091 5.8671 8.9531C5.6001 9.9401 5.6001 12.0001 5.6001 12.0001C5.6001 12.0001 5.6001 14.0601 5.8671 15.0471C6.0141 15.5921 6.4481 16.0211 6.9991 16.1661C7.9971 16.4311 12.0001 16.4311 12.0001 16.4311C12.0001 16.4311 16.0031 16.4311 17.0011 16.1661C17.5521 16.0201 17.9851 15.5911 18.1331 15.0471C18.4001 14.0601 18.4001 12.0001 18.4001 12.0001C18.4001 12.0001 18.4001 9.9401 18.1331 8.9531ZM10.7201 13.8991V10.1011L14.0451 12.0001L10.7201 13.8991ZM12.0001 22.4001C6.2651 22.4001 1.6001 17.7351 1.6001 12.0001C1.6001 6.2651 6.2651 1.6001 12.0001 1.6001C17.7351 1.6001 22.4001 6.2651 22.4001 12.0001C22.4001 17.7351 17.7351 22.4001 12.0001 22.4001ZM12.0001 3.2001C7.1481 3.2001 3.2001 7.1481 3.2001 12.0001C3.2001 16.8521 7.1481 20.8001 12.0001 20.8001C16.8521 20.8001 20.8001 16.8521 20.8001 12.0001C20.8001 7.1481 16.8521 3.2001 12.0001 3.2001Z"/>
</svg>
